<?xml version="1.0" encoding="utf-8" standalone="no"?>
<!DOCTYPE svg PUBLIC "-//W3C//DTD SVG 1.1//EN"
  "http://www.w3.org/Graphics/SVG/1.1/DTD/svg11.dtd">
<svg xmlns:xlink="http://www.w3.org/1999/xlink" width="460.8pt" height="345.6pt" viewBox="0 0 460.8 345.6" xmlns="http://www.w3.org/2000/svg" version="1.1">
 <metadata>
  <rdf:RDF xmlns:dc="http://purl.org/dc/elements/1.1/" xmlns:cc="http://creativecommons.org/ns#" xmlns:rdf="http://www.w3.org/1999/02/22-rdf-syntax-ns#">
   <cc:Work>
    <dc:type rdf:resource="http://purl.org/dc/dcmitype/StillImage"/>
    <dc:date>2025-03-21T22:56:55.300475</dc:date>
    <dc:format>image/svg+xml</dc:format>
    <dc:creator>
     <cc:Agent>
      <dc:title>Matplotlib v3.9.4, https://matplotlib.org/</dc:title>
     </cc:Agent>
    </dc:creator>
   </cc:Work>
  </rdf:RDF>
 </metadata>
 <defs>
  <style type="text/css">*{stroke-linejoin: round; stroke-linecap: butt}</style>
 </defs>
 <g id="figure_1">
  <g id="patch_1">
   <path d="M 0 345.6 
L 460.8 345.6 
L 460.8 0 
L 0 0 
z
" style="fill: #ffffff"/>
  </g>
  <g id="axes_1">
   <g id="patch_2">
    <path d="M 57.6 307.584 
L 414.72 307.584 
L 414.72 41.472 
L 57.6 41.472 
z
" style="fill: #eaeaf2"/>
   </g>
   <g id="matplotlib.axis_1">
    <g id="xtick_1">
     <g id="line2d_1">
      <path d="M 72.184735 307.584 
L 72.184735 41.472 
" clip-path="url(#pb3c6fb7e85)" style="fill: none; stroke: #ffffff; stroke-width: 0.8; stroke-linecap: round"/>
     </g>
     <g id="text_1">
      <!-- −10.0 -->
      <g style="fill: #262626" transform="translate(59.533953 321.741812) scale(0.1 -0.1)">
       <defs>
        <path id="ArialMT-2212" d="M 3381 1997 
L 356 1997 
L 356 2522 
L 3381 2522 
L 3381 1997 
z
" transform="scale(0.015625)"/>
        <path id="ArialMT-31" d="M 2384 0 
L 1822 0 
L 1822 3584 
Q 1619 3391 1289 3197 
Q 959 3003 697 2906 
L 697 3450 
Q 1169 3672 1522 3987 
Q 1875 4303 2022 4600 
L 2384 4600 
L 2384 0 
z
" transform="scale(0.015625)"/>
        <path id="ArialMT-30" d="M 266 2259 
Q 266 3072 433 3567 
Q 600 4063 929 4331 
Q 1259 4600 1759 4600 
Q 2128 4600 2406 4451 
Q 2684 4303 2865 4023 
Q 3047 3744 3150 3342 
Q 3253 2941 3253 2259 
Q 3253 1453 3087 958 
Q 2922 463 2592 192 
Q 2263 -78 1759 -78 
Q 1097 -78 719 397 
Q 266 969 266 2259 
z
M 844 2259 
Q 844 1131 1108 757 
Q 1372 384 1759 384 
Q 2147 384 2411 759 
Q 2675 1134 2675 2259 
Q 2675 3391 2411 3762 
Q 2147 4134 1753 4134 
Q 1366 4134 1134 3806 
Q 844 3388 844 2259 
z
" transform="scale(0.015625)"/>
        <path id="ArialMT-2e" d="M 581 0 
L 581 641 
L 1222 641 
L 1222 0 
L 581 0 
z
" transform="scale(0.015625)"/>
       </defs>
       <use xlink:href="#ArialMT-2212"/>
       <use xlink:href="#ArialMT-31" x="58.398438"/>
       <use xlink:href="#ArialMT-30" x="114.013672"/>
       <use xlink:href="#ArialMT-2e" x="169.628906"/>
       <use xlink:href="#ArialMT-30" x="197.412109"/>
      </g>
     </g>
    </g>
    <g id="xtick_2">
     <g id="line2d_2">
      <path d="M 113.384393 307.584 
L 113.384393 41.472 
" clip-path="url(#pb3c6fb7e85)" style="fill: none; stroke: #ffffff; stroke-width: 0.8; stroke-linecap: round"/>
     </g>
     <g id="text_2">
      <!-- −7.5 -->
      <g style="fill: #262626" transform="translate(103.51408 321.741812) scale(0.1 -0.1)">
       <defs>
        <path id="ArialMT-37" d="M 303 3981 
L 303 4522 
L 3269 4522 
L 3269 4084 
Q 2831 3619 2401 2847 
Q 1972 2075 1738 1259 
Q 1569 684 1522 0 
L 944 0 
Q 953 541 1156 1306 
Q 1359 2072 1739 2783 
Q 2119 3494 2547 3981 
L 303 3981 
z
" transform="scale(0.015625)"/>
        <path id="ArialMT-35" d="M 266 1200 
L 856 1250 
Q 922 819 1161 601 
Q 1400 384 1738 384 
Q 2144 384 2425 690 
Q 2706 997 2706 1503 
Q 2706 1984 2436 2262 
Q 2166 2541 1728 2541 
Q 1456 2541 1237 2417 
Q 1019 2294 894 2097 
L 366 2166 
L 809 4519 
L 3088 4519 
L 3088 3981 
L 1259 3981 
L 1013 2750 
Q 1425 3038 1878 3038 
Q 2478 3038 2890 2622 
Q 3303 2206 3303 1553 
Q 3303 931 2941 478 
Q 2500 -78 1738 -78 
Q 1113 -78 717 272 
Q 322 622 266 1200 
z
" transform="scale(0.015625)"/>
       </defs>
       <use xlink:href="#ArialMT-2212"/>
       <use xlink:href="#ArialMT-37" x="58.398438"/>
       <use xlink:href="#ArialMT-2e" x="114.013672"/>
       <use xlink:href="#ArialMT-35" x="141.796875"/>
      </g>
     </g>
    </g>
    <g id="xtick_3">
     <g id="line2d_3">
      <path d="M 154.584051 307.584 
L 154.584051 41.472 
" clip-path="url(#pb3c6fb7e85)" style="fill: none; stroke: #ffffff; stroke-width: 0.8; stroke-linecap: round"/>
     </g>
     <g id="text_3">
      <!-- −5.0 -->
      <g style="fill: #262626" transform="translate(144.713739 321.741812) scale(0.1 -0.1)">
       <use xlink:href="#ArialMT-2212"/>
       <use xlink:href="#ArialMT-35" x="58.398438"/>
       <use xlink:href="#ArialMT-2e" x="114.013672"/>
       <use xlink:href="#ArialMT-30" x="141.796875"/>
      </g>
     </g>
    </g>
    <g id="xtick_4">
     <g id="line2d_4">
      <path d="M 195.783709 307.584 
L 195.783709 41.472 
" clip-path="url(#pb3c6fb7e85)" style="fill: none; stroke: #ffffff; stroke-width: 0.8; stroke-linecap: round"/>
     </g>
     <g id="text_4">
      <!-- −2.5 -->
      <g style="fill: #262626" transform="translate(185.913397 321.741812) scale(0.1 -0.1)">
       <defs>
        <path id="ArialMT-32" d="M 3222 541 
L 3222 0 
L 194 0 
Q 188 203 259 391 
Q 375 700 629 1000 
Q 884 1300 1366 1694 
Q 2113 2306 2375 2664 
Q 2638 3022 2638 3341 
Q 2638 3675 2398 3904 
Q 2159 4134 1775 4134 
Q 1369 4134 1125 3890 
Q 881 3647 878 3216 
L 300 3275 
Q 359 3922 746 4261 
Q 1134 4600 1788 4600 
Q 2447 4600 2831 4234 
Q 3216 3869 3216 3328 
Q 3216 3053 3103 2787 
Q 2991 2522 2730 2228 
Q 2469 1934 1863 1422 
Q 1356 997 1212 845 
Q 1069 694 975 541 
L 3222 541 
z
" transform="scale(0.015625)"/>
       </defs>
       <use xlink:href="#ArialMT-2212"/>
       <use xlink:href="#ArialMT-32" x="58.398438"/>
       <use xlink:href="#ArialMT-2e" x="114.013672"/>
       <use xlink:href="#ArialMT-35" x="141.796875"/>
      </g>
     </g>
    </g>
    <g id="xtick_5">
     <g id="line2d_5">
      <path d="M 236.983368 307.584 
L 236.983368 41.472 
" clip-path="url(#pb3c6fb7e85)" style="fill: none; stroke: #ffffff; stroke-width: 0.8; stroke-linecap: round"/>
     </g>
     <g id="text_5">
      <!-- 0.0 -->
      <g style="fill: #262626" transform="translate(230.033368 321.741812) scale(0.1 -0.1)">
       <use xlink:href="#ArialMT-30"/>
       <use xlink:href="#ArialMT-2e" x="55.615234"/>
       <use xlink:href="#ArialMT-30" x="83.398438"/>
      </g>
     </g>
    </g>
    <g id="xtick_6">
     <g id="line2d_6">
      <path d="M 278.183026 307.584 
L 278.183026 41.472 
" clip-path="url(#pb3c6fb7e85)" style="fill: none; stroke: #ffffff; stroke-width: 0.8; stroke-linecap: round"/>
     </g>
     <g id="text_6">
      <!-- 2.5 -->
      <g style="fill: #262626" transform="translate(271.233026 321.741812) scale(0.1 -0.1)">
       <use xlink:href="#ArialMT-32"/>
       <use xlink:href="#ArialMT-2e" x="55.615234"/>
       <use xlink:href="#ArialMT-35" x="83.398438"/>
      </g>
     </g>
    </g>
    <g id="xtick_7">
     <g id="line2d_7">
      <path d="M 319.382684 307.584 
L 319.382684 41.472 
" clip-path="url(#pb3c6fb7e85)" style="fill: none; stroke: #ffffff; stroke-width: 0.8; stroke-linecap: round"/>
     </g>
     <g id="text_7">
      <!-- 5.0 -->
      <g style="fill: #262626" transform="translate(312.432684 321.741812) scale(0.1 -0.1)">
       <use xlink:href="#ArialMT-35"/>
       <use xlink:href="#ArialMT-2e" x="55.615234"/>
       <use xlink:href="#ArialMT-30" x="83.398438"/>
      </g>
     </g>
    </g>
    <g id="xtick_8">
     <g id="line2d_8">
      <path d="M 360.582342 307.584 
L 360.582342 41.472 
" clip-path="url(#pb3c6fb7e85)" style="fill: none; stroke: #ffffff; stroke-width: 0.8; stroke-linecap: round"/>
     </g>
     <g id="text_8">
      <!-- 7.5 -->
      <g style="fill: #262626" transform="translate(353.632342 321.741812) scale(0.1 -0.1)">
       <use xlink:href="#ArialMT-37"/>
       <use xlink:href="#ArialMT-2e" x="55.615234"/>
       <use xlink:href="#ArialMT-35" x="83.398438"/>
      </g>
     </g>
    </g>
    <g id="xtick_9">
     <g id="line2d_9">
      <path d="M 401.782001 307.584 
L 401.782001 41.472 
" clip-path="url(#pb3c6fb7e85)" style="fill: none; stroke: #ffffff; stroke-width: 0.8; stroke-linecap: round"/>
     </g>
     <g id="text_9">
      <!-- 10.0 -->
      <g style="fill: #262626" transform="translate(392.051532 321.741812) scale(0.1 -0.1)">
       <use xlink:href="#ArialMT-31"/>
       <use xlink:href="#ArialMT-30" x="55.615234"/>
       <use xlink:href="#ArialMT-2e" x="111.230469"/>
       <use xlink:href="#ArialMT-30" x="139.013672"/>
      </g>
     </g>
    </g>
    <g id="text_10">
     <!-- $x$ -->
     <g style="fill: #262626" transform="translate(233.16 334.887125) scale(0.1 -0.1)">
      <defs>
       <path id="DejaVuSans-Oblique-78" d="M 3841 3500 
L 2234 1784 
L 3219 0 
L 2559 0 
L 1819 1388 
L 531 0 
L -166 0 
L 1556 1844 
L 641 3500 
L 1300 3500 
L 1972 2234 
L 3144 3500 
L 3841 3500 
z
" transform="scale(0.015625)"/>
      </defs>
      <use xlink:href="#DejaVuSans-Oblique-78" transform="translate(0 0.3125)"/>
     </g>
    </g>
   </g>
   <g id="matplotlib.axis_2">
    <g id="ytick_1">
     <g id="line2d_10">
      <path d="M 57.6 296.049822 
L 414.72 296.049822 
" clip-path="url(#pb3c6fb7e85)" style="fill: none; stroke: #ffffff; stroke-width: 0.8; stroke-linecap: round"/>
     </g>
     <g id="text_11">
      <!-- 0.0 -->
      <g style="fill: #262626" transform="translate(36.7 299.628728) scale(0.1 -0.1)">
       <use xlink:href="#ArialMT-30"/>
       <use xlink:href="#ArialMT-2e" x="55.615234"/>
       <use xlink:href="#ArialMT-30" x="83.398438"/>
      </g>
     </g>
    </g>
    <g id="ytick_2">
     <g id="line2d_11">
      <path d="M 57.6 258.450771 
L 414.72 258.450771 
" clip-path="url(#pb3c6fb7e85)" style="fill: none; stroke: #ffffff; stroke-width: 0.8; stroke-linecap: round"/>
     </g>
     <g id="text_12">
      <!-- 0.2 -->
      <g style="fill: #262626" transform="translate(36.7 262.029677) scale(0.1 -0.1)">
       <use xlink:href="#ArialMT-30"/>
       <use xlink:href="#ArialMT-2e" x="55.615234"/>
       <use xlink:href="#ArialMT-32" x="83.398438"/>
      </g>
     </g>
    </g>
    <g id="ytick_3">
     <g id="line2d_12">
      <path d="M 57.6 220.851721 
L 414.72 220.851721 
" clip-path="url(#pb3c6fb7e85)" style="fill: none; stroke: #ffffff; stroke-width: 0.8; stroke-linecap: round"/>
     </g>
     <g id="text_13">
      <!-- 0.4 -->
      <g style="fill: #262626" transform="translate(36.7 224.430627) scale(0.1 -0.1)">
       <defs>
        <path id="ArialMT-34" d="M 2069 0 
L 2069 1097 
L 81 1097 
L 81 1613 
L 2172 4581 
L 2631 4581 
L 2631 1613 
L 3250 1613 
L 3250 1097 
L 2631 1097 
L 2631 0 
L 2069 0 
z
M 2069 1613 
L 2069 3678 
L 634 1613 
L 2069 1613 
z
" transform="scale(0.015625)"/>
       </defs>
       <use xlink:href="#ArialMT-30"/>
       <use xlink:href="#ArialMT-2e" x="55.615234"/>
       <use xlink:href="#ArialMT-34" x="83.398438"/>
      </g>
     </g>
    </g>
    <g id="ytick_4">
     <g id="line2d_13">
      <path d="M 57.6 183.25267 
L 414.72 183.25267 
" clip-path="url(#pb3c6fb7e85)" style="fill: none; stroke: #ffffff; stroke-width: 0.8; stroke-linecap: round"/>
     </g>
     <g id="text_14">
      <!-- 0.6 -->
      <g style="fill: #262626" transform="translate(36.7 186.831576) scale(0.1 -0.1)">
       <defs>
        <path id="ArialMT-36" d="M 3184 3459 
L 2625 3416 
Q 2550 3747 2413 3897 
Q 2184 4138 1850 4138 
Q 1581 4138 1378 3988 
Q 1113 3794 959 3422 
Q 806 3050 800 2363 
Q 1003 2672 1297 2822 
Q 1591 2972 1913 2972 
Q 2475 2972 2870 2558 
Q 3266 2144 3266 1488 
Q 3266 1056 3080 686 
Q 2894 316 2569 119 
Q 2244 -78 1831 -78 
Q 1128 -78 684 439 
Q 241 956 241 2144 
Q 241 3472 731 4075 
Q 1159 4600 1884 4600 
Q 2425 4600 2770 4297 
Q 3116 3994 3184 3459 
z
M 888 1484 
Q 888 1194 1011 928 
Q 1134 663 1356 523 
Q 1578 384 1822 384 
Q 2178 384 2434 671 
Q 2691 959 2691 1453 
Q 2691 1928 2437 2201 
Q 2184 2475 1800 2475 
Q 1419 2475 1153 2201 
Q 888 1928 888 1484 
z
" transform="scale(0.015625)"/>
       </defs>
       <use xlink:href="#ArialMT-30"/>
       <use xlink:href="#ArialMT-2e" x="55.615234"/>
       <use xlink:href="#ArialMT-36" x="83.398438"/>
      </g>
     </g>
    </g>
    <g id="ytick_5">
     <g id="line2d_14">
      <path d="M 57.6 145.653619 
L 414.72 145.653619 
" clip-path="url(#pb3c6fb7e85)" style="fill: none; stroke: #ffffff; stroke-width: 0.8; stroke-linecap: round"/>
     </g>
     <g id="text_15">
      <!-- 0.8 -->
      <g style="fill: #262626" transform="translate(36.7 149.232526) scale(0.1 -0.1)">
       <defs>
        <path id="ArialMT-38" d="M 1131 2484 
Q 781 2613 612 2850 
Q 444 3088 444 3419 
Q 444 3919 803 4259 
Q 1163 4600 1759 4600 
Q 2359 4600 2725 4251 
Q 3091 3903 3091 3403 
Q 3091 3084 2923 2848 
Q 2756 2613 2416 2484 
Q 2838 2347 3058 2040 
Q 3278 1734 3278 1309 
Q 3278 722 2862 322 
Q 2447 -78 1769 -78 
Q 1091 -78 675 323 
Q 259 725 259 1325 
Q 259 1772 486 2073 
Q 713 2375 1131 2484 
z
M 1019 3438 
Q 1019 3113 1228 2906 
Q 1438 2700 1772 2700 
Q 2097 2700 2305 2904 
Q 2513 3109 2513 3406 
Q 2513 3716 2298 3927 
Q 2084 4138 1766 4138 
Q 1444 4138 1231 3931 
Q 1019 3725 1019 3438 
z
M 838 1322 
Q 838 1081 952 856 
Q 1066 631 1291 507 
Q 1516 384 1775 384 
Q 2178 384 2440 643 
Q 2703 903 2703 1303 
Q 2703 1709 2433 1975 
Q 2163 2241 1756 2241 
Q 1359 2241 1098 1978 
Q 838 1716 838 1322 
z
" transform="scale(0.015625)"/>
       </defs>
       <use xlink:href="#ArialMT-30"/>
       <use xlink:href="#ArialMT-2e" x="55.615234"/>
       <use xlink:href="#ArialMT-38" x="83.398438"/>
      </g>
     </g>
    </g>
    <g id="ytick_6">
     <g id="line2d_15">
      <path d="M 57.6 108.054569 
L 414.72 108.054569 
" clip-path="url(#pb3c6fb7e85)" style="fill: none; stroke: #ffffff; stroke-width: 0.8; stroke-linecap: round"/>
     </g>
     <g id="text_16">
      <!-- 1.0 -->
      <g style="fill: #262626" transform="translate(36.7 111.633475) scale(0.1 -0.1)">
       <use xlink:href="#ArialMT-31"/>
       <use xlink:href="#ArialMT-2e" x="55.615234"/>
       <use xlink:href="#ArialMT-30" x="83.398438"/>
      </g>
     </g>
    </g>
    <g id="ytick_7">
     <g id="line2d_16">
      <path d="M 57.6 70.455518 
L 414.72 70.455518 
" clip-path="url(#pb3c6fb7e85)" style="fill: none; stroke: #ffffff; stroke-width: 0.8; stroke-linecap: round"/>
     </g>
     <g id="text_17">
      <!-- 1.2 -->
      <g style="fill: #262626" transform="translate(36.7 74.034424) scale(0.1 -0.1)">
       <use xlink:href="#ArialMT-31"/>
       <use xlink:href="#ArialMT-2e" x="55.615234"/>
       <use xlink:href="#ArialMT-32" x="83.398438"/>
      </g>
     </g>
    </g>
    <g id="text_18">
     <!-- contraction estimate $\tau_x(P^n)$ -->
     <g style="fill: #262626" transform="translate(30.7125 235.528) rotate(-90) scale(0.1 -0.1)">
      <defs>
       <path id="ArialMT-63" d="M 2588 1216 
L 3141 1144 
Q 3050 572 2676 248 
Q 2303 -75 1759 -75 
Q 1078 -75 664 370 
Q 250 816 250 1647 
Q 250 2184 428 2587 
Q 606 2991 970 3192 
Q 1334 3394 1763 3394 
Q 2303 3394 2647 3120 
Q 2991 2847 3088 2344 
L 2541 2259 
Q 2463 2594 2264 2762 
Q 2066 2931 1784 2931 
Q 1359 2931 1093 2626 
Q 828 2322 828 1663 
Q 828 994 1084 691 
Q 1341 388 1753 388 
Q 2084 388 2306 591 
Q 2528 794 2588 1216 
z
" transform="scale(0.015625)"/>
       <path id="ArialMT-6f" d="M 213 1659 
Q 213 2581 725 3025 
Q 1153 3394 1769 3394 
Q 2453 3394 2887 2945 
Q 3322 2497 3322 1706 
Q 3322 1066 3130 698 
Q 2938 331 2570 128 
Q 2203 -75 1769 -75 
Q 1072 -75 642 372 
Q 213 819 213 1659 
z
M 791 1659 
Q 791 1022 1069 705 
Q 1347 388 1769 388 
Q 2188 388 2466 706 
Q 2744 1025 2744 1678 
Q 2744 2294 2464 2611 
Q 2184 2928 1769 2928 
Q 1347 2928 1069 2612 
Q 791 2297 791 1659 
z
" transform="scale(0.015625)"/>
       <path id="ArialMT-6e" d="M 422 0 
L 422 3319 
L 928 3319 
L 928 2847 
Q 1294 3394 1984 3394 
Q 2284 3394 2536 3286 
Q 2788 3178 2913 3003 
Q 3038 2828 3088 2588 
Q 3119 2431 3119 2041 
L 3119 0 
L 2556 0 
L 2556 2019 
Q 2556 2363 2490 2533 
Q 2425 2703 2258 2804 
Q 2091 2906 1866 2906 
Q 1506 2906 1245 2678 
Q 984 2450 984 1813 
L 984 0 
L 422 0 
z
" transform="scale(0.015625)"/>
       <path id="ArialMT-74" d="M 1650 503 
L 1731 6 
Q 1494 -44 1306 -44 
Q 1000 -44 831 53 
Q 663 150 594 308 
Q 525 466 525 972 
L 525 2881 
L 113 2881 
L 113 3319 
L 525 3319 
L 525 4141 
L 1084 4478 
L 1084 3319 
L 1650 3319 
L 1650 2881 
L 1084 2881 
L 1084 941 
Q 1084 700 1114 631 
Q 1144 563 1211 522 
Q 1278 481 1403 481 
Q 1497 481 1650 503 
z
" transform="scale(0.015625)"/>
       <path id="ArialMT-72" d="M 416 0 
L 416 3319 
L 922 3319 
L 922 2816 
Q 1116 3169 1280 3281 
Q 1444 3394 1641 3394 
Q 1925 3394 2219 3213 
L 2025 2691 
Q 1819 2813 1613 2813 
Q 1428 2813 1281 2702 
Q 1134 2591 1072 2394 
Q 978 2094 978 1738 
L 978 0 
L 416 0 
z
" transform="scale(0.015625)"/>
       <path id="ArialMT-61" d="M 2588 409 
Q 2275 144 1986 34 
Q 1697 -75 1366 -75 
Q 819 -75 525 192 
Q 231 459 231 875 
Q 231 1119 342 1320 
Q 453 1522 633 1644 
Q 813 1766 1038 1828 
Q 1203 1872 1538 1913 
Q 2219 1994 2541 2106 
Q 2544 2222 2544 2253 
Q 2544 2597 2384 2738 
Q 2169 2928 1744 2928 
Q 1347 2928 1158 2789 
Q 969 2650 878 2297 
L 328 2372 
Q 403 2725 575 2942 
Q 747 3159 1072 3276 
Q 1397 3394 1825 3394 
Q 2250 3394 2515 3294 
Q 2781 3194 2906 3042 
Q 3031 2891 3081 2659 
Q 3109 2516 3109 2141 
L 3109 1391 
Q 3109 606 3145 398 
Q 3181 191 3288 0 
L 2700 0 
Q 2613 175 2588 409 
z
M 2541 1666 
Q 2234 1541 1622 1453 
Q 1275 1403 1131 1340 
Q 988 1278 909 1158 
Q 831 1038 831 891 
Q 831 666 1001 516 
Q 1172 366 1500 366 
Q 1825 366 2078 508 
Q 2331 650 2450 897 
Q 2541 1088 2541 1459 
L 2541 1666 
z
" transform="scale(0.015625)"/>
       <path id="ArialMT-69" d="M 425 3934 
L 425 4581 
L 988 4581 
L 988 3934 
L 425 3934 
z
M 425 0 
L 425 3319 
L 988 3319 
L 988 0 
L 425 0 
z
" transform="scale(0.015625)"/>
       <path id="ArialMT-20" transform="scale(0.015625)"/>
       <path id="ArialMT-65" d="M 2694 1069 
L 3275 997 
Q 3138 488 2766 206 
Q 2394 -75 1816 -75 
Q 1088 -75 661 373 
Q 234 822 234 1631 
Q 234 2469 665 2931 
Q 1097 3394 1784 3394 
Q 2450 3394 2872 2941 
Q 3294 2488 3294 1666 
Q 3294 1616 3291 1516 
L 816 1516 
Q 847 969 1125 678 
Q 1403 388 1819 388 
Q 2128 388 2347 550 
Q 2566 713 2694 1069 
z
M 847 1978 
L 2700 1978 
Q 2663 2397 2488 2606 
Q 2219 2931 1791 2931 
Q 1403 2931 1139 2672 
Q 875 2413 847 1978 
z
" transform="scale(0.015625)"/>
       <path id="ArialMT-73" d="M 197 991 
L 753 1078 
Q 800 744 1014 566 
Q 1228 388 1613 388 
Q 2000 388 2187 545 
Q 2375 703 2375 916 
Q 2375 1106 2209 1216 
Q 2094 1291 1634 1406 
Q 1016 1563 777 1677 
Q 538 1791 414 1992 
Q 291 2194 291 2438 
Q 291 2659 392 2848 
Q 494 3038 669 3163 
Q 800 3259 1026 3326 
Q 1253 3394 1513 3394 
Q 1903 3394 2198 3281 
Q 2494 3169 2634 2976 
Q 2775 2784 2828 2463 
L 2278 2388 
Q 2241 2644 2061 2787 
Q 1881 2931 1553 2931 
Q 1166 2931 1000 2803 
Q 834 2675 834 2503 
Q 834 2394 903 2306 
Q 972 2216 1119 2156 
Q 1203 2125 1616 2013 
Q 2213 1853 2448 1751 
Q 2684 1650 2818 1456 
Q 2953 1263 2953 975 
Q 2953 694 2789 445 
Q 2625 197 2315 61 
Q 2006 -75 1616 -75 
Q 969 -75 630 194 
Q 291 463 197 991 
z
" transform="scale(0.015625)"/>
       <path id="ArialMT-6d" d="M 422 0 
L 422 3319 
L 925 3319 
L 925 2853 
Q 1081 3097 1340 3245 
Q 1600 3394 1931 3394 
Q 2300 3394 2536 3241 
Q 2772 3088 2869 2813 
Q 3263 3394 3894 3394 
Q 4388 3394 4653 3120 
Q 4919 2847 4919 2278 
L 4919 0 
L 4359 0 
L 4359 2091 
Q 4359 2428 4304 2576 
Q 4250 2725 4106 2815 
Q 3963 2906 3769 2906 
Q 3419 2906 3187 2673 
Q 2956 2441 2956 1928 
L 2956 0 
L 2394 0 
L 2394 2156 
Q 2394 2531 2256 2718 
Q 2119 2906 1806 2906 
Q 1569 2906 1367 2781 
Q 1166 2656 1075 2415 
Q 984 2175 984 1722 
L 984 0 
L 422 0 
z
" transform="scale(0.015625)"/>
       <path id="DejaVuSans-Oblique-3c4" d="M 2103 638 
Q 2188 488 2525 488 
L 2800 488 
L 2706 0 
L 2363 0 
Q 1800 0 1600 300 
Q 1403 606 1534 1269 
L 1856 2925 
L 541 2925 
L 653 3500 
L 3881 3500 
L 3769 2925 
L 2444 2925 
L 2113 1234 
Q 2025 781 2103 638 
z
" transform="scale(0.015625)"/>
       <path id="DejaVuSans-28" d="M 1984 4856 
Q 1566 4138 1362 3434 
Q 1159 2731 1159 2009 
Q 1159 1288 1364 580 
Q 1569 -128 1984 -844 
L 1484 -844 
Q 1016 -109 783 600 
Q 550 1309 550 2009 
Q 550 2706 781 3412 
Q 1013 4119 1484 4856 
L 1984 4856 
z
" transform="scale(0.015625)"/>
       <path id="DejaVuSans-Oblique-50" d="M 1081 4666 
L 2541 4666 
Q 3178 4666 3512 4369 
Q 3847 4072 3847 3500 
Q 3847 2731 3353 2303 
Q 2859 1875 1966 1875 
L 1172 1875 
L 806 0 
L 172 0 
L 1081 4666 
z
M 1613 4147 
L 1275 2394 
L 2069 2394 
Q 2606 2394 2893 2669 
Q 3181 2944 3181 3456 
Q 3181 3784 2986 3965 
Q 2791 4147 2438 4147 
L 1613 4147 
z
" transform="scale(0.015625)"/>
       <path id="DejaVuSans-Oblique-6e" d="M 3566 2113 
L 3156 0 
L 2578 0 
L 2988 2091 
Q 3016 2238 3031 2350 
Q 3047 2463 3047 2528 
Q 3047 2791 2881 2937 
Q 2716 3084 2419 3084 
Q 1956 3084 1622 2776 
Q 1288 2469 1184 1941 
L 800 0 
L 225 0 
L 903 3500 
L 1478 3500 
L 1363 2950 
Q 1603 3253 1940 3418 
Q 2278 3584 2650 3584 
Q 3113 3584 3367 3334 
Q 3622 3084 3622 2631 
Q 3622 2519 3608 2391 
Q 3594 2263 3566 2113 
z
" transform="scale(0.015625)"/>
       <path id="DejaVuSans-29" d="M 513 4856 
L 1013 4856 
Q 1481 4119 1714 3412 
Q 1947 2706 1947 2009 
Q 1947 1309 1714 600 
Q 1481 -109 1013 -844 
L 513 -844 
Q 928 -128 1133 580 
Q 1338 1288 1338 2009 
Q 1338 2731 1133 3434 
Q 928 4138 513 4856 
z
" transform="scale(0.015625)"/>
      </defs>
      <use xlink:href="#ArialMT-63" transform="translate(0 0.51875)"/>
      <use xlink:href="#ArialMT-6f" transform="translate(50 0.51875)"/>
      <use xlink:href="#ArialMT-6e" transform="translate(105.615234 0.51875)"/>
      <use xlink:href="#ArialMT-74" transform="translate(161.230469 0.51875)"/>
      <use xlink:href="#ArialMT-72" transform="translate(189.013672 0.51875)"/>
      <use xlink:href="#ArialMT-61" transform="translate(222.314453 0.51875)"/>
      <use xlink:href="#ArialMT-63" transform="translate(277.929688 0.51875)"/>
      <use xlink:href="#ArialMT-74" transform="translate(327.929688 0.51875)"/>
      <use xlink:href="#ArialMT-69" transform="translate(355.712891 0.51875)"/>
      <use xlink:href="#ArialMT-6f" transform="translate(377.929688 0.51875)"/>
      <use xlink:href="#ArialMT-6e" transform="translate(433.544922 0.51875)"/>
      <use xlink:href="#ArialMT-20" transform="translate(489.160156 0.51875)"/>
      <use xlink:href="#ArialMT-65" transform="translate(516.943359 0.51875)"/>
      <use xlink:href="#ArialMT-73" transform="translate(572.558594 0.51875)"/>
      <use xlink:href="#ArialMT-74" transform="translate(622.558594 0.51875)"/>
      <use xlink:href="#ArialMT-69" transform="translate(650.341797 0.51875)"/>
      <use xlink:href="#ArialMT-6d" transform="translate(672.558594 0.51875)"/>
      <use xlink:href="#ArialMT-61" transform="translate(755.859375 0.51875)"/>
      <use xlink:href="#ArialMT-74" transform="translate(811.474609 0.51875)"/>
      <use xlink:href="#ArialMT-65" transform="translate(839.257812 0.51875)"/>
      <use xlink:href="#ArialMT-20" transform="translate(894.873047 0.51875)"/>
      <use xlink:href="#DejaVuSans-Oblique-3c4" transform="translate(922.65625 0.51875)"/>
      <use xlink:href="#DejaVuSans-Oblique-78" transform="translate(982.861328 -15.8875) scale(0.7)"/>
      <use xlink:href="#DejaVuSans-28" transform="translate(1027.021484 0.51875)"/>
      <use xlink:href="#DejaVuSans-Oblique-50" transform="translate(1066.035156 0.51875)"/>
      <use xlink:href="#DejaVuSans-Oblique-6e" transform="translate(1133.354661 38.8) scale(0.7)"/>
      <use xlink:href="#DejaVuSans-29" transform="translate(1180.454271 0.51875)"/>
     </g>
    </g>
   </g>
   <g id="line2d_17">
    <path d="M 73.832727 108.054737 
L 200.728159 108.14271 
L 202.376151 108.247414 
L 204.024144 128.668498 
L 205.672137 152.62439 
L 207.320129 163.107604 
L 208.968122 168.576865 
L 210.616114 164.733091 
L 212.264107 150.490009 
L 213.9121 138.633037 
L 215.560092 129.448606 
L 217.208085 122.979611 
L 218.856078 124.608213 
L 220.50407 122.953614 
L 222.152063 90.85927 
L 223.800055 69.014496 
L 225.448048 56.373628 
L 227.096041 53.568 
L 228.744033 63.390287 
L 230.392026 82.775679 
L 232.040018 97.600522 
L 233.688011 111.232978 
L 235.336004 128.154271 
L 236.983996 140.346655 
L 238.631989 127.204424 
L 240.279982 111.367846 
L 241.927974 96.971384 
L 245.223959 63.434974 
L 246.871952 55.724701 
L 248.519945 57.597122 
L 250.167937 67.851802 
L 251.81593 88.720475 
L 253.463922 121.372142 
L 255.111915 125.277467 
L 256.759908 121.975048 
L 258.4079 127.774845 
L 260.055893 136.06577 
L 261.703886 149.966348 
L 263.351878 165.632144 
L 264.999871 168.933488 
L 266.647863 163.723026 
L 268.295856 154.244835 
L 269.943849 129.1323 
L 271.591841 108.065617 
L 325.975598 108.05467 
L 398.487273 108.054591 
L 398.487273 108.054591 
" clip-path="url(#pb3c6fb7e85)" style="fill: none; stroke: #0000ff; stroke-width: 1.5; stroke-linecap: round"/>
   </g>
   <g id="line2d_18">
    <path d="M 73.832727 109.558825 
L 75.48072 109.861931 
L 77.128713 109.938632 
L 78.776705 109.812605 
L 80.424698 110.013394 
L 82.07269 110.455593 
L 85.368676 110.642532 
L 87.016668 111.301981 
L 88.664661 111.703985 
L 90.312653 111.67363 
L 91.960646 112.162487 
L 93.608639 112.818765 
L 95.256631 112.834531 
L 96.904624 113.945209 
L 98.552617 114.772716 
L 100.200609 114.831959 
L 101.848602 115.798973 
L 103.496594 116.382247 
L 105.144587 117.414633 
L 106.79258 118.634317 
L 108.440572 118.795036 
L 110.088565 119.806748 
L 111.736557 121.822217 
L 113.38455 122.734067 
L 115.032543 122.919864 
L 116.680535 123.975916 
L 118.328528 125.917317 
L 119.976521 126.623794 
L 121.624513 128.1537 
L 123.272506 131.207819 
L 124.920498 132.998462 
L 126.568491 134.103303 
L 128.216484 135.84081 
L 129.864476 138.233733 
L 131.512469 141.045479 
L 133.160461 144.391789 
L 134.808454 146.233126 
L 136.456447 148.356817 
L 138.104439 151.103314 
L 139.752432 152.969785 
L 141.400425 156.007644 
L 143.048417 159.30752 
L 144.69641 160.173427 
L 146.344402 163.656903 
L 147.992395 168.97776 
L 149.640388 172.575027 
L 151.28838 174.572746 
L 152.936373 177.193104 
L 156.232358 185.803505 
L 157.880351 188.83444 
L 159.528343 191.381425 
L 161.176336 196.69464 
L 162.824329 201.126518 
L 164.472321 204.662048 
L 166.120314 207.770261 
L 167.768306 210.364085 
L 171.064292 220.4922 
L 172.712284 223.549815 
L 174.360277 228.570553 
L 176.008269 232.717836 
L 177.656262 234.619273 
L 179.304255 234.999875 
L 180.952247 239.713887 
L 182.60024 244.769227 
L 184.248233 249.210618 
L 185.896225 250.837655 
L 187.544218 250.429493 
L 189.19221 254.241074 
L 190.840203 259.284258 
L 192.488196 261.300299 
L 195.784181 265.055847 
L 197.432174 262.873213 
L 199.080166 260.188715 
L 200.728159 257.210572 
L 202.376151 260.823204 
L 204.024144 276.116515 
L 205.672137 289.357867 
L 207.320129 284.777388 
L 208.968122 280.63906 
L 210.616114 269.755704 
L 212.264107 253.195527 
L 213.9121 239.164515 
L 215.560092 219.930166 
L 217.208085 189.815338 
L 218.856078 195.558335 
L 220.50407 197.117005 
L 222.152063 78.839158 
L 223.800055 81.986147 
L 225.448048 119.756851 
L 227.096041 147.658766 
L 228.744033 161.617556 
L 230.392026 173.104381 
L 232.040018 183.614409 
L 235.336004 209.182684 
L 236.983996 213.739871 
L 238.631989 214.197578 
L 240.279982 197.852023 
L 241.927974 182.75788 
L 243.575967 173.875827 
L 246.871952 143.33939 
L 248.519945 118.771583 
L 250.167937 81.886935 
L 251.81593 77.357649 
L 253.463922 196.399367 
L 255.111915 196.831559 
L 256.759908 191.307033 
L 258.4079 213.820438 
L 260.055893 232.968069 
L 261.703886 254.3575 
L 263.351878 269.858253 
L 264.999871 280.947398 
L 266.647863 288.37433 
L 268.295856 287.05564 
L 269.943849 272.954752 
L 271.591841 262.694997 
L 273.239834 263.804003 
L 274.887826 260.43778 
L 276.535819 259.146516 
L 278.183812 263.903263 
L 279.831804 262.043633 
L 281.479797 257.182189 
L 283.12779 253.627881 
L 284.775782 255.588962 
L 286.423775 254.120602 
L 288.071767 252.367224 
L 289.71976 252.121344 
L 291.367753 244.373951 
L 294.663738 236.484399 
L 296.311731 233.406592 
L 297.959723 233.460859 
L 301.255708 219.47642 
L 302.903701 217.895379 
L 304.551694 218.060815 
L 306.199686 214.164875 
L 307.847679 209.018379 
L 309.495671 205.581137 
L 311.143664 199.279567 
L 312.791657 196.127939 
L 314.439649 195.91572 
L 316.087642 189.718075 
L 317.735635 182.678445 
L 319.383627 178.81067 
L 321.03162 177.707062 
L 322.679612 173.847455 
L 324.327605 169.516359 
L 325.975598 169.68147 
L 329.271583 161.663307 
L 330.919575 159.614839 
L 332.567568 155.950071 
L 334.215561 152.89946 
L 335.863553 151.349788 
L 337.511546 148.687858 
L 339.159539 145.572255 
L 340.807531 144.205903 
L 342.455524 142.034892 
L 344.103516 138.58259 
L 345.751509 136.089424 
L 349.047494 132.119511 
L 350.695487 130.923168 
L 352.343479 128.963849 
L 353.991472 125.758301 
L 355.639465 124.370648 
L 357.287457 124.375914 
L 358.93545 123.474586 
L 360.583443 122.251731 
L 362.231435 121.650999 
L 363.879428 120.433074 
L 365.52742 118.854111 
L 367.175413 118.322001 
L 368.823406 117.670844 
L 370.471398 116.147516 
L 372.119391 115.454709 
L 373.767383 115.151548 
L 375.415376 114.475963 
L 377.063369 113.439465 
L 378.711361 113.141536 
L 380.359354 113.233039 
L 382.007347 112.376622 
L 385.303332 111.661169 
L 386.951324 111.14989 
L 393.543295 109.956717 
L 395.191287 110.057768 
L 396.83928 109.963766 
L 398.487273 109.476925 
L 398.487273 109.476925 
" clip-path="url(#pb3c6fb7e85)" style="fill: none; stroke: #00008b; stroke-width: 1.5; stroke-linecap: round"/>
   </g>
   <g id="line2d_19">
    <path d="M 73.832727 287.352434 
L 75.48072 291.480318 
L 77.128713 291.197179 
L 78.776705 290.542378 
L 80.424698 288.92819 
L 82.07269 289.704619 
L 83.720683 290.678932 
L 85.368676 291.191892 
L 87.016668 295.054466 
L 88.664661 290.018404 
L 90.312653 288.319942 
L 91.960646 294.027291 
L 93.608639 294.529704 
L 95.256631 288.047478 
L 96.904624 287.40289 
L 98.552617 290.304692 
L 100.200609 290.582 
L 101.848602 294.973318 
L 103.496594 294.290435 
L 105.144587 286.448381 
L 106.79258 288.195622 
L 108.440572 294.606143 
L 110.088565 289.683175 
L 111.736557 293.188623 
L 113.38455 293.667911 
L 115.032543 292.406717 
L 116.680535 290.213692 
L 118.328528 289.178307 
L 119.976521 295.056604 
L 121.624513 292.780054 
L 123.272506 291.436506 
L 124.920498 293.07841 
L 126.568491 289.095201 
L 128.216484 291.414069 
L 129.864476 290.060615 
L 131.512469 292.382525 
L 133.160461 292.815612 
L 134.808454 289.372294 
L 136.456447 294.909976 
L 138.104439 293.390656 
L 139.752432 289.536553 
L 141.400425 292.754102 
L 143.048417 294.411317 
L 144.69641 292.476656 
L 146.344402 293.866472 
L 147.992395 292.00912 
L 149.640388 291.925075 
L 151.28838 294.986084 
L 152.936373 290.830727 
L 154.584365 290.409154 
L 156.232358 292.841678 
L 157.880351 291.587591 
L 159.528343 289.084448 
L 161.176336 292.419629 
L 162.824329 295.006662 
L 164.472321 291.136092 
L 166.120314 292.154819 
L 167.768306 294.528758 
L 169.416299 291.877321 
L 171.064292 295.024529 
L 172.712284 294.751762 
L 174.360277 292.922929 
L 176.008269 292.22469 
L 177.656262 294.358392 
L 179.304255 293.306481 
L 180.952247 288.609483 
L 182.60024 295.217907 
L 184.248233 293.42751 
L 185.896225 289.417936 
L 187.544218 291.42758 
L 189.19221 294.864561 
L 190.840203 294.781912 
L 192.488196 293.295954 
L 194.136188 293.674578 
L 195.784181 291.422311 
L 197.432174 289.899307 
L 200.728159 292.183053 
L 202.376151 290.672503 
L 204.024144 295.488 
L 205.672137 295.073282 
L 207.320129 295.200972 
L 208.968122 290.616757 
L 210.616114 289.478116 
L 212.264107 289.249575 
L 213.9121 283.043007 
L 215.560092 280.322856 
L 217.208085 273.419514 
L 218.856078 273.847523 
L 220.50407 274.126799 
L 222.152063 240.22719 
L 223.800055 246.910118 
L 225.448048 251.814653 
L 227.096041 260.549593 
L 228.744033 271.362568 
L 230.392026 269.144517 
L 232.040018 269.618595 
L 233.688011 273.012576 
L 235.336004 273.580544 
L 236.983996 275.091984 
L 238.631989 277.207315 
L 240.279982 274.800095 
L 241.927974 270.270143 
L 243.575967 268.089692 
L 245.223959 265.034276 
L 246.871952 256.155405 
L 248.519945 252.931942 
L 250.167937 246.884911 
L 251.81593 237.451525 
L 253.463922 275.852281 
L 255.111915 269.223014 
L 256.759908 269.893701 
L 258.4079 280.358498 
L 260.055893 281.681225 
L 261.703886 285.447029 
L 263.351878 292.936387 
L 264.999871 294.771048 
L 266.647863 293.455797 
L 268.295856 294.857163 
L 269.943849 294.812258 
L 271.591841 288.867158 
L 273.239834 288.315699 
L 274.887826 294.224275 
L 276.535819 287.418669 
L 278.183812 289.214858 
L 279.831804 294.076087 
L 281.479797 289.800929 
L 284.775782 292.755946 
L 286.423775 293.603426 
L 288.071767 292.622784 
L 289.71976 293.376715 
L 291.367753 293.94959 
L 293.015745 293.002749 
L 294.663738 293.297903 
L 296.311731 290.123317 
L 297.959723 295.284671 
L 299.607716 293.424372 
L 301.255708 284.653087 
L 302.903701 291.717097 
L 304.551694 294.374583 
L 307.847679 294.802562 
L 309.495671 290.57955 
L 311.143664 291.090268 
L 312.791657 293.652899 
L 314.439649 294.42522 
L 316.087642 292.495492 
L 317.735635 292.705564 
L 319.383627 292.052118 
L 321.03162 294.645641 
L 322.679612 293.006699 
L 324.327605 292.024116 
L 325.975598 292.28251 
L 327.62359 293.050932 
L 329.271583 293.34865 
L 330.919575 287.236266 
L 332.567568 293.283936 
L 334.215561 293.716903 
L 335.863553 293.394593 
L 337.511546 292.758987 
L 339.159539 288.618279 
L 340.807531 295.382006 
L 342.455524 295.3234 
L 344.103516 293.98039 
L 345.751509 293.62662 
L 347.399502 286.336561 
L 349.047494 289.015553 
L 350.695487 294.31253 
L 352.343479 292.328737 
L 353.991472 292.707478 
L 355.639465 289.455565 
L 357.287457 292.466141 
L 358.93545 293.612008 
L 360.583443 291.38193 
L 362.231435 293.818732 
L 363.879428 288.877666 
L 365.52742 291.750125 
L 367.175413 293.601386 
L 368.823406 290.483792 
L 370.471398 291.578043 
L 372.119391 285.547483 
L 373.767383 292.080332 
L 375.415376 294.837648 
L 377.063369 288.568222 
L 378.711361 293.186352 
L 380.359354 295.100194 
L 382.007347 290.953731 
L 383.655339 292.332857 
L 385.303332 288.688135 
L 386.951324 288.824433 
L 388.599317 295.323546 
L 390.24731 291.472895 
L 391.895302 291.693878 
L 393.543295 288.598358 
L 395.191287 287.849698 
L 396.83928 289.779302 
L 398.487273 286.375761 
L 398.487273 286.375761 
" clip-path="url(#pb3c6fb7e85)" style="fill: none; stroke: #191970; stroke-width: 1.5; stroke-linecap: round"/>
   </g>
   <g id="patch_3">
    <path d="M 57.6 307.584 
L 57.6 41.472 
" style="fill: none; stroke: #ffffff; stroke-width: 0.8; stroke-linejoin: miter; stroke-linecap: square"/>
   </g>
   <g id="patch_4">
    <path d="M 414.72 307.584 
L 414.72 41.472 
" style="fill: none; stroke: #ffffff; stroke-width: 0.8; stroke-linejoin: miter; stroke-linecap: square"/>
   </g>
   <g id="patch_5">
    <path d="M 57.6 307.584 
L 414.72 307.584 
" style="fill: none; stroke: #ffffff; stroke-width: 0.8; stroke-linejoin: miter; stroke-linecap: square"/>
   </g>
   <g id="patch_6">
    <path d="M 57.6 41.472 
L 414.72 41.472 
" style="fill: none; stroke: #ffffff; stroke-width: 0.8; stroke-linejoin: miter; stroke-linecap: square"/>
   </g>
   <g id="text_19">
    <!-- $\sigma^2 = 1$ -->
    <g style="fill: #262626" transform="translate(218.04 35.472) scale(0.12 -0.12)">
     <defs>
      <path id="DejaVuSans-Oblique-3c3" d="M 2219 3044 
Q 1744 3044 1422 2700 
Q 1081 2341 969 1747 
Q 844 1119 1044 756 
Q 1241 397 1706 397 
Q 2166 397 2503 759 
Q 2844 1122 2966 1747 
Q 3075 2319 2881 2700 
Q 2700 3044 2219 3044 
z
M 2309 3503 
L 4219 3500 
L 4106 2925 
L 3463 2925 
Q 3706 2438 3575 1747 
Q 3406 888 2884 400 
Q 2359 -91 1609 -91 
Q 856 -91 525 400 
Q 194 888 363 1747 
Q 528 2609 1050 3097 
Q 1484 3503 2309 3503 
z
" transform="scale(0.015625)"/>
      <path id="DejaVuSans-32" d="M 1228 531 
L 3431 531 
L 3431 0 
L 469 0 
L 469 531 
Q 828 903 1448 1529 
Q 2069 2156 2228 2338 
Q 2531 2678 2651 2914 
Q 2772 3150 2772 3378 
Q 2772 3750 2511 3984 
Q 2250 4219 1831 4219 
Q 1534 4219 1204 4116 
Q 875 4013 500 3803 
L 500 4441 
Q 881 4594 1212 4672 
Q 1544 4750 1819 4750 
Q 2544 4750 2975 4387 
Q 3406 4025 3406 3419 
Q 3406 3131 3298 2873 
Q 3191 2616 2906 2266 
Q 2828 2175 2409 1742 
Q 1991 1309 1228 531 
z
" transform="scale(0.015625)"/>
      <path id="DejaVuSans-3d" d="M 678 2906 
L 4684 2906 
L 4684 2381 
L 678 2381 
L 678 2906 
z
M 678 1631 
L 4684 1631 
L 4684 1100 
L 678 1100 
L 678 1631 
z
" transform="scale(0.015625)"/>
      <path id="DejaVuSans-31" d="M 794 531 
L 1825 531 
L 1825 4091 
L 703 3866 
L 703 4441 
L 1819 4666 
L 2450 4666 
L 2450 531 
L 3481 531 
L 3481 0 
L 794 0 
L 794 531 
z
" transform="scale(0.015625)"/>
     </defs>
     <use xlink:href="#DejaVuSans-Oblique-3c3" transform="translate(0 0.765625)"/>
     <use xlink:href="#DejaVuSans-32" transform="translate(67.851615 39.046875) scale(0.7)"/>
     <use xlink:href="#DejaVuSans-3d" transform="translate(134.604544 0.765625)"/>
     <use xlink:href="#DejaVuSans-31" transform="translate(237.876029 0.765625)"/>
    </g>
   </g>
   <g id="legend_1">
    <g id="patch_7">
     <path d="M 64.6 302.584 
L 125.5 302.584 
Q 127.5 302.584 127.5 300.584 
L 127.5 259.148062 
Q 127.5 257.148062 125.5 257.148062 
L 64.6 257.148062 
Q 62.6 257.148062 62.6 259.148062 
L 62.6 300.584 
Q 62.6 302.584 64.6 302.584 
z
" style="fill: #eaeaf2; opacity: 0.8; stroke: #cccccc; stroke-linejoin: miter"/>
    </g>
    <g id="line2d_20">
     <path d="M 66.6 264.805875 
L 76.6 264.805875 
L 86.6 264.805875 
" style="fill: none; stroke: #0000ff; stroke-width: 1.5; stroke-linecap: round"/>
    </g>
    <g id="text_20">
     <!-- $n$ = 1 -->
     <g style="fill: #262626" transform="translate(94.6 268.305875) scale(0.1 -0.1)">
      <defs>
       <path id="ArialMT-3d" d="M 3381 2694 
L 356 2694 
L 356 3219 
L 3381 3219 
L 3381 2694 
z
M 3381 1303 
L 356 1303 
L 356 1828 
L 3381 1828 
L 3381 1303 
z
" transform="scale(0.015625)"/>
      </defs>
      <use xlink:href="#DejaVuSans-Oblique-6e" transform="translate(0 0.125)"/>
      <use xlink:href="#ArialMT-20" transform="translate(63.378906 0.125)"/>
      <use xlink:href="#ArialMT-3d" transform="translate(91.162109 0.125)"/>
      <use xlink:href="#ArialMT-20" transform="translate(149.560547 0.125)"/>
      <use xlink:href="#ArialMT-31" transform="translate(177.34375 0.125)"/>
     </g>
    </g>
    <g id="line2d_21">
     <path d="M 66.6 278.951187 
L 76.6 278.951187 
L 86.6 278.951187 
" style="fill: none; stroke: #00008b; stroke-width: 1.5; stroke-linecap: round"/>
    </g>
    <g id="text_21">
     <!-- $n$ = 10 -->
     <g style="fill: #262626" transform="translate(94.6 282.451187) scale(0.1 -0.1)">
      <use xlink:href="#DejaVuSans-Oblique-6e" transform="translate(0 0.125)"/>
      <use xlink:href="#ArialMT-20" transform="translate(63.378906 0.125)"/>
      <use xlink:href="#ArialMT-3d" transform="translate(91.162109 0.125)"/>
      <use xlink:href="#ArialMT-20" transform="translate(149.560547 0.125)"/>
      <use xlink:href="#ArialMT-31" transform="translate(177.34375 0.125)"/>
      <use xlink:href="#ArialMT-30" transform="translate(232.958984 0.125)"/>
     </g>
    </g>
    <g id="line2d_22">
     <path d="M 66.6 293.0965 
L 76.6 293.0965 
L 86.6 293.0965 
" style="fill: none; stroke: #191970; stroke-width: 1.5; stroke-linecap: round"/>
    </g>
    <g id="text_22">
     <!-- $n$ = 50 -->
     <g style="fill: #262626" transform="translate(94.6 296.5965) scale(0.1 -0.1)">
      <use xlink:href="#DejaVuSans-Oblique-6e" transform="translate(0 0.125)"/>
      <use xlink:href="#ArialMT-20" transform="translate(63.378906 0.125)"/>
      <use xlink:href="#ArialMT-3d" transform="translate(91.162109 0.125)"/>
      <use xlink:href="#ArialMT-20" transform="translate(149.560547 0.125)"/>
      <use xlink:href="#ArialMT-35" transform="translate(177.34375 0.125)"/>
      <use xlink:href="#ArialMT-30" transform="translate(232.958984 0.125)"/>
     </g>
    </g>
   </g>
  </g>
 </g>
 <defs>
  <clipPath id="pb3c6fb7e85">
   <rect x="57.6" y="41.472" width="357.12" height="266.112"/>
  </clipPath>
 </defs>
</svg>
