<?xml version="1.0" encoding="UTF-8" standalone="no"?>
<!DOCTYPE svg PUBLIC "-//W3C//DTD SVG 1.1//EN"
 "http://www.w3.org/Graphics/SVG/1.1/DTD/svg11.dtd">
<!-- Generated by graphviz version 12.2.1 (20241206.2353)
 -->
<!-- Pages: 1 -->
<svg width="264pt" height="267pt"
 viewBox="0.00 0.00 264.38 266.50" xmlns="http://www.w3.org/2000/svg" xmlns:xlink="http://www.w3.org/1999/xlink">
<g id="graph0" class="graph" transform="scale(1 1) rotate(0) translate(4 262.5)">
<polygon fill="white" stroke="none" points="-4,4 -4,-262.5 260.38,-262.5 260.38,4 -4,4"/>
<g id="clust1" class="cluster">
<title>cluster_J</title>
<polygon fill="none" stroke="black" points="26,-8 26,-156.5 100,-156.5 100,-8 26,-8"/>
<text text-anchor="middle" x="89.38" y="-15.2" font-family="Times,serif" font-size="14.00">J</text>
</g>
<!-- mu -->
<g id="node1" class="node">
<title>mu</title>
<ellipse fill="white" stroke="black" cx="27" cy="-221.5" rx="27" ry="18"/>
<text text-anchor="middle" x="27" y="-216.45" font-family="Times,serif" font-size="14.00">mu</text>
</g>
<!-- theta -->
<g id="node3" class="node">
<title>theta</title>
<ellipse fill="white" stroke="black" cx="63" cy="-130.5" rx="28.83" ry="18"/>
<text text-anchor="middle" x="63" y="-125.45" font-family="Times,serif" font-size="14.00">theta</text>
</g>
<!-- mu&#45;&gt;theta -->
<g id="edge1" class="edge">
<title>mu&#45;&gt;theta</title>
<path fill="none" stroke="black" d="M33.77,-203.76C38.87,-191.16 45.96,-173.62 51.89,-158.97"/>
<polygon fill="black" stroke="black" points="55.06,-160.45 55.57,-149.87 48.57,-157.83 55.06,-160.45"/>
</g>
<!-- tau -->
<g id="node2" class="node">
<title>tau</title>
<ellipse fill="white" stroke="black" cx="99" cy="-221.5" rx="27" ry="18"/>
<text text-anchor="middle" x="99" y="-216.45" font-family="Times,serif" font-size="14.00">tau</text>
</g>
<!-- tau&#45;&gt;theta -->
<g id="edge2" class="edge">
<title>tau&#45;&gt;theta</title>
<path fill="none" stroke="black" d="M92.23,-203.76C87.13,-191.16 80.04,-173.62 74.11,-158.97"/>
<polygon fill="black" stroke="black" points="77.43,-157.83 70.43,-149.87 70.94,-160.45 77.43,-157.83"/>
</g>
<!-- obs -->
<g id="node4" class="node">
<title>obs</title>
<ellipse fill="white" stroke="black" cx="63" cy="-58.5" rx="27" ry="18"/>
<text text-anchor="middle" x="63" y="-53.45" font-family="Times,serif" font-size="14.00">obs</text>
</g>
<!-- theta&#45;&gt;obs -->
<g id="edge3" class="edge">
<title>theta&#45;&gt;obs</title>
<path fill="none" stroke="black" d="M63,-112.2C63,-104.91 63,-96.23 63,-88.04"/>
<polygon fill="black" stroke="black" points="66.5,-88.12 63,-78.12 59.5,-88.12 66.5,-88.12"/>
</g>
<!-- distribution_description_node -->
<g id="node5" class="node">
<title>distribution_description_node</title>
<text text-anchor="start" x="151.62" y="-241.2" font-family="Times,serif" font-size="14.00">mu ~ Normal</text>
<text text-anchor="start" x="151.62" y="-224.7" font-family="Times,serif" font-size="14.00">tau ~ HalfCauchy</text>
<text text-anchor="start" x="151.62" y="-208.2" font-family="Times,serif" font-size="14.00">theta ~ Normal</text>
<text text-anchor="start" x="151.62" y="-191.7" font-family="Times,serif" font-size="14.00">obs ~ Normal</text>
</g>
</g>
</svg>
