<?xml version="1.0" encoding="UTF-8" standalone="no"?>
<!DOCTYPE svg PUBLIC "-//W3C//DTD SVG 1.1//EN"
 "http://www.w3.org/Graphics/SVG/1.1/DTD/svg11.dtd">
<!-- Generated by graphviz version 12.0.0 (0)
 -->
<!-- Pages: 1 -->
<svg width="232pt" height="226pt"
 viewBox="0.00 0.00 231.88 226.00" xmlns="http://www.w3.org/2000/svg" xmlns:xlink="http://www.w3.org/1999/xlink">
<g id="graph0" class="graph" transform="scale(1 1) rotate(0) translate(4 222)">
<polygon fill="white" stroke="none" points="-4,4 -4,-222 227.88,-222 227.88,4 -4,4"/>
<!-- beta -->
<g id="node1" class="node">
<title>beta</title>
<ellipse fill="white" stroke="black" cx="27" cy="-181" rx="27" ry="18"/>
<text text-anchor="middle" x="27" y="-175.95" font-family="Times,serif" font-size="14.00">beta</text>
</g>
<!-- mu -->
<g id="node3" class="node">
<title>mu</title>
<ellipse fill="white" stroke="black" stroke-dasharray="5,2" cx="27" cy="-90" rx="27" ry="18"/>
<text text-anchor="middle" x="27" y="-84.95" font-family="Times,serif" font-size="14.00">mu</text>
</g>
<!-- beta&#45;&gt;mu -->
<g id="edge1" class="edge">
<title>beta&#45;&gt;mu</title>
<path fill="none" stroke="black" d="M27,-162.84C27,-150.61 27,-133.87 27,-119.63"/>
<polygon fill="black" stroke="black" points="30.5,-119.92 27,-109.92 23.5,-119.92 30.5,-119.92"/>
</g>
<!-- sigma -->
<g id="node2" class="node">
<title>sigma</title>
<ellipse fill="white" stroke="black" cx="105" cy="-90" rx="33.44" ry="18"/>
<text text-anchor="middle" x="105" y="-84.95" font-family="Times,serif" font-size="14.00">sigma</text>
</g>
<!-- kid_score_obs -->
<g id="node4" class="node">
<title>kid_score_obs</title>
<ellipse fill="white" stroke="black" cx="66" cy="-18" rx="64.15" ry="18"/>
<text text-anchor="middle" x="66" y="-12.95" font-family="Times,serif" font-size="14.00">kid_score_obs</text>
</g>
<!-- sigma&#45;&gt;kid_score_obs -->
<g id="edge2" class="edge">
<title>sigma&#45;&gt;kid_score_obs</title>
<path fill="none" stroke="black" d="M95.76,-72.41C91.35,-64.51 85.97,-54.85 81.01,-45.94"/>
<polygon fill="black" stroke="black" points="84.11,-44.31 76.18,-37.28 77.99,-47.72 84.11,-44.31"/>
</g>
<!-- mu&#45;&gt;kid_score_obs -->
<g id="edge3" class="edge">
<title>mu&#45;&gt;kid_score_obs</title>
<path fill="none" stroke="black" d="M36.05,-72.76C40.49,-64.78 45.97,-54.95 51.02,-45.89"/>
<polygon fill="black" stroke="black" points="53.91,-47.89 55.72,-37.45 47.8,-44.48 53.91,-47.89"/>
</g>
<!-- distribution_description_node -->
<g id="node5" class="node">
<title>distribution_description_node</title>
<text text-anchor="start" x="80.12" y="-200.7" font-family="Times,serif" font-size="14.00">beta ~ ImproperUniform</text>
<text text-anchor="start" x="80.12" y="-184.2" font-family="Times,serif" font-size="14.00">sigma ~ HalfCauchy</text>
<text text-anchor="start" x="80.12" y="-167.7" font-family="Times,serif" font-size="14.00">mu ~ Deterministic</text>
<text text-anchor="start" x="80.12" y="-151.2" font-family="Times,serif" font-size="14.00">kid_score_obs ~ Normal</text>
</g>
</g>
</svg>
