<?xml version="1.0" encoding="UTF-8" standalone="no"?>
<!DOCTYPE svg PUBLIC "-//W3C//DTD SVG 1.1//EN"
 "http://www.w3.org/Graphics/SVG/1.1/DTD/svg11.dtd">
<!-- Generated by graphviz version 12.2.1 (20241206.2353)
 -->
<!-- Pages: 1 -->
<svg width="480pt" height="283pt"
 viewBox="0.00 0.00 480.25 283.00" xmlns="http://www.w3.org/2000/svg" xmlns:xlink="http://www.w3.org/1999/xlink">
<g id="graph0" class="graph" transform="scale(1 1) rotate(0) translate(4 279)">
<polygon fill="white" stroke="none" points="-4,4 -4,-279 476.25,-279 476.25,4 -4,4"/>
<g id="clust1" class="cluster">
<title>cluster_J</title>
<polygon fill="none" stroke="black" points="64,-8 64,-255.75 226,-255.75 226,-8 64,-8"/>
<text text-anchor="middle" x="215.38" y="-15.2" font-family="Times,serif" font-size="14.00">J</text>
</g>
<!-- mu -->
<g id="node1" class="node">
<title>mu</title>
<ellipse fill="white" stroke="black" cx="27" cy="-229.75" rx="27" ry="18"/>
<text text-anchor="middle" x="27" y="-224.7" font-family="Times,serif" font-size="14.00">mu</text>
</g>
<!-- theta -->
<g id="node4" class="node">
<title>theta</title>
<ellipse fill="white" stroke="black" stroke-dasharray="5,2" cx="145" cy="-130.5" rx="28.83" ry="18"/>
<text text-anchor="middle" x="145" y="-125.45" font-family="Times,serif" font-size="14.00">theta</text>
</g>
<!-- mu&#45;&gt;theta -->
<g id="edge1" class="edge">
<title>mu&#45;&gt;theta</title>
<path fill="none" stroke="black" d="M36.73,-212.85C42.72,-203.87 50.97,-192.81 60,-184.5 75.79,-169.97 96.11,-157.14 112.92,-147.74"/>
<polygon fill="black" stroke="black" points="114.41,-150.91 121.53,-143.06 111.07,-144.76 114.41,-150.91"/>
</g>
<!-- tau -->
<g id="node2" class="node">
<title>tau</title>
<ellipse fill="white" stroke="black" cx="263" cy="-229.75" rx="27" ry="18"/>
<text text-anchor="middle" x="263" y="-224.7" font-family="Times,serif" font-size="14.00">tau</text>
</g>
<!-- tau&#45;&gt;theta -->
<g id="edge2" class="edge">
<title>tau&#45;&gt;theta</title>
<path fill="none" stroke="black" d="M253.27,-212.85C247.28,-203.87 239.03,-192.81 230,-184.5 214.21,-169.97 193.89,-157.14 177.08,-147.74"/>
<polygon fill="black" stroke="black" points="178.93,-144.76 168.47,-143.06 175.59,-150.91 178.93,-144.76"/>
</g>
<!-- theta_decentered -->
<g id="node3" class="node">
<title>theta_decentered</title>
<ellipse fill="white" stroke="black" cx="145" cy="-229.75" rx="73.36" ry="18"/>
<text text-anchor="middle" x="145" y="-224.7" font-family="Times,serif" font-size="14.00">theta_decentered</text>
</g>
<!-- theta_decentered&#45;&gt;theta -->
<g id="edge3" class="edge">
<title>theta_decentered&#45;&gt;theta</title>
<path fill="none" stroke="black" d="M145,-211.36C145,-197.12 145,-176.67 145,-160.04"/>
<polygon fill="black" stroke="black" points="148.5,-160.25 145,-150.25 141.5,-160.25 148.5,-160.25"/>
</g>
<!-- obs -->
<g id="node5" class="node">
<title>obs</title>
<ellipse fill="white" stroke="black" cx="145" cy="-58.5" rx="27" ry="18"/>
<text text-anchor="middle" x="145" y="-53.45" font-family="Times,serif" font-size="14.00">obs</text>
</g>
<!-- theta&#45;&gt;obs -->
<g id="edge4" class="edge">
<title>theta&#45;&gt;obs</title>
<path fill="none" stroke="black" d="M145,-112.2C145,-104.91 145,-96.23 145,-88.04"/>
<polygon fill="black" stroke="black" points="148.5,-88.12 145,-78.12 141.5,-88.12 148.5,-88.12"/>
</g>
<!-- distribution_description_node -->
<g id="node6" class="node">
<title>distribution_description_node</title>
<text text-anchor="start" x="315.75" y="-257.7" font-family="Times,serif" font-size="14.00">mu ~ Normal</text>
<text text-anchor="start" x="315.75" y="-241.2" font-family="Times,serif" font-size="14.00">tau ~ HalfCauchy</text>
<text text-anchor="start" x="315.75" y="-224.7" font-family="Times,serif" font-size="14.00">theta_decentered ~ Normal</text>
<text text-anchor="start" x="315.75" y="-208.2" font-family="Times,serif" font-size="14.00">theta ~ Deterministic</text>
<text text-anchor="start" x="315.75" y="-191.7" font-family="Times,serif" font-size="14.00">obs ~ Normal</text>
</g>
</g>
</svg>
