<?xml version="1.0" encoding="UTF-8" standalone="no"?>
<!DOCTYPE svg PUBLIC "-//W3C//DTD SVG 1.1//EN"
 "http://www.w3.org/Graphics/SVG/1.1/DTD/svg11.dtd">
<!-- Generated by graphviz version 12.0.0 (0)
 -->
<!-- Pages: 1 -->
<svg width="352pt" height="243pt"
 viewBox="0.00 0.00 352.38 242.50" xmlns="http://www.w3.org/2000/svg" xmlns:xlink="http://www.w3.org/1999/xlink">
<g id="graph0" class="graph" transform="scale(1 1) rotate(0) translate(4 238.5)">
<polygon fill="white" stroke="none" points="-4,4 -4,-238.5 348.38,-238.5 348.38,4 -4,4"/>
<!-- b -->
<g id="node1" class="node">
<title>b</title>
<ellipse fill="white" stroke="black" cx="27" cy="-189.25" rx="27" ry="18"/>
<text text-anchor="middle" x="27" y="-184.2" font-family="Times,serif" font-size="14.00">b</text>
</g>
<!-- mu -->
<g id="node4" class="node">
<title>mu</title>
<ellipse fill="white" stroke="black" stroke-dasharray="5,2" cx="71" cy="-90" rx="27" ry="18"/>
<text text-anchor="middle" x="71" y="-84.95" font-family="Times,serif" font-size="14.00">mu</text>
</g>
<!-- b&#45;&gt;mu -->
<g id="edge1" class="edge">
<title>b&#45;&gt;mu</title>
<path fill="none" stroke="black" d="M34.46,-171.75C41.16,-156.94 51.12,-134.94 58.95,-117.64"/>
<polygon fill="black" stroke="black" points="61.94,-119.51 62.88,-108.96 55.56,-116.63 61.94,-119.51"/>
</g>
<!-- Intercept -->
<g id="node2" class="node">
<title>Intercept</title>
<ellipse fill="white" stroke="black" cx="116" cy="-189.25" rx="43.67" ry="18"/>
<text text-anchor="middle" x="116" y="-184.2" font-family="Times,serif" font-size="14.00">Intercept</text>
</g>
<!-- Intercept&#45;&gt;mu -->
<g id="edge2" class="edge">
<title>Intercept&#45;&gt;mu</title>
<path fill="none" stroke="black" d="M108.16,-171.31C101.32,-156.53 91.28,-134.83 83.36,-117.71"/>
<polygon fill="black" stroke="black" points="86.76,-116.72 79.38,-109.12 80.41,-119.66 86.76,-116.72"/>
</g>
<!-- sigma -->
<g id="node3" class="node">
<title>sigma</title>
<ellipse fill="white" stroke="black" cx="149" cy="-90" rx="33.44" ry="18"/>
<text text-anchor="middle" x="149" y="-84.95" font-family="Times,serif" font-size="14.00">sigma</text>
</g>
<!-- Y -->
<g id="node5" class="node">
<title>Y</title>
<ellipse fill="grey" stroke="black" cx="110" cy="-18" rx="27" ry="18"/>
<text text-anchor="middle" x="110" y="-12.95" font-family="Times,serif" font-size="14.00">Y</text>
</g>
<!-- sigma&#45;&gt;Y -->
<g id="edge3" class="edge">
<title>sigma&#45;&gt;Y</title>
<path fill="none" stroke="black" d="M139.76,-72.41C135.18,-64.19 129.54,-54.06 124.4,-44.85"/>
<polygon fill="black" stroke="black" points="127.57,-43.34 119.64,-36.31 121.45,-46.75 127.57,-43.34"/>
</g>
<!-- mu&#45;&gt;Y -->
<g id="edge4" class="edge">
<title>mu&#45;&gt;Y</title>
<path fill="none" stroke="black" d="M80.05,-72.76C84.62,-64.55 90.29,-54.37 95.46,-45.09"/>
<polygon fill="black" stroke="black" points="98.46,-46.91 100.27,-36.47 92.34,-43.5 98.46,-46.91"/>
</g>
<!-- distribution_description_node -->
<g id="node6" class="node">
<title>distribution_description_node</title>
<text text-anchor="start" x="185.62" y="-217.2" font-family="Times,serif" font-size="14.00">b ~ Normal</text>
<text text-anchor="start" x="185.62" y="-200.7" font-family="Times,serif" font-size="14.00">Intercept ~ StudentT</text>
<text text-anchor="start" x="185.62" y="-184.2" font-family="Times,serif" font-size="14.00">sigma ~ FoldedDistribution</text>
<text text-anchor="start" x="185.62" y="-167.7" font-family="Times,serif" font-size="14.00">mu ~ Deterministic</text>
<text text-anchor="start" x="185.62" y="-151.2" font-family="Times,serif" font-size="14.00">Y ~ Normal</text>
</g>
</g>
</svg>
