<?xml version="1.0" encoding="utf-8" standalone="no"?>
<!DOCTYPE svg PUBLIC "-//W3C//DTD SVG 1.1//EN"
  "http://www.w3.org/Graphics/SVG/1.1/DTD/svg11.dtd">
<svg xmlns:xlink="http://www.w3.org/1999/xlink" width="460.8pt" height="345.6pt" viewBox="0 0 460.8 345.6" xmlns="http://www.w3.org/2000/svg" version="1.1">
 <metadata>
  <rdf:RDF xmlns:dc="http://purl.org/dc/elements/1.1/" xmlns:cc="http://creativecommons.org/ns#" xmlns:rdf="http://www.w3.org/1999/02/22-rdf-syntax-ns#">
   <cc:Work>
    <dc:type rdf:resource="http://purl.org/dc/dcmitype/StillImage"/>
    <dc:date>2025-04-06T14:42:31.289105</dc:date>
    <dc:format>image/svg+xml</dc:format>
    <dc:creator>
     <cc:Agent>
      <dc:title>Matplotlib v3.10.1, https://matplotlib.org/</dc:title>
     </cc:Agent>
    </dc:creator>
   </cc:Work>
  </rdf:RDF>
 </metadata>
 <defs>
  <style type="text/css">*{stroke-linejoin: round; stroke-linecap: butt}</style>
 </defs>
 <g id="figure_1">
  <g id="patch_1">
   <path d="M 0 345.6 
L 460.8 345.6 
L 460.8 0 
L 0 0 
z
" style="fill: #ffffff"/>
  </g>
  <g id="axes_1">
   <g id="patch_2">
    <path d="M 57.6 307.584 
L 414.72 307.584 
L 414.72 41.472 
L 57.6 41.472 
z
" style="fill: #eaeaf2"/>
   </g>
   <g id="matplotlib.axis_1">
    <g id="xtick_1">
     <g id="line2d_1">
      <path d="M 106.626147 307.584 
L 106.626147 41.472 
" clip-path="url(#p1a29f21e2a)" style="fill: none; stroke: #ffffff; stroke-width: 0.8; stroke-linecap: round"/>
     </g>
     <g id="text_1">
      <!-- −2 -->
      <g style="fill: #262626" transform="translate(100.925366 321.741812) scale(0.1 -0.1)">
       <defs>
        <path id="ArialMT-2212" d="M 3381 1997 
L 356 1997 
L 356 2522 
L 3381 2522 
L 3381 1997 
z
" transform="scale(0.015625)"/>
        <path id="ArialMT-32" d="M 3222 541 
L 3222 0 
L 194 0 
Q 188 203 259 391 
Q 375 700 629 1000 
Q 884 1300 1366 1694 
Q 2113 2306 2375 2664 
Q 2638 3022 2638 3341 
Q 2638 3675 2398 3904 
Q 2159 4134 1775 4134 
Q 1369 4134 1125 3890 
Q 881 3647 878 3216 
L 300 3275 
Q 359 3922 746 4261 
Q 1134 4600 1788 4600 
Q 2447 4600 2831 4234 
Q 3216 3869 3216 3328 
Q 3216 3053 3103 2787 
Q 2991 2522 2730 2228 
Q 2469 1934 1863 1422 
Q 1356 997 1212 845 
Q 1069 694 975 541 
L 3222 541 
z
" transform="scale(0.015625)"/>
       </defs>
       <use xlink:href="#ArialMT-2212"/>
       <use xlink:href="#ArialMT-32" transform="translate(58.398438 0)"/>
      </g>
     </g>
    </g>
    <g id="xtick_2">
     <g id="line2d_2">
      <path d="M 172.212986 307.584 
L 172.212986 41.472 
" clip-path="url(#p1a29f21e2a)" style="fill: none; stroke: #ffffff; stroke-width: 0.8; stroke-linecap: round"/>
     </g>
     <g id="text_2">
      <!-- −1 -->
      <g style="fill: #262626" transform="translate(166.512205 321.741812) scale(0.1 -0.1)">
       <defs>
        <path id="ArialMT-31" d="M 2384 0 
L 1822 0 
L 1822 3584 
Q 1619 3391 1289 3197 
Q 959 3003 697 2906 
L 697 3450 
Q 1169 3672 1522 3987 
Q 1875 4303 2022 4600 
L 2384 4600 
L 2384 0 
z
" transform="scale(0.015625)"/>
       </defs>
       <use xlink:href="#ArialMT-2212"/>
       <use xlink:href="#ArialMT-31" transform="translate(58.398438 0)"/>
      </g>
     </g>
    </g>
    <g id="xtick_3">
     <g id="line2d_3">
      <path d="M 237.799826 307.584 
L 237.799826 41.472 
" clip-path="url(#p1a29f21e2a)" style="fill: none; stroke: #ffffff; stroke-width: 0.8; stroke-linecap: round"/>
     </g>
     <g id="text_3">
      <!-- 0 -->
      <g style="fill: #262626" transform="translate(235.019357 321.741812) scale(0.1 -0.1)">
       <defs>
        <path id="ArialMT-30" d="M 266 2259 
Q 266 3072 433 3567 
Q 600 4063 929 4331 
Q 1259 4600 1759 4600 
Q 2128 4600 2406 4451 
Q 2684 4303 2865 4023 
Q 3047 3744 3150 3342 
Q 3253 2941 3253 2259 
Q 3253 1453 3087 958 
Q 2922 463 2592 192 
Q 2263 -78 1759 -78 
Q 1097 -78 719 397 
Q 266 969 266 2259 
z
M 844 2259 
Q 844 1131 1108 757 
Q 1372 384 1759 384 
Q 2147 384 2411 759 
Q 2675 1134 2675 2259 
Q 2675 3391 2411 3762 
Q 2147 4134 1753 4134 
Q 1366 4134 1134 3806 
Q 844 3388 844 2259 
z
" transform="scale(0.015625)"/>
       </defs>
       <use xlink:href="#ArialMT-30"/>
      </g>
     </g>
    </g>
    <g id="xtick_4">
     <g id="line2d_4">
      <path d="M 303.386665 307.584 
L 303.386665 41.472 
" clip-path="url(#p1a29f21e2a)" style="fill: none; stroke: #ffffff; stroke-width: 0.8; stroke-linecap: round"/>
     </g>
     <g id="text_4">
      <!-- 1 -->
      <g style="fill: #262626" transform="translate(300.606196 321.741812) scale(0.1 -0.1)">
       <use xlink:href="#ArialMT-31"/>
      </g>
     </g>
    </g>
    <g id="xtick_5">
     <g id="line2d_5">
      <path d="M 368.973505 307.584 
L 368.973505 41.472 
" clip-path="url(#p1a29f21e2a)" style="fill: none; stroke: #ffffff; stroke-width: 0.8; stroke-linecap: round"/>
     </g>
     <g id="text_5">
      <!-- 2 -->
      <g style="fill: #262626" transform="translate(366.193036 321.741812) scale(0.1 -0.1)">
       <use xlink:href="#ArialMT-32"/>
      </g>
     </g>
    </g>
    <g id="text_6">
     <!-- $x$ -->
     <g style="fill: #262626" transform="translate(233.16 334.887125) scale(0.1 -0.1)">
      <defs>
       <path id="DejaVuSans-Oblique-78" d="M 3841 3500 
L 2234 1784 
L 3219 0 
L 2559 0 
L 1819 1388 
L 531 0 
L -166 0 
L 1556 1844 
L 641 3500 
L 1300 3500 
L 1972 2234 
L 3144 3500 
L 3841 3500 
z
" transform="scale(0.015625)"/>
      </defs>
      <use xlink:href="#DejaVuSans-Oblique-78" transform="translate(0 0.3125)"/>
     </g>
    </g>
   </g>
   <g id="matplotlib.axis_2">
    <g id="ytick_1">
     <g id="line2d_6">
      <path d="M 57.6 271.296 
L 414.72 271.296 
" clip-path="url(#p1a29f21e2a)" style="fill: none; stroke: #ffffff; stroke-width: 0.8; stroke-linecap: round"/>
     </g>
     <g id="text_7">
      <!-- −2 -->
      <g style="fill: #262626" transform="translate(39.198437 274.874906) scale(0.1 -0.1)">
       <use xlink:href="#ArialMT-2212"/>
       <use xlink:href="#ArialMT-32" transform="translate(58.398438 0)"/>
      </g>
     </g>
    </g>
    <g id="ytick_2">
     <g id="line2d_7">
      <path d="M 57.6 222.912 
L 414.72 222.912 
" clip-path="url(#p1a29f21e2a)" style="fill: none; stroke: #ffffff; stroke-width: 0.8; stroke-linecap: round"/>
     </g>
     <g id="text_8">
      <!-- −1 -->
      <g style="fill: #262626" transform="translate(39.198437 226.490906) scale(0.1 -0.1)">
       <use xlink:href="#ArialMT-2212"/>
       <use xlink:href="#ArialMT-31" transform="translate(58.398438 0)"/>
      </g>
     </g>
    </g>
    <g id="ytick_3">
     <g id="line2d_8">
      <path d="M 57.6 174.528 
L 414.72 174.528 
" clip-path="url(#p1a29f21e2a)" style="fill: none; stroke: #ffffff; stroke-width: 0.8; stroke-linecap: round"/>
     </g>
     <g id="text_9">
      <!-- 0 -->
      <g style="fill: #262626" transform="translate(45.039062 178.106906) scale(0.1 -0.1)">
       <use xlink:href="#ArialMT-30"/>
      </g>
     </g>
    </g>
    <g id="ytick_4">
     <g id="line2d_9">
      <path d="M 57.6 126.144 
L 414.72 126.144 
" clip-path="url(#p1a29f21e2a)" style="fill: none; stroke: #ffffff; stroke-width: 0.8; stroke-linecap: round"/>
     </g>
     <g id="text_10">
      <!-- 1 -->
      <g style="fill: #262626" transform="translate(45.039062 129.722906) scale(0.1 -0.1)">
       <use xlink:href="#ArialMT-31"/>
      </g>
     </g>
    </g>
    <g id="ytick_5">
     <g id="line2d_10">
      <path d="M 57.6 77.76 
L 414.72 77.76 
" clip-path="url(#p1a29f21e2a)" style="fill: none; stroke: #ffffff; stroke-width: 0.8; stroke-linecap: round"/>
     </g>
     <g id="text_11">
      <!-- 2 -->
      <g style="fill: #262626" transform="translate(45.039062 81.338906) scale(0.1 -0.1)">
       <use xlink:href="#ArialMT-32"/>
      </g>
     </g>
    </g>
    <g id="text_12">
     <!-- $x_{next}$ -->
     <g style="fill: #262626" transform="translate(33.210938 185.478) rotate(-90) scale(0.1 -0.1)">
      <defs>
       <path id="DejaVuSans-Oblique-6e" d="M 3566 2113 
L 3156 0 
L 2578 0 
L 2988 2091 
Q 3016 2238 3031 2350 
Q 3047 2463 3047 2528 
Q 3047 2791 2881 2937 
Q 2716 3084 2419 3084 
Q 1956 3084 1622 2776 
Q 1288 2469 1184 1941 
L 800 0 
L 225 0 
L 903 3500 
L 1478 3500 
L 1363 2950 
Q 1603 3253 1940 3418 
Q 2278 3584 2650 3584 
Q 3113 3584 3367 3334 
Q 3622 3084 3622 2631 
Q 3622 2519 3608 2391 
Q 3594 2263 3566 2113 
z
" transform="scale(0.015625)"/>
       <path id="DejaVuSans-Oblique-65" d="M 3078 2063 
Q 3088 2113 3092 2166 
Q 3097 2219 3097 2272 
Q 3097 2653 2873 2875 
Q 2650 3097 2266 3097 
Q 1838 3097 1509 2826 
Q 1181 2556 1013 2059 
L 3078 2063 
z
M 3578 1613 
L 903 1613 
Q 884 1494 878 1425 
Q 872 1356 872 1306 
Q 872 872 1139 634 
Q 1406 397 1894 397 
Q 2269 397 2603 481 
Q 2938 566 3225 728 
L 3116 159 
Q 2806 34 2476 -28 
Q 2147 -91 1806 -91 
Q 1078 -91 686 257 
Q 294 606 294 1247 
Q 294 1794 489 2264 
Q 684 2734 1063 3103 
Q 1306 3334 1642 3459 
Q 1978 3584 2356 3584 
Q 2950 3584 3301 3228 
Q 3653 2872 3653 2272 
Q 3653 2128 3634 1964 
Q 3616 1800 3578 1613 
z
" transform="scale(0.015625)"/>
       <path id="DejaVuSans-Oblique-74" d="M 2706 3500 
L 2619 3053 
L 1472 3053 
L 1100 1153 
Q 1081 1047 1072 975 
Q 1063 903 1063 863 
Q 1063 663 1183 572 
Q 1303 481 1569 481 
L 2150 481 
L 2053 0 
L 1503 0 
Q 991 0 739 200 
Q 488 400 488 806 
Q 488 878 497 964 
Q 506 1050 525 1153 
L 897 3053 
L 409 3053 
L 500 3500 
L 978 3500 
L 1172 4494 
L 1747 4494 
L 1556 3500 
L 2706 3500 
z
" transform="scale(0.015625)"/>
      </defs>
      <use xlink:href="#DejaVuSans-Oblique-78" transform="translate(0 0.3125)"/>
      <use xlink:href="#DejaVuSans-Oblique-6e" transform="translate(59.179688 -16.09375) scale(0.7)"/>
      <use xlink:href="#DejaVuSans-Oblique-65" transform="translate(103.544922 -16.09375) scale(0.7)"/>
      <use xlink:href="#DejaVuSans-Oblique-78" transform="translate(146.611328 -16.09375) scale(0.7)"/>
      <use xlink:href="#DejaVuSans-Oblique-74" transform="translate(188.037109 -16.09375) scale(0.7)"/>
     </g>
    </g>
   </g>
   <g id="FillBetweenPolyCollection_1">
    <defs>
     <path id="mb0e9d59d99" d="M 73.832727 -218.336846 
L 73.832727 -121.862509 
L 77.112066 -121.869027 
L 80.391405 -121.943282 
L 83.670744 -121.836739 
L 86.950083 -121.913422 
L 90.229421 -121.933851 
L 93.50876 -121.904511 
L 96.788099 -121.898172 
L 100.067438 -121.941125 
L 103.346777 -121.911588 
L 106.626116 -121.940369 
L 109.905455 -121.96603 
L 113.184793 -121.975501 
L 116.464132 -121.947504 
L 119.743471 -121.925194 
L 123.02281 -121.982163 
L 126.302149 -122.011348 
L 129.581488 -121.923642 
L 132.860826 -121.886342 
L 136.140165 -121.906916 
L 139.419504 -121.894232 
L 142.698843 -121.932929 
L 145.978182 -121.887899 
L 149.257521 -121.878071 
L 152.53686 -121.7904 
L 155.816198 -121.854261 
L 159.095537 -121.78627 
L 162.374876 -121.755159 
L 165.654215 -121.785797 
L 168.933554 -121.636809 
L 172.212893 -121.675701 
L 175.492231 -121.765079 
L 178.77157 -121.886411 
L 182.050909 -121.945243 
L 185.330248 -122.033669 
L 188.609587 -122.038232 
L 191.888926 -122.118001 
L 195.168264 -122.146575 
L 198.447603 -122.179566 
L 201.726942 -122.319425 
L 205.006281 -122.326219 
L 208.28562 -122.343505 
L 211.564959 -122.376543 
L 214.844298 -122.442596 
L 218.123636 -122.487309 
L 221.402975 -122.501769 
L 224.682314 -122.630668 
L 227.961653 -122.675311 
L 231.240992 -122.648963 
L 234.520331 -122.71959 
L 237.799669 -122.750722 
L 241.079008 -122.704678 
L 244.358347 -122.74167 
L 247.637686 -122.771573 
L 250.917025 -122.834915 
L 254.196364 -122.868781 
L 257.475702 -122.954364 
L 260.755041 -122.937487 
L 264.03438 -123.015638 
L 267.313719 -123.051803 
L 270.593058 -123.091684 
L 273.872397 -123.175776 
L 277.151736 -123.272154 
L 280.431074 -123.328436 
L 283.710413 -123.316162 
L 286.989752 -123.479651 
L 290.269091 -123.655396 
L 293.54843 -123.802701 
L 296.827769 -123.874294 
L 300.107107 -124.028355 
L 303.386446 -124.215279 
L 306.665785 -124.211962 
L 309.945124 -124.073601 
L 313.224463 -124.06467 
L 316.503802 -123.87757 
L 319.78314 -123.899935 
L 323.062479 -123.83385 
L 326.341818 -123.826522 
L 329.621157 -123.81272 
L 332.900496 -123.796198 
L 336.179835 -123.753069 
L 339.459174 -123.687321 
L 342.738512 -123.693464 
L 346.017851 -123.688437 
L 349.29719 -123.671252 
L 352.576529 -123.673432 
L 355.855868 -123.663448 
L 359.135207 -123.674696 
L 362.414545 -123.727601 
L 365.693884 -123.72378 
L 368.973223 -123.638805 
L 372.252562 -123.6299 
L 375.531901 -123.671076 
L 378.81124 -123.787393 
L 382.090579 -123.708657 
L 385.369917 -123.704619 
L 388.649256 -123.696414 
L 391.928595 -123.704169 
L 395.207934 -123.818239 
L 398.487273 -123.785048 
L 398.487273 -220.297393 
L 398.487273 -220.297393 
L 395.207934 -220.267181 
L 391.928595 -220.24945 
L 388.649256 -220.229759 
L 385.369917 -220.182307 
L 382.090579 -220.17587 
L 378.81124 -220.270751 
L 375.531901 -220.243994 
L 372.252562 -220.225831 
L 368.973223 -220.173061 
L 365.693884 -220.22214 
L 362.414545 -220.153935 
L 359.135207 -220.208176 
L 355.855868 -220.19386 
L 352.576529 -220.243429 
L 349.29719 -220.181038 
L 346.017851 -220.168666 
L 342.738512 -220.232614 
L 339.459174 -220.213327 
L 336.179835 -220.223939 
L 332.900496 -220.26635 
L 329.621157 -220.273514 
L 326.341818 -220.270036 
L 323.062479 -220.260773 
L 319.78314 -220.342583 
L 316.503802 -220.291573 
L 313.224463 -220.38147 
L 309.945124 -220.408002 
L 306.665785 -220.454698 
L 303.386446 -220.41328 
L 300.107107 -220.377052 
L 296.827769 -220.306719 
L 293.54843 -220.302612 
L 290.269091 -220.14146 
L 286.989752 -220.033065 
L 283.710413 -220.025878 
L 280.431074 -219.963903 
L 277.151736 -219.952817 
L 273.872397 -219.890132 
L 270.593058 -219.787857 
L 267.313719 -219.748902 
L 264.03438 -219.76271 
L 260.755041 -219.720685 
L 257.475702 -219.70021 
L 254.196364 -219.637012 
L 250.917025 -219.577234 
L 247.637686 -219.532585 
L 244.358347 -219.470373 
L 241.079008 -219.488686 
L 237.799669 -219.497649 
L 234.520331 -219.420658 
L 231.240992 -219.388519 
L 227.961653 -219.429131 
L 224.682314 -219.358619 
L 221.402975 -219.233645 
L 218.123636 -219.221561 
L 214.844298 -219.241025 
L 211.564959 -219.140391 
L 208.28562 -219.112267 
L 205.006281 -218.997297 
L 201.726942 -218.979529 
L 198.447603 -218.840435 
L 195.168264 -218.778961 
L 191.888926 -218.758255 
L 188.609587 -218.586166 
L 185.330248 -218.572416 
L 182.050909 -218.37357 
L 178.77157 -218.248726 
L 175.492231 -218.131956 
L 172.212893 -217.902835 
L 168.933554 -217.992715 
L 165.654215 -218.065822 
L 162.374876 -218.172636 
L 159.095537 -218.222021 
L 155.816198 -218.297464 
L 152.53686 -218.35385 
L 149.257521 -218.260821 
L 145.978182 -218.390724 
L 142.698843 -218.491101 
L 139.419504 -218.396408 
L 136.140165 -218.451361 
L 132.860826 -218.399344 
L 129.581488 -218.402972 
L 126.302149 -218.454798 
L 123.02281 -218.487767 
L 119.743471 -218.456886 
L 116.464132 -218.393285 
L 113.184793 -218.560724 
L 109.905455 -218.479981 
L 106.626116 -218.47186 
L 103.346777 -218.454692 
L 100.067438 -218.418695 
L 96.788099 -218.367724 
L 93.50876 -218.483649 
L 90.229421 -218.444338 
L 86.950083 -218.403217 
L 83.670744 -218.35505 
L 80.391405 -218.425238 
L 77.112066 -218.465769 
L 73.832727 -218.336846 
z
" style="stroke: #0000ff; stroke-opacity: 0.5"/>
    </defs>
    <g clip-path="url(#p1a29f21e2a)">
     <use xlink:href="#mb0e9d59d99" x="0" y="345.6" style="fill: #0000ff; fill-opacity: 0.5; stroke: #0000ff; stroke-opacity: 0.5"/>
    </g>
   </g>
   <g id="FillBetweenPolyCollection_2">
    <defs>
     <path id="ma957903474" d="M 73.832727 -225.211335 
L 73.832727 -116.144959 
L 77.112066 -116.144233 
L 80.391405 -116.158479 
L 83.670744 -116.127206 
L 86.950083 -116.139843 
L 90.229421 -116.129334 
L 93.50876 -116.127529 
L 96.788099 -116.15503 
L 100.067438 -116.220535 
L 103.346777 -116.190433 
L 106.626116 -116.102923 
L 109.905455 -116.200757 
L 113.184793 -116.117072 
L 116.464132 -116.165764 
L 119.743471 -116.169565 
L 123.02281 -116.212754 
L 126.302149 -116.149008 
L 129.581488 -116.125032 
L 132.860826 -116.153265 
L 136.140165 -116.113554 
L 139.419504 -116.134018 
L 142.698843 -116.070537 
L 145.978182 -116.138026 
L 149.257521 -116.135483 
L 152.53686 -116.074921 
L 155.816198 -116.150819 
L 159.095537 -116.09798 
L 162.374876 -116.039604 
L 165.654215 -116.086664 
L 168.933554 -116.004859 
L 172.212893 -116.09336 
L 175.492231 -116.053372 
L 178.77157 -116.149135 
L 182.050909 -116.141476 
L 185.330248 -116.212062 
L 188.609587 -116.192855 
L 191.888926 -116.254456 
L 195.168264 -116.210113 
L 198.447603 -116.269417 
L 201.726942 -116.29355 
L 205.006281 -116.322701 
L 208.28562 -116.391724 
L 211.564959 -116.37693 
L 214.844298 -116.401927 
L 218.123636 -116.340367 
L 221.402975 -116.431459 
L 224.682314 -116.549872 
L 227.961653 -116.474585 
L 231.240992 -116.464197 
L 234.520331 -116.518051 
L 237.799669 -116.526922 
L 241.079008 -116.475352 
L 244.358347 -116.492972 
L 247.637686 -116.518535 
L 250.917025 -116.545742 
L 254.196364 -116.584577 
L 257.475702 -116.61172 
L 260.755041 -116.62941 
L 264.03438 -116.614575 
L 267.313719 -116.635374 
L 270.593058 -116.620995 
L 273.872397 -116.694471 
L 277.151736 -116.722261 
L 280.431074 -116.752617 
L 283.710413 -116.742062 
L 286.989752 -116.79835 
L 290.269091 -116.856985 
L 293.54843 -116.984864 
L 296.827769 -116.910828 
L 300.107107 -116.95753 
L 303.386446 -117.033042 
L 306.665785 -117.119767 
L 309.945124 -117.023802 
L 313.224463 -117.028965 
L 316.503802 -116.967485 
L 319.78314 -116.975122 
L 323.062479 -116.918926 
L 326.341818 -116.888893 
L 329.621157 -116.959301 
L 332.900496 -116.889666 
L 336.179835 -116.937395 
L 339.459174 -116.869156 
L 342.738512 -116.815722 
L 346.017851 -116.828412 
L 349.29719 -116.868873 
L 352.576529 -116.903895 
L 355.855868 -116.889078 
L 359.135207 -116.816605 
L 362.414545 -116.831982 
L 365.693884 -116.854886 
L 368.973223 -116.79456 
L 372.252562 -116.821335 
L 375.531901 -116.88331 
L 378.81124 -116.876631 
L 382.090579 -116.909525 
L 385.369917 -116.879492 
L 388.649256 -116.863595 
L 391.928595 -116.842289 
L 395.207934 -116.853715 
L 398.487273 -116.900654 
L 398.487273 -225.974724 
L 398.487273 -225.974724 
L 395.207934 -226.049746 
L 391.928595 -226.02172 
L 388.649256 -226.042553 
L 385.369917 -225.946121 
L 382.090579 -225.98416 
L 378.81124 -226.023369 
L 375.531901 -225.981108 
L 372.252562 -225.986744 
L 368.973223 -226.023715 
L 365.693884 -225.984258 
L 362.414545 -225.977025 
L 359.135207 -226.007 
L 355.855868 -225.972918 
L 352.576529 -225.988699 
L 349.29719 -226.05842 
L 346.017851 -225.960385 
L 342.738512 -226.052376 
L 339.459174 -225.979395 
L 336.179835 -226.029991 
L 332.900496 -226.02469 
L 329.621157 -225.98206 
L 326.341818 -226.059199 
L 323.062479 -226.066703 
L 319.78314 -226.085408 
L 316.503802 -225.964659 
L 313.224463 -226.063052 
L 309.945124 -226.051955 
L 306.665785 -226.097111 
L 303.386446 -226.066455 
L 300.107107 -226.080402 
L 296.827769 -225.990227 
L 293.54843 -226.074005 
L 290.269091 -226.015087 
L 286.989752 -225.919797 
L 283.710413 -225.929786 
L 280.431074 -225.895324 
L 277.151736 -225.875863 
L 273.872397 -225.834306 
L 270.593058 -225.868019 
L 267.313719 -225.817977 
L 264.03438 -225.785868 
L 260.755041 -225.726194 
L 257.475702 -225.704034 
L 254.196364 -225.754427 
L 250.917025 -225.672472 
L 247.637686 -225.701404 
L 244.358347 -225.718557 
L 241.079008 -225.727532 
L 237.799669 -225.676833 
L 234.520331 -225.620695 
L 231.240992 -225.65375 
L 227.961653 -225.742972 
L 224.682314 -225.590085 
L 221.402975 -225.606148 
L 218.123636 -225.514745 
L 214.844298 -225.578878 
L 211.564959 -225.55313 
L 208.28562 -225.483905 
L 205.006281 -225.541525 
L 201.726942 -225.471123 
L 198.447603 -225.449067 
L 195.168264 -225.378746 
L 191.888926 -225.365722 
L 188.609587 -225.277451 
L 185.330248 -225.301498 
L 182.050909 -225.21449 
L 178.77157 -225.169397 
L 175.492231 -225.120324 
L 172.212893 -225.025974 
L 168.933554 -225.08228 
L 165.654215 -225.115866 
L 162.374876 -225.213775 
L 159.095537 -225.238449 
L 155.816198 -225.180344 
L 152.53686 -225.245873 
L 149.257521 -225.243248 
L 145.978182 -225.26185 
L 142.698843 -225.294911 
L 139.419504 -225.241264 
L 136.140165 -225.313754 
L 132.860826 -225.265258 
L 129.581488 -225.198357 
L 126.302149 -225.351845 
L 123.02281 -225.26835 
L 119.743471 -225.279805 
L 116.464132 -225.183684 
L 113.184793 -225.319441 
L 109.905455 -225.214824 
L 106.626116 -225.314487 
L 103.346777 -225.256687 
L 100.067438 -225.310674 
L 96.788099 -225.260529 
L 93.50876 -225.252644 
L 90.229421 -225.282412 
L 86.950083 -225.228448 
L 83.670744 -225.286963 
L 80.391405 -225.252961 
L 77.112066 -225.327828 
L 73.832727 -225.211335 
z
" style="stroke: #0000ff; stroke-opacity: 0.3"/>
    </defs>
    <g clip-path="url(#p1a29f21e2a)">
     <use xlink:href="#ma957903474" x="0" y="345.6" style="fill: #0000ff; fill-opacity: 0.3; stroke: #0000ff; stroke-opacity: 0.3"/>
    </g>
   </g>
   <g id="line2d_11">
    <path d="M 73.832727 181.575318 
L 77.112066 181.217579 
L 80.391405 181.236251 
L 83.670744 181.447462 
L 86.950083 181.305588 
L 90.229421 181.190149 
L 93.50876 181.189187 
L 96.788099 181.354172 
L 100.067438 181.042676 
L 103.346777 181.081772 
L 106.626116 181.136423 
L 109.905455 180.767123 
L 113.184793 180.64236 
L 116.464132 181.11372 
L 119.743471 180.914234 
L 123.02281 180.826706 
L 126.302149 180.943116 
L 129.581488 181.139146 
L 132.860826 181.181636 
L 136.140165 181.324115 
L 139.419504 181.349339 
L 142.698843 181.081712 
L 145.978182 181.439526 
L 149.257521 181.839023 
L 152.53686 181.805315 
L 155.816198 182.020498 
L 159.095537 182.437229 
L 162.374876 182.624968 
L 165.654215 183.010738 
L 168.933554 183.544676 
L 172.212893 183.840374 
L 175.492231 182.882086 
L 178.77157 182.060795 
L 182.050909 181.070818 
L 185.330248 180.285471 
L 188.609587 180.021964 
L 191.888926 179.451922 
L 195.168264 178.947046 
L 198.447603 178.796993 
L 201.726942 177.909113 
L 205.006281 177.587456 
L 208.28562 177.036539 
L 211.564959 176.797276 
L 214.844298 176.340947 
L 218.123636 176.241929 
L 221.402975 175.751402 
L 224.682314 175.346499 
L 227.961653 174.858131 
L 231.240992 174.99541 
L 234.520331 174.775144 
L 237.799669 174.214122 
L 241.079008 174.106183 
L 244.358347 174.173345 
L 247.637686 173.781655 
L 250.917025 173.375025 
L 254.196364 173.220091 
L 257.475702 172.788072 
L 260.755041 172.425784 
L 264.03438 172.095915 
L 267.313719 171.988816 
L 270.593058 171.482298 
L 273.872397 171.079067 
L 277.151736 170.273938 
L 280.431074 170.293677 
L 283.710413 169.86238 
L 286.989752 169.325355 
L 290.269091 168.321324 
L 293.54843 167.603956 
L 296.827769 166.847478 
L 300.107107 166.165599 
L 303.386446 165.250965 
L 306.665785 165.520502 
L 309.945124 166.045962 
L 313.224463 166.212882 
L 316.503802 166.951795 
L 319.78314 166.917846 
L 323.062479 167.329259 
L 326.341818 167.41276 
L 329.621157 167.513874 
L 332.900496 167.49893 
L 336.179835 167.880504 
L 339.459174 168.057139 
L 342.738512 167.786134 
L 346.017851 168.079658 
L 349.29719 168.235667 
L 352.576529 168.083897 
L 355.855868 168.237914 
L 359.135207 168.069131 
L 362.414545 168.33204 
L 365.693884 168.073346 
L 368.973223 168.080526 
L 372.252562 168.241726 
L 375.531901 168.030964 
L 378.81124 167.669855 
L 382.090579 167.920678 
L 385.369917 168.092133 
L 388.649256 167.938957 
L 391.928595 167.870507 
L 395.207934 167.542816 
L 398.487273 167.547117 
" clip-path="url(#p1a29f21e2a)" style="fill: none; stroke: #0000ff; stroke-width: 1.5; stroke-linecap: round"/>
   </g>
   <g id="line2d_12">
    <path d="M 73.832727 295.488 
L 77.112066 293.068802 
L 80.391405 290.649605 
L 83.670744 288.230407 
L 86.950083 285.811209 
L 90.229421 283.392012 
L 93.50876 280.972814 
L 96.788099 278.553616 
L 100.067438 276.134418 
L 103.346777 273.715221 
L 106.626116 271.296023 
L 109.905455 268.876825 
L 113.184793 266.457628 
L 116.464132 264.03843 
L 119.743471 261.619232 
L 123.02281 259.200035 
L 126.302149 256.780837 
L 129.581488 254.361639 
L 132.860826 251.942442 
L 136.140165 249.523244 
L 139.419504 247.104046 
L 142.698843 244.684848 
L 145.978182 242.265651 
L 149.257521 239.846453 
L 152.53686 237.427255 
L 155.816198 235.008058 
L 159.095537 232.58886 
L 162.374876 230.169662 
L 165.654215 227.750465 
L 168.933554 225.331267 
L 172.212893 222.912069 
L 175.492231 220.492872 
L 178.77157 218.073674 
L 182.050909 215.654476 
L 185.330248 213.235278 
L 188.609587 210.816081 
L 191.888926 208.396883 
L 195.168264 205.977685 
L 198.447603 203.558488 
L 201.726942 201.13929 
L 205.006281 198.720092 
L 208.28562 196.300895 
L 211.564959 193.881697 
L 214.844298 191.462499 
L 218.123636 189.043302 
L 221.402975 186.624104 
L 224.682314 184.204906 
L 227.961653 181.785708 
L 231.240992 179.366511 
L 234.520331 176.947313 
L 237.799669 174.528115 
L 241.079008 172.108918 
L 244.358347 169.68972 
L 247.637686 167.270522 
L 250.917025 164.851325 
L 254.196364 162.432127 
L 257.475702 160.012929 
L 260.755041 157.593732 
L 264.03438 155.174534 
L 267.313719 152.755336 
L 270.593058 150.336138 
L 273.872397 147.916941 
L 277.151736 145.497743 
L 280.431074 143.078545 
L 283.710413 140.659348 
L 286.989752 138.24015 
L 290.269091 135.820952 
L 293.54843 133.401755 
L 296.827769 130.982557 
L 300.107107 128.563359 
L 303.386446 126.144161 
L 306.665785 123.724964 
L 309.945124 121.305766 
L 313.224463 118.886568 
L 316.503802 116.467371 
L 319.78314 114.048173 
L 323.062479 111.628975 
L 326.341818 109.209778 
L 329.621157 106.79058 
L 332.900496 104.371382 
L 336.179835 101.952185 
L 339.459174 99.532987 
L 342.738512 97.113789 
L 346.017851 94.694591 
L 349.29719 92.275394 
L 352.576529 89.856196 
L 355.855868 87.436998 
L 359.135207 85.017801 
L 362.414545 82.598603 
L 365.693884 80.179405 
L 368.973223 77.760208 
L 372.252562 75.34101 
L 375.531901 72.921812 
L 378.81124 70.502615 
L 382.090579 68.083417 
L 385.369917 65.664219 
L 388.649256 63.245021 
L 391.928595 60.825824 
L 395.207934 58.406626 
L 398.487273 55.987428 
" clip-path="url(#p1a29f21e2a)" style="fill: none; stroke-dasharray: 5.55,2.4; stroke-dashoffset: 0; stroke: #808080; stroke-width: 1.5"/>
   </g>
   <g id="LineCollection_1">
    <path d="M 172.212986 295.488 
L 172.212986 53.568 
" clip-path="url(#p1a29f21e2a)" style="fill: none; stroke-dasharray: 5.55,2.4; stroke-dashoffset: 0; stroke: #008000; stroke-width: 1.5"/>
    <path d="M 303.386665 295.488 
L 303.386665 53.568 
" clip-path="url(#p1a29f21e2a)" style="fill: none; stroke-dasharray: 5.55,2.4; stroke-dashoffset: 0; stroke: #008000; stroke-width: 1.5"/>
   </g>
   <g id="patch_3">
    <path d="M 57.6 307.584 
L 57.6 41.472 
" style="fill: none; stroke: #ffffff; stroke-width: 0.8; stroke-linejoin: miter; stroke-linecap: square"/>
   </g>
   <g id="patch_4">
    <path d="M 414.72 307.584 
L 414.72 41.472 
" style="fill: none; stroke: #ffffff; stroke-width: 0.8; stroke-linejoin: miter; stroke-linecap: square"/>
   </g>
   <g id="patch_5">
    <path d="M 57.6 307.584 
L 414.72 307.584 
" style="fill: none; stroke: #ffffff; stroke-width: 0.8; stroke-linejoin: miter; stroke-linecap: square"/>
   </g>
   <g id="patch_6">
    <path d="M 57.6 41.472 
L 414.72 41.472 
" style="fill: none; stroke: #ffffff; stroke-width: 0.8; stroke-linejoin: miter; stroke-linecap: square"/>
   </g>
   <g id="text_13">
    <!-- $\sigma^2=1, n=50$ -->
    <g style="fill: #262626" transform="translate(196.14 35.472) scale(0.12 -0.12)">
     <defs>
      <path id="DejaVuSans-Oblique-3c3" d="M 2219 3044 
Q 1744 3044 1422 2700 
Q 1081 2341 969 1747 
Q 844 1119 1044 756 
Q 1241 397 1706 397 
Q 2166 397 2503 759 
Q 2844 1122 2966 1747 
Q 3075 2319 2881 2700 
Q 2700 3044 2219 3044 
z
M 2309 3503 
L 4219 3500 
L 4106 2925 
L 3463 2925 
Q 3706 2438 3575 1747 
Q 3406 888 2884 400 
Q 2359 -91 1609 -91 
Q 856 -91 525 400 
Q 194 888 363 1747 
Q 528 2609 1050 3097 
Q 1484 3503 2309 3503 
z
" transform="scale(0.015625)"/>
      <path id="DejaVuSans-32" d="M 1228 531 
L 3431 531 
L 3431 0 
L 469 0 
L 469 531 
Q 828 903 1448 1529 
Q 2069 2156 2228 2338 
Q 2531 2678 2651 2914 
Q 2772 3150 2772 3378 
Q 2772 3750 2511 3984 
Q 2250 4219 1831 4219 
Q 1534 4219 1204 4116 
Q 875 4013 500 3803 
L 500 4441 
Q 881 4594 1212 4672 
Q 1544 4750 1819 4750 
Q 2544 4750 2975 4387 
Q 3406 4025 3406 3419 
Q 3406 3131 3298 2873 
Q 3191 2616 2906 2266 
Q 2828 2175 2409 1742 
Q 1991 1309 1228 531 
z
" transform="scale(0.015625)"/>
      <path id="DejaVuSans-3d" d="M 678 2906 
L 4684 2906 
L 4684 2381 
L 678 2381 
L 678 2906 
z
M 678 1631 
L 4684 1631 
L 4684 1100 
L 678 1100 
L 678 1631 
z
" transform="scale(0.015625)"/>
      <path id="DejaVuSans-31" d="M 794 531 
L 1825 531 
L 1825 4091 
L 703 3866 
L 703 4441 
L 1819 4666 
L 2450 4666 
L 2450 531 
L 3481 531 
L 3481 0 
L 794 0 
L 794 531 
z
" transform="scale(0.015625)"/>
      <path id="DejaVuSans-2c" d="M 750 794 
L 1409 794 
L 1409 256 
L 897 -744 
L 494 -744 
L 750 256 
L 750 794 
z
" transform="scale(0.015625)"/>
      <path id="DejaVuSans-35" d="M 691 4666 
L 3169 4666 
L 3169 4134 
L 1269 4134 
L 1269 2991 
Q 1406 3038 1543 3061 
Q 1681 3084 1819 3084 
Q 2600 3084 3056 2656 
Q 3513 2228 3513 1497 
Q 3513 744 3044 326 
Q 2575 -91 1722 -91 
Q 1428 -91 1123 -41 
Q 819 9 494 109 
L 494 744 
Q 775 591 1075 516 
Q 1375 441 1709 441 
Q 2250 441 2565 725 
Q 2881 1009 2881 1497 
Q 2881 1984 2565 2268 
Q 2250 2553 1709 2553 
Q 1456 2553 1204 2497 
Q 953 2441 691 2322 
L 691 4666 
z
" transform="scale(0.015625)"/>
      <path id="DejaVuSans-30" d="M 2034 4250 
Q 1547 4250 1301 3770 
Q 1056 3291 1056 2328 
Q 1056 1369 1301 889 
Q 1547 409 2034 409 
Q 2525 409 2770 889 
Q 3016 1369 3016 2328 
Q 3016 3291 2770 3770 
Q 2525 4250 2034 4250 
z
M 2034 4750 
Q 2819 4750 3233 4129 
Q 3647 3509 3647 2328 
Q 3647 1150 3233 529 
Q 2819 -91 2034 -91 
Q 1250 -91 836 529 
Q 422 1150 422 2328 
Q 422 3509 836 4129 
Q 1250 4750 2034 4750 
z
" transform="scale(0.015625)"/>
     </defs>
     <use xlink:href="#DejaVuSans-Oblique-3c3" transform="translate(0 0.765625)"/>
     <use xlink:href="#DejaVuSans-32" transform="translate(67.851615 39.046875) scale(0.7)"/>
     <use xlink:href="#DejaVuSans-3d" transform="translate(134.604544 0.765625)"/>
     <use xlink:href="#DejaVuSans-31" transform="translate(237.876029 0.765625)"/>
     <use xlink:href="#DejaVuSans-2c" transform="translate(301.499076 0.765625)"/>
     <use xlink:href="#DejaVuSans-Oblique-6e" transform="translate(352.768607 0.765625)"/>
     <use xlink:href="#DejaVuSans-3d" transform="translate(435.629935 0.765625)"/>
     <use xlink:href="#DejaVuSans-35" transform="translate(538.901419 0.765625)"/>
     <use xlink:href="#DejaVuSans-30" transform="translate(602.524466 0.765625)"/>
    </g>
   </g>
   <g id="legend_1">
    <g id="patch_7">
     <path d="M 297.42 302.584 
L 407.72 302.584 
Q 409.72 302.584 409.72 300.584 
L 409.72 230.248062 
Q 409.72 228.248062 407.72 228.248062 
L 297.42 228.248062 
Q 295.42 228.248062 295.42 230.248062 
L 295.42 300.584 
Q 295.42 302.584 297.42 302.584 
z
" style="fill: #eaeaf2; opacity: 0.8; stroke: #cccccc; stroke-linejoin: miter"/>
    </g>
    <g id="line2d_13">
     <path d="M 299.42 236.160562 
L 309.42 236.160562 
L 319.42 236.160562 
" style="fill: none; stroke: #0000ff; stroke-width: 1.5; stroke-linecap: round"/>
    </g>
    <g id="text_14">
     <!-- $E[x_{next}]$ -->
     <g style="fill: #262626" transform="translate(327.42 239.660562) scale(0.1 -0.1)">
      <defs>
       <path id="DejaVuSans-Oblique-45" d="M 1081 4666 
L 4031 4666 
L 3928 4134 
L 1606 4134 
L 1338 2753 
L 3566 2753 
L 3463 2222 
L 1234 2222 
L 909 531 
L 3284 531 
L 3181 0 
L 172 0 
L 1081 4666 
z
" transform="scale(0.015625)"/>
       <path id="DejaVuSans-5b" d="M 550 4863 
L 1875 4863 
L 1875 4416 
L 1125 4416 
L 1125 -397 
L 1875 -397 
L 1875 -844 
L 550 -844 
L 550 4863 
z
" transform="scale(0.015625)"/>
       <path id="DejaVuSans-5d" d="M 1947 4863 
L 1947 -844 
L 622 -844 
L 622 -397 
L 1369 -397 
L 1369 4416 
L 622 4416 
L 622 4863 
L 1947 4863 
z
" transform="scale(0.015625)"/>
      </defs>
      <use xlink:href="#DejaVuSans-Oblique-45" transform="translate(0 0.015625)"/>
      <use xlink:href="#DejaVuSans-5b" transform="translate(63.183594 0.015625)"/>
      <use xlink:href="#DejaVuSans-Oblique-78" transform="translate(102.197266 0.015625)"/>
      <use xlink:href="#DejaVuSans-Oblique-6e" transform="translate(161.376953 -16.390625) scale(0.7)"/>
      <use xlink:href="#DejaVuSans-Oblique-65" transform="translate(205.742188 -16.390625) scale(0.7)"/>
      <use xlink:href="#DejaVuSans-Oblique-78" transform="translate(248.808594 -16.390625) scale(0.7)"/>
      <use xlink:href="#DejaVuSans-Oblique-74" transform="translate(290.234375 -16.390625) scale(0.7)"/>
      <use xlink:href="#DejaVuSans-5d" transform="translate(320.415039 0.015625)"/>
     </g>
    </g>
    <g id="patch_8">
     <path d="M 299.42 253.805875 
L 319.42 253.805875 
L 319.42 246.805875 
L 299.42 246.805875 
z
" style="fill: #0000ff; fill-opacity: 0.5; stroke: #0000ff; stroke-opacity: 0.5; stroke-linejoin: miter"/>
    </g>
    <g id="text_15">
     <!-- 50% CI -->
     <g style="fill: #262626" transform="translate(327.42 253.805875) scale(0.1 -0.1)">
      <defs>
       <path id="ArialMT-35" d="M 266 1200 
L 856 1250 
Q 922 819 1161 601 
Q 1400 384 1738 384 
Q 2144 384 2425 690 
Q 2706 997 2706 1503 
Q 2706 1984 2436 2262 
Q 2166 2541 1728 2541 
Q 1456 2541 1237 2417 
Q 1019 2294 894 2097 
L 366 2166 
L 809 4519 
L 3088 4519 
L 3088 3981 
L 1259 3981 
L 1013 2750 
Q 1425 3038 1878 3038 
Q 2478 3038 2890 2622 
Q 3303 2206 3303 1553 
Q 3303 931 2941 478 
Q 2500 -78 1738 -78 
Q 1113 -78 717 272 
Q 322 622 266 1200 
z
" transform="scale(0.015625)"/>
       <path id="ArialMT-25" d="M 372 3481 
Q 372 3972 619 4315 
Q 866 4659 1334 4659 
Q 1766 4659 2048 4351 
Q 2331 4044 2331 3447 
Q 2331 2866 2045 2552 
Q 1759 2238 1341 2238 
Q 925 2238 648 2547 
Q 372 2856 372 3481 
z
M 1350 4272 
Q 1141 4272 1002 4090 
Q 863 3909 863 3425 
Q 863 2984 1003 2804 
Q 1144 2625 1350 2625 
Q 1563 2625 1702 2806 
Q 1841 2988 1841 3469 
Q 1841 3913 1700 4092 
Q 1559 4272 1350 4272 
z
M 1353 -169 
L 3859 4659 
L 4316 4659 
L 1819 -169 
L 1353 -169 
z
M 3334 1075 
Q 3334 1569 3581 1911 
Q 3828 2253 4300 2253 
Q 4731 2253 5014 1945 
Q 5297 1638 5297 1041 
Q 5297 459 5011 145 
Q 4725 -169 4303 -169 
Q 3888 -169 3611 142 
Q 3334 453 3334 1075 
z
M 4316 1866 
Q 4103 1866 3964 1684 
Q 3825 1503 3825 1019 
Q 3825 581 3965 400 
Q 4106 219 4313 219 
Q 4528 219 4667 400 
Q 4806 581 4806 1063 
Q 4806 1506 4665 1686 
Q 4525 1866 4316 1866 
z
" transform="scale(0.015625)"/>
       <path id="ArialMT-20" transform="scale(0.015625)"/>
       <path id="ArialMT-43" d="M 3763 1606 
L 4369 1453 
Q 4178 706 3683 314 
Q 3188 -78 2472 -78 
Q 1731 -78 1267 223 
Q 803 525 561 1097 
Q 319 1669 319 2325 
Q 319 3041 592 3573 
Q 866 4106 1370 4382 
Q 1875 4659 2481 4659 
Q 3169 4659 3637 4309 
Q 4106 3959 4291 3325 
L 3694 3184 
Q 3534 3684 3231 3912 
Q 2928 4141 2469 4141 
Q 1941 4141 1586 3887 
Q 1231 3634 1087 3207 
Q 944 2781 944 2328 
Q 944 1744 1114 1308 
Q 1284 872 1643 656 
Q 2003 441 2422 441 
Q 2931 441 3284 734 
Q 3638 1028 3763 1606 
z
" transform="scale(0.015625)"/>
       <path id="ArialMT-49" d="M 597 0 
L 597 4581 
L 1203 4581 
L 1203 0 
L 597 0 
z
" transform="scale(0.015625)"/>
      </defs>
      <use xlink:href="#ArialMT-35"/>
      <use xlink:href="#ArialMT-30" transform="translate(55.615234 0)"/>
      <use xlink:href="#ArialMT-25" transform="translate(111.230469 0)"/>
      <use xlink:href="#ArialMT-20" transform="translate(200.146484 0)"/>
      <use xlink:href="#ArialMT-43" transform="translate(227.929688 0)"/>
      <use xlink:href="#ArialMT-49" transform="translate(300.146484 0)"/>
     </g>
    </g>
    <g id="patch_9">
     <path d="M 299.42 267.951187 
L 319.42 267.951187 
L 319.42 260.951187 
L 299.42 260.951187 
z
" style="fill: #0000ff; fill-opacity: 0.3; stroke: #0000ff; stroke-opacity: 0.3; stroke-linejoin: miter"/>
    </g>
    <g id="text_16">
     <!-- 90% CI -->
     <g style="fill: #262626" transform="translate(327.42 267.951187) scale(0.1 -0.1)">
      <defs>
       <path id="ArialMT-39" d="M 350 1059 
L 891 1109 
Q 959 728 1153 556 
Q 1347 384 1650 384 
Q 1909 384 2104 503 
Q 2300 622 2425 820 
Q 2550 1019 2634 1356 
Q 2719 1694 2719 2044 
Q 2719 2081 2716 2156 
Q 2547 1888 2255 1720 
Q 1963 1553 1622 1553 
Q 1053 1553 659 1965 
Q 266 2378 266 3053 
Q 266 3750 677 4175 
Q 1088 4600 1706 4600 
Q 2153 4600 2523 4359 
Q 2894 4119 3086 3673 
Q 3278 3228 3278 2384 
Q 3278 1506 3087 986 
Q 2897 466 2520 194 
Q 2144 -78 1638 -78 
Q 1100 -78 759 220 
Q 419 519 350 1059 
z
M 2653 3081 
Q 2653 3566 2395 3850 
Q 2138 4134 1775 4134 
Q 1400 4134 1122 3828 
Q 844 3522 844 3034 
Q 844 2597 1108 2323 
Q 1372 2050 1759 2050 
Q 2150 2050 2401 2323 
Q 2653 2597 2653 3081 
z
" transform="scale(0.015625)"/>
      </defs>
      <use xlink:href="#ArialMT-39"/>
      <use xlink:href="#ArialMT-30" transform="translate(55.615234 0)"/>
      <use xlink:href="#ArialMT-25" transform="translate(111.230469 0)"/>
      <use xlink:href="#ArialMT-20" transform="translate(200.146484 0)"/>
      <use xlink:href="#ArialMT-43" transform="translate(227.929688 0)"/>
      <use xlink:href="#ArialMT-49" transform="translate(300.146484 0)"/>
     </g>
    </g>
    <g id="line2d_14">
     <path d="M 299.42 278.5965 
L 309.42 278.5965 
L 319.42 278.5965 
" style="fill: none; stroke-dasharray: 5.55,2.4; stroke-dashoffset: 0; stroke: #808080; stroke-width: 1.5"/>
    </g>
    <g id="text_17">
     <!-- x=x_next -->
     <g style="fill: #262626" transform="translate(327.42 282.0965) scale(0.1 -0.1)">
      <defs>
       <path id="ArialMT-78" d="M 47 0 
L 1259 1725 
L 138 3319 
L 841 3319 
L 1350 2541 
Q 1494 2319 1581 2169 
Q 1719 2375 1834 2534 
L 2394 3319 
L 3066 3319 
L 1919 1756 
L 3153 0 
L 2463 0 
L 1781 1031 
L 1600 1309 
L 728 0 
L 47 0 
z
" transform="scale(0.015625)"/>
       <path id="ArialMT-3d" d="M 3381 2694 
L 356 2694 
L 356 3219 
L 3381 3219 
L 3381 2694 
z
M 3381 1303 
L 356 1303 
L 356 1828 
L 3381 1828 
L 3381 1303 
z
" transform="scale(0.015625)"/>
       <path id="ArialMT-5f" d="M -97 -1272 
L -97 -866 
L 3631 -866 
L 3631 -1272 
L -97 -1272 
z
" transform="scale(0.015625)"/>
       <path id="ArialMT-6e" d="M 422 0 
L 422 3319 
L 928 3319 
L 928 2847 
Q 1294 3394 1984 3394 
Q 2284 3394 2536 3286 
Q 2788 3178 2913 3003 
Q 3038 2828 3088 2588 
Q 3119 2431 3119 2041 
L 3119 0 
L 2556 0 
L 2556 2019 
Q 2556 2363 2490 2533 
Q 2425 2703 2258 2804 
Q 2091 2906 1866 2906 
Q 1506 2906 1245 2678 
Q 984 2450 984 1813 
L 984 0 
L 422 0 
z
" transform="scale(0.015625)"/>
       <path id="ArialMT-65" d="M 2694 1069 
L 3275 997 
Q 3138 488 2766 206 
Q 2394 -75 1816 -75 
Q 1088 -75 661 373 
Q 234 822 234 1631 
Q 234 2469 665 2931 
Q 1097 3394 1784 3394 
Q 2450 3394 2872 2941 
Q 3294 2488 3294 1666 
Q 3294 1616 3291 1516 
L 816 1516 
Q 847 969 1125 678 
Q 1403 388 1819 388 
Q 2128 388 2347 550 
Q 2566 713 2694 1069 
z
M 847 1978 
L 2700 1978 
Q 2663 2397 2488 2606 
Q 2219 2931 1791 2931 
Q 1403 2931 1139 2672 
Q 875 2413 847 1978 
z
" transform="scale(0.015625)"/>
       <path id="ArialMT-74" d="M 1650 503 
L 1731 6 
Q 1494 -44 1306 -44 
Q 1000 -44 831 53 
Q 663 150 594 308 
Q 525 466 525 972 
L 525 2881 
L 113 2881 
L 113 3319 
L 525 3319 
L 525 4141 
L 1084 4478 
L 1084 3319 
L 1650 3319 
L 1650 2881 
L 1084 2881 
L 1084 941 
Q 1084 700 1114 631 
Q 1144 563 1211 522 
Q 1278 481 1403 481 
Q 1497 481 1650 503 
z
" transform="scale(0.015625)"/>
      </defs>
      <use xlink:href="#ArialMT-78"/>
      <use xlink:href="#ArialMT-3d" transform="translate(50 0)"/>
      <use xlink:href="#ArialMT-78" transform="translate(108.398438 0)"/>
      <use xlink:href="#ArialMT-5f" transform="translate(158.398438 0)"/>
      <use xlink:href="#ArialMT-6e" transform="translate(214.013672 0)"/>
      <use xlink:href="#ArialMT-65" transform="translate(269.628906 0)"/>
      <use xlink:href="#ArialMT-78" transform="translate(325.244141 0)"/>
      <use xlink:href="#ArialMT-74" transform="translate(375.244141 0)"/>
     </g>
    </g>
    <g id="line2d_15">
     <path d="M 299.42 292.884 
L 319.42 292.884 
" style="fill: none; stroke-dasharray: 5.55,2.4; stroke-dashoffset: 0; stroke: #008000; stroke-width: 1.5"/>
    </g>
    <g id="text_18">
     <!-- modes of target $\pi$ -->
     <g style="fill: #262626" transform="translate(327.42 296.384) scale(0.1 -0.1)">
      <defs>
       <path id="ArialMT-6d" d="M 422 0 
L 422 3319 
L 925 3319 
L 925 2853 
Q 1081 3097 1340 3245 
Q 1600 3394 1931 3394 
Q 2300 3394 2536 3241 
Q 2772 3088 2869 2813 
Q 3263 3394 3894 3394 
Q 4388 3394 4653 3120 
Q 4919 2847 4919 2278 
L 4919 0 
L 4359 0 
L 4359 2091 
Q 4359 2428 4304 2576 
Q 4250 2725 4106 2815 
Q 3963 2906 3769 2906 
Q 3419 2906 3187 2673 
Q 2956 2441 2956 1928 
L 2956 0 
L 2394 0 
L 2394 2156 
Q 2394 2531 2256 2718 
Q 2119 2906 1806 2906 
Q 1569 2906 1367 2781 
Q 1166 2656 1075 2415 
Q 984 2175 984 1722 
L 984 0 
L 422 0 
z
" transform="scale(0.015625)"/>
       <path id="ArialMT-6f" d="M 213 1659 
Q 213 2581 725 3025 
Q 1153 3394 1769 3394 
Q 2453 3394 2887 2945 
Q 3322 2497 3322 1706 
Q 3322 1066 3130 698 
Q 2938 331 2570 128 
Q 2203 -75 1769 -75 
Q 1072 -75 642 372 
Q 213 819 213 1659 
z
M 791 1659 
Q 791 1022 1069 705 
Q 1347 388 1769 388 
Q 2188 388 2466 706 
Q 2744 1025 2744 1678 
Q 2744 2294 2464 2611 
Q 2184 2928 1769 2928 
Q 1347 2928 1069 2612 
Q 791 2297 791 1659 
z
" transform="scale(0.015625)"/>
       <path id="ArialMT-64" d="M 2575 0 
L 2575 419 
Q 2259 -75 1647 -75 
Q 1250 -75 917 144 
Q 584 363 401 755 
Q 219 1147 219 1656 
Q 219 2153 384 2558 
Q 550 2963 881 3178 
Q 1213 3394 1622 3394 
Q 1922 3394 2156 3267 
Q 2391 3141 2538 2938 
L 2538 4581 
L 3097 4581 
L 3097 0 
L 2575 0 
z
M 797 1656 
Q 797 1019 1065 703 
Q 1334 388 1700 388 
Q 2069 388 2326 689 
Q 2584 991 2584 1609 
Q 2584 2291 2321 2609 
Q 2059 2928 1675 2928 
Q 1300 2928 1048 2622 
Q 797 2316 797 1656 
z
" transform="scale(0.015625)"/>
       <path id="ArialMT-73" d="M 197 991 
L 753 1078 
Q 800 744 1014 566 
Q 1228 388 1613 388 
Q 2000 388 2187 545 
Q 2375 703 2375 916 
Q 2375 1106 2209 1216 
Q 2094 1291 1634 1406 
Q 1016 1563 777 1677 
Q 538 1791 414 1992 
Q 291 2194 291 2438 
Q 291 2659 392 2848 
Q 494 3038 669 3163 
Q 800 3259 1026 3326 
Q 1253 3394 1513 3394 
Q 1903 3394 2198 3281 
Q 2494 3169 2634 2976 
Q 2775 2784 2828 2463 
L 2278 2388 
Q 2241 2644 2061 2787 
Q 1881 2931 1553 2931 
Q 1166 2931 1000 2803 
Q 834 2675 834 2503 
Q 834 2394 903 2306 
Q 972 2216 1119 2156 
Q 1203 2125 1616 2013 
Q 2213 1853 2448 1751 
Q 2684 1650 2818 1456 
Q 2953 1263 2953 975 
Q 2953 694 2789 445 
Q 2625 197 2315 61 
Q 2006 -75 1616 -75 
Q 969 -75 630 194 
Q 291 463 197 991 
z
" transform="scale(0.015625)"/>
       <path id="ArialMT-66" d="M 556 0 
L 556 2881 
L 59 2881 
L 59 3319 
L 556 3319 
L 556 3672 
Q 556 4006 616 4169 
Q 697 4388 901 4523 
Q 1106 4659 1475 4659 
Q 1713 4659 2000 4603 
L 1916 4113 
Q 1741 4144 1584 4144 
Q 1328 4144 1222 4034 
Q 1116 3925 1116 3625 
L 1116 3319 
L 1763 3319 
L 1763 2881 
L 1116 2881 
L 1116 0 
L 556 0 
z
" transform="scale(0.015625)"/>
       <path id="ArialMT-61" d="M 2588 409 
Q 2275 144 1986 34 
Q 1697 -75 1366 -75 
Q 819 -75 525 192 
Q 231 459 231 875 
Q 231 1119 342 1320 
Q 453 1522 633 1644 
Q 813 1766 1038 1828 
Q 1203 1872 1538 1913 
Q 2219 1994 2541 2106 
Q 2544 2222 2544 2253 
Q 2544 2597 2384 2738 
Q 2169 2928 1744 2928 
Q 1347 2928 1158 2789 
Q 969 2650 878 2297 
L 328 2372 
Q 403 2725 575 2942 
Q 747 3159 1072 3276 
Q 1397 3394 1825 3394 
Q 2250 3394 2515 3294 
Q 2781 3194 2906 3042 
Q 3031 2891 3081 2659 
Q 3109 2516 3109 2141 
L 3109 1391 
Q 3109 606 3145 398 
Q 3181 191 3288 0 
L 2700 0 
Q 2613 175 2588 409 
z
M 2541 1666 
Q 2234 1541 1622 1453 
Q 1275 1403 1131 1340 
Q 988 1278 909 1158 
Q 831 1038 831 891 
Q 831 666 1001 516 
Q 1172 366 1500 366 
Q 1825 366 2078 508 
Q 2331 650 2450 897 
Q 2541 1088 2541 1459 
L 2541 1666 
z
" transform="scale(0.015625)"/>
       <path id="ArialMT-72" d="M 416 0 
L 416 3319 
L 922 3319 
L 922 2816 
Q 1116 3169 1280 3281 
Q 1444 3394 1641 3394 
Q 1925 3394 2219 3213 
L 2025 2691 
Q 1819 2813 1613 2813 
Q 1428 2813 1281 2702 
Q 1134 2591 1072 2394 
Q 978 2094 978 1738 
L 978 0 
L 416 0 
z
" transform="scale(0.015625)"/>
       <path id="ArialMT-67" d="M 319 -275 
L 866 -356 
Q 900 -609 1056 -725 
Q 1266 -881 1628 -881 
Q 2019 -881 2231 -725 
Q 2444 -569 2519 -288 
Q 2563 -116 2559 434 
Q 2191 0 1641 0 
Q 956 0 581 494 
Q 206 988 206 1678 
Q 206 2153 378 2554 
Q 550 2956 876 3175 
Q 1203 3394 1644 3394 
Q 2231 3394 2613 2919 
L 2613 3319 
L 3131 3319 
L 3131 450 
Q 3131 -325 2973 -648 
Q 2816 -972 2473 -1159 
Q 2131 -1347 1631 -1347 
Q 1038 -1347 672 -1080 
Q 306 -813 319 -275 
z
M 784 1719 
Q 784 1066 1043 766 
Q 1303 466 1694 466 
Q 2081 466 2343 764 
Q 2606 1063 2606 1700 
Q 2606 2309 2336 2618 
Q 2066 2928 1684 2928 
Q 1309 2928 1046 2623 
Q 784 2319 784 1719 
z
" transform="scale(0.015625)"/>
       <path id="DejaVuSans-Oblique-3c0" d="M 584 3500 
L 3938 3500 
L 3825 2925 
L 3384 2925 
L 2966 775 
Q 2922 550 2981 450 
Q 3038 353 3209 353 
Q 3256 353 3325 363 
Q 3397 369 3419 372 
L 3338 -44 
Q 3222 -84 3103 -103 
Q 2981 -122 2866 -122 
Q 2491 -122 2388 81 
Q 2284 288 2391 838 
L 2797 2925 
L 1506 2925 
L 938 0 
L 350 0 
L 919 2925 
L 472 2925 
L 584 3500 
z
" transform="scale(0.015625)"/>
      </defs>
      <use xlink:href="#ArialMT-6d" transform="translate(0 0.203125)"/>
      <use xlink:href="#ArialMT-6f" transform="translate(83.300781 0.203125)"/>
      <use xlink:href="#ArialMT-64" transform="translate(138.916016 0.203125)"/>
      <use xlink:href="#ArialMT-65" transform="translate(194.53125 0.203125)"/>
      <use xlink:href="#ArialMT-73" transform="translate(250.146484 0.203125)"/>
      <use xlink:href="#ArialMT-20" transform="translate(300.146484 0.203125)"/>
      <use xlink:href="#ArialMT-6f" transform="translate(327.929688 0.203125)"/>
      <use xlink:href="#ArialMT-66" transform="translate(383.544922 0.203125)"/>
      <use xlink:href="#ArialMT-20" transform="translate(411.328125 0.203125)"/>
      <use xlink:href="#ArialMT-74" transform="translate(439.111328 0.203125)"/>
      <use xlink:href="#ArialMT-61" transform="translate(466.894531 0.203125)"/>
      <use xlink:href="#ArialMT-72" transform="translate(522.509766 0.203125)"/>
      <use xlink:href="#ArialMT-67" transform="translate(555.810547 0.203125)"/>
      <use xlink:href="#ArialMT-65" transform="translate(611.425781 0.203125)"/>
      <use xlink:href="#ArialMT-74" transform="translate(667.041016 0.203125)"/>
      <use xlink:href="#ArialMT-20" transform="translate(694.824219 0.203125)"/>
      <use xlink:href="#DejaVuSans-Oblique-3c0" transform="translate(722.607422 0.203125)"/>
     </g>
    </g>
   </g>
  </g>
 </g>
 <defs>
  <clipPath id="p1a29f21e2a">
   <rect x="57.6" y="41.472" width="357.12" height="266.112"/>
  </clipPath>
 </defs>
</svg>
