<?xml version="1.0" encoding="utf-8" standalone="no"?>
<!DOCTYPE svg PUBLIC "-//W3C//DTD SVG 1.1//EN"
  "http://www.w3.org/Graphics/SVG/1.1/DTD/svg11.dtd">
<svg xmlns:xlink="http://www.w3.org/1999/xlink" width="460.8pt" height="345.6pt" viewBox="0 0 460.8 345.6" xmlns="http://www.w3.org/2000/svg" version="1.1">
 <metadata>
  <rdf:RDF xmlns:dc="http://purl.org/dc/elements/1.1/" xmlns:cc="http://creativecommons.org/ns#" xmlns:rdf="http://www.w3.org/1999/02/22-rdf-syntax-ns#">
   <cc:Work>
    <dc:type rdf:resource="http://purl.org/dc/dcmitype/StillImage"/>
    <dc:date>2025-04-11T13:51:01.945728</dc:date>
    <dc:format>image/svg+xml</dc:format>
    <dc:creator>
     <cc:Agent>
      <dc:title>Matplotlib v3.10.1, https://matplotlib.org/</dc:title>
     </cc:Agent>
    </dc:creator>
   </cc:Work>
  </rdf:RDF>
 </metadata>
 <defs>
  <style type="text/css">*{stroke-linejoin: round; stroke-linecap: butt}</style>
 </defs>
 <g id="figure_1">
  <g id="patch_1">
   <path d="M 0 345.6 
L 460.8 345.6 
L 460.8 0 
L 0 0 
z
" style="fill: #ffffff"/>
  </g>
  <g id="axes_1">
   <g id="patch_2">
    <path d="M 57.6 307.584 
L 414.72 307.584 
L 414.72 41.472 
L 57.6 41.472 
z
" style="fill: #eaeaf2"/>
   </g>
   <g id="matplotlib.axis_1">
    <g id="xtick_1">
     <g id="line2d_1">
      <path d="M 106.298182 307.584 
L 106.298182 41.472 
" clip-path="url(#pb4c868f0c8)" style="fill: none; stroke: #ffffff; stroke-width: 0.8; stroke-linecap: round"/>
     </g>
     <g id="text_1">
      <!-- −4 -->
      <g style="fill: #262626" transform="translate(100.597401 321.741812) scale(0.1 -0.1)">
       <defs>
        <path id="ArialMT-2212" d="M 3381 1997 
L 356 1997 
L 356 2522 
L 3381 2522 
L 3381 1997 
z
" transform="scale(0.015625)"/>
        <path id="ArialMT-34" d="M 2069 0 
L 2069 1097 
L 81 1097 
L 81 1613 
L 2172 4581 
L 2631 4581 
L 2631 1613 
L 3250 1613 
L 3250 1097 
L 2631 1097 
L 2631 0 
L 2069 0 
z
M 2069 1613 
L 2069 3678 
L 634 1613 
L 2069 1613 
z
" transform="scale(0.015625)"/>
       </defs>
       <use xlink:href="#ArialMT-2212"/>
       <use xlink:href="#ArialMT-34" transform="translate(58.398438 0)"/>
      </g>
     </g>
    </g>
    <g id="xtick_2">
     <g id="line2d_2">
      <path d="M 171.229091 307.584 
L 171.229091 41.472 
" clip-path="url(#pb4c868f0c8)" style="fill: none; stroke: #ffffff; stroke-width: 0.8; stroke-linecap: round"/>
     </g>
     <g id="text_2">
      <!-- −2 -->
      <g style="fill: #262626" transform="translate(165.52831 321.741812) scale(0.1 -0.1)">
       <defs>
        <path id="ArialMT-32" d="M 3222 541 
L 3222 0 
L 194 0 
Q 188 203 259 391 
Q 375 700 629 1000 
Q 884 1300 1366 1694 
Q 2113 2306 2375 2664 
Q 2638 3022 2638 3341 
Q 2638 3675 2398 3904 
Q 2159 4134 1775 4134 
Q 1369 4134 1125 3890 
Q 881 3647 878 3216 
L 300 3275 
Q 359 3922 746 4261 
Q 1134 4600 1788 4600 
Q 2447 4600 2831 4234 
Q 3216 3869 3216 3328 
Q 3216 3053 3103 2787 
Q 2991 2522 2730 2228 
Q 2469 1934 1863 1422 
Q 1356 997 1212 845 
Q 1069 694 975 541 
L 3222 541 
z
" transform="scale(0.015625)"/>
       </defs>
       <use xlink:href="#ArialMT-2212"/>
       <use xlink:href="#ArialMT-32" transform="translate(58.398438 0)"/>
      </g>
     </g>
    </g>
    <g id="xtick_3">
     <g id="line2d_3">
      <path d="M 236.16 307.584 
L 236.16 41.472 
" clip-path="url(#pb4c868f0c8)" style="fill: none; stroke: #ffffff; stroke-width: 0.8; stroke-linecap: round"/>
     </g>
     <g id="text_3">
      <!-- 0 -->
      <g style="fill: #262626" transform="translate(233.379531 321.741812) scale(0.1 -0.1)">
       <defs>
        <path id="ArialMT-30" d="M 266 2259 
Q 266 3072 433 3567 
Q 600 4063 929 4331 
Q 1259 4600 1759 4600 
Q 2128 4600 2406 4451 
Q 2684 4303 2865 4023 
Q 3047 3744 3150 3342 
Q 3253 2941 3253 2259 
Q 3253 1453 3087 958 
Q 2922 463 2592 192 
Q 2263 -78 1759 -78 
Q 1097 -78 719 397 
Q 266 969 266 2259 
z
M 844 2259 
Q 844 1131 1108 757 
Q 1372 384 1759 384 
Q 2147 384 2411 759 
Q 2675 1134 2675 2259 
Q 2675 3391 2411 3762 
Q 2147 4134 1753 4134 
Q 1366 4134 1134 3806 
Q 844 3388 844 2259 
z
" transform="scale(0.015625)"/>
       </defs>
       <use xlink:href="#ArialMT-30"/>
      </g>
     </g>
    </g>
    <g id="xtick_4">
     <g id="line2d_4">
      <path d="M 301.090909 307.584 
L 301.090909 41.472 
" clip-path="url(#pb4c868f0c8)" style="fill: none; stroke: #ffffff; stroke-width: 0.8; stroke-linecap: round"/>
     </g>
     <g id="text_4">
      <!-- 2 -->
      <g style="fill: #262626" transform="translate(298.31044 321.741812) scale(0.1 -0.1)">
       <use xlink:href="#ArialMT-32"/>
      </g>
     </g>
    </g>
    <g id="xtick_5">
     <g id="line2d_5">
      <path d="M 366.021818 307.584 
L 366.021818 41.472 
" clip-path="url(#pb4c868f0c8)" style="fill: none; stroke: #ffffff; stroke-width: 0.8; stroke-linecap: round"/>
     </g>
     <g id="text_5">
      <!-- 4 -->
      <g style="fill: #262626" transform="translate(363.241349 321.741812) scale(0.1 -0.1)">
       <use xlink:href="#ArialMT-34"/>
      </g>
     </g>
    </g>
    <g id="text_6">
     <!-- x -->
     <g style="fill: #262626" transform="translate(233.66 334.887125) scale(0.1 -0.1)">
      <defs>
       <path id="ArialMT-78" d="M 47 0 
L 1259 1725 
L 138 3319 
L 841 3319 
L 1350 2541 
Q 1494 2319 1581 2169 
Q 1719 2375 1834 2534 
L 2394 3319 
L 3066 3319 
L 1919 1756 
L 3153 0 
L 2463 0 
L 1781 1031 
L 1600 1309 
L 728 0 
L 47 0 
z
" transform="scale(0.015625)"/>
      </defs>
      <use xlink:href="#ArialMT-78"/>
     </g>
    </g>
   </g>
   <g id="matplotlib.axis_2">
    <g id="ytick_1">
     <g id="line2d_6">
      <path d="M 57.6 263.857234 
L 414.72 263.857234 
" clip-path="url(#pb4c868f0c8)" style="fill: none; stroke: #ffffff; stroke-width: 0.8; stroke-linecap: round"/>
     </g>
     <g id="text_7">
      <!-- 1 -->
      <g style="fill: #262626" transform="translate(45.039062 267.436141) scale(0.1 -0.1)">
       <defs>
        <path id="ArialMT-31" d="M 2384 0 
L 1822 0 
L 1822 3584 
Q 1619 3391 1289 3197 
Q 959 3003 697 2906 
L 697 3450 
Q 1169 3672 1522 3987 
Q 1875 4303 2022 4600 
L 2384 4600 
L 2384 0 
z
" transform="scale(0.015625)"/>
       </defs>
       <use xlink:href="#ArialMT-31"/>
      </g>
     </g>
    </g>
    <g id="ytick_2">
     <g id="line2d_7">
      <path d="M 57.6 211.30754 
L 414.72 211.30754 
" clip-path="url(#pb4c868f0c8)" style="fill: none; stroke: #ffffff; stroke-width: 0.8; stroke-linecap: round"/>
     </g>
     <g id="text_8">
      <!-- 2 -->
      <g style="fill: #262626" transform="translate(45.039062 214.886447) scale(0.1 -0.1)">
       <use xlink:href="#ArialMT-32"/>
      </g>
     </g>
    </g>
    <g id="ytick_3">
     <g id="line2d_8">
      <path d="M 57.6 158.757846 
L 414.72 158.757846 
" clip-path="url(#pb4c868f0c8)" style="fill: none; stroke: #ffffff; stroke-width: 0.8; stroke-linecap: round"/>
     </g>
     <g id="text_9">
      <!-- 3 -->
      <g style="fill: #262626" transform="translate(45.039062 162.336753) scale(0.1 -0.1)">
       <defs>
        <path id="ArialMT-33" d="M 269 1209 
L 831 1284 
Q 928 806 1161 595 
Q 1394 384 1728 384 
Q 2125 384 2398 659 
Q 2672 934 2672 1341 
Q 2672 1728 2419 1979 
Q 2166 2231 1775 2231 
Q 1616 2231 1378 2169 
L 1441 2663 
Q 1497 2656 1531 2656 
Q 1891 2656 2178 2843 
Q 2466 3031 2466 3422 
Q 2466 3731 2256 3934 
Q 2047 4138 1716 4138 
Q 1388 4138 1169 3931 
Q 950 3725 888 3313 
L 325 3413 
Q 428 3978 793 4289 
Q 1159 4600 1703 4600 
Q 2078 4600 2393 4439 
Q 2709 4278 2876 4000 
Q 3044 3722 3044 3409 
Q 3044 3113 2884 2869 
Q 2725 2625 2413 2481 
Q 2819 2388 3044 2092 
Q 3269 1797 3269 1353 
Q 3269 753 2831 336 
Q 2394 -81 1725 -81 
Q 1122 -81 723 278 
Q 325 638 269 1209 
z
" transform="scale(0.015625)"/>
       </defs>
       <use xlink:href="#ArialMT-33"/>
      </g>
     </g>
    </g>
    <g id="ytick_4">
     <g id="line2d_9">
      <path d="M 57.6 106.208152 
L 414.72 106.208152 
" clip-path="url(#pb4c868f0c8)" style="fill: none; stroke: #ffffff; stroke-width: 0.8; stroke-linecap: round"/>
     </g>
     <g id="text_10">
      <!-- 4 -->
      <g style="fill: #262626" transform="translate(45.039062 109.787058) scale(0.1 -0.1)">
       <use xlink:href="#ArialMT-34"/>
      </g>
     </g>
    </g>
    <g id="ytick_5">
     <g id="line2d_10">
      <path d="M 57.6 53.658458 
L 414.72 53.658458 
" clip-path="url(#pb4c868f0c8)" style="fill: none; stroke: #ffffff; stroke-width: 0.8; stroke-linecap: round"/>
     </g>
     <g id="text_11">
      <!-- 5 -->
      <g style="fill: #262626" transform="translate(45.039062 57.237364) scale(0.1 -0.1)">
       <defs>
        <path id="ArialMT-35" d="M 266 1200 
L 856 1250 
Q 922 819 1161 601 
Q 1400 384 1738 384 
Q 2144 384 2425 690 
Q 2706 997 2706 1503 
Q 2706 1984 2436 2262 
Q 2166 2541 1728 2541 
Q 1456 2541 1237 2417 
Q 1019 2294 894 2097 
L 366 2166 
L 809 4519 
L 3088 4519 
L 3088 3981 
L 1259 3981 
L 1013 2750 
Q 1425 3038 1878 3038 
Q 2478 3038 2890 2622 
Q 3303 2206 3303 1553 
Q 3303 931 2941 478 
Q 2500 -78 1738 -78 
Q 1113 -78 717 272 
Q 322 622 266 1200 
z
" transform="scale(0.015625)"/>
       </defs>
       <use xlink:href="#ArialMT-35"/>
      </g>
     </g>
    </g>
    <g id="text_12">
     <!-- $\mathcal{W}(\delta_x P_{\sigma}, \pi)$ -->
     <g style="fill: #262626" transform="translate(39.051562 199.428) rotate(-90) scale(0.1 -0.1)">
      <defs>
       <path id="STIXNonUnicode-Italic-e243" d="M 4634 736 
L 4672 717 
Q 4742 794 4931 1008 
Q 5120 1222 5248 1369 
Q 5376 1517 5545 1757 
Q 5715 1997 5837 2234 
Q 6131 2803 6131 3245 
Q 6131 3936 5741 3936 
Q 5696 3936 5661 3885 
Q 5626 3834 5606 3776 
Q 5587 3718 5529 3667 
Q 5472 3616 5382 3616 
Q 5229 3616 5145 3715 
Q 5062 3814 5062 3962 
Q 5062 4173 5209 4278 
Q 5357 4384 5594 4384 
Q 5965 4384 6176 4073 
Q 6387 3763 6387 3290 
Q 6387 2906 6236 2506 
Q 6086 2106 5814 1718 
Q 5542 1331 5289 1027 
Q 5037 723 4697 352 
Q 4358 -19 4211 -205 
L 4045 -205 
L 4045 230 
Q 4045 1306 3936 2099 
Q 3827 2893 3475 3373 
L 3430 3373 
L 1363 -205 
L 1171 -205 
Q 1459 1581 1459 2624 
Q 1459 4006 602 4006 
Q 448 4006 307 3891 
L 211 4013 
Q 486 4237 915 4237 
Q 1184 4237 1389 4157 
Q 1594 4077 1722 3923 
Q 1850 3770 1933 3590 
Q 2016 3411 2054 3155 
Q 2093 2899 2105 2684 
Q 2118 2470 2118 2182 
Q 2118 1920 2099 1658 
L 2138 1658 
L 3398 3846 
L 3686 4160 
Q 4077 3738 4365 2950 
Q 4653 2163 4653 1395 
Q 4653 966 4634 736 
z
" transform="scale(0.015625)"/>
       <path id="DejaVuSans-28" d="M 1984 4856 
Q 1566 4138 1362 3434 
Q 1159 2731 1159 2009 
Q 1159 1288 1364 580 
Q 1569 -128 1984 -844 
L 1484 -844 
Q 1016 -109 783 600 
Q 550 1309 550 2009 
Q 550 2706 781 3412 
Q 1013 4119 1484 4856 
L 1984 4856 
z
" transform="scale(0.015625)"/>
       <path id="DejaVuSans-Oblique-3b4" d="M 3472 4053 
Q 3197 4272 2450 4272 
Q 1659 4272 1588 3906 
Q 1531 3619 2328 3469 
Q 2953 3353 3253 3003 
Q 3616 2581 3447 1716 
Q 3284 888 2763 400 
Q 2238 -91 1488 -91 
Q 741 -91 406 400 
Q 72 888 241 1747 
Q 363 2384 891 2900 
Q 1097 3100 1353 3213 
Q 913 3459 1000 3900 
Q 1166 4750 2544 4750 
Q 3234 4750 3566 4531 
L 3472 4053 
z
M 1753 3056 
Q 1525 2966 1306 2738 
Q 969 2384 847 1747 
Q 722 1113 919 756 
Q 1119 397 1584 397 
Q 2044 397 2381 759 
Q 2722 1122 2838 1716 
Q 2956 2338 2731 2638 
Q 2491 2959 2103 2994 
Q 1906 3013 1753 3056 
z
" transform="scale(0.015625)"/>
       <path id="DejaVuSans-Oblique-78" d="M 3841 3500 
L 2234 1784 
L 3219 0 
L 2559 0 
L 1819 1388 
L 531 0 
L -166 0 
L 1556 1844 
L 641 3500 
L 1300 3500 
L 1972 2234 
L 3144 3500 
L 3841 3500 
z
" transform="scale(0.015625)"/>
       <path id="DejaVuSans-Oblique-50" d="M 1081 4666 
L 2541 4666 
Q 3178 4666 3512 4369 
Q 3847 4072 3847 3500 
Q 3847 2731 3353 2303 
Q 2859 1875 1966 1875 
L 1172 1875 
L 806 0 
L 172 0 
L 1081 4666 
z
M 1613 4147 
L 1275 2394 
L 2069 2394 
Q 2606 2394 2893 2669 
Q 3181 2944 3181 3456 
Q 3181 3784 2986 3965 
Q 2791 4147 2438 4147 
L 1613 4147 
z
" transform="scale(0.015625)"/>
       <path id="DejaVuSans-Oblique-3c3" d="M 2219 3044 
Q 1744 3044 1422 2700 
Q 1081 2341 969 1747 
Q 844 1119 1044 756 
Q 1241 397 1706 397 
Q 2166 397 2503 759 
Q 2844 1122 2966 1747 
Q 3075 2319 2881 2700 
Q 2700 3044 2219 3044 
z
M 2309 3503 
L 4219 3500 
L 4106 2925 
L 3463 2925 
Q 3706 2438 3575 1747 
Q 3406 888 2884 400 
Q 2359 -91 1609 -91 
Q 856 -91 525 400 
Q 194 888 363 1747 
Q 528 2609 1050 3097 
Q 1484 3503 2309 3503 
z
" transform="scale(0.015625)"/>
       <path id="DejaVuSans-2c" d="M 750 794 
L 1409 794 
L 1409 256 
L 897 -744 
L 494 -744 
L 750 256 
L 750 794 
z
" transform="scale(0.015625)"/>
       <path id="DejaVuSans-Oblique-3c0" d="M 584 3500 
L 3938 3500 
L 3825 2925 
L 3384 2925 
L 2966 775 
Q 2922 550 2981 450 
Q 3038 353 3209 353 
Q 3256 353 3325 363 
Q 3397 369 3419 372 
L 3338 -44 
Q 3222 -84 3103 -103 
Q 2981 -122 2866 -122 
Q 2491 -122 2388 81 
Q 2284 288 2391 838 
L 2797 2925 
L 1506 2925 
L 938 0 
L 350 0 
L 919 2925 
L 472 2925 
L 584 3500 
z
" transform="scale(0.015625)"/>
       <path id="DejaVuSans-29" d="M 513 4856 
L 1013 4856 
Q 1481 4119 1714 3412 
Q 1947 2706 1947 2009 
Q 1947 1309 1714 600 
Q 1481 -109 1013 -844 
L 513 -844 
Q 928 -128 1133 580 
Q 1338 1288 1338 2009 
Q 1338 2731 1133 3434 
Q 928 4138 513 4856 
z
" transform="scale(0.015625)"/>
      </defs>
      <use xlink:href="#STIXNonUnicode-Italic-e243" transform="translate(0 0.125)"/>
      <use xlink:href="#DejaVuSans-28" transform="translate(95.599991 0.125)"/>
      <use xlink:href="#DejaVuSans-Oblique-3b4" transform="translate(134.613663 0.125)"/>
      <use xlink:href="#DejaVuSans-Oblique-78" transform="translate(195.795303 -16.28125) scale(0.7)"/>
      <use xlink:href="#DejaVuSans-Oblique-50" transform="translate(239.95546 0.125)"/>
      <use xlink:href="#DejaVuSans-Oblique-3c3" transform="translate(300.258194 -16.28125) scale(0.7)"/>
      <use xlink:href="#DejaVuSans-2c" transform="translate(347.357803 0.125)"/>
      <use xlink:href="#DejaVuSans-Oblique-3c0" transform="translate(398.627335 0.125)"/>
      <use xlink:href="#DejaVuSans-29" transform="translate(458.832413 0.125)"/>
     </g>
    </g>
   </g>
   <g id="line2d_11">
    <path d="M 73.832727 53.748941 
L 77.112073 59.056953 
L 80.391404 64.365039 
L 83.670734 69.673051 
L 86.95008 74.981137 
L 90.229426 80.289199 
L 93.508757 85.597235 
L 96.788103 90.905272 
L 100.067434 96.213208 
L 103.34678 101.521144 
L 106.62611 106.829006 
L 109.905456 112.136729 
L 113.184795 117.444364 
L 116.464133 122.75185 
L 119.743479 128.059009 
L 123.022809 133.365743 
L 126.302148 138.671799 
L 129.581486 143.97624 
L 132.860824 149.279052 
L 136.140163 154.579546 
L 139.419493 159.876457 
L 142.698847 165.168319 
L 145.978178 170.45334 
L 149.257516 175.729065 
L 152.536862 180.991922 
L 155.816192 186.238793 
L 159.095538 191.464102 
L 162.374869 196.663839 
L 165.654215 201.829686 
L 168.933553 206.957057 
L 172.212892 212.030973 
L 175.492234 217.040755 
L 178.771564 221.974361 
L 182.050914 226.815079 
L 185.330245 231.546157 
L 188.609583 236.153325 
L 191.888925 240.612139 
L 195.168256 244.90281 
L 198.447606 248.999522 
L 201.726936 252.879598 
L 205.006277 256.515714 
L 208.285621 259.878368 
L 211.564957 262.957189 
L 214.844301 265.717295 
L 218.123628 268.13019 
L 221.402982 270.180892 
L 224.682308 271.847445 
L 227.961652 273.102394 
L 231.240996 273.94362 
L 234.520323 274.362083 
L 237.799667 274.348245 
L 241.079004 273.909357 
L 244.358348 273.054196 
L 247.637684 271.783369 
L 250.917028 270.109424 
L 254.196364 268.056357 
L 257.475699 265.636838 
L 260.755035 262.876409 
L 264.034379 259.800414 
L 267.313716 256.424328 
L 270.59306 252.775521 
L 273.872394 248.879446 
L 277.151733 244.766402 
L 280.431067 240.464963 
L 283.710409 235.995136 
L 286.989755 231.377669 
L 290.269093 226.634094 
L 293.548424 221.783535 
L 296.827762 216.842825 
L 300.107108 211.824498 
L 303.386439 206.744042 
L 306.665785 201.614541 
L 309.945123 196.446151 
L 313.224462 191.246714 
L 316.503792 186.022759 
L 319.783138 180.778957 
L 323.062476 175.518806 
L 326.341815 170.247416 
L 329.621153 164.967494 
L 332.900491 159.679968 
L 336.179822 154.386665 
L 339.459168 149.089328 
L 342.738514 143.789248 
L 346.01786 138.48626 
L 349.297191 133.181732 
L 352.576521 127.876214 
L 355.855867 122.569618 
L 359.135213 117.262433 
L 362.414536 111.955136 
L 365.693882 106.647638 
L 368.97322 101.339902 
L 372.252566 96.032016 
L 375.531881 90.724155 
L 378.811227 85.416194 
L 382.090574 80.108233 
L 385.36992 74.800221 
L 388.649266 69.492109 
L 391.928581 64.184123 
L 395.207927 58.876087 
L 398.487273 53.568 
" clip-path="url(#pb4c868f0c8)" style="fill: none; stroke-dasharray: 5.55,2.4; stroke-dashoffset: 0; stroke: #808080; stroke-width: 1.5"/>
   </g>
   <g id="line2d_12">
    <path d="M 73.832727 63.076124 
L 77.112073 68.411223 
L 80.391404 73.650351 
L 83.670734 78.961795 
L 86.95008 84.148653 
L 90.229426 89.491043 
L 93.508757 94.80795 
L 96.788103 99.933166 
L 100.067434 105.267839 
L 103.34678 110.525422 
L 106.62611 115.796699 
L 109.905456 121.100513 
L 113.184795 126.366265 
L 116.464133 131.461311 
L 119.743479 136.786374 
L 123.022809 142.014013 
L 126.302148 147.247892 
L 129.581486 152.484339 
L 132.860824 157.812584 
L 136.140163 162.957082 
L 139.419493 168.251249 
L 142.698847 173.536896 
L 145.978178 178.587328 
L 149.257516 184.039471 
L 152.536862 189.064957 
L 155.816192 194.409302 
L 159.095538 199.542599 
L 162.374869 204.70579 
L 165.654215 209.961168 
L 168.933553 215.14542 
L 172.212892 220.215095 
L 175.492234 225.21684 
L 178.771564 230.622945 
L 182.050914 235.674805 
L 185.330245 240.807695 
L 188.609583 245.737204 
L 191.888925 250.650808 
L 195.168256 255.459377 
L 198.447606 260.242945 
L 201.726936 264.799646 
L 205.006277 269.144949 
L 208.285621 273.3766 
L 211.564957 277.264554 
L 214.844301 280.793156 
L 218.123628 283.88485 
L 221.402982 286.526333 
L 224.682308 288.577201 
L 227.961652 289.930013 
L 231.240996 290.783764 
L 234.520323 291.108287 
L 237.799667 291.167747 
L 241.079004 290.754275 
L 244.358348 289.918208 
L 247.637684 288.497317 
L 250.917028 286.4672 
L 254.196364 283.841654 
L 257.475699 280.678549 
L 260.755035 277.115317 
L 264.034379 273.347032 
L 267.313716 269.029455 
L 270.59306 264.548556 
L 273.872394 260.030036 
L 277.151733 255.301282 
L 280.431067 250.369987 
L 283.710409 245.545382 
L 286.989755 240.415862 
L 290.269093 235.394128 
L 293.548424 230.319491 
L 296.827762 225.179742 
L 300.107108 220.005895 
L 303.386439 214.808463 
L 306.665785 209.657682 
L 309.945123 204.543003 
L 313.224462 199.293677 
L 316.503792 194.192065 
L 319.783138 189.001662 
L 323.062476 183.624566 
L 326.341815 178.488951 
L 329.621153 173.302156 
L 332.900491 168.062903 
L 336.179822 162.791839 
L 339.459168 157.604944 
L 342.738514 152.374962 
L 346.01786 147.089966 
L 349.297191 141.875457 
L 352.576521 136.653694 
L 355.855867 131.438509 
L 359.135213 126.103147 
L 362.414536 120.802991 
L 365.693882 115.598079 
L 368.97322 110.347675 
L 372.252566 105.041318 
L 375.531881 99.900792 
L 378.811227 94.519737 
L 382.090574 89.330349 
L 385.36992 83.967511 
L 388.649266 78.715428 
L 391.928581 73.399273 
L 395.207927 68.174077 
L 398.487273 62.885661 
" clip-path="url(#pb4c868f0c8)" style="fill: none; stroke: #ffa500; stroke-width: 1.5; stroke-linecap: round"/>
   </g>
   <g id="line2d_13">
    <path d="M 73.832727 73.92601 
L 77.112073 79.406167 
L 80.391404 84.618784 
L 83.670734 89.94376 
L 86.95008 95.092229 
L 90.229426 100.466268 
L 93.508757 105.836522 
L 96.788103 110.86702 
L 100.067434 116.279647 
L 103.34678 121.509479 
L 106.62611 126.872304 
L 109.905456 132.226572 
L 113.184795 137.426948 
L 116.464133 142.430497 
L 119.743479 147.810749 
L 123.022809 153.044227 
L 126.302148 158.283543 
L 129.581486 163.509553 
L 132.860824 169.009569 
L 136.140163 174.029179 
L 139.419493 179.440227 
L 142.698847 184.75964 
L 145.978178 189.589251 
L 149.257516 195.267401 
L 152.536862 200.169855 
L 155.816192 205.586316 
L 159.095538 210.704252 
L 162.374869 215.859036 
L 165.654215 221.202517 
L 168.933553 226.351068 
L 172.212892 231.3776 
L 175.492234 236.234079 
L 178.771564 241.781241 
L 182.050914 246.913686 
L 185.330245 252.094342 
L 188.609583 257.000172 
L 191.888925 261.877229 
L 195.168256 266.627505 
L 198.447606 271.409966 
L 201.726936 275.877491 
L 205.006277 279.876197 
L 208.285621 283.754024 
L 211.564957 287.104751 
L 214.844301 289.437709 
L 218.123628 291.433457 
L 221.402982 292.878013 
L 224.682308 293.907465 
L 227.961652 294.68289 
L 231.240996 295.047889 
L 234.520323 295.343754 
L 237.799667 295.488 
L 241.079004 295.154874 
L 244.358348 294.612436 
L 247.637684 293.842331 
L 250.917028 292.813997 
L 254.196364 291.267196 
L 257.475699 289.404664 
L 260.755035 286.945341 
L 264.034379 283.909416 
L 267.313716 279.739297 
L 270.59306 275.548713 
L 273.872394 271.193243 
L 277.151733 266.44688 
L 280.431067 261.540605 
L 283.710409 256.778449 
L 286.989755 251.585935 
L 290.269093 246.607275 
L 293.548424 241.496843 
L 296.827762 236.306007 
L 300.107108 231.128628 
L 303.386439 225.942403 
L 306.665785 220.793745 
L 309.945123 215.664495 
L 313.224462 210.408735 
L 316.503792 205.369655 
L 319.783138 200.211325 
L 323.062476 194.726607 
L 326.341815 189.566787 
L 329.621153 184.43587 
L 332.900491 179.147391 
L 336.179822 173.887992 
L 339.459168 168.794135 
L 342.738514 163.503552 
L 346.01786 158.141378 
L 349.297191 152.973314 
L 352.576521 147.75363 
L 355.855867 142.535137 
L 359.135213 137.10046 
L 362.414536 131.792561 
L 365.693882 126.613133 
L 368.97322 121.394176 
L 372.252566 115.98289 
L 375.531881 110.910157 
L 378.811227 105.499046 
L 382.090574 100.334164 
L 385.36992 94.905951 
L 388.649266 89.610869 
L 391.928581 84.285067 
L 395.207927 79.078413 
L 398.487273 73.803253 
" clip-path="url(#pb4c868f0c8)" style="fill: none; stroke: #0000ff; stroke-width: 1.5; stroke-linecap: round"/>
   </g>
   <g id="line2d_14">
    <path d="M 73.832727 136.083056 
L 77.112073 141.05948 
L 80.391404 144.613719 
L 83.670734 148.466796 
L 86.95008 153.210635 
L 90.229426 156.663891 
L 93.508757 160.762934 
L 96.788103 164.390342 
L 100.067434 168.871576 
L 103.34678 172.661483 
L 106.62611 176.474292 
L 109.905456 180.546297 
L 113.184795 183.54363 
L 116.464133 187.231239 
L 119.743479 190.837335 
L 123.022809 194.407649 
L 126.302148 198.222199 
L 129.581486 202.055844 
L 132.860824 205.626007 
L 136.140163 208.596015 
L 139.419493 212.325758 
L 142.698847 216.05121 
L 145.978178 219.244732 
L 149.257516 222.557691 
L 152.536862 225.797018 
L 155.816192 229.577265 
L 159.095538 233.070426 
L 162.374869 236.088025 
L 165.654215 239.282874 
L 168.933553 242.637185 
L 172.212892 245.512663 
L 175.492234 248.663349 
L 178.771564 251.461655 
L 182.050914 254.211318 
L 185.330245 256.866044 
L 188.609583 259.703742 
L 191.888925 261.950016 
L 195.168256 264.432849 
L 198.447606 267.215639 
L 201.726936 269.152197 
L 205.006277 271.453827 
L 208.285621 273.503069 
L 211.564957 275.324152 
L 214.844301 276.984165 
L 218.123628 278.496999 
L 221.402982 279.910616 
L 224.682308 280.95718 
L 227.961652 281.508442 
L 231.240996 282.071779 
L 234.520323 282.48274 
L 237.799667 282.445604 
L 241.079004 282.181375 
L 244.358348 281.582989 
L 247.637684 280.791831 
L 250.917028 279.835672 
L 254.196364 278.48302 
L 257.475699 277.034982 
L 260.755035 275.351631 
L 264.034379 273.407095 
L 267.313716 271.18514 
L 270.59306 269.025684 
L 273.872394 266.817488 
L 277.151733 264.388184 
L 280.431067 262.144319 
L 283.710409 259.061439 
L 286.989755 256.492748 
L 290.269093 254.124682 
L 293.548424 251.252298 
L 296.827762 248.30768 
L 300.107108 245.318002 
L 303.386439 242.399532 
L 306.665785 238.878168 
L 309.945123 235.79532 
L 313.224462 232.792042 
L 316.503792 228.847079 
L 319.783138 225.79559 
L 323.062476 222.37249 
L 326.341815 218.913156 
L 329.621153 215.865457 
L 332.900491 211.900141 
L 336.179822 208.373804 
L 339.459168 205.120908 
L 342.738514 201.575764 
L 346.01786 198.151562 
L 349.297191 194.439321 
L 352.576521 190.949869 
L 355.855867 187.473258 
L 359.135213 183.629553 
L 362.414536 179.794969 
L 365.693882 176.135199 
L 368.97322 172.31065 
L 372.252566 168.954993 
L 375.531881 164.472318 
L 378.811227 160.363503 
L 382.090574 157.199486 
L 385.36992 152.892666 
L 388.649266 148.637439 
L 391.928581 144.47371 
L 395.207927 140.571808 
L 398.487273 136.446004 
" clip-path="url(#pb4c868f0c8)" style="fill: none; stroke: #ff0000; stroke-width: 1.5; stroke-linecap: round"/>
   </g>
   <g id="patch_3">
    <path d="M 57.6 307.584 
L 57.6 41.472 
" style="fill: none; stroke: #ffffff; stroke-width: 0.8; stroke-linejoin: miter; stroke-linecap: square"/>
   </g>
   <g id="patch_4">
    <path d="M 414.72 307.584 
L 414.72 41.472 
" style="fill: none; stroke: #ffffff; stroke-width: 0.8; stroke-linejoin: miter; stroke-linecap: square"/>
   </g>
   <g id="patch_5">
    <path d="M 57.6 307.584 
L 414.72 307.584 
" style="fill: none; stroke: #ffffff; stroke-width: 0.8; stroke-linejoin: miter; stroke-linecap: square"/>
   </g>
   <g id="patch_6">
    <path d="M 57.6 41.472 
L 414.72 41.472 
" style="fill: none; stroke: #ffffff; stroke-width: 0.8; stroke-linejoin: miter; stroke-linecap: square"/>
   </g>
   <g id="legend_1">
    <g id="patch_7">
     <path d="M 325.7075 302.584 
L 407.72 302.584 
Q 409.72 302.584 409.72 300.584 
L 409.72 244.885562 
Q 409.72 242.885562 407.72 242.885562 
L 325.7075 242.885562 
Q 323.7075 242.885562 323.7075 244.885562 
L 323.7075 300.584 
Q 323.7075 302.584 325.7075 302.584 
z
" style="fill: #eaeaf2; opacity: 0.8; stroke: #cccccc; stroke-linejoin: miter"/>
    </g>
    <g id="line2d_15">
     <path d="M 327.7075 250.543375 
L 337.7075 250.543375 
L 347.7075 250.543375 
" style="fill: none; stroke-dasharray: 5.55,2.4; stroke-dashoffset: 0; stroke: #808080; stroke-width: 1.5"/>
    </g>
    <g id="text_13">
     <!-- eccentricity -->
     <g style="fill: #262626" transform="translate(355.7075 254.043375) scale(0.1 -0.1)">
      <defs>
       <path id="ArialMT-65" d="M 2694 1069 
L 3275 997 
Q 3138 488 2766 206 
Q 2394 -75 1816 -75 
Q 1088 -75 661 373 
Q 234 822 234 1631 
Q 234 2469 665 2931 
Q 1097 3394 1784 3394 
Q 2450 3394 2872 2941 
Q 3294 2488 3294 1666 
Q 3294 1616 3291 1516 
L 816 1516 
Q 847 969 1125 678 
Q 1403 388 1819 388 
Q 2128 388 2347 550 
Q 2566 713 2694 1069 
z
M 847 1978 
L 2700 1978 
Q 2663 2397 2488 2606 
Q 2219 2931 1791 2931 
Q 1403 2931 1139 2672 
Q 875 2413 847 1978 
z
" transform="scale(0.015625)"/>
       <path id="ArialMT-63" d="M 2588 1216 
L 3141 1144 
Q 3050 572 2676 248 
Q 2303 -75 1759 -75 
Q 1078 -75 664 370 
Q 250 816 250 1647 
Q 250 2184 428 2587 
Q 606 2991 970 3192 
Q 1334 3394 1763 3394 
Q 2303 3394 2647 3120 
Q 2991 2847 3088 2344 
L 2541 2259 
Q 2463 2594 2264 2762 
Q 2066 2931 1784 2931 
Q 1359 2931 1093 2626 
Q 828 2322 828 1663 
Q 828 994 1084 691 
Q 1341 388 1753 388 
Q 2084 388 2306 591 
Q 2528 794 2588 1216 
z
" transform="scale(0.015625)"/>
       <path id="ArialMT-6e" d="M 422 0 
L 422 3319 
L 928 3319 
L 928 2847 
Q 1294 3394 1984 3394 
Q 2284 3394 2536 3286 
Q 2788 3178 2913 3003 
Q 3038 2828 3088 2588 
Q 3119 2431 3119 2041 
L 3119 0 
L 2556 0 
L 2556 2019 
Q 2556 2363 2490 2533 
Q 2425 2703 2258 2804 
Q 2091 2906 1866 2906 
Q 1506 2906 1245 2678 
Q 984 2450 984 1813 
L 984 0 
L 422 0 
z
" transform="scale(0.015625)"/>
       <path id="ArialMT-74" d="M 1650 503 
L 1731 6 
Q 1494 -44 1306 -44 
Q 1000 -44 831 53 
Q 663 150 594 308 
Q 525 466 525 972 
L 525 2881 
L 113 2881 
L 113 3319 
L 525 3319 
L 525 4141 
L 1084 4478 
L 1084 3319 
L 1650 3319 
L 1650 2881 
L 1084 2881 
L 1084 941 
Q 1084 700 1114 631 
Q 1144 563 1211 522 
Q 1278 481 1403 481 
Q 1497 481 1650 503 
z
" transform="scale(0.015625)"/>
       <path id="ArialMT-72" d="M 416 0 
L 416 3319 
L 922 3319 
L 922 2816 
Q 1116 3169 1280 3281 
Q 1444 3394 1641 3394 
Q 1925 3394 2219 3213 
L 2025 2691 
Q 1819 2813 1613 2813 
Q 1428 2813 1281 2702 
Q 1134 2591 1072 2394 
Q 978 2094 978 1738 
L 978 0 
L 416 0 
z
" transform="scale(0.015625)"/>
       <path id="ArialMT-69" d="M 425 3934 
L 425 4581 
L 988 4581 
L 988 3934 
L 425 3934 
z
M 425 0 
L 425 3319 
L 988 3319 
L 988 0 
L 425 0 
z
" transform="scale(0.015625)"/>
       <path id="ArialMT-79" d="M 397 -1278 
L 334 -750 
Q 519 -800 656 -800 
Q 844 -800 956 -737 
Q 1069 -675 1141 -563 
Q 1194 -478 1313 -144 
Q 1328 -97 1363 -6 
L 103 3319 
L 709 3319 
L 1400 1397 
Q 1534 1031 1641 628 
Q 1738 1016 1872 1384 
L 2581 3319 
L 3144 3319 
L 1881 -56 
Q 1678 -603 1566 -809 
Q 1416 -1088 1222 -1217 
Q 1028 -1347 759 -1347 
Q 597 -1347 397 -1278 
z
" transform="scale(0.015625)"/>
      </defs>
      <use xlink:href="#ArialMT-65"/>
      <use xlink:href="#ArialMT-63" transform="translate(55.615234 0)"/>
      <use xlink:href="#ArialMT-63" transform="translate(105.615234 0)"/>
      <use xlink:href="#ArialMT-65" transform="translate(155.615234 0)"/>
      <use xlink:href="#ArialMT-6e" transform="translate(211.230469 0)"/>
      <use xlink:href="#ArialMT-74" transform="translate(266.845703 0)"/>
      <use xlink:href="#ArialMT-72" transform="translate(294.628906 0)"/>
      <use xlink:href="#ArialMT-69" transform="translate(327.929688 0)"/>
      <use xlink:href="#ArialMT-63" transform="translate(350.146484 0)"/>
      <use xlink:href="#ArialMT-69" transform="translate(400.146484 0)"/>
      <use xlink:href="#ArialMT-74" transform="translate(422.363281 0)"/>
      <use xlink:href="#ArialMT-79" transform="translate(450.146484 0)"/>
     </g>
    </g>
    <g id="line2d_16">
     <path d="M 327.7075 264.805875 
L 337.7075 264.805875 
L 347.7075 264.805875 
" style="fill: none; stroke: #ffa500; stroke-width: 1.5; stroke-linecap: round"/>
    </g>
    <g id="text_14">
     <!-- $\sigma = 0.5$ -->
     <g style="fill: #262626" transform="translate(355.7075 268.305875) scale(0.1 -0.1)">
      <defs>
       <path id="DejaVuSans-3d" d="M 678 2906 
L 4684 2906 
L 4684 2381 
L 678 2381 
L 678 2906 
z
M 678 1631 
L 4684 1631 
L 4684 1100 
L 678 1100 
L 678 1631 
z
" transform="scale(0.015625)"/>
       <path id="DejaVuSans-30" d="M 2034 4250 
Q 1547 4250 1301 3770 
Q 1056 3291 1056 2328 
Q 1056 1369 1301 889 
Q 1547 409 2034 409 
Q 2525 409 2770 889 
Q 3016 1369 3016 2328 
Q 3016 3291 2770 3770 
Q 2525 4250 2034 4250 
z
M 2034 4750 
Q 2819 4750 3233 4129 
Q 3647 3509 3647 2328 
Q 3647 1150 3233 529 
Q 2819 -91 2034 -91 
Q 1250 -91 836 529 
Q 422 1150 422 2328 
Q 422 3509 836 4129 
Q 1250 4750 2034 4750 
z
" transform="scale(0.015625)"/>
       <path id="DejaVuSans-2e" d="M 684 794 
L 1344 794 
L 1344 0 
L 684 0 
L 684 794 
z
" transform="scale(0.015625)"/>
       <path id="DejaVuSans-35" d="M 691 4666 
L 3169 4666 
L 3169 4134 
L 1269 4134 
L 1269 2991 
Q 1406 3038 1543 3061 
Q 1681 3084 1819 3084 
Q 2600 3084 3056 2656 
Q 3513 2228 3513 1497 
Q 3513 744 3044 326 
Q 2575 -91 1722 -91 
Q 1428 -91 1123 -41 
Q 819 9 494 109 
L 494 744 
Q 775 591 1075 516 
Q 1375 441 1709 441 
Q 2250 441 2565 725 
Q 2881 1009 2881 1497 
Q 2881 1984 2565 2268 
Q 2250 2553 1709 2553 
Q 1456 2553 1204 2497 
Q 953 2441 691 2322 
L 691 4666 
z
" transform="scale(0.015625)"/>
      </defs>
      <use xlink:href="#DejaVuSans-Oblique-3c3" transform="translate(0 0.78125)"/>
      <use xlink:href="#DejaVuSans-3d" transform="translate(82.861328 0.78125)"/>
      <use xlink:href="#DejaVuSans-30" transform="translate(186.132812 0.78125)"/>
      <use xlink:href="#DejaVuSans-2e" transform="translate(249.755859 0.78125)"/>
      <use xlink:href="#DejaVuSans-35" transform="translate(281.542969 0.78125)"/>
     </g>
    </g>
    <g id="line2d_17">
     <path d="M 327.7075 278.951187 
L 337.7075 278.951187 
L 347.7075 278.951187 
" style="fill: none; stroke: #0000ff; stroke-width: 1.5; stroke-linecap: round"/>
    </g>
    <g id="text_15">
     <!-- $\sigma = 1$ -->
     <g style="fill: #262626" transform="translate(355.7075 282.451187) scale(0.1 -0.1)">
      <defs>
       <path id="DejaVuSans-31" d="M 794 531 
L 1825 531 
L 1825 4091 
L 703 3866 
L 703 4441 
L 1819 4666 
L 2450 4666 
L 2450 531 
L 3481 531 
L 3481 0 
L 794 0 
L 794 531 
z
" transform="scale(0.015625)"/>
      </defs>
      <use xlink:href="#DejaVuSans-Oblique-3c3" transform="translate(0 0.09375)"/>
      <use xlink:href="#DejaVuSans-3d" transform="translate(82.861328 0.09375)"/>
      <use xlink:href="#DejaVuSans-31" transform="translate(186.132812 0.09375)"/>
     </g>
    </g>
    <g id="line2d_18">
     <path d="M 327.7075 293.0965 
L 337.7075 293.0965 
L 347.7075 293.0965 
" style="fill: none; stroke: #ff0000; stroke-width: 1.5; stroke-linecap: round"/>
    </g>
    <g id="text_16">
     <!-- $\sigma = 5$ -->
     <g style="fill: #262626" transform="translate(355.7075 296.5965) scale(0.1 -0.1)">
      <use xlink:href="#DejaVuSans-Oblique-3c3" transform="translate(0 0.09375)"/>
      <use xlink:href="#DejaVuSans-3d" transform="translate(82.861328 0.09375)"/>
      <use xlink:href="#DejaVuSans-35" transform="translate(186.132812 0.09375)"/>
     </g>
    </g>
   </g>
  </g>
 </g>
 <defs>
  <clipPath id="pb4c868f0c8">
   <rect x="57.6" y="41.472" width="357.12" height="266.112"/>
  </clipPath>
 </defs>
</svg>
