<?xml version="1.0" encoding="utf-8" standalone="no"?>
<!DOCTYPE svg PUBLIC "-//W3C//DTD SVG 1.1//EN"
  "http://www.w3.org/Graphics/SVG/1.1/DTD/svg11.dtd">
<svg xmlns:xlink="http://www.w3.org/1999/xlink" width="460.8pt" height="345.6pt" viewBox="0 0 460.8 345.6" xmlns="http://www.w3.org/2000/svg" version="1.1">
 <metadata>
  <rdf:RDF xmlns:dc="http://purl.org/dc/elements/1.1/" xmlns:cc="http://creativecommons.org/ns#" xmlns:rdf="http://www.w3.org/1999/02/22-rdf-syntax-ns#">
   <cc:Work>
    <dc:type rdf:resource="http://purl.org/dc/dcmitype/StillImage"/>
    <dc:date>2025-04-06T14:16:50.548715</dc:date>
    <dc:format>image/svg+xml</dc:format>
    <dc:creator>
     <cc:Agent>
      <dc:title>Matplotlib v3.10.1, https://matplotlib.org/</dc:title>
     </cc:Agent>
    </dc:creator>
   </cc:Work>
  </rdf:RDF>
 </metadata>
 <defs>
  <style type="text/css">*{stroke-linejoin: round; stroke-linecap: butt}</style>
 </defs>
 <g id="figure_1">
  <g id="patch_1">
   <path d="M 0 345.6 
L 460.8 345.6 
L 460.8 0 
L 0 0 
z
" style="fill: #ffffff"/>
  </g>
  <g id="axes_1">
   <g id="patch_2">
    <path d="M 57.6 307.584 
L 414.72 307.584 
L 414.72 41.472 
L 57.6 41.472 
z
" style="fill: #eaeaf2"/>
   </g>
   <g id="matplotlib.axis_1">
    <g id="xtick_1">
     <g id="line2d_1">
      <path d="M 106.626147 307.584 
L 106.626147 41.472 
" clip-path="url(#pe7211e1728)" style="fill: none; stroke: #ffffff; stroke-width: 0.8; stroke-linecap: round"/>
     </g>
     <g id="text_1">
      <!-- −2 -->
      <g style="fill: #262626" transform="translate(100.925366 321.741812) scale(0.1 -0.1)">
       <defs>
        <path id="ArialMT-2212" d="M 3381 1997 
L 356 1997 
L 356 2522 
L 3381 2522 
L 3381 1997 
z
" transform="scale(0.015625)"/>
        <path id="ArialMT-32" d="M 3222 541 
L 3222 0 
L 194 0 
Q 188 203 259 391 
Q 375 700 629 1000 
Q 884 1300 1366 1694 
Q 2113 2306 2375 2664 
Q 2638 3022 2638 3341 
Q 2638 3675 2398 3904 
Q 2159 4134 1775 4134 
Q 1369 4134 1125 3890 
Q 881 3647 878 3216 
L 300 3275 
Q 359 3922 746 4261 
Q 1134 4600 1788 4600 
Q 2447 4600 2831 4234 
Q 3216 3869 3216 3328 
Q 3216 3053 3103 2787 
Q 2991 2522 2730 2228 
Q 2469 1934 1863 1422 
Q 1356 997 1212 845 
Q 1069 694 975 541 
L 3222 541 
z
" transform="scale(0.015625)"/>
       </defs>
       <use xlink:href="#ArialMT-2212"/>
       <use xlink:href="#ArialMT-32" transform="translate(58.398438 0)"/>
      </g>
     </g>
    </g>
    <g id="xtick_2">
     <g id="line2d_2">
      <path d="M 172.212986 307.584 
L 172.212986 41.472 
" clip-path="url(#pe7211e1728)" style="fill: none; stroke: #ffffff; stroke-width: 0.8; stroke-linecap: round"/>
     </g>
     <g id="text_2">
      <!-- −1 -->
      <g style="fill: #262626" transform="translate(166.512205 321.741812) scale(0.1 -0.1)">
       <defs>
        <path id="ArialMT-31" d="M 2384 0 
L 1822 0 
L 1822 3584 
Q 1619 3391 1289 3197 
Q 959 3003 697 2906 
L 697 3450 
Q 1169 3672 1522 3987 
Q 1875 4303 2022 4600 
L 2384 4600 
L 2384 0 
z
" transform="scale(0.015625)"/>
       </defs>
       <use xlink:href="#ArialMT-2212"/>
       <use xlink:href="#ArialMT-31" transform="translate(58.398438 0)"/>
      </g>
     </g>
    </g>
    <g id="xtick_3">
     <g id="line2d_3">
      <path d="M 237.799826 307.584 
L 237.799826 41.472 
" clip-path="url(#pe7211e1728)" style="fill: none; stroke: #ffffff; stroke-width: 0.8; stroke-linecap: round"/>
     </g>
     <g id="text_3">
      <!-- 0 -->
      <g style="fill: #262626" transform="translate(235.019357 321.741812) scale(0.1 -0.1)">
       <defs>
        <path id="ArialMT-30" d="M 266 2259 
Q 266 3072 433 3567 
Q 600 4063 929 4331 
Q 1259 4600 1759 4600 
Q 2128 4600 2406 4451 
Q 2684 4303 2865 4023 
Q 3047 3744 3150 3342 
Q 3253 2941 3253 2259 
Q 3253 1453 3087 958 
Q 2922 463 2592 192 
Q 2263 -78 1759 -78 
Q 1097 -78 719 397 
Q 266 969 266 2259 
z
M 844 2259 
Q 844 1131 1108 757 
Q 1372 384 1759 384 
Q 2147 384 2411 759 
Q 2675 1134 2675 2259 
Q 2675 3391 2411 3762 
Q 2147 4134 1753 4134 
Q 1366 4134 1134 3806 
Q 844 3388 844 2259 
z
" transform="scale(0.015625)"/>
       </defs>
       <use xlink:href="#ArialMT-30"/>
      </g>
     </g>
    </g>
    <g id="xtick_4">
     <g id="line2d_4">
      <path d="M 303.386665 307.584 
L 303.386665 41.472 
" clip-path="url(#pe7211e1728)" style="fill: none; stroke: #ffffff; stroke-width: 0.8; stroke-linecap: round"/>
     </g>
     <g id="text_4">
      <!-- 1 -->
      <g style="fill: #262626" transform="translate(300.606196 321.741812) scale(0.1 -0.1)">
       <use xlink:href="#ArialMT-31"/>
      </g>
     </g>
    </g>
    <g id="xtick_5">
     <g id="line2d_5">
      <path d="M 368.973505 307.584 
L 368.973505 41.472 
" clip-path="url(#pe7211e1728)" style="fill: none; stroke: #ffffff; stroke-width: 0.8; stroke-linecap: round"/>
     </g>
     <g id="text_5">
      <!-- 2 -->
      <g style="fill: #262626" transform="translate(366.193036 321.741812) scale(0.1 -0.1)">
       <use xlink:href="#ArialMT-32"/>
      </g>
     </g>
    </g>
    <g id="text_6">
     <!-- $x$ -->
     <g style="fill: #262626" transform="translate(233.16 334.887125) scale(0.1 -0.1)">
      <defs>
       <path id="DejaVuSans-Oblique-78" d="M 3841 3500 
L 2234 1784 
L 3219 0 
L 2559 0 
L 1819 1388 
L 531 0 
L -166 0 
L 1556 1844 
L 641 3500 
L 1300 3500 
L 1972 2234 
L 3144 3500 
L 3841 3500 
z
" transform="scale(0.015625)"/>
      </defs>
      <use xlink:href="#DejaVuSans-Oblique-78" transform="translate(0 0.3125)"/>
     </g>
    </g>
   </g>
   <g id="matplotlib.axis_2">
    <g id="ytick_1">
     <g id="line2d_6">
      <path d="M 57.6 271.296 
L 414.72 271.296 
" clip-path="url(#pe7211e1728)" style="fill: none; stroke: #ffffff; stroke-width: 0.8; stroke-linecap: round"/>
     </g>
     <g id="text_7">
      <!-- −2 -->
      <g style="fill: #262626" transform="translate(39.198437 274.874906) scale(0.1 -0.1)">
       <use xlink:href="#ArialMT-2212"/>
       <use xlink:href="#ArialMT-32" transform="translate(58.398438 0)"/>
      </g>
     </g>
    </g>
    <g id="ytick_2">
     <g id="line2d_7">
      <path d="M 57.6 222.912 
L 414.72 222.912 
" clip-path="url(#pe7211e1728)" style="fill: none; stroke: #ffffff; stroke-width: 0.8; stroke-linecap: round"/>
     </g>
     <g id="text_8">
      <!-- −1 -->
      <g style="fill: #262626" transform="translate(39.198437 226.490906) scale(0.1 -0.1)">
       <use xlink:href="#ArialMT-2212"/>
       <use xlink:href="#ArialMT-31" transform="translate(58.398438 0)"/>
      </g>
     </g>
    </g>
    <g id="ytick_3">
     <g id="line2d_8">
      <path d="M 57.6 174.528 
L 414.72 174.528 
" clip-path="url(#pe7211e1728)" style="fill: none; stroke: #ffffff; stroke-width: 0.8; stroke-linecap: round"/>
     </g>
     <g id="text_9">
      <!-- 0 -->
      <g style="fill: #262626" transform="translate(45.039062 178.106906) scale(0.1 -0.1)">
       <use xlink:href="#ArialMT-30"/>
      </g>
     </g>
    </g>
    <g id="ytick_4">
     <g id="line2d_9">
      <path d="M 57.6 126.144 
L 414.72 126.144 
" clip-path="url(#pe7211e1728)" style="fill: none; stroke: #ffffff; stroke-width: 0.8; stroke-linecap: round"/>
     </g>
     <g id="text_10">
      <!-- 1 -->
      <g style="fill: #262626" transform="translate(45.039062 129.722906) scale(0.1 -0.1)">
       <use xlink:href="#ArialMT-31"/>
      </g>
     </g>
    </g>
    <g id="ytick_5">
     <g id="line2d_10">
      <path d="M 57.6 77.76 
L 414.72 77.76 
" clip-path="url(#pe7211e1728)" style="fill: none; stroke: #ffffff; stroke-width: 0.8; stroke-linecap: round"/>
     </g>
     <g id="text_11">
      <!-- 2 -->
      <g style="fill: #262626" transform="translate(45.039062 81.338906) scale(0.1 -0.1)">
       <use xlink:href="#ArialMT-32"/>
      </g>
     </g>
    </g>
    <g id="text_12">
     <!-- $x_{next}$ -->
     <g style="fill: #262626" transform="translate(33.210938 185.478) rotate(-90) scale(0.1 -0.1)">
      <defs>
       <path id="DejaVuSans-Oblique-6e" d="M 3566 2113 
L 3156 0 
L 2578 0 
L 2988 2091 
Q 3016 2238 3031 2350 
Q 3047 2463 3047 2528 
Q 3047 2791 2881 2937 
Q 2716 3084 2419 3084 
Q 1956 3084 1622 2776 
Q 1288 2469 1184 1941 
L 800 0 
L 225 0 
L 903 3500 
L 1478 3500 
L 1363 2950 
Q 1603 3253 1940 3418 
Q 2278 3584 2650 3584 
Q 3113 3584 3367 3334 
Q 3622 3084 3622 2631 
Q 3622 2519 3608 2391 
Q 3594 2263 3566 2113 
z
" transform="scale(0.015625)"/>
       <path id="DejaVuSans-Oblique-65" d="M 3078 2063 
Q 3088 2113 3092 2166 
Q 3097 2219 3097 2272 
Q 3097 2653 2873 2875 
Q 2650 3097 2266 3097 
Q 1838 3097 1509 2826 
Q 1181 2556 1013 2059 
L 3078 2063 
z
M 3578 1613 
L 903 1613 
Q 884 1494 878 1425 
Q 872 1356 872 1306 
Q 872 872 1139 634 
Q 1406 397 1894 397 
Q 2269 397 2603 481 
Q 2938 566 3225 728 
L 3116 159 
Q 2806 34 2476 -28 
Q 2147 -91 1806 -91 
Q 1078 -91 686 257 
Q 294 606 294 1247 
Q 294 1794 489 2264 
Q 684 2734 1063 3103 
Q 1306 3334 1642 3459 
Q 1978 3584 2356 3584 
Q 2950 3584 3301 3228 
Q 3653 2872 3653 2272 
Q 3653 2128 3634 1964 
Q 3616 1800 3578 1613 
z
" transform="scale(0.015625)"/>
       <path id="DejaVuSans-Oblique-74" d="M 2706 3500 
L 2619 3053 
L 1472 3053 
L 1100 1153 
Q 1081 1047 1072 975 
Q 1063 903 1063 863 
Q 1063 663 1183 572 
Q 1303 481 1569 481 
L 2150 481 
L 2053 0 
L 1503 0 
Q 991 0 739 200 
Q 488 400 488 806 
Q 488 878 497 964 
Q 506 1050 525 1153 
L 897 3053 
L 409 3053 
L 500 3500 
L 978 3500 
L 1172 4494 
L 1747 4494 
L 1556 3500 
L 2706 3500 
z
" transform="scale(0.015625)"/>
      </defs>
      <use xlink:href="#DejaVuSans-Oblique-78" transform="translate(0 0.3125)"/>
      <use xlink:href="#DejaVuSans-Oblique-6e" transform="translate(59.179688 -16.09375) scale(0.7)"/>
      <use xlink:href="#DejaVuSans-Oblique-65" transform="translate(103.544922 -16.09375) scale(0.7)"/>
      <use xlink:href="#DejaVuSans-Oblique-78" transform="translate(146.611328 -16.09375) scale(0.7)"/>
      <use xlink:href="#DejaVuSans-Oblique-74" transform="translate(188.037109 -16.09375) scale(0.7)"/>
     </g>
    </g>
   </g>
   <g id="FillBetweenPolyCollection_1">
    <defs>
     <path id="m0059c97cb1" d="M 73.832727 -133.52226 
L 73.832727 -116.889741 
L 77.112066 -116.994496 
L 80.391405 -117.278458 
L 83.670744 -117.414843 
L 86.950083 -117.557972 
L 90.229421 -117.657525 
L 93.50876 -117.865547 
L 96.788099 -117.953639 
L 100.067438 -118.066798 
L 103.346777 -118.182575 
L 106.626116 -118.321424 
L 109.905455 -118.42085 
L 113.184793 -118.401943 
L 116.464132 -118.517242 
L 119.743471 -118.521579 
L 123.02281 -118.587055 
L 126.302149 -118.589645 
L 129.581488 -118.679387 
L 132.860826 -118.597841 
L 136.140165 -118.593671 
L 139.419504 -118.568385 
L 142.698843 -118.480477 
L 145.978182 -118.397825 
L 149.257521 -118.212735 
L 152.53686 -118.032514 
L 155.816198 -117.789273 
L 159.095537 -117.258714 
L 162.374876 -116.640738 
L 165.654215 -117.849535 
L 168.933554 -120.268733 
L 172.212893 -121.909875 
L 175.492231 -121.631791 
L 178.77157 -121.134806 
L 182.050909 -120.726041 
L 185.330248 -120.377157 
L 188.609587 -120.24159 
L 191.888926 -120.234138 
L 195.168264 -120.333212 
L 198.447603 -120.351703 
L 201.726942 -120.592896 
L 205.006281 -120.76247 
L 208.28562 -120.971121 
L 211.564959 -121.15673 
L 214.844298 -121.33995 
L 218.123636 -121.645639 
L 221.402975 -121.809411 
L 224.682314 -121.967247 
L 227.961653 -122.199465 
L 231.240992 -122.45032 
L 234.520331 -122.598403 
L 237.799669 -122.778347 
L 241.079008 -123.108065 
L 244.358347 -123.263072 
L 247.637686 -123.446105 
L 250.917025 -123.73471 
L 254.196364 -124.018005 
L 257.475702 -124.39736 
L 260.755041 -124.799559 
L 264.03438 -125.38756 
L 267.313719 -125.746685 
L 270.593058 -126.514665 
L 273.872397 -127.203989 
L 277.151736 -128.229141 
L 280.431074 -129.516432 
L 283.710413 -131.236662 
L 286.989752 -134.818593 
L 290.269091 -209.095852 
L 293.54843 -211.696531 
L 296.827769 -213.57533 
L 300.107107 -214.98145 
L 303.386446 -215.677004 
L 306.665785 -215.390011 
L 309.945124 -214.506606 
L 313.224463 -213.516464 
L 316.503802 -212.509959 
L 319.78314 -211.600901 
L 323.062479 -210.830689 
L 326.341818 -210.096215 
L 329.621157 -209.659426 
L 332.900496 -209.169075 
L 336.179835 -208.638458 
L 339.459174 -208.1015 
L 342.738512 -207.963856 
L 346.017851 -207.425401 
L 349.29719 -207.01169 
L 352.576529 -206.761133 
L 355.855868 -206.722615 
L 359.135207 -206.394968 
L 362.414545 -206.29823 
L 365.693884 -206.077989 
L 368.973223 -206.522166 
L 372.252562 -206.375098 
L 375.531901 -206.942271 
L 378.81124 -207.291498 
L 382.090579 -207.509323 
L 385.369917 -207.699555 
L 388.649256 -207.79723 
L 391.928595 -208.041422 
L 395.207934 -208.557965 
L 398.487273 -208.548466 
L 398.487273 -225.145103 
L 398.487273 -225.145103 
L 395.207934 -224.985986 
L 391.928595 -224.702896 
L 388.649256 -224.612381 
L 385.369917 -224.465284 
L 382.090579 -224.354831 
L 378.81124 -224.236752 
L 375.531901 -224.074122 
L 372.252562 -223.865742 
L 368.973223 -223.887764 
L 365.693884 -223.78174 
L 362.414545 -223.662306 
L 359.135207 -223.658066 
L 355.855868 -223.682026 
L 352.576529 -223.613504 
L 349.29719 -223.553824 
L 346.017851 -223.540114 
L 342.738512 -223.614825 
L 339.459174 -223.626101 
L 336.179835 -223.62831 
L 332.900496 -223.692131 
L 329.621157 -223.743268 
L 326.341818 -223.886235 
L 323.062479 -224.041672 
L 319.78314 -224.417498 
L 316.503802 -224.853015 
L 313.224463 -225.552357 
L 309.945124 -224.294234 
L 306.665785 -221.875036 
L 303.386446 -220.281993 
L 300.107107 -220.534848 
L 296.827769 -221.019311 
L 293.54843 -221.46769 
L 290.269091 -221.72321 
L 286.989752 -221.866932 
L 283.710413 -221.930084 
L 280.431074 -221.82293 
L 277.151736 -221.753035 
L 273.872397 -221.560234 
L 270.593058 -221.432419 
L 267.313719 -221.185032 
L 264.03438 -220.982835 
L 260.755041 -220.848796 
L 257.475702 -220.583627 
L 254.196364 -220.385213 
L 250.917025 -220.208597 
L 247.637686 -219.962392 
L 244.358347 -219.733634 
L 241.079008 -219.573225 
L 237.799669 -219.40274 
L 234.520331 -219.2599 
L 231.240992 -218.95236 
L 227.961653 -218.800464 
L 224.682314 -218.441299 
L 221.402975 -218.095466 
L 218.123636 -217.82413 
L 214.844298 -217.261453 
L 211.564959 -216.873008 
L 208.28562 -216.307363 
L 205.006281 -215.578806 
L 201.726942 -214.759591 
L 198.447603 -213.925342 
L 195.168264 -212.779359 
L 191.888926 -210.503665 
L 188.609587 -206.389143 
L 185.330248 -133.117385 
L 182.050909 -130.521228 
L 178.77157 -128.560915 
L 175.492231 -127.108127 
L 172.212893 -126.454823 
L 168.933554 -126.72906 
L 165.654215 -127.523099 
L 162.374876 -128.683167 
L 159.095537 -129.640749 
L 155.816198 -130.428593 
L 152.53686 -131.241366 
L 149.257521 -131.977124 
L 145.978182 -132.473751 
L 142.698843 -133.088105 
L 139.419504 -133.493184 
L 136.140165 -134.017148 
L 132.860826 -134.273109 
L 129.581488 -134.472376 
L 126.302149 -134.792173 
L 123.02281 -135.158505 
L 119.743471 -135.6878 
L 116.464132 -135.463772 
L 113.184793 -135.922199 
L 109.905455 -135.786762 
L 106.626116 -135.942663 
L 103.346777 -135.564432 
L 100.067438 -135.105741 
L 96.788099 -135.053409 
L 93.50876 -134.695997 
L 90.229421 -134.251071 
L 86.950083 -134.00567 
L 83.670744 -134.177617 
L 80.391405 -133.848886 
L 77.112066 -133.61973 
L 73.832727 -133.52226 
z
" style="stroke: #0000ff; stroke-opacity: 0.5"/>
    </defs>
    <g clip-path="url(#pe7211e1728)">
     <use xlink:href="#m0059c97cb1" x="0" y="345.6" style="fill: #0000ff; fill-opacity: 0.5; stroke: #0000ff; stroke-opacity: 0.5"/>
    </g>
   </g>
   <g id="FillBetweenPolyCollection_2">
    <defs>
     <path id="m3d43b3f062" d="M 73.832727 -223.102931 
L 73.832727 -100.826027 
L 77.112066 -101.707529 
L 80.391405 -102.506471 
L 83.670744 -103.404007 
L 86.950083 -103.966306 
L 90.229421 -104.848431 
L 93.50876 -105.685533 
L 96.788099 -106.078235 
L 100.067438 -106.638931 
L 103.346777 -106.88126 
L 106.626116 -107.444724 
L 109.905455 -107.948578 
L 113.184793 -107.960754 
L 116.464132 -108.307925 
L 119.743471 -108.579647 
L 123.02281 -108.719344 
L 126.302149 -109.017361 
L 129.581488 -109.070823 
L 132.860826 -109.140579 
L 136.140165 -109.094679 
L 139.419504 -109.227754 
L 142.698843 -108.931265 
L 145.978182 -108.628558 
L 149.257521 -108.2683 
L 152.53686 -108.172745 
L 155.816198 -110.591942 
L 159.095537 -113.01114 
L 162.374876 -114.665403 
L 165.654215 -115.475759 
L 168.933554 -115.966526 
L 172.212893 -116.177196 
L 175.492231 -116.010684 
L 178.77157 -115.5673 
L 182.050909 -114.867392 
L 185.330248 -114.011425 
L 188.609587 -113.311465 
L 191.888926 -112.86774 
L 195.168264 -112.663617 
L 198.447603 -112.526257 
L 201.726942 -112.555263 
L 205.006281 -112.626172 
L 208.28562 -112.593942 
L 211.564959 -112.708416 
L 214.844298 -112.84843 
L 218.123636 -113.031437 
L 221.402975 -113.101804 
L 224.682314 -113.154955 
L 227.961653 -113.374588 
L 231.240992 -113.41442 
L 234.520331 -113.545529 
L 237.799669 -113.545137 
L 241.079008 -113.801395 
L 244.358347 -113.916878 
L 247.637686 -114.043401 
L 250.917025 -114.179193 
L 254.196364 -114.370293 
L 257.475702 -114.536746 
L 260.755041 -114.720325 
L 264.03438 -115.00518 
L 267.313719 -115.219472 
L 270.593058 -115.609336 
L 273.872397 -115.836837 
L 277.151736 -116.348183 
L 280.431074 -116.705021 
L 283.710413 -117.28129 
L 286.989752 -117.820258 
L 290.269091 -118.530796 
L 293.54843 -119.258718 
L 296.827769 -120.24381 
L 300.107107 -121.030893 
L 303.386446 -121.653431 
L 306.665785 -121.519128 
L 309.945124 -121.287798 
L 313.224463 -120.844575 
L 316.503802 -120.45309 
L 319.78314 -120.069559 
L 323.062479 -119.70043 
L 326.341818 -119.425622 
L 329.621157 -118.982832 
L 332.900496 -119.004248 
L 336.179835 -118.75333 
L 339.459174 -118.592408 
L 342.738512 -118.557651 
L 346.017851 -118.420544 
L 349.29719 -118.220712 
L 352.576529 -118.215798 
L 355.855868 -118.112415 
L 359.135207 -118.030841 
L 362.414545 -118.051063 
L 365.693884 -117.922527 
L 368.973223 -118.112196 
L 372.252562 -118.131386 
L 375.531901 -118.362347 
L 378.81124 -118.369441 
L 382.090579 -118.354526 
L 385.369917 -118.637933 
L 388.649256 -118.670187 
L 391.928595 -118.78492 
L 395.207934 -119.031628 
L 398.487273 -118.991518 
L 398.487273 -240.563005 
L 398.487273 -240.563005 
L 395.207934 -239.812467 
L 391.928595 -238.707785 
L 388.649256 -238.052561 
L 385.369917 -237.388863 
L 382.090579 -236.925655 
L 378.81124 -236.085779 
L 375.531901 -235.570655 
L 372.252562 -235.21898 
L 368.973223 -234.960956 
L 365.693884 -234.502016 
L 362.414545 -234.120688 
L 359.135207 -233.901136 
L 355.855868 -233.707429 
L 352.576529 -233.465383 
L 349.29719 -233.316959 
L 346.017851 -233.148937 
L 342.738512 -233.03072 
L 339.459174 -233.062172 
L 336.179835 -232.939836 
L 332.900496 -233.070085 
L 329.621157 -233.449135 
L 326.341818 -233.832845 
L 323.062479 -233.971025 
L 319.78314 -231.551827 
L 316.503802 -229.132629 
L 313.224463 -227.47205 
L 309.945124 -226.683906 
L 306.665785 -226.160828 
L 303.386446 -225.971753 
L 300.107107 -226.143179 
L 296.827769 -226.588143 
L 293.54843 -227.299235 
L 290.269091 -228.09107 
L 286.989752 -228.790401 
L 283.710413 -229.272476 
L 280.431074 -229.531422 
L 277.151736 -229.663038 
L 273.872397 -229.646035 
L 270.593058 -229.749417 
L 267.313719 -229.47867 
L 264.03438 -229.437124 
L 260.755041 -229.354644 
L 257.475702 -229.122934 
L 254.196364 -229.090069 
L 250.917025 -229.039352 
L 247.637686 -228.884105 
L 244.358347 -228.756642 
L 241.079008 -228.680974 
L 237.799669 -228.623844 
L 234.520331 -228.600559 
L 231.240992 -228.269007 
L 227.961653 -228.192959 
L 224.682314 -228.022693 
L 221.402975 -227.933355 
L 218.123636 -227.599156 
L 214.844298 -227.323067 
L 211.564959 -227.229559 
L 208.28562 -226.793852 
L 205.006281 -226.590271 
L 201.726942 -226.228127 
L 198.447603 -225.928281 
L 195.168264 -225.470599 
L 191.888926 -224.905813 
L 188.609587 -224.27674 
L 185.330248 -223.642966 
L 182.050909 -222.851546 
L 178.77157 -222.072699 
L 175.492231 -221.078206 
L 172.212893 -220.467128 
L 168.933554 -220.502231 
L 165.654215 -220.951423 
L 162.374876 -221.341392 
L 159.095537 -221.794656 
L 155.816198 -222.111482 
L 152.53686 -222.398299 
L 149.257521 -222.623509 
L 145.978182 -222.885968 
L 142.698843 -223.024482 
L 139.419504 -223.288631 
L 136.140165 -223.498667 
L 132.860826 -223.721195 
L 129.581488 -223.630738 
L 126.302149 -223.760301 
L 123.02281 -223.88563 
L 119.743471 -224.040819 
L 116.464132 -223.909895 
L 113.184793 -224.0391 
L 109.905455 -224.023746 
L 106.626116 -224.194883 
L 103.346777 -223.99944 
L 100.067438 -223.840722 
L 96.788099 -223.867998 
L 93.50876 -223.692696 
L 90.229421 -223.498672 
L 86.950083 -223.404755 
L 83.670744 -223.33531 
L 80.391405 -223.305473 
L 77.112066 -223.106195 
L 73.832727 -223.102931 
z
" style="stroke: #0000ff; stroke-opacity: 0.3"/>
    </defs>
    <g clip-path="url(#pe7211e1728)">
     <use xlink:href="#m3d43b3f062" x="0" y="345.6" style="fill: #0000ff; fill-opacity: 0.3; stroke: #0000ff; stroke-opacity: 0.3"/>
    </g>
   </g>
   <g id="line2d_11">
    <path d="M 73.832727 207.614631 
L 77.112066 207.374663 
L 80.391405 206.735188 
L 83.670744 206.17714 
L 86.950083 206.005114 
L 90.229421 205.520758 
L 93.50876 204.799155 
L 96.788099 204.311881 
L 100.067438 204.042229 
L 103.346777 203.610623 
L 106.626116 203.016664 
L 109.905455 203.020168 
L 113.184793 202.84076 
L 116.464132 203.042011 
L 119.743471 202.740861 
L 123.02281 203.021622 
L 126.302149 203.231054 
L 129.581488 203.476567 
L 132.860826 203.669942 
L 136.140165 203.836468 
L 139.419504 204.299933 
L 142.698843 204.738547 
L 145.978182 205.447582 
L 149.257521 206.07996 
L 152.53686 206.889789 
L 155.816198 207.78126 
L 159.095537 208.650275 
L 162.374876 209.573879 
L 165.654215 210.615237 
L 168.933554 210.903942 
L 172.212893 210.349328 
L 175.492231 208.335799 
L 178.77157 205.533162 
L 182.050909 202.483069 
L 185.330248 200.170097 
L 188.609587 198.009599 
L 191.888926 195.894377 
L 195.168264 193.539235 
L 198.447603 191.775145 
L 201.726942 189.936045 
L 205.006281 188.167217 
L 208.28562 186.419417 
L 211.564959 184.679299 
L 214.844298 183.175718 
L 218.123636 181.545474 
L 221.402975 180.344191 
L 224.682314 179.137008 
L 227.961653 177.503803 
L 231.240992 176.668125 
L 234.520331 175.369755 
L 237.799669 174.536503 
L 241.079008 173.168805 
L 244.358347 172.187787 
L 247.637686 171.22859 
L 250.917025 169.995223 
L 254.196364 168.763615 
L 257.475702 167.271334 
L 260.755041 165.798368 
L 264.03438 164.014021 
L 267.313719 162.67838 
L 270.593058 160.87157 
L 273.872397 159.274348 
L 277.151736 157.260288 
L 280.431074 155.528147 
L 283.710413 153.472935 
L 286.989752 151.326452 
L 290.269091 148.828398 
L 293.54843 146.347767 
L 296.827769 143.570053 
L 300.107107 140.815964 
L 303.386446 138.684898 
L 306.665785 138.093913 
L 309.945124 138.758545 
L 313.224463 139.377115 
L 316.503802 140.465128 
L 319.78314 141.377061 
L 323.062479 142.301282 
L 326.341818 143.14087 
L 329.621157 143.708077 
L 332.900496 144.107187 
L 336.179835 144.776243 
L 339.459174 145.172046 
L 342.738512 145.246269 
L 346.017851 145.771193 
L 349.29719 145.966673 
L 352.576529 146.140901 
L 355.855868 146.05625 
L 359.135207 146.290943 
L 362.414545 146.142609 
L 365.693884 146.165112 
L 368.973223 145.738622 
L 372.252562 145.687447 
L 375.531901 145.005191 
L 378.81124 144.440037 
L 382.090579 144.220837 
L 385.369917 143.712291 
L 388.649256 143.364872 
L 391.928595 142.846226 
L 395.207934 142.038183 
L 398.487273 141.861812 
" clip-path="url(#pe7211e1728)" style="fill: none; stroke: #0000ff; stroke-width: 1.5; stroke-linecap: round"/>
   </g>
   <g id="line2d_12">
    <path d="M 73.832727 295.488 
L 77.112066 293.068802 
L 80.391405 290.649605 
L 83.670744 288.230407 
L 86.950083 285.811209 
L 90.229421 283.392012 
L 93.50876 280.972814 
L 96.788099 278.553616 
L 100.067438 276.134418 
L 103.346777 273.715221 
L 106.626116 271.296023 
L 109.905455 268.876825 
L 113.184793 266.457628 
L 116.464132 264.03843 
L 119.743471 261.619232 
L 123.02281 259.200035 
L 126.302149 256.780837 
L 129.581488 254.361639 
L 132.860826 251.942442 
L 136.140165 249.523244 
L 139.419504 247.104046 
L 142.698843 244.684848 
L 145.978182 242.265651 
L 149.257521 239.846453 
L 152.53686 237.427255 
L 155.816198 235.008058 
L 159.095537 232.58886 
L 162.374876 230.169662 
L 165.654215 227.750465 
L 168.933554 225.331267 
L 172.212893 222.912069 
L 175.492231 220.492872 
L 178.77157 218.073674 
L 182.050909 215.654476 
L 185.330248 213.235278 
L 188.609587 210.816081 
L 191.888926 208.396883 
L 195.168264 205.977685 
L 198.447603 203.558488 
L 201.726942 201.13929 
L 205.006281 198.720092 
L 208.28562 196.300895 
L 211.564959 193.881697 
L 214.844298 191.462499 
L 218.123636 189.043302 
L 221.402975 186.624104 
L 224.682314 184.204906 
L 227.961653 181.785708 
L 231.240992 179.366511 
L 234.520331 176.947313 
L 237.799669 174.528115 
L 241.079008 172.108918 
L 244.358347 169.68972 
L 247.637686 167.270522 
L 250.917025 164.851325 
L 254.196364 162.432127 
L 257.475702 160.012929 
L 260.755041 157.593732 
L 264.03438 155.174534 
L 267.313719 152.755336 
L 270.593058 150.336138 
L 273.872397 147.916941 
L 277.151736 145.497743 
L 280.431074 143.078545 
L 283.710413 140.659348 
L 286.989752 138.24015 
L 290.269091 135.820952 
L 293.54843 133.401755 
L 296.827769 130.982557 
L 300.107107 128.563359 
L 303.386446 126.144161 
L 306.665785 123.724964 
L 309.945124 121.305766 
L 313.224463 118.886568 
L 316.503802 116.467371 
L 319.78314 114.048173 
L 323.062479 111.628975 
L 326.341818 109.209778 
L 329.621157 106.79058 
L 332.900496 104.371382 
L 336.179835 101.952185 
L 339.459174 99.532987 
L 342.738512 97.113789 
L 346.017851 94.694591 
L 349.29719 92.275394 
L 352.576529 89.856196 
L 355.855868 87.436998 
L 359.135207 85.017801 
L 362.414545 82.598603 
L 365.693884 80.179405 
L 368.973223 77.760208 
L 372.252562 75.34101 
L 375.531901 72.921812 
L 378.81124 70.502615 
L 382.090579 68.083417 
L 385.369917 65.664219 
L 388.649256 63.245021 
L 391.928595 60.825824 
L 395.207934 58.406626 
L 398.487273 55.987428 
" clip-path="url(#pe7211e1728)" style="fill: none; stroke-dasharray: 5.55,2.4; stroke-dashoffset: 0; stroke: #808080; stroke-width: 1.5"/>
   </g>
   <g id="LineCollection_1">
    <path d="M 172.212986 295.488 
L 172.212986 53.568 
" clip-path="url(#pe7211e1728)" style="fill: none; stroke-dasharray: 5.55,2.4; stroke-dashoffset: 0; stroke: #008000; stroke-width: 1.5"/>
    <path d="M 303.386665 295.488 
L 303.386665 53.568 
" clip-path="url(#pe7211e1728)" style="fill: none; stroke-dasharray: 5.55,2.4; stroke-dashoffset: 0; stroke: #008000; stroke-width: 1.5"/>
   </g>
   <g id="patch_3">
    <path d="M 57.6 307.584 
L 57.6 41.472 
" style="fill: none; stroke: #ffffff; stroke-width: 0.8; stroke-linejoin: miter; stroke-linecap: square"/>
   </g>
   <g id="patch_4">
    <path d="M 414.72 307.584 
L 414.72 41.472 
" style="fill: none; stroke: #ffffff; stroke-width: 0.8; stroke-linejoin: miter; stroke-linecap: square"/>
   </g>
   <g id="patch_5">
    <path d="M 57.6 307.584 
L 414.72 307.584 
" style="fill: none; stroke: #ffffff; stroke-width: 0.8; stroke-linejoin: miter; stroke-linecap: square"/>
   </g>
   <g id="patch_6">
    <path d="M 57.6 41.472 
L 414.72 41.472 
" style="fill: none; stroke: #ffffff; stroke-width: 0.8; stroke-linejoin: miter; stroke-linecap: square"/>
   </g>
   <g id="text_13">
    <!-- $\sigma^2=1, n=10$ -->
    <g style="fill: #262626" transform="translate(196.14 35.472) scale(0.12 -0.12)">
     <defs>
      <path id="DejaVuSans-Oblique-3c3" d="M 2219 3044 
Q 1744 3044 1422 2700 
Q 1081 2341 969 1747 
Q 844 1119 1044 756 
Q 1241 397 1706 397 
Q 2166 397 2503 759 
Q 2844 1122 2966 1747 
Q 3075 2319 2881 2700 
Q 2700 3044 2219 3044 
z
M 2309 3503 
L 4219 3500 
L 4106 2925 
L 3463 2925 
Q 3706 2438 3575 1747 
Q 3406 888 2884 400 
Q 2359 -91 1609 -91 
Q 856 -91 525 400 
Q 194 888 363 1747 
Q 528 2609 1050 3097 
Q 1484 3503 2309 3503 
z
" transform="scale(0.015625)"/>
      <path id="DejaVuSans-32" d="M 1228 531 
L 3431 531 
L 3431 0 
L 469 0 
L 469 531 
Q 828 903 1448 1529 
Q 2069 2156 2228 2338 
Q 2531 2678 2651 2914 
Q 2772 3150 2772 3378 
Q 2772 3750 2511 3984 
Q 2250 4219 1831 4219 
Q 1534 4219 1204 4116 
Q 875 4013 500 3803 
L 500 4441 
Q 881 4594 1212 4672 
Q 1544 4750 1819 4750 
Q 2544 4750 2975 4387 
Q 3406 4025 3406 3419 
Q 3406 3131 3298 2873 
Q 3191 2616 2906 2266 
Q 2828 2175 2409 1742 
Q 1991 1309 1228 531 
z
" transform="scale(0.015625)"/>
      <path id="DejaVuSans-3d" d="M 678 2906 
L 4684 2906 
L 4684 2381 
L 678 2381 
L 678 2906 
z
M 678 1631 
L 4684 1631 
L 4684 1100 
L 678 1100 
L 678 1631 
z
" transform="scale(0.015625)"/>
      <path id="DejaVuSans-31" d="M 794 531 
L 1825 531 
L 1825 4091 
L 703 3866 
L 703 4441 
L 1819 4666 
L 2450 4666 
L 2450 531 
L 3481 531 
L 3481 0 
L 794 0 
L 794 531 
z
" transform="scale(0.015625)"/>
      <path id="DejaVuSans-2c" d="M 750 794 
L 1409 794 
L 1409 256 
L 897 -744 
L 494 -744 
L 750 256 
L 750 794 
z
" transform="scale(0.015625)"/>
      <path id="DejaVuSans-30" d="M 2034 4250 
Q 1547 4250 1301 3770 
Q 1056 3291 1056 2328 
Q 1056 1369 1301 889 
Q 1547 409 2034 409 
Q 2525 409 2770 889 
Q 3016 1369 3016 2328 
Q 3016 3291 2770 3770 
Q 2525 4250 2034 4250 
z
M 2034 4750 
Q 2819 4750 3233 4129 
Q 3647 3509 3647 2328 
Q 3647 1150 3233 529 
Q 2819 -91 2034 -91 
Q 1250 -91 836 529 
Q 422 1150 422 2328 
Q 422 3509 836 4129 
Q 1250 4750 2034 4750 
z
" transform="scale(0.015625)"/>
     </defs>
     <use xlink:href="#DejaVuSans-Oblique-3c3" transform="translate(0 0.765625)"/>
     <use xlink:href="#DejaVuSans-32" transform="translate(67.851615 39.046875) scale(0.7)"/>
     <use xlink:href="#DejaVuSans-3d" transform="translate(134.604544 0.765625)"/>
     <use xlink:href="#DejaVuSans-31" transform="translate(237.876029 0.765625)"/>
     <use xlink:href="#DejaVuSans-2c" transform="translate(301.499076 0.765625)"/>
     <use xlink:href="#DejaVuSans-Oblique-6e" transform="translate(352.768607 0.765625)"/>
     <use xlink:href="#DejaVuSans-3d" transform="translate(435.629935 0.765625)"/>
     <use xlink:href="#DejaVuSans-31" transform="translate(538.901419 0.765625)"/>
     <use xlink:href="#DejaVuSans-30" transform="translate(602.524466 0.765625)"/>
    </g>
   </g>
   <g id="legend_1">
    <g id="patch_7">
     <path d="M 297.42 302.584 
L 407.72 302.584 
Q 409.72 302.584 409.72 300.584 
L 409.72 230.248062 
Q 409.72 228.248062 407.72 228.248062 
L 297.42 228.248062 
Q 295.42 228.248062 295.42 230.248062 
L 295.42 300.584 
Q 295.42 302.584 297.42 302.584 
z
" style="fill: #eaeaf2; opacity: 0.8; stroke: #cccccc; stroke-linejoin: miter"/>
    </g>
    <g id="line2d_13">
     <path d="M 299.42 236.160562 
L 309.42 236.160562 
L 319.42 236.160562 
" style="fill: none; stroke: #0000ff; stroke-width: 1.5; stroke-linecap: round"/>
    </g>
    <g id="text_14">
     <!-- $E[x_{next}]$ -->
     <g style="fill: #262626" transform="translate(327.42 239.660562) scale(0.1 -0.1)">
      <defs>
       <path id="DejaVuSans-Oblique-45" d="M 1081 4666 
L 4031 4666 
L 3928 4134 
L 1606 4134 
L 1338 2753 
L 3566 2753 
L 3463 2222 
L 1234 2222 
L 909 531 
L 3284 531 
L 3181 0 
L 172 0 
L 1081 4666 
z
" transform="scale(0.015625)"/>
       <path id="DejaVuSans-5b" d="M 550 4863 
L 1875 4863 
L 1875 4416 
L 1125 4416 
L 1125 -397 
L 1875 -397 
L 1875 -844 
L 550 -844 
L 550 4863 
z
" transform="scale(0.015625)"/>
       <path id="DejaVuSans-5d" d="M 1947 4863 
L 1947 -844 
L 622 -844 
L 622 -397 
L 1369 -397 
L 1369 4416 
L 622 4416 
L 622 4863 
L 1947 4863 
z
" transform="scale(0.015625)"/>
      </defs>
      <use xlink:href="#DejaVuSans-Oblique-45" transform="translate(0 0.015625)"/>
      <use xlink:href="#DejaVuSans-5b" transform="translate(63.183594 0.015625)"/>
      <use xlink:href="#DejaVuSans-Oblique-78" transform="translate(102.197266 0.015625)"/>
      <use xlink:href="#DejaVuSans-Oblique-6e" transform="translate(161.376953 -16.390625) scale(0.7)"/>
      <use xlink:href="#DejaVuSans-Oblique-65" transform="translate(205.742188 -16.390625) scale(0.7)"/>
      <use xlink:href="#DejaVuSans-Oblique-78" transform="translate(248.808594 -16.390625) scale(0.7)"/>
      <use xlink:href="#DejaVuSans-Oblique-74" transform="translate(290.234375 -16.390625) scale(0.7)"/>
      <use xlink:href="#DejaVuSans-5d" transform="translate(320.415039 0.015625)"/>
     </g>
    </g>
    <g id="patch_8">
     <path d="M 299.42 253.805875 
L 319.42 253.805875 
L 319.42 246.805875 
L 299.42 246.805875 
z
" style="fill: #0000ff; fill-opacity: 0.5; stroke: #0000ff; stroke-opacity: 0.5; stroke-linejoin: miter"/>
    </g>
    <g id="text_15">
     <!-- 50% CI -->
     <g style="fill: #262626" transform="translate(327.42 253.805875) scale(0.1 -0.1)">
      <defs>
       <path id="ArialMT-35" d="M 266 1200 
L 856 1250 
Q 922 819 1161 601 
Q 1400 384 1738 384 
Q 2144 384 2425 690 
Q 2706 997 2706 1503 
Q 2706 1984 2436 2262 
Q 2166 2541 1728 2541 
Q 1456 2541 1237 2417 
Q 1019 2294 894 2097 
L 366 2166 
L 809 4519 
L 3088 4519 
L 3088 3981 
L 1259 3981 
L 1013 2750 
Q 1425 3038 1878 3038 
Q 2478 3038 2890 2622 
Q 3303 2206 3303 1553 
Q 3303 931 2941 478 
Q 2500 -78 1738 -78 
Q 1113 -78 717 272 
Q 322 622 266 1200 
z
" transform="scale(0.015625)"/>
       <path id="ArialMT-25" d="M 372 3481 
Q 372 3972 619 4315 
Q 866 4659 1334 4659 
Q 1766 4659 2048 4351 
Q 2331 4044 2331 3447 
Q 2331 2866 2045 2552 
Q 1759 2238 1341 2238 
Q 925 2238 648 2547 
Q 372 2856 372 3481 
z
M 1350 4272 
Q 1141 4272 1002 4090 
Q 863 3909 863 3425 
Q 863 2984 1003 2804 
Q 1144 2625 1350 2625 
Q 1563 2625 1702 2806 
Q 1841 2988 1841 3469 
Q 1841 3913 1700 4092 
Q 1559 4272 1350 4272 
z
M 1353 -169 
L 3859 4659 
L 4316 4659 
L 1819 -169 
L 1353 -169 
z
M 3334 1075 
Q 3334 1569 3581 1911 
Q 3828 2253 4300 2253 
Q 4731 2253 5014 1945 
Q 5297 1638 5297 1041 
Q 5297 459 5011 145 
Q 4725 -169 4303 -169 
Q 3888 -169 3611 142 
Q 3334 453 3334 1075 
z
M 4316 1866 
Q 4103 1866 3964 1684 
Q 3825 1503 3825 1019 
Q 3825 581 3965 400 
Q 4106 219 4313 219 
Q 4528 219 4667 400 
Q 4806 581 4806 1063 
Q 4806 1506 4665 1686 
Q 4525 1866 4316 1866 
z
" transform="scale(0.015625)"/>
       <path id="ArialMT-20" transform="scale(0.015625)"/>
       <path id="ArialMT-43" d="M 3763 1606 
L 4369 1453 
Q 4178 706 3683 314 
Q 3188 -78 2472 -78 
Q 1731 -78 1267 223 
Q 803 525 561 1097 
Q 319 1669 319 2325 
Q 319 3041 592 3573 
Q 866 4106 1370 4382 
Q 1875 4659 2481 4659 
Q 3169 4659 3637 4309 
Q 4106 3959 4291 3325 
L 3694 3184 
Q 3534 3684 3231 3912 
Q 2928 4141 2469 4141 
Q 1941 4141 1586 3887 
Q 1231 3634 1087 3207 
Q 944 2781 944 2328 
Q 944 1744 1114 1308 
Q 1284 872 1643 656 
Q 2003 441 2422 441 
Q 2931 441 3284 734 
Q 3638 1028 3763 1606 
z
" transform="scale(0.015625)"/>
       <path id="ArialMT-49" d="M 597 0 
L 597 4581 
L 1203 4581 
L 1203 0 
L 597 0 
z
" transform="scale(0.015625)"/>
      </defs>
      <use xlink:href="#ArialMT-35"/>
      <use xlink:href="#ArialMT-30" transform="translate(55.615234 0)"/>
      <use xlink:href="#ArialMT-25" transform="translate(111.230469 0)"/>
      <use xlink:href="#ArialMT-20" transform="translate(200.146484 0)"/>
      <use xlink:href="#ArialMT-43" transform="translate(227.929688 0)"/>
      <use xlink:href="#ArialMT-49" transform="translate(300.146484 0)"/>
     </g>
    </g>
    <g id="patch_9">
     <path d="M 299.42 267.951187 
L 319.42 267.951187 
L 319.42 260.951187 
L 299.42 260.951187 
z
" style="fill: #0000ff; fill-opacity: 0.3; stroke: #0000ff; stroke-opacity: 0.3; stroke-linejoin: miter"/>
    </g>
    <g id="text_16">
     <!-- 90% CI -->
     <g style="fill: #262626" transform="translate(327.42 267.951187) scale(0.1 -0.1)">
      <defs>
       <path id="ArialMT-39" d="M 350 1059 
L 891 1109 
Q 959 728 1153 556 
Q 1347 384 1650 384 
Q 1909 384 2104 503 
Q 2300 622 2425 820 
Q 2550 1019 2634 1356 
Q 2719 1694 2719 2044 
Q 2719 2081 2716 2156 
Q 2547 1888 2255 1720 
Q 1963 1553 1622 1553 
Q 1053 1553 659 1965 
Q 266 2378 266 3053 
Q 266 3750 677 4175 
Q 1088 4600 1706 4600 
Q 2153 4600 2523 4359 
Q 2894 4119 3086 3673 
Q 3278 3228 3278 2384 
Q 3278 1506 3087 986 
Q 2897 466 2520 194 
Q 2144 -78 1638 -78 
Q 1100 -78 759 220 
Q 419 519 350 1059 
z
M 2653 3081 
Q 2653 3566 2395 3850 
Q 2138 4134 1775 4134 
Q 1400 4134 1122 3828 
Q 844 3522 844 3034 
Q 844 2597 1108 2323 
Q 1372 2050 1759 2050 
Q 2150 2050 2401 2323 
Q 2653 2597 2653 3081 
z
" transform="scale(0.015625)"/>
      </defs>
      <use xlink:href="#ArialMT-39"/>
      <use xlink:href="#ArialMT-30" transform="translate(55.615234 0)"/>
      <use xlink:href="#ArialMT-25" transform="translate(111.230469 0)"/>
      <use xlink:href="#ArialMT-20" transform="translate(200.146484 0)"/>
      <use xlink:href="#ArialMT-43" transform="translate(227.929688 0)"/>
      <use xlink:href="#ArialMT-49" transform="translate(300.146484 0)"/>
     </g>
    </g>
    <g id="line2d_14">
     <path d="M 299.42 278.5965 
L 309.42 278.5965 
L 319.42 278.5965 
" style="fill: none; stroke-dasharray: 5.55,2.4; stroke-dashoffset: 0; stroke: #808080; stroke-width: 1.5"/>
    </g>
    <g id="text_17">
     <!-- x=x_next -->
     <g style="fill: #262626" transform="translate(327.42 282.0965) scale(0.1 -0.1)">
      <defs>
       <path id="ArialMT-78" d="M 47 0 
L 1259 1725 
L 138 3319 
L 841 3319 
L 1350 2541 
Q 1494 2319 1581 2169 
Q 1719 2375 1834 2534 
L 2394 3319 
L 3066 3319 
L 1919 1756 
L 3153 0 
L 2463 0 
L 1781 1031 
L 1600 1309 
L 728 0 
L 47 0 
z
" transform="scale(0.015625)"/>
       <path id="ArialMT-3d" d="M 3381 2694 
L 356 2694 
L 356 3219 
L 3381 3219 
L 3381 2694 
z
M 3381 1303 
L 356 1303 
L 356 1828 
L 3381 1828 
L 3381 1303 
z
" transform="scale(0.015625)"/>
       <path id="ArialMT-5f" d="M -97 -1272 
L -97 -866 
L 3631 -866 
L 3631 -1272 
L -97 -1272 
z
" transform="scale(0.015625)"/>
       <path id="ArialMT-6e" d="M 422 0 
L 422 3319 
L 928 3319 
L 928 2847 
Q 1294 3394 1984 3394 
Q 2284 3394 2536 3286 
Q 2788 3178 2913 3003 
Q 3038 2828 3088 2588 
Q 3119 2431 3119 2041 
L 3119 0 
L 2556 0 
L 2556 2019 
Q 2556 2363 2490 2533 
Q 2425 2703 2258 2804 
Q 2091 2906 1866 2906 
Q 1506 2906 1245 2678 
Q 984 2450 984 1813 
L 984 0 
L 422 0 
z
" transform="scale(0.015625)"/>
       <path id="ArialMT-65" d="M 2694 1069 
L 3275 997 
Q 3138 488 2766 206 
Q 2394 -75 1816 -75 
Q 1088 -75 661 373 
Q 234 822 234 1631 
Q 234 2469 665 2931 
Q 1097 3394 1784 3394 
Q 2450 3394 2872 2941 
Q 3294 2488 3294 1666 
Q 3294 1616 3291 1516 
L 816 1516 
Q 847 969 1125 678 
Q 1403 388 1819 388 
Q 2128 388 2347 550 
Q 2566 713 2694 1069 
z
M 847 1978 
L 2700 1978 
Q 2663 2397 2488 2606 
Q 2219 2931 1791 2931 
Q 1403 2931 1139 2672 
Q 875 2413 847 1978 
z
" transform="scale(0.015625)"/>
       <path id="ArialMT-74" d="M 1650 503 
L 1731 6 
Q 1494 -44 1306 -44 
Q 1000 -44 831 53 
Q 663 150 594 308 
Q 525 466 525 972 
L 525 2881 
L 113 2881 
L 113 3319 
L 525 3319 
L 525 4141 
L 1084 4478 
L 1084 3319 
L 1650 3319 
L 1650 2881 
L 1084 2881 
L 1084 941 
Q 1084 700 1114 631 
Q 1144 563 1211 522 
Q 1278 481 1403 481 
Q 1497 481 1650 503 
z
" transform="scale(0.015625)"/>
      </defs>
      <use xlink:href="#ArialMT-78"/>
      <use xlink:href="#ArialMT-3d" transform="translate(50 0)"/>
      <use xlink:href="#ArialMT-78" transform="translate(108.398438 0)"/>
      <use xlink:href="#ArialMT-5f" transform="translate(158.398438 0)"/>
      <use xlink:href="#ArialMT-6e" transform="translate(214.013672 0)"/>
      <use xlink:href="#ArialMT-65" transform="translate(269.628906 0)"/>
      <use xlink:href="#ArialMT-78" transform="translate(325.244141 0)"/>
      <use xlink:href="#ArialMT-74" transform="translate(375.244141 0)"/>
     </g>
    </g>
    <g id="line2d_15">
     <path d="M 299.42 292.884 
L 319.42 292.884 
" style="fill: none; stroke-dasharray: 5.55,2.4; stroke-dashoffset: 0; stroke: #008000; stroke-width: 1.5"/>
    </g>
    <g id="text_18">
     <!-- modes of target $\pi$ -->
     <g style="fill: #262626" transform="translate(327.42 296.384) scale(0.1 -0.1)">
      <defs>
       <path id="ArialMT-6d" d="M 422 0 
L 422 3319 
L 925 3319 
L 925 2853 
Q 1081 3097 1340 3245 
Q 1600 3394 1931 3394 
Q 2300 3394 2536 3241 
Q 2772 3088 2869 2813 
Q 3263 3394 3894 3394 
Q 4388 3394 4653 3120 
Q 4919 2847 4919 2278 
L 4919 0 
L 4359 0 
L 4359 2091 
Q 4359 2428 4304 2576 
Q 4250 2725 4106 2815 
Q 3963 2906 3769 2906 
Q 3419 2906 3187 2673 
Q 2956 2441 2956 1928 
L 2956 0 
L 2394 0 
L 2394 2156 
Q 2394 2531 2256 2718 
Q 2119 2906 1806 2906 
Q 1569 2906 1367 2781 
Q 1166 2656 1075 2415 
Q 984 2175 984 1722 
L 984 0 
L 422 0 
z
" transform="scale(0.015625)"/>
       <path id="ArialMT-6f" d="M 213 1659 
Q 213 2581 725 3025 
Q 1153 3394 1769 3394 
Q 2453 3394 2887 2945 
Q 3322 2497 3322 1706 
Q 3322 1066 3130 698 
Q 2938 331 2570 128 
Q 2203 -75 1769 -75 
Q 1072 -75 642 372 
Q 213 819 213 1659 
z
M 791 1659 
Q 791 1022 1069 705 
Q 1347 388 1769 388 
Q 2188 388 2466 706 
Q 2744 1025 2744 1678 
Q 2744 2294 2464 2611 
Q 2184 2928 1769 2928 
Q 1347 2928 1069 2612 
Q 791 2297 791 1659 
z
" transform="scale(0.015625)"/>
       <path id="ArialMT-64" d="M 2575 0 
L 2575 419 
Q 2259 -75 1647 -75 
Q 1250 -75 917 144 
Q 584 363 401 755 
Q 219 1147 219 1656 
Q 219 2153 384 2558 
Q 550 2963 881 3178 
Q 1213 3394 1622 3394 
Q 1922 3394 2156 3267 
Q 2391 3141 2538 2938 
L 2538 4581 
L 3097 4581 
L 3097 0 
L 2575 0 
z
M 797 1656 
Q 797 1019 1065 703 
Q 1334 388 1700 388 
Q 2069 388 2326 689 
Q 2584 991 2584 1609 
Q 2584 2291 2321 2609 
Q 2059 2928 1675 2928 
Q 1300 2928 1048 2622 
Q 797 2316 797 1656 
z
" transform="scale(0.015625)"/>
       <path id="ArialMT-73" d="M 197 991 
L 753 1078 
Q 800 744 1014 566 
Q 1228 388 1613 388 
Q 2000 388 2187 545 
Q 2375 703 2375 916 
Q 2375 1106 2209 1216 
Q 2094 1291 1634 1406 
Q 1016 1563 777 1677 
Q 538 1791 414 1992 
Q 291 2194 291 2438 
Q 291 2659 392 2848 
Q 494 3038 669 3163 
Q 800 3259 1026 3326 
Q 1253 3394 1513 3394 
Q 1903 3394 2198 3281 
Q 2494 3169 2634 2976 
Q 2775 2784 2828 2463 
L 2278 2388 
Q 2241 2644 2061 2787 
Q 1881 2931 1553 2931 
Q 1166 2931 1000 2803 
Q 834 2675 834 2503 
Q 834 2394 903 2306 
Q 972 2216 1119 2156 
Q 1203 2125 1616 2013 
Q 2213 1853 2448 1751 
Q 2684 1650 2818 1456 
Q 2953 1263 2953 975 
Q 2953 694 2789 445 
Q 2625 197 2315 61 
Q 2006 -75 1616 -75 
Q 969 -75 630 194 
Q 291 463 197 991 
z
" transform="scale(0.015625)"/>
       <path id="ArialMT-66" d="M 556 0 
L 556 2881 
L 59 2881 
L 59 3319 
L 556 3319 
L 556 3672 
Q 556 4006 616 4169 
Q 697 4388 901 4523 
Q 1106 4659 1475 4659 
Q 1713 4659 2000 4603 
L 1916 4113 
Q 1741 4144 1584 4144 
Q 1328 4144 1222 4034 
Q 1116 3925 1116 3625 
L 1116 3319 
L 1763 3319 
L 1763 2881 
L 1116 2881 
L 1116 0 
L 556 0 
z
" transform="scale(0.015625)"/>
       <path id="ArialMT-61" d="M 2588 409 
Q 2275 144 1986 34 
Q 1697 -75 1366 -75 
Q 819 -75 525 192 
Q 231 459 231 875 
Q 231 1119 342 1320 
Q 453 1522 633 1644 
Q 813 1766 1038 1828 
Q 1203 1872 1538 1913 
Q 2219 1994 2541 2106 
Q 2544 2222 2544 2253 
Q 2544 2597 2384 2738 
Q 2169 2928 1744 2928 
Q 1347 2928 1158 2789 
Q 969 2650 878 2297 
L 328 2372 
Q 403 2725 575 2942 
Q 747 3159 1072 3276 
Q 1397 3394 1825 3394 
Q 2250 3394 2515 3294 
Q 2781 3194 2906 3042 
Q 3031 2891 3081 2659 
Q 3109 2516 3109 2141 
L 3109 1391 
Q 3109 606 3145 398 
Q 3181 191 3288 0 
L 2700 0 
Q 2613 175 2588 409 
z
M 2541 1666 
Q 2234 1541 1622 1453 
Q 1275 1403 1131 1340 
Q 988 1278 909 1158 
Q 831 1038 831 891 
Q 831 666 1001 516 
Q 1172 366 1500 366 
Q 1825 366 2078 508 
Q 2331 650 2450 897 
Q 2541 1088 2541 1459 
L 2541 1666 
z
" transform="scale(0.015625)"/>
       <path id="ArialMT-72" d="M 416 0 
L 416 3319 
L 922 3319 
L 922 2816 
Q 1116 3169 1280 3281 
Q 1444 3394 1641 3394 
Q 1925 3394 2219 3213 
L 2025 2691 
Q 1819 2813 1613 2813 
Q 1428 2813 1281 2702 
Q 1134 2591 1072 2394 
Q 978 2094 978 1738 
L 978 0 
L 416 0 
z
" transform="scale(0.015625)"/>
       <path id="ArialMT-67" d="M 319 -275 
L 866 -356 
Q 900 -609 1056 -725 
Q 1266 -881 1628 -881 
Q 2019 -881 2231 -725 
Q 2444 -569 2519 -288 
Q 2563 -116 2559 434 
Q 2191 0 1641 0 
Q 956 0 581 494 
Q 206 988 206 1678 
Q 206 2153 378 2554 
Q 550 2956 876 3175 
Q 1203 3394 1644 3394 
Q 2231 3394 2613 2919 
L 2613 3319 
L 3131 3319 
L 3131 450 
Q 3131 -325 2973 -648 
Q 2816 -972 2473 -1159 
Q 2131 -1347 1631 -1347 
Q 1038 -1347 672 -1080 
Q 306 -813 319 -275 
z
M 784 1719 
Q 784 1066 1043 766 
Q 1303 466 1694 466 
Q 2081 466 2343 764 
Q 2606 1063 2606 1700 
Q 2606 2309 2336 2618 
Q 2066 2928 1684 2928 
Q 1309 2928 1046 2623 
Q 784 2319 784 1719 
z
" transform="scale(0.015625)"/>
       <path id="DejaVuSans-Oblique-3c0" d="M 584 3500 
L 3938 3500 
L 3825 2925 
L 3384 2925 
L 2966 775 
Q 2922 550 2981 450 
Q 3038 353 3209 353 
Q 3256 353 3325 363 
Q 3397 369 3419 372 
L 3338 -44 
Q 3222 -84 3103 -103 
Q 2981 -122 2866 -122 
Q 2491 -122 2388 81 
Q 2284 288 2391 838 
L 2797 2925 
L 1506 2925 
L 938 0 
L 350 0 
L 919 2925 
L 472 2925 
L 584 3500 
z
" transform="scale(0.015625)"/>
      </defs>
      <use xlink:href="#ArialMT-6d" transform="translate(0 0.203125)"/>
      <use xlink:href="#ArialMT-6f" transform="translate(83.300781 0.203125)"/>
      <use xlink:href="#ArialMT-64" transform="translate(138.916016 0.203125)"/>
      <use xlink:href="#ArialMT-65" transform="translate(194.53125 0.203125)"/>
      <use xlink:href="#ArialMT-73" transform="translate(250.146484 0.203125)"/>
      <use xlink:href="#ArialMT-20" transform="translate(300.146484 0.203125)"/>
      <use xlink:href="#ArialMT-6f" transform="translate(327.929688 0.203125)"/>
      <use xlink:href="#ArialMT-66" transform="translate(383.544922 0.203125)"/>
      <use xlink:href="#ArialMT-20" transform="translate(411.328125 0.203125)"/>
      <use xlink:href="#ArialMT-74" transform="translate(439.111328 0.203125)"/>
      <use xlink:href="#ArialMT-61" transform="translate(466.894531 0.203125)"/>
      <use xlink:href="#ArialMT-72" transform="translate(522.509766 0.203125)"/>
      <use xlink:href="#ArialMT-67" transform="translate(555.810547 0.203125)"/>
      <use xlink:href="#ArialMT-65" transform="translate(611.425781 0.203125)"/>
      <use xlink:href="#ArialMT-74" transform="translate(667.041016 0.203125)"/>
      <use xlink:href="#ArialMT-20" transform="translate(694.824219 0.203125)"/>
      <use xlink:href="#DejaVuSans-Oblique-3c0" transform="translate(722.607422 0.203125)"/>
     </g>
    </g>
   </g>
  </g>
 </g>
 <defs>
  <clipPath id="pe7211e1728">
   <rect x="57.6" y="41.472" width="357.12" height="266.112"/>
  </clipPath>
 </defs>
</svg>
