<?xml version="1.0" encoding="utf-8" standalone="no"?>
<!DOCTYPE svg PUBLIC "-//W3C//DTD SVG 1.1//EN"
  "http://www.w3.org/Graphics/SVG/1.1/DTD/svg11.dtd">
<svg xmlns:xlink="http://www.w3.org/1999/xlink" width="460.8pt" height="345.6pt" viewBox="0 0 460.8 345.6" xmlns="http://www.w3.org/2000/svg" version="1.1">
 <metadata>
  <rdf:RDF xmlns:dc="http://purl.org/dc/elements/1.1/" xmlns:cc="http://creativecommons.org/ns#" xmlns:rdf="http://www.w3.org/1999/02/22-rdf-syntax-ns#">
   <cc:Work>
    <dc:type rdf:resource="http://purl.org/dc/dcmitype/StillImage"/>
    <dc:date>2025-04-11T13:16:04.049770</dc:date>
    <dc:format>image/svg+xml</dc:format>
    <dc:creator>
     <cc:Agent>
      <dc:title>Matplotlib v3.10.1, https://matplotlib.org/</dc:title>
     </cc:Agent>
    </dc:creator>
   </cc:Work>
  </rdf:RDF>
 </metadata>
 <defs>
  <style type="text/css">*{stroke-linejoin: round; stroke-linecap: butt}</style>
 </defs>
 <g id="figure_1">
  <g id="patch_1">
   <path d="M 0 345.6 
L 460.8 345.6 
L 460.8 0 
L 0 0 
z
" style="fill: #ffffff"/>
  </g>
  <g id="axes_1">
   <g id="patch_2">
    <path d="M 57.6 307.584 
L 414.72 307.584 
L 414.72 41.472 
L 57.6 41.472 
z
" style="fill: #eaeaf2"/>
   </g>
   <g id="matplotlib.axis_1">
    <g id="xtick_1">
     <g id="line2d_1">
      <path d="M 106.298182 307.584 
L 106.298182 41.472 
" clip-path="url(#pf6493193de)" style="fill: none; stroke: #ffffff; stroke-width: 0.8; stroke-linecap: round"/>
     </g>
     <g id="text_1">
      <!-- −4 -->
      <g style="fill: #262626" transform="translate(100.597401 321.741812) scale(0.1 -0.1)">
       <defs>
        <path id="ArialMT-2212" d="M 3381 1997 
L 356 1997 
L 356 2522 
L 3381 2522 
L 3381 1997 
z
" transform="scale(0.015625)"/>
        <path id="ArialMT-34" d="M 2069 0 
L 2069 1097 
L 81 1097 
L 81 1613 
L 2172 4581 
L 2631 4581 
L 2631 1613 
L 3250 1613 
L 3250 1097 
L 2631 1097 
L 2631 0 
L 2069 0 
z
M 2069 1613 
L 2069 3678 
L 634 1613 
L 2069 1613 
z
" transform="scale(0.015625)"/>
       </defs>
       <use xlink:href="#ArialMT-2212"/>
       <use xlink:href="#ArialMT-34" transform="translate(58.398438 0)"/>
      </g>
     </g>
    </g>
    <g id="xtick_2">
     <g id="line2d_2">
      <path d="M 171.229091 307.584 
L 171.229091 41.472 
" clip-path="url(#pf6493193de)" style="fill: none; stroke: #ffffff; stroke-width: 0.8; stroke-linecap: round"/>
     </g>
     <g id="text_2">
      <!-- −2 -->
      <g style="fill: #262626" transform="translate(165.52831 321.741812) scale(0.1 -0.1)">
       <defs>
        <path id="ArialMT-32" d="M 3222 541 
L 3222 0 
L 194 0 
Q 188 203 259 391 
Q 375 700 629 1000 
Q 884 1300 1366 1694 
Q 2113 2306 2375 2664 
Q 2638 3022 2638 3341 
Q 2638 3675 2398 3904 
Q 2159 4134 1775 4134 
Q 1369 4134 1125 3890 
Q 881 3647 878 3216 
L 300 3275 
Q 359 3922 746 4261 
Q 1134 4600 1788 4600 
Q 2447 4600 2831 4234 
Q 3216 3869 3216 3328 
Q 3216 3053 3103 2787 
Q 2991 2522 2730 2228 
Q 2469 1934 1863 1422 
Q 1356 997 1212 845 
Q 1069 694 975 541 
L 3222 541 
z
" transform="scale(0.015625)"/>
       </defs>
       <use xlink:href="#ArialMT-2212"/>
       <use xlink:href="#ArialMT-32" transform="translate(58.398438 0)"/>
      </g>
     </g>
    </g>
    <g id="xtick_3">
     <g id="line2d_3">
      <path d="M 236.16 307.584 
L 236.16 41.472 
" clip-path="url(#pf6493193de)" style="fill: none; stroke: #ffffff; stroke-width: 0.8; stroke-linecap: round"/>
     </g>
     <g id="text_3">
      <!-- 0 -->
      <g style="fill: #262626" transform="translate(233.379531 321.741812) scale(0.1 -0.1)">
       <defs>
        <path id="ArialMT-30" d="M 266 2259 
Q 266 3072 433 3567 
Q 600 4063 929 4331 
Q 1259 4600 1759 4600 
Q 2128 4600 2406 4451 
Q 2684 4303 2865 4023 
Q 3047 3744 3150 3342 
Q 3253 2941 3253 2259 
Q 3253 1453 3087 958 
Q 2922 463 2592 192 
Q 2263 -78 1759 -78 
Q 1097 -78 719 397 
Q 266 969 266 2259 
z
M 844 2259 
Q 844 1131 1108 757 
Q 1372 384 1759 384 
Q 2147 384 2411 759 
Q 2675 1134 2675 2259 
Q 2675 3391 2411 3762 
Q 2147 4134 1753 4134 
Q 1366 4134 1134 3806 
Q 844 3388 844 2259 
z
" transform="scale(0.015625)"/>
       </defs>
       <use xlink:href="#ArialMT-30"/>
      </g>
     </g>
    </g>
    <g id="xtick_4">
     <g id="line2d_4">
      <path d="M 301.090909 307.584 
L 301.090909 41.472 
" clip-path="url(#pf6493193de)" style="fill: none; stroke: #ffffff; stroke-width: 0.8; stroke-linecap: round"/>
     </g>
     <g id="text_4">
      <!-- 2 -->
      <g style="fill: #262626" transform="translate(298.31044 321.741812) scale(0.1 -0.1)">
       <use xlink:href="#ArialMT-32"/>
      </g>
     </g>
    </g>
    <g id="xtick_5">
     <g id="line2d_5">
      <path d="M 366.021818 307.584 
L 366.021818 41.472 
" clip-path="url(#pf6493193de)" style="fill: none; stroke: #ffffff; stroke-width: 0.8; stroke-linecap: round"/>
     </g>
     <g id="text_5">
      <!-- 4 -->
      <g style="fill: #262626" transform="translate(363.241349 321.741812) scale(0.1 -0.1)">
       <use xlink:href="#ArialMT-34"/>
      </g>
     </g>
    </g>
    <g id="text_6">
     <!-- $x$ -->
     <g style="fill: #262626" transform="translate(233.16 334.887125) scale(0.1 -0.1)">
      <defs>
       <path id="DejaVuSans-Oblique-78" d="M 3841 3500 
L 2234 1784 
L 3219 0 
L 2559 0 
L 1819 1388 
L 531 0 
L -166 0 
L 1556 1844 
L 641 3500 
L 1300 3500 
L 1972 2234 
L 3144 3500 
L 3841 3500 
z
" transform="scale(0.015625)"/>
      </defs>
      <use xlink:href="#DejaVuSans-Oblique-78" transform="translate(0 0.3125)"/>
     </g>
    </g>
   </g>
   <g id="matplotlib.axis_2">
    <g id="ytick_1">
     <g id="line2d_6">
      <path d="M 57.6 269.647749 
L 414.72 269.647749 
" clip-path="url(#pf6493193de)" style="fill: none; stroke: #ffffff; stroke-width: 0.8; stroke-linecap: round"/>
     </g>
     <g id="text_7">
      <!-- −4 -->
      <g style="fill: #262626" transform="translate(39.198437 273.226655) scale(0.1 -0.1)">
       <use xlink:href="#ArialMT-2212"/>
       <use xlink:href="#ArialMT-34" transform="translate(58.398438 0)"/>
      </g>
     </g>
    </g>
    <g id="ytick_2">
     <g id="line2d_7">
      <path d="M 57.6 222.130556 
L 414.72 222.130556 
" clip-path="url(#pf6493193de)" style="fill: none; stroke: #ffffff; stroke-width: 0.8; stroke-linecap: round"/>
     </g>
     <g id="text_8">
      <!-- −2 -->
      <g style="fill: #262626" transform="translate(39.198437 225.709463) scale(0.1 -0.1)">
       <use xlink:href="#ArialMT-2212"/>
       <use xlink:href="#ArialMT-32" transform="translate(58.398438 0)"/>
      </g>
     </g>
    </g>
    <g id="ytick_3">
     <g id="line2d_8">
      <path d="M 57.6 174.613364 
L 414.72 174.613364 
" clip-path="url(#pf6493193de)" style="fill: none; stroke: #ffffff; stroke-width: 0.8; stroke-linecap: round"/>
     </g>
     <g id="text_9">
      <!-- 0 -->
      <g style="fill: #262626" transform="translate(45.039062 178.19227) scale(0.1 -0.1)">
       <use xlink:href="#ArialMT-30"/>
      </g>
     </g>
    </g>
    <g id="ytick_4">
     <g id="line2d_9">
      <path d="M 57.6 127.096171 
L 414.72 127.096171 
" clip-path="url(#pf6493193de)" style="fill: none; stroke: #ffffff; stroke-width: 0.8; stroke-linecap: round"/>
     </g>
     <g id="text_10">
      <!-- 2 -->
      <g style="fill: #262626" transform="translate(45.039062 130.675078) scale(0.1 -0.1)">
       <use xlink:href="#ArialMT-32"/>
      </g>
     </g>
    </g>
    <g id="ytick_5">
     <g id="line2d_10">
      <path d="M 57.6 79.578979 
L 414.72 79.578979 
" clip-path="url(#pf6493193de)" style="fill: none; stroke: #ffffff; stroke-width: 0.8; stroke-linecap: round"/>
     </g>
     <g id="text_11">
      <!-- 4 -->
      <g style="fill: #262626" transform="translate(45.039062 83.157885) scale(0.1 -0.1)">
       <use xlink:href="#ArialMT-34"/>
      </g>
     </g>
    </g>
    <g id="text_12">
     <!-- $x_{next}$ -->
     <g style="fill: #262626" transform="translate(33.210938 185.478) rotate(-90) scale(0.1 -0.1)">
      <defs>
       <path id="DejaVuSans-Oblique-6e" d="M 3566 2113 
L 3156 0 
L 2578 0 
L 2988 2091 
Q 3016 2238 3031 2350 
Q 3047 2463 3047 2528 
Q 3047 2791 2881 2937 
Q 2716 3084 2419 3084 
Q 1956 3084 1622 2776 
Q 1288 2469 1184 1941 
L 800 0 
L 225 0 
L 903 3500 
L 1478 3500 
L 1363 2950 
Q 1603 3253 1940 3418 
Q 2278 3584 2650 3584 
Q 3113 3584 3367 3334 
Q 3622 3084 3622 2631 
Q 3622 2519 3608 2391 
Q 3594 2263 3566 2113 
z
" transform="scale(0.015625)"/>
       <path id="DejaVuSans-Oblique-65" d="M 3078 2063 
Q 3088 2113 3092 2166 
Q 3097 2219 3097 2272 
Q 3097 2653 2873 2875 
Q 2650 3097 2266 3097 
Q 1838 3097 1509 2826 
Q 1181 2556 1013 2059 
L 3078 2063 
z
M 3578 1613 
L 903 1613 
Q 884 1494 878 1425 
Q 872 1356 872 1306 
Q 872 872 1139 634 
Q 1406 397 1894 397 
Q 2269 397 2603 481 
Q 2938 566 3225 728 
L 3116 159 
Q 2806 34 2476 -28 
Q 2147 -91 1806 -91 
Q 1078 -91 686 257 
Q 294 606 294 1247 
Q 294 1794 489 2264 
Q 684 2734 1063 3103 
Q 1306 3334 1642 3459 
Q 1978 3584 2356 3584 
Q 2950 3584 3301 3228 
Q 3653 2872 3653 2272 
Q 3653 2128 3634 1964 
Q 3616 1800 3578 1613 
z
" transform="scale(0.015625)"/>
       <path id="DejaVuSans-Oblique-74" d="M 2706 3500 
L 2619 3053 
L 1472 3053 
L 1100 1153 
Q 1081 1047 1072 975 
Q 1063 903 1063 863 
Q 1063 663 1183 572 
Q 1303 481 1569 481 
L 2150 481 
L 2053 0 
L 1503 0 
Q 991 0 739 200 
Q 488 400 488 806 
Q 488 878 497 964 
Q 506 1050 525 1153 
L 897 3053 
L 409 3053 
L 500 3500 
L 978 3500 
L 1172 4494 
L 1747 4494 
L 1556 3500 
L 2706 3500 
z
" transform="scale(0.015625)"/>
      </defs>
      <use xlink:href="#DejaVuSans-Oblique-78" transform="translate(0 0.3125)"/>
      <use xlink:href="#DejaVuSans-Oblique-6e" transform="translate(59.179688 -16.09375) scale(0.7)"/>
      <use xlink:href="#DejaVuSans-Oblique-65" transform="translate(103.544922 -16.09375) scale(0.7)"/>
      <use xlink:href="#DejaVuSans-Oblique-78" transform="translate(146.611328 -16.09375) scale(0.7)"/>
      <use xlink:href="#DejaVuSans-Oblique-74" transform="translate(188.037109 -16.09375) scale(0.7)"/>
     </g>
    </g>
   </g>
   <g id="FillBetweenPolyCollection_1">
    <defs>
     <path id="m2bc01c68eb" d="M 73.832727 -82.186737 
L 73.832727 -52.193655 
L 77.112073 -54.593519 
L 80.391404 -56.993371 
L 83.670734 -59.393223 
L 86.95008 -61.793086 
L 90.229426 -64.19295 
L 93.508757 -66.592802 
L 96.788103 -68.992665 
L 100.067434 -71.392517 
L 103.34678 -73.792381 
L 106.62611 -76.192233 
L 109.905456 -78.592097 
L 113.184795 -80.991954 
L 116.464133 -83.391812 
L 119.743479 -85.791676 
L 123.022809 -88.191528 
L 126.302148 -90.591386 
L 129.581486 -92.991243 
L 132.860824 -95.391101 
L 136.140163 -97.790959 
L 139.419493 -100.190811 
L 142.698847 -102.59068 
L 145.978178 -104.990532 
L 149.257516 -107.39039 
L 152.536862 -109.790254 
L 155.816192 -112.190106 
L 159.095538 -114.589969 
L 162.374869 -116.989821 
L 165.654215 -119.389685 
L 168.933553 -121.789543 
L 172.212892 -124.1894 
L 175.492234 -126.589261 
L 178.771564 -128.989113 
L 182.050914 -131.38898 
L 185.330245 -133.788832 
L 188.609583 -136.188689 
L 191.888925 -138.58855 
L 195.168256 -140.988402 
L 198.447606 -143.388269 
L 201.726936 -145.788121 
L 205.006277 -147.823942 
L 208.285621 -149.409769 
L 211.564957 -150.913717 
L 214.844301 -152.252377 
L 218.123628 -153.527754 
L 221.402982 -155.079435 
L 224.682308 -156.121899 
L 227.961652 -157.259706 
L 231.240996 -158.27047 
L 234.520323 -159.209704 
L 237.799667 -160.244366 
L 241.079004 -161.245316 
L 244.358348 -161.876423 
L 247.637684 -162.826936 
L 250.917028 -163.712412 
L 254.196364 -164.621159 
L 257.475699 -165.697511 
L 260.755035 -166.911352 
L 264.034379 -168.157145 
L 267.313716 -169.753083 
L 270.59306 -171.4317 
L 273.872394 -173.170254 
L 277.151733 -174.881522 
L 280.431067 -176.816762 
L 283.710409 -178.626692 
L 286.989755 -180.676296 
L 290.269093 -182.790841 
L 293.548424 -185.12014 
L 296.827762 -187.242248 
L 300.107108 -189.427144 
L 303.386439 -191.657595 
L 306.665785 -193.882038 
L 309.945123 -196.230581 
L 313.224462 -198.513155 
L 316.503792 -200.681188 
L 319.783138 -203.023917 
L 323.062476 -205.665127 
L 326.341815 -207.652624 
L 329.621153 -209.985264 
L 332.900491 -212.348725 
L 336.179822 -214.822142 
L 339.459168 -217.007171 
L 342.738514 -219.464911 
L 346.01786 -221.756232 
L 349.297191 -224.164626 
L 352.576521 -226.589657 
L 355.855867 -228.938081 
L 359.135213 -231.285656 
L 362.414536 -233.64793 
L 365.693882 -236.123895 
L 368.97322 -238.219287 
L 372.252566 -240.849633 
L 375.531881 -243.089214 
L 378.811227 -245.38851 
L 382.090574 -247.772133 
L 385.36992 -250.300575 
L 388.649266 -252.582028 
L 391.928581 -255.143375 
L 395.207927 -257.400867 
L 398.487273 -259.847797 
L 398.487273 -289.779617 
L 398.487273 -289.779617 
L 395.207927 -287.379754 
L 391.928581 -284.97989 
L 388.649266 -282.580049 
L 385.36992 -280.180186 
L 382.090574 -277.780323 
L 378.811227 -275.380459 
L 375.531881 -272.980596 
L 372.252566 -270.580755 
L 368.97322 -268.180891 
L 365.693882 -265.781034 
L 362.414536 -263.38117 
L 359.135213 -260.981324 
L 355.855867 -258.58146 
L 352.576521 -256.181597 
L 349.297191 -253.781744 
L 346.01786 -251.381892 
L 342.738514 -248.982029 
L 339.459168 -246.582165 
L 336.179822 -244.182302 
L 332.900491 -241.78245 
L 329.621153 -239.382592 
L 326.341815 -236.982734 
L 323.062476 -234.582876 
L 319.783138 -232.183019 
L 316.503792 -229.783155 
L 313.224462 -227.383303 
L 309.945123 -224.983445 
L 306.665785 -222.583587 
L 303.386439 -220.183724 
L 300.107108 -217.783872 
L 296.827762 -215.384008 
L 293.548424 -212.984151 
L 290.269093 -210.584298 
L 286.989755 -208.184441 
L 283.710409 -205.784577 
L 280.431067 -203.384716 
L 277.151733 -200.984861 
L 273.872394 -198.585004 
L 270.59306 -196.185149 
L 267.313716 -194.251184 
L 264.034379 -192.487899 
L 260.755035 -191.133215 
L 257.475699 -189.651796 
L 254.196364 -188.157537 
L 250.917028 -187.02889 
L 247.637684 -185.918011 
L 244.358348 -184.650965 
L 241.079004 -183.768581 
L 237.799667 -182.744639 
L 234.520323 -181.677883 
L 231.240996 -180.789558 
L 227.961652 -180.054707 
L 224.682308 -178.99664 
L 221.402982 -178.365955 
L 218.123628 -177.420958 
L 214.844301 -176.213217 
L 211.564957 -175.174327 
L 208.285621 -173.657681 
L 205.006277 -172.273506 
L 201.726936 -170.690067 
L 198.447606 -168.966285 
L 195.168256 -167.127088 
L 191.888925 -165.218318 
L 188.609583 -163.16225 
L 185.330245 -161.429781 
L 182.050914 -159.2472 
L 178.771564 -157.068682 
L 175.492234 -154.63237 
L 172.212892 -152.422869 
L 168.933553 -150.557526 
L 165.654215 -148.192123 
L 162.374869 -145.723888 
L 159.095538 -143.554544 
L 155.816192 -141.20599 
L 152.536862 -138.632495 
L 149.257516 -136.815154 
L 145.978178 -134.189776 
L 142.698847 -131.926228 
L 139.419493 -129.82019 
L 136.140163 -127.189102 
L 132.860824 -124.904194 
L 129.581486 -122.558605 
L 126.302148 -120.037737 
L 123.022809 -118.039344 
L 119.743479 -115.37193 
L 116.464133 -113.000808 
L 113.184795 -110.852601 
L 109.905456 -108.357993 
L 106.62611 -106.051605 
L 103.34678 -103.498874 
L 100.067434 -101.250433 
L 96.788103 -98.85475 
L 93.508757 -96.533793 
L 90.229426 -94.131437 
L 86.95008 -91.625059 
L 83.670734 -89.380623 
L 80.391404 -86.925684 
L 77.112073 -84.525084 
L 73.832727 -82.186737 
z
" style="stroke: #0000ff; stroke-opacity: 0.5"/>
    </defs>
    <g clip-path="url(#pf6493193de)">
     <use xlink:href="#m2bc01c68eb" x="0" y="345.6" style="fill: #0000ff; fill-opacity: 0.5; stroke: #0000ff; stroke-opacity: 0.5"/>
    </g>
   </g>
   <g id="FillBetweenPolyCollection_2">
    <defs>
     <path id="m555aafc373" d="M 73.832727 -109.213784 
L 73.832727 -50.112 
L 77.112073 -52.302629 
L 80.391404 -54.573851 
L 83.670734 -56.850093 
L 86.95008 -59.04182 
L 90.229426 -61.258438 
L 93.508757 -63.602132 
L 96.788103 -65.81117 
L 100.067434 -68.064063 
L 103.34678 -70.285687 
L 106.62611 -72.485334 
L 109.905456 -74.663217 
L 113.184795 -76.861957 
L 116.464133 -78.927434 
L 119.743479 -80.997602 
L 123.022809 -83.333281 
L 126.302148 -85.449807 
L 129.581486 -87.571702 
L 132.860824 -89.670464 
L 136.140163 -91.668177 
L 139.419493 -93.875873 
L 142.698847 -95.867083 
L 145.978178 -97.850544 
L 149.257516 -99.949028 
L 152.536862 -101.84866 
L 155.816192 -103.911441 
L 159.095538 -105.814614 
L 162.374869 -107.749944 
L 165.654215 -109.604005 
L 168.933553 -111.642044 
L 172.212892 -113.451956 
L 175.492234 -115.185109 
L 178.771564 -117.086605 
L 182.050914 -118.916099 
L 185.330245 -120.447806 
L 188.609583 -122.073883 
L 191.888925 -123.833195 
L 195.168256 -125.444023 
L 198.447606 -126.930006 
L 201.726936 -128.354823 
L 205.006277 -130.032872 
L 208.285621 -131.509228 
L 211.564957 -132.65695 
L 214.844301 -133.982996 
L 218.123628 -135.318202 
L 221.402982 -136.650303 
L 224.682308 -137.6029 
L 227.961652 -138.521029 
L 231.240996 -139.664262 
L 234.520323 -140.595762 
L 237.799667 -141.586989 
L 241.079004 -142.569869 
L 244.358348 -143.320414 
L 247.637684 -144.070585 
L 250.917028 -144.881023 
L 254.196364 -145.761486 
L 257.475699 -146.667193 
L 260.755035 -147.413657 
L 264.034379 -148.160817 
L 267.313716 -149.194634 
L 270.59306 -150.322133 
L 273.872394 -151.3725 
L 277.151733 -152.622783 
L 280.431067 -154.084478 
L 283.710409 -155.747445 
L 286.989755 -157.065448 
L 290.269093 -158.946639 
L 293.548424 -160.4814 
L 296.827762 -162.223663 
L 300.107108 -164.003586 
L 303.386439 -166.032183 
L 306.665785 -167.795162 
L 309.945123 -169.59364 
L 313.224462 -172.101617 
L 316.503792 -173.889009 
L 319.783138 -176.123917 
L 323.062476 -178.687821 
L 326.341815 -180.662682 
L 329.621153 -182.80379 
L 332.900491 -185.371851 
L 336.179822 -187.415189 
L 339.459168 -189.700733 
L 342.738514 -192.015129 
L 346.01786 -194.796448 
L 349.297191 -196.792946 
L 352.576521 -199.370569 
L 355.855867 -201.476095 
L 359.135213 -204.109514 
L 362.414536 -206.442307 
L 365.693882 -208.862913 
L 368.97322 -211.169786 
L 372.252566 -213.734676 
L 375.531881 -216.239819 
L 378.811227 -218.365946 
L 382.090574 -220.692424 
L 385.36992 -222.782887 
L 388.649266 -225.511897 
L 391.928581 -228.169364 
L 395.207927 -230.187736 
L 398.487273 -232.659193 
L 398.487273 -292.032 
L 398.487273 -292.032 
L 395.207927 -289.675504 
L 391.928581 -287.292815 
L 388.649266 -285.156962 
L 385.36992 -282.889002 
L 382.090574 -280.563377 
L 378.811227 -278.53063 
L 375.531881 -276.02646 
L 372.252566 -274.013765 
L 368.97322 -271.818174 
L 365.693882 -269.60636 
L 362.414536 -267.485348 
L 359.135213 -265.103538 
L 355.855867 -262.998602 
L 352.576521 -260.816549 
L 349.297191 -258.744014 
L 346.01786 -256.668545 
L 342.738514 -254.46994 
L 339.459168 -252.258608 
L 336.179822 -250.169697 
L 332.900491 -248.267091 
L 329.621153 -246.111469 
L 326.341815 -244.025197 
L 323.062476 -242.065487 
L 319.783138 -240.070918 
L 316.503792 -238.044492 
L 313.224462 -236.229719 
L 309.945123 -234.244027 
L 306.665785 -232.214241 
L 303.386439 -230.408266 
L 300.107108 -228.660521 
L 296.827762 -226.769878 
L 293.548424 -224.847509 
L 290.269093 -223.219613 
L 286.989755 -221.555732 
L 283.710409 -219.824329 
L 280.431067 -218.20921 
L 277.151733 -216.550746 
L 273.872394 -215.09184 
L 270.59306 -213.666271 
L 267.313716 -212.067959 
L 264.034379 -210.639054 
L 260.755035 -209.29934 
L 257.475699 -208.018448 
L 254.196364 -206.554801 
L 250.917028 -205.823368 
L 247.637684 -204.489196 
L 244.358348 -203.33805 
L 241.079004 -202.413132 
L 237.799667 -201.336856 
L 234.520323 -200.421842 
L 231.240996 -199.580719 
L 227.961652 -198.760036 
L 224.682308 -197.968005 
L 221.402982 -197.17919 
L 218.123628 -196.100043 
L 214.844301 -195.538709 
L 211.564957 -194.74649 
L 208.285621 -193.723402 
L 205.006277 -192.702276 
L 201.726936 -191.930792 
L 198.447606 -190.397485 
L 195.168256 -189.375444 
L 191.888925 -187.726665 
L 188.609583 -186.349368 
L 185.330245 -185.030597 
L 182.050914 -183.179338 
L 178.771564 -181.585974 
L 175.492234 -179.6262 
L 172.212892 -177.789284 
L 168.933553 -176.144519 
L 165.654215 -174.306302 
L 162.374869 -172.379309 
L 159.095538 -170.053183 
L 155.816192 -168.231212 
L 152.536862 -165.82512 
L 149.257516 -163.629451 
L 145.978178 -160.980364 
L 142.698847 -159.061626 
L 139.419493 -157.039349 
L 136.140163 -154.609949 
L 132.860824 -152.121205 
L 129.581486 -149.730139 
L 126.302148 -147.288195 
L 123.022809 -145.006022 
L 119.743479 -142.560233 
L 116.464133 -140.02008 
L 113.184795 -138.188838 
L 109.905456 -135.516617 
L 106.62611 -133.188877 
L 103.34678 -130.592127 
L 100.067434 -128.608261 
L 96.788103 -126.044195 
L 93.508757 -123.781611 
L 90.229426 -121.362882 
L 86.95008 -118.660948 
L 83.670734 -116.44675 
L 80.391404 -114.155203 
L 77.112073 -111.643907 
L 73.832727 -109.213784 
z
" style="stroke: #0000ff; stroke-opacity: 0.3"/>
    </defs>
    <g clip-path="url(#pf6493193de)">
     <use xlink:href="#m555aafc373" x="0" y="345.6" style="fill: #0000ff; fill-opacity: 0.3; stroke: #0000ff; stroke-opacity: 0.3"/>
    </g>
   </g>
   <g id="line2d_11">
    <path d="M 73.832727 275.147256 
L 77.112073 272.71464 
L 80.391404 270.386659 
L 83.670734 268.036456 
L 86.95008 265.698494 
L 90.229426 263.270671 
L 93.508757 260.875605 
L 96.788103 258.55296 
L 100.067434 256.084171 
L 103.34678 253.828463 
L 106.62611 251.397609 
L 109.905456 249.067079 
L 113.184795 246.71942 
L 116.464133 244.513248 
L 119.743479 242.121705 
L 123.022809 239.768818 
L 126.302148 237.473566 
L 129.581486 235.041222 
L 132.860824 232.719835 
L 136.140163 230.443225 
L 139.419493 227.992987 
L 142.698847 225.819681 
L 145.978178 223.634428 
L 149.257516 221.158643 
L 152.536862 219.100566 
L 155.816192 216.643299 
L 159.095538 214.444599 
L 162.374869 212.289829 
L 165.654215 209.957212 
L 168.933553 207.744441 
L 172.212892 205.753718 
L 175.492234 203.665189 
L 178.771564 201.383031 
L 182.050914 199.2801 
L 185.330245 197.277137 
L 188.609583 195.37463 
L 191.888925 193.491831 
L 195.168256 191.546573 
L 198.447606 189.697458 
L 201.726936 188.008062 
L 205.006277 186.29329 
L 208.285621 184.780819 
L 211.564957 183.271352 
L 214.844301 181.971279 
L 218.123628 180.707564 
L 221.402982 179.426225 
L 224.682308 178.40086 
L 227.961652 177.277041 
L 231.240996 176.235829 
L 234.520323 175.188503 
L 237.799667 174.083018 
L 241.079004 172.914822 
L 244.358348 171.992173 
L 247.637684 170.829887 
L 250.917028 169.676784 
L 254.196364 168.612533 
L 257.475699 167.262864 
L 260.755035 165.917458 
L 264.034379 164.580838 
L 267.313716 162.855428 
L 270.59306 161.159755 
L 273.872394 159.452074 
L 277.151733 157.645913 
L 280.431067 155.746153 
L 283.710409 153.856327 
L 286.989755 151.84371 
L 290.269093 149.871166 
L 293.548424 147.697972 
L 296.827762 145.635044 
L 300.107108 143.426819 
L 303.386439 141.326009 
L 306.665785 139.164607 
L 309.945123 136.938513 
L 313.224462 134.739954 
L 316.503792 132.519729 
L 319.783138 130.273418 
L 323.062476 127.822977 
L 326.341815 125.737747 
L 329.621153 123.474812 
L 332.900491 121.122558 
L 336.179822 118.821965 
L 339.459168 116.572947 
L 342.738514 114.173389 
L 346.01786 111.782815 
L 349.297191 109.52666 
L 352.576521 107.15683 
L 355.855867 104.819899 
L 359.135213 102.492218 
L 362.414536 100.105915 
L 365.693882 97.737864 
L 368.97322 95.469218 
L 372.252566 93.003358 
L 375.531881 90.691628 
L 378.811227 88.392553 
L 382.090574 85.971657 
L 385.36992 83.580285 
L 388.649266 81.222871 
L 391.928581 78.766159 
L 395.207927 76.516121 
L 398.487273 74.025138 
" clip-path="url(#pf6493193de)" style="fill: none; stroke: #0000ff; stroke-width: 1.5; stroke-linecap: round"/>
   </g>
   <g id="line2d_12">
    <path d="M 73.832727 293.406345 
L 77.112073 291.006481 
L 80.391404 288.606629 
L 83.670734 286.206777 
L 86.95008 283.806914 
L 90.229426 281.40705 
L 93.508757 279.007198 
L 96.788103 276.607335 
L 100.067434 274.207483 
L 103.34678 271.807619 
L 106.62611 269.407767 
L 109.905456 267.007903 
L 113.184795 264.608046 
L 116.464133 262.208188 
L 119.743479 259.808324 
L 123.022809 257.408472 
L 126.302148 255.008614 
L 129.581486 252.608757 
L 132.860824 250.208899 
L 136.140163 247.809041 
L 139.419493 245.409189 
L 142.698847 243.00932 
L 145.978178 240.609468 
L 149.257516 238.20961 
L 152.536862 235.809746 
L 155.816192 233.409894 
L 159.095538 231.010031 
L 162.374869 228.610179 
L 165.654215 226.210315 
L 168.933553 223.810457 
L 172.212892 221.4106 
L 175.492234 219.010739 
L 178.771564 216.610887 
L 182.050914 214.21102 
L 185.330245 211.811168 
L 188.609583 209.411311 
L 191.888925 207.01145 
L 195.168256 204.611598 
L 198.447606 202.211731 
L 201.726936 199.811879 
L 205.006277 197.41202 
L 208.285621 195.012158 
L 211.564957 192.612302 
L 214.844301 190.21244 
L 218.123628 187.81259 
L 221.402982 185.412721 
L 224.682308 183.012872 
L 227.961652 180.61301 
L 231.240996 178.213148 
L 234.520323 175.813298 
L 237.799667 173.413436 
L 241.079004 171.01358 
L 244.358348 168.613718 
L 247.637684 166.213862 
L 250.917028 163.814 
L 254.196364 161.414143 
L 257.475699 159.014288 
L 260.755035 156.614432 
L 264.034379 154.21457 
L 267.313716 151.814713 
L 270.59306 149.414851 
L 273.872394 147.014996 
L 277.151733 144.615139 
L 280.431067 142.215284 
L 283.710409 139.815423 
L 286.989755 137.415559 
L 290.269093 135.015702 
L 293.548424 132.615849 
L 296.827762 130.215992 
L 300.107108 127.816128 
L 303.386439 125.416276 
L 306.665785 123.016413 
L 309.945123 120.616555 
L 313.224462 118.216697 
L 316.503792 115.816845 
L 319.783138 113.416981 
L 323.062476 111.017124 
L 326.341815 108.617266 
L 329.621153 106.217408 
L 332.900491 103.81755 
L 336.179822 101.417698 
L 339.459168 99.017835 
L 342.738514 96.617971 
L 346.01786 94.218108 
L 349.297191 91.818256 
L 352.576521 89.418403 
L 355.855867 87.01854 
L 359.135213 84.618676 
L 362.414536 82.21883 
L 365.693882 79.818966 
L 368.97322 77.419109 
L 372.252566 75.019245 
L 375.531881 72.619404 
L 378.811227 70.219541 
L 382.090574 67.819677 
L 385.36992 65.419814 
L 388.649266 63.019951 
L 391.928581 60.62011 
L 395.207927 58.220246 
L 398.487273 55.820383 
" clip-path="url(#pf6493193de)" style="fill: none; stroke-dasharray: 5.55,2.4; stroke-dashoffset: 0; stroke: #808080; stroke-width: 1.5"/>
   </g>
   <g id="LineCollection_1">
    <path d="M 236.16 293.406345 
L 236.16 55.820383 
" clip-path="url(#pf6493193de)" style="fill: none; stroke-dasharray: 5.55,2.4; stroke-dashoffset: 0; stroke: #008000; stroke-width: 1.5"/>
   </g>
   <g id="patch_3">
    <path d="M 57.6 307.584 
L 57.6 41.472 
" style="fill: none; stroke: #ffffff; stroke-width: 0.8; stroke-linejoin: miter; stroke-linecap: square"/>
   </g>
   <g id="patch_4">
    <path d="M 414.72 307.584 
L 414.72 41.472 
" style="fill: none; stroke: #ffffff; stroke-width: 0.8; stroke-linejoin: miter; stroke-linecap: square"/>
   </g>
   <g id="patch_5">
    <path d="M 57.6 307.584 
L 414.72 307.584 
" style="fill: none; stroke: #ffffff; stroke-width: 0.8; stroke-linejoin: miter; stroke-linecap: square"/>
   </g>
   <g id="patch_6">
    <path d="M 57.6 41.472 
L 414.72 41.472 
" style="fill: none; stroke: #ffffff; stroke-width: 0.8; stroke-linejoin: miter; stroke-linecap: square"/>
   </g>
   <g id="text_13">
    <!-- $\sigma=1, n=2$ -->
    <g style="fill: #262626" transform="translate(203.1 35.472) scale(0.12 -0.12)">
     <defs>
      <path id="DejaVuSans-Oblique-3c3" d="M 2219 3044 
Q 1744 3044 1422 2700 
Q 1081 2341 969 1747 
Q 844 1119 1044 756 
Q 1241 397 1706 397 
Q 2166 397 2503 759 
Q 2844 1122 2966 1747 
Q 3075 2319 2881 2700 
Q 2700 3044 2219 3044 
z
M 2309 3503 
L 4219 3500 
L 4106 2925 
L 3463 2925 
Q 3706 2438 3575 1747 
Q 3406 888 2884 400 
Q 2359 -91 1609 -91 
Q 856 -91 525 400 
Q 194 888 363 1747 
Q 528 2609 1050 3097 
Q 1484 3503 2309 3503 
z
" transform="scale(0.015625)"/>
      <path id="DejaVuSans-3d" d="M 678 2906 
L 4684 2906 
L 4684 2381 
L 678 2381 
L 678 2906 
z
M 678 1631 
L 4684 1631 
L 4684 1100 
L 678 1100 
L 678 1631 
z
" transform="scale(0.015625)"/>
      <path id="DejaVuSans-31" d="M 794 531 
L 1825 531 
L 1825 4091 
L 703 3866 
L 703 4441 
L 1819 4666 
L 2450 4666 
L 2450 531 
L 3481 531 
L 3481 0 
L 794 0 
L 794 531 
z
" transform="scale(0.015625)"/>
      <path id="DejaVuSans-2c" d="M 750 794 
L 1409 794 
L 1409 256 
L 897 -744 
L 494 -744 
L 750 256 
L 750 794 
z
" transform="scale(0.015625)"/>
      <path id="DejaVuSans-32" d="M 1228 531 
L 3431 531 
L 3431 0 
L 469 0 
L 469 531 
Q 828 903 1448 1529 
Q 2069 2156 2228 2338 
Q 2531 2678 2651 2914 
Q 2772 3150 2772 3378 
Q 2772 3750 2511 3984 
Q 2250 4219 1831 4219 
Q 1534 4219 1204 4116 
Q 875 4013 500 3803 
L 500 4441 
Q 881 4594 1212 4672 
Q 1544 4750 1819 4750 
Q 2544 4750 2975 4387 
Q 3406 4025 3406 3419 
Q 3406 3131 3298 2873 
Q 3191 2616 2906 2266 
Q 2828 2175 2409 1742 
Q 1991 1309 1228 531 
z
" transform="scale(0.015625)"/>
     </defs>
     <use xlink:href="#DejaVuSans-Oblique-3c3" transform="translate(0 0.78125)"/>
     <use xlink:href="#DejaVuSans-3d" transform="translate(82.861328 0.78125)"/>
     <use xlink:href="#DejaVuSans-31" transform="translate(186.132812 0.78125)"/>
     <use xlink:href="#DejaVuSans-2c" transform="translate(249.755859 0.78125)"/>
     <use xlink:href="#DejaVuSans-Oblique-6e" transform="translate(301.025391 0.78125)"/>
     <use xlink:href="#DejaVuSans-3d" transform="translate(383.886719 0.78125)"/>
     <use xlink:href="#DejaVuSans-32" transform="translate(487.158203 0.78125)"/>
    </g>
   </g>
   <g id="legend_1">
    <g id="patch_7">
     <path d="M 302.42 302.584 
L 407.72 302.584 
Q 409.72 302.584 409.72 300.584 
L 409.72 230.248062 
Q 409.72 228.248062 407.72 228.248062 
L 302.42 228.248062 
Q 300.42 228.248062 300.42 230.248062 
L 300.42 300.584 
Q 300.42 302.584 302.42 302.584 
z
" style="fill: #eaeaf2; opacity: 0.8; stroke: #cccccc; stroke-linejoin: miter"/>
    </g>
    <g id="line2d_13">
     <path d="M 304.42 236.160562 
L 314.42 236.160562 
L 324.42 236.160562 
" style="fill: none; stroke: #0000ff; stroke-width: 1.5; stroke-linecap: round"/>
    </g>
    <g id="text_14">
     <!-- $E[x_{next}]$ -->
     <g style="fill: #262626" transform="translate(332.42 239.660562) scale(0.1 -0.1)">
      <defs>
       <path id="DejaVuSans-Oblique-45" d="M 1081 4666 
L 4031 4666 
L 3928 4134 
L 1606 4134 
L 1338 2753 
L 3566 2753 
L 3463 2222 
L 1234 2222 
L 909 531 
L 3284 531 
L 3181 0 
L 172 0 
L 1081 4666 
z
" transform="scale(0.015625)"/>
       <path id="DejaVuSans-5b" d="M 550 4863 
L 1875 4863 
L 1875 4416 
L 1125 4416 
L 1125 -397 
L 1875 -397 
L 1875 -844 
L 550 -844 
L 550 4863 
z
" transform="scale(0.015625)"/>
       <path id="DejaVuSans-5d" d="M 1947 4863 
L 1947 -844 
L 622 -844 
L 622 -397 
L 1369 -397 
L 1369 4416 
L 622 4416 
L 622 4863 
L 1947 4863 
z
" transform="scale(0.015625)"/>
      </defs>
      <use xlink:href="#DejaVuSans-Oblique-45" transform="translate(0 0.015625)"/>
      <use xlink:href="#DejaVuSans-5b" transform="translate(63.183594 0.015625)"/>
      <use xlink:href="#DejaVuSans-Oblique-78" transform="translate(102.197266 0.015625)"/>
      <use xlink:href="#DejaVuSans-Oblique-6e" transform="translate(161.376953 -16.390625) scale(0.7)"/>
      <use xlink:href="#DejaVuSans-Oblique-65" transform="translate(205.742188 -16.390625) scale(0.7)"/>
      <use xlink:href="#DejaVuSans-Oblique-78" transform="translate(248.808594 -16.390625) scale(0.7)"/>
      <use xlink:href="#DejaVuSans-Oblique-74" transform="translate(290.234375 -16.390625) scale(0.7)"/>
      <use xlink:href="#DejaVuSans-5d" transform="translate(320.415039 0.015625)"/>
     </g>
    </g>
    <g id="patch_8">
     <path d="M 304.42 253.805875 
L 324.42 253.805875 
L 324.42 246.805875 
L 304.42 246.805875 
z
" style="fill: #0000ff; fill-opacity: 0.5; stroke: #0000ff; stroke-opacity: 0.5; stroke-linejoin: miter"/>
    </g>
    <g id="text_15">
     <!-- 50% CI -->
     <g style="fill: #262626" transform="translate(332.42 253.805875) scale(0.1 -0.1)">
      <defs>
       <path id="ArialMT-35" d="M 266 1200 
L 856 1250 
Q 922 819 1161 601 
Q 1400 384 1738 384 
Q 2144 384 2425 690 
Q 2706 997 2706 1503 
Q 2706 1984 2436 2262 
Q 2166 2541 1728 2541 
Q 1456 2541 1237 2417 
Q 1019 2294 894 2097 
L 366 2166 
L 809 4519 
L 3088 4519 
L 3088 3981 
L 1259 3981 
L 1013 2750 
Q 1425 3038 1878 3038 
Q 2478 3038 2890 2622 
Q 3303 2206 3303 1553 
Q 3303 931 2941 478 
Q 2500 -78 1738 -78 
Q 1113 -78 717 272 
Q 322 622 266 1200 
z
" transform="scale(0.015625)"/>
       <path id="ArialMT-25" d="M 372 3481 
Q 372 3972 619 4315 
Q 866 4659 1334 4659 
Q 1766 4659 2048 4351 
Q 2331 4044 2331 3447 
Q 2331 2866 2045 2552 
Q 1759 2238 1341 2238 
Q 925 2238 648 2547 
Q 372 2856 372 3481 
z
M 1350 4272 
Q 1141 4272 1002 4090 
Q 863 3909 863 3425 
Q 863 2984 1003 2804 
Q 1144 2625 1350 2625 
Q 1563 2625 1702 2806 
Q 1841 2988 1841 3469 
Q 1841 3913 1700 4092 
Q 1559 4272 1350 4272 
z
M 1353 -169 
L 3859 4659 
L 4316 4659 
L 1819 -169 
L 1353 -169 
z
M 3334 1075 
Q 3334 1569 3581 1911 
Q 3828 2253 4300 2253 
Q 4731 2253 5014 1945 
Q 5297 1638 5297 1041 
Q 5297 459 5011 145 
Q 4725 -169 4303 -169 
Q 3888 -169 3611 142 
Q 3334 453 3334 1075 
z
M 4316 1866 
Q 4103 1866 3964 1684 
Q 3825 1503 3825 1019 
Q 3825 581 3965 400 
Q 4106 219 4313 219 
Q 4528 219 4667 400 
Q 4806 581 4806 1063 
Q 4806 1506 4665 1686 
Q 4525 1866 4316 1866 
z
" transform="scale(0.015625)"/>
       <path id="ArialMT-20" transform="scale(0.015625)"/>
       <path id="ArialMT-43" d="M 3763 1606 
L 4369 1453 
Q 4178 706 3683 314 
Q 3188 -78 2472 -78 
Q 1731 -78 1267 223 
Q 803 525 561 1097 
Q 319 1669 319 2325 
Q 319 3041 592 3573 
Q 866 4106 1370 4382 
Q 1875 4659 2481 4659 
Q 3169 4659 3637 4309 
Q 4106 3959 4291 3325 
L 3694 3184 
Q 3534 3684 3231 3912 
Q 2928 4141 2469 4141 
Q 1941 4141 1586 3887 
Q 1231 3634 1087 3207 
Q 944 2781 944 2328 
Q 944 1744 1114 1308 
Q 1284 872 1643 656 
Q 2003 441 2422 441 
Q 2931 441 3284 734 
Q 3638 1028 3763 1606 
z
" transform="scale(0.015625)"/>
       <path id="ArialMT-49" d="M 597 0 
L 597 4581 
L 1203 4581 
L 1203 0 
L 597 0 
z
" transform="scale(0.015625)"/>
      </defs>
      <use xlink:href="#ArialMT-35"/>
      <use xlink:href="#ArialMT-30" transform="translate(55.615234 0)"/>
      <use xlink:href="#ArialMT-25" transform="translate(111.230469 0)"/>
      <use xlink:href="#ArialMT-20" transform="translate(200.146484 0)"/>
      <use xlink:href="#ArialMT-43" transform="translate(227.929688 0)"/>
      <use xlink:href="#ArialMT-49" transform="translate(300.146484 0)"/>
     </g>
    </g>
    <g id="patch_9">
     <path d="M 304.42 267.951187 
L 324.42 267.951187 
L 324.42 260.951187 
L 304.42 260.951187 
z
" style="fill: #0000ff; fill-opacity: 0.3; stroke: #0000ff; stroke-opacity: 0.3; stroke-linejoin: miter"/>
    </g>
    <g id="text_16">
     <!-- 90% CI -->
     <g style="fill: #262626" transform="translate(332.42 267.951187) scale(0.1 -0.1)">
      <defs>
       <path id="ArialMT-39" d="M 350 1059 
L 891 1109 
Q 959 728 1153 556 
Q 1347 384 1650 384 
Q 1909 384 2104 503 
Q 2300 622 2425 820 
Q 2550 1019 2634 1356 
Q 2719 1694 2719 2044 
Q 2719 2081 2716 2156 
Q 2547 1888 2255 1720 
Q 1963 1553 1622 1553 
Q 1053 1553 659 1965 
Q 266 2378 266 3053 
Q 266 3750 677 4175 
Q 1088 4600 1706 4600 
Q 2153 4600 2523 4359 
Q 2894 4119 3086 3673 
Q 3278 3228 3278 2384 
Q 3278 1506 3087 986 
Q 2897 466 2520 194 
Q 2144 -78 1638 -78 
Q 1100 -78 759 220 
Q 419 519 350 1059 
z
M 2653 3081 
Q 2653 3566 2395 3850 
Q 2138 4134 1775 4134 
Q 1400 4134 1122 3828 
Q 844 3522 844 3034 
Q 844 2597 1108 2323 
Q 1372 2050 1759 2050 
Q 2150 2050 2401 2323 
Q 2653 2597 2653 3081 
z
" transform="scale(0.015625)"/>
      </defs>
      <use xlink:href="#ArialMT-39"/>
      <use xlink:href="#ArialMT-30" transform="translate(55.615234 0)"/>
      <use xlink:href="#ArialMT-25" transform="translate(111.230469 0)"/>
      <use xlink:href="#ArialMT-20" transform="translate(200.146484 0)"/>
      <use xlink:href="#ArialMT-43" transform="translate(227.929688 0)"/>
      <use xlink:href="#ArialMT-49" transform="translate(300.146484 0)"/>
     </g>
    </g>
    <g id="line2d_14">
     <path d="M 304.42 278.5965 
L 314.42 278.5965 
L 324.42 278.5965 
" style="fill: none; stroke-dasharray: 5.55,2.4; stroke-dashoffset: 0; stroke: #808080; stroke-width: 1.5"/>
    </g>
    <g id="text_17">
     <!-- $x=x_{next}$ -->
     <g style="fill: #262626" transform="translate(332.42 282.0965) scale(0.1 -0.1)">
      <use xlink:href="#DejaVuSans-Oblique-78" transform="translate(0 0.3125)"/>
      <use xlink:href="#DejaVuSans-3d" transform="translate(78.662109 0.3125)"/>
      <use xlink:href="#DejaVuSans-Oblique-78" transform="translate(181.933594 0.3125)"/>
      <use xlink:href="#DejaVuSans-Oblique-6e" transform="translate(241.113281 -16.09375) scale(0.7)"/>
      <use xlink:href="#DejaVuSans-Oblique-65" transform="translate(285.478516 -16.09375) scale(0.7)"/>
      <use xlink:href="#DejaVuSans-Oblique-78" transform="translate(328.544922 -16.09375) scale(0.7)"/>
      <use xlink:href="#DejaVuSans-Oblique-74" transform="translate(369.970703 -16.09375) scale(0.7)"/>
     </g>
    </g>
    <g id="line2d_15">
     <path d="M 304.42 292.884 
L 324.42 292.884 
" style="fill: none; stroke-dasharray: 5.55,2.4; stroke-dashoffset: 0; stroke: #008000; stroke-width: 1.5"/>
    </g>
    <g id="text_18">
     <!-- mode of target $\pi$ -->
     <g style="fill: #262626" transform="translate(332.42 296.384) scale(0.1 -0.1)">
      <defs>
       <path id="ArialMT-6d" d="M 422 0 
L 422 3319 
L 925 3319 
L 925 2853 
Q 1081 3097 1340 3245 
Q 1600 3394 1931 3394 
Q 2300 3394 2536 3241 
Q 2772 3088 2869 2813 
Q 3263 3394 3894 3394 
Q 4388 3394 4653 3120 
Q 4919 2847 4919 2278 
L 4919 0 
L 4359 0 
L 4359 2091 
Q 4359 2428 4304 2576 
Q 4250 2725 4106 2815 
Q 3963 2906 3769 2906 
Q 3419 2906 3187 2673 
Q 2956 2441 2956 1928 
L 2956 0 
L 2394 0 
L 2394 2156 
Q 2394 2531 2256 2718 
Q 2119 2906 1806 2906 
Q 1569 2906 1367 2781 
Q 1166 2656 1075 2415 
Q 984 2175 984 1722 
L 984 0 
L 422 0 
z
" transform="scale(0.015625)"/>
       <path id="ArialMT-6f" d="M 213 1659 
Q 213 2581 725 3025 
Q 1153 3394 1769 3394 
Q 2453 3394 2887 2945 
Q 3322 2497 3322 1706 
Q 3322 1066 3130 698 
Q 2938 331 2570 128 
Q 2203 -75 1769 -75 
Q 1072 -75 642 372 
Q 213 819 213 1659 
z
M 791 1659 
Q 791 1022 1069 705 
Q 1347 388 1769 388 
Q 2188 388 2466 706 
Q 2744 1025 2744 1678 
Q 2744 2294 2464 2611 
Q 2184 2928 1769 2928 
Q 1347 2928 1069 2612 
Q 791 2297 791 1659 
z
" transform="scale(0.015625)"/>
       <path id="ArialMT-64" d="M 2575 0 
L 2575 419 
Q 2259 -75 1647 -75 
Q 1250 -75 917 144 
Q 584 363 401 755 
Q 219 1147 219 1656 
Q 219 2153 384 2558 
Q 550 2963 881 3178 
Q 1213 3394 1622 3394 
Q 1922 3394 2156 3267 
Q 2391 3141 2538 2938 
L 2538 4581 
L 3097 4581 
L 3097 0 
L 2575 0 
z
M 797 1656 
Q 797 1019 1065 703 
Q 1334 388 1700 388 
Q 2069 388 2326 689 
Q 2584 991 2584 1609 
Q 2584 2291 2321 2609 
Q 2059 2928 1675 2928 
Q 1300 2928 1048 2622 
Q 797 2316 797 1656 
z
" transform="scale(0.015625)"/>
       <path id="ArialMT-65" d="M 2694 1069 
L 3275 997 
Q 3138 488 2766 206 
Q 2394 -75 1816 -75 
Q 1088 -75 661 373 
Q 234 822 234 1631 
Q 234 2469 665 2931 
Q 1097 3394 1784 3394 
Q 2450 3394 2872 2941 
Q 3294 2488 3294 1666 
Q 3294 1616 3291 1516 
L 816 1516 
Q 847 969 1125 678 
Q 1403 388 1819 388 
Q 2128 388 2347 550 
Q 2566 713 2694 1069 
z
M 847 1978 
L 2700 1978 
Q 2663 2397 2488 2606 
Q 2219 2931 1791 2931 
Q 1403 2931 1139 2672 
Q 875 2413 847 1978 
z
" transform="scale(0.015625)"/>
       <path id="ArialMT-66" d="M 556 0 
L 556 2881 
L 59 2881 
L 59 3319 
L 556 3319 
L 556 3672 
Q 556 4006 616 4169 
Q 697 4388 901 4523 
Q 1106 4659 1475 4659 
Q 1713 4659 2000 4603 
L 1916 4113 
Q 1741 4144 1584 4144 
Q 1328 4144 1222 4034 
Q 1116 3925 1116 3625 
L 1116 3319 
L 1763 3319 
L 1763 2881 
L 1116 2881 
L 1116 0 
L 556 0 
z
" transform="scale(0.015625)"/>
       <path id="ArialMT-74" d="M 1650 503 
L 1731 6 
Q 1494 -44 1306 -44 
Q 1000 -44 831 53 
Q 663 150 594 308 
Q 525 466 525 972 
L 525 2881 
L 113 2881 
L 113 3319 
L 525 3319 
L 525 4141 
L 1084 4478 
L 1084 3319 
L 1650 3319 
L 1650 2881 
L 1084 2881 
L 1084 941 
Q 1084 700 1114 631 
Q 1144 563 1211 522 
Q 1278 481 1403 481 
Q 1497 481 1650 503 
z
" transform="scale(0.015625)"/>
       <path id="ArialMT-61" d="M 2588 409 
Q 2275 144 1986 34 
Q 1697 -75 1366 -75 
Q 819 -75 525 192 
Q 231 459 231 875 
Q 231 1119 342 1320 
Q 453 1522 633 1644 
Q 813 1766 1038 1828 
Q 1203 1872 1538 1913 
Q 2219 1994 2541 2106 
Q 2544 2222 2544 2253 
Q 2544 2597 2384 2738 
Q 2169 2928 1744 2928 
Q 1347 2928 1158 2789 
Q 969 2650 878 2297 
L 328 2372 
Q 403 2725 575 2942 
Q 747 3159 1072 3276 
Q 1397 3394 1825 3394 
Q 2250 3394 2515 3294 
Q 2781 3194 2906 3042 
Q 3031 2891 3081 2659 
Q 3109 2516 3109 2141 
L 3109 1391 
Q 3109 606 3145 398 
Q 3181 191 3288 0 
L 2700 0 
Q 2613 175 2588 409 
z
M 2541 1666 
Q 2234 1541 1622 1453 
Q 1275 1403 1131 1340 
Q 988 1278 909 1158 
Q 831 1038 831 891 
Q 831 666 1001 516 
Q 1172 366 1500 366 
Q 1825 366 2078 508 
Q 2331 650 2450 897 
Q 2541 1088 2541 1459 
L 2541 1666 
z
" transform="scale(0.015625)"/>
       <path id="ArialMT-72" d="M 416 0 
L 416 3319 
L 922 3319 
L 922 2816 
Q 1116 3169 1280 3281 
Q 1444 3394 1641 3394 
Q 1925 3394 2219 3213 
L 2025 2691 
Q 1819 2813 1613 2813 
Q 1428 2813 1281 2702 
Q 1134 2591 1072 2394 
Q 978 2094 978 1738 
L 978 0 
L 416 0 
z
" transform="scale(0.015625)"/>
       <path id="ArialMT-67" d="M 319 -275 
L 866 -356 
Q 900 -609 1056 -725 
Q 1266 -881 1628 -881 
Q 2019 -881 2231 -725 
Q 2444 -569 2519 -288 
Q 2563 -116 2559 434 
Q 2191 0 1641 0 
Q 956 0 581 494 
Q 206 988 206 1678 
Q 206 2153 378 2554 
Q 550 2956 876 3175 
Q 1203 3394 1644 3394 
Q 2231 3394 2613 2919 
L 2613 3319 
L 3131 3319 
L 3131 450 
Q 3131 -325 2973 -648 
Q 2816 -972 2473 -1159 
Q 2131 -1347 1631 -1347 
Q 1038 -1347 672 -1080 
Q 306 -813 319 -275 
z
M 784 1719 
Q 784 1066 1043 766 
Q 1303 466 1694 466 
Q 2081 466 2343 764 
Q 2606 1063 2606 1700 
Q 2606 2309 2336 2618 
Q 2066 2928 1684 2928 
Q 1309 2928 1046 2623 
Q 784 2319 784 1719 
z
" transform="scale(0.015625)"/>
       <path id="DejaVuSans-Oblique-3c0" d="M 584 3500 
L 3938 3500 
L 3825 2925 
L 3384 2925 
L 2966 775 
Q 2922 550 2981 450 
Q 3038 353 3209 353 
Q 3256 353 3325 363 
Q 3397 369 3419 372 
L 3338 -44 
Q 3222 -84 3103 -103 
Q 2981 -122 2866 -122 
Q 2491 -122 2388 81 
Q 2284 288 2391 838 
L 2797 2925 
L 1506 2925 
L 938 0 
L 350 0 
L 919 2925 
L 472 2925 
L 584 3500 
z
" transform="scale(0.015625)"/>
      </defs>
      <use xlink:href="#ArialMT-6d" transform="translate(0 0.203125)"/>
      <use xlink:href="#ArialMT-6f" transform="translate(83.300781 0.203125)"/>
      <use xlink:href="#ArialMT-64" transform="translate(138.916016 0.203125)"/>
      <use xlink:href="#ArialMT-65" transform="translate(194.53125 0.203125)"/>
      <use xlink:href="#ArialMT-20" transform="translate(250.146484 0.203125)"/>
      <use xlink:href="#ArialMT-6f" transform="translate(277.929688 0.203125)"/>
      <use xlink:href="#ArialMT-66" transform="translate(333.544922 0.203125)"/>
      <use xlink:href="#ArialMT-20" transform="translate(361.328125 0.203125)"/>
      <use xlink:href="#ArialMT-74" transform="translate(389.111328 0.203125)"/>
      <use xlink:href="#ArialMT-61" transform="translate(416.894531 0.203125)"/>
      <use xlink:href="#ArialMT-72" transform="translate(472.509766 0.203125)"/>
      <use xlink:href="#ArialMT-67" transform="translate(505.810547 0.203125)"/>
      <use xlink:href="#ArialMT-65" transform="translate(561.425781 0.203125)"/>
      <use xlink:href="#ArialMT-74" transform="translate(617.041016 0.203125)"/>
      <use xlink:href="#ArialMT-20" transform="translate(644.824219 0.203125)"/>
      <use xlink:href="#DejaVuSans-Oblique-3c0" transform="translate(672.607422 0.203125)"/>
     </g>
    </g>
   </g>
  </g>
 </g>
 <defs>
  <clipPath id="pf6493193de">
   <rect x="57.6" y="41.472" width="357.12" height="266.112"/>
  </clipPath>
 </defs>
</svg>
