<?xml version="1.0" encoding="utf-8" standalone="no"?>
<!DOCTYPE svg PUBLIC "-//W3C//DTD SVG 1.1//EN"
  "http://www.w3.org/Graphics/SVG/1.1/DTD/svg11.dtd">
<svg xmlns:xlink="http://www.w3.org/1999/xlink" width="460.8pt" height="345.6pt" viewBox="0 0 460.8 345.6" xmlns="http://www.w3.org/2000/svg" version="1.1">
 <metadata>
  <rdf:RDF xmlns:dc="http://purl.org/dc/elements/1.1/" xmlns:cc="http://creativecommons.org/ns#" xmlns:rdf="http://www.w3.org/1999/02/22-rdf-syntax-ns#">
   <cc:Work>
    <dc:type rdf:resource="http://purl.org/dc/dcmitype/StillImage"/>
    <dc:date>2025-04-11T13:16:15.083703</dc:date>
    <dc:format>image/svg+xml</dc:format>
    <dc:creator>
     <cc:Agent>
      <dc:title>Matplotlib v3.10.1, https://matplotlib.org/</dc:title>
     </cc:Agent>
    </dc:creator>
   </cc:Work>
  </rdf:RDF>
 </metadata>
 <defs>
  <style type="text/css">*{stroke-linejoin: round; stroke-linecap: butt}</style>
 </defs>
 <g id="figure_1">
  <g id="patch_1">
   <path d="M 0 345.6 
L 460.8 345.6 
L 460.8 0 
L 0 0 
z
" style="fill: #ffffff"/>
  </g>
  <g id="axes_1">
   <g id="patch_2">
    <path d="M 57.6 307.584 
L 414.72 307.584 
L 414.72 41.472 
L 57.6 41.472 
z
" style="fill: #eaeaf2"/>
   </g>
   <g id="matplotlib.axis_1">
    <g id="xtick_1">
     <g id="line2d_1">
      <path d="M 106.298182 307.584 
L 106.298182 41.472 
" clip-path="url(#pe76a948dac)" style="fill: none; stroke: #ffffff; stroke-width: 0.8; stroke-linecap: round"/>
     </g>
     <g id="text_1">
      <!-- −4 -->
      <g style="fill: #262626" transform="translate(100.597401 321.741812) scale(0.1 -0.1)">
       <defs>
        <path id="ArialMT-2212" d="M 3381 1997 
L 356 1997 
L 356 2522 
L 3381 2522 
L 3381 1997 
z
" transform="scale(0.015625)"/>
        <path id="ArialMT-34" d="M 2069 0 
L 2069 1097 
L 81 1097 
L 81 1613 
L 2172 4581 
L 2631 4581 
L 2631 1613 
L 3250 1613 
L 3250 1097 
L 2631 1097 
L 2631 0 
L 2069 0 
z
M 2069 1613 
L 2069 3678 
L 634 1613 
L 2069 1613 
z
" transform="scale(0.015625)"/>
       </defs>
       <use xlink:href="#ArialMT-2212"/>
       <use xlink:href="#ArialMT-34" transform="translate(58.398438 0)"/>
      </g>
     </g>
    </g>
    <g id="xtick_2">
     <g id="line2d_2">
      <path d="M 171.229091 307.584 
L 171.229091 41.472 
" clip-path="url(#pe76a948dac)" style="fill: none; stroke: #ffffff; stroke-width: 0.8; stroke-linecap: round"/>
     </g>
     <g id="text_2">
      <!-- −2 -->
      <g style="fill: #262626" transform="translate(165.52831 321.741812) scale(0.1 -0.1)">
       <defs>
        <path id="ArialMT-32" d="M 3222 541 
L 3222 0 
L 194 0 
Q 188 203 259 391 
Q 375 700 629 1000 
Q 884 1300 1366 1694 
Q 2113 2306 2375 2664 
Q 2638 3022 2638 3341 
Q 2638 3675 2398 3904 
Q 2159 4134 1775 4134 
Q 1369 4134 1125 3890 
Q 881 3647 878 3216 
L 300 3275 
Q 359 3922 746 4261 
Q 1134 4600 1788 4600 
Q 2447 4600 2831 4234 
Q 3216 3869 3216 3328 
Q 3216 3053 3103 2787 
Q 2991 2522 2730 2228 
Q 2469 1934 1863 1422 
Q 1356 997 1212 845 
Q 1069 694 975 541 
L 3222 541 
z
" transform="scale(0.015625)"/>
       </defs>
       <use xlink:href="#ArialMT-2212"/>
       <use xlink:href="#ArialMT-32" transform="translate(58.398438 0)"/>
      </g>
     </g>
    </g>
    <g id="xtick_3">
     <g id="line2d_3">
      <path d="M 236.16 307.584 
L 236.16 41.472 
" clip-path="url(#pe76a948dac)" style="fill: none; stroke: #ffffff; stroke-width: 0.8; stroke-linecap: round"/>
     </g>
     <g id="text_3">
      <!-- 0 -->
      <g style="fill: #262626" transform="translate(233.379531 321.741812) scale(0.1 -0.1)">
       <defs>
        <path id="ArialMT-30" d="M 266 2259 
Q 266 3072 433 3567 
Q 600 4063 929 4331 
Q 1259 4600 1759 4600 
Q 2128 4600 2406 4451 
Q 2684 4303 2865 4023 
Q 3047 3744 3150 3342 
Q 3253 2941 3253 2259 
Q 3253 1453 3087 958 
Q 2922 463 2592 192 
Q 2263 -78 1759 -78 
Q 1097 -78 719 397 
Q 266 969 266 2259 
z
M 844 2259 
Q 844 1131 1108 757 
Q 1372 384 1759 384 
Q 2147 384 2411 759 
Q 2675 1134 2675 2259 
Q 2675 3391 2411 3762 
Q 2147 4134 1753 4134 
Q 1366 4134 1134 3806 
Q 844 3388 844 2259 
z
" transform="scale(0.015625)"/>
       </defs>
       <use xlink:href="#ArialMT-30"/>
      </g>
     </g>
    </g>
    <g id="xtick_4">
     <g id="line2d_4">
      <path d="M 301.090909 307.584 
L 301.090909 41.472 
" clip-path="url(#pe76a948dac)" style="fill: none; stroke: #ffffff; stroke-width: 0.8; stroke-linecap: round"/>
     </g>
     <g id="text_4">
      <!-- 2 -->
      <g style="fill: #262626" transform="translate(298.31044 321.741812) scale(0.1 -0.1)">
       <use xlink:href="#ArialMT-32"/>
      </g>
     </g>
    </g>
    <g id="xtick_5">
     <g id="line2d_5">
      <path d="M 366.021818 307.584 
L 366.021818 41.472 
" clip-path="url(#pe76a948dac)" style="fill: none; stroke: #ffffff; stroke-width: 0.8; stroke-linecap: round"/>
     </g>
     <g id="text_5">
      <!-- 4 -->
      <g style="fill: #262626" transform="translate(363.241349 321.741812) scale(0.1 -0.1)">
       <use xlink:href="#ArialMT-34"/>
      </g>
     </g>
    </g>
    <g id="text_6">
     <!-- $x$ -->
     <g style="fill: #262626" transform="translate(233.16 334.887125) scale(0.1 -0.1)">
      <defs>
       <path id="DejaVuSans-Oblique-78" d="M 3841 3500 
L 2234 1784 
L 3219 0 
L 2559 0 
L 1819 1388 
L 531 0 
L -166 0 
L 1556 1844 
L 641 3500 
L 1300 3500 
L 1972 2234 
L 3144 3500 
L 3841 3500 
z
" transform="scale(0.015625)"/>
      </defs>
      <use xlink:href="#DejaVuSans-Oblique-78" transform="translate(0 0.3125)"/>
     </g>
    </g>
   </g>
   <g id="matplotlib.axis_2">
    <g id="ytick_1">
     <g id="line2d_6">
      <path d="M 57.6 271.296 
L 414.72 271.296 
" clip-path="url(#pe76a948dac)" style="fill: none; stroke: #ffffff; stroke-width: 0.8; stroke-linecap: round"/>
     </g>
     <g id="text_7">
      <!-- −4 -->
      <g style="fill: #262626" transform="translate(39.198437 274.874906) scale(0.1 -0.1)">
       <use xlink:href="#ArialMT-2212"/>
       <use xlink:href="#ArialMT-34" transform="translate(58.398438 0)"/>
      </g>
     </g>
    </g>
    <g id="ytick_2">
     <g id="line2d_7">
      <path d="M 57.6 222.912 
L 414.72 222.912 
" clip-path="url(#pe76a948dac)" style="fill: none; stroke: #ffffff; stroke-width: 0.8; stroke-linecap: round"/>
     </g>
     <g id="text_8">
      <!-- −2 -->
      <g style="fill: #262626" transform="translate(39.198437 226.490906) scale(0.1 -0.1)">
       <use xlink:href="#ArialMT-2212"/>
       <use xlink:href="#ArialMT-32" transform="translate(58.398438 0)"/>
      </g>
     </g>
    </g>
    <g id="ytick_3">
     <g id="line2d_8">
      <path d="M 57.6 174.528 
L 414.72 174.528 
" clip-path="url(#pe76a948dac)" style="fill: none; stroke: #ffffff; stroke-width: 0.8; stroke-linecap: round"/>
     </g>
     <g id="text_9">
      <!-- 0 -->
      <g style="fill: #262626" transform="translate(45.039062 178.106906) scale(0.1 -0.1)">
       <use xlink:href="#ArialMT-30"/>
      </g>
     </g>
    </g>
    <g id="ytick_4">
     <g id="line2d_9">
      <path d="M 57.6 126.144 
L 414.72 126.144 
" clip-path="url(#pe76a948dac)" style="fill: none; stroke: #ffffff; stroke-width: 0.8; stroke-linecap: round"/>
     </g>
     <g id="text_10">
      <!-- 2 -->
      <g style="fill: #262626" transform="translate(45.039062 129.722906) scale(0.1 -0.1)">
       <use xlink:href="#ArialMT-32"/>
      </g>
     </g>
    </g>
    <g id="ytick_5">
     <g id="line2d_10">
      <path d="M 57.6 77.76 
L 414.72 77.76 
" clip-path="url(#pe76a948dac)" style="fill: none; stroke: #ffffff; stroke-width: 0.8; stroke-linecap: round"/>
     </g>
     <g id="text_11">
      <!-- 4 -->
      <g style="fill: #262626" transform="translate(45.039062 81.338906) scale(0.1 -0.1)">
       <use xlink:href="#ArialMT-34"/>
      </g>
     </g>
    </g>
    <g id="text_12">
     <!-- $x_{next}$ -->
     <g style="fill: #262626" transform="translate(33.210938 185.478) rotate(-90) scale(0.1 -0.1)">
      <defs>
       <path id="DejaVuSans-Oblique-6e" d="M 3566 2113 
L 3156 0 
L 2578 0 
L 2988 2091 
Q 3016 2238 3031 2350 
Q 3047 2463 3047 2528 
Q 3047 2791 2881 2937 
Q 2716 3084 2419 3084 
Q 1956 3084 1622 2776 
Q 1288 2469 1184 1941 
L 800 0 
L 225 0 
L 903 3500 
L 1478 3500 
L 1363 2950 
Q 1603 3253 1940 3418 
Q 2278 3584 2650 3584 
Q 3113 3584 3367 3334 
Q 3622 3084 3622 2631 
Q 3622 2519 3608 2391 
Q 3594 2263 3566 2113 
z
" transform="scale(0.015625)"/>
       <path id="DejaVuSans-Oblique-65" d="M 3078 2063 
Q 3088 2113 3092 2166 
Q 3097 2219 3097 2272 
Q 3097 2653 2873 2875 
Q 2650 3097 2266 3097 
Q 1838 3097 1509 2826 
Q 1181 2556 1013 2059 
L 3078 2063 
z
M 3578 1613 
L 903 1613 
Q 884 1494 878 1425 
Q 872 1356 872 1306 
Q 872 872 1139 634 
Q 1406 397 1894 397 
Q 2269 397 2603 481 
Q 2938 566 3225 728 
L 3116 159 
Q 2806 34 2476 -28 
Q 2147 -91 1806 -91 
Q 1078 -91 686 257 
Q 294 606 294 1247 
Q 294 1794 489 2264 
Q 684 2734 1063 3103 
Q 1306 3334 1642 3459 
Q 1978 3584 2356 3584 
Q 2950 3584 3301 3228 
Q 3653 2872 3653 2272 
Q 3653 2128 3634 1964 
Q 3616 1800 3578 1613 
z
" transform="scale(0.015625)"/>
       <path id="DejaVuSans-Oblique-74" d="M 2706 3500 
L 2619 3053 
L 1472 3053 
L 1100 1153 
Q 1081 1047 1072 975 
Q 1063 903 1063 863 
Q 1063 663 1183 572 
Q 1303 481 1569 481 
L 2150 481 
L 2053 0 
L 1503 0 
Q 991 0 739 200 
Q 488 400 488 806 
Q 488 878 497 964 
Q 506 1050 525 1153 
L 897 3053 
L 409 3053 
L 500 3500 
L 978 3500 
L 1172 4494 
L 1747 4494 
L 1556 3500 
L 2706 3500 
z
" transform="scale(0.015625)"/>
      </defs>
      <use xlink:href="#DejaVuSans-Oblique-78" transform="translate(0 0.3125)"/>
      <use xlink:href="#DejaVuSans-Oblique-6e" transform="translate(59.179688 -16.09375) scale(0.7)"/>
      <use xlink:href="#DejaVuSans-Oblique-65" transform="translate(103.544922 -16.09375) scale(0.7)"/>
      <use xlink:href="#DejaVuSans-Oblique-78" transform="translate(146.611328 -16.09375) scale(0.7)"/>
      <use xlink:href="#DejaVuSans-Oblique-74" transform="translate(188.037109 -16.09375) scale(0.7)"/>
     </g>
    </g>
   </g>
   <g id="FillBetweenPolyCollection_1">
    <defs>
     <path id="m9686a55d67" d="M 73.832727 -115.638787 
L 73.832727 -72.234552 
L 77.112073 -74.603102 
L 80.391404 -76.804501 
L 83.670734 -79.047394 
L 86.95008 -81.351183 
L 90.229426 -83.692134 
L 93.508757 -86.095038 
L 96.788103 -88.314352 
L 100.067434 -90.818959 
L 103.34678 -93.204761 
L 106.62611 -95.348528 
L 109.905456 -97.619729 
L 113.184795 -99.662167 
L 116.464133 -102.004145 
L 119.743479 -103.900184 
L 123.022809 -106.212781 
L 126.302148 -108.76296 
L 129.581486 -111.034213 
L 132.860824 -113.011682 
L 136.140163 -115.360068 
L 139.419493 -117.38954 
L 142.698847 -119.468886 
L 145.978178 -121.1899 
L 149.257516 -123.679555 
L 152.536862 -125.395231 
L 155.816192 -127.74625 
L 159.095538 -129.503628 
L 162.374869 -131.359168 
L 165.654215 -133.104462 
L 168.933553 -135.24159 
L 172.212892 -136.761988 
L 175.492234 -138.380739 
L 178.771564 -140.031403 
L 182.050914 -141.682065 
L 185.330245 -143.019216 
L 188.609583 -144.403782 
L 191.888925 -145.800662 
L 195.168256 -147.099262 
L 198.447606 -147.941597 
L 201.726936 -148.913395 
L 205.006277 -150.154642 
L 208.285621 -151.060939 
L 211.564957 -151.81291 
L 214.844301 -152.606034 
L 218.123628 -153.069377 
L 221.402982 -153.656747 
L 224.682308 -154.268429 
L 227.961652 -154.705663 
L 231.240996 -155.367117 
L 234.520323 -155.738709 
L 237.799667 -156.054967 
L 241.079004 -156.475447 
L 244.358348 -156.758607 
L 247.637684 -157.224011 
L 250.917028 -157.872966 
L 254.196364 -158.205151 
L 257.475699 -158.775832 
L 260.755035 -159.314957 
L 264.034379 -159.7251 
L 267.313716 -160.493725 
L 270.59306 -161.137608 
L 273.872394 -161.730407 
L 277.151733 -162.51809 
L 280.431067 -163.286236 
L 283.710409 -164.123979 
L 286.989755 -165.047414 
L 290.269093 -166.129816 
L 293.548424 -166.803892 
L 296.827762 -168.055845 
L 300.107108 -169.27038 
L 303.386439 -170.619449 
L 306.665785 -171.418441 
L 309.945123 -173.033322 
L 313.224462 -174.134412 
L 316.503792 -175.569386 
L 319.783138 -177.063493 
L 323.062476 -178.658102 
L 326.341815 -180.089395 
L 329.621153 -181.84477 
L 332.900491 -183.519808 
L 336.179822 -185.314037 
L 339.459168 -187.062581 
L 342.738514 -189.033474 
L 346.01786 -191.263978 
L 349.297191 -193.110448 
L 352.576521 -195.291948 
L 355.855867 -197.222709 
L 359.135213 -199.683352 
L 362.414536 -201.711632 
L 365.693882 -203.809121 
L 368.97322 -205.920865 
L 372.252566 -208.225303 
L 375.531881 -210.646367 
L 378.811227 -212.703383 
L 382.090574 -214.932626 
L 385.36992 -217.468858 
L 388.649266 -219.812128 
L 391.928581 -222.206853 
L 395.207927 -224.179835 
L 398.487273 -226.649663 
L 398.487273 -270.254976 
L 398.487273 -270.254976 
L 395.207927 -267.742062 
L 391.928581 -265.188174 
L 388.649266 -262.803849 
L 385.36992 -260.673192 
L 382.090574 -258.491773 
L 378.811227 -256.21984 
L 375.531881 -253.714442 
L 372.252566 -251.3194 
L 368.97322 -248.976845 
L 365.693882 -246.834059 
L 362.414536 -244.431634 
L 359.135213 -242.236798 
L 355.855867 -240.088861 
L 352.576521 -237.969758 
L 349.297191 -235.639263 
L 346.01786 -233.457417 
L 342.738514 -231.303695 
L 339.459168 -228.976292 
L 336.179822 -226.749913 
L 332.900491 -224.900824 
L 329.621153 -222.654465 
L 326.341815 -220.519581 
L 323.062476 -218.68488 
L 319.783138 -216.614886 
L 316.503792 -214.606118 
L 313.224462 -212.748922 
L 309.945123 -210.992771 
L 306.665785 -208.973444 
L 303.386439 -207.292153 
L 300.107108 -205.521939 
L 296.827762 -203.602768 
L 293.548424 -201.955556 
L 290.269093 -200.559937 
L 286.989755 -199.158584 
L 283.710409 -197.75499 
L 280.431067 -196.333677 
L 277.151733 -195.282901 
L 273.872394 -193.946145 
L 270.59306 -193.209375 
L 267.313716 -192.025991 
L 264.034379 -191.16968 
L 260.755035 -190.19129 
L 257.475699 -189.589015 
L 254.196364 -188.813074 
L 250.917028 -188.520719 
L 247.637684 -187.796752 
L 244.358348 -187.34909 
L 241.079004 -186.761375 
L 237.799667 -186.506387 
L 234.520323 -186.070853 
L 231.240996 -185.632834 
L 227.961652 -185.160383 
L 224.682308 -184.772724 
L 221.402982 -184.283058 
L 218.123628 -183.860225 
L 214.844301 -183.305222 
L 211.564957 -182.958134 
L 208.285621 -182.405872 
L 205.006277 -181.821847 
L 201.726936 -181.067042 
L 198.447606 -180.355153 
L 195.168256 -179.743574 
L 191.888925 -178.922045 
L 188.609583 -177.942411 
L 185.330245 -176.893912 
L 182.050914 -176.250966 
L 178.771564 -175.161808 
L 175.492234 -174.079556 
L 172.212892 -172.942745 
L 168.933553 -172.032509 
L 165.654215 -170.449164 
L 162.374869 -169.236667 
L 159.095538 -168.155616 
L 155.816192 -166.61621 
L 152.536862 -165.028846 
L 149.257516 -163.53401 
L 145.978178 -161.944933 
L 142.698847 -160.360941 
L 139.419493 -158.795818 
L 136.140163 -156.601451 
L 132.860824 -154.792121 
L 129.581486 -153.08671 
L 126.302148 -150.564697 
L 123.022809 -149.002181 
L 119.743479 -146.664725 
L 116.464133 -144.764628 
L 113.184795 -142.504902 
L 109.905456 -140.385294 
L 106.62611 -138.270153 
L 103.34678 -136.124191 
L 100.067434 -133.851098 
L 96.788103 -131.324795 
L 93.508757 -129.199837 
L 90.229426 -126.789908 
L 86.95008 -124.561521 
L 83.670734 -122.650648 
L 80.391404 -120.083021 
L 77.112073 -117.660212 
L 73.832727 -115.638787 
z
" style="stroke: #0000ff; stroke-opacity: 0.5"/>
    </defs>
    <g clip-path="url(#pe76a948dac)">
     <use xlink:href="#m9686a55d67" x="0" y="345.6" style="fill: #0000ff; fill-opacity: 0.5; stroke: #0000ff; stroke-opacity: 0.5"/>
    </g>
   </g>
   <g id="FillBetweenPolyCollection_2">
    <defs>
     <path id="maf7ddd7aaf" d="M 73.832727 -153.561187 
L 73.832727 -50.535566 
L 77.112073 -52.807396 
L 80.391404 -55.131667 
L 83.670734 -57.442902 
L 86.95008 -59.886544 
L 90.229426 -62.330186 
L 93.508757 -64.773816 
L 96.788103 -67.217457 
L 100.067434 -69.661088 
L 103.34678 -72.104729 
L 106.62611 -74.54836 
L 109.905456 -76.992001 
L 113.184795 -79.435637 
L 116.464133 -81.769315 
L 119.743479 -83.864552 
L 123.022809 -86.23928 
L 126.302148 -88.149934 
L 129.581486 -90.589861 
L 132.860824 -92.562295 
L 136.140163 -94.345475 
L 139.419493 -96.530176 
L 142.698847 -98.669686 
L 145.978178 -100.474017 
L 149.257516 -102.63041 
L 152.536862 -104.383326 
L 155.816192 -106.579557 
L 159.095538 -108.090882 
L 162.374869 -109.70567 
L 165.654215 -111.67364 
L 168.933553 -113.225801 
L 172.212892 -114.958714 
L 175.492234 -116.545604 
L 178.771564 -118.212631 
L 182.050914 -119.757917 
L 185.330245 -121.253595 
L 188.609583 -122.299716 
L 191.888925 -123.785772 
L 195.168256 -124.994725 
L 198.447606 -126.091477 
L 201.726936 -126.902323 
L 205.006277 -127.963392 
L 208.285621 -129.097048 
L 211.564957 -129.563409 
L 214.844301 -130.621069 
L 218.123628 -131.203552 
L 221.402982 -131.750829 
L 224.682308 -132.673542 
L 227.961652 -132.917484 
L 231.240996 -133.764376 
L 234.520323 -134.105488 
L 237.799667 -134.496768 
L 241.079004 -135.115387 
L 244.358348 -135.308523 
L 247.637684 -136.032304 
L 250.917028 -136.325549 
L 254.196364 -136.709954 
L 257.475699 -137.051469 
L 260.755035 -137.872285 
L 264.034379 -138.045372 
L 267.313716 -138.804077 
L 270.59306 -139.160387 
L 273.872394 -139.725576 
L 277.151733 -140.529328 
L 280.431067 -141.187009 
L 283.710409 -141.785407 
L 286.989755 -142.751283 
L 290.269093 -143.272418 
L 293.548424 -143.895781 
L 296.827762 -144.970012 
L 300.107108 -145.679503 
L 303.386439 -146.509625 
L 306.665785 -147.297332 
L 309.945123 -148.508399 
L 313.224462 -148.998717 
L 316.503792 -149.950363 
L 319.783138 -150.721456 
L 323.062476 -152.054261 
L 326.341815 -152.8309 
L 329.621153 -154.047315 
L 332.900491 -154.987898 
L 336.179822 -156.165588 
L 339.459168 -157.222413 
L 342.738514 -158.882831 
L 346.01786 -159.754825 
L 349.297191 -161.366451 
L 352.576521 -162.579704 
L 355.855867 -164.204201 
L 359.135213 -165.811868 
L 362.414536 -167.357127 
L 365.693882 -168.797897 
L 368.97322 -170.596039 
L 372.252566 -172.106446 
L 375.531881 -174.252884 
L 378.811227 -176.340055 
L 382.090574 -178.283829 
L 385.36992 -179.7284 
L 388.649266 -181.996955 
L 391.928581 -184.480823 
L 395.207927 -186.123235 
L 398.487273 -188.623738 
L 398.487273 -291.676921 
L 398.487273 -291.676921 
L 395.207927 -289.233337 
L 391.928581 -287.061637 
L 388.649266 -284.631561 
L 385.36992 -282.257456 
L 382.090574 -279.813814 
L 378.811227 -277.370173 
L 375.531881 -274.926531 
L 372.252566 -272.482912 
L 368.97322 -270.039271 
L 365.693882 -267.595635 
L 362.414536 -265.151993 
L 359.135213 -262.708369 
L 355.855867 -260.264727 
L 352.576521 -257.930668 
L 349.297191 -256.026975 
L 346.01786 -253.816094 
L 342.738514 -251.723245 
L 339.459168 -249.611173 
L 336.179822 -247.317604 
L 332.900491 -245.66777 
L 329.621153 -243.430495 
L 326.341815 -241.524132 
L 323.062476 -239.561302 
L 319.783138 -237.555922 
L 316.503792 -235.866683 
L 313.224462 -234.091837 
L 309.945123 -232.41636 
L 306.665785 -230.534966 
L 303.386439 -228.602174 
L 300.107108 -227.062656 
L 296.827762 -225.460268 
L 293.548424 -224.051732 
L 290.269093 -222.708065 
L 286.989755 -221.088461 
L 283.710409 -219.794035 
L 280.431067 -218.383687 
L 277.151733 -217.164531 
L 273.872394 -216.288719 
L 270.59306 -215.15443 
L 267.313716 -214.025293 
L 264.034379 -213.012336 
L 260.755035 -212.30082 
L 257.475699 -211.65526 
L 254.196364 -210.514895 
L 250.917028 -210.158224 
L 247.637684 -209.549436 
L 244.358348 -208.902884 
L 241.079004 -208.310278 
L 237.799667 -207.929088 
L 234.520323 -207.524579 
L 231.240996 -207.027165 
L 227.961652 -206.586327 
L 224.682308 -206.12164 
L 221.402982 -206.037851 
L 218.123628 -205.206235 
L 214.844301 -204.798233 
L 211.564957 -204.664956 
L 208.285621 -204.024552 
L 205.006277 -203.557419 
L 201.726936 -202.975446 
L 198.447606 -202.348884 
L 195.168256 -201.624795 
L 191.888925 -200.93802 
L 188.609583 -200.195254 
L 185.330245 -199.412154 
L 182.050914 -199.029999 
L 178.771564 -198.34819 
L 175.492234 -197.278651 
L 172.212892 -196.582997 
L 168.933553 -195.706424 
L 165.654215 -194.852633 
L 162.374869 -193.83033 
L 159.095538 -192.956575 
L 155.816192 -192.122694 
L 152.536862 -190.928968 
L 149.257516 -190.399377 
L 145.978178 -189.335988 
L 142.698847 -188.041912 
L 139.419493 -187.425642 
L 136.140163 -185.847109 
L 132.860824 -184.488115 
L 129.581486 -183.145519 
L 126.302148 -182.070724 
L 123.022809 -180.653894 
L 119.743479 -179.425737 
L 116.464133 -177.676931 
L 113.184795 -176.525091 
L 109.905456 -175.027297 
L 106.62611 -173.223687 
L 103.34678 -171.540394 
L 100.067434 -169.928804 
L 96.788103 -167.927551 
L 93.508757 -166.077794 
L 90.229426 -164.117044 
L 86.95008 -161.666418 
L 83.670734 -160.278153 
L 80.391404 -157.977404 
L 77.112073 -155.71249 
L 73.832727 -153.561187 
z
" style="stroke: #0000ff; stroke-opacity: 0.3"/>
    </defs>
    <g clip-path="url(#pe76a948dac)">
     <use xlink:href="#maf7ddd7aaf" x="0" y="345.6" style="fill: #0000ff; fill-opacity: 0.3; stroke: #0000ff; stroke-opacity: 0.3"/>
    </g>
   </g>
   <g id="line2d_11">
    <path d="M 73.832727 249.780419 
L 77.112073 247.524347 
L 80.391404 245.28867 
L 83.670734 242.918107 
L 86.95008 240.845474 
L 90.229426 238.473435 
L 93.508757 236.160261 
L 96.788103 234.003563 
L 100.067434 231.643866 
L 103.34678 229.35907 
L 106.62611 227.351187 
L 109.905456 225.164317 
L 113.184795 223.118338 
L 116.464133 221.065567 
L 119.743479 219.08862 
L 123.022809 216.882633 
L 126.302148 214.916633 
L 129.581486 212.657504 
L 132.860824 210.859668 
L 136.140163 208.912206 
L 139.419493 206.831857 
L 142.698847 205.093856 
L 145.978178 203.391662 
L 149.257516 201.399566 
L 152.536862 199.959098 
L 155.816192 198.021501 
L 159.095538 196.440182 
L 162.374869 195.007045 
L 165.654215 193.478951 
L 168.933553 191.793489 
L 172.212892 190.511188 
L 175.492234 189.15831 
L 178.771564 187.738597 
L 182.050914 186.493759 
L 185.330245 185.486645 
L 188.609583 184.360097 
L 191.888925 183.172191 
L 195.168256 182.163112 
L 198.447606 181.370975 
L 201.726936 180.585291 
L 205.006277 179.615467 
L 208.285621 178.936413 
L 211.564957 178.287473 
L 214.844301 177.725442 
L 218.123628 177.173358 
L 221.402982 176.651382 
L 224.682308 176.078968 
L 227.961652 175.704532 
L 231.240996 175.117348 
L 234.520323 174.713387 
L 237.799667 174.309617 
L 241.079004 173.913029 
L 244.358348 173.540512 
L 247.637684 173.020036 
L 250.917028 172.364279 
L 254.196364 172.036288 
L 257.475699 171.368094 
L 260.755035 170.745956 
L 264.034379 170.187031 
L 267.313716 169.385355 
L 270.59306 168.484761 
L 273.872394 167.759081 
L 277.151733 166.79211 
L 280.431067 165.828096 
L 283.710409 164.720668 
L 286.989755 163.612104 
L 290.269093 162.425217 
L 293.548424 161.369609 
L 296.827762 159.949714 
L 300.107108 158.473405 
L 303.386439 157.012962 
L 306.665785 155.648199 
L 309.945123 153.980623 
L 313.224462 152.563542 
L 316.503792 150.970194 
L 319.783138 149.274657 
L 323.062476 147.449335 
L 326.341815 145.845378 
L 329.621153 143.988266 
L 332.900491 142.091117 
L 336.179822 140.310637 
L 339.459168 138.438713 
L 342.738514 136.349472 
L 346.01786 134.287972 
L 349.297191 132.243386 
L 352.576521 130.15377 
L 355.855867 128.174406 
L 359.135213 125.953362 
L 362.414536 123.879541 
L 365.693882 121.716337 
L 368.97322 119.643428 
L 372.252566 117.456881 
L 375.531881 115.177242 
L 378.811227 112.853622 
L 382.090574 110.6611 
L 385.36992 108.393192 
L 388.649266 106.240064 
L 391.928581 103.750626 
L 395.207927 101.581423 
L 398.487273 99.075708 
" clip-path="url(#pe76a948dac)" style="fill: none; stroke: #0000ff; stroke-width: 1.5; stroke-linecap: round"/>
   </g>
   <g id="line2d_12">
    <path d="M 73.832727 295.488 
L 77.112073 293.044358 
L 80.391404 290.600728 
L 83.670734 288.157098 
L 86.95008 285.713456 
L 90.229426 283.269814 
L 93.508757 280.826184 
L 96.788103 278.382543 
L 100.067434 275.938912 
L 103.34678 273.495271 
L 106.62611 271.05164 
L 109.905456 268.607999 
L 113.184795 266.164363 
L 116.464133 263.720727 
L 119.743479 261.277085 
L 123.022809 258.833455 
L 126.302148 256.389819 
L 129.581486 253.946183 
L 132.860824 251.502547 
L 136.140163 249.058911 
L 139.419493 246.615281 
L 142.698847 244.171633 
L 145.978178 241.728003 
L 149.257516 239.284367 
L 152.536862 236.840726 
L 155.816192 234.397095 
L 159.095538 231.953454 
L 162.374869 229.509823 
L 165.654215 227.066182 
L 168.933553 224.622546 
L 172.212892 222.17891 
L 175.492234 219.735271 
L 178.771564 217.291641 
L 182.050914 214.847996 
L 185.330245 212.404366 
L 188.609583 209.96073 
L 191.888925 207.517091 
L 195.168256 205.073461 
L 198.447606 202.629816 
L 201.726936 200.186186 
L 205.006277 197.742549 
L 208.285621 195.298909 
L 211.564957 192.855274 
L 214.844301 190.411634 
L 218.123628 187.968006 
L 221.402982 185.524359 
L 224.682308 183.080732 
L 227.961652 180.637091 
L 231.240996 178.193451 
L 234.520323 175.749824 
L 237.799667 173.306183 
L 241.079004 170.862549 
L 244.358348 168.418909 
L 247.637684 165.975274 
L 250.917028 163.531634 
L 254.196364 161.087999 
L 257.475699 158.644366 
L 260.755035 156.200732 
L 264.034379 153.757091 
L 267.313716 151.313457 
L 270.59306 148.869817 
L 273.872394 146.426184 
L 277.151733 143.982548 
L 280.431067 141.538915 
L 283.710409 139.095276 
L 286.989755 136.651634 
L 290.269093 134.207998 
L 293.548424 131.764368 
L 296.827762 129.320732 
L 300.107108 126.87709 
L 303.386439 124.43346 
L 306.665785 121.989818 
L 309.945123 119.546182 
L 313.224462 117.102546 
L 316.503792 114.658916 
L 319.783138 112.215274 
L 323.062476 109.771639 
L 326.341815 107.328003 
L 329.621153 104.884367 
L 332.900491 102.440731 
L 336.179822 99.9971 
L 339.459168 97.553459 
L 342.738514 95.109817 
L 346.01786 92.666175 
L 349.297191 90.222545 
L 352.576521 87.778915 
L 355.855867 85.335273 
L 359.135213 82.891631 
L 362.414536 80.448007 
L 365.693882 78.004365 
L 368.97322 75.560729 
L 372.252566 73.117088 
L 375.531881 70.673469 
L 378.811227 68.229827 
L 382.090574 65.786186 
L 385.36992 63.342544 
L 388.649266 60.898902 
L 391.928581 58.455283 
L 395.207927 56.011642 
L 398.487273 53.568 
" clip-path="url(#pe76a948dac)" style="fill: none; stroke-dasharray: 5.55,2.4; stroke-dashoffset: 0; stroke: #808080; stroke-width: 1.5"/>
   </g>
   <g id="LineCollection_1">
    <path d="M 236.16 295.488 
L 236.16 53.568 
" clip-path="url(#pe76a948dac)" style="fill: none; stroke-dasharray: 5.55,2.4; stroke-dashoffset: 0; stroke: #008000; stroke-width: 1.5"/>
   </g>
   <g id="patch_3">
    <path d="M 57.6 307.584 
L 57.6 41.472 
" style="fill: none; stroke: #ffffff; stroke-width: 0.8; stroke-linejoin: miter; stroke-linecap: square"/>
   </g>
   <g id="patch_4">
    <path d="M 414.72 307.584 
L 414.72 41.472 
" style="fill: none; stroke: #ffffff; stroke-width: 0.8; stroke-linejoin: miter; stroke-linecap: square"/>
   </g>
   <g id="patch_5">
    <path d="M 57.6 307.584 
L 414.72 307.584 
" style="fill: none; stroke: #ffffff; stroke-width: 0.8; stroke-linejoin: miter; stroke-linecap: square"/>
   </g>
   <g id="patch_6">
    <path d="M 57.6 41.472 
L 414.72 41.472 
" style="fill: none; stroke: #ffffff; stroke-width: 0.8; stroke-linejoin: miter; stroke-linecap: square"/>
   </g>
   <g id="text_13">
    <!-- $\sigma=1, n=5$ -->
    <g style="fill: #262626" transform="translate(203.1 35.472) scale(0.12 -0.12)">
     <defs>
      <path id="DejaVuSans-Oblique-3c3" d="M 2219 3044 
Q 1744 3044 1422 2700 
Q 1081 2341 969 1747 
Q 844 1119 1044 756 
Q 1241 397 1706 397 
Q 2166 397 2503 759 
Q 2844 1122 2966 1747 
Q 3075 2319 2881 2700 
Q 2700 3044 2219 3044 
z
M 2309 3503 
L 4219 3500 
L 4106 2925 
L 3463 2925 
Q 3706 2438 3575 1747 
Q 3406 888 2884 400 
Q 2359 -91 1609 -91 
Q 856 -91 525 400 
Q 194 888 363 1747 
Q 528 2609 1050 3097 
Q 1484 3503 2309 3503 
z
" transform="scale(0.015625)"/>
      <path id="DejaVuSans-3d" d="M 678 2906 
L 4684 2906 
L 4684 2381 
L 678 2381 
L 678 2906 
z
M 678 1631 
L 4684 1631 
L 4684 1100 
L 678 1100 
L 678 1631 
z
" transform="scale(0.015625)"/>
      <path id="DejaVuSans-31" d="M 794 531 
L 1825 531 
L 1825 4091 
L 703 3866 
L 703 4441 
L 1819 4666 
L 2450 4666 
L 2450 531 
L 3481 531 
L 3481 0 
L 794 0 
L 794 531 
z
" transform="scale(0.015625)"/>
      <path id="DejaVuSans-2c" d="M 750 794 
L 1409 794 
L 1409 256 
L 897 -744 
L 494 -744 
L 750 256 
L 750 794 
z
" transform="scale(0.015625)"/>
      <path id="DejaVuSans-35" d="M 691 4666 
L 3169 4666 
L 3169 4134 
L 1269 4134 
L 1269 2991 
Q 1406 3038 1543 3061 
Q 1681 3084 1819 3084 
Q 2600 3084 3056 2656 
Q 3513 2228 3513 1497 
Q 3513 744 3044 326 
Q 2575 -91 1722 -91 
Q 1428 -91 1123 -41 
Q 819 9 494 109 
L 494 744 
Q 775 591 1075 516 
Q 1375 441 1709 441 
Q 2250 441 2565 725 
Q 2881 1009 2881 1497 
Q 2881 1984 2565 2268 
Q 2250 2553 1709 2553 
Q 1456 2553 1204 2497 
Q 953 2441 691 2322 
L 691 4666 
z
" transform="scale(0.015625)"/>
     </defs>
     <use xlink:href="#DejaVuSans-Oblique-3c3" transform="translate(0 0.09375)"/>
     <use xlink:href="#DejaVuSans-3d" transform="translate(82.861328 0.09375)"/>
     <use xlink:href="#DejaVuSans-31" transform="translate(186.132812 0.09375)"/>
     <use xlink:href="#DejaVuSans-2c" transform="translate(249.755859 0.09375)"/>
     <use xlink:href="#DejaVuSans-Oblique-6e" transform="translate(301.025391 0.09375)"/>
     <use xlink:href="#DejaVuSans-3d" transform="translate(383.886719 0.09375)"/>
     <use xlink:href="#DejaVuSans-35" transform="translate(487.158203 0.09375)"/>
    </g>
   </g>
   <g id="legend_1">
    <g id="patch_7">
     <path d="M 302.42 302.584 
L 407.72 302.584 
Q 409.72 302.584 409.72 300.584 
L 409.72 230.248062 
Q 409.72 228.248062 407.72 228.248062 
L 302.42 228.248062 
Q 300.42 228.248062 300.42 230.248062 
L 300.42 300.584 
Q 300.42 302.584 302.42 302.584 
z
" style="fill: #eaeaf2; opacity: 0.8; stroke: #cccccc; stroke-linejoin: miter"/>
    </g>
    <g id="line2d_13">
     <path d="M 304.42 236.160562 
L 314.42 236.160562 
L 324.42 236.160562 
" style="fill: none; stroke: #0000ff; stroke-width: 1.5; stroke-linecap: round"/>
    </g>
    <g id="text_14">
     <!-- $E[x_{next}]$ -->
     <g style="fill: #262626" transform="translate(332.42 239.660562) scale(0.1 -0.1)">
      <defs>
       <path id="DejaVuSans-Oblique-45" d="M 1081 4666 
L 4031 4666 
L 3928 4134 
L 1606 4134 
L 1338 2753 
L 3566 2753 
L 3463 2222 
L 1234 2222 
L 909 531 
L 3284 531 
L 3181 0 
L 172 0 
L 1081 4666 
z
" transform="scale(0.015625)"/>
       <path id="DejaVuSans-5b" d="M 550 4863 
L 1875 4863 
L 1875 4416 
L 1125 4416 
L 1125 -397 
L 1875 -397 
L 1875 -844 
L 550 -844 
L 550 4863 
z
" transform="scale(0.015625)"/>
       <path id="DejaVuSans-5d" d="M 1947 4863 
L 1947 -844 
L 622 -844 
L 622 -397 
L 1369 -397 
L 1369 4416 
L 622 4416 
L 622 4863 
L 1947 4863 
z
" transform="scale(0.015625)"/>
      </defs>
      <use xlink:href="#DejaVuSans-Oblique-45" transform="translate(0 0.015625)"/>
      <use xlink:href="#DejaVuSans-5b" transform="translate(63.183594 0.015625)"/>
      <use xlink:href="#DejaVuSans-Oblique-78" transform="translate(102.197266 0.015625)"/>
      <use xlink:href="#DejaVuSans-Oblique-6e" transform="translate(161.376953 -16.390625) scale(0.7)"/>
      <use xlink:href="#DejaVuSans-Oblique-65" transform="translate(205.742188 -16.390625) scale(0.7)"/>
      <use xlink:href="#DejaVuSans-Oblique-78" transform="translate(248.808594 -16.390625) scale(0.7)"/>
      <use xlink:href="#DejaVuSans-Oblique-74" transform="translate(290.234375 -16.390625) scale(0.7)"/>
      <use xlink:href="#DejaVuSans-5d" transform="translate(320.415039 0.015625)"/>
     </g>
    </g>
    <g id="patch_8">
     <path d="M 304.42 253.805875 
L 324.42 253.805875 
L 324.42 246.805875 
L 304.42 246.805875 
z
" style="fill: #0000ff; fill-opacity: 0.5; stroke: #0000ff; stroke-opacity: 0.5; stroke-linejoin: miter"/>
    </g>
    <g id="text_15">
     <!-- 50% CI -->
     <g style="fill: #262626" transform="translate(332.42 253.805875) scale(0.1 -0.1)">
      <defs>
       <path id="ArialMT-35" d="M 266 1200 
L 856 1250 
Q 922 819 1161 601 
Q 1400 384 1738 384 
Q 2144 384 2425 690 
Q 2706 997 2706 1503 
Q 2706 1984 2436 2262 
Q 2166 2541 1728 2541 
Q 1456 2541 1237 2417 
Q 1019 2294 894 2097 
L 366 2166 
L 809 4519 
L 3088 4519 
L 3088 3981 
L 1259 3981 
L 1013 2750 
Q 1425 3038 1878 3038 
Q 2478 3038 2890 2622 
Q 3303 2206 3303 1553 
Q 3303 931 2941 478 
Q 2500 -78 1738 -78 
Q 1113 -78 717 272 
Q 322 622 266 1200 
z
" transform="scale(0.015625)"/>
       <path id="ArialMT-25" d="M 372 3481 
Q 372 3972 619 4315 
Q 866 4659 1334 4659 
Q 1766 4659 2048 4351 
Q 2331 4044 2331 3447 
Q 2331 2866 2045 2552 
Q 1759 2238 1341 2238 
Q 925 2238 648 2547 
Q 372 2856 372 3481 
z
M 1350 4272 
Q 1141 4272 1002 4090 
Q 863 3909 863 3425 
Q 863 2984 1003 2804 
Q 1144 2625 1350 2625 
Q 1563 2625 1702 2806 
Q 1841 2988 1841 3469 
Q 1841 3913 1700 4092 
Q 1559 4272 1350 4272 
z
M 1353 -169 
L 3859 4659 
L 4316 4659 
L 1819 -169 
L 1353 -169 
z
M 3334 1075 
Q 3334 1569 3581 1911 
Q 3828 2253 4300 2253 
Q 4731 2253 5014 1945 
Q 5297 1638 5297 1041 
Q 5297 459 5011 145 
Q 4725 -169 4303 -169 
Q 3888 -169 3611 142 
Q 3334 453 3334 1075 
z
M 4316 1866 
Q 4103 1866 3964 1684 
Q 3825 1503 3825 1019 
Q 3825 581 3965 400 
Q 4106 219 4313 219 
Q 4528 219 4667 400 
Q 4806 581 4806 1063 
Q 4806 1506 4665 1686 
Q 4525 1866 4316 1866 
z
" transform="scale(0.015625)"/>
       <path id="ArialMT-20" transform="scale(0.015625)"/>
       <path id="ArialMT-43" d="M 3763 1606 
L 4369 1453 
Q 4178 706 3683 314 
Q 3188 -78 2472 -78 
Q 1731 -78 1267 223 
Q 803 525 561 1097 
Q 319 1669 319 2325 
Q 319 3041 592 3573 
Q 866 4106 1370 4382 
Q 1875 4659 2481 4659 
Q 3169 4659 3637 4309 
Q 4106 3959 4291 3325 
L 3694 3184 
Q 3534 3684 3231 3912 
Q 2928 4141 2469 4141 
Q 1941 4141 1586 3887 
Q 1231 3634 1087 3207 
Q 944 2781 944 2328 
Q 944 1744 1114 1308 
Q 1284 872 1643 656 
Q 2003 441 2422 441 
Q 2931 441 3284 734 
Q 3638 1028 3763 1606 
z
" transform="scale(0.015625)"/>
       <path id="ArialMT-49" d="M 597 0 
L 597 4581 
L 1203 4581 
L 1203 0 
L 597 0 
z
" transform="scale(0.015625)"/>
      </defs>
      <use xlink:href="#ArialMT-35"/>
      <use xlink:href="#ArialMT-30" transform="translate(55.615234 0)"/>
      <use xlink:href="#ArialMT-25" transform="translate(111.230469 0)"/>
      <use xlink:href="#ArialMT-20" transform="translate(200.146484 0)"/>
      <use xlink:href="#ArialMT-43" transform="translate(227.929688 0)"/>
      <use xlink:href="#ArialMT-49" transform="translate(300.146484 0)"/>
     </g>
    </g>
    <g id="patch_9">
     <path d="M 304.42 267.951187 
L 324.42 267.951187 
L 324.42 260.951187 
L 304.42 260.951187 
z
" style="fill: #0000ff; fill-opacity: 0.3; stroke: #0000ff; stroke-opacity: 0.3; stroke-linejoin: miter"/>
    </g>
    <g id="text_16">
     <!-- 90% CI -->
     <g style="fill: #262626" transform="translate(332.42 267.951187) scale(0.1 -0.1)">
      <defs>
       <path id="ArialMT-39" d="M 350 1059 
L 891 1109 
Q 959 728 1153 556 
Q 1347 384 1650 384 
Q 1909 384 2104 503 
Q 2300 622 2425 820 
Q 2550 1019 2634 1356 
Q 2719 1694 2719 2044 
Q 2719 2081 2716 2156 
Q 2547 1888 2255 1720 
Q 1963 1553 1622 1553 
Q 1053 1553 659 1965 
Q 266 2378 266 3053 
Q 266 3750 677 4175 
Q 1088 4600 1706 4600 
Q 2153 4600 2523 4359 
Q 2894 4119 3086 3673 
Q 3278 3228 3278 2384 
Q 3278 1506 3087 986 
Q 2897 466 2520 194 
Q 2144 -78 1638 -78 
Q 1100 -78 759 220 
Q 419 519 350 1059 
z
M 2653 3081 
Q 2653 3566 2395 3850 
Q 2138 4134 1775 4134 
Q 1400 4134 1122 3828 
Q 844 3522 844 3034 
Q 844 2597 1108 2323 
Q 1372 2050 1759 2050 
Q 2150 2050 2401 2323 
Q 2653 2597 2653 3081 
z
" transform="scale(0.015625)"/>
      </defs>
      <use xlink:href="#ArialMT-39"/>
      <use xlink:href="#ArialMT-30" transform="translate(55.615234 0)"/>
      <use xlink:href="#ArialMT-25" transform="translate(111.230469 0)"/>
      <use xlink:href="#ArialMT-20" transform="translate(200.146484 0)"/>
      <use xlink:href="#ArialMT-43" transform="translate(227.929688 0)"/>
      <use xlink:href="#ArialMT-49" transform="translate(300.146484 0)"/>
     </g>
    </g>
    <g id="line2d_14">
     <path d="M 304.42 278.5965 
L 314.42 278.5965 
L 324.42 278.5965 
" style="fill: none; stroke-dasharray: 5.55,2.4; stroke-dashoffset: 0; stroke: #808080; stroke-width: 1.5"/>
    </g>
    <g id="text_17">
     <!-- $x=x_{next}$ -->
     <g style="fill: #262626" transform="translate(332.42 282.0965) scale(0.1 -0.1)">
      <use xlink:href="#DejaVuSans-Oblique-78" transform="translate(0 0.3125)"/>
      <use xlink:href="#DejaVuSans-3d" transform="translate(78.662109 0.3125)"/>
      <use xlink:href="#DejaVuSans-Oblique-78" transform="translate(181.933594 0.3125)"/>
      <use xlink:href="#DejaVuSans-Oblique-6e" transform="translate(241.113281 -16.09375) scale(0.7)"/>
      <use xlink:href="#DejaVuSans-Oblique-65" transform="translate(285.478516 -16.09375) scale(0.7)"/>
      <use xlink:href="#DejaVuSans-Oblique-78" transform="translate(328.544922 -16.09375) scale(0.7)"/>
      <use xlink:href="#DejaVuSans-Oblique-74" transform="translate(369.970703 -16.09375) scale(0.7)"/>
     </g>
    </g>
    <g id="line2d_15">
     <path d="M 304.42 292.884 
L 324.42 292.884 
" style="fill: none; stroke-dasharray: 5.55,2.4; stroke-dashoffset: 0; stroke: #008000; stroke-width: 1.5"/>
    </g>
    <g id="text_18">
     <!-- mode of target $\pi$ -->
     <g style="fill: #262626" transform="translate(332.42 296.384) scale(0.1 -0.1)">
      <defs>
       <path id="ArialMT-6d" d="M 422 0 
L 422 3319 
L 925 3319 
L 925 2853 
Q 1081 3097 1340 3245 
Q 1600 3394 1931 3394 
Q 2300 3394 2536 3241 
Q 2772 3088 2869 2813 
Q 3263 3394 3894 3394 
Q 4388 3394 4653 3120 
Q 4919 2847 4919 2278 
L 4919 0 
L 4359 0 
L 4359 2091 
Q 4359 2428 4304 2576 
Q 4250 2725 4106 2815 
Q 3963 2906 3769 2906 
Q 3419 2906 3187 2673 
Q 2956 2441 2956 1928 
L 2956 0 
L 2394 0 
L 2394 2156 
Q 2394 2531 2256 2718 
Q 2119 2906 1806 2906 
Q 1569 2906 1367 2781 
Q 1166 2656 1075 2415 
Q 984 2175 984 1722 
L 984 0 
L 422 0 
z
" transform="scale(0.015625)"/>
       <path id="ArialMT-6f" d="M 213 1659 
Q 213 2581 725 3025 
Q 1153 3394 1769 3394 
Q 2453 3394 2887 2945 
Q 3322 2497 3322 1706 
Q 3322 1066 3130 698 
Q 2938 331 2570 128 
Q 2203 -75 1769 -75 
Q 1072 -75 642 372 
Q 213 819 213 1659 
z
M 791 1659 
Q 791 1022 1069 705 
Q 1347 388 1769 388 
Q 2188 388 2466 706 
Q 2744 1025 2744 1678 
Q 2744 2294 2464 2611 
Q 2184 2928 1769 2928 
Q 1347 2928 1069 2612 
Q 791 2297 791 1659 
z
" transform="scale(0.015625)"/>
       <path id="ArialMT-64" d="M 2575 0 
L 2575 419 
Q 2259 -75 1647 -75 
Q 1250 -75 917 144 
Q 584 363 401 755 
Q 219 1147 219 1656 
Q 219 2153 384 2558 
Q 550 2963 881 3178 
Q 1213 3394 1622 3394 
Q 1922 3394 2156 3267 
Q 2391 3141 2538 2938 
L 2538 4581 
L 3097 4581 
L 3097 0 
L 2575 0 
z
M 797 1656 
Q 797 1019 1065 703 
Q 1334 388 1700 388 
Q 2069 388 2326 689 
Q 2584 991 2584 1609 
Q 2584 2291 2321 2609 
Q 2059 2928 1675 2928 
Q 1300 2928 1048 2622 
Q 797 2316 797 1656 
z
" transform="scale(0.015625)"/>
       <path id="ArialMT-65" d="M 2694 1069 
L 3275 997 
Q 3138 488 2766 206 
Q 2394 -75 1816 -75 
Q 1088 -75 661 373 
Q 234 822 234 1631 
Q 234 2469 665 2931 
Q 1097 3394 1784 3394 
Q 2450 3394 2872 2941 
Q 3294 2488 3294 1666 
Q 3294 1616 3291 1516 
L 816 1516 
Q 847 969 1125 678 
Q 1403 388 1819 388 
Q 2128 388 2347 550 
Q 2566 713 2694 1069 
z
M 847 1978 
L 2700 1978 
Q 2663 2397 2488 2606 
Q 2219 2931 1791 2931 
Q 1403 2931 1139 2672 
Q 875 2413 847 1978 
z
" transform="scale(0.015625)"/>
       <path id="ArialMT-66" d="M 556 0 
L 556 2881 
L 59 2881 
L 59 3319 
L 556 3319 
L 556 3672 
Q 556 4006 616 4169 
Q 697 4388 901 4523 
Q 1106 4659 1475 4659 
Q 1713 4659 2000 4603 
L 1916 4113 
Q 1741 4144 1584 4144 
Q 1328 4144 1222 4034 
Q 1116 3925 1116 3625 
L 1116 3319 
L 1763 3319 
L 1763 2881 
L 1116 2881 
L 1116 0 
L 556 0 
z
" transform="scale(0.015625)"/>
       <path id="ArialMT-74" d="M 1650 503 
L 1731 6 
Q 1494 -44 1306 -44 
Q 1000 -44 831 53 
Q 663 150 594 308 
Q 525 466 525 972 
L 525 2881 
L 113 2881 
L 113 3319 
L 525 3319 
L 525 4141 
L 1084 4478 
L 1084 3319 
L 1650 3319 
L 1650 2881 
L 1084 2881 
L 1084 941 
Q 1084 700 1114 631 
Q 1144 563 1211 522 
Q 1278 481 1403 481 
Q 1497 481 1650 503 
z
" transform="scale(0.015625)"/>
       <path id="ArialMT-61" d="M 2588 409 
Q 2275 144 1986 34 
Q 1697 -75 1366 -75 
Q 819 -75 525 192 
Q 231 459 231 875 
Q 231 1119 342 1320 
Q 453 1522 633 1644 
Q 813 1766 1038 1828 
Q 1203 1872 1538 1913 
Q 2219 1994 2541 2106 
Q 2544 2222 2544 2253 
Q 2544 2597 2384 2738 
Q 2169 2928 1744 2928 
Q 1347 2928 1158 2789 
Q 969 2650 878 2297 
L 328 2372 
Q 403 2725 575 2942 
Q 747 3159 1072 3276 
Q 1397 3394 1825 3394 
Q 2250 3394 2515 3294 
Q 2781 3194 2906 3042 
Q 3031 2891 3081 2659 
Q 3109 2516 3109 2141 
L 3109 1391 
Q 3109 606 3145 398 
Q 3181 191 3288 0 
L 2700 0 
Q 2613 175 2588 409 
z
M 2541 1666 
Q 2234 1541 1622 1453 
Q 1275 1403 1131 1340 
Q 988 1278 909 1158 
Q 831 1038 831 891 
Q 831 666 1001 516 
Q 1172 366 1500 366 
Q 1825 366 2078 508 
Q 2331 650 2450 897 
Q 2541 1088 2541 1459 
L 2541 1666 
z
" transform="scale(0.015625)"/>
       <path id="ArialMT-72" d="M 416 0 
L 416 3319 
L 922 3319 
L 922 2816 
Q 1116 3169 1280 3281 
Q 1444 3394 1641 3394 
Q 1925 3394 2219 3213 
L 2025 2691 
Q 1819 2813 1613 2813 
Q 1428 2813 1281 2702 
Q 1134 2591 1072 2394 
Q 978 2094 978 1738 
L 978 0 
L 416 0 
z
" transform="scale(0.015625)"/>
       <path id="ArialMT-67" d="M 319 -275 
L 866 -356 
Q 900 -609 1056 -725 
Q 1266 -881 1628 -881 
Q 2019 -881 2231 -725 
Q 2444 -569 2519 -288 
Q 2563 -116 2559 434 
Q 2191 0 1641 0 
Q 956 0 581 494 
Q 206 988 206 1678 
Q 206 2153 378 2554 
Q 550 2956 876 3175 
Q 1203 3394 1644 3394 
Q 2231 3394 2613 2919 
L 2613 3319 
L 3131 3319 
L 3131 450 
Q 3131 -325 2973 -648 
Q 2816 -972 2473 -1159 
Q 2131 -1347 1631 -1347 
Q 1038 -1347 672 -1080 
Q 306 -813 319 -275 
z
M 784 1719 
Q 784 1066 1043 766 
Q 1303 466 1694 466 
Q 2081 466 2343 764 
Q 2606 1063 2606 1700 
Q 2606 2309 2336 2618 
Q 2066 2928 1684 2928 
Q 1309 2928 1046 2623 
Q 784 2319 784 1719 
z
" transform="scale(0.015625)"/>
       <path id="DejaVuSans-Oblique-3c0" d="M 584 3500 
L 3938 3500 
L 3825 2925 
L 3384 2925 
L 2966 775 
Q 2922 550 2981 450 
Q 3038 353 3209 353 
Q 3256 353 3325 363 
Q 3397 369 3419 372 
L 3338 -44 
Q 3222 -84 3103 -103 
Q 2981 -122 2866 -122 
Q 2491 -122 2388 81 
Q 2284 288 2391 838 
L 2797 2925 
L 1506 2925 
L 938 0 
L 350 0 
L 919 2925 
L 472 2925 
L 584 3500 
z
" transform="scale(0.015625)"/>
      </defs>
      <use xlink:href="#ArialMT-6d" transform="translate(0 0.203125)"/>
      <use xlink:href="#ArialMT-6f" transform="translate(83.300781 0.203125)"/>
      <use xlink:href="#ArialMT-64" transform="translate(138.916016 0.203125)"/>
      <use xlink:href="#ArialMT-65" transform="translate(194.53125 0.203125)"/>
      <use xlink:href="#ArialMT-20" transform="translate(250.146484 0.203125)"/>
      <use xlink:href="#ArialMT-6f" transform="translate(277.929688 0.203125)"/>
      <use xlink:href="#ArialMT-66" transform="translate(333.544922 0.203125)"/>
      <use xlink:href="#ArialMT-20" transform="translate(361.328125 0.203125)"/>
      <use xlink:href="#ArialMT-74" transform="translate(389.111328 0.203125)"/>
      <use xlink:href="#ArialMT-61" transform="translate(416.894531 0.203125)"/>
      <use xlink:href="#ArialMT-72" transform="translate(472.509766 0.203125)"/>
      <use xlink:href="#ArialMT-67" transform="translate(505.810547 0.203125)"/>
      <use xlink:href="#ArialMT-65" transform="translate(561.425781 0.203125)"/>
      <use xlink:href="#ArialMT-74" transform="translate(617.041016 0.203125)"/>
      <use xlink:href="#ArialMT-20" transform="translate(644.824219 0.203125)"/>
      <use xlink:href="#DejaVuSans-Oblique-3c0" transform="translate(672.607422 0.203125)"/>
     </g>
    </g>
   </g>
  </g>
 </g>
 <defs>
  <clipPath id="pe76a948dac">
   <rect x="57.6" y="41.472" width="357.12" height="266.112"/>
  </clipPath>
 </defs>
</svg>
