<?xml version="1.0" encoding="utf-8" standalone="no"?>
<!DOCTYPE svg PUBLIC "-//W3C//DTD SVG 1.1//EN"
  "http://www.w3.org/Graphics/SVG/1.1/DTD/svg11.dtd">
<svg xmlns:xlink="http://www.w3.org/1999/xlink" width="460.8pt" height="345.6pt" viewBox="0 0 460.8 345.6" xmlns="http://www.w3.org/2000/svg" version="1.1">
 <metadata>
  <rdf:RDF xmlns:dc="http://purl.org/dc/elements/1.1/" xmlns:cc="http://creativecommons.org/ns#" xmlns:rdf="http://www.w3.org/1999/02/22-rdf-syntax-ns#">
   <cc:Work>
    <dc:type rdf:resource="http://purl.org/dc/dcmitype/StillImage"/>
    <dc:date>2025-04-06T14:15:13.791406</dc:date>
    <dc:format>image/svg+xml</dc:format>
    <dc:creator>
     <cc:Agent>
      <dc:title>Matplotlib v3.10.1, https://matplotlib.org/</dc:title>
     </cc:Agent>
    </dc:creator>
   </cc:Work>
  </rdf:RDF>
 </metadata>
 <defs>
  <style type="text/css">*{stroke-linejoin: round; stroke-linecap: butt}</style>
 </defs>
 <g id="figure_1">
  <g id="patch_1">
   <path d="M 0 345.6 
L 460.8 345.6 
L 460.8 0 
L 0 0 
z
" style="fill: #ffffff"/>
  </g>
  <g id="axes_1">
   <g id="patch_2">
    <path d="M 57.6 307.584 
L 414.72 307.584 
L 414.72 41.472 
L 57.6 41.472 
z
" style="fill: #eaeaf2"/>
   </g>
   <g id="matplotlib.axis_1">
    <g id="xtick_1">
     <g id="line2d_1">
      <path d="M 106.626147 307.584 
L 106.626147 41.472 
" clip-path="url(#pbe47609363)" style="fill: none; stroke: #ffffff; stroke-width: 0.8; stroke-linecap: round"/>
     </g>
     <g id="text_1">
      <!-- −2 -->
      <g style="fill: #262626" transform="translate(100.925366 321.741812) scale(0.1 -0.1)">
       <defs>
        <path id="ArialMT-2212" d="M 3381 1997 
L 356 1997 
L 356 2522 
L 3381 2522 
L 3381 1997 
z
" transform="scale(0.015625)"/>
        <path id="ArialMT-32" d="M 3222 541 
L 3222 0 
L 194 0 
Q 188 203 259 391 
Q 375 700 629 1000 
Q 884 1300 1366 1694 
Q 2113 2306 2375 2664 
Q 2638 3022 2638 3341 
Q 2638 3675 2398 3904 
Q 2159 4134 1775 4134 
Q 1369 4134 1125 3890 
Q 881 3647 878 3216 
L 300 3275 
Q 359 3922 746 4261 
Q 1134 4600 1788 4600 
Q 2447 4600 2831 4234 
Q 3216 3869 3216 3328 
Q 3216 3053 3103 2787 
Q 2991 2522 2730 2228 
Q 2469 1934 1863 1422 
Q 1356 997 1212 845 
Q 1069 694 975 541 
L 3222 541 
z
" transform="scale(0.015625)"/>
       </defs>
       <use xlink:href="#ArialMT-2212"/>
       <use xlink:href="#ArialMT-32" transform="translate(58.398438 0)"/>
      </g>
     </g>
    </g>
    <g id="xtick_2">
     <g id="line2d_2">
      <path d="M 172.212986 307.584 
L 172.212986 41.472 
" clip-path="url(#pbe47609363)" style="fill: none; stroke: #ffffff; stroke-width: 0.8; stroke-linecap: round"/>
     </g>
     <g id="text_2">
      <!-- −1 -->
      <g style="fill: #262626" transform="translate(166.512205 321.741812) scale(0.1 -0.1)">
       <defs>
        <path id="ArialMT-31" d="M 2384 0 
L 1822 0 
L 1822 3584 
Q 1619 3391 1289 3197 
Q 959 3003 697 2906 
L 697 3450 
Q 1169 3672 1522 3987 
Q 1875 4303 2022 4600 
L 2384 4600 
L 2384 0 
z
" transform="scale(0.015625)"/>
       </defs>
       <use xlink:href="#ArialMT-2212"/>
       <use xlink:href="#ArialMT-31" transform="translate(58.398438 0)"/>
      </g>
     </g>
    </g>
    <g id="xtick_3">
     <g id="line2d_3">
      <path d="M 237.799826 307.584 
L 237.799826 41.472 
" clip-path="url(#pbe47609363)" style="fill: none; stroke: #ffffff; stroke-width: 0.8; stroke-linecap: round"/>
     </g>
     <g id="text_3">
      <!-- 0 -->
      <g style="fill: #262626" transform="translate(235.019357 321.741812) scale(0.1 -0.1)">
       <defs>
        <path id="ArialMT-30" d="M 266 2259 
Q 266 3072 433 3567 
Q 600 4063 929 4331 
Q 1259 4600 1759 4600 
Q 2128 4600 2406 4451 
Q 2684 4303 2865 4023 
Q 3047 3744 3150 3342 
Q 3253 2941 3253 2259 
Q 3253 1453 3087 958 
Q 2922 463 2592 192 
Q 2263 -78 1759 -78 
Q 1097 -78 719 397 
Q 266 969 266 2259 
z
M 844 2259 
Q 844 1131 1108 757 
Q 1372 384 1759 384 
Q 2147 384 2411 759 
Q 2675 1134 2675 2259 
Q 2675 3391 2411 3762 
Q 2147 4134 1753 4134 
Q 1366 4134 1134 3806 
Q 844 3388 844 2259 
z
" transform="scale(0.015625)"/>
       </defs>
       <use xlink:href="#ArialMT-30"/>
      </g>
     </g>
    </g>
    <g id="xtick_4">
     <g id="line2d_4">
      <path d="M 303.386665 307.584 
L 303.386665 41.472 
" clip-path="url(#pbe47609363)" style="fill: none; stroke: #ffffff; stroke-width: 0.8; stroke-linecap: round"/>
     </g>
     <g id="text_4">
      <!-- 1 -->
      <g style="fill: #262626" transform="translate(300.606196 321.741812) scale(0.1 -0.1)">
       <use xlink:href="#ArialMT-31"/>
      </g>
     </g>
    </g>
    <g id="xtick_5">
     <g id="line2d_5">
      <path d="M 368.973505 307.584 
L 368.973505 41.472 
" clip-path="url(#pbe47609363)" style="fill: none; stroke: #ffffff; stroke-width: 0.8; stroke-linecap: round"/>
     </g>
     <g id="text_5">
      <!-- 2 -->
      <g style="fill: #262626" transform="translate(366.193036 321.741812) scale(0.1 -0.1)">
       <use xlink:href="#ArialMT-32"/>
      </g>
     </g>
    </g>
    <g id="text_6">
     <!-- $x$ -->
     <g style="fill: #262626" transform="translate(233.16 334.887125) scale(0.1 -0.1)">
      <defs>
       <path id="DejaVuSans-Oblique-78" d="M 3841 3500 
L 2234 1784 
L 3219 0 
L 2559 0 
L 1819 1388 
L 531 0 
L -166 0 
L 1556 1844 
L 641 3500 
L 1300 3500 
L 1972 2234 
L 3144 3500 
L 3841 3500 
z
" transform="scale(0.015625)"/>
      </defs>
      <use xlink:href="#DejaVuSans-Oblique-78" transform="translate(0 0.3125)"/>
     </g>
    </g>
   </g>
   <g id="matplotlib.axis_2">
    <g id="ytick_1">
     <g id="line2d_6">
      <path d="M 57.6 271.296 
L 414.72 271.296 
" clip-path="url(#pbe47609363)" style="fill: none; stroke: #ffffff; stroke-width: 0.8; stroke-linecap: round"/>
     </g>
     <g id="text_7">
      <!-- −2 -->
      <g style="fill: #262626" transform="translate(39.198437 274.874906) scale(0.1 -0.1)">
       <use xlink:href="#ArialMT-2212"/>
       <use xlink:href="#ArialMT-32" transform="translate(58.398438 0)"/>
      </g>
     </g>
    </g>
    <g id="ytick_2">
     <g id="line2d_7">
      <path d="M 57.6 222.912 
L 414.72 222.912 
" clip-path="url(#pbe47609363)" style="fill: none; stroke: #ffffff; stroke-width: 0.8; stroke-linecap: round"/>
     </g>
     <g id="text_8">
      <!-- −1 -->
      <g style="fill: #262626" transform="translate(39.198437 226.490906) scale(0.1 -0.1)">
       <use xlink:href="#ArialMT-2212"/>
       <use xlink:href="#ArialMT-31" transform="translate(58.398438 0)"/>
      </g>
     </g>
    </g>
    <g id="ytick_3">
     <g id="line2d_8">
      <path d="M 57.6 174.528 
L 414.72 174.528 
" clip-path="url(#pbe47609363)" style="fill: none; stroke: #ffffff; stroke-width: 0.8; stroke-linecap: round"/>
     </g>
     <g id="text_9">
      <!-- 0 -->
      <g style="fill: #262626" transform="translate(45.039062 178.106906) scale(0.1 -0.1)">
       <use xlink:href="#ArialMT-30"/>
      </g>
     </g>
    </g>
    <g id="ytick_4">
     <g id="line2d_9">
      <path d="M 57.6 126.144 
L 414.72 126.144 
" clip-path="url(#pbe47609363)" style="fill: none; stroke: #ffffff; stroke-width: 0.8; stroke-linecap: round"/>
     </g>
     <g id="text_10">
      <!-- 1 -->
      <g style="fill: #262626" transform="translate(45.039062 129.722906) scale(0.1 -0.1)">
       <use xlink:href="#ArialMT-31"/>
      </g>
     </g>
    </g>
    <g id="ytick_5">
     <g id="line2d_10">
      <path d="M 57.6 77.76 
L 414.72 77.76 
" clip-path="url(#pbe47609363)" style="fill: none; stroke: #ffffff; stroke-width: 0.8; stroke-linecap: round"/>
     </g>
     <g id="text_11">
      <!-- 2 -->
      <g style="fill: #262626" transform="translate(45.039062 81.338906) scale(0.1 -0.1)">
       <use xlink:href="#ArialMT-32"/>
      </g>
     </g>
    </g>
    <g id="text_12">
     <!-- $x_{next}$ -->
     <g style="fill: #262626" transform="translate(33.210938 185.478) rotate(-90) scale(0.1 -0.1)">
      <defs>
       <path id="DejaVuSans-Oblique-6e" d="M 3566 2113 
L 3156 0 
L 2578 0 
L 2988 2091 
Q 3016 2238 3031 2350 
Q 3047 2463 3047 2528 
Q 3047 2791 2881 2937 
Q 2716 3084 2419 3084 
Q 1956 3084 1622 2776 
Q 1288 2469 1184 1941 
L 800 0 
L 225 0 
L 903 3500 
L 1478 3500 
L 1363 2950 
Q 1603 3253 1940 3418 
Q 2278 3584 2650 3584 
Q 3113 3584 3367 3334 
Q 3622 3084 3622 2631 
Q 3622 2519 3608 2391 
Q 3594 2263 3566 2113 
z
" transform="scale(0.015625)"/>
       <path id="DejaVuSans-Oblique-65" d="M 3078 2063 
Q 3088 2113 3092 2166 
Q 3097 2219 3097 2272 
Q 3097 2653 2873 2875 
Q 2650 3097 2266 3097 
Q 1838 3097 1509 2826 
Q 1181 2556 1013 2059 
L 3078 2063 
z
M 3578 1613 
L 903 1613 
Q 884 1494 878 1425 
Q 872 1356 872 1306 
Q 872 872 1139 634 
Q 1406 397 1894 397 
Q 2269 397 2603 481 
Q 2938 566 3225 728 
L 3116 159 
Q 2806 34 2476 -28 
Q 2147 -91 1806 -91 
Q 1078 -91 686 257 
Q 294 606 294 1247 
Q 294 1794 489 2264 
Q 684 2734 1063 3103 
Q 1306 3334 1642 3459 
Q 1978 3584 2356 3584 
Q 2950 3584 3301 3228 
Q 3653 2872 3653 2272 
Q 3653 2128 3634 1964 
Q 3616 1800 3578 1613 
z
" transform="scale(0.015625)"/>
       <path id="DejaVuSans-Oblique-74" d="M 2706 3500 
L 2619 3053 
L 1472 3053 
L 1100 1153 
Q 1081 1047 1072 975 
Q 1063 903 1063 863 
Q 1063 663 1183 572 
Q 1303 481 1569 481 
L 2150 481 
L 2053 0 
L 1503 0 
Q 991 0 739 200 
Q 488 400 488 806 
Q 488 878 497 964 
Q 506 1050 525 1153 
L 897 3053 
L 409 3053 
L 500 3500 
L 978 3500 
L 1172 4494 
L 1747 4494 
L 1556 3500 
L 2706 3500 
z
" transform="scale(0.015625)"/>
      </defs>
      <use xlink:href="#DejaVuSans-Oblique-78" transform="translate(0 0.3125)"/>
      <use xlink:href="#DejaVuSans-Oblique-6e" transform="translate(59.179688 -16.09375) scale(0.7)"/>
      <use xlink:href="#DejaVuSans-Oblique-65" transform="translate(103.544922 -16.09375) scale(0.7)"/>
      <use xlink:href="#DejaVuSans-Oblique-78" transform="translate(146.611328 -16.09375) scale(0.7)"/>
      <use xlink:href="#DejaVuSans-Oblique-74" transform="translate(188.037109 -16.09375) scale(0.7)"/>
     </g>
    </g>
   </g>
   <g id="FillBetweenPolyCollection_1">
    <defs>
     <path id="m799daaeb8c" d="M 73.832727 -108.66271 
L 73.832727 -50.112 
L 77.112066 -52.531198 
L 80.391405 -54.953175 
L 83.670744 -57.369593 
L 86.950083 -59.788791 
L 90.229421 -62.207988 
L 93.50876 -64.674598 
L 96.788099 -67.046384 
L 100.067438 -69.465582 
L 103.346777 -71.884779 
L 106.626116 -74.303977 
L 109.905455 -76.723175 
L 113.184793 -79.142372 
L 116.464132 -81.56157 
L 119.743471 -83.980768 
L 123.02281 -86.399965 
L 126.302149 -88.819163 
L 129.581488 -91.238361 
L 132.860826 -93.657558 
L 136.140165 -96.076756 
L 139.419504 -98.495954 
L 142.698843 -100.915152 
L 145.978182 -103.334349 
L 149.257521 -105.753547 
L 152.53686 -108.172745 
L 155.816198 -110.591942 
L 159.095537 -113.01114 
L 162.374876 -115.430338 
L 165.654215 -117.849535 
L 168.933554 -120.268733 
L 172.212893 -122.687931 
L 175.492231 -125.107128 
L 178.77157 -127.526326 
L 182.050909 -129.945524 
L 185.330248 -128.683017 
L 188.609587 -127.352256 
L 191.888926 -126.333016 
L 195.168264 -125.294358 
L 198.447603 -124.351636 
L 201.726942 -123.917636 
L 205.006281 -123.654174 
L 208.28562 -123.298103 
L 211.564959 -123.30214 
L 214.844298 -123.793671 
L 218.123636 -124.333231 
L 221.402975 -124.661483 
L 224.682314 -125.324968 
L 227.961653 -126.233189 
L 231.240992 -127.120978 
L 234.520331 -128.046275 
L 237.799669 -129.229956 
L 241.079008 -130.899311 
L 244.358347 -132.146952 
L 247.637686 -133.606617 
L 250.917025 -135.899702 
L 254.196364 -138.117547 
L 257.475702 -140.181995 
L 260.755041 -143.466992 
L 264.03438 -146.826777 
L 267.313719 -149.385293 
L 270.593058 -195.263862 
L 273.872397 -197.683059 
L 277.151736 -200.102257 
L 280.431074 -202.521455 
L 283.710413 -204.940652 
L 286.989752 -207.35985 
L 290.269091 -209.779048 
L 293.54843 -212.198245 
L 296.827769 -214.617443 
L 300.107107 -217.036641 
L 303.386446 -219.455839 
L 306.665785 -221.875036 
L 309.945124 -224.294234 
L 313.224463 -224.576171 
L 316.503802 -223.033261 
L 319.78314 -221.49023 
L 323.062479 -219.952679 
L 326.341818 -218.729684 
L 329.621157 -217.682821 
L 332.900496 -216.754926 
L 336.179835 -216.018626 
L 339.459174 -215.558662 
L 342.738512 -215.053326 
L 346.017851 -214.776145 
L 349.29719 -214.749849 
L 352.576529 -214.91551 
L 355.855868 -215.112409 
L 359.135207 -215.100187 
L 362.414545 -215.836086 
L 365.693884 -216.320104 
L 368.973223 -217.084531 
L 372.252562 -218.342072 
L 375.531901 -219.773599 
L 378.81124 -221.431289 
L 382.090579 -223.02326 
L 385.369917 -224.591184 
L 388.649256 -226.038792 
L 391.928595 -227.574689 
L 395.207934 -229.050023 
L 398.487273 -230.878601 
L 398.487273 -289.526077 
L 398.487273 -289.526077 
L 395.207934 -286.986344 
L 391.928595 -284.457938 
L 388.649256 -282.242241 
L 385.369917 -279.909053 
L 382.090579 -277.402484 
L 378.81124 -275.097385 
L 375.531901 -272.618572 
L 372.252562 -270.038694 
L 368.973223 -267.839792 
L 365.693884 -265.420595 
L 362.414545 -263.001397 
L 359.135207 -260.582199 
L 355.855868 -258.163002 
L 352.576529 -255.743804 
L 349.29719 -253.324606 
L 346.017851 -250.905409 
L 342.738512 -248.486211 
L 339.459174 -246.067013 
L 336.179835 -243.647815 
L 332.900496 -241.228618 
L 329.621157 -238.80942 
L 326.341818 -236.390222 
L 323.062479 -233.971025 
L 319.78314 -231.551827 
L 316.503802 -229.132629 
L 313.224463 -226.713432 
L 309.945124 -224.294234 
L 306.665785 -221.875036 
L 303.386446 -219.455839 
L 300.107107 -217.036641 
L 296.827769 -214.617443 
L 293.54843 -212.198245 
L 290.269091 -213.664279 
L 286.989752 -214.759998 
L 283.710413 -216.030643 
L 280.431074 -217.032096 
L 277.151736 -217.722037 
L 273.872397 -218.450657 
L 270.593058 -218.632182 
L 267.313719 -218.516768 
L 264.03438 -218.661373 
L 260.755041 -218.300151 
L 257.475702 -217.847124 
L 254.196364 -217.626493 
L 250.917025 -216.799407 
L 247.637686 -216.066545 
L 244.358347 -215.247203 
L 241.079008 -214.326935 
L 237.799669 -213.120339 
L 234.520331 -211.707784 
L 231.240992 -209.863036 
L 227.961653 -208.647113 
L 224.682314 -206.438213 
L 221.402975 -204.255571 
L 218.123636 -201.821005 
L 214.844298 -199.006754 
L 211.564959 -195.852762 
L 208.28562 -151.350457 
L 205.006281 -146.879908 
L 201.726942 -144.46071 
L 198.447603 -142.041512 
L 195.168264 -139.622315 
L 191.888926 -137.203117 
L 188.609587 -134.783919 
L 185.330248 -132.364722 
L 182.050909 -129.945524 
L 178.77157 -127.526326 
L 175.492231 -125.107128 
L 172.212893 -122.687931 
L 168.933554 -120.268733 
L 165.654215 -117.849535 
L 162.374876 -117.71886 
L 159.095537 -119.27642 
L 155.816198 -120.807909 
L 152.53686 -122.222116 
L 149.257521 -123.502895 
L 145.978182 -124.538361 
L 142.698843 -125.384053 
L 139.419504 -126.082496 
L 136.140165 -126.770969 
L 132.860826 -126.966248 
L 129.581488 -127.48662 
L 126.302149 -127.386289 
L 123.02281 -127.057682 
L 119.743471 -127.213854 
L 116.464132 -126.878121 
L 113.184793 -126.369347 
L 109.905455 -125.800637 
L 106.626116 -124.809417 
L 103.346777 -123.550601 
L 100.067438 -122.276374 
L 96.788099 -120.789942 
L 93.50876 -119.252697 
L 90.229421 -117.365846 
L 86.950083 -115.872441 
L 83.670744 -114.455806 
L 80.391405 -112.689174 
L 77.112066 -111.071237 
L 73.832727 -108.66271 
z
" style="stroke: #0000ff; stroke-opacity: 0.5"/>
    </defs>
    <g clip-path="url(#pbe47609363)">
     <use xlink:href="#m799daaeb8c" x="0" y="345.6" style="fill: #0000ff; fill-opacity: 0.5; stroke: #0000ff; stroke-opacity: 0.5"/>
    </g>
   </g>
   <g id="FillBetweenPolyCollection_2">
    <defs>
     <path id="ma2ebcb0544" d="M 73.832727 -145.722658 
L 73.832727 -50.112 
L 77.112066 -52.531198 
L 80.391405 -54.950395 
L 83.670744 -57.369593 
L 86.950083 -59.788791 
L 90.229421 -62.207988 
L 93.50876 -64.627186 
L 96.788099 -67.046384 
L 100.067438 -69.465582 
L 103.346777 -71.884779 
L 106.626116 -74.303977 
L 109.905455 -76.723175 
L 113.184793 -79.142372 
L 116.464132 -81.56157 
L 119.743471 -83.980768 
L 123.02281 -86.399965 
L 126.302149 -88.819163 
L 129.581488 -91.238361 
L 132.860826 -93.657558 
L 136.140165 -96.076756 
L 139.419504 -98.495954 
L 142.698843 -100.915152 
L 145.978182 -103.334349 
L 149.257521 -105.753547 
L 152.53686 -108.172745 
L 155.816198 -110.591942 
L 159.095537 -113.01114 
L 162.374876 -115.430338 
L 165.654215 -117.849535 
L 168.933554 -119.33036 
L 172.212893 -119.714515 
L 175.492231 -119.286952 
L 178.77157 -118.165739 
L 182.050909 -116.626624 
L 185.330248 -114.897426 
L 188.609587 -113.203872 
L 191.888926 -111.408603 
L 195.168264 -109.705641 
L 198.447603 -107.92696 
L 201.726942 -106.560759 
L 205.006281 -105.247709 
L 208.28562 -103.772404 
L 211.564959 -102.449796 
L 214.844298 -102.040298 
L 218.123636 -101.011105 
L 221.402975 -100.690726 
L 224.682314 -100.269248 
L 227.961653 -100.20605 
L 231.240992 -100.400275 
L 234.520331 -100.584494 
L 237.799669 -100.835977 
L 241.079008 -102.746487 
L 244.358347 -103.872989 
L 247.637686 -105.240857 
L 250.917025 -106.365634 
L 254.196364 -108.080944 
L 257.475702 -109.83589 
L 260.755041 -111.643947 
L 264.03438 -113.429936 
L 267.313719 -114.783228 
L 270.593058 -116.97593 
L 273.872397 -118.503157 
L 277.151736 -120.479991 
L 280.431074 -122.347531 
L 283.710413 -124.3659 
L 286.989752 -126.357399 
L 290.269091 -128.442672 
L 293.54843 -130.948713 
L 296.827769 -209.882952 
L 300.107107 -212.566939 
L 303.386446 -213.790464 
L 306.665785 -213.420952 
L 309.945124 -212.319635 
L 313.224463 -210.689023 
L 316.503802 -208.733832 
L 319.78314 -206.473549 
L 323.062479 -204.249555 
L 326.341818 -201.965621 
L 329.621157 -199.594308 
L 332.900496 -197.218023 
L 336.179835 -194.66266 
L 339.459174 -190.38945 
L 342.738512 -187.360327 
L 346.017851 -153.171226 
L 349.29719 -155.105351 
L 352.576529 -155.765395 
L 355.855868 -158.36191 
L 359.135207 -159.801676 
L 362.414545 -162.607828 
L 365.693884 -162.988873 
L 368.973223 -168.695469 
L 372.252562 -172.974348 
L 375.531901 -178.925431 
L 378.81124 -181.043356 
L 382.090579 -184.703582 
L 385.369917 -187.131587 
L 388.649256 -189.036353 
L 391.928595 -191.421702 
L 395.207934 -192.105509 
L 398.487273 -194.423411 
L 398.487273 -289.612572 
L 398.487273 -289.612572 
L 395.207934 -287.193374 
L 391.928595 -284.774176 
L 388.649256 -282.354979 
L 385.369917 -279.935781 
L 382.090579 -277.516583 
L 378.81124 -275.097385 
L 375.531901 -272.678188 
L 372.252562 -270.25899 
L 368.973223 -267.839792 
L 365.693884 -265.420595 
L 362.414545 -263.001397 
L 359.135207 -260.582199 
L 355.855868 -258.163002 
L 352.576529 -255.743804 
L 349.29719 -253.324606 
L 346.017851 -250.905409 
L 342.738512 -248.486211 
L 339.459174 -246.067013 
L 336.179835 -243.647815 
L 332.900496 -241.228618 
L 329.621157 -238.80942 
L 326.341818 -236.390222 
L 323.062479 -233.971025 
L 319.78314 -231.551827 
L 316.503802 -229.132629 
L 313.224463 -226.713432 
L 309.945124 -224.294234 
L 306.665785 -222.964509 
L 303.386446 -222.516262 
L 300.107107 -222.875534 
L 296.827769 -224.121078 
L 293.54843 -225.510085 
L 290.269091 -227.295722 
L 286.989752 -228.899777 
L 283.710413 -230.629639 
L 280.431074 -232.519921 
L 277.151736 -234.014952 
L 273.872397 -235.820517 
L 270.593058 -237.172766 
L 267.313719 -238.24569 
L 264.03438 -239.350119 
L 260.755041 -240.271523 
L 257.475702 -241.052959 
L 254.196364 -241.613718 
L 250.917025 -241.79898 
L 247.637686 -241.867658 
L 244.358347 -241.687771 
L 241.079008 -241.951528 
L 237.799669 -241.303761 
L 234.520331 -240.142029 
L 231.240992 -238.110914 
L 227.961653 -237.45051 
L 224.682314 -235.649536 
L 221.402975 -234.205394 
L 218.123636 -232.284242 
L 214.844298 -230.700029 
L 211.564959 -228.860105 
L 208.28562 -227.080334 
L 205.006281 -225.45705 
L 201.726942 -223.388865 
L 198.447603 -221.769543 
L 195.168264 -219.593257 
L 191.888926 -217.561813 
L 188.609587 -215.780014 
L 185.330248 -213.496057 
L 182.050909 -211.572662 
L 178.77157 -132.113891 
L 175.492231 -129.452698 
L 172.212893 -128.316786 
L 168.933554 -128.663666 
L 165.654215 -129.704613 
L 162.374876 -131.612027 
L 159.095537 -133.641818 
L 155.816198 -135.663074 
L 152.53686 -137.891152 
L 149.257521 -140.354427 
L 145.978182 -142.77126 
L 142.698843 -144.859546 
L 139.419504 -148.515773 
L 136.140165 -150.96438 
L 132.860826 -153.19615 
L 129.581488 -188.422443 
L 126.302149 -187.029423 
L 123.02281 -185.047651 
L 119.743471 -184.193033 
L 116.464132 -182.652623 
L 113.184793 -180.873919 
L 109.905455 -178.445601 
L 106.626116 -174.357412 
L 103.346777 -167.670111 
L 100.067438 -162.557562 
L 96.788099 -160.765667 
L 93.50876 -158.356989 
L 90.229421 -155.166492 
L 86.950083 -153.088948 
L 83.670744 -151.294211 
L 80.391405 -149.651648 
L 77.112066 -148.010645 
L 73.832727 -145.722658 
z
" style="stroke: #0000ff; stroke-opacity: 0.3"/>
    </defs>
    <g clip-path="url(#pbe47609363)">
     <use xlink:href="#ma2ebcb0544" x="0" y="345.6" style="fill: #0000ff; fill-opacity: 0.3; stroke: #0000ff; stroke-opacity: 0.3"/>
    </g>
   </g>
   <g id="line2d_11">
    <path d="M 73.832727 260.028311 
L 77.112066 257.567251 
L 80.391405 255.484196 
L 83.670744 253.355604 
L 86.950083 251.387341 
L 90.229421 249.178259 
L 93.50876 246.788021 
L 96.788099 244.752188 
L 100.067438 242.753136 
L 103.346777 240.644818 
L 106.626116 238.53947 
L 109.905455 236.979021 
L 113.184793 235.661961 
L 116.464132 234.435786 
L 119.743471 233.367816 
L 123.02281 232.632926 
L 126.302149 231.691479 
L 129.581488 230.80151 
L 132.860826 230.333492 
L 136.140165 229.50518 
L 139.419504 228.97769 
L 142.698843 228.692096 
L 145.978182 228.065757 
L 149.257521 227.514192 
L 152.53686 227.113311 
L 155.816198 226.462123 
L 159.095537 225.618072 
L 162.374876 224.699788 
L 165.654215 223.665116 
L 168.933554 222.123643 
L 172.212893 220.300999 
L 175.492231 217.897314 
L 178.77157 215.360262 
L 182.050909 212.606713 
L 185.330248 210.123893 
L 188.609587 207.634478 
L 191.888926 205.217512 
L 195.168264 202.845253 
L 198.447603 200.455494 
L 201.726942 198.061196 
L 205.006281 195.544919 
L 208.28562 193.448249 
L 211.564959 190.998824 
L 214.844298 188.544735 
L 218.123636 186.172729 
L 221.402975 184.037926 
L 224.682314 182.016625 
L 227.961653 179.811784 
L 231.240992 178.234583 
L 234.520331 176.157823 
L 237.799669 174.389583 
L 241.079008 172.515427 
L 244.358347 170.669025 
L 247.637686 169.11981 
L 250.917025 166.953243 
L 254.196364 164.819398 
L 257.475702 162.902194 
L 260.755041 160.369043 
L 264.03438 157.913128 
L 267.313719 156.031231 
L 270.593058 153.403919 
L 273.872397 150.753743 
L 277.151736 148.580938 
L 280.431074 146.232702 
L 283.710413 143.732916 
L 286.989752 141.470517 
L 290.269091 138.898054 
L 293.54843 136.363964 
L 296.827769 133.732683 
L 300.107107 131.212589 
L 303.386446 128.807753 
L 306.665785 126.944288 
L 309.945124 125.43243 
L 313.224463 124.287713 
L 316.503802 123.326332 
L 319.78314 122.618176 
L 323.062479 121.956509 
L 326.341818 121.422576 
L 329.621157 120.865399 
L 332.900496 120.405276 
L 336.179835 119.934172 
L 339.459174 119.449756 
L 342.738512 118.821969 
L 346.017851 118.234926 
L 349.29719 117.464466 
L 352.576529 116.618326 
L 355.855868 115.563668 
L 359.135207 114.680661 
L 362.414545 113.308508 
L 365.693884 112.201807 
L 368.973223 110.599459 
L 372.252562 108.720372 
L 375.531901 106.463827 
L 378.81124 104.310751 
L 382.090579 102.100441 
L 385.369917 99.969934 
L 388.649256 97.856362 
L 391.928595 95.686069 
L 395.207934 93.785023 
L 398.487273 91.523074 
" clip-path="url(#pbe47609363)" style="fill: none; stroke: #0000ff; stroke-width: 1.5; stroke-linecap: round"/>
   </g>
   <g id="line2d_12">
    <path d="M 73.832727 295.488 
L 77.112066 293.068802 
L 80.391405 290.649605 
L 83.670744 288.230407 
L 86.950083 285.811209 
L 90.229421 283.392012 
L 93.50876 280.972814 
L 96.788099 278.553616 
L 100.067438 276.134418 
L 103.346777 273.715221 
L 106.626116 271.296023 
L 109.905455 268.876825 
L 113.184793 266.457628 
L 116.464132 264.03843 
L 119.743471 261.619232 
L 123.02281 259.200035 
L 126.302149 256.780837 
L 129.581488 254.361639 
L 132.860826 251.942442 
L 136.140165 249.523244 
L 139.419504 247.104046 
L 142.698843 244.684848 
L 145.978182 242.265651 
L 149.257521 239.846453 
L 152.53686 237.427255 
L 155.816198 235.008058 
L 159.095537 232.58886 
L 162.374876 230.169662 
L 165.654215 227.750465 
L 168.933554 225.331267 
L 172.212893 222.912069 
L 175.492231 220.492872 
L 178.77157 218.073674 
L 182.050909 215.654476 
L 185.330248 213.235278 
L 188.609587 210.816081 
L 191.888926 208.396883 
L 195.168264 205.977685 
L 198.447603 203.558488 
L 201.726942 201.13929 
L 205.006281 198.720092 
L 208.28562 196.300895 
L 211.564959 193.881697 
L 214.844298 191.462499 
L 218.123636 189.043302 
L 221.402975 186.624104 
L 224.682314 184.204906 
L 227.961653 181.785708 
L 231.240992 179.366511 
L 234.520331 176.947313 
L 237.799669 174.528115 
L 241.079008 172.108918 
L 244.358347 169.68972 
L 247.637686 167.270522 
L 250.917025 164.851325 
L 254.196364 162.432127 
L 257.475702 160.012929 
L 260.755041 157.593732 
L 264.03438 155.174534 
L 267.313719 152.755336 
L 270.593058 150.336138 
L 273.872397 147.916941 
L 277.151736 145.497743 
L 280.431074 143.078545 
L 283.710413 140.659348 
L 286.989752 138.24015 
L 290.269091 135.820952 
L 293.54843 133.401755 
L 296.827769 130.982557 
L 300.107107 128.563359 
L 303.386446 126.144161 
L 306.665785 123.724964 
L 309.945124 121.305766 
L 313.224463 118.886568 
L 316.503802 116.467371 
L 319.78314 114.048173 
L 323.062479 111.628975 
L 326.341818 109.209778 
L 329.621157 106.79058 
L 332.900496 104.371382 
L 336.179835 101.952185 
L 339.459174 99.532987 
L 342.738512 97.113789 
L 346.017851 94.694591 
L 349.29719 92.275394 
L 352.576529 89.856196 
L 355.855868 87.436998 
L 359.135207 85.017801 
L 362.414545 82.598603 
L 365.693884 80.179405 
L 368.973223 77.760208 
L 372.252562 75.34101 
L 375.531901 72.921812 
L 378.81124 70.502615 
L 382.090579 68.083417 
L 385.369917 65.664219 
L 388.649256 63.245021 
L 391.928595 60.825824 
L 395.207934 58.406626 
L 398.487273 55.987428 
" clip-path="url(#pbe47609363)" style="fill: none; stroke-dasharray: 5.55,2.4; stroke-dashoffset: 0; stroke: #808080; stroke-width: 1.5"/>
   </g>
   <g id="LineCollection_1">
    <path d="M 172.212986 295.488 
L 172.212986 53.568 
" clip-path="url(#pbe47609363)" style="fill: none; stroke-dasharray: 5.55,2.4; stroke-dashoffset: 0; stroke: #008000; stroke-width: 1.5"/>
    <path d="M 303.386665 295.488 
L 303.386665 53.568 
" clip-path="url(#pbe47609363)" style="fill: none; stroke-dasharray: 5.55,2.4; stroke-dashoffset: 0; stroke: #008000; stroke-width: 1.5"/>
   </g>
   <g id="patch_3">
    <path d="M 57.6 307.584 
L 57.6 41.472 
" style="fill: none; stroke: #ffffff; stroke-width: 0.8; stroke-linejoin: miter; stroke-linecap: square"/>
   </g>
   <g id="patch_4">
    <path d="M 414.72 307.584 
L 414.72 41.472 
" style="fill: none; stroke: #ffffff; stroke-width: 0.8; stroke-linejoin: miter; stroke-linecap: square"/>
   </g>
   <g id="patch_5">
    <path d="M 57.6 307.584 
L 414.72 307.584 
" style="fill: none; stroke: #ffffff; stroke-width: 0.8; stroke-linejoin: miter; stroke-linecap: square"/>
   </g>
   <g id="patch_6">
    <path d="M 57.6 41.472 
L 414.72 41.472 
" style="fill: none; stroke: #ffffff; stroke-width: 0.8; stroke-linejoin: miter; stroke-linecap: square"/>
   </g>
   <g id="text_13">
    <!-- $\sigma^2=1, n=2$ -->
    <g style="fill: #262626" transform="translate(199.98 35.472) scale(0.12 -0.12)">
     <defs>
      <path id="DejaVuSans-Oblique-3c3" d="M 2219 3044 
Q 1744 3044 1422 2700 
Q 1081 2341 969 1747 
Q 844 1119 1044 756 
Q 1241 397 1706 397 
Q 2166 397 2503 759 
Q 2844 1122 2966 1747 
Q 3075 2319 2881 2700 
Q 2700 3044 2219 3044 
z
M 2309 3503 
L 4219 3500 
L 4106 2925 
L 3463 2925 
Q 3706 2438 3575 1747 
Q 3406 888 2884 400 
Q 2359 -91 1609 -91 
Q 856 -91 525 400 
Q 194 888 363 1747 
Q 528 2609 1050 3097 
Q 1484 3503 2309 3503 
z
" transform="scale(0.015625)"/>
      <path id="DejaVuSans-32" d="M 1228 531 
L 3431 531 
L 3431 0 
L 469 0 
L 469 531 
Q 828 903 1448 1529 
Q 2069 2156 2228 2338 
Q 2531 2678 2651 2914 
Q 2772 3150 2772 3378 
Q 2772 3750 2511 3984 
Q 2250 4219 1831 4219 
Q 1534 4219 1204 4116 
Q 875 4013 500 3803 
L 500 4441 
Q 881 4594 1212 4672 
Q 1544 4750 1819 4750 
Q 2544 4750 2975 4387 
Q 3406 4025 3406 3419 
Q 3406 3131 3298 2873 
Q 3191 2616 2906 2266 
Q 2828 2175 2409 1742 
Q 1991 1309 1228 531 
z
" transform="scale(0.015625)"/>
      <path id="DejaVuSans-3d" d="M 678 2906 
L 4684 2906 
L 4684 2381 
L 678 2381 
L 678 2906 
z
M 678 1631 
L 4684 1631 
L 4684 1100 
L 678 1100 
L 678 1631 
z
" transform="scale(0.015625)"/>
      <path id="DejaVuSans-31" d="M 794 531 
L 1825 531 
L 1825 4091 
L 703 3866 
L 703 4441 
L 1819 4666 
L 2450 4666 
L 2450 531 
L 3481 531 
L 3481 0 
L 794 0 
L 794 531 
z
" transform="scale(0.015625)"/>
      <path id="DejaVuSans-2c" d="M 750 794 
L 1409 794 
L 1409 256 
L 897 -744 
L 494 -744 
L 750 256 
L 750 794 
z
" transform="scale(0.015625)"/>
     </defs>
     <use xlink:href="#DejaVuSans-Oblique-3c3" transform="translate(0 0.765625)"/>
     <use xlink:href="#DejaVuSans-32" transform="translate(67.851615 39.046875) scale(0.7)"/>
     <use xlink:href="#DejaVuSans-3d" transform="translate(134.604544 0.765625)"/>
     <use xlink:href="#DejaVuSans-31" transform="translate(237.876029 0.765625)"/>
     <use xlink:href="#DejaVuSans-2c" transform="translate(301.499076 0.765625)"/>
     <use xlink:href="#DejaVuSans-Oblique-6e" transform="translate(352.768607 0.765625)"/>
     <use xlink:href="#DejaVuSans-3d" transform="translate(435.629935 0.765625)"/>
     <use xlink:href="#DejaVuSans-32" transform="translate(538.901419 0.765625)"/>
    </g>
   </g>
   <g id="legend_1">
    <g id="patch_7">
     <path d="M 297.42 302.584 
L 407.72 302.584 
Q 409.72 302.584 409.72 300.584 
L 409.72 230.248062 
Q 409.72 228.248062 407.72 228.248062 
L 297.42 228.248062 
Q 295.42 228.248062 295.42 230.248062 
L 295.42 300.584 
Q 295.42 302.584 297.42 302.584 
z
" style="fill: #eaeaf2; opacity: 0.8; stroke: #cccccc; stroke-linejoin: miter"/>
    </g>
    <g id="line2d_13">
     <path d="M 299.42 236.160562 
L 309.42 236.160562 
L 319.42 236.160562 
" style="fill: none; stroke: #0000ff; stroke-width: 1.5; stroke-linecap: round"/>
    </g>
    <g id="text_14">
     <!-- $E[x_{next}]$ -->
     <g style="fill: #262626" transform="translate(327.42 239.660562) scale(0.1 -0.1)">
      <defs>
       <path id="DejaVuSans-Oblique-45" d="M 1081 4666 
L 4031 4666 
L 3928 4134 
L 1606 4134 
L 1338 2753 
L 3566 2753 
L 3463 2222 
L 1234 2222 
L 909 531 
L 3284 531 
L 3181 0 
L 172 0 
L 1081 4666 
z
" transform="scale(0.015625)"/>
       <path id="DejaVuSans-5b" d="M 550 4863 
L 1875 4863 
L 1875 4416 
L 1125 4416 
L 1125 -397 
L 1875 -397 
L 1875 -844 
L 550 -844 
L 550 4863 
z
" transform="scale(0.015625)"/>
       <path id="DejaVuSans-5d" d="M 1947 4863 
L 1947 -844 
L 622 -844 
L 622 -397 
L 1369 -397 
L 1369 4416 
L 622 4416 
L 622 4863 
L 1947 4863 
z
" transform="scale(0.015625)"/>
      </defs>
      <use xlink:href="#DejaVuSans-Oblique-45" transform="translate(0 0.015625)"/>
      <use xlink:href="#DejaVuSans-5b" transform="translate(63.183594 0.015625)"/>
      <use xlink:href="#DejaVuSans-Oblique-78" transform="translate(102.197266 0.015625)"/>
      <use xlink:href="#DejaVuSans-Oblique-6e" transform="translate(161.376953 -16.390625) scale(0.7)"/>
      <use xlink:href="#DejaVuSans-Oblique-65" transform="translate(205.742188 -16.390625) scale(0.7)"/>
      <use xlink:href="#DejaVuSans-Oblique-78" transform="translate(248.808594 -16.390625) scale(0.7)"/>
      <use xlink:href="#DejaVuSans-Oblique-74" transform="translate(290.234375 -16.390625) scale(0.7)"/>
      <use xlink:href="#DejaVuSans-5d" transform="translate(320.415039 0.015625)"/>
     </g>
    </g>
    <g id="patch_8">
     <path d="M 299.42 253.805875 
L 319.42 253.805875 
L 319.42 246.805875 
L 299.42 246.805875 
z
" style="fill: #0000ff; fill-opacity: 0.5; stroke: #0000ff; stroke-opacity: 0.5; stroke-linejoin: miter"/>
    </g>
    <g id="text_15">
     <!-- 50% CI -->
     <g style="fill: #262626" transform="translate(327.42 253.805875) scale(0.1 -0.1)">
      <defs>
       <path id="ArialMT-35" d="M 266 1200 
L 856 1250 
Q 922 819 1161 601 
Q 1400 384 1738 384 
Q 2144 384 2425 690 
Q 2706 997 2706 1503 
Q 2706 1984 2436 2262 
Q 2166 2541 1728 2541 
Q 1456 2541 1237 2417 
Q 1019 2294 894 2097 
L 366 2166 
L 809 4519 
L 3088 4519 
L 3088 3981 
L 1259 3981 
L 1013 2750 
Q 1425 3038 1878 3038 
Q 2478 3038 2890 2622 
Q 3303 2206 3303 1553 
Q 3303 931 2941 478 
Q 2500 -78 1738 -78 
Q 1113 -78 717 272 
Q 322 622 266 1200 
z
" transform="scale(0.015625)"/>
       <path id="ArialMT-25" d="M 372 3481 
Q 372 3972 619 4315 
Q 866 4659 1334 4659 
Q 1766 4659 2048 4351 
Q 2331 4044 2331 3447 
Q 2331 2866 2045 2552 
Q 1759 2238 1341 2238 
Q 925 2238 648 2547 
Q 372 2856 372 3481 
z
M 1350 4272 
Q 1141 4272 1002 4090 
Q 863 3909 863 3425 
Q 863 2984 1003 2804 
Q 1144 2625 1350 2625 
Q 1563 2625 1702 2806 
Q 1841 2988 1841 3469 
Q 1841 3913 1700 4092 
Q 1559 4272 1350 4272 
z
M 1353 -169 
L 3859 4659 
L 4316 4659 
L 1819 -169 
L 1353 -169 
z
M 3334 1075 
Q 3334 1569 3581 1911 
Q 3828 2253 4300 2253 
Q 4731 2253 5014 1945 
Q 5297 1638 5297 1041 
Q 5297 459 5011 145 
Q 4725 -169 4303 -169 
Q 3888 -169 3611 142 
Q 3334 453 3334 1075 
z
M 4316 1866 
Q 4103 1866 3964 1684 
Q 3825 1503 3825 1019 
Q 3825 581 3965 400 
Q 4106 219 4313 219 
Q 4528 219 4667 400 
Q 4806 581 4806 1063 
Q 4806 1506 4665 1686 
Q 4525 1866 4316 1866 
z
" transform="scale(0.015625)"/>
       <path id="ArialMT-20" transform="scale(0.015625)"/>
       <path id="ArialMT-43" d="M 3763 1606 
L 4369 1453 
Q 4178 706 3683 314 
Q 3188 -78 2472 -78 
Q 1731 -78 1267 223 
Q 803 525 561 1097 
Q 319 1669 319 2325 
Q 319 3041 592 3573 
Q 866 4106 1370 4382 
Q 1875 4659 2481 4659 
Q 3169 4659 3637 4309 
Q 4106 3959 4291 3325 
L 3694 3184 
Q 3534 3684 3231 3912 
Q 2928 4141 2469 4141 
Q 1941 4141 1586 3887 
Q 1231 3634 1087 3207 
Q 944 2781 944 2328 
Q 944 1744 1114 1308 
Q 1284 872 1643 656 
Q 2003 441 2422 441 
Q 2931 441 3284 734 
Q 3638 1028 3763 1606 
z
" transform="scale(0.015625)"/>
       <path id="ArialMT-49" d="M 597 0 
L 597 4581 
L 1203 4581 
L 1203 0 
L 597 0 
z
" transform="scale(0.015625)"/>
      </defs>
      <use xlink:href="#ArialMT-35"/>
      <use xlink:href="#ArialMT-30" transform="translate(55.615234 0)"/>
      <use xlink:href="#ArialMT-25" transform="translate(111.230469 0)"/>
      <use xlink:href="#ArialMT-20" transform="translate(200.146484 0)"/>
      <use xlink:href="#ArialMT-43" transform="translate(227.929688 0)"/>
      <use xlink:href="#ArialMT-49" transform="translate(300.146484 0)"/>
     </g>
    </g>
    <g id="patch_9">
     <path d="M 299.42 267.951187 
L 319.42 267.951187 
L 319.42 260.951187 
L 299.42 260.951187 
z
" style="fill: #0000ff; fill-opacity: 0.3; stroke: #0000ff; stroke-opacity: 0.3; stroke-linejoin: miter"/>
    </g>
    <g id="text_16">
     <!-- 90% CI -->
     <g style="fill: #262626" transform="translate(327.42 267.951187) scale(0.1 -0.1)">
      <defs>
       <path id="ArialMT-39" d="M 350 1059 
L 891 1109 
Q 959 728 1153 556 
Q 1347 384 1650 384 
Q 1909 384 2104 503 
Q 2300 622 2425 820 
Q 2550 1019 2634 1356 
Q 2719 1694 2719 2044 
Q 2719 2081 2716 2156 
Q 2547 1888 2255 1720 
Q 1963 1553 1622 1553 
Q 1053 1553 659 1965 
Q 266 2378 266 3053 
Q 266 3750 677 4175 
Q 1088 4600 1706 4600 
Q 2153 4600 2523 4359 
Q 2894 4119 3086 3673 
Q 3278 3228 3278 2384 
Q 3278 1506 3087 986 
Q 2897 466 2520 194 
Q 2144 -78 1638 -78 
Q 1100 -78 759 220 
Q 419 519 350 1059 
z
M 2653 3081 
Q 2653 3566 2395 3850 
Q 2138 4134 1775 4134 
Q 1400 4134 1122 3828 
Q 844 3522 844 3034 
Q 844 2597 1108 2323 
Q 1372 2050 1759 2050 
Q 2150 2050 2401 2323 
Q 2653 2597 2653 3081 
z
" transform="scale(0.015625)"/>
      </defs>
      <use xlink:href="#ArialMT-39"/>
      <use xlink:href="#ArialMT-30" transform="translate(55.615234 0)"/>
      <use xlink:href="#ArialMT-25" transform="translate(111.230469 0)"/>
      <use xlink:href="#ArialMT-20" transform="translate(200.146484 0)"/>
      <use xlink:href="#ArialMT-43" transform="translate(227.929688 0)"/>
      <use xlink:href="#ArialMT-49" transform="translate(300.146484 0)"/>
     </g>
    </g>
    <g id="line2d_14">
     <path d="M 299.42 278.5965 
L 309.42 278.5965 
L 319.42 278.5965 
" style="fill: none; stroke-dasharray: 5.55,2.4; stroke-dashoffset: 0; stroke: #808080; stroke-width: 1.5"/>
    </g>
    <g id="text_17">
     <!-- x=x_next -->
     <g style="fill: #262626" transform="translate(327.42 282.0965) scale(0.1 -0.1)">
      <defs>
       <path id="ArialMT-78" d="M 47 0 
L 1259 1725 
L 138 3319 
L 841 3319 
L 1350 2541 
Q 1494 2319 1581 2169 
Q 1719 2375 1834 2534 
L 2394 3319 
L 3066 3319 
L 1919 1756 
L 3153 0 
L 2463 0 
L 1781 1031 
L 1600 1309 
L 728 0 
L 47 0 
z
" transform="scale(0.015625)"/>
       <path id="ArialMT-3d" d="M 3381 2694 
L 356 2694 
L 356 3219 
L 3381 3219 
L 3381 2694 
z
M 3381 1303 
L 356 1303 
L 356 1828 
L 3381 1828 
L 3381 1303 
z
" transform="scale(0.015625)"/>
       <path id="ArialMT-5f" d="M -97 -1272 
L -97 -866 
L 3631 -866 
L 3631 -1272 
L -97 -1272 
z
" transform="scale(0.015625)"/>
       <path id="ArialMT-6e" d="M 422 0 
L 422 3319 
L 928 3319 
L 928 2847 
Q 1294 3394 1984 3394 
Q 2284 3394 2536 3286 
Q 2788 3178 2913 3003 
Q 3038 2828 3088 2588 
Q 3119 2431 3119 2041 
L 3119 0 
L 2556 0 
L 2556 2019 
Q 2556 2363 2490 2533 
Q 2425 2703 2258 2804 
Q 2091 2906 1866 2906 
Q 1506 2906 1245 2678 
Q 984 2450 984 1813 
L 984 0 
L 422 0 
z
" transform="scale(0.015625)"/>
       <path id="ArialMT-65" d="M 2694 1069 
L 3275 997 
Q 3138 488 2766 206 
Q 2394 -75 1816 -75 
Q 1088 -75 661 373 
Q 234 822 234 1631 
Q 234 2469 665 2931 
Q 1097 3394 1784 3394 
Q 2450 3394 2872 2941 
Q 3294 2488 3294 1666 
Q 3294 1616 3291 1516 
L 816 1516 
Q 847 969 1125 678 
Q 1403 388 1819 388 
Q 2128 388 2347 550 
Q 2566 713 2694 1069 
z
M 847 1978 
L 2700 1978 
Q 2663 2397 2488 2606 
Q 2219 2931 1791 2931 
Q 1403 2931 1139 2672 
Q 875 2413 847 1978 
z
" transform="scale(0.015625)"/>
       <path id="ArialMT-74" d="M 1650 503 
L 1731 6 
Q 1494 -44 1306 -44 
Q 1000 -44 831 53 
Q 663 150 594 308 
Q 525 466 525 972 
L 525 2881 
L 113 2881 
L 113 3319 
L 525 3319 
L 525 4141 
L 1084 4478 
L 1084 3319 
L 1650 3319 
L 1650 2881 
L 1084 2881 
L 1084 941 
Q 1084 700 1114 631 
Q 1144 563 1211 522 
Q 1278 481 1403 481 
Q 1497 481 1650 503 
z
" transform="scale(0.015625)"/>
      </defs>
      <use xlink:href="#ArialMT-78"/>
      <use xlink:href="#ArialMT-3d" transform="translate(50 0)"/>
      <use xlink:href="#ArialMT-78" transform="translate(108.398438 0)"/>
      <use xlink:href="#ArialMT-5f" transform="translate(158.398438 0)"/>
      <use xlink:href="#ArialMT-6e" transform="translate(214.013672 0)"/>
      <use xlink:href="#ArialMT-65" transform="translate(269.628906 0)"/>
      <use xlink:href="#ArialMT-78" transform="translate(325.244141 0)"/>
      <use xlink:href="#ArialMT-74" transform="translate(375.244141 0)"/>
     </g>
    </g>
    <g id="line2d_15">
     <path d="M 299.42 292.884 
L 319.42 292.884 
" style="fill: none; stroke-dasharray: 5.55,2.4; stroke-dashoffset: 0; stroke: #008000; stroke-width: 1.5"/>
    </g>
    <g id="text_18">
     <!-- modes of target $\pi$ -->
     <g style="fill: #262626" transform="translate(327.42 296.384) scale(0.1 -0.1)">
      <defs>
       <path id="ArialMT-6d" d="M 422 0 
L 422 3319 
L 925 3319 
L 925 2853 
Q 1081 3097 1340 3245 
Q 1600 3394 1931 3394 
Q 2300 3394 2536 3241 
Q 2772 3088 2869 2813 
Q 3263 3394 3894 3394 
Q 4388 3394 4653 3120 
Q 4919 2847 4919 2278 
L 4919 0 
L 4359 0 
L 4359 2091 
Q 4359 2428 4304 2576 
Q 4250 2725 4106 2815 
Q 3963 2906 3769 2906 
Q 3419 2906 3187 2673 
Q 2956 2441 2956 1928 
L 2956 0 
L 2394 0 
L 2394 2156 
Q 2394 2531 2256 2718 
Q 2119 2906 1806 2906 
Q 1569 2906 1367 2781 
Q 1166 2656 1075 2415 
Q 984 2175 984 1722 
L 984 0 
L 422 0 
z
" transform="scale(0.015625)"/>
       <path id="ArialMT-6f" d="M 213 1659 
Q 213 2581 725 3025 
Q 1153 3394 1769 3394 
Q 2453 3394 2887 2945 
Q 3322 2497 3322 1706 
Q 3322 1066 3130 698 
Q 2938 331 2570 128 
Q 2203 -75 1769 -75 
Q 1072 -75 642 372 
Q 213 819 213 1659 
z
M 791 1659 
Q 791 1022 1069 705 
Q 1347 388 1769 388 
Q 2188 388 2466 706 
Q 2744 1025 2744 1678 
Q 2744 2294 2464 2611 
Q 2184 2928 1769 2928 
Q 1347 2928 1069 2612 
Q 791 2297 791 1659 
z
" transform="scale(0.015625)"/>
       <path id="ArialMT-64" d="M 2575 0 
L 2575 419 
Q 2259 -75 1647 -75 
Q 1250 -75 917 144 
Q 584 363 401 755 
Q 219 1147 219 1656 
Q 219 2153 384 2558 
Q 550 2963 881 3178 
Q 1213 3394 1622 3394 
Q 1922 3394 2156 3267 
Q 2391 3141 2538 2938 
L 2538 4581 
L 3097 4581 
L 3097 0 
L 2575 0 
z
M 797 1656 
Q 797 1019 1065 703 
Q 1334 388 1700 388 
Q 2069 388 2326 689 
Q 2584 991 2584 1609 
Q 2584 2291 2321 2609 
Q 2059 2928 1675 2928 
Q 1300 2928 1048 2622 
Q 797 2316 797 1656 
z
" transform="scale(0.015625)"/>
       <path id="ArialMT-73" d="M 197 991 
L 753 1078 
Q 800 744 1014 566 
Q 1228 388 1613 388 
Q 2000 388 2187 545 
Q 2375 703 2375 916 
Q 2375 1106 2209 1216 
Q 2094 1291 1634 1406 
Q 1016 1563 777 1677 
Q 538 1791 414 1992 
Q 291 2194 291 2438 
Q 291 2659 392 2848 
Q 494 3038 669 3163 
Q 800 3259 1026 3326 
Q 1253 3394 1513 3394 
Q 1903 3394 2198 3281 
Q 2494 3169 2634 2976 
Q 2775 2784 2828 2463 
L 2278 2388 
Q 2241 2644 2061 2787 
Q 1881 2931 1553 2931 
Q 1166 2931 1000 2803 
Q 834 2675 834 2503 
Q 834 2394 903 2306 
Q 972 2216 1119 2156 
Q 1203 2125 1616 2013 
Q 2213 1853 2448 1751 
Q 2684 1650 2818 1456 
Q 2953 1263 2953 975 
Q 2953 694 2789 445 
Q 2625 197 2315 61 
Q 2006 -75 1616 -75 
Q 969 -75 630 194 
Q 291 463 197 991 
z
" transform="scale(0.015625)"/>
       <path id="ArialMT-66" d="M 556 0 
L 556 2881 
L 59 2881 
L 59 3319 
L 556 3319 
L 556 3672 
Q 556 4006 616 4169 
Q 697 4388 901 4523 
Q 1106 4659 1475 4659 
Q 1713 4659 2000 4603 
L 1916 4113 
Q 1741 4144 1584 4144 
Q 1328 4144 1222 4034 
Q 1116 3925 1116 3625 
L 1116 3319 
L 1763 3319 
L 1763 2881 
L 1116 2881 
L 1116 0 
L 556 0 
z
" transform="scale(0.015625)"/>
       <path id="ArialMT-61" d="M 2588 409 
Q 2275 144 1986 34 
Q 1697 -75 1366 -75 
Q 819 -75 525 192 
Q 231 459 231 875 
Q 231 1119 342 1320 
Q 453 1522 633 1644 
Q 813 1766 1038 1828 
Q 1203 1872 1538 1913 
Q 2219 1994 2541 2106 
Q 2544 2222 2544 2253 
Q 2544 2597 2384 2738 
Q 2169 2928 1744 2928 
Q 1347 2928 1158 2789 
Q 969 2650 878 2297 
L 328 2372 
Q 403 2725 575 2942 
Q 747 3159 1072 3276 
Q 1397 3394 1825 3394 
Q 2250 3394 2515 3294 
Q 2781 3194 2906 3042 
Q 3031 2891 3081 2659 
Q 3109 2516 3109 2141 
L 3109 1391 
Q 3109 606 3145 398 
Q 3181 191 3288 0 
L 2700 0 
Q 2613 175 2588 409 
z
M 2541 1666 
Q 2234 1541 1622 1453 
Q 1275 1403 1131 1340 
Q 988 1278 909 1158 
Q 831 1038 831 891 
Q 831 666 1001 516 
Q 1172 366 1500 366 
Q 1825 366 2078 508 
Q 2331 650 2450 897 
Q 2541 1088 2541 1459 
L 2541 1666 
z
" transform="scale(0.015625)"/>
       <path id="ArialMT-72" d="M 416 0 
L 416 3319 
L 922 3319 
L 922 2816 
Q 1116 3169 1280 3281 
Q 1444 3394 1641 3394 
Q 1925 3394 2219 3213 
L 2025 2691 
Q 1819 2813 1613 2813 
Q 1428 2813 1281 2702 
Q 1134 2591 1072 2394 
Q 978 2094 978 1738 
L 978 0 
L 416 0 
z
" transform="scale(0.015625)"/>
       <path id="ArialMT-67" d="M 319 -275 
L 866 -356 
Q 900 -609 1056 -725 
Q 1266 -881 1628 -881 
Q 2019 -881 2231 -725 
Q 2444 -569 2519 -288 
Q 2563 -116 2559 434 
Q 2191 0 1641 0 
Q 956 0 581 494 
Q 206 988 206 1678 
Q 206 2153 378 2554 
Q 550 2956 876 3175 
Q 1203 3394 1644 3394 
Q 2231 3394 2613 2919 
L 2613 3319 
L 3131 3319 
L 3131 450 
Q 3131 -325 2973 -648 
Q 2816 -972 2473 -1159 
Q 2131 -1347 1631 -1347 
Q 1038 -1347 672 -1080 
Q 306 -813 319 -275 
z
M 784 1719 
Q 784 1066 1043 766 
Q 1303 466 1694 466 
Q 2081 466 2343 764 
Q 2606 1063 2606 1700 
Q 2606 2309 2336 2618 
Q 2066 2928 1684 2928 
Q 1309 2928 1046 2623 
Q 784 2319 784 1719 
z
" transform="scale(0.015625)"/>
       <path id="DejaVuSans-Oblique-3c0" d="M 584 3500 
L 3938 3500 
L 3825 2925 
L 3384 2925 
L 2966 775 
Q 2922 550 2981 450 
Q 3038 353 3209 353 
Q 3256 353 3325 363 
Q 3397 369 3419 372 
L 3338 -44 
Q 3222 -84 3103 -103 
Q 2981 -122 2866 -122 
Q 2491 -122 2388 81 
Q 2284 288 2391 838 
L 2797 2925 
L 1506 2925 
L 938 0 
L 350 0 
L 919 2925 
L 472 2925 
L 584 3500 
z
" transform="scale(0.015625)"/>
      </defs>
      <use xlink:href="#ArialMT-6d" transform="translate(0 0.203125)"/>
      <use xlink:href="#ArialMT-6f" transform="translate(83.300781 0.203125)"/>
      <use xlink:href="#ArialMT-64" transform="translate(138.916016 0.203125)"/>
      <use xlink:href="#ArialMT-65" transform="translate(194.53125 0.203125)"/>
      <use xlink:href="#ArialMT-73" transform="translate(250.146484 0.203125)"/>
      <use xlink:href="#ArialMT-20" transform="translate(300.146484 0.203125)"/>
      <use xlink:href="#ArialMT-6f" transform="translate(327.929688 0.203125)"/>
      <use xlink:href="#ArialMT-66" transform="translate(383.544922 0.203125)"/>
      <use xlink:href="#ArialMT-20" transform="translate(411.328125 0.203125)"/>
      <use xlink:href="#ArialMT-74" transform="translate(439.111328 0.203125)"/>
      <use xlink:href="#ArialMT-61" transform="translate(466.894531 0.203125)"/>
      <use xlink:href="#ArialMT-72" transform="translate(522.509766 0.203125)"/>
      <use xlink:href="#ArialMT-67" transform="translate(555.810547 0.203125)"/>
      <use xlink:href="#ArialMT-65" transform="translate(611.425781 0.203125)"/>
      <use xlink:href="#ArialMT-74" transform="translate(667.041016 0.203125)"/>
      <use xlink:href="#ArialMT-20" transform="translate(694.824219 0.203125)"/>
      <use xlink:href="#DejaVuSans-Oblique-3c0" transform="translate(722.607422 0.203125)"/>
     </g>
    </g>
   </g>
  </g>
 </g>
 <defs>
  <clipPath id="pbe47609363">
   <rect x="57.6" y="41.472" width="357.12" height="266.112"/>
  </clipPath>
 </defs>
</svg>
