<?xml version="1.0" encoding="utf-8" standalone="no"?>
<!DOCTYPE svg PUBLIC "-//W3C//DTD SVG 1.1//EN"
  "http://www.w3.org/Graphics/SVG/1.1/DTD/svg11.dtd">
<svg xmlns:xlink="http://www.w3.org/1999/xlink" width="460.8pt" height="345.6pt" viewBox="0 0 460.8 345.6" xmlns="http://www.w3.org/2000/svg" version="1.1">
 <metadata>
  <rdf:RDF xmlns:dc="http://purl.org/dc/elements/1.1/" xmlns:cc="http://creativecommons.org/ns#" xmlns:rdf="http://www.w3.org/1999/02/22-rdf-syntax-ns#">
   <cc:Work>
    <dc:type rdf:resource="http://purl.org/dc/dcmitype/StillImage"/>
    <dc:date>2025-04-11T13:16:27.113253</dc:date>
    <dc:format>image/svg+xml</dc:format>
    <dc:creator>
     <cc:Agent>
      <dc:title>Matplotlib v3.10.1, https://matplotlib.org/</dc:title>
     </cc:Agent>
    </dc:creator>
   </cc:Work>
  </rdf:RDF>
 </metadata>
 <defs>
  <style type="text/css">*{stroke-linejoin: round; stroke-linecap: butt}</style>
 </defs>
 <g id="figure_1">
  <g id="patch_1">
   <path d="M 0 345.6 
L 460.8 345.6 
L 460.8 0 
L 0 0 
z
" style="fill: #ffffff"/>
  </g>
  <g id="axes_1">
   <g id="patch_2">
    <path d="M 57.6 307.584 
L 414.72 307.584 
L 414.72 41.472 
L 57.6 41.472 
z
" style="fill: #eaeaf2"/>
   </g>
   <g id="matplotlib.axis_1">
    <g id="xtick_1">
     <g id="line2d_1">
      <path d="M 106.298182 307.584 
L 106.298182 41.472 
" clip-path="url(#p2029ab1171)" style="fill: none; stroke: #ffffff; stroke-width: 0.8; stroke-linecap: round"/>
     </g>
     <g id="text_1">
      <!-- −4 -->
      <g style="fill: #262626" transform="translate(100.597401 321.741812) scale(0.1 -0.1)">
       <defs>
        <path id="ArialMT-2212" d="M 3381 1997 
L 356 1997 
L 356 2522 
L 3381 2522 
L 3381 1997 
z
" transform="scale(0.015625)"/>
        <path id="ArialMT-34" d="M 2069 0 
L 2069 1097 
L 81 1097 
L 81 1613 
L 2172 4581 
L 2631 4581 
L 2631 1613 
L 3250 1613 
L 3250 1097 
L 2631 1097 
L 2631 0 
L 2069 0 
z
M 2069 1613 
L 2069 3678 
L 634 1613 
L 2069 1613 
z
" transform="scale(0.015625)"/>
       </defs>
       <use xlink:href="#ArialMT-2212"/>
       <use xlink:href="#ArialMT-34" transform="translate(58.398438 0)"/>
      </g>
     </g>
    </g>
    <g id="xtick_2">
     <g id="line2d_2">
      <path d="M 171.229091 307.584 
L 171.229091 41.472 
" clip-path="url(#p2029ab1171)" style="fill: none; stroke: #ffffff; stroke-width: 0.8; stroke-linecap: round"/>
     </g>
     <g id="text_2">
      <!-- −2 -->
      <g style="fill: #262626" transform="translate(165.52831 321.741812) scale(0.1 -0.1)">
       <defs>
        <path id="ArialMT-32" d="M 3222 541 
L 3222 0 
L 194 0 
Q 188 203 259 391 
Q 375 700 629 1000 
Q 884 1300 1366 1694 
Q 2113 2306 2375 2664 
Q 2638 3022 2638 3341 
Q 2638 3675 2398 3904 
Q 2159 4134 1775 4134 
Q 1369 4134 1125 3890 
Q 881 3647 878 3216 
L 300 3275 
Q 359 3922 746 4261 
Q 1134 4600 1788 4600 
Q 2447 4600 2831 4234 
Q 3216 3869 3216 3328 
Q 3216 3053 3103 2787 
Q 2991 2522 2730 2228 
Q 2469 1934 1863 1422 
Q 1356 997 1212 845 
Q 1069 694 975 541 
L 3222 541 
z
" transform="scale(0.015625)"/>
       </defs>
       <use xlink:href="#ArialMT-2212"/>
       <use xlink:href="#ArialMT-32" transform="translate(58.398438 0)"/>
      </g>
     </g>
    </g>
    <g id="xtick_3">
     <g id="line2d_3">
      <path d="M 236.16 307.584 
L 236.16 41.472 
" clip-path="url(#p2029ab1171)" style="fill: none; stroke: #ffffff; stroke-width: 0.8; stroke-linecap: round"/>
     </g>
     <g id="text_3">
      <!-- 0 -->
      <g style="fill: #262626" transform="translate(233.379531 321.741812) scale(0.1 -0.1)">
       <defs>
        <path id="ArialMT-30" d="M 266 2259 
Q 266 3072 433 3567 
Q 600 4063 929 4331 
Q 1259 4600 1759 4600 
Q 2128 4600 2406 4451 
Q 2684 4303 2865 4023 
Q 3047 3744 3150 3342 
Q 3253 2941 3253 2259 
Q 3253 1453 3087 958 
Q 2922 463 2592 192 
Q 2263 -78 1759 -78 
Q 1097 -78 719 397 
Q 266 969 266 2259 
z
M 844 2259 
Q 844 1131 1108 757 
Q 1372 384 1759 384 
Q 2147 384 2411 759 
Q 2675 1134 2675 2259 
Q 2675 3391 2411 3762 
Q 2147 4134 1753 4134 
Q 1366 4134 1134 3806 
Q 844 3388 844 2259 
z
" transform="scale(0.015625)"/>
       </defs>
       <use xlink:href="#ArialMT-30"/>
      </g>
     </g>
    </g>
    <g id="xtick_4">
     <g id="line2d_4">
      <path d="M 301.090909 307.584 
L 301.090909 41.472 
" clip-path="url(#p2029ab1171)" style="fill: none; stroke: #ffffff; stroke-width: 0.8; stroke-linecap: round"/>
     </g>
     <g id="text_4">
      <!-- 2 -->
      <g style="fill: #262626" transform="translate(298.31044 321.741812) scale(0.1 -0.1)">
       <use xlink:href="#ArialMT-32"/>
      </g>
     </g>
    </g>
    <g id="xtick_5">
     <g id="line2d_5">
      <path d="M 366.021818 307.584 
L 366.021818 41.472 
" clip-path="url(#p2029ab1171)" style="fill: none; stroke: #ffffff; stroke-width: 0.8; stroke-linecap: round"/>
     </g>
     <g id="text_5">
      <!-- 4 -->
      <g style="fill: #262626" transform="translate(363.241349 321.741812) scale(0.1 -0.1)">
       <use xlink:href="#ArialMT-34"/>
      </g>
     </g>
    </g>
    <g id="text_6">
     <!-- $x$ -->
     <g style="fill: #262626" transform="translate(233.16 334.887125) scale(0.1 -0.1)">
      <defs>
       <path id="DejaVuSans-Oblique-78" d="M 3841 3500 
L 2234 1784 
L 3219 0 
L 2559 0 
L 1819 1388 
L 531 0 
L -166 0 
L 1556 1844 
L 641 3500 
L 1300 3500 
L 1972 2234 
L 3144 3500 
L 3841 3500 
z
" transform="scale(0.015625)"/>
      </defs>
      <use xlink:href="#DejaVuSans-Oblique-78" transform="translate(0 0.3125)"/>
     </g>
    </g>
   </g>
   <g id="matplotlib.axis_2">
    <g id="ytick_1">
     <g id="line2d_6">
      <path d="M 57.6 271.296 
L 414.72 271.296 
" clip-path="url(#p2029ab1171)" style="fill: none; stroke: #ffffff; stroke-width: 0.8; stroke-linecap: round"/>
     </g>
     <g id="text_7">
      <!-- −4 -->
      <g style="fill: #262626" transform="translate(39.198437 274.874906) scale(0.1 -0.1)">
       <use xlink:href="#ArialMT-2212"/>
       <use xlink:href="#ArialMT-34" transform="translate(58.398438 0)"/>
      </g>
     </g>
    </g>
    <g id="ytick_2">
     <g id="line2d_7">
      <path d="M 57.6 222.912 
L 414.72 222.912 
" clip-path="url(#p2029ab1171)" style="fill: none; stroke: #ffffff; stroke-width: 0.8; stroke-linecap: round"/>
     </g>
     <g id="text_8">
      <!-- −2 -->
      <g style="fill: #262626" transform="translate(39.198437 226.490906) scale(0.1 -0.1)">
       <use xlink:href="#ArialMT-2212"/>
       <use xlink:href="#ArialMT-32" transform="translate(58.398438 0)"/>
      </g>
     </g>
    </g>
    <g id="ytick_3">
     <g id="line2d_8">
      <path d="M 57.6 174.528 
L 414.72 174.528 
" clip-path="url(#p2029ab1171)" style="fill: none; stroke: #ffffff; stroke-width: 0.8; stroke-linecap: round"/>
     </g>
     <g id="text_9">
      <!-- 0 -->
      <g style="fill: #262626" transform="translate(45.039062 178.106906) scale(0.1 -0.1)">
       <use xlink:href="#ArialMT-30"/>
      </g>
     </g>
    </g>
    <g id="ytick_4">
     <g id="line2d_9">
      <path d="M 57.6 126.144 
L 414.72 126.144 
" clip-path="url(#p2029ab1171)" style="fill: none; stroke: #ffffff; stroke-width: 0.8; stroke-linecap: round"/>
     </g>
     <g id="text_10">
      <!-- 2 -->
      <g style="fill: #262626" transform="translate(45.039062 129.722906) scale(0.1 -0.1)">
       <use xlink:href="#ArialMT-32"/>
      </g>
     </g>
    </g>
    <g id="ytick_5">
     <g id="line2d_10">
      <path d="M 57.6 77.76 
L 414.72 77.76 
" clip-path="url(#p2029ab1171)" style="fill: none; stroke: #ffffff; stroke-width: 0.8; stroke-linecap: round"/>
     </g>
     <g id="text_11">
      <!-- 4 -->
      <g style="fill: #262626" transform="translate(45.039062 81.338906) scale(0.1 -0.1)">
       <use xlink:href="#ArialMT-34"/>
      </g>
     </g>
    </g>
    <g id="text_12">
     <!-- $x_{next}$ -->
     <g style="fill: #262626" transform="translate(33.210938 185.478) rotate(-90) scale(0.1 -0.1)">
      <defs>
       <path id="DejaVuSans-Oblique-6e" d="M 3566 2113 
L 3156 0 
L 2578 0 
L 2988 2091 
Q 3016 2238 3031 2350 
Q 3047 2463 3047 2528 
Q 3047 2791 2881 2937 
Q 2716 3084 2419 3084 
Q 1956 3084 1622 2776 
Q 1288 2469 1184 1941 
L 800 0 
L 225 0 
L 903 3500 
L 1478 3500 
L 1363 2950 
Q 1603 3253 1940 3418 
Q 2278 3584 2650 3584 
Q 3113 3584 3367 3334 
Q 3622 3084 3622 2631 
Q 3622 2519 3608 2391 
Q 3594 2263 3566 2113 
z
" transform="scale(0.015625)"/>
       <path id="DejaVuSans-Oblique-65" d="M 3078 2063 
Q 3088 2113 3092 2166 
Q 3097 2219 3097 2272 
Q 3097 2653 2873 2875 
Q 2650 3097 2266 3097 
Q 1838 3097 1509 2826 
Q 1181 2556 1013 2059 
L 3078 2063 
z
M 3578 1613 
L 903 1613 
Q 884 1494 878 1425 
Q 872 1356 872 1306 
Q 872 872 1139 634 
Q 1406 397 1894 397 
Q 2269 397 2603 481 
Q 2938 566 3225 728 
L 3116 159 
Q 2806 34 2476 -28 
Q 2147 -91 1806 -91 
Q 1078 -91 686 257 
Q 294 606 294 1247 
Q 294 1794 489 2264 
Q 684 2734 1063 3103 
Q 1306 3334 1642 3459 
Q 1978 3584 2356 3584 
Q 2950 3584 3301 3228 
Q 3653 2872 3653 2272 
Q 3653 2128 3634 1964 
Q 3616 1800 3578 1613 
z
" transform="scale(0.015625)"/>
       <path id="DejaVuSans-Oblique-74" d="M 2706 3500 
L 2619 3053 
L 1472 3053 
L 1100 1153 
Q 1081 1047 1072 975 
Q 1063 903 1063 863 
Q 1063 663 1183 572 
Q 1303 481 1569 481 
L 2150 481 
L 2053 0 
L 1503 0 
Q 991 0 739 200 
Q 488 400 488 806 
Q 488 878 497 964 
Q 506 1050 525 1153 
L 897 3053 
L 409 3053 
L 500 3500 
L 978 3500 
L 1172 4494 
L 1747 4494 
L 1556 3500 
L 2706 3500 
z
" transform="scale(0.015625)"/>
      </defs>
      <use xlink:href="#DejaVuSans-Oblique-78" transform="translate(0 0.3125)"/>
      <use xlink:href="#DejaVuSans-Oblique-6e" transform="translate(59.179688 -16.09375) scale(0.7)"/>
      <use xlink:href="#DejaVuSans-Oblique-65" transform="translate(103.544922 -16.09375) scale(0.7)"/>
      <use xlink:href="#DejaVuSans-Oblique-78" transform="translate(146.611328 -16.09375) scale(0.7)"/>
      <use xlink:href="#DejaVuSans-Oblique-74" transform="translate(188.037109 -16.09375) scale(0.7)"/>
     </g>
    </g>
   </g>
   <g id="FillBetweenPolyCollection_1">
    <defs>
     <path id="mbe8f6c09fa" d="M 73.832727 -159.548629 
L 73.832727 -107.00419 
L 77.112073 -109.020188 
L 80.391404 -110.932705 
L 83.670734 -112.984804 
L 86.95008 -114.971277 
L 90.229426 -117.212508 
L 93.508757 -119.064839 
L 96.788103 -120.686104 
L 100.067434 -122.77307 
L 103.34678 -124.749483 
L 106.62611 -126.188736 
L 109.905456 -128.251157 
L 113.184795 -129.447467 
L 116.464133 -131.294938 
L 119.743479 -132.745187 
L 123.022809 -134.281519 
L 126.302148 -135.729767 
L 129.581486 -137.278626 
L 132.860824 -138.487481 
L 136.140163 -139.591042 
L 139.419493 -140.832577 
L 142.698847 -141.954686 
L 145.978178 -142.991207 
L 149.257516 -144.023861 
L 152.536862 -144.868778 
L 155.816192 -145.961653 
L 159.095538 -146.680485 
L 162.374869 -147.422694 
L 165.654215 -148.013118 
L 168.933553 -148.865711 
L 172.212892 -149.552278 
L 175.492234 -149.919435 
L 178.771564 -150.722549 
L 182.050914 -151.064404 
L 185.330245 -151.419404 
L 188.609583 -151.650407 
L 191.888925 -152.253693 
L 195.168256 -152.598308 
L 198.447606 -152.817556 
L 201.726936 -153.276326 
L 205.006277 -153.421936 
L 208.285621 -153.633162 
L 211.564957 -153.914854 
L 214.844301 -153.99186 
L 218.123628 -154.112393 
L 221.402982 -154.385152 
L 224.682308 -154.39276 
L 227.961652 -154.649208 
L 231.240996 -154.657058 
L 234.520323 -154.678015 
L 237.799667 -155.063474 
L 241.079004 -155.098956 
L 244.358348 -155.22524 
L 247.637684 -155.278168 
L 250.917028 -155.490276 
L 254.196364 -155.591426 
L 257.475699 -155.843767 
L 260.755035 -156.127149 
L 264.034379 -156.020911 
L 267.313716 -156.1219 
L 270.59306 -156.402917 
L 273.872394 -156.637532 
L 277.151733 -156.867176 
L 280.431067 -157.137665 
L 283.710409 -157.688908 
L 286.989755 -157.755255 
L 290.269093 -158.008608 
L 293.548424 -158.073616 
L 296.827762 -158.444001 
L 300.107108 -159.133371 
L 303.386439 -159.464107 
L 306.665785 -159.69763 
L 309.945123 -160.285697 
L 313.224462 -160.578782 
L 316.503792 -161.17308 
L 319.783138 -161.45155 
L 323.062476 -162.054143 
L 326.341815 -162.583268 
L 329.621153 -163.123314 
L 332.900491 -163.538219 
L 336.179822 -164.225986 
L 339.459168 -164.769159 
L 342.738514 -165.298405 
L 346.01786 -166.1269 
L 349.297191 -166.894867 
L 352.576521 -167.869334 
L 355.855867 -168.530507 
L 359.135213 -169.061567 
L 362.414536 -170.358368 
L 365.693882 -170.874765 
L 368.97322 -172.012242 
L 372.252566 -172.780732 
L 375.531881 -174.075023 
L 378.811227 -175.147453 
L 382.090574 -176.018673 
L 385.36992 -177.266371 
L 388.649266 -178.455831 
L 391.928581 -179.941616 
L 395.207927 -181.208598 
L 398.487273 -182.770039 
L 398.487273 -235.553213 
L 398.487273 -235.553213 
L 395.207927 -233.232184 
L 391.928581 -230.930004 
L 388.649266 -228.768703 
L 385.36992 -227.129465 
L 382.090574 -225.457955 
L 378.811227 -223.325609 
L 375.531881 -221.366643 
L 372.252566 -219.354328 
L 368.97322 -217.510404 
L 365.693882 -215.901297 
L 362.414536 -214.277531 
L 359.135213 -212.255145 
L 355.855867 -210.87447 
L 352.576521 -209.520915 
L 349.297191 -207.972399 
L 346.01786 -206.253732 
L 342.738514 -204.868774 
L 339.459168 -203.535135 
L 336.179822 -202.521368 
L 332.900491 -201.358592 
L 329.621153 -200.154871 
L 326.341815 -199.244365 
L 323.062476 -198.100748 
L 319.783138 -196.947402 
L 316.503792 -196.363373 
L 313.224462 -195.389231 
L 309.945123 -194.713249 
L 306.665785 -194.100674 
L 303.386439 -193.481163 
L 300.107108 -192.701284 
L 296.827762 -192.141018 
L 293.548424 -191.672201 
L 290.269093 -191.076723 
L 286.989755 -190.650022 
L 283.710409 -190.545062 
L 280.431067 -190.024983 
L 277.151733 -189.546121 
L 273.872394 -189.113969 
L 270.59306 -188.907522 
L 267.313716 -188.621885 
L 264.034379 -188.3652 
L 260.755035 -188.193159 
L 257.475699 -188.130975 
L 254.196364 -187.813815 
L 250.917028 -187.831987 
L 247.637684 -187.468895 
L 244.358348 -187.494627 
L 241.079004 -187.267736 
L 237.799667 -187.215543 
L 234.520323 -187.033179 
L 231.240996 -186.9512 
L 227.961652 -186.963197 
L 224.682308 -186.601172 
L 221.402982 -186.735301 
L 218.123628 -186.442329 
L 214.844301 -186.463177 
L 211.564957 -186.381173 
L 208.285621 -186.11582 
L 205.006277 -186.00946 
L 201.726936 -185.778101 
L 198.447606 -185.379377 
L 195.168256 -185.385314 
L 191.888925 -185.010609 
L 188.609583 -184.816819 
L 185.330245 -184.394366 
L 182.050914 -184.193778 
L 178.771564 -183.941877 
L 175.492234 -183.381334 
L 172.212892 -183.114426 
L 168.933553 -183.00237 
L 165.654215 -182.438962 
L 162.374869 -181.990617 
L 159.095538 -181.582221 
L 155.816192 -181.204796 
L 152.536862 -180.542831 
L 149.257516 -180.304296 
L 145.978178 -179.512702 
L 142.698847 -179.138305 
L 139.419493 -178.336537 
L 136.140163 -177.838313 
L 132.860824 -177.373437 
L 129.581486 -176.620648 
L 126.302148 -175.928925 
L 123.022809 -175.04492 
L 119.743479 -174.32871 
L 116.464133 -173.746172 
L 113.184795 -172.821737 
L 109.905456 -171.962319 
L 106.62611 -171.241501 
L 103.34678 -170.408183 
L 100.067434 -169.216449 
L 96.788103 -168.0658 
L 93.508757 -167.02699 
L 90.229426 -166.058266 
L 86.95008 -164.657383 
L 83.670734 -163.796067 
L 80.391404 -162.371867 
L 77.112073 -160.97315 
L 73.832727 -159.548629 
z
" style="stroke: #0000ff; stroke-opacity: 0.5"/>
    </defs>
    <g clip-path="url(#p2029ab1171)">
     <use xlink:href="#mbe8f6c09fa" x="0" y="345.6" style="fill: #0000ff; fill-opacity: 0.5; stroke: #0000ff; stroke-opacity: 0.5"/>
    </g>
   </g>
   <g id="FillBetweenPolyCollection_2">
    <defs>
     <path id="m5cbec0ca44" d="M 73.832727 -189.791453 
L 73.832727 -73.956489 
L 77.112073 -75.982269 
L 80.391404 -78.059902 
L 83.670734 -80.196996 
L 86.95008 -81.961447 
L 90.229426 -84.553599 
L 93.508757 -86.366829 
L 96.788103 -88.574394 
L 100.067434 -90.417923 
L 103.34678 -92.504415 
L 106.62611 -94.207059 
L 109.905456 -96.548783 
L 113.184795 -98.252027 
L 116.464133 -99.945385 
L 119.743479 -101.947742 
L 123.022809 -103.641722 
L 126.302148 -105.517303 
L 129.581486 -107.199004 
L 132.860824 -108.896999 
L 136.140163 -110.325844 
L 139.419493 -112.143936 
L 142.698847 -113.349423 
L 145.978178 -114.948823 
L 149.257516 -116.373423 
L 152.536862 -117.548207 
L 155.816192 -119.270577 
L 159.095538 -120.081221 
L 162.374869 -121.180724 
L 165.654215 -122.129311 
L 168.933553 -123.239078 
L 172.212892 -124.141079 
L 175.492234 -124.697524 
L 178.771564 -125.694371 
L 182.050914 -126.449185 
L 185.330245 -127.080696 
L 188.609583 -127.264251 
L 191.888925 -128.268085 
L 195.168256 -128.82139 
L 198.447606 -129.229172 
L 201.726936 -129.494996 
L 205.006277 -130.014634 
L 208.285621 -130.180782 
L 211.564957 -130.425101 
L 214.844301 -130.72617 
L 218.123628 -130.630534 
L 221.402982 -131.143971 
L 224.682308 -131.485166 
L 227.961652 -131.541653 
L 231.240996 -131.481599 
L 234.520323 -131.745018 
L 237.799667 -132.152304 
L 241.079004 -131.852274 
L 244.358348 -132.113513 
L 247.637684 -132.40614 
L 250.917028 -132.370559 
L 254.196364 -132.69749 
L 257.475699 -132.840466 
L 260.755035 -133.044203 
L 264.034379 -133.138212 
L 267.313716 -133.268536 
L 270.59306 -133.642715 
L 273.872394 -133.675041 
L 277.151733 -133.902175 
L 280.431067 -133.92822 
L 283.710409 -134.644696 
L 286.989755 -135.084717 
L 290.269093 -135.061608 
L 293.548424 -135.52327 
L 296.827762 -135.651679 
L 300.107108 -135.761761 
L 303.386439 -136.723675 
L 306.665785 -136.512876 
L 309.945123 -137.25204 
L 313.224462 -137.515009 
L 316.503792 -137.864657 
L 319.783138 -138.143684 
L 323.062476 -138.522757 
L 326.341815 -138.792645 
L 329.621153 -139.232707 
L 332.900491 -139.943256 
L 336.179822 -140.467047 
L 339.459168 -140.863247 
L 342.738514 -141.267101 
L 346.01786 -141.664308 
L 349.297191 -142.332836 
L 352.576521 -143.058178 
L 355.855867 -143.660131 
L 359.135213 -143.57438 
L 362.414536 -144.498657 
L 365.693882 -145.031782 
L 368.97322 -145.764639 
L 372.252566 -146.410482 
L 375.531881 -147.244852 
L 378.811227 -147.91104 
L 382.090574 -148.168347 
L 385.36992 -149.083334 
L 388.649266 -149.776701 
L 391.928581 -150.426252 
L 395.207927 -151.238717 
L 398.487273 -152.350645 
L 398.487273 -268.5326 
L 398.487273 -268.5326 
L 395.207927 -266.511474 
L 391.928581 -263.820064 
L 388.649266 -261.699599 
L 385.36992 -259.83439 
L 382.090574 -257.873509 
L 378.811227 -255.83542 
L 375.531881 -253.602217 
L 372.252566 -251.819239 
L 368.97322 -250.067753 
L 365.693882 -247.993685 
L 362.414536 -245.860669 
L 359.135213 -243.966499 
L 355.855867 -241.852938 
L 352.576521 -240.20172 
L 349.297191 -238.55957 
L 346.01786 -236.375935 
L 342.738514 -234.940573 
L 339.459168 -233.007562 
L 336.179822 -231.479539 
L 332.900491 -230.180677 
L 329.621153 -228.624075 
L 326.341815 -227.192818 
L 323.062476 -225.838695 
L 319.783138 -224.297297 
L 316.503792 -223.287328 
L 313.224462 -221.814364 
L 309.945123 -220.914884 
L 306.665785 -219.711543 
L 303.386439 -218.802148 
L 300.107108 -218.273268 
L 296.827762 -217.145116 
L 293.548424 -216.539108 
L 290.269093 -215.865606 
L 286.989755 -215.126361 
L 283.710409 -214.948213 
L 280.431067 -214.134313 
L 277.151733 -213.375184 
L 273.872394 -212.899076 
L 270.59306 -212.655115 
L 267.313716 -212.214845 
L 264.034379 -211.813961 
L 260.755035 -211.824303 
L 257.475699 -211.456959 
L 254.196364 -210.684927 
L 250.917028 -211.092984 
L 247.637684 -210.877478 
L 244.358348 -210.22747 
L 241.079004 -210.425978 
L 237.799667 -210.030784 
L 234.520323 -210.001325 
L 231.240996 -210.031249 
L 227.961652 -209.799281 
L 224.682308 -209.775861 
L 221.402982 -209.858188 
L 218.123628 -209.474322 
L 214.844301 -209.400549 
L 211.564957 -209.283929 
L 208.285621 -208.947106 
L 205.006277 -208.923587 
L 201.726936 -208.791559 
L 198.447606 -208.087683 
L 195.168256 -208.217075 
L 191.888925 -207.562926 
L 188.609583 -207.460712 
L 185.330245 -207.275432 
L 182.050914 -207.088497 
L 178.771564 -206.617742 
L 175.492234 -206.480687 
L 172.212892 -206.097245 
L 168.933553 -206.121724 
L 165.654215 -205.534478 
L 162.374869 -205.264169 
L 159.095538 -204.680798 
L 155.816192 -204.397958 
L 152.536862 -203.877334 
L 149.257516 -203.757032 
L 145.978178 -203.27314 
L 142.698847 -202.392838 
L 139.419493 -202.125514 
L 136.140163 -201.500642 
L 132.860824 -201.349929 
L 129.581486 -200.442126 
L 126.302148 -200.345423 
L 123.022809 -199.568707 
L 119.743479 -199.253606 
L 116.464133 -198.753584 
L 113.184795 -198.204355 
L 109.905456 -197.552473 
L 106.62611 -197.219886 
L 103.34678 -196.613665 
L 100.067434 -195.789307 
L 96.788103 -195.027658 
L 93.508757 -194.396595 
L 90.229426 -193.766467 
L 86.95008 -192.961795 
L 83.670734 -192.525163 
L 80.391404 -191.246673 
L 77.112073 -190.819945 
L 73.832727 -189.791453 
z
" style="stroke: #0000ff; stroke-opacity: 0.3"/>
    </defs>
    <g clip-path="url(#p2029ab1171)">
     <use xlink:href="#m5cbec0ca44" x="0" y="345.6" style="fill: #0000ff; fill-opacity: 0.3; stroke: #0000ff; stroke-opacity: 0.3"/>
    </g>
   </g>
   <g id="line2d_11">
    <path d="M 73.832727 212.640469 
L 77.112073 210.897534 
L 80.391404 209.347455 
L 83.670734 207.601192 
L 86.95008 206.223447 
L 90.229426 204.469195 
L 93.508757 202.999739 
L 96.788103 201.625941 
L 100.067434 200.069777 
L 103.34678 198.551549 
L 106.62611 197.353242 
L 109.905456 195.99615 
L 113.184795 194.907491 
L 116.464133 193.642694 
L 119.743479 192.587349 
L 123.022809 191.451501 
L 126.302148 190.263973 
L 129.581486 189.178538 
L 132.860824 188.203603 
L 136.140163 187.393146 
L 139.419493 186.471262 
L 142.698847 185.548838 
L 145.978178 184.759477 
L 149.257516 183.84893 
L 152.536862 183.23127 
L 155.816192 182.377449 
L 159.095538 181.796868 
L 162.374869 181.247741 
L 165.654215 180.618929 
L 168.933553 179.914771 
L 172.212892 179.553619 
L 175.492234 179.12877 
L 178.771564 178.515023 
L 182.050914 178.17916 
L 185.330245 177.850582 
L 188.609583 177.524582 
L 191.888925 177.11718 
L 195.168256 176.689803 
L 198.447606 176.601761 
L 201.726936 176.175769 
L 205.006277 175.91557 
L 208.285621 175.77187 
L 211.564957 175.514446 
L 214.844301 175.433682 
L 218.123628 175.348943 
L 221.402982 175.037171 
L 224.682308 175.051995 
L 227.961652 174.818006 
L 231.240996 174.858309 
L 234.520323 174.67961 
L 237.799667 174.518835 
L 241.079004 174.437213 
L 244.358348 174.297787 
L 247.637684 174.136552 
L 250.917028 173.86845 
L 254.196364 173.903544 
L 257.475699 173.579013 
L 260.755035 173.379313 
L 264.034379 173.390848 
L 267.313716 173.139133 
L 270.59306 172.86264 
L 273.872394 172.659936 
L 277.151733 172.262 
L 280.431067 171.901746 
L 283.710409 171.350845 
L 286.989755 171.222652 
L 290.269093 170.863745 
L 293.548424 170.482097 
L 296.827762 170.036523 
L 300.107108 169.476112 
L 303.386439 168.854479 
L 306.665785 168.449384 
L 309.945123 167.797424 
L 313.224462 167.303508 
L 316.503792 166.53826 
L 319.783138 166.013931 
L 323.062476 165.138811 
L 326.341815 164.371187 
L 329.621153 163.511599 
L 332.900491 162.643277 
L 336.179822 161.761962 
L 339.459168 160.938771 
L 342.738514 159.977457 
L 346.01786 158.937787 
L 349.297191 157.668544 
L 352.576521 156.425489 
L 355.855867 155.418208 
L 359.135213 154.361404 
L 362.414536 152.888083 
L 365.693882 151.645405 
L 368.97322 150.300966 
L 372.252566 149.077608 
L 375.531881 147.506217 
L 378.811227 145.921274 
L 382.090574 144.491818 
L 385.36992 143.020311 
L 388.649266 141.590346 
L 391.928581 139.835645 
L 395.207927 138.052358 
L 398.487273 136.230447 
" clip-path="url(#p2029ab1171)" style="fill: none; stroke: #0000ff; stroke-width: 1.5; stroke-linecap: round"/>
   </g>
   <g id="line2d_12">
    <path d="M 73.832727 295.488 
L 77.112073 293.044358 
L 80.391404 290.600728 
L 83.670734 288.157098 
L 86.95008 285.713456 
L 90.229426 283.269814 
L 93.508757 280.826184 
L 96.788103 278.382543 
L 100.067434 275.938912 
L 103.34678 273.495271 
L 106.62611 271.05164 
L 109.905456 268.607999 
L 113.184795 266.164363 
L 116.464133 263.720727 
L 119.743479 261.277085 
L 123.022809 258.833455 
L 126.302148 256.389819 
L 129.581486 253.946183 
L 132.860824 251.502547 
L 136.140163 249.058911 
L 139.419493 246.615281 
L 142.698847 244.171633 
L 145.978178 241.728003 
L 149.257516 239.284367 
L 152.536862 236.840726 
L 155.816192 234.397095 
L 159.095538 231.953454 
L 162.374869 229.509823 
L 165.654215 227.066182 
L 168.933553 224.622546 
L 172.212892 222.17891 
L 175.492234 219.735271 
L 178.771564 217.291641 
L 182.050914 214.847996 
L 185.330245 212.404366 
L 188.609583 209.96073 
L 191.888925 207.517091 
L 195.168256 205.073461 
L 198.447606 202.629816 
L 201.726936 200.186186 
L 205.006277 197.742549 
L 208.285621 195.298909 
L 211.564957 192.855274 
L 214.844301 190.411634 
L 218.123628 187.968006 
L 221.402982 185.524359 
L 224.682308 183.080732 
L 227.961652 180.637091 
L 231.240996 178.193451 
L 234.520323 175.749824 
L 237.799667 173.306183 
L 241.079004 170.862549 
L 244.358348 168.418909 
L 247.637684 165.975274 
L 250.917028 163.531634 
L 254.196364 161.087999 
L 257.475699 158.644366 
L 260.755035 156.200732 
L 264.034379 153.757091 
L 267.313716 151.313457 
L 270.59306 148.869817 
L 273.872394 146.426184 
L 277.151733 143.982548 
L 280.431067 141.538915 
L 283.710409 139.095276 
L 286.989755 136.651634 
L 290.269093 134.207998 
L 293.548424 131.764368 
L 296.827762 129.320732 
L 300.107108 126.87709 
L 303.386439 124.43346 
L 306.665785 121.989818 
L 309.945123 119.546182 
L 313.224462 117.102546 
L 316.503792 114.658916 
L 319.783138 112.215274 
L 323.062476 109.771639 
L 326.341815 107.328003 
L 329.621153 104.884367 
L 332.900491 102.440731 
L 336.179822 99.9971 
L 339.459168 97.553459 
L 342.738514 95.109817 
L 346.01786 92.666175 
L 349.297191 90.222545 
L 352.576521 87.778915 
L 355.855867 85.335273 
L 359.135213 82.891631 
L 362.414536 80.448007 
L 365.693882 78.004365 
L 368.97322 75.560729 
L 372.252566 73.117088 
L 375.531881 70.673469 
L 378.811227 68.229827 
L 382.090574 65.786186 
L 385.36992 63.342544 
L 388.649266 60.898902 
L 391.928581 58.455283 
L 395.207927 56.011642 
L 398.487273 53.568 
" clip-path="url(#p2029ab1171)" style="fill: none; stroke-dasharray: 5.55,2.4; stroke-dashoffset: 0; stroke: #808080; stroke-width: 1.5"/>
   </g>
   <g id="LineCollection_1">
    <path d="M 236.16 295.488 
L 236.16 53.568 
" clip-path="url(#p2029ab1171)" style="fill: none; stroke-dasharray: 5.55,2.4; stroke-dashoffset: 0; stroke: #008000; stroke-width: 1.5"/>
   </g>
   <g id="patch_3">
    <path d="M 57.6 307.584 
L 57.6 41.472 
" style="fill: none; stroke: #ffffff; stroke-width: 0.8; stroke-linejoin: miter; stroke-linecap: square"/>
   </g>
   <g id="patch_4">
    <path d="M 414.72 307.584 
L 414.72 41.472 
" style="fill: none; stroke: #ffffff; stroke-width: 0.8; stroke-linejoin: miter; stroke-linecap: square"/>
   </g>
   <g id="patch_5">
    <path d="M 57.6 307.584 
L 414.72 307.584 
" style="fill: none; stroke: #ffffff; stroke-width: 0.8; stroke-linejoin: miter; stroke-linecap: square"/>
   </g>
   <g id="patch_6">
    <path d="M 57.6 41.472 
L 414.72 41.472 
" style="fill: none; stroke: #ffffff; stroke-width: 0.8; stroke-linejoin: miter; stroke-linecap: square"/>
   </g>
   <g id="text_13">
    <!-- $\sigma=1, n=10$ -->
    <g style="fill: #262626" transform="translate(199.26 35.472) scale(0.12 -0.12)">
     <defs>
      <path id="DejaVuSans-Oblique-3c3" d="M 2219 3044 
Q 1744 3044 1422 2700 
Q 1081 2341 969 1747 
Q 844 1119 1044 756 
Q 1241 397 1706 397 
Q 2166 397 2503 759 
Q 2844 1122 2966 1747 
Q 3075 2319 2881 2700 
Q 2700 3044 2219 3044 
z
M 2309 3503 
L 4219 3500 
L 4106 2925 
L 3463 2925 
Q 3706 2438 3575 1747 
Q 3406 888 2884 400 
Q 2359 -91 1609 -91 
Q 856 -91 525 400 
Q 194 888 363 1747 
Q 528 2609 1050 3097 
Q 1484 3503 2309 3503 
z
" transform="scale(0.015625)"/>
      <path id="DejaVuSans-3d" d="M 678 2906 
L 4684 2906 
L 4684 2381 
L 678 2381 
L 678 2906 
z
M 678 1631 
L 4684 1631 
L 4684 1100 
L 678 1100 
L 678 1631 
z
" transform="scale(0.015625)"/>
      <path id="DejaVuSans-31" d="M 794 531 
L 1825 531 
L 1825 4091 
L 703 3866 
L 703 4441 
L 1819 4666 
L 2450 4666 
L 2450 531 
L 3481 531 
L 3481 0 
L 794 0 
L 794 531 
z
" transform="scale(0.015625)"/>
      <path id="DejaVuSans-2c" d="M 750 794 
L 1409 794 
L 1409 256 
L 897 -744 
L 494 -744 
L 750 256 
L 750 794 
z
" transform="scale(0.015625)"/>
      <path id="DejaVuSans-30" d="M 2034 4250 
Q 1547 4250 1301 3770 
Q 1056 3291 1056 2328 
Q 1056 1369 1301 889 
Q 1547 409 2034 409 
Q 2525 409 2770 889 
Q 3016 1369 3016 2328 
Q 3016 3291 2770 3770 
Q 2525 4250 2034 4250 
z
M 2034 4750 
Q 2819 4750 3233 4129 
Q 3647 3509 3647 2328 
Q 3647 1150 3233 529 
Q 2819 -91 2034 -91 
Q 1250 -91 836 529 
Q 422 1150 422 2328 
Q 422 3509 836 4129 
Q 1250 4750 2034 4750 
z
" transform="scale(0.015625)"/>
     </defs>
     <use xlink:href="#DejaVuSans-Oblique-3c3" transform="translate(0 0.78125)"/>
     <use xlink:href="#DejaVuSans-3d" transform="translate(82.861328 0.78125)"/>
     <use xlink:href="#DejaVuSans-31" transform="translate(186.132812 0.78125)"/>
     <use xlink:href="#DejaVuSans-2c" transform="translate(249.755859 0.78125)"/>
     <use xlink:href="#DejaVuSans-Oblique-6e" transform="translate(301.025391 0.78125)"/>
     <use xlink:href="#DejaVuSans-3d" transform="translate(383.886719 0.78125)"/>
     <use xlink:href="#DejaVuSans-31" transform="translate(487.158203 0.78125)"/>
     <use xlink:href="#DejaVuSans-30" transform="translate(550.78125 0.78125)"/>
    </g>
   </g>
   <g id="legend_1">
    <g id="patch_7">
     <path d="M 302.42 302.584 
L 407.72 302.584 
Q 409.72 302.584 409.72 300.584 
L 409.72 230.248062 
Q 409.72 228.248062 407.72 228.248062 
L 302.42 228.248062 
Q 300.42 228.248062 300.42 230.248062 
L 300.42 300.584 
Q 300.42 302.584 302.42 302.584 
z
" style="fill: #eaeaf2; opacity: 0.8; stroke: #cccccc; stroke-linejoin: miter"/>
    </g>
    <g id="line2d_13">
     <path d="M 304.42 236.160562 
L 314.42 236.160562 
L 324.42 236.160562 
" style="fill: none; stroke: #0000ff; stroke-width: 1.5; stroke-linecap: round"/>
    </g>
    <g id="text_14">
     <!-- $E[x_{next}]$ -->
     <g style="fill: #262626" transform="translate(332.42 239.660562) scale(0.1 -0.1)">
      <defs>
       <path id="DejaVuSans-Oblique-45" d="M 1081 4666 
L 4031 4666 
L 3928 4134 
L 1606 4134 
L 1338 2753 
L 3566 2753 
L 3463 2222 
L 1234 2222 
L 909 531 
L 3284 531 
L 3181 0 
L 172 0 
L 1081 4666 
z
" transform="scale(0.015625)"/>
       <path id="DejaVuSans-5b" d="M 550 4863 
L 1875 4863 
L 1875 4416 
L 1125 4416 
L 1125 -397 
L 1875 -397 
L 1875 -844 
L 550 -844 
L 550 4863 
z
" transform="scale(0.015625)"/>
       <path id="DejaVuSans-5d" d="M 1947 4863 
L 1947 -844 
L 622 -844 
L 622 -397 
L 1369 -397 
L 1369 4416 
L 622 4416 
L 622 4863 
L 1947 4863 
z
" transform="scale(0.015625)"/>
      </defs>
      <use xlink:href="#DejaVuSans-Oblique-45" transform="translate(0 0.015625)"/>
      <use xlink:href="#DejaVuSans-5b" transform="translate(63.183594 0.015625)"/>
      <use xlink:href="#DejaVuSans-Oblique-78" transform="translate(102.197266 0.015625)"/>
      <use xlink:href="#DejaVuSans-Oblique-6e" transform="translate(161.376953 -16.390625) scale(0.7)"/>
      <use xlink:href="#DejaVuSans-Oblique-65" transform="translate(205.742188 -16.390625) scale(0.7)"/>
      <use xlink:href="#DejaVuSans-Oblique-78" transform="translate(248.808594 -16.390625) scale(0.7)"/>
      <use xlink:href="#DejaVuSans-Oblique-74" transform="translate(290.234375 -16.390625) scale(0.7)"/>
      <use xlink:href="#DejaVuSans-5d" transform="translate(320.415039 0.015625)"/>
     </g>
    </g>
    <g id="patch_8">
     <path d="M 304.42 253.805875 
L 324.42 253.805875 
L 324.42 246.805875 
L 304.42 246.805875 
z
" style="fill: #0000ff; fill-opacity: 0.5; stroke: #0000ff; stroke-opacity: 0.5; stroke-linejoin: miter"/>
    </g>
    <g id="text_15">
     <!-- 50% CI -->
     <g style="fill: #262626" transform="translate(332.42 253.805875) scale(0.1 -0.1)">
      <defs>
       <path id="ArialMT-35" d="M 266 1200 
L 856 1250 
Q 922 819 1161 601 
Q 1400 384 1738 384 
Q 2144 384 2425 690 
Q 2706 997 2706 1503 
Q 2706 1984 2436 2262 
Q 2166 2541 1728 2541 
Q 1456 2541 1237 2417 
Q 1019 2294 894 2097 
L 366 2166 
L 809 4519 
L 3088 4519 
L 3088 3981 
L 1259 3981 
L 1013 2750 
Q 1425 3038 1878 3038 
Q 2478 3038 2890 2622 
Q 3303 2206 3303 1553 
Q 3303 931 2941 478 
Q 2500 -78 1738 -78 
Q 1113 -78 717 272 
Q 322 622 266 1200 
z
" transform="scale(0.015625)"/>
       <path id="ArialMT-25" d="M 372 3481 
Q 372 3972 619 4315 
Q 866 4659 1334 4659 
Q 1766 4659 2048 4351 
Q 2331 4044 2331 3447 
Q 2331 2866 2045 2552 
Q 1759 2238 1341 2238 
Q 925 2238 648 2547 
Q 372 2856 372 3481 
z
M 1350 4272 
Q 1141 4272 1002 4090 
Q 863 3909 863 3425 
Q 863 2984 1003 2804 
Q 1144 2625 1350 2625 
Q 1563 2625 1702 2806 
Q 1841 2988 1841 3469 
Q 1841 3913 1700 4092 
Q 1559 4272 1350 4272 
z
M 1353 -169 
L 3859 4659 
L 4316 4659 
L 1819 -169 
L 1353 -169 
z
M 3334 1075 
Q 3334 1569 3581 1911 
Q 3828 2253 4300 2253 
Q 4731 2253 5014 1945 
Q 5297 1638 5297 1041 
Q 5297 459 5011 145 
Q 4725 -169 4303 -169 
Q 3888 -169 3611 142 
Q 3334 453 3334 1075 
z
M 4316 1866 
Q 4103 1866 3964 1684 
Q 3825 1503 3825 1019 
Q 3825 581 3965 400 
Q 4106 219 4313 219 
Q 4528 219 4667 400 
Q 4806 581 4806 1063 
Q 4806 1506 4665 1686 
Q 4525 1866 4316 1866 
z
" transform="scale(0.015625)"/>
       <path id="ArialMT-20" transform="scale(0.015625)"/>
       <path id="ArialMT-43" d="M 3763 1606 
L 4369 1453 
Q 4178 706 3683 314 
Q 3188 -78 2472 -78 
Q 1731 -78 1267 223 
Q 803 525 561 1097 
Q 319 1669 319 2325 
Q 319 3041 592 3573 
Q 866 4106 1370 4382 
Q 1875 4659 2481 4659 
Q 3169 4659 3637 4309 
Q 4106 3959 4291 3325 
L 3694 3184 
Q 3534 3684 3231 3912 
Q 2928 4141 2469 4141 
Q 1941 4141 1586 3887 
Q 1231 3634 1087 3207 
Q 944 2781 944 2328 
Q 944 1744 1114 1308 
Q 1284 872 1643 656 
Q 2003 441 2422 441 
Q 2931 441 3284 734 
Q 3638 1028 3763 1606 
z
" transform="scale(0.015625)"/>
       <path id="ArialMT-49" d="M 597 0 
L 597 4581 
L 1203 4581 
L 1203 0 
L 597 0 
z
" transform="scale(0.015625)"/>
      </defs>
      <use xlink:href="#ArialMT-35"/>
      <use xlink:href="#ArialMT-30" transform="translate(55.615234 0)"/>
      <use xlink:href="#ArialMT-25" transform="translate(111.230469 0)"/>
      <use xlink:href="#ArialMT-20" transform="translate(200.146484 0)"/>
      <use xlink:href="#ArialMT-43" transform="translate(227.929688 0)"/>
      <use xlink:href="#ArialMT-49" transform="translate(300.146484 0)"/>
     </g>
    </g>
    <g id="patch_9">
     <path d="M 304.42 267.951187 
L 324.42 267.951187 
L 324.42 260.951187 
L 304.42 260.951187 
z
" style="fill: #0000ff; fill-opacity: 0.3; stroke: #0000ff; stroke-opacity: 0.3; stroke-linejoin: miter"/>
    </g>
    <g id="text_16">
     <!-- 90% CI -->
     <g style="fill: #262626" transform="translate(332.42 267.951187) scale(0.1 -0.1)">
      <defs>
       <path id="ArialMT-39" d="M 350 1059 
L 891 1109 
Q 959 728 1153 556 
Q 1347 384 1650 384 
Q 1909 384 2104 503 
Q 2300 622 2425 820 
Q 2550 1019 2634 1356 
Q 2719 1694 2719 2044 
Q 2719 2081 2716 2156 
Q 2547 1888 2255 1720 
Q 1963 1553 1622 1553 
Q 1053 1553 659 1965 
Q 266 2378 266 3053 
Q 266 3750 677 4175 
Q 1088 4600 1706 4600 
Q 2153 4600 2523 4359 
Q 2894 4119 3086 3673 
Q 3278 3228 3278 2384 
Q 3278 1506 3087 986 
Q 2897 466 2520 194 
Q 2144 -78 1638 -78 
Q 1100 -78 759 220 
Q 419 519 350 1059 
z
M 2653 3081 
Q 2653 3566 2395 3850 
Q 2138 4134 1775 4134 
Q 1400 4134 1122 3828 
Q 844 3522 844 3034 
Q 844 2597 1108 2323 
Q 1372 2050 1759 2050 
Q 2150 2050 2401 2323 
Q 2653 2597 2653 3081 
z
" transform="scale(0.015625)"/>
      </defs>
      <use xlink:href="#ArialMT-39"/>
      <use xlink:href="#ArialMT-30" transform="translate(55.615234 0)"/>
      <use xlink:href="#ArialMT-25" transform="translate(111.230469 0)"/>
      <use xlink:href="#ArialMT-20" transform="translate(200.146484 0)"/>
      <use xlink:href="#ArialMT-43" transform="translate(227.929688 0)"/>
      <use xlink:href="#ArialMT-49" transform="translate(300.146484 0)"/>
     </g>
    </g>
    <g id="line2d_14">
     <path d="M 304.42 278.5965 
L 314.42 278.5965 
L 324.42 278.5965 
" style="fill: none; stroke-dasharray: 5.55,2.4; stroke-dashoffset: 0; stroke: #808080; stroke-width: 1.5"/>
    </g>
    <g id="text_17">
     <!-- $x=x_{next}$ -->
     <g style="fill: #262626" transform="translate(332.42 282.0965) scale(0.1 -0.1)">
      <use xlink:href="#DejaVuSans-Oblique-78" transform="translate(0 0.3125)"/>
      <use xlink:href="#DejaVuSans-3d" transform="translate(78.662109 0.3125)"/>
      <use xlink:href="#DejaVuSans-Oblique-78" transform="translate(181.933594 0.3125)"/>
      <use xlink:href="#DejaVuSans-Oblique-6e" transform="translate(241.113281 -16.09375) scale(0.7)"/>
      <use xlink:href="#DejaVuSans-Oblique-65" transform="translate(285.478516 -16.09375) scale(0.7)"/>
      <use xlink:href="#DejaVuSans-Oblique-78" transform="translate(328.544922 -16.09375) scale(0.7)"/>
      <use xlink:href="#DejaVuSans-Oblique-74" transform="translate(369.970703 -16.09375) scale(0.7)"/>
     </g>
    </g>
    <g id="line2d_15">
     <path d="M 304.42 292.884 
L 324.42 292.884 
" style="fill: none; stroke-dasharray: 5.55,2.4; stroke-dashoffset: 0; stroke: #008000; stroke-width: 1.5"/>
    </g>
    <g id="text_18">
     <!-- mode of target $\pi$ -->
     <g style="fill: #262626" transform="translate(332.42 296.384) scale(0.1 -0.1)">
      <defs>
       <path id="ArialMT-6d" d="M 422 0 
L 422 3319 
L 925 3319 
L 925 2853 
Q 1081 3097 1340 3245 
Q 1600 3394 1931 3394 
Q 2300 3394 2536 3241 
Q 2772 3088 2869 2813 
Q 3263 3394 3894 3394 
Q 4388 3394 4653 3120 
Q 4919 2847 4919 2278 
L 4919 0 
L 4359 0 
L 4359 2091 
Q 4359 2428 4304 2576 
Q 4250 2725 4106 2815 
Q 3963 2906 3769 2906 
Q 3419 2906 3187 2673 
Q 2956 2441 2956 1928 
L 2956 0 
L 2394 0 
L 2394 2156 
Q 2394 2531 2256 2718 
Q 2119 2906 1806 2906 
Q 1569 2906 1367 2781 
Q 1166 2656 1075 2415 
Q 984 2175 984 1722 
L 984 0 
L 422 0 
z
" transform="scale(0.015625)"/>
       <path id="ArialMT-6f" d="M 213 1659 
Q 213 2581 725 3025 
Q 1153 3394 1769 3394 
Q 2453 3394 2887 2945 
Q 3322 2497 3322 1706 
Q 3322 1066 3130 698 
Q 2938 331 2570 128 
Q 2203 -75 1769 -75 
Q 1072 -75 642 372 
Q 213 819 213 1659 
z
M 791 1659 
Q 791 1022 1069 705 
Q 1347 388 1769 388 
Q 2188 388 2466 706 
Q 2744 1025 2744 1678 
Q 2744 2294 2464 2611 
Q 2184 2928 1769 2928 
Q 1347 2928 1069 2612 
Q 791 2297 791 1659 
z
" transform="scale(0.015625)"/>
       <path id="ArialMT-64" d="M 2575 0 
L 2575 419 
Q 2259 -75 1647 -75 
Q 1250 -75 917 144 
Q 584 363 401 755 
Q 219 1147 219 1656 
Q 219 2153 384 2558 
Q 550 2963 881 3178 
Q 1213 3394 1622 3394 
Q 1922 3394 2156 3267 
Q 2391 3141 2538 2938 
L 2538 4581 
L 3097 4581 
L 3097 0 
L 2575 0 
z
M 797 1656 
Q 797 1019 1065 703 
Q 1334 388 1700 388 
Q 2069 388 2326 689 
Q 2584 991 2584 1609 
Q 2584 2291 2321 2609 
Q 2059 2928 1675 2928 
Q 1300 2928 1048 2622 
Q 797 2316 797 1656 
z
" transform="scale(0.015625)"/>
       <path id="ArialMT-65" d="M 2694 1069 
L 3275 997 
Q 3138 488 2766 206 
Q 2394 -75 1816 -75 
Q 1088 -75 661 373 
Q 234 822 234 1631 
Q 234 2469 665 2931 
Q 1097 3394 1784 3394 
Q 2450 3394 2872 2941 
Q 3294 2488 3294 1666 
Q 3294 1616 3291 1516 
L 816 1516 
Q 847 969 1125 678 
Q 1403 388 1819 388 
Q 2128 388 2347 550 
Q 2566 713 2694 1069 
z
M 847 1978 
L 2700 1978 
Q 2663 2397 2488 2606 
Q 2219 2931 1791 2931 
Q 1403 2931 1139 2672 
Q 875 2413 847 1978 
z
" transform="scale(0.015625)"/>
       <path id="ArialMT-66" d="M 556 0 
L 556 2881 
L 59 2881 
L 59 3319 
L 556 3319 
L 556 3672 
Q 556 4006 616 4169 
Q 697 4388 901 4523 
Q 1106 4659 1475 4659 
Q 1713 4659 2000 4603 
L 1916 4113 
Q 1741 4144 1584 4144 
Q 1328 4144 1222 4034 
Q 1116 3925 1116 3625 
L 1116 3319 
L 1763 3319 
L 1763 2881 
L 1116 2881 
L 1116 0 
L 556 0 
z
" transform="scale(0.015625)"/>
       <path id="ArialMT-74" d="M 1650 503 
L 1731 6 
Q 1494 -44 1306 -44 
Q 1000 -44 831 53 
Q 663 150 594 308 
Q 525 466 525 972 
L 525 2881 
L 113 2881 
L 113 3319 
L 525 3319 
L 525 4141 
L 1084 4478 
L 1084 3319 
L 1650 3319 
L 1650 2881 
L 1084 2881 
L 1084 941 
Q 1084 700 1114 631 
Q 1144 563 1211 522 
Q 1278 481 1403 481 
Q 1497 481 1650 503 
z
" transform="scale(0.015625)"/>
       <path id="ArialMT-61" d="M 2588 409 
Q 2275 144 1986 34 
Q 1697 -75 1366 -75 
Q 819 -75 525 192 
Q 231 459 231 875 
Q 231 1119 342 1320 
Q 453 1522 633 1644 
Q 813 1766 1038 1828 
Q 1203 1872 1538 1913 
Q 2219 1994 2541 2106 
Q 2544 2222 2544 2253 
Q 2544 2597 2384 2738 
Q 2169 2928 1744 2928 
Q 1347 2928 1158 2789 
Q 969 2650 878 2297 
L 328 2372 
Q 403 2725 575 2942 
Q 747 3159 1072 3276 
Q 1397 3394 1825 3394 
Q 2250 3394 2515 3294 
Q 2781 3194 2906 3042 
Q 3031 2891 3081 2659 
Q 3109 2516 3109 2141 
L 3109 1391 
Q 3109 606 3145 398 
Q 3181 191 3288 0 
L 2700 0 
Q 2613 175 2588 409 
z
M 2541 1666 
Q 2234 1541 1622 1453 
Q 1275 1403 1131 1340 
Q 988 1278 909 1158 
Q 831 1038 831 891 
Q 831 666 1001 516 
Q 1172 366 1500 366 
Q 1825 366 2078 508 
Q 2331 650 2450 897 
Q 2541 1088 2541 1459 
L 2541 1666 
z
" transform="scale(0.015625)"/>
       <path id="ArialMT-72" d="M 416 0 
L 416 3319 
L 922 3319 
L 922 2816 
Q 1116 3169 1280 3281 
Q 1444 3394 1641 3394 
Q 1925 3394 2219 3213 
L 2025 2691 
Q 1819 2813 1613 2813 
Q 1428 2813 1281 2702 
Q 1134 2591 1072 2394 
Q 978 2094 978 1738 
L 978 0 
L 416 0 
z
" transform="scale(0.015625)"/>
       <path id="ArialMT-67" d="M 319 -275 
L 866 -356 
Q 900 -609 1056 -725 
Q 1266 -881 1628 -881 
Q 2019 -881 2231 -725 
Q 2444 -569 2519 -288 
Q 2563 -116 2559 434 
Q 2191 0 1641 0 
Q 956 0 581 494 
Q 206 988 206 1678 
Q 206 2153 378 2554 
Q 550 2956 876 3175 
Q 1203 3394 1644 3394 
Q 2231 3394 2613 2919 
L 2613 3319 
L 3131 3319 
L 3131 450 
Q 3131 -325 2973 -648 
Q 2816 -972 2473 -1159 
Q 2131 -1347 1631 -1347 
Q 1038 -1347 672 -1080 
Q 306 -813 319 -275 
z
M 784 1719 
Q 784 1066 1043 766 
Q 1303 466 1694 466 
Q 2081 466 2343 764 
Q 2606 1063 2606 1700 
Q 2606 2309 2336 2618 
Q 2066 2928 1684 2928 
Q 1309 2928 1046 2623 
Q 784 2319 784 1719 
z
" transform="scale(0.015625)"/>
       <path id="DejaVuSans-Oblique-3c0" d="M 584 3500 
L 3938 3500 
L 3825 2925 
L 3384 2925 
L 2966 775 
Q 2922 550 2981 450 
Q 3038 353 3209 353 
Q 3256 353 3325 363 
Q 3397 369 3419 372 
L 3338 -44 
Q 3222 -84 3103 -103 
Q 2981 -122 2866 -122 
Q 2491 -122 2388 81 
Q 2284 288 2391 838 
L 2797 2925 
L 1506 2925 
L 938 0 
L 350 0 
L 919 2925 
L 472 2925 
L 584 3500 
z
" transform="scale(0.015625)"/>
      </defs>
      <use xlink:href="#ArialMT-6d" transform="translate(0 0.203125)"/>
      <use xlink:href="#ArialMT-6f" transform="translate(83.300781 0.203125)"/>
      <use xlink:href="#ArialMT-64" transform="translate(138.916016 0.203125)"/>
      <use xlink:href="#ArialMT-65" transform="translate(194.53125 0.203125)"/>
      <use xlink:href="#ArialMT-20" transform="translate(250.146484 0.203125)"/>
      <use xlink:href="#ArialMT-6f" transform="translate(277.929688 0.203125)"/>
      <use xlink:href="#ArialMT-66" transform="translate(333.544922 0.203125)"/>
      <use xlink:href="#ArialMT-20" transform="translate(361.328125 0.203125)"/>
      <use xlink:href="#ArialMT-74" transform="translate(389.111328 0.203125)"/>
      <use xlink:href="#ArialMT-61" transform="translate(416.894531 0.203125)"/>
      <use xlink:href="#ArialMT-72" transform="translate(472.509766 0.203125)"/>
      <use xlink:href="#ArialMT-67" transform="translate(505.810547 0.203125)"/>
      <use xlink:href="#ArialMT-65" transform="translate(561.425781 0.203125)"/>
      <use xlink:href="#ArialMT-74" transform="translate(617.041016 0.203125)"/>
      <use xlink:href="#ArialMT-20" transform="translate(644.824219 0.203125)"/>
      <use xlink:href="#DejaVuSans-Oblique-3c0" transform="translate(672.607422 0.203125)"/>
     </g>
    </g>
   </g>
  </g>
 </g>
 <defs>
  <clipPath id="p2029ab1171">
   <rect x="57.6" y="41.472" width="357.12" height="266.112"/>
  </clipPath>
 </defs>
</svg>
