<?xml version="1.0" encoding="utf-8" standalone="no"?>
<!DOCTYPE svg PUBLIC "-//W3C//DTD SVG 1.1//EN"
  "http://www.w3.org/Graphics/SVG/1.1/DTD/svg11.dtd">
<svg xmlns:xlink="http://www.w3.org/1999/xlink" width="460.8pt" height="345.6pt" viewBox="0 0 460.8 345.6" xmlns="http://www.w3.org/2000/svg" version="1.1">
 <metadata>
  <rdf:RDF xmlns:dc="http://purl.org/dc/elements/1.1/" xmlns:cc="http://creativecommons.org/ns#" xmlns:rdf="http://www.w3.org/1999/02/22-rdf-syntax-ns#">
   <cc:Work>
    <dc:type rdf:resource="http://purl.org/dc/dcmitype/StillImage"/>
    <dc:date>2025-04-06T14:16:01.384905</dc:date>
    <dc:format>image/svg+xml</dc:format>
    <dc:creator>
     <cc:Agent>
      <dc:title>Matplotlib v3.10.1, https://matplotlib.org/</dc:title>
     </cc:Agent>
    </dc:creator>
   </cc:Work>
  </rdf:RDF>
 </metadata>
 <defs>
  <style type="text/css">*{stroke-linejoin: round; stroke-linecap: butt}</style>
 </defs>
 <g id="figure_1">
  <g id="patch_1">
   <path d="M 0 345.6 
L 460.8 345.6 
L 460.8 0 
L 0 0 
z
" style="fill: #ffffff"/>
  </g>
  <g id="axes_1">
   <g id="patch_2">
    <path d="M 57.6 307.584 
L 414.72 307.584 
L 414.72 41.472 
L 57.6 41.472 
z
" style="fill: #eaeaf2"/>
   </g>
   <g id="matplotlib.axis_1">
    <g id="xtick_1">
     <g id="line2d_1">
      <path d="M 106.626147 307.584 
L 106.626147 41.472 
" clip-path="url(#p450c5825dd)" style="fill: none; stroke: #ffffff; stroke-width: 0.8; stroke-linecap: round"/>
     </g>
     <g id="text_1">
      <!-- −2 -->
      <g style="fill: #262626" transform="translate(100.925366 321.741812) scale(0.1 -0.1)">
       <defs>
        <path id="ArialMT-2212" d="M 3381 1997 
L 356 1997 
L 356 2522 
L 3381 2522 
L 3381 1997 
z
" transform="scale(0.015625)"/>
        <path id="ArialMT-32" d="M 3222 541 
L 3222 0 
L 194 0 
Q 188 203 259 391 
Q 375 700 629 1000 
Q 884 1300 1366 1694 
Q 2113 2306 2375 2664 
Q 2638 3022 2638 3341 
Q 2638 3675 2398 3904 
Q 2159 4134 1775 4134 
Q 1369 4134 1125 3890 
Q 881 3647 878 3216 
L 300 3275 
Q 359 3922 746 4261 
Q 1134 4600 1788 4600 
Q 2447 4600 2831 4234 
Q 3216 3869 3216 3328 
Q 3216 3053 3103 2787 
Q 2991 2522 2730 2228 
Q 2469 1934 1863 1422 
Q 1356 997 1212 845 
Q 1069 694 975 541 
L 3222 541 
z
" transform="scale(0.015625)"/>
       </defs>
       <use xlink:href="#ArialMT-2212"/>
       <use xlink:href="#ArialMT-32" transform="translate(58.398438 0)"/>
      </g>
     </g>
    </g>
    <g id="xtick_2">
     <g id="line2d_2">
      <path d="M 172.212986 307.584 
L 172.212986 41.472 
" clip-path="url(#p450c5825dd)" style="fill: none; stroke: #ffffff; stroke-width: 0.8; stroke-linecap: round"/>
     </g>
     <g id="text_2">
      <!-- −1 -->
      <g style="fill: #262626" transform="translate(166.512205 321.741812) scale(0.1 -0.1)">
       <defs>
        <path id="ArialMT-31" d="M 2384 0 
L 1822 0 
L 1822 3584 
Q 1619 3391 1289 3197 
Q 959 3003 697 2906 
L 697 3450 
Q 1169 3672 1522 3987 
Q 1875 4303 2022 4600 
L 2384 4600 
L 2384 0 
z
" transform="scale(0.015625)"/>
       </defs>
       <use xlink:href="#ArialMT-2212"/>
       <use xlink:href="#ArialMT-31" transform="translate(58.398438 0)"/>
      </g>
     </g>
    </g>
    <g id="xtick_3">
     <g id="line2d_3">
      <path d="M 237.799826 307.584 
L 237.799826 41.472 
" clip-path="url(#p450c5825dd)" style="fill: none; stroke: #ffffff; stroke-width: 0.8; stroke-linecap: round"/>
     </g>
     <g id="text_3">
      <!-- 0 -->
      <g style="fill: #262626" transform="translate(235.019357 321.741812) scale(0.1 -0.1)">
       <defs>
        <path id="ArialMT-30" d="M 266 2259 
Q 266 3072 433 3567 
Q 600 4063 929 4331 
Q 1259 4600 1759 4600 
Q 2128 4600 2406 4451 
Q 2684 4303 2865 4023 
Q 3047 3744 3150 3342 
Q 3253 2941 3253 2259 
Q 3253 1453 3087 958 
Q 2922 463 2592 192 
Q 2263 -78 1759 -78 
Q 1097 -78 719 397 
Q 266 969 266 2259 
z
M 844 2259 
Q 844 1131 1108 757 
Q 1372 384 1759 384 
Q 2147 384 2411 759 
Q 2675 1134 2675 2259 
Q 2675 3391 2411 3762 
Q 2147 4134 1753 4134 
Q 1366 4134 1134 3806 
Q 844 3388 844 2259 
z
" transform="scale(0.015625)"/>
       </defs>
       <use xlink:href="#ArialMT-30"/>
      </g>
     </g>
    </g>
    <g id="xtick_4">
     <g id="line2d_4">
      <path d="M 303.386665 307.584 
L 303.386665 41.472 
" clip-path="url(#p450c5825dd)" style="fill: none; stroke: #ffffff; stroke-width: 0.8; stroke-linecap: round"/>
     </g>
     <g id="text_4">
      <!-- 1 -->
      <g style="fill: #262626" transform="translate(300.606196 321.741812) scale(0.1 -0.1)">
       <use xlink:href="#ArialMT-31"/>
      </g>
     </g>
    </g>
    <g id="xtick_5">
     <g id="line2d_5">
      <path d="M 368.973505 307.584 
L 368.973505 41.472 
" clip-path="url(#p450c5825dd)" style="fill: none; stroke: #ffffff; stroke-width: 0.8; stroke-linecap: round"/>
     </g>
     <g id="text_5">
      <!-- 2 -->
      <g style="fill: #262626" transform="translate(366.193036 321.741812) scale(0.1 -0.1)">
       <use xlink:href="#ArialMT-32"/>
      </g>
     </g>
    </g>
    <g id="text_6">
     <!-- $x$ -->
     <g style="fill: #262626" transform="translate(233.16 334.887125) scale(0.1 -0.1)">
      <defs>
       <path id="DejaVuSans-Oblique-78" d="M 3841 3500 
L 2234 1784 
L 3219 0 
L 2559 0 
L 1819 1388 
L 531 0 
L -166 0 
L 1556 1844 
L 641 3500 
L 1300 3500 
L 1972 2234 
L 3144 3500 
L 3841 3500 
z
" transform="scale(0.015625)"/>
      </defs>
      <use xlink:href="#DejaVuSans-Oblique-78" transform="translate(0 0.3125)"/>
     </g>
    </g>
   </g>
   <g id="matplotlib.axis_2">
    <g id="ytick_1">
     <g id="line2d_6">
      <path d="M 57.6 271.296 
L 414.72 271.296 
" clip-path="url(#p450c5825dd)" style="fill: none; stroke: #ffffff; stroke-width: 0.8; stroke-linecap: round"/>
     </g>
     <g id="text_7">
      <!-- −2 -->
      <g style="fill: #262626" transform="translate(39.198437 274.874906) scale(0.1 -0.1)">
       <use xlink:href="#ArialMT-2212"/>
       <use xlink:href="#ArialMT-32" transform="translate(58.398438 0)"/>
      </g>
     </g>
    </g>
    <g id="ytick_2">
     <g id="line2d_7">
      <path d="M 57.6 222.912 
L 414.72 222.912 
" clip-path="url(#p450c5825dd)" style="fill: none; stroke: #ffffff; stroke-width: 0.8; stroke-linecap: round"/>
     </g>
     <g id="text_8">
      <!-- −1 -->
      <g style="fill: #262626" transform="translate(39.198437 226.490906) scale(0.1 -0.1)">
       <use xlink:href="#ArialMT-2212"/>
       <use xlink:href="#ArialMT-31" transform="translate(58.398438 0)"/>
      </g>
     </g>
    </g>
    <g id="ytick_3">
     <g id="line2d_8">
      <path d="M 57.6 174.528 
L 414.72 174.528 
" clip-path="url(#p450c5825dd)" style="fill: none; stroke: #ffffff; stroke-width: 0.8; stroke-linecap: round"/>
     </g>
     <g id="text_9">
      <!-- 0 -->
      <g style="fill: #262626" transform="translate(45.039062 178.106906) scale(0.1 -0.1)">
       <use xlink:href="#ArialMT-30"/>
      </g>
     </g>
    </g>
    <g id="ytick_4">
     <g id="line2d_9">
      <path d="M 57.6 126.144 
L 414.72 126.144 
" clip-path="url(#p450c5825dd)" style="fill: none; stroke: #ffffff; stroke-width: 0.8; stroke-linecap: round"/>
     </g>
     <g id="text_10">
      <!-- 1 -->
      <g style="fill: #262626" transform="translate(45.039062 129.722906) scale(0.1 -0.1)">
       <use xlink:href="#ArialMT-31"/>
      </g>
     </g>
    </g>
    <g id="ytick_5">
     <g id="line2d_10">
      <path d="M 57.6 77.76 
L 414.72 77.76 
" clip-path="url(#p450c5825dd)" style="fill: none; stroke: #ffffff; stroke-width: 0.8; stroke-linecap: round"/>
     </g>
     <g id="text_11">
      <!-- 2 -->
      <g style="fill: #262626" transform="translate(45.039062 81.338906) scale(0.1 -0.1)">
       <use xlink:href="#ArialMT-32"/>
      </g>
     </g>
    </g>
    <g id="text_12">
     <!-- $x_{next}$ -->
     <g style="fill: #262626" transform="translate(33.210938 185.478) rotate(-90) scale(0.1 -0.1)">
      <defs>
       <path id="DejaVuSans-Oblique-6e" d="M 3566 2113 
L 3156 0 
L 2578 0 
L 2988 2091 
Q 3016 2238 3031 2350 
Q 3047 2463 3047 2528 
Q 3047 2791 2881 2937 
Q 2716 3084 2419 3084 
Q 1956 3084 1622 2776 
Q 1288 2469 1184 1941 
L 800 0 
L 225 0 
L 903 3500 
L 1478 3500 
L 1363 2950 
Q 1603 3253 1940 3418 
Q 2278 3584 2650 3584 
Q 3113 3584 3367 3334 
Q 3622 3084 3622 2631 
Q 3622 2519 3608 2391 
Q 3594 2263 3566 2113 
z
" transform="scale(0.015625)"/>
       <path id="DejaVuSans-Oblique-65" d="M 3078 2063 
Q 3088 2113 3092 2166 
Q 3097 2219 3097 2272 
Q 3097 2653 2873 2875 
Q 2650 3097 2266 3097 
Q 1838 3097 1509 2826 
Q 1181 2556 1013 2059 
L 3078 2063 
z
M 3578 1613 
L 903 1613 
Q 884 1494 878 1425 
Q 872 1356 872 1306 
Q 872 872 1139 634 
Q 1406 397 1894 397 
Q 2269 397 2603 481 
Q 2938 566 3225 728 
L 3116 159 
Q 2806 34 2476 -28 
Q 2147 -91 1806 -91 
Q 1078 -91 686 257 
Q 294 606 294 1247 
Q 294 1794 489 2264 
Q 684 2734 1063 3103 
Q 1306 3334 1642 3459 
Q 1978 3584 2356 3584 
Q 2950 3584 3301 3228 
Q 3653 2872 3653 2272 
Q 3653 2128 3634 1964 
Q 3616 1800 3578 1613 
z
" transform="scale(0.015625)"/>
       <path id="DejaVuSans-Oblique-74" d="M 2706 3500 
L 2619 3053 
L 1472 3053 
L 1100 1153 
Q 1081 1047 1072 975 
Q 1063 903 1063 863 
Q 1063 663 1183 572 
Q 1303 481 1569 481 
L 2150 481 
L 2053 0 
L 1503 0 
Q 991 0 739 200 
Q 488 400 488 806 
Q 488 878 497 964 
Q 506 1050 525 1153 
L 897 3053 
L 409 3053 
L 500 3500 
L 978 3500 
L 1172 4494 
L 1747 4494 
L 1556 3500 
L 2706 3500 
z
" transform="scale(0.015625)"/>
      </defs>
      <use xlink:href="#DejaVuSans-Oblique-78" transform="translate(0 0.3125)"/>
      <use xlink:href="#DejaVuSans-Oblique-6e" transform="translate(59.179688 -16.09375) scale(0.7)"/>
      <use xlink:href="#DejaVuSans-Oblique-65" transform="translate(103.544922 -16.09375) scale(0.7)"/>
      <use xlink:href="#DejaVuSans-Oblique-78" transform="translate(146.611328 -16.09375) scale(0.7)"/>
      <use xlink:href="#DejaVuSans-Oblique-74" transform="translate(188.037109 -16.09375) scale(0.7)"/>
     </g>
    </g>
   </g>
   <g id="FillBetweenPolyCollection_1">
    <defs>
     <path id="me84daf9b4b" d="M 73.832727 -129.451348 
L 73.832727 -96.218045 
L 77.112066 -97.830013 
L 80.391405 -99.546851 
L 83.670744 -100.918624 
L 86.950083 -102.096004 
L 90.229421 -103.747348 
L 93.50876 -105.162097 
L 96.788099 -105.884263 
L 100.067438 -107.256999 
L 103.346777 -107.90874 
L 106.626116 -108.921754 
L 109.905455 -109.638048 
L 113.184793 -110.119592 
L 116.464132 -110.625021 
L 119.743471 -111.050646 
L 123.02281 -111.381811 
L 126.302149 -111.529231 
L 129.581488 -111.84495 
L 132.860826 -111.890741 
L 136.140165 -111.975649 
L 139.419504 -111.762706 
L 142.698843 -111.5853 
L 145.978182 -111.08185 
L 149.257521 -110.542299 
L 152.53686 -109.453974 
L 155.816198 -110.591942 
L 159.095537 -113.01114 
L 162.374876 -115.430338 
L 165.654215 -117.849535 
L 168.933554 -120.268733 
L 172.212893 -122.687931 
L 175.492231 -124.110792 
L 178.77157 -123.274279 
L 182.050909 -122.386256 
L 185.330248 -121.496431 
L 188.609587 -120.83875 
L 191.888926 -120.361434 
L 195.168264 -120.056471 
L 198.447603 -119.79831 
L 201.726942 -119.89905 
L 205.006281 -119.929931 
L 208.28562 -120.186224 
L 211.564959 -120.406942 
L 214.844298 -120.8078 
L 218.123636 -121.224138 
L 221.402975 -121.479537 
L 224.682314 -121.907833 
L 227.961653 -122.317988 
L 231.240992 -122.588107 
L 234.520331 -122.975128 
L 237.799669 -123.390472 
L 241.079008 -123.993019 
L 244.358347 -124.423146 
L 247.637686 -124.808733 
L 250.917025 -125.493134 
L 254.196364 -126.23079 
L 257.475702 -127.077693 
L 260.755041 -128.2783 
L 264.03438 -129.530391 
L 267.313719 -130.805985 
L 270.593058 -133.05842 
L 273.872397 -135.520637 
L 277.151736 -140.042016 
L 280.431074 -202.521455 
L 283.710413 -204.940652 
L 286.989752 -207.35985 
L 290.269091 -209.779048 
L 293.54843 -212.198245 
L 296.827769 -214.617443 
L 300.107107 -217.036641 
L 303.386446 -219.211392 
L 306.665785 -218.736205 
L 309.945124 -217.650083 
L 313.224463 -216.429283 
L 316.503802 -215.243027 
L 319.78314 -214.167068 
L 323.062479 -213.008748 
L 326.341818 -212.136339 
L 329.621157 -211.569478 
L 332.900496 -210.911384 
L 336.179835 -210.221993 
L 339.459174 -209.726676 
L 342.738512 -209.513258 
L 346.017851 -209.232247 
L 349.29719 -208.89775 
L 352.576529 -208.826183 
L 355.855868 -208.649723 
L 359.135207 -208.559266 
L 362.414545 -208.593714 
L 365.693884 -208.581083 
L 368.973223 -208.934272 
L 372.252562 -209.199849 
L 375.531901 -209.722036 
L 378.81124 -210.086868 
L 382.090579 -210.343481 
L 385.369917 -210.741804 
L 388.649256 -211.162662 
L 391.928595 -211.698596 
L 395.207934 -211.86982 
L 398.487273 -212.381475 
L 398.487273 -244.048356 
L 398.487273 -244.048356 
L 395.207934 -242.545187 
L 391.928595 -241.068272 
L 388.649256 -239.935339 
L 385.369917 -238.490021 
L 382.090579 -237.26219 
L 378.81124 -236.056594 
L 375.531901 -235.116993 
L 372.252562 -233.897819 
L 368.973223 -233.317369 
L 365.693884 -232.516184 
L 362.414545 -231.980272 
L 359.135207 -231.488825 
L 355.855868 -230.968366 
L 352.576529 -230.713405 
L 349.29719 -230.568534 
L 346.017851 -230.400812 
L 342.738512 -230.199665 
L 339.459174 -230.251737 
L 336.179835 -230.38619 
L 332.900496 -230.584511 
L 329.621157 -230.995417 
L 326.341818 -231.587899 
L 323.062479 -232.491601 
L 319.78314 -231.551827 
L 316.503802 -229.132629 
L 313.224463 -226.713432 
L 309.945124 -224.294234 
L 306.665785 -221.875036 
L 303.386446 -219.455839 
L 300.107107 -218.094782 
L 296.827769 -218.975811 
L 293.54843 -219.757011 
L 290.269091 -220.611087 
L 286.989752 -221.309455 
L 283.710413 -221.73414 
L 280.431074 -222.047206 
L 277.151736 -222.24037 
L 273.872397 -222.334288 
L 270.593058 -222.152988 
L 267.313719 -221.911743 
L 264.03438 -221.655478 
L 260.755041 -221.450721 
L 257.475702 -220.998022 
L 254.196364 -220.717705 
L 250.917025 -220.322811 
L 247.637686 -219.888789 
L 244.358347 -219.497378 
L 241.079008 -219.108004 
L 237.799669 -218.81685 
L 234.520331 -218.366556 
L 231.240992 -217.793745 
L 227.961653 -217.284227 
L 224.682314 -216.545245 
L 221.402975 -215.906696 
L 218.123636 -215.046284 
L 214.844298 -213.986103 
L 211.564959 -212.615196 
L 208.28562 -211.123957 
L 205.006281 -209.286989 
L 201.726942 -206.596536 
L 198.447603 -202.115983 
L 195.168264 -139.622315 
L 191.888926 -137.203117 
L 188.609587 -134.783919 
L 185.330248 -132.364722 
L 182.050909 -129.945524 
L 178.77157 -127.526326 
L 175.492231 -125.107128 
L 172.212893 -122.973066 
L 168.933554 -123.40552 
L 165.654215 -124.402474 
L 162.374876 -125.755781 
L 159.095537 -127.015061 
L 155.816198 -127.996193 
L 152.53686 -129.067517 
L 149.257521 -129.940627 
L 145.978182 -130.559866 
L 142.698843 -131.282332 
L 139.419504 -131.821318 
L 136.140165 -132.329696 
L 132.860826 -132.710474 
L 129.581488 -132.917844 
L 126.302149 -133.049048 
L 123.02281 -133.205387 
L 119.743471 -133.616033 
L 116.464132 -133.429179 
L 113.184793 -133.540587 
L 109.905455 -133.516576 
L 106.626116 -133.263455 
L 103.346777 -132.889412 
L 100.067438 -132.35404 
L 96.788099 -132.03732 
L 93.50876 -131.832121 
L 90.229421 -131.264158 
L 86.950083 -130.746571 
L 83.670744 -130.651563 
L 80.391405 -130.203132 
L 77.112066 -129.881415 
L 73.832727 -129.451348 
z
" style="stroke: #0000ff; stroke-opacity: 0.5"/>
    </defs>
    <g clip-path="url(#p450c5825dd)">
     <use xlink:href="#me84daf9b4b" x="0" y="345.6" style="fill: #0000ff; fill-opacity: 0.5; stroke: #0000ff; stroke-opacity: 0.5"/>
    </g>
   </g>
   <g id="FillBetweenPolyCollection_2">
    <defs>
     <path id="m690b6e1e6a" d="M 73.832727 -212.904351 
L 73.832727 -56.952406 
L 77.112066 -59.121281 
L 80.391405 -61.774167 
L 83.670744 -64.188278 
L 86.950083 -66.133787 
L 90.229421 -68.603061 
L 93.50876 -71.491506 
L 96.788099 -73.256044 
L 100.067438 -76.017839 
L 103.346777 -78.311864 
L 106.626116 -80.445554 
L 109.905455 -82.193406 
L 113.184793 -83.672737 
L 116.464132 -85.370738 
L 119.743471 -86.515403 
L 123.02281 -87.117102 
L 126.302149 -88.819163 
L 129.581488 -91.238361 
L 132.860826 -93.657558 
L 136.140165 -96.076756 
L 139.419504 -98.495954 
L 142.698843 -100.915152 
L 145.978182 -103.334349 
L 149.257521 -105.753547 
L 152.53686 -108.172745 
L 155.816198 -110.591942 
L 159.095537 -113.01114 
L 162.374876 -114.902161 
L 165.654215 -116.172345 
L 168.933554 -116.982995 
L 172.212893 -117.323845 
L 175.492231 -117.032921 
L 178.77157 -116.261071 
L 182.050909 -115.08631 
L 185.330248 -113.67084 
L 188.609587 -112.299812 
L 191.888926 -110.974384 
L 195.168264 -109.925061 
L 198.447603 -108.878484 
L 201.726942 -108.144055 
L 205.006281 -107.642145 
L 208.28562 -107.212777 
L 211.564959 -106.921842 
L 214.844298 -107.366467 
L 218.123636 -107.302576 
L 221.402975 -107.313114 
L 224.682314 -107.434094 
L 227.961653 -107.596655 
L 231.240992 -107.886026 
L 234.520331 -107.979217 
L 237.799669 -108.086971 
L 241.079008 -108.623829 
L 244.358347 -109.261392 
L 247.637686 -109.490686 
L 250.917025 -109.854128 
L 254.196364 -110.624231 
L 257.475702 -111.304401 
L 260.755041 -111.974143 
L 264.03438 -112.74323 
L 267.313719 -113.345501 
L 270.593058 -114.267597 
L 273.872397 -115.210734 
L 277.151736 -116.265778 
L 280.431074 -117.271975 
L 283.710413 -118.26235 
L 286.989752 -119.518841 
L 290.269091 -120.964361 
L 293.54843 -122.062353 
L 296.827769 -123.695979 
L 300.107107 -125.183947 
L 303.386446 -126.479772 
L 306.665785 -126.527587 
L 309.945124 -126.163228 
L 313.224463 -126.125859 
L 316.503802 -125.640119 
L 319.78314 -124.937053 
L 323.062479 -124.855813 
L 326.341818 -124.172496 
L 329.621157 -123.991167 
L 332.900496 -123.933619 
L 336.179835 -123.409739 
L 339.459174 -123.267337 
L 342.738512 -122.960982 
L 346.017851 -122.721107 
L 349.29719 -122.481846 
L 352.576529 -122.19146 
L 355.855868 -122.217253 
L 359.135207 -122.12085 
L 362.414545 -122.32525 
L 365.693884 -122.181153 
L 368.973223 -122.42358 
L 372.252562 -122.697523 
L 375.531901 -123.702419 
L 378.81124 -124.049924 
L 382.090579 -124.837956 
L 385.369917 -125.496243 
L 388.649256 -126.143846 
L 391.928595 -126.803376 
L 395.207934 -127.665507 
L 398.487273 -128.326231 
L 398.487273 -282.993246 
L 398.487273 -282.993246 
L 395.207934 -280.667775 
L 391.928595 -278.222761 
L 388.649256 -276.021506 
L 385.369917 -273.606369 
L 382.090579 -271.194531 
L 378.81124 -268.57797 
L 375.531901 -266.204494 
L 372.252562 -263.199954 
L 368.973223 -261.595 
L 365.693884 -260.189018 
L 362.414545 -258.468858 
L 359.135207 -256.765879 
L 355.855868 -255.872074 
L 352.576529 -254.994408 
L 349.29719 -253.324606 
L 346.017851 -250.905409 
L 342.738512 -248.486211 
L 339.459174 -246.067013 
L 336.179835 -243.647815 
L 332.900496 -241.228618 
L 329.621157 -238.80942 
L 326.341818 -236.390222 
L 323.062479 -233.971025 
L 319.78314 -231.551827 
L 316.503802 -229.132629 
L 313.224463 -227.169459 
L 309.945124 -225.982464 
L 306.665785 -225.17787 
L 303.386446 -224.971549 
L 300.107107 -225.13678 
L 296.827769 -225.8959 
L 293.54843 -227.031256 
L 290.269091 -228.41769 
L 286.989752 -229.764327 
L 283.710413 -231.061279 
L 280.431074 -232.236681 
L 277.151736 -233.120334 
L 273.872397 -234.007645 
L 270.593058 -234.608334 
L 267.313719 -234.796262 
L 264.03438 -235.034288 
L 260.755041 -235.222711 
L 257.475702 -234.932376 
L 254.196364 -235.046078 
L 250.917025 -234.718367 
L 247.637686 -234.619178 
L 244.358347 -234.277383 
L 241.079008 -234.220552 
L 237.799669 -233.938067 
L 234.520331 -233.778824 
L 231.240992 -233.10062 
L 227.961653 -232.681115 
L 224.682314 -232.067286 
L 221.402975 -231.585719 
L 218.123636 -230.931059 
L 214.844298 -230.219149 
L 211.564959 -229.452028 
L 208.28562 -228.578215 
L 205.006281 -227.861107 
L 201.726942 -226.909618 
L 198.447603 -226.051084 
L 195.168264 -224.939099 
L 191.888926 -223.657928 
L 188.609587 -222.575481 
L 185.330248 -221.350874 
L 182.050909 -220.01834 
L 178.77157 -218.3657 
L 175.492231 -216.896039 
L 172.212893 -215.531738 
L 168.933554 -215.712594 
L 165.654215 -215.935892 
L 162.374876 -216.258983 
L 159.095537 -216.856936 
L 155.816198 -217.073967 
L 152.53686 -217.268923 
L 149.257521 -217.977719 
L 145.978182 -218.197709 
L 142.698843 -218.166205 
L 139.419504 -218.720975 
L 136.140165 -219.149789 
L 132.860826 -219.161599 
L 129.581488 -219.392958 
L 126.302149 -219.718569 
L 123.02281 -219.694598 
L 119.743471 -220.101754 
L 116.464132 -219.621179 
L 113.184793 -219.881152 
L 109.905455 -220.017428 
L 106.626116 -219.730825 
L 103.346777 -218.959042 
L 100.067438 -218.179385 
L 96.788099 -218.123858 
L 93.50876 -217.314791 
L 90.229421 -216.522832 
L 86.950083 -215.439724 
L 83.670744 -215.234211 
L 80.391405 -214.475878 
L 77.112066 -213.818323 
L 73.832727 -212.904351 
z
" style="stroke: #0000ff; stroke-opacity: 0.3"/>
    </defs>
    <g clip-path="url(#p450c5825dd)">
     <use xlink:href="#m690b6e1e6a" x="0" y="345.6" style="fill: #0000ff; fill-opacity: 0.3; stroke: #0000ff; stroke-opacity: 0.3"/>
    </g>
   </g>
   <g id="line2d_11">
    <path d="M 73.832727 228.200066 
L 77.112066 226.957931 
L 80.391405 225.757267 
L 83.670744 224.469422 
L 86.950083 223.624712 
L 90.229421 222.212242 
L 93.50876 220.724943 
L 96.788099 219.832055 
L 100.067438 218.797357 
L 103.346777 217.658578 
L 106.626116 216.456365 
L 109.905455 215.801596 
L 113.184793 215.426604 
L 116.464132 215.25262 
L 119.743471 214.589898 
L 123.02281 214.806765 
L 126.302149 214.690852 
L 129.581488 214.631743 
L 132.860826 214.675068 
L 136.140165 214.667951 
L 139.419504 215.125896 
L 142.698843 215.596437 
L 145.978182 215.902322 
L 149.257521 216.335947 
L 152.53686 216.889673 
L 155.816198 217.394446 
L 159.095537 217.69189 
L 162.374876 218.035387 
L 165.654215 218.130804 
L 168.933554 217.590818 
L 172.212893 216.373787 
L 175.492231 214.139754 
L 178.77157 211.464574 
L 182.050909 208.462576 
L 185.330248 206.001942 
L 188.609587 203.628402 
L 191.888926 201.087048 
L 195.168264 198.594688 
L 198.447603 196.549093 
L 201.726942 194.141191 
L 205.006281 192.030752 
L 208.28562 190.001696 
L 211.564959 187.820843 
L 214.844298 185.694268 
L 218.123636 183.675473 
L 221.402975 182.134841 
L 224.682314 180.419543 
L 227.961653 178.4438 
L 231.240992 177.398574 
L 234.520331 175.793816 
L 237.799669 174.562894 
L 241.079008 172.977209 
L 244.358347 171.568132 
L 247.637686 170.319459 
L 250.917025 168.565555 
L 254.196364 166.982963 
L 257.475702 165.199336 
L 260.755041 163.047402 
L 264.03438 161.088402 
L 267.313719 159.383965 
L 270.593058 157.036742 
L 273.872397 154.793561 
L 277.151736 152.473951 
L 280.431074 150.320684 
L 283.710413 147.996243 
L 286.989752 145.721667 
L 290.269091 143.022517 
L 293.54843 140.518561 
L 296.827769 137.65424 
L 300.107107 134.949114 
L 303.386446 132.628541 
L 306.665785 131.427331 
L 309.945124 131.057403 
L 313.224463 130.832553 
L 316.503802 131.189625 
L 319.78314 131.778113 
L 323.062479 132.225583 
L 326.341818 132.744863 
L 329.621157 133.102627 
L 332.900496 133.417928 
L 336.179835 134.026219 
L 339.459174 134.197887 
L 342.738512 134.312234 
L 346.017851 134.514194 
L 349.29719 134.529266 
L 352.576529 134.48725 
L 355.855868 134.320713 
L 359.135207 134.031661 
L 362.414545 133.633235 
L 365.693884 133.264521 
L 368.973223 132.433181 
L 372.252562 131.717377 
L 375.531901 130.22371 
L 378.81124 129.258846 
L 382.090579 128.156405 
L 385.369917 126.865785 
L 388.649256 125.647708 
L 391.928595 124.478605 
L 395.207934 123.368201 
L 398.487273 122.157154 
" clip-path="url(#p450c5825dd)" style="fill: none; stroke: #0000ff; stroke-width: 1.5; stroke-linecap: round"/>
   </g>
   <g id="line2d_12">
    <path d="M 73.832727 295.488 
L 77.112066 293.068802 
L 80.391405 290.649605 
L 83.670744 288.230407 
L 86.950083 285.811209 
L 90.229421 283.392012 
L 93.50876 280.972814 
L 96.788099 278.553616 
L 100.067438 276.134418 
L 103.346777 273.715221 
L 106.626116 271.296023 
L 109.905455 268.876825 
L 113.184793 266.457628 
L 116.464132 264.03843 
L 119.743471 261.619232 
L 123.02281 259.200035 
L 126.302149 256.780837 
L 129.581488 254.361639 
L 132.860826 251.942442 
L 136.140165 249.523244 
L 139.419504 247.104046 
L 142.698843 244.684848 
L 145.978182 242.265651 
L 149.257521 239.846453 
L 152.53686 237.427255 
L 155.816198 235.008058 
L 159.095537 232.58886 
L 162.374876 230.169662 
L 165.654215 227.750465 
L 168.933554 225.331267 
L 172.212893 222.912069 
L 175.492231 220.492872 
L 178.77157 218.073674 
L 182.050909 215.654476 
L 185.330248 213.235278 
L 188.609587 210.816081 
L 191.888926 208.396883 
L 195.168264 205.977685 
L 198.447603 203.558488 
L 201.726942 201.13929 
L 205.006281 198.720092 
L 208.28562 196.300895 
L 211.564959 193.881697 
L 214.844298 191.462499 
L 218.123636 189.043302 
L 221.402975 186.624104 
L 224.682314 184.204906 
L 227.961653 181.785708 
L 231.240992 179.366511 
L 234.520331 176.947313 
L 237.799669 174.528115 
L 241.079008 172.108918 
L 244.358347 169.68972 
L 247.637686 167.270522 
L 250.917025 164.851325 
L 254.196364 162.432127 
L 257.475702 160.012929 
L 260.755041 157.593732 
L 264.03438 155.174534 
L 267.313719 152.755336 
L 270.593058 150.336138 
L 273.872397 147.916941 
L 277.151736 145.497743 
L 280.431074 143.078545 
L 283.710413 140.659348 
L 286.989752 138.24015 
L 290.269091 135.820952 
L 293.54843 133.401755 
L 296.827769 130.982557 
L 300.107107 128.563359 
L 303.386446 126.144161 
L 306.665785 123.724964 
L 309.945124 121.305766 
L 313.224463 118.886568 
L 316.503802 116.467371 
L 319.78314 114.048173 
L 323.062479 111.628975 
L 326.341818 109.209778 
L 329.621157 106.79058 
L 332.900496 104.371382 
L 336.179835 101.952185 
L 339.459174 99.532987 
L 342.738512 97.113789 
L 346.017851 94.694591 
L 349.29719 92.275394 
L 352.576529 89.856196 
L 355.855868 87.436998 
L 359.135207 85.017801 
L 362.414545 82.598603 
L 365.693884 80.179405 
L 368.973223 77.760208 
L 372.252562 75.34101 
L 375.531901 72.921812 
L 378.81124 70.502615 
L 382.090579 68.083417 
L 385.369917 65.664219 
L 388.649256 63.245021 
L 391.928595 60.825824 
L 395.207934 58.406626 
L 398.487273 55.987428 
" clip-path="url(#p450c5825dd)" style="fill: none; stroke-dasharray: 5.55,2.4; stroke-dashoffset: 0; stroke: #808080; stroke-width: 1.5"/>
   </g>
   <g id="LineCollection_1">
    <path d="M 172.212986 295.488 
L 172.212986 53.568 
" clip-path="url(#p450c5825dd)" style="fill: none; stroke-dasharray: 5.55,2.4; stroke-dashoffset: 0; stroke: #008000; stroke-width: 1.5"/>
    <path d="M 303.386665 295.488 
L 303.386665 53.568 
" clip-path="url(#p450c5825dd)" style="fill: none; stroke-dasharray: 5.55,2.4; stroke-dashoffset: 0; stroke: #008000; stroke-width: 1.5"/>
   </g>
   <g id="patch_3">
    <path d="M 57.6 307.584 
L 57.6 41.472 
" style="fill: none; stroke: #ffffff; stroke-width: 0.8; stroke-linejoin: miter; stroke-linecap: square"/>
   </g>
   <g id="patch_4">
    <path d="M 414.72 307.584 
L 414.72 41.472 
" style="fill: none; stroke: #ffffff; stroke-width: 0.8; stroke-linejoin: miter; stroke-linecap: square"/>
   </g>
   <g id="patch_5">
    <path d="M 57.6 307.584 
L 414.72 307.584 
" style="fill: none; stroke: #ffffff; stroke-width: 0.8; stroke-linejoin: miter; stroke-linecap: square"/>
   </g>
   <g id="patch_6">
    <path d="M 57.6 41.472 
L 414.72 41.472 
" style="fill: none; stroke: #ffffff; stroke-width: 0.8; stroke-linejoin: miter; stroke-linecap: square"/>
   </g>
   <g id="text_13">
    <!-- $\sigma^2=1, n=5$ -->
    <g style="fill: #262626" transform="translate(199.98 35.472) scale(0.12 -0.12)">
     <defs>
      <path id="DejaVuSans-Oblique-3c3" d="M 2219 3044 
Q 1744 3044 1422 2700 
Q 1081 2341 969 1747 
Q 844 1119 1044 756 
Q 1241 397 1706 397 
Q 2166 397 2503 759 
Q 2844 1122 2966 1747 
Q 3075 2319 2881 2700 
Q 2700 3044 2219 3044 
z
M 2309 3503 
L 4219 3500 
L 4106 2925 
L 3463 2925 
Q 3706 2438 3575 1747 
Q 3406 888 2884 400 
Q 2359 -91 1609 -91 
Q 856 -91 525 400 
Q 194 888 363 1747 
Q 528 2609 1050 3097 
Q 1484 3503 2309 3503 
z
" transform="scale(0.015625)"/>
      <path id="DejaVuSans-32" d="M 1228 531 
L 3431 531 
L 3431 0 
L 469 0 
L 469 531 
Q 828 903 1448 1529 
Q 2069 2156 2228 2338 
Q 2531 2678 2651 2914 
Q 2772 3150 2772 3378 
Q 2772 3750 2511 3984 
Q 2250 4219 1831 4219 
Q 1534 4219 1204 4116 
Q 875 4013 500 3803 
L 500 4441 
Q 881 4594 1212 4672 
Q 1544 4750 1819 4750 
Q 2544 4750 2975 4387 
Q 3406 4025 3406 3419 
Q 3406 3131 3298 2873 
Q 3191 2616 2906 2266 
Q 2828 2175 2409 1742 
Q 1991 1309 1228 531 
z
" transform="scale(0.015625)"/>
      <path id="DejaVuSans-3d" d="M 678 2906 
L 4684 2906 
L 4684 2381 
L 678 2381 
L 678 2906 
z
M 678 1631 
L 4684 1631 
L 4684 1100 
L 678 1100 
L 678 1631 
z
" transform="scale(0.015625)"/>
      <path id="DejaVuSans-31" d="M 794 531 
L 1825 531 
L 1825 4091 
L 703 3866 
L 703 4441 
L 1819 4666 
L 2450 4666 
L 2450 531 
L 3481 531 
L 3481 0 
L 794 0 
L 794 531 
z
" transform="scale(0.015625)"/>
      <path id="DejaVuSans-2c" d="M 750 794 
L 1409 794 
L 1409 256 
L 897 -744 
L 494 -744 
L 750 256 
L 750 794 
z
" transform="scale(0.015625)"/>
      <path id="DejaVuSans-35" d="M 691 4666 
L 3169 4666 
L 3169 4134 
L 1269 4134 
L 1269 2991 
Q 1406 3038 1543 3061 
Q 1681 3084 1819 3084 
Q 2600 3084 3056 2656 
Q 3513 2228 3513 1497 
Q 3513 744 3044 326 
Q 2575 -91 1722 -91 
Q 1428 -91 1123 -41 
Q 819 9 494 109 
L 494 744 
Q 775 591 1075 516 
Q 1375 441 1709 441 
Q 2250 441 2565 725 
Q 2881 1009 2881 1497 
Q 2881 1984 2565 2268 
Q 2250 2553 1709 2553 
Q 1456 2553 1204 2497 
Q 953 2441 691 2322 
L 691 4666 
z
" transform="scale(0.015625)"/>
     </defs>
     <use xlink:href="#DejaVuSans-Oblique-3c3" transform="translate(0 0.765625)"/>
     <use xlink:href="#DejaVuSans-32" transform="translate(67.851615 39.046875) scale(0.7)"/>
     <use xlink:href="#DejaVuSans-3d" transform="translate(134.604544 0.765625)"/>
     <use xlink:href="#DejaVuSans-31" transform="translate(237.876029 0.765625)"/>
     <use xlink:href="#DejaVuSans-2c" transform="translate(301.499076 0.765625)"/>
     <use xlink:href="#DejaVuSans-Oblique-6e" transform="translate(352.768607 0.765625)"/>
     <use xlink:href="#DejaVuSans-3d" transform="translate(435.629935 0.765625)"/>
     <use xlink:href="#DejaVuSans-35" transform="translate(538.901419 0.765625)"/>
    </g>
   </g>
   <g id="legend_1">
    <g id="patch_7">
     <path d="M 297.42 302.584 
L 407.72 302.584 
Q 409.72 302.584 409.72 300.584 
L 409.72 230.248062 
Q 409.72 228.248062 407.72 228.248062 
L 297.42 228.248062 
Q 295.42 228.248062 295.42 230.248062 
L 295.42 300.584 
Q 295.42 302.584 297.42 302.584 
z
" style="fill: #eaeaf2; opacity: 0.8; stroke: #cccccc; stroke-linejoin: miter"/>
    </g>
    <g id="line2d_13">
     <path d="M 299.42 236.160562 
L 309.42 236.160562 
L 319.42 236.160562 
" style="fill: none; stroke: #0000ff; stroke-width: 1.5; stroke-linecap: round"/>
    </g>
    <g id="text_14">
     <!-- $E[x_{next}]$ -->
     <g style="fill: #262626" transform="translate(327.42 239.660562) scale(0.1 -0.1)">
      <defs>
       <path id="DejaVuSans-Oblique-45" d="M 1081 4666 
L 4031 4666 
L 3928 4134 
L 1606 4134 
L 1338 2753 
L 3566 2753 
L 3463 2222 
L 1234 2222 
L 909 531 
L 3284 531 
L 3181 0 
L 172 0 
L 1081 4666 
z
" transform="scale(0.015625)"/>
       <path id="DejaVuSans-5b" d="M 550 4863 
L 1875 4863 
L 1875 4416 
L 1125 4416 
L 1125 -397 
L 1875 -397 
L 1875 -844 
L 550 -844 
L 550 4863 
z
" transform="scale(0.015625)"/>
       <path id="DejaVuSans-5d" d="M 1947 4863 
L 1947 -844 
L 622 -844 
L 622 -397 
L 1369 -397 
L 1369 4416 
L 622 4416 
L 622 4863 
L 1947 4863 
z
" transform="scale(0.015625)"/>
      </defs>
      <use xlink:href="#DejaVuSans-Oblique-45" transform="translate(0 0.015625)"/>
      <use xlink:href="#DejaVuSans-5b" transform="translate(63.183594 0.015625)"/>
      <use xlink:href="#DejaVuSans-Oblique-78" transform="translate(102.197266 0.015625)"/>
      <use xlink:href="#DejaVuSans-Oblique-6e" transform="translate(161.376953 -16.390625) scale(0.7)"/>
      <use xlink:href="#DejaVuSans-Oblique-65" transform="translate(205.742188 -16.390625) scale(0.7)"/>
      <use xlink:href="#DejaVuSans-Oblique-78" transform="translate(248.808594 -16.390625) scale(0.7)"/>
      <use xlink:href="#DejaVuSans-Oblique-74" transform="translate(290.234375 -16.390625) scale(0.7)"/>
      <use xlink:href="#DejaVuSans-5d" transform="translate(320.415039 0.015625)"/>
     </g>
    </g>
    <g id="patch_8">
     <path d="M 299.42 253.805875 
L 319.42 253.805875 
L 319.42 246.805875 
L 299.42 246.805875 
z
" style="fill: #0000ff; fill-opacity: 0.5; stroke: #0000ff; stroke-opacity: 0.5; stroke-linejoin: miter"/>
    </g>
    <g id="text_15">
     <!-- 50% CI -->
     <g style="fill: #262626" transform="translate(327.42 253.805875) scale(0.1 -0.1)">
      <defs>
       <path id="ArialMT-35" d="M 266 1200 
L 856 1250 
Q 922 819 1161 601 
Q 1400 384 1738 384 
Q 2144 384 2425 690 
Q 2706 997 2706 1503 
Q 2706 1984 2436 2262 
Q 2166 2541 1728 2541 
Q 1456 2541 1237 2417 
Q 1019 2294 894 2097 
L 366 2166 
L 809 4519 
L 3088 4519 
L 3088 3981 
L 1259 3981 
L 1013 2750 
Q 1425 3038 1878 3038 
Q 2478 3038 2890 2622 
Q 3303 2206 3303 1553 
Q 3303 931 2941 478 
Q 2500 -78 1738 -78 
Q 1113 -78 717 272 
Q 322 622 266 1200 
z
" transform="scale(0.015625)"/>
       <path id="ArialMT-25" d="M 372 3481 
Q 372 3972 619 4315 
Q 866 4659 1334 4659 
Q 1766 4659 2048 4351 
Q 2331 4044 2331 3447 
Q 2331 2866 2045 2552 
Q 1759 2238 1341 2238 
Q 925 2238 648 2547 
Q 372 2856 372 3481 
z
M 1350 4272 
Q 1141 4272 1002 4090 
Q 863 3909 863 3425 
Q 863 2984 1003 2804 
Q 1144 2625 1350 2625 
Q 1563 2625 1702 2806 
Q 1841 2988 1841 3469 
Q 1841 3913 1700 4092 
Q 1559 4272 1350 4272 
z
M 1353 -169 
L 3859 4659 
L 4316 4659 
L 1819 -169 
L 1353 -169 
z
M 3334 1075 
Q 3334 1569 3581 1911 
Q 3828 2253 4300 2253 
Q 4731 2253 5014 1945 
Q 5297 1638 5297 1041 
Q 5297 459 5011 145 
Q 4725 -169 4303 -169 
Q 3888 -169 3611 142 
Q 3334 453 3334 1075 
z
M 4316 1866 
Q 4103 1866 3964 1684 
Q 3825 1503 3825 1019 
Q 3825 581 3965 400 
Q 4106 219 4313 219 
Q 4528 219 4667 400 
Q 4806 581 4806 1063 
Q 4806 1506 4665 1686 
Q 4525 1866 4316 1866 
z
" transform="scale(0.015625)"/>
       <path id="ArialMT-20" transform="scale(0.015625)"/>
       <path id="ArialMT-43" d="M 3763 1606 
L 4369 1453 
Q 4178 706 3683 314 
Q 3188 -78 2472 -78 
Q 1731 -78 1267 223 
Q 803 525 561 1097 
Q 319 1669 319 2325 
Q 319 3041 592 3573 
Q 866 4106 1370 4382 
Q 1875 4659 2481 4659 
Q 3169 4659 3637 4309 
Q 4106 3959 4291 3325 
L 3694 3184 
Q 3534 3684 3231 3912 
Q 2928 4141 2469 4141 
Q 1941 4141 1586 3887 
Q 1231 3634 1087 3207 
Q 944 2781 944 2328 
Q 944 1744 1114 1308 
Q 1284 872 1643 656 
Q 2003 441 2422 441 
Q 2931 441 3284 734 
Q 3638 1028 3763 1606 
z
" transform="scale(0.015625)"/>
       <path id="ArialMT-49" d="M 597 0 
L 597 4581 
L 1203 4581 
L 1203 0 
L 597 0 
z
" transform="scale(0.015625)"/>
      </defs>
      <use xlink:href="#ArialMT-35"/>
      <use xlink:href="#ArialMT-30" transform="translate(55.615234 0)"/>
      <use xlink:href="#ArialMT-25" transform="translate(111.230469 0)"/>
      <use xlink:href="#ArialMT-20" transform="translate(200.146484 0)"/>
      <use xlink:href="#ArialMT-43" transform="translate(227.929688 0)"/>
      <use xlink:href="#ArialMT-49" transform="translate(300.146484 0)"/>
     </g>
    </g>
    <g id="patch_9">
     <path d="M 299.42 267.951187 
L 319.42 267.951187 
L 319.42 260.951187 
L 299.42 260.951187 
z
" style="fill: #0000ff; fill-opacity: 0.3; stroke: #0000ff; stroke-opacity: 0.3; stroke-linejoin: miter"/>
    </g>
    <g id="text_16">
     <!-- 90% CI -->
     <g style="fill: #262626" transform="translate(327.42 267.951187) scale(0.1 -0.1)">
      <defs>
       <path id="ArialMT-39" d="M 350 1059 
L 891 1109 
Q 959 728 1153 556 
Q 1347 384 1650 384 
Q 1909 384 2104 503 
Q 2300 622 2425 820 
Q 2550 1019 2634 1356 
Q 2719 1694 2719 2044 
Q 2719 2081 2716 2156 
Q 2547 1888 2255 1720 
Q 1963 1553 1622 1553 
Q 1053 1553 659 1965 
Q 266 2378 266 3053 
Q 266 3750 677 4175 
Q 1088 4600 1706 4600 
Q 2153 4600 2523 4359 
Q 2894 4119 3086 3673 
Q 3278 3228 3278 2384 
Q 3278 1506 3087 986 
Q 2897 466 2520 194 
Q 2144 -78 1638 -78 
Q 1100 -78 759 220 
Q 419 519 350 1059 
z
M 2653 3081 
Q 2653 3566 2395 3850 
Q 2138 4134 1775 4134 
Q 1400 4134 1122 3828 
Q 844 3522 844 3034 
Q 844 2597 1108 2323 
Q 1372 2050 1759 2050 
Q 2150 2050 2401 2323 
Q 2653 2597 2653 3081 
z
" transform="scale(0.015625)"/>
      </defs>
      <use xlink:href="#ArialMT-39"/>
      <use xlink:href="#ArialMT-30" transform="translate(55.615234 0)"/>
      <use xlink:href="#ArialMT-25" transform="translate(111.230469 0)"/>
      <use xlink:href="#ArialMT-20" transform="translate(200.146484 0)"/>
      <use xlink:href="#ArialMT-43" transform="translate(227.929688 0)"/>
      <use xlink:href="#ArialMT-49" transform="translate(300.146484 0)"/>
     </g>
    </g>
    <g id="line2d_14">
     <path d="M 299.42 278.5965 
L 309.42 278.5965 
L 319.42 278.5965 
" style="fill: none; stroke-dasharray: 5.55,2.4; stroke-dashoffset: 0; stroke: #808080; stroke-width: 1.5"/>
    </g>
    <g id="text_17">
     <!-- x=x_next -->
     <g style="fill: #262626" transform="translate(327.42 282.0965) scale(0.1 -0.1)">
      <defs>
       <path id="ArialMT-78" d="M 47 0 
L 1259 1725 
L 138 3319 
L 841 3319 
L 1350 2541 
Q 1494 2319 1581 2169 
Q 1719 2375 1834 2534 
L 2394 3319 
L 3066 3319 
L 1919 1756 
L 3153 0 
L 2463 0 
L 1781 1031 
L 1600 1309 
L 728 0 
L 47 0 
z
" transform="scale(0.015625)"/>
       <path id="ArialMT-3d" d="M 3381 2694 
L 356 2694 
L 356 3219 
L 3381 3219 
L 3381 2694 
z
M 3381 1303 
L 356 1303 
L 356 1828 
L 3381 1828 
L 3381 1303 
z
" transform="scale(0.015625)"/>
       <path id="ArialMT-5f" d="M -97 -1272 
L -97 -866 
L 3631 -866 
L 3631 -1272 
L -97 -1272 
z
" transform="scale(0.015625)"/>
       <path id="ArialMT-6e" d="M 422 0 
L 422 3319 
L 928 3319 
L 928 2847 
Q 1294 3394 1984 3394 
Q 2284 3394 2536 3286 
Q 2788 3178 2913 3003 
Q 3038 2828 3088 2588 
Q 3119 2431 3119 2041 
L 3119 0 
L 2556 0 
L 2556 2019 
Q 2556 2363 2490 2533 
Q 2425 2703 2258 2804 
Q 2091 2906 1866 2906 
Q 1506 2906 1245 2678 
Q 984 2450 984 1813 
L 984 0 
L 422 0 
z
" transform="scale(0.015625)"/>
       <path id="ArialMT-65" d="M 2694 1069 
L 3275 997 
Q 3138 488 2766 206 
Q 2394 -75 1816 -75 
Q 1088 -75 661 373 
Q 234 822 234 1631 
Q 234 2469 665 2931 
Q 1097 3394 1784 3394 
Q 2450 3394 2872 2941 
Q 3294 2488 3294 1666 
Q 3294 1616 3291 1516 
L 816 1516 
Q 847 969 1125 678 
Q 1403 388 1819 388 
Q 2128 388 2347 550 
Q 2566 713 2694 1069 
z
M 847 1978 
L 2700 1978 
Q 2663 2397 2488 2606 
Q 2219 2931 1791 2931 
Q 1403 2931 1139 2672 
Q 875 2413 847 1978 
z
" transform="scale(0.015625)"/>
       <path id="ArialMT-74" d="M 1650 503 
L 1731 6 
Q 1494 -44 1306 -44 
Q 1000 -44 831 53 
Q 663 150 594 308 
Q 525 466 525 972 
L 525 2881 
L 113 2881 
L 113 3319 
L 525 3319 
L 525 4141 
L 1084 4478 
L 1084 3319 
L 1650 3319 
L 1650 2881 
L 1084 2881 
L 1084 941 
Q 1084 700 1114 631 
Q 1144 563 1211 522 
Q 1278 481 1403 481 
Q 1497 481 1650 503 
z
" transform="scale(0.015625)"/>
      </defs>
      <use xlink:href="#ArialMT-78"/>
      <use xlink:href="#ArialMT-3d" transform="translate(50 0)"/>
      <use xlink:href="#ArialMT-78" transform="translate(108.398438 0)"/>
      <use xlink:href="#ArialMT-5f" transform="translate(158.398438 0)"/>
      <use xlink:href="#ArialMT-6e" transform="translate(214.013672 0)"/>
      <use xlink:href="#ArialMT-65" transform="translate(269.628906 0)"/>
      <use xlink:href="#ArialMT-78" transform="translate(325.244141 0)"/>
      <use xlink:href="#ArialMT-74" transform="translate(375.244141 0)"/>
     </g>
    </g>
    <g id="line2d_15">
     <path d="M 299.42 292.884 
L 319.42 292.884 
" style="fill: none; stroke-dasharray: 5.55,2.4; stroke-dashoffset: 0; stroke: #008000; stroke-width: 1.5"/>
    </g>
    <g id="text_18">
     <!-- modes of target $\pi$ -->
     <g style="fill: #262626" transform="translate(327.42 296.384) scale(0.1 -0.1)">
      <defs>
       <path id="ArialMT-6d" d="M 422 0 
L 422 3319 
L 925 3319 
L 925 2853 
Q 1081 3097 1340 3245 
Q 1600 3394 1931 3394 
Q 2300 3394 2536 3241 
Q 2772 3088 2869 2813 
Q 3263 3394 3894 3394 
Q 4388 3394 4653 3120 
Q 4919 2847 4919 2278 
L 4919 0 
L 4359 0 
L 4359 2091 
Q 4359 2428 4304 2576 
Q 4250 2725 4106 2815 
Q 3963 2906 3769 2906 
Q 3419 2906 3187 2673 
Q 2956 2441 2956 1928 
L 2956 0 
L 2394 0 
L 2394 2156 
Q 2394 2531 2256 2718 
Q 2119 2906 1806 2906 
Q 1569 2906 1367 2781 
Q 1166 2656 1075 2415 
Q 984 2175 984 1722 
L 984 0 
L 422 0 
z
" transform="scale(0.015625)"/>
       <path id="ArialMT-6f" d="M 213 1659 
Q 213 2581 725 3025 
Q 1153 3394 1769 3394 
Q 2453 3394 2887 2945 
Q 3322 2497 3322 1706 
Q 3322 1066 3130 698 
Q 2938 331 2570 128 
Q 2203 -75 1769 -75 
Q 1072 -75 642 372 
Q 213 819 213 1659 
z
M 791 1659 
Q 791 1022 1069 705 
Q 1347 388 1769 388 
Q 2188 388 2466 706 
Q 2744 1025 2744 1678 
Q 2744 2294 2464 2611 
Q 2184 2928 1769 2928 
Q 1347 2928 1069 2612 
Q 791 2297 791 1659 
z
" transform="scale(0.015625)"/>
       <path id="ArialMT-64" d="M 2575 0 
L 2575 419 
Q 2259 -75 1647 -75 
Q 1250 -75 917 144 
Q 584 363 401 755 
Q 219 1147 219 1656 
Q 219 2153 384 2558 
Q 550 2963 881 3178 
Q 1213 3394 1622 3394 
Q 1922 3394 2156 3267 
Q 2391 3141 2538 2938 
L 2538 4581 
L 3097 4581 
L 3097 0 
L 2575 0 
z
M 797 1656 
Q 797 1019 1065 703 
Q 1334 388 1700 388 
Q 2069 388 2326 689 
Q 2584 991 2584 1609 
Q 2584 2291 2321 2609 
Q 2059 2928 1675 2928 
Q 1300 2928 1048 2622 
Q 797 2316 797 1656 
z
" transform="scale(0.015625)"/>
       <path id="ArialMT-73" d="M 197 991 
L 753 1078 
Q 800 744 1014 566 
Q 1228 388 1613 388 
Q 2000 388 2187 545 
Q 2375 703 2375 916 
Q 2375 1106 2209 1216 
Q 2094 1291 1634 1406 
Q 1016 1563 777 1677 
Q 538 1791 414 1992 
Q 291 2194 291 2438 
Q 291 2659 392 2848 
Q 494 3038 669 3163 
Q 800 3259 1026 3326 
Q 1253 3394 1513 3394 
Q 1903 3394 2198 3281 
Q 2494 3169 2634 2976 
Q 2775 2784 2828 2463 
L 2278 2388 
Q 2241 2644 2061 2787 
Q 1881 2931 1553 2931 
Q 1166 2931 1000 2803 
Q 834 2675 834 2503 
Q 834 2394 903 2306 
Q 972 2216 1119 2156 
Q 1203 2125 1616 2013 
Q 2213 1853 2448 1751 
Q 2684 1650 2818 1456 
Q 2953 1263 2953 975 
Q 2953 694 2789 445 
Q 2625 197 2315 61 
Q 2006 -75 1616 -75 
Q 969 -75 630 194 
Q 291 463 197 991 
z
" transform="scale(0.015625)"/>
       <path id="ArialMT-66" d="M 556 0 
L 556 2881 
L 59 2881 
L 59 3319 
L 556 3319 
L 556 3672 
Q 556 4006 616 4169 
Q 697 4388 901 4523 
Q 1106 4659 1475 4659 
Q 1713 4659 2000 4603 
L 1916 4113 
Q 1741 4144 1584 4144 
Q 1328 4144 1222 4034 
Q 1116 3925 1116 3625 
L 1116 3319 
L 1763 3319 
L 1763 2881 
L 1116 2881 
L 1116 0 
L 556 0 
z
" transform="scale(0.015625)"/>
       <path id="ArialMT-61" d="M 2588 409 
Q 2275 144 1986 34 
Q 1697 -75 1366 -75 
Q 819 -75 525 192 
Q 231 459 231 875 
Q 231 1119 342 1320 
Q 453 1522 633 1644 
Q 813 1766 1038 1828 
Q 1203 1872 1538 1913 
Q 2219 1994 2541 2106 
Q 2544 2222 2544 2253 
Q 2544 2597 2384 2738 
Q 2169 2928 1744 2928 
Q 1347 2928 1158 2789 
Q 969 2650 878 2297 
L 328 2372 
Q 403 2725 575 2942 
Q 747 3159 1072 3276 
Q 1397 3394 1825 3394 
Q 2250 3394 2515 3294 
Q 2781 3194 2906 3042 
Q 3031 2891 3081 2659 
Q 3109 2516 3109 2141 
L 3109 1391 
Q 3109 606 3145 398 
Q 3181 191 3288 0 
L 2700 0 
Q 2613 175 2588 409 
z
M 2541 1666 
Q 2234 1541 1622 1453 
Q 1275 1403 1131 1340 
Q 988 1278 909 1158 
Q 831 1038 831 891 
Q 831 666 1001 516 
Q 1172 366 1500 366 
Q 1825 366 2078 508 
Q 2331 650 2450 897 
Q 2541 1088 2541 1459 
L 2541 1666 
z
" transform="scale(0.015625)"/>
       <path id="ArialMT-72" d="M 416 0 
L 416 3319 
L 922 3319 
L 922 2816 
Q 1116 3169 1280 3281 
Q 1444 3394 1641 3394 
Q 1925 3394 2219 3213 
L 2025 2691 
Q 1819 2813 1613 2813 
Q 1428 2813 1281 2702 
Q 1134 2591 1072 2394 
Q 978 2094 978 1738 
L 978 0 
L 416 0 
z
" transform="scale(0.015625)"/>
       <path id="ArialMT-67" d="M 319 -275 
L 866 -356 
Q 900 -609 1056 -725 
Q 1266 -881 1628 -881 
Q 2019 -881 2231 -725 
Q 2444 -569 2519 -288 
Q 2563 -116 2559 434 
Q 2191 0 1641 0 
Q 956 0 581 494 
Q 206 988 206 1678 
Q 206 2153 378 2554 
Q 550 2956 876 3175 
Q 1203 3394 1644 3394 
Q 2231 3394 2613 2919 
L 2613 3319 
L 3131 3319 
L 3131 450 
Q 3131 -325 2973 -648 
Q 2816 -972 2473 -1159 
Q 2131 -1347 1631 -1347 
Q 1038 -1347 672 -1080 
Q 306 -813 319 -275 
z
M 784 1719 
Q 784 1066 1043 766 
Q 1303 466 1694 466 
Q 2081 466 2343 764 
Q 2606 1063 2606 1700 
Q 2606 2309 2336 2618 
Q 2066 2928 1684 2928 
Q 1309 2928 1046 2623 
Q 784 2319 784 1719 
z
" transform="scale(0.015625)"/>
       <path id="DejaVuSans-Oblique-3c0" d="M 584 3500 
L 3938 3500 
L 3825 2925 
L 3384 2925 
L 2966 775 
Q 2922 550 2981 450 
Q 3038 353 3209 353 
Q 3256 353 3325 363 
Q 3397 369 3419 372 
L 3338 -44 
Q 3222 -84 3103 -103 
Q 2981 -122 2866 -122 
Q 2491 -122 2388 81 
Q 2284 288 2391 838 
L 2797 2925 
L 1506 2925 
L 938 0 
L 350 0 
L 919 2925 
L 472 2925 
L 584 3500 
z
" transform="scale(0.015625)"/>
      </defs>
      <use xlink:href="#ArialMT-6d" transform="translate(0 0.203125)"/>
      <use xlink:href="#ArialMT-6f" transform="translate(83.300781 0.203125)"/>
      <use xlink:href="#ArialMT-64" transform="translate(138.916016 0.203125)"/>
      <use xlink:href="#ArialMT-65" transform="translate(194.53125 0.203125)"/>
      <use xlink:href="#ArialMT-73" transform="translate(250.146484 0.203125)"/>
      <use xlink:href="#ArialMT-20" transform="translate(300.146484 0.203125)"/>
      <use xlink:href="#ArialMT-6f" transform="translate(327.929688 0.203125)"/>
      <use xlink:href="#ArialMT-66" transform="translate(383.544922 0.203125)"/>
      <use xlink:href="#ArialMT-20" transform="translate(411.328125 0.203125)"/>
      <use xlink:href="#ArialMT-74" transform="translate(439.111328 0.203125)"/>
      <use xlink:href="#ArialMT-61" transform="translate(466.894531 0.203125)"/>
      <use xlink:href="#ArialMT-72" transform="translate(522.509766 0.203125)"/>
      <use xlink:href="#ArialMT-67" transform="translate(555.810547 0.203125)"/>
      <use xlink:href="#ArialMT-65" transform="translate(611.425781 0.203125)"/>
      <use xlink:href="#ArialMT-74" transform="translate(667.041016 0.203125)"/>
      <use xlink:href="#ArialMT-20" transform="translate(694.824219 0.203125)"/>
      <use xlink:href="#DejaVuSans-Oblique-3c0" transform="translate(722.607422 0.203125)"/>
     </g>
    </g>
   </g>
  </g>
 </g>
 <defs>
  <clipPath id="p450c5825dd">
   <rect x="57.6" y="41.472" width="357.12" height="266.112"/>
  </clipPath>
 </defs>
</svg>
