<?xml version="1.0" encoding="utf-8" standalone="no"?>
<!DOCTYPE svg PUBLIC "-//W3C//DTD SVG 1.1//EN"
  "http://www.w3.org/Graphics/SVG/1.1/DTD/svg11.dtd">
<svg xmlns:xlink="http://www.w3.org/1999/xlink" width="460.8pt" height="345.6pt" viewBox="0 0 460.8 345.6" xmlns="http://www.w3.org/2000/svg" version="1.1">
 <metadata>
  <rdf:RDF xmlns:dc="http://purl.org/dc/elements/1.1/" xmlns:cc="http://creativecommons.org/ns#" xmlns:rdf="http://www.w3.org/1999/02/22-rdf-syntax-ns#">
   <cc:Work>
    <dc:type rdf:resource="http://purl.org/dc/dcmitype/StillImage"/>
    <dc:date>2025-04-11T14:15:48.113002</dc:date>
    <dc:format>image/svg+xml</dc:format>
    <dc:creator>
     <cc:Agent>
      <dc:title>Matplotlib v3.10.1, https://matplotlib.org/</dc:title>
     </cc:Agent>
    </dc:creator>
   </cc:Work>
  </rdf:RDF>
 </metadata>
 <defs>
  <style type="text/css">*{stroke-linejoin: round; stroke-linecap: butt}</style>
 </defs>
 <g id="figure_1">
  <g id="patch_1">
   <path d="M 0 345.6 
L 460.8 345.6 
L 460.8 0 
L 0 0 
z
" style="fill: #ffffff"/>
  </g>
  <g id="axes_1">
   <g id="patch_2">
    <path d="M 57.6 307.584 
L 414.72 307.584 
L 414.72 41.472 
L 57.6 41.472 
z
" style="fill: #eaeaf2"/>
   </g>
   <g id="matplotlib.axis_1">
    <g id="xtick_1">
     <g id="line2d_1">
      <path d="M 106.298182 307.584 
L 106.298182 41.472 
" clip-path="url(#p0bc91fc647)" style="fill: none; stroke: #ffffff; stroke-width: 0.8; stroke-linecap: round"/>
     </g>
     <g id="text_1">
      <!-- −2 -->
      <g style="fill: #262626" transform="translate(100.597401 321.741812) scale(0.1 -0.1)">
       <defs>
        <path id="ArialMT-2212" d="M 3381 1997 
L 356 1997 
L 356 2522 
L 3381 2522 
L 3381 1997 
z
" transform="scale(0.015625)"/>
        <path id="ArialMT-32" d="M 3222 541 
L 3222 0 
L 194 0 
Q 188 203 259 391 
Q 375 700 629 1000 
Q 884 1300 1366 1694 
Q 2113 2306 2375 2664 
Q 2638 3022 2638 3341 
Q 2638 3675 2398 3904 
Q 2159 4134 1775 4134 
Q 1369 4134 1125 3890 
Q 881 3647 878 3216 
L 300 3275 
Q 359 3922 746 4261 
Q 1134 4600 1788 4600 
Q 2447 4600 2831 4234 
Q 3216 3869 3216 3328 
Q 3216 3053 3103 2787 
Q 2991 2522 2730 2228 
Q 2469 1934 1863 1422 
Q 1356 997 1212 845 
Q 1069 694 975 541 
L 3222 541 
z
" transform="scale(0.015625)"/>
       </defs>
       <use xlink:href="#ArialMT-2212"/>
       <use xlink:href="#ArialMT-32" transform="translate(58.398438 0)"/>
      </g>
     </g>
    </g>
    <g id="xtick_2">
     <g id="line2d_2">
      <path d="M 171.229091 307.584 
L 171.229091 41.472 
" clip-path="url(#p0bc91fc647)" style="fill: none; stroke: #ffffff; stroke-width: 0.8; stroke-linecap: round"/>
     </g>
     <g id="text_2">
      <!-- −1 -->
      <g style="fill: #262626" transform="translate(165.52831 321.741812) scale(0.1 -0.1)">
       <defs>
        <path id="ArialMT-31" d="M 2384 0 
L 1822 0 
L 1822 3584 
Q 1619 3391 1289 3197 
Q 959 3003 697 2906 
L 697 3450 
Q 1169 3672 1522 3987 
Q 1875 4303 2022 4600 
L 2384 4600 
L 2384 0 
z
" transform="scale(0.015625)"/>
       </defs>
       <use xlink:href="#ArialMT-2212"/>
       <use xlink:href="#ArialMT-31" transform="translate(58.398438 0)"/>
      </g>
     </g>
    </g>
    <g id="xtick_3">
     <g id="line2d_3">
      <path d="M 236.16 307.584 
L 236.16 41.472 
" clip-path="url(#p0bc91fc647)" style="fill: none; stroke: #ffffff; stroke-width: 0.8; stroke-linecap: round"/>
     </g>
     <g id="text_3">
      <!-- 0 -->
      <g style="fill: #262626" transform="translate(233.379531 321.741812) scale(0.1 -0.1)">
       <defs>
        <path id="ArialMT-30" d="M 266 2259 
Q 266 3072 433 3567 
Q 600 4063 929 4331 
Q 1259 4600 1759 4600 
Q 2128 4600 2406 4451 
Q 2684 4303 2865 4023 
Q 3047 3744 3150 3342 
Q 3253 2941 3253 2259 
Q 3253 1453 3087 958 
Q 2922 463 2592 192 
Q 2263 -78 1759 -78 
Q 1097 -78 719 397 
Q 266 969 266 2259 
z
M 844 2259 
Q 844 1131 1108 757 
Q 1372 384 1759 384 
Q 2147 384 2411 759 
Q 2675 1134 2675 2259 
Q 2675 3391 2411 3762 
Q 2147 4134 1753 4134 
Q 1366 4134 1134 3806 
Q 844 3388 844 2259 
z
" transform="scale(0.015625)"/>
       </defs>
       <use xlink:href="#ArialMT-30"/>
      </g>
     </g>
    </g>
    <g id="xtick_4">
     <g id="line2d_4">
      <path d="M 301.090909 307.584 
L 301.090909 41.472 
" clip-path="url(#p0bc91fc647)" style="fill: none; stroke: #ffffff; stroke-width: 0.8; stroke-linecap: round"/>
     </g>
     <g id="text_4">
      <!-- 1 -->
      <g style="fill: #262626" transform="translate(298.31044 321.741812) scale(0.1 -0.1)">
       <use xlink:href="#ArialMT-31"/>
      </g>
     </g>
    </g>
    <g id="xtick_5">
     <g id="line2d_5">
      <path d="M 366.021818 307.584 
L 366.021818 41.472 
" clip-path="url(#p0bc91fc647)" style="fill: none; stroke: #ffffff; stroke-width: 0.8; stroke-linecap: round"/>
     </g>
     <g id="text_5">
      <!-- 2 -->
      <g style="fill: #262626" transform="translate(363.241349 321.741812) scale(0.1 -0.1)">
       <use xlink:href="#ArialMT-32"/>
      </g>
     </g>
    </g>
    <g id="text_6">
     <!-- x -->
     <g style="fill: #262626" transform="translate(233.66 334.887125) scale(0.1 -0.1)">
      <defs>
       <path id="ArialMT-78" d="M 47 0 
L 1259 1725 
L 138 3319 
L 841 3319 
L 1350 2541 
Q 1494 2319 1581 2169 
Q 1719 2375 1834 2534 
L 2394 3319 
L 3066 3319 
L 1919 1756 
L 3153 0 
L 2463 0 
L 1781 1031 
L 1600 1309 
L 728 0 
L 47 0 
z
" transform="scale(0.015625)"/>
      </defs>
      <use xlink:href="#ArialMT-78"/>
     </g>
    </g>
   </g>
   <g id="matplotlib.axis_2">
    <g id="ytick_1">
     <g id="line2d_6">
      <path d="M 57.6 307.584 
L 414.72 307.584 
" clip-path="url(#p0bc91fc647)" style="fill: none; stroke: #ffffff; stroke-width: 0.8; stroke-linecap: round"/>
     </g>
     <g id="text_7">
      <!-- 0.0 -->
      <g style="fill: #262626" transform="translate(36.7 311.162906) scale(0.1 -0.1)">
       <defs>
        <path id="ArialMT-2e" d="M 581 0 
L 581 641 
L 1222 641 
L 1222 0 
L 581 0 
z
" transform="scale(0.015625)"/>
       </defs>
       <use xlink:href="#ArialMT-30"/>
       <use xlink:href="#ArialMT-2e" transform="translate(55.615234 0)"/>
       <use xlink:href="#ArialMT-30" transform="translate(83.398438 0)"/>
      </g>
     </g>
    </g>
    <g id="ytick_2">
     <g id="line2d_7">
      <path d="M 57.6 256.408615 
L 414.72 256.408615 
" clip-path="url(#p0bc91fc647)" style="fill: none; stroke: #ffffff; stroke-width: 0.8; stroke-linecap: round"/>
     </g>
     <g id="text_8">
      <!-- 0.5 -->
      <g style="fill: #262626" transform="translate(36.7 259.987522) scale(0.1 -0.1)">
       <defs>
        <path id="ArialMT-35" d="M 266 1200 
L 856 1250 
Q 922 819 1161 601 
Q 1400 384 1738 384 
Q 2144 384 2425 690 
Q 2706 997 2706 1503 
Q 2706 1984 2436 2262 
Q 2166 2541 1728 2541 
Q 1456 2541 1237 2417 
Q 1019 2294 894 2097 
L 366 2166 
L 809 4519 
L 3088 4519 
L 3088 3981 
L 1259 3981 
L 1013 2750 
Q 1425 3038 1878 3038 
Q 2478 3038 2890 2622 
Q 3303 2206 3303 1553 
Q 3303 931 2941 478 
Q 2500 -78 1738 -78 
Q 1113 -78 717 272 
Q 322 622 266 1200 
z
" transform="scale(0.015625)"/>
       </defs>
       <use xlink:href="#ArialMT-30"/>
       <use xlink:href="#ArialMT-2e" transform="translate(55.615234 0)"/>
       <use xlink:href="#ArialMT-35" transform="translate(83.398438 0)"/>
      </g>
     </g>
    </g>
    <g id="ytick_3">
     <g id="line2d_8">
      <path d="M 57.6 205.233231 
L 414.72 205.233231 
" clip-path="url(#p0bc91fc647)" style="fill: none; stroke: #ffffff; stroke-width: 0.8; stroke-linecap: round"/>
     </g>
     <g id="text_9">
      <!-- 1.0 -->
      <g style="fill: #262626" transform="translate(36.7 208.812137) scale(0.1 -0.1)">
       <use xlink:href="#ArialMT-31"/>
       <use xlink:href="#ArialMT-2e" transform="translate(55.615234 0)"/>
       <use xlink:href="#ArialMT-30" transform="translate(83.398438 0)"/>
      </g>
     </g>
    </g>
    <g id="ytick_4">
     <g id="line2d_9">
      <path d="M 57.6 154.057846 
L 414.72 154.057846 
" clip-path="url(#p0bc91fc647)" style="fill: none; stroke: #ffffff; stroke-width: 0.8; stroke-linecap: round"/>
     </g>
     <g id="text_10">
      <!-- 1.5 -->
      <g style="fill: #262626" transform="translate(36.7 157.636752) scale(0.1 -0.1)">
       <use xlink:href="#ArialMT-31"/>
       <use xlink:href="#ArialMT-2e" transform="translate(55.615234 0)"/>
       <use xlink:href="#ArialMT-35" transform="translate(83.398438 0)"/>
      </g>
     </g>
    </g>
    <g id="ytick_5">
     <g id="line2d_10">
      <path d="M 57.6 102.882462 
L 414.72 102.882462 
" clip-path="url(#p0bc91fc647)" style="fill: none; stroke: #ffffff; stroke-width: 0.8; stroke-linecap: round"/>
     </g>
     <g id="text_11">
      <!-- 2.0 -->
      <g style="fill: #262626" transform="translate(36.7 106.461368) scale(0.1 -0.1)">
       <use xlink:href="#ArialMT-32"/>
       <use xlink:href="#ArialMT-2e" transform="translate(55.615234 0)"/>
       <use xlink:href="#ArialMT-30" transform="translate(83.398438 0)"/>
      </g>
     </g>
    </g>
    <g id="ytick_6">
     <g id="line2d_11">
      <path d="M 57.6 51.707077 
L 414.72 51.707077 
" clip-path="url(#p0bc91fc647)" style="fill: none; stroke: #ffffff; stroke-width: 0.8; stroke-linecap: round"/>
     </g>
     <g id="text_12">
      <!-- 2.5 -->
      <g style="fill: #262626" transform="translate(36.7 55.285983) scale(0.1 -0.1)">
       <use xlink:href="#ArialMT-32"/>
       <use xlink:href="#ArialMT-2e" transform="translate(55.615234 0)"/>
       <use xlink:href="#ArialMT-35" transform="translate(83.398438 0)"/>
      </g>
     </g>
    </g>
    <g id="text_13">
     <!-- $\mathcal{W}(\delta_x P_{\sigma}, \pi)$ -->
     <g style="fill: #262626" transform="translate(30.7125 199.428) rotate(-90) scale(0.1 -0.1)">
      <defs>
       <path id="STIXNonUnicode-Italic-e243" d="M 4634 736 
L 4672 717 
Q 4742 794 4931 1008 
Q 5120 1222 5248 1369 
Q 5376 1517 5545 1757 
Q 5715 1997 5837 2234 
Q 6131 2803 6131 3245 
Q 6131 3936 5741 3936 
Q 5696 3936 5661 3885 
Q 5626 3834 5606 3776 
Q 5587 3718 5529 3667 
Q 5472 3616 5382 3616 
Q 5229 3616 5145 3715 
Q 5062 3814 5062 3962 
Q 5062 4173 5209 4278 
Q 5357 4384 5594 4384 
Q 5965 4384 6176 4073 
Q 6387 3763 6387 3290 
Q 6387 2906 6236 2506 
Q 6086 2106 5814 1718 
Q 5542 1331 5289 1027 
Q 5037 723 4697 352 
Q 4358 -19 4211 -205 
L 4045 -205 
L 4045 230 
Q 4045 1306 3936 2099 
Q 3827 2893 3475 3373 
L 3430 3373 
L 1363 -205 
L 1171 -205 
Q 1459 1581 1459 2624 
Q 1459 4006 602 4006 
Q 448 4006 307 3891 
L 211 4013 
Q 486 4237 915 4237 
Q 1184 4237 1389 4157 
Q 1594 4077 1722 3923 
Q 1850 3770 1933 3590 
Q 2016 3411 2054 3155 
Q 2093 2899 2105 2684 
Q 2118 2470 2118 2182 
Q 2118 1920 2099 1658 
L 2138 1658 
L 3398 3846 
L 3686 4160 
Q 4077 3738 4365 2950 
Q 4653 2163 4653 1395 
Q 4653 966 4634 736 
z
" transform="scale(0.015625)"/>
       <path id="DejaVuSans-28" d="M 1984 4856 
Q 1566 4138 1362 3434 
Q 1159 2731 1159 2009 
Q 1159 1288 1364 580 
Q 1569 -128 1984 -844 
L 1484 -844 
Q 1016 -109 783 600 
Q 550 1309 550 2009 
Q 550 2706 781 3412 
Q 1013 4119 1484 4856 
L 1984 4856 
z
" transform="scale(0.015625)"/>
       <path id="DejaVuSans-Oblique-3b4" d="M 3472 4053 
Q 3197 4272 2450 4272 
Q 1659 4272 1588 3906 
Q 1531 3619 2328 3469 
Q 2953 3353 3253 3003 
Q 3616 2581 3447 1716 
Q 3284 888 2763 400 
Q 2238 -91 1488 -91 
Q 741 -91 406 400 
Q 72 888 241 1747 
Q 363 2384 891 2900 
Q 1097 3100 1353 3213 
Q 913 3459 1000 3900 
Q 1166 4750 2544 4750 
Q 3234 4750 3566 4531 
L 3472 4053 
z
M 1753 3056 
Q 1525 2966 1306 2738 
Q 969 2384 847 1747 
Q 722 1113 919 756 
Q 1119 397 1584 397 
Q 2044 397 2381 759 
Q 2722 1122 2838 1716 
Q 2956 2338 2731 2638 
Q 2491 2959 2103 2994 
Q 1906 3013 1753 3056 
z
" transform="scale(0.015625)"/>
       <path id="DejaVuSans-Oblique-78" d="M 3841 3500 
L 2234 1784 
L 3219 0 
L 2559 0 
L 1819 1388 
L 531 0 
L -166 0 
L 1556 1844 
L 641 3500 
L 1300 3500 
L 1972 2234 
L 3144 3500 
L 3841 3500 
z
" transform="scale(0.015625)"/>
       <path id="DejaVuSans-Oblique-50" d="M 1081 4666 
L 2541 4666 
Q 3178 4666 3512 4369 
Q 3847 4072 3847 3500 
Q 3847 2731 3353 2303 
Q 2859 1875 1966 1875 
L 1172 1875 
L 806 0 
L 172 0 
L 1081 4666 
z
M 1613 4147 
L 1275 2394 
L 2069 2394 
Q 2606 2394 2893 2669 
Q 3181 2944 3181 3456 
Q 3181 3784 2986 3965 
Q 2791 4147 2438 4147 
L 1613 4147 
z
" transform="scale(0.015625)"/>
       <path id="DejaVuSans-Oblique-3c3" d="M 2219 3044 
Q 1744 3044 1422 2700 
Q 1081 2341 969 1747 
Q 844 1119 1044 756 
Q 1241 397 1706 397 
Q 2166 397 2503 759 
Q 2844 1122 2966 1747 
Q 3075 2319 2881 2700 
Q 2700 3044 2219 3044 
z
M 2309 3503 
L 4219 3500 
L 4106 2925 
L 3463 2925 
Q 3706 2438 3575 1747 
Q 3406 888 2884 400 
Q 2359 -91 1609 -91 
Q 856 -91 525 400 
Q 194 888 363 1747 
Q 528 2609 1050 3097 
Q 1484 3503 2309 3503 
z
" transform="scale(0.015625)"/>
       <path id="DejaVuSans-2c" d="M 750 794 
L 1409 794 
L 1409 256 
L 897 -744 
L 494 -744 
L 750 256 
L 750 794 
z
" transform="scale(0.015625)"/>
       <path id="DejaVuSans-Oblique-3c0" d="M 584 3500 
L 3938 3500 
L 3825 2925 
L 3384 2925 
L 2966 775 
Q 2922 550 2981 450 
Q 3038 353 3209 353 
Q 3256 353 3325 363 
Q 3397 369 3419 372 
L 3338 -44 
Q 3222 -84 3103 -103 
Q 2981 -122 2866 -122 
Q 2491 -122 2388 81 
Q 2284 288 2391 838 
L 2797 2925 
L 1506 2925 
L 938 0 
L 350 0 
L 919 2925 
L 472 2925 
L 584 3500 
z
" transform="scale(0.015625)"/>
       <path id="DejaVuSans-29" d="M 513 4856 
L 1013 4856 
Q 1481 4119 1714 3412 
Q 1947 2706 1947 2009 
Q 1947 1309 1714 600 
Q 1481 -109 1013 -844 
L 513 -844 
Q 928 -128 1133 580 
Q 1338 1288 1338 2009 
Q 1338 2731 1133 3434 
Q 928 4138 513 4856 
z
" transform="scale(0.015625)"/>
      </defs>
      <use xlink:href="#STIXNonUnicode-Italic-e243" transform="translate(0 0.125)"/>
      <use xlink:href="#DejaVuSans-28" transform="translate(95.599991 0.125)"/>
      <use xlink:href="#DejaVuSans-Oblique-3b4" transform="translate(134.613663 0.125)"/>
      <use xlink:href="#DejaVuSans-Oblique-78" transform="translate(195.795303 -16.28125) scale(0.7)"/>
      <use xlink:href="#DejaVuSans-Oblique-50" transform="translate(239.95546 0.125)"/>
      <use xlink:href="#DejaVuSans-Oblique-3c3" transform="translate(300.258194 -16.28125) scale(0.7)"/>
      <use xlink:href="#DejaVuSans-2c" transform="translate(347.357803 0.125)"/>
      <use xlink:href="#DejaVuSans-Oblique-3c0" transform="translate(398.627335 0.125)"/>
      <use xlink:href="#DejaVuSans-29" transform="translate(458.832413 0.125)"/>
     </g>
    </g>
   </g>
   <g id="line2d_12">
    <path d="M 73.832727 51.726379 
L 77.112073 56.895597 
L 80.391404 62.064863 
L 83.670734 67.234057 
L 86.95008 72.403348 
L 90.229426 77.572541 
L 93.508757 82.741759 
L 96.788103 87.911001 
L 100.067434 93.080218 
L 103.34678 98.249461 
L 106.62611 103.41869 
L 109.905456 108.587933 
L 113.184795 113.75715 
L 116.464133 118.926392 
L 119.743479 124.095622 
L 123.022809 129.264852 
L 126.302148 134.43407 
L 129.581486 139.603312 
L 132.860824 144.772542 
L 136.140163 149.941772 
L 139.419493 155.110989 
L 142.698847 160.280244 
L 145.978178 165.449315 
L 149.257516 170.61763 
L 152.536862 175.781626 
L 155.816192 180.926002 
L 159.095538 186.0021 
L 162.374869 190.887738 
L 165.654215 195.355011 
L 168.933553 199.103635 
L 172.212892 201.88877 
L 175.492234 203.669103 
L 178.771564 204.631494 
L 182.050914 205.051336 
L 185.330245 205.203558 
L 188.609583 205.244291 
L 191.888925 205.25393 
L 195.168256 205.256175 
L 198.447606 205.25684 
L 201.726936 205.257255 
L 205.006277 205.25767 
L 208.285621 205.258072 
L 211.564957 205.258499 
L 214.844301 205.258908 
L 218.123628 205.259323 
L 221.402982 205.259732 
L 224.682308 205.260147 
L 227.961652 205.260549 
L 231.240996 205.26097 
L 234.520323 205.261379 
L 237.799667 205.261806 
L 241.079004 205.262209 
L 244.358348 205.262629 
L 247.637684 205.263044 
L 250.917028 205.263441 
L 254.196364 205.26388 
L 257.475699 205.264283 
L 260.755035 205.264698 
L 264.034379 205.265106 
L 267.313716 205.265527 
L 270.59306 205.265948 
L 273.872394 205.266351 
L 277.151733 205.266607 
L 280.431067 205.265741 
L 283.710409 205.256565 
L 286.989755 205.213233 
L 290.269093 205.061487 
L 293.548424 204.639522 
L 296.827762 203.684061 
L 300.107108 201.896689 
L 303.386439 199.0974 
L 306.665785 195.334598 
L 309.945123 190.860749 
L 313.224462 185.969303 
L 316.503792 180.891106 
L 319.783138 175.744119 
L 323.062476 170.579452 
L 326.341815 165.410869 
L 329.621153 160.241627 
L 332.900491 155.072397 
L 336.179822 149.90318 
L 339.459168 144.733937 
L 342.738514 139.564695 
L 346.01786 134.395441 
L 349.297191 129.226248 
L 352.576521 124.057018 
L 355.855867 118.887776 
L 359.135213 113.718534 
L 362.414536 108.54934 
L 365.693882 103.38011 
L 368.97322 98.210856 
L 372.252566 93.04159 
L 375.531881 87.872421 
L 378.811227 82.703179 
L 382.090574 77.533961 
L 385.36992 72.364694 
L 388.649266 67.195452 
L 391.928581 62.026259 
L 395.207927 56.857017 
L 398.487273 51.687775 
" clip-path="url(#p0bc91fc647)" style="fill: none; stroke-dasharray: 5.55,2.4; stroke-dashoffset: 0; stroke: #808080; stroke-width: 1.5"/>
   </g>
   <g id="line2d_13">
    <path d="M 73.832727 72.033921 
L 77.112073 77.414999 
L 80.391404 82.503055 
L 83.670734 87.70524 
L 86.95008 92.741612 
L 90.229426 98.012709 
L 93.508757 103.265017 
L 96.788103 108.219933 
L 100.067434 113.500352 
L 103.34678 118.636456 
L 106.62611 123.892009 
L 109.905456 129.16296 
L 113.184795 134.247575 
L 116.464133 139.143877 
L 119.743479 144.37188 
L 123.022809 149.373991 
L 126.302148 154.333946 
L 129.581486 159.286423 
L 132.860824 164.109066 
L 136.140163 168.478791 
L 139.419493 172.822514 
L 142.698847 176.772189 
L 145.978178 180.109158 
L 149.257516 183.514466 
L 152.536862 186.30486 
L 155.816192 189.224329 
L 159.095538 192.062662 
L 162.374869 195.109158 
L 165.654215 197.998539 
L 168.933553 200.905088 
L 172.212892 203.489868 
L 175.492234 205.940075 
L 178.771564 208.193184 
L 182.050914 210.362545 
L 185.330245 212.27274 
L 188.609583 214.111248 
L 191.888925 216.04573 
L 195.168256 218.225254 
L 198.447606 220.110663 
L 201.726936 222.399553 
L 205.006277 224.939115 
L 208.285621 227.246159 
L 211.564957 229.830695 
L 214.844301 232.711792 
L 218.123628 235.504144 
L 221.402982 238.365847 
L 224.682308 241.123963 
L 227.961652 243.239681 
L 231.240996 244.900119 
L 234.520323 245.616895 
L 237.799667 245.709257 
L 241.079004 244.969739 
L 244.358348 243.24034 
L 247.637684 241.099774 
L 250.917028 238.412456 
L 254.196364 235.421438 
L 257.475699 232.706399 
L 260.755035 229.867841 
L 264.034379 227.148843 
L 267.313716 224.792011 
L 270.59306 222.443068 
L 273.872394 220.233047 
L 277.151733 218.091536 
L 280.431067 216.072652 
L 283.710409 214.09948 
L 286.989755 212.302767 
L 290.269093 210.365979 
L 293.548424 208.205763 
L 296.827762 205.942307 
L 300.107108 203.517467 
L 303.386439 200.881076 
L 306.665785 197.967756 
L 309.945123 195.062927 
L 313.224462 192.00445 
L 316.503792 189.069912 
L 319.783138 186.278273 
L 323.062476 183.281997 
L 326.341815 180.142321 
L 329.621153 176.629997 
L 332.900491 172.626978 
L 336.179822 168.366808 
L 339.459168 164.044656 
L 342.738514 159.348319 
L 346.01786 154.304468 
L 349.297191 149.435558 
L 352.576521 144.387778 
L 355.855867 139.368098 
L 359.135213 134.05997 
L 362.414536 128.894596 
L 365.693882 123.787055 
L 368.97322 118.677464 
L 372.252566 113.36808 
L 375.531881 108.370996 
L 378.811227 103.102766 
L 382.090574 98.027204 
L 385.36992 92.709181 
L 388.649266 87.544746 
L 391.928581 82.319794 
L 395.207927 77.228322 
L 398.487273 72.070597 
" clip-path="url(#p0bc91fc647)" style="fill: none; stroke: #ffa500; stroke-width: 1.5; stroke-linecap: round"/>
   </g>
   <g id="line2d_14">
    <path d="M 73.832727 92.343268 
L 77.112073 97.937818 
L 80.391404 102.943809 
L 83.670734 108.175021 
L 86.95008 113.080181 
L 90.229426 118.453536 
L 93.508757 123.788507 
L 96.788103 128.527646 
L 100.067434 133.918095 
L 103.34678 139.019755 
L 106.62611 144.336436 
L 109.905456 148.585759 
L 113.184795 152.303258 
L 116.464133 155.387029 
L 119.743479 159.043693 
L 123.022809 162.172925 
L 126.302148 165.329243 
L 129.581486 168.246785 
L 132.860824 171.246478 
L 136.140163 173.538149 
L 139.419493 176.323784 
L 142.698847 178.991422 
L 145.978178 181.290292 
L 149.257516 184.450905 
L 152.536862 187.187394 
L 155.816192 190.292078 
L 159.095538 193.298651 
L 162.374869 196.693418 
L 165.654215 199.892965 
L 168.933553 202.812801 
L 172.212892 205.613565 
L 175.492234 208.220759 
L 178.771564 211.259007 
L 182.050914 214.02379 
L 185.330245 217.204969 
L 188.609583 220.085187 
L 191.888925 223.616295 
L 195.168256 227.081486 
L 198.447606 231.212794 
L 201.726936 234.693975 
L 205.006277 238.395264 
L 208.285621 242.291559 
L 211.564957 245.904812 
L 214.844301 249.115151 
L 218.123628 252.457684 
L 221.402982 255.000559 
L 224.682308 257.238319 
L 227.961652 259.082805 
L 231.240996 260.275066 
L 234.520323 260.940987 
L 237.799667 261.291896 
L 241.079004 260.407318 
L 244.358348 259.165746 
L 247.637684 257.209655 
L 250.917028 255.032269 
L 254.196364 252.276332 
L 257.475699 249.04586 
L 260.755035 245.829341 
L 264.034379 242.633613 
L 267.313716 238.257526 
L 270.59306 234.590814 
L 273.872394 231.072084 
L 277.151733 227.243622 
L 280.431067 223.64107 
L 283.710409 220.498978 
L 286.989755 217.13092 
L 290.269093 214.047564 
L 293.548424 211.157786 
L 296.827762 208.35901 
L 300.107108 205.620111 
L 303.386439 202.766912 
L 306.665785 199.794941 
L 309.945123 196.590537 
L 313.224462 193.221967 
L 316.503792 189.977288 
L 319.783138 187.363933 
L 323.062476 184.234798 
L 326.341815 181.467111 
L 329.621153 178.913554 
L 332.900491 176.44737 
L 336.179822 173.834296 
L 339.459168 170.972916 
L 342.738514 168.312501 
L 346.01786 165.41708 
L 349.297191 162.445731 
L 352.576521 159.096963 
L 355.855867 155.902015 
L 359.135213 152.03166 
L 362.414536 148.132876 
L 365.693882 144.17743 
L 368.97322 139.131847 
L 372.252566 133.694753 
L 375.531881 128.851818 
L 378.811227 123.499339 
L 382.090574 118.521521 
L 385.36992 113.05634 
L 388.649266 107.895773 
L 391.928581 102.61367 
L 395.207927 97.603067 
L 398.487273 92.455958 
" clip-path="url(#p0bc91fc647)" style="fill: none; stroke: #0000ff; stroke-width: 1.5; stroke-linecap: round"/>
   </g>
   <g id="line2d_15">
    <path d="M 73.832727 122.075573 
L 77.112073 126.288013 
L 80.391404 128.844949 
L 83.670734 131.866604 
L 86.95008 135.51918 
L 90.229426 138.852269 
L 93.508757 142.191386 
L 96.788103 145.559358 
L 100.067434 148.887909 
L 103.34678 152.074864 
L 106.62611 154.985098 
L 109.905456 156.830914 
L 113.184795 158.855331 
L 116.464133 160.367812 
L 119.743479 162.212395 
L 123.022809 165.115748 
L 126.302148 167.250548 
L 129.581486 169.411826 
L 132.860824 171.745896 
L 136.140163 174.503993 
L 139.419493 176.943981 
L 142.698847 179.515096 
L 145.978178 182.162772 
L 149.257516 184.938744 
L 152.536862 187.771012 
L 155.816192 191.125832 
L 159.095538 194.170925 
L 162.374869 197.605113 
L 165.654215 200.358476 
L 168.933553 203.342734 
L 172.212892 205.744453 
L 175.492234 208.267446 
L 178.771564 210.146804 
L 182.050914 211.95695 
L 185.330245 213.205781 
L 188.609583 214.603571 
L 191.888925 215.89338 
L 195.168256 216.902465 
L 198.447606 218.380063 
L 201.726936 219.480138 
L 205.006277 220.22705 
L 208.285621 221.290528 
L 211.564957 222.010726 
L 214.844301 222.95487 
L 218.123628 223.496199 
L 221.402982 224.436171 
L 224.682308 224.832123 
L 227.961652 225.263501 
L 231.240996 225.455474 
L 234.520323 225.871949 
L 237.799667 225.777103 
L 241.079004 225.392656 
L 244.358348 225.268876 
L 247.637684 224.855555 
L 250.917028 224.375104 
L 254.196364 223.661507 
L 257.475699 223.007939 
L 260.755035 222.184885 
L 264.034379 221.478109 
L 267.313716 220.306278 
L 270.59306 219.419059 
L 273.872394 218.288292 
L 277.151733 216.928503 
L 280.431067 215.984261 
L 283.710409 214.678687 
L 286.989755 213.092671 
L 290.269093 211.635736 
L 293.548424 210.162927 
L 296.827762 208.177536 
L 300.107108 205.716208 
L 303.386439 203.244283 
L 306.665785 200.542616 
L 309.945123 197.506088 
L 313.224462 194.359652 
L 316.503792 190.906882 
L 319.783138 188.065073 
L 323.062476 184.939696 
L 326.341815 182.256624 
L 329.621153 179.301307 
L 332.900491 176.656839 
L 336.179822 174.054527 
L 339.459168 171.423907 
L 342.738514 169.193742 
L 346.01786 167.355832 
L 349.297191 164.435191 
L 352.576521 162.113908 
L 355.855867 161.037326 
L 359.135213 158.757893 
L 362.414536 156.830097 
L 365.693882 154.934963 
L 368.97322 151.813174 
L 372.252566 148.778635 
L 375.531881 144.973153 
L 378.811227 141.871813 
L 382.090574 139.073757 
L 385.36992 135.969415 
L 388.649266 131.990543 
L 391.928581 129.131518 
L 395.207927 125.300609 
L 398.487273 122.188471 
" clip-path="url(#p0bc91fc647)" style="fill: none; stroke: #ff0000; stroke-width: 1.5; stroke-linecap: round"/>
   </g>
   <g id="patch_3">
    <path d="M 57.6 307.584 
L 57.6 41.472 
" style="fill: none; stroke: #ffffff; stroke-width: 0.8; stroke-linejoin: miter; stroke-linecap: square"/>
   </g>
   <g id="patch_4">
    <path d="M 414.72 307.584 
L 414.72 41.472 
" style="fill: none; stroke: #ffffff; stroke-width: 0.8; stroke-linejoin: miter; stroke-linecap: square"/>
   </g>
   <g id="patch_5">
    <path d="M 57.6 307.584 
L 414.72 307.584 
" style="fill: none; stroke: #ffffff; stroke-width: 0.8; stroke-linejoin: miter; stroke-linecap: square"/>
   </g>
   <g id="patch_6">
    <path d="M 57.6 41.472 
L 414.72 41.472 
" style="fill: none; stroke: #ffffff; stroke-width: 0.8; stroke-linejoin: miter; stroke-linecap: square"/>
   </g>
   <g id="legend_1">
    <g id="patch_7">
     <path d="M 325.7075 302.584 
L 407.72 302.584 
Q 409.72 302.584 409.72 300.584 
L 409.72 244.885562 
Q 409.72 242.885562 407.72 242.885562 
L 325.7075 242.885562 
Q 323.7075 242.885562 323.7075 244.885562 
L 323.7075 300.584 
Q 323.7075 302.584 325.7075 302.584 
z
" style="fill: #eaeaf2; opacity: 0.8; stroke: #cccccc; stroke-linejoin: miter"/>
    </g>
    <g id="line2d_16">
     <path d="M 327.7075 250.543375 
L 337.7075 250.543375 
L 347.7075 250.543375 
" style="fill: none; stroke-dasharray: 5.55,2.4; stroke-dashoffset: 0; stroke: #808080; stroke-width: 1.5"/>
    </g>
    <g id="text_14">
     <!-- eccentricity -->
     <g style="fill: #262626" transform="translate(355.7075 254.043375) scale(0.1 -0.1)">
      <defs>
       <path id="ArialMT-65" d="M 2694 1069 
L 3275 997 
Q 3138 488 2766 206 
Q 2394 -75 1816 -75 
Q 1088 -75 661 373 
Q 234 822 234 1631 
Q 234 2469 665 2931 
Q 1097 3394 1784 3394 
Q 2450 3394 2872 2941 
Q 3294 2488 3294 1666 
Q 3294 1616 3291 1516 
L 816 1516 
Q 847 969 1125 678 
Q 1403 388 1819 388 
Q 2128 388 2347 550 
Q 2566 713 2694 1069 
z
M 847 1978 
L 2700 1978 
Q 2663 2397 2488 2606 
Q 2219 2931 1791 2931 
Q 1403 2931 1139 2672 
Q 875 2413 847 1978 
z
" transform="scale(0.015625)"/>
       <path id="ArialMT-63" d="M 2588 1216 
L 3141 1144 
Q 3050 572 2676 248 
Q 2303 -75 1759 -75 
Q 1078 -75 664 370 
Q 250 816 250 1647 
Q 250 2184 428 2587 
Q 606 2991 970 3192 
Q 1334 3394 1763 3394 
Q 2303 3394 2647 3120 
Q 2991 2847 3088 2344 
L 2541 2259 
Q 2463 2594 2264 2762 
Q 2066 2931 1784 2931 
Q 1359 2931 1093 2626 
Q 828 2322 828 1663 
Q 828 994 1084 691 
Q 1341 388 1753 388 
Q 2084 388 2306 591 
Q 2528 794 2588 1216 
z
" transform="scale(0.015625)"/>
       <path id="ArialMT-6e" d="M 422 0 
L 422 3319 
L 928 3319 
L 928 2847 
Q 1294 3394 1984 3394 
Q 2284 3394 2536 3286 
Q 2788 3178 2913 3003 
Q 3038 2828 3088 2588 
Q 3119 2431 3119 2041 
L 3119 0 
L 2556 0 
L 2556 2019 
Q 2556 2363 2490 2533 
Q 2425 2703 2258 2804 
Q 2091 2906 1866 2906 
Q 1506 2906 1245 2678 
Q 984 2450 984 1813 
L 984 0 
L 422 0 
z
" transform="scale(0.015625)"/>
       <path id="ArialMT-74" d="M 1650 503 
L 1731 6 
Q 1494 -44 1306 -44 
Q 1000 -44 831 53 
Q 663 150 594 308 
Q 525 466 525 972 
L 525 2881 
L 113 2881 
L 113 3319 
L 525 3319 
L 525 4141 
L 1084 4478 
L 1084 3319 
L 1650 3319 
L 1650 2881 
L 1084 2881 
L 1084 941 
Q 1084 700 1114 631 
Q 1144 563 1211 522 
Q 1278 481 1403 481 
Q 1497 481 1650 503 
z
" transform="scale(0.015625)"/>
       <path id="ArialMT-72" d="M 416 0 
L 416 3319 
L 922 3319 
L 922 2816 
Q 1116 3169 1280 3281 
Q 1444 3394 1641 3394 
Q 1925 3394 2219 3213 
L 2025 2691 
Q 1819 2813 1613 2813 
Q 1428 2813 1281 2702 
Q 1134 2591 1072 2394 
Q 978 2094 978 1738 
L 978 0 
L 416 0 
z
" transform="scale(0.015625)"/>
       <path id="ArialMT-69" d="M 425 3934 
L 425 4581 
L 988 4581 
L 988 3934 
L 425 3934 
z
M 425 0 
L 425 3319 
L 988 3319 
L 988 0 
L 425 0 
z
" transform="scale(0.015625)"/>
       <path id="ArialMT-79" d="M 397 -1278 
L 334 -750 
Q 519 -800 656 -800 
Q 844 -800 956 -737 
Q 1069 -675 1141 -563 
Q 1194 -478 1313 -144 
Q 1328 -97 1363 -6 
L 103 3319 
L 709 3319 
L 1400 1397 
Q 1534 1031 1641 628 
Q 1738 1016 1872 1384 
L 2581 3319 
L 3144 3319 
L 1881 -56 
Q 1678 -603 1566 -809 
Q 1416 -1088 1222 -1217 
Q 1028 -1347 759 -1347 
Q 597 -1347 397 -1278 
z
" transform="scale(0.015625)"/>
      </defs>
      <use xlink:href="#ArialMT-65"/>
      <use xlink:href="#ArialMT-63" transform="translate(55.615234 0)"/>
      <use xlink:href="#ArialMT-63" transform="translate(105.615234 0)"/>
      <use xlink:href="#ArialMT-65" transform="translate(155.615234 0)"/>
      <use xlink:href="#ArialMT-6e" transform="translate(211.230469 0)"/>
      <use xlink:href="#ArialMT-74" transform="translate(266.845703 0)"/>
      <use xlink:href="#ArialMT-72" transform="translate(294.628906 0)"/>
      <use xlink:href="#ArialMT-69" transform="translate(327.929688 0)"/>
      <use xlink:href="#ArialMT-63" transform="translate(350.146484 0)"/>
      <use xlink:href="#ArialMT-69" transform="translate(400.146484 0)"/>
      <use xlink:href="#ArialMT-74" transform="translate(422.363281 0)"/>
      <use xlink:href="#ArialMT-79" transform="translate(450.146484 0)"/>
     </g>
    </g>
    <g id="line2d_17">
     <path d="M 327.7075 264.805875 
L 337.7075 264.805875 
L 347.7075 264.805875 
" style="fill: none; stroke: #ffa500; stroke-width: 1.5; stroke-linecap: round"/>
    </g>
    <g id="text_15">
     <!-- $\sigma = 0.5$ -->
     <g style="fill: #262626" transform="translate(355.7075 268.305875) scale(0.1 -0.1)">
      <defs>
       <path id="DejaVuSans-3d" d="M 678 2906 
L 4684 2906 
L 4684 2381 
L 678 2381 
L 678 2906 
z
M 678 1631 
L 4684 1631 
L 4684 1100 
L 678 1100 
L 678 1631 
z
" transform="scale(0.015625)"/>
       <path id="DejaVuSans-30" d="M 2034 4250 
Q 1547 4250 1301 3770 
Q 1056 3291 1056 2328 
Q 1056 1369 1301 889 
Q 1547 409 2034 409 
Q 2525 409 2770 889 
Q 3016 1369 3016 2328 
Q 3016 3291 2770 3770 
Q 2525 4250 2034 4250 
z
M 2034 4750 
Q 2819 4750 3233 4129 
Q 3647 3509 3647 2328 
Q 3647 1150 3233 529 
Q 2819 -91 2034 -91 
Q 1250 -91 836 529 
Q 422 1150 422 2328 
Q 422 3509 836 4129 
Q 1250 4750 2034 4750 
z
" transform="scale(0.015625)"/>
       <path id="DejaVuSans-2e" d="M 684 794 
L 1344 794 
L 1344 0 
L 684 0 
L 684 794 
z
" transform="scale(0.015625)"/>
       <path id="DejaVuSans-35" d="M 691 4666 
L 3169 4666 
L 3169 4134 
L 1269 4134 
L 1269 2991 
Q 1406 3038 1543 3061 
Q 1681 3084 1819 3084 
Q 2600 3084 3056 2656 
Q 3513 2228 3513 1497 
Q 3513 744 3044 326 
Q 2575 -91 1722 -91 
Q 1428 -91 1123 -41 
Q 819 9 494 109 
L 494 744 
Q 775 591 1075 516 
Q 1375 441 1709 441 
Q 2250 441 2565 725 
Q 2881 1009 2881 1497 
Q 2881 1984 2565 2268 
Q 2250 2553 1709 2553 
Q 1456 2553 1204 2497 
Q 953 2441 691 2322 
L 691 4666 
z
" transform="scale(0.015625)"/>
      </defs>
      <use xlink:href="#DejaVuSans-Oblique-3c3" transform="translate(0 0.78125)"/>
      <use xlink:href="#DejaVuSans-3d" transform="translate(82.861328 0.78125)"/>
      <use xlink:href="#DejaVuSans-30" transform="translate(186.132812 0.78125)"/>
      <use xlink:href="#DejaVuSans-2e" transform="translate(249.755859 0.78125)"/>
      <use xlink:href="#DejaVuSans-35" transform="translate(281.542969 0.78125)"/>
     </g>
    </g>
    <g id="line2d_18">
     <path d="M 327.7075 278.951187 
L 337.7075 278.951187 
L 347.7075 278.951187 
" style="fill: none; stroke: #0000ff; stroke-width: 1.5; stroke-linecap: round"/>
    </g>
    <g id="text_16">
     <!-- $\sigma = 1$ -->
     <g style="fill: #262626" transform="translate(355.7075 282.451187) scale(0.1 -0.1)">
      <defs>
       <path id="DejaVuSans-31" d="M 794 531 
L 1825 531 
L 1825 4091 
L 703 3866 
L 703 4441 
L 1819 4666 
L 2450 4666 
L 2450 531 
L 3481 531 
L 3481 0 
L 794 0 
L 794 531 
z
" transform="scale(0.015625)"/>
      </defs>
      <use xlink:href="#DejaVuSans-Oblique-3c3" transform="translate(0 0.09375)"/>
      <use xlink:href="#DejaVuSans-3d" transform="translate(82.861328 0.09375)"/>
      <use xlink:href="#DejaVuSans-31" transform="translate(186.132812 0.09375)"/>
     </g>
    </g>
    <g id="line2d_19">
     <path d="M 327.7075 293.0965 
L 337.7075 293.0965 
L 347.7075 293.0965 
" style="fill: none; stroke: #ff0000; stroke-width: 1.5; stroke-linecap: round"/>
    </g>
    <g id="text_17">
     <!-- $\sigma = 5$ -->
     <g style="fill: #262626" transform="translate(355.7075 296.5965) scale(0.1 -0.1)">
      <use xlink:href="#DejaVuSans-Oblique-3c3" transform="translate(0 0.09375)"/>
      <use xlink:href="#DejaVuSans-3d" transform="translate(82.861328 0.09375)"/>
      <use xlink:href="#DejaVuSans-35" transform="translate(186.132812 0.09375)"/>
     </g>
    </g>
   </g>
  </g>
 </g>
 <defs>
  <clipPath id="p0bc91fc647">
   <rect x="57.6" y="41.472" width="357.12" height="266.112"/>
  </clipPath>
 </defs>
</svg>
