<?xml version="1.0" encoding="utf-8" standalone="no"?>
<!DOCTYPE svg PUBLIC "-//W3C//DTD SVG 1.1//EN"
  "http://www.w3.org/Graphics/SVG/1.1/DTD/svg11.dtd">
<svg xmlns:xlink="http://www.w3.org/1999/xlink" width="460.8pt" height="345.6pt" viewBox="0 0 460.8 345.6" xmlns="http://www.w3.org/2000/svg" version="1.1">
 <metadata>
  <rdf:RDF xmlns:dc="http://purl.org/dc/elements/1.1/" xmlns:cc="http://creativecommons.org/ns#" xmlns:rdf="http://www.w3.org/1999/02/22-rdf-syntax-ns#">
   <cc:Work>
    <dc:type rdf:resource="http://purl.org/dc/dcmitype/StillImage"/>
    <dc:date>2025-05-15T23:07:00.763511</dc:date>
    <dc:format>image/svg+xml</dc:format>
    <dc:creator>
     <cc:Agent>
      <dc:title>Matplotlib v3.10.1, https://matplotlib.org/</dc:title>
     </cc:Agent>
    </dc:creator>
   </cc:Work>
  </rdf:RDF>
 </metadata>
 <defs>
  <style type="text/css">*{stroke-linejoin: round; stroke-linecap: butt}</style>
 </defs>
 <g id="figure_1">
  <g id="patch_1">
   <path d="M 0 345.6 
L 460.8 345.6 
L 460.8 0 
L 0 0 
z
" style="fill: #ffffff"/>
  </g>
  <g id="axes_1">
   <g id="patch_2">
    <path d="M 57.6 307.584 
L 414.72 307.584 
L 414.72 41.472 
L 57.6 41.472 
z
" style="fill: #eaeaf2"/>
   </g>
   <g id="matplotlib.axis_1">
    <g id="xtick_1">
     <g id="line2d_1">
      <path d="M 106.298182 307.584 
L 106.298182 41.472 
" clip-path="url(#p0197b87775)" style="fill: none; stroke: #ffffff; stroke-width: 0.8; stroke-linecap: round"/>
     </g>
     <g id="text_1">
      <!-- −4 -->
      <g style="fill: #262626" transform="translate(100.597401 321.741812) scale(0.1 -0.1)">
       <defs>
        <path id="ArialMT-2212" d="M 3381 1997 
L 356 1997 
L 356 2522 
L 3381 2522 
L 3381 1997 
z
" transform="scale(0.015625)"/>
        <path id="ArialMT-34" d="M 2069 0 
L 2069 1097 
L 81 1097 
L 81 1613 
L 2172 4581 
L 2631 4581 
L 2631 1613 
L 3250 1613 
L 3250 1097 
L 2631 1097 
L 2631 0 
L 2069 0 
z
M 2069 1613 
L 2069 3678 
L 634 1613 
L 2069 1613 
z
" transform="scale(0.015625)"/>
       </defs>
       <use xlink:href="#ArialMT-2212"/>
       <use xlink:href="#ArialMT-34" transform="translate(58.398438 0)"/>
      </g>
     </g>
    </g>
    <g id="xtick_2">
     <g id="line2d_2">
      <path d="M 171.229091 307.584 
L 171.229091 41.472 
" clip-path="url(#p0197b87775)" style="fill: none; stroke: #ffffff; stroke-width: 0.8; stroke-linecap: round"/>
     </g>
     <g id="text_2">
      <!-- −2 -->
      <g style="fill: #262626" transform="translate(165.52831 321.741812) scale(0.1 -0.1)">
       <defs>
        <path id="ArialMT-32" d="M 3222 541 
L 3222 0 
L 194 0 
Q 188 203 259 391 
Q 375 700 629 1000 
Q 884 1300 1366 1694 
Q 2113 2306 2375 2664 
Q 2638 3022 2638 3341 
Q 2638 3675 2398 3904 
Q 2159 4134 1775 4134 
Q 1369 4134 1125 3890 
Q 881 3647 878 3216 
L 300 3275 
Q 359 3922 746 4261 
Q 1134 4600 1788 4600 
Q 2447 4600 2831 4234 
Q 3216 3869 3216 3328 
Q 3216 3053 3103 2787 
Q 2991 2522 2730 2228 
Q 2469 1934 1863 1422 
Q 1356 997 1212 845 
Q 1069 694 975 541 
L 3222 541 
z
" transform="scale(0.015625)"/>
       </defs>
       <use xlink:href="#ArialMT-2212"/>
       <use xlink:href="#ArialMT-32" transform="translate(58.398438 0)"/>
      </g>
     </g>
    </g>
    <g id="xtick_3">
     <g id="line2d_3">
      <path d="M 236.16 307.584 
L 236.16 41.472 
" clip-path="url(#p0197b87775)" style="fill: none; stroke: #ffffff; stroke-width: 0.8; stroke-linecap: round"/>
     </g>
     <g id="text_3">
      <!-- 0 -->
      <g style="fill: #262626" transform="translate(233.379531 321.741812) scale(0.1 -0.1)">
       <defs>
        <path id="ArialMT-30" d="M 266 2259 
Q 266 3072 433 3567 
Q 600 4063 929 4331 
Q 1259 4600 1759 4600 
Q 2128 4600 2406 4451 
Q 2684 4303 2865 4023 
Q 3047 3744 3150 3342 
Q 3253 2941 3253 2259 
Q 3253 1453 3087 958 
Q 2922 463 2592 192 
Q 2263 -78 1759 -78 
Q 1097 -78 719 397 
Q 266 969 266 2259 
z
M 844 2259 
Q 844 1131 1108 757 
Q 1372 384 1759 384 
Q 2147 384 2411 759 
Q 2675 1134 2675 2259 
Q 2675 3391 2411 3762 
Q 2147 4134 1753 4134 
Q 1366 4134 1134 3806 
Q 844 3388 844 2259 
z
" transform="scale(0.015625)"/>
       </defs>
       <use xlink:href="#ArialMT-30"/>
      </g>
     </g>
    </g>
    <g id="xtick_4">
     <g id="line2d_4">
      <path d="M 301.090909 307.584 
L 301.090909 41.472 
" clip-path="url(#p0197b87775)" style="fill: none; stroke: #ffffff; stroke-width: 0.8; stroke-linecap: round"/>
     </g>
     <g id="text_4">
      <!-- 2 -->
      <g style="fill: #262626" transform="translate(298.31044 321.741812) scale(0.1 -0.1)">
       <use xlink:href="#ArialMT-32"/>
      </g>
     </g>
    </g>
    <g id="xtick_5">
     <g id="line2d_5">
      <path d="M 366.021818 307.584 
L 366.021818 41.472 
" clip-path="url(#p0197b87775)" style="fill: none; stroke: #ffffff; stroke-width: 0.8; stroke-linecap: round"/>
     </g>
     <g id="text_5">
      <!-- 4 -->
      <g style="fill: #262626" transform="translate(363.241349 321.741812) scale(0.1 -0.1)">
       <use xlink:href="#ArialMT-34"/>
      </g>
     </g>
    </g>
    <g id="text_6">
     <!-- $x$ -->
     <g style="fill: #262626" transform="translate(233.16 334.887125) scale(0.1 -0.1)">
      <defs>
       <path id="DejaVuSans-Oblique-78" d="M 3841 3500 
L 2234 1784 
L 3219 0 
L 2559 0 
L 1819 1388 
L 531 0 
L -166 0 
L 1556 1844 
L 641 3500 
L 1300 3500 
L 1972 2234 
L 3144 3500 
L 3841 3500 
z
" transform="scale(0.015625)"/>
      </defs>
      <use xlink:href="#DejaVuSans-Oblique-78" transform="translate(0 0.3125)"/>
     </g>
    </g>
   </g>
   <g id="matplotlib.axis_2">
    <g id="ytick_1">
     <g id="line2d_6">
      <path d="M 57.6 257.543855 
L 414.72 257.543855 
" clip-path="url(#p0197b87775)" style="fill: none; stroke: #ffffff; stroke-width: 0.8; stroke-linecap: round"/>
     </g>
     <g id="text_7">
      <!-- 0.2 -->
      <g style="fill: #262626" transform="translate(36.7 261.122762) scale(0.1 -0.1)">
       <defs>
        <path id="ArialMT-2e" d="M 581 0 
L 581 641 
L 1222 641 
L 1222 0 
L 581 0 
z
" transform="scale(0.015625)"/>
       </defs>
       <use xlink:href="#ArialMT-30"/>
       <use xlink:href="#ArialMT-2e" transform="translate(55.615234 0)"/>
       <use xlink:href="#ArialMT-32" transform="translate(83.398438 0)"/>
      </g>
     </g>
    </g>
    <g id="ytick_2">
     <g id="line2d_7">
      <path d="M 57.6 206.446988 
L 414.72 206.446988 
" clip-path="url(#p0197b87775)" style="fill: none; stroke: #ffffff; stroke-width: 0.8; stroke-linecap: round"/>
     </g>
     <g id="text_8">
      <!-- 0.4 -->
      <g style="fill: #262626" transform="translate(36.7 210.025894) scale(0.1 -0.1)">
       <use xlink:href="#ArialMT-30"/>
       <use xlink:href="#ArialMT-2e" transform="translate(55.615234 0)"/>
       <use xlink:href="#ArialMT-34" transform="translate(83.398438 0)"/>
      </g>
     </g>
    </g>
    <g id="ytick_3">
     <g id="line2d_8">
      <path d="M 57.6 155.350121 
L 414.72 155.350121 
" clip-path="url(#p0197b87775)" style="fill: none; stroke: #ffffff; stroke-width: 0.8; stroke-linecap: round"/>
     </g>
     <g id="text_9">
      <!-- 0.6 -->
      <g style="fill: #262626" transform="translate(36.7 158.929027) scale(0.1 -0.1)">
       <defs>
        <path id="ArialMT-36" d="M 3184 3459 
L 2625 3416 
Q 2550 3747 2413 3897 
Q 2184 4138 1850 4138 
Q 1581 4138 1378 3988 
Q 1113 3794 959 3422 
Q 806 3050 800 2363 
Q 1003 2672 1297 2822 
Q 1591 2972 1913 2972 
Q 2475 2972 2870 2558 
Q 3266 2144 3266 1488 
Q 3266 1056 3080 686 
Q 2894 316 2569 119 
Q 2244 -78 1831 -78 
Q 1128 -78 684 439 
Q 241 956 241 2144 
Q 241 3472 731 4075 
Q 1159 4600 1884 4600 
Q 2425 4600 2770 4297 
Q 3116 3994 3184 3459 
z
M 888 1484 
Q 888 1194 1011 928 
Q 1134 663 1356 523 
Q 1578 384 1822 384 
Q 2178 384 2434 671 
Q 2691 959 2691 1453 
Q 2691 1928 2437 2201 
Q 2184 2475 1800 2475 
Q 1419 2475 1153 2201 
Q 888 1928 888 1484 
z
" transform="scale(0.015625)"/>
       </defs>
       <use xlink:href="#ArialMT-30"/>
       <use xlink:href="#ArialMT-2e" transform="translate(55.615234 0)"/>
       <use xlink:href="#ArialMT-36" transform="translate(83.398438 0)"/>
      </g>
     </g>
    </g>
    <g id="ytick_4">
     <g id="line2d_9">
      <path d="M 57.6 104.253253 
L 414.72 104.253253 
" clip-path="url(#p0197b87775)" style="fill: none; stroke: #ffffff; stroke-width: 0.8; stroke-linecap: round"/>
     </g>
     <g id="text_10">
      <!-- 0.8 -->
      <g style="fill: #262626" transform="translate(36.7 107.832159) scale(0.1 -0.1)">
       <defs>
        <path id="ArialMT-38" d="M 1131 2484 
Q 781 2613 612 2850 
Q 444 3088 444 3419 
Q 444 3919 803 4259 
Q 1163 4600 1759 4600 
Q 2359 4600 2725 4251 
Q 3091 3903 3091 3403 
Q 3091 3084 2923 2848 
Q 2756 2613 2416 2484 
Q 2838 2347 3058 2040 
Q 3278 1734 3278 1309 
Q 3278 722 2862 322 
Q 2447 -78 1769 -78 
Q 1091 -78 675 323 
Q 259 725 259 1325 
Q 259 1772 486 2073 
Q 713 2375 1131 2484 
z
M 1019 3438 
Q 1019 3113 1228 2906 
Q 1438 2700 1772 2700 
Q 2097 2700 2305 2904 
Q 2513 3109 2513 3406 
Q 2513 3716 2298 3927 
Q 2084 4138 1766 4138 
Q 1444 4138 1231 3931 
Q 1019 3725 1019 3438 
z
M 838 1322 
Q 838 1081 952 856 
Q 1066 631 1291 507 
Q 1516 384 1775 384 
Q 2178 384 2440 643 
Q 2703 903 2703 1303 
Q 2703 1709 2433 1975 
Q 2163 2241 1756 2241 
Q 1359 2241 1098 1978 
Q 838 1716 838 1322 
z
" transform="scale(0.015625)"/>
       </defs>
       <use xlink:href="#ArialMT-30"/>
       <use xlink:href="#ArialMT-2e" transform="translate(55.615234 0)"/>
       <use xlink:href="#ArialMT-38" transform="translate(83.398438 0)"/>
      </g>
     </g>
    </g>
    <g id="ytick_5">
     <g id="line2d_10">
      <path d="M 57.6 53.156386 
L 414.72 53.156386 
" clip-path="url(#p0197b87775)" style="fill: none; stroke: #ffffff; stroke-width: 0.8; stroke-linecap: round"/>
     </g>
     <g id="text_11">
      <!-- 1.0 -->
      <g style="fill: #262626" transform="translate(36.7 56.735292) scale(0.1 -0.1)">
       <defs>
        <path id="ArialMT-31" d="M 2384 0 
L 1822 0 
L 1822 3584 
Q 1619 3391 1289 3197 
Q 959 3003 697 2906 
L 697 3450 
Q 1169 3672 1522 3987 
Q 1875 4303 2022 4600 
L 2384 4600 
L 2384 0 
z
" transform="scale(0.015625)"/>
       </defs>
       <use xlink:href="#ArialMT-31"/>
       <use xlink:href="#ArialMT-2e" transform="translate(55.615234 0)"/>
       <use xlink:href="#ArialMT-30" transform="translate(83.398438 0)"/>
      </g>
     </g>
    </g>
    <g id="text_12">
     <!-- contraction estimate $\tau_x(P^n)$ -->
     <g style="fill: #262626" transform="translate(30.7125 235.528) rotate(-90) scale(0.1 -0.1)">
      <defs>
       <path id="ArialMT-63" d="M 2588 1216 
L 3141 1144 
Q 3050 572 2676 248 
Q 2303 -75 1759 -75 
Q 1078 -75 664 370 
Q 250 816 250 1647 
Q 250 2184 428 2587 
Q 606 2991 970 3192 
Q 1334 3394 1763 3394 
Q 2303 3394 2647 3120 
Q 2991 2847 3088 2344 
L 2541 2259 
Q 2463 2594 2264 2762 
Q 2066 2931 1784 2931 
Q 1359 2931 1093 2626 
Q 828 2322 828 1663 
Q 828 994 1084 691 
Q 1341 388 1753 388 
Q 2084 388 2306 591 
Q 2528 794 2588 1216 
z
" transform="scale(0.015625)"/>
       <path id="ArialMT-6f" d="M 213 1659 
Q 213 2581 725 3025 
Q 1153 3394 1769 3394 
Q 2453 3394 2887 2945 
Q 3322 2497 3322 1706 
Q 3322 1066 3130 698 
Q 2938 331 2570 128 
Q 2203 -75 1769 -75 
Q 1072 -75 642 372 
Q 213 819 213 1659 
z
M 791 1659 
Q 791 1022 1069 705 
Q 1347 388 1769 388 
Q 2188 388 2466 706 
Q 2744 1025 2744 1678 
Q 2744 2294 2464 2611 
Q 2184 2928 1769 2928 
Q 1347 2928 1069 2612 
Q 791 2297 791 1659 
z
" transform="scale(0.015625)"/>
       <path id="ArialMT-6e" d="M 422 0 
L 422 3319 
L 928 3319 
L 928 2847 
Q 1294 3394 1984 3394 
Q 2284 3394 2536 3286 
Q 2788 3178 2913 3003 
Q 3038 2828 3088 2588 
Q 3119 2431 3119 2041 
L 3119 0 
L 2556 0 
L 2556 2019 
Q 2556 2363 2490 2533 
Q 2425 2703 2258 2804 
Q 2091 2906 1866 2906 
Q 1506 2906 1245 2678 
Q 984 2450 984 1813 
L 984 0 
L 422 0 
z
" transform="scale(0.015625)"/>
       <path id="ArialMT-74" d="M 1650 503 
L 1731 6 
Q 1494 -44 1306 -44 
Q 1000 -44 831 53 
Q 663 150 594 308 
Q 525 466 525 972 
L 525 2881 
L 113 2881 
L 113 3319 
L 525 3319 
L 525 4141 
L 1084 4478 
L 1084 3319 
L 1650 3319 
L 1650 2881 
L 1084 2881 
L 1084 941 
Q 1084 700 1114 631 
Q 1144 563 1211 522 
Q 1278 481 1403 481 
Q 1497 481 1650 503 
z
" transform="scale(0.015625)"/>
       <path id="ArialMT-72" d="M 416 0 
L 416 3319 
L 922 3319 
L 922 2816 
Q 1116 3169 1280 3281 
Q 1444 3394 1641 3394 
Q 1925 3394 2219 3213 
L 2025 2691 
Q 1819 2813 1613 2813 
Q 1428 2813 1281 2702 
Q 1134 2591 1072 2394 
Q 978 2094 978 1738 
L 978 0 
L 416 0 
z
" transform="scale(0.015625)"/>
       <path id="ArialMT-61" d="M 2588 409 
Q 2275 144 1986 34 
Q 1697 -75 1366 -75 
Q 819 -75 525 192 
Q 231 459 231 875 
Q 231 1119 342 1320 
Q 453 1522 633 1644 
Q 813 1766 1038 1828 
Q 1203 1872 1538 1913 
Q 2219 1994 2541 2106 
Q 2544 2222 2544 2253 
Q 2544 2597 2384 2738 
Q 2169 2928 1744 2928 
Q 1347 2928 1158 2789 
Q 969 2650 878 2297 
L 328 2372 
Q 403 2725 575 2942 
Q 747 3159 1072 3276 
Q 1397 3394 1825 3394 
Q 2250 3394 2515 3294 
Q 2781 3194 2906 3042 
Q 3031 2891 3081 2659 
Q 3109 2516 3109 2141 
L 3109 1391 
Q 3109 606 3145 398 
Q 3181 191 3288 0 
L 2700 0 
Q 2613 175 2588 409 
z
M 2541 1666 
Q 2234 1541 1622 1453 
Q 1275 1403 1131 1340 
Q 988 1278 909 1158 
Q 831 1038 831 891 
Q 831 666 1001 516 
Q 1172 366 1500 366 
Q 1825 366 2078 508 
Q 2331 650 2450 897 
Q 2541 1088 2541 1459 
L 2541 1666 
z
" transform="scale(0.015625)"/>
       <path id="ArialMT-69" d="M 425 3934 
L 425 4581 
L 988 4581 
L 988 3934 
L 425 3934 
z
M 425 0 
L 425 3319 
L 988 3319 
L 988 0 
L 425 0 
z
" transform="scale(0.015625)"/>
       <path id="ArialMT-20" transform="scale(0.015625)"/>
       <path id="ArialMT-65" d="M 2694 1069 
L 3275 997 
Q 3138 488 2766 206 
Q 2394 -75 1816 -75 
Q 1088 -75 661 373 
Q 234 822 234 1631 
Q 234 2469 665 2931 
Q 1097 3394 1784 3394 
Q 2450 3394 2872 2941 
Q 3294 2488 3294 1666 
Q 3294 1616 3291 1516 
L 816 1516 
Q 847 969 1125 678 
Q 1403 388 1819 388 
Q 2128 388 2347 550 
Q 2566 713 2694 1069 
z
M 847 1978 
L 2700 1978 
Q 2663 2397 2488 2606 
Q 2219 2931 1791 2931 
Q 1403 2931 1139 2672 
Q 875 2413 847 1978 
z
" transform="scale(0.015625)"/>
       <path id="ArialMT-73" d="M 197 991 
L 753 1078 
Q 800 744 1014 566 
Q 1228 388 1613 388 
Q 2000 388 2187 545 
Q 2375 703 2375 916 
Q 2375 1106 2209 1216 
Q 2094 1291 1634 1406 
Q 1016 1563 777 1677 
Q 538 1791 414 1992 
Q 291 2194 291 2438 
Q 291 2659 392 2848 
Q 494 3038 669 3163 
Q 800 3259 1026 3326 
Q 1253 3394 1513 3394 
Q 1903 3394 2198 3281 
Q 2494 3169 2634 2976 
Q 2775 2784 2828 2463 
L 2278 2388 
Q 2241 2644 2061 2787 
Q 1881 2931 1553 2931 
Q 1166 2931 1000 2803 
Q 834 2675 834 2503 
Q 834 2394 903 2306 
Q 972 2216 1119 2156 
Q 1203 2125 1616 2013 
Q 2213 1853 2448 1751 
Q 2684 1650 2818 1456 
Q 2953 1263 2953 975 
Q 2953 694 2789 445 
Q 2625 197 2315 61 
Q 2006 -75 1616 -75 
Q 969 -75 630 194 
Q 291 463 197 991 
z
" transform="scale(0.015625)"/>
       <path id="ArialMT-6d" d="M 422 0 
L 422 3319 
L 925 3319 
L 925 2853 
Q 1081 3097 1340 3245 
Q 1600 3394 1931 3394 
Q 2300 3394 2536 3241 
Q 2772 3088 2869 2813 
Q 3263 3394 3894 3394 
Q 4388 3394 4653 3120 
Q 4919 2847 4919 2278 
L 4919 0 
L 4359 0 
L 4359 2091 
Q 4359 2428 4304 2576 
Q 4250 2725 4106 2815 
Q 3963 2906 3769 2906 
Q 3419 2906 3187 2673 
Q 2956 2441 2956 1928 
L 2956 0 
L 2394 0 
L 2394 2156 
Q 2394 2531 2256 2718 
Q 2119 2906 1806 2906 
Q 1569 2906 1367 2781 
Q 1166 2656 1075 2415 
Q 984 2175 984 1722 
L 984 0 
L 422 0 
z
" transform="scale(0.015625)"/>
       <path id="DejaVuSans-Oblique-3c4" d="M 2103 638 
Q 2188 488 2525 488 
L 2800 488 
L 2706 0 
L 2363 0 
Q 1800 0 1600 300 
Q 1403 606 1534 1269 
L 1856 2925 
L 541 2925 
L 653 3500 
L 3881 3500 
L 3769 2925 
L 2444 2925 
L 2113 1234 
Q 2025 781 2103 638 
z
" transform="scale(0.015625)"/>
       <path id="DejaVuSans-28" d="M 1984 4856 
Q 1566 4138 1362 3434 
Q 1159 2731 1159 2009 
Q 1159 1288 1364 580 
Q 1569 -128 1984 -844 
L 1484 -844 
Q 1016 -109 783 600 
Q 550 1309 550 2009 
Q 550 2706 781 3412 
Q 1013 4119 1484 4856 
L 1984 4856 
z
" transform="scale(0.015625)"/>
       <path id="DejaVuSans-Oblique-50" d="M 1081 4666 
L 2541 4666 
Q 3178 4666 3512 4369 
Q 3847 4072 3847 3500 
Q 3847 2731 3353 2303 
Q 2859 1875 1966 1875 
L 1172 1875 
L 806 0 
L 172 0 
L 1081 4666 
z
M 1613 4147 
L 1275 2394 
L 2069 2394 
Q 2606 2394 2893 2669 
Q 3181 2944 3181 3456 
Q 3181 3784 2986 3965 
Q 2791 4147 2438 4147 
L 1613 4147 
z
" transform="scale(0.015625)"/>
       <path id="DejaVuSans-Oblique-6e" d="M 3566 2113 
L 3156 0 
L 2578 0 
L 2988 2091 
Q 3016 2238 3031 2350 
Q 3047 2463 3047 2528 
Q 3047 2791 2881 2937 
Q 2716 3084 2419 3084 
Q 1956 3084 1622 2776 
Q 1288 2469 1184 1941 
L 800 0 
L 225 0 
L 903 3500 
L 1478 3500 
L 1363 2950 
Q 1603 3253 1940 3418 
Q 2278 3584 2650 3584 
Q 3113 3584 3367 3334 
Q 3622 3084 3622 2631 
Q 3622 2519 3608 2391 
Q 3594 2263 3566 2113 
z
" transform="scale(0.015625)"/>
       <path id="DejaVuSans-29" d="M 513 4856 
L 1013 4856 
Q 1481 4119 1714 3412 
Q 1947 2706 1947 2009 
Q 1947 1309 1714 600 
Q 1481 -109 1013 -844 
L 513 -844 
Q 928 -128 1133 580 
Q 1338 1288 1338 2009 
Q 1338 2731 1133 3434 
Q 928 4138 513 4856 
z
" transform="scale(0.015625)"/>
      </defs>
      <use xlink:href="#ArialMT-63" transform="translate(0 0.51875)"/>
      <use xlink:href="#ArialMT-6f" transform="translate(50 0.51875)"/>
      <use xlink:href="#ArialMT-6e" transform="translate(105.615234 0.51875)"/>
      <use xlink:href="#ArialMT-74" transform="translate(161.230469 0.51875)"/>
      <use xlink:href="#ArialMT-72" transform="translate(189.013672 0.51875)"/>
      <use xlink:href="#ArialMT-61" transform="translate(222.314453 0.51875)"/>
      <use xlink:href="#ArialMT-63" transform="translate(277.929688 0.51875)"/>
      <use xlink:href="#ArialMT-74" transform="translate(327.929688 0.51875)"/>
      <use xlink:href="#ArialMT-69" transform="translate(355.712891 0.51875)"/>
      <use xlink:href="#ArialMT-6f" transform="translate(377.929688 0.51875)"/>
      <use xlink:href="#ArialMT-6e" transform="translate(433.544922 0.51875)"/>
      <use xlink:href="#ArialMT-20" transform="translate(489.160156 0.51875)"/>
      <use xlink:href="#ArialMT-65" transform="translate(516.943359 0.51875)"/>
      <use xlink:href="#ArialMT-73" transform="translate(572.558594 0.51875)"/>
      <use xlink:href="#ArialMT-74" transform="translate(622.558594 0.51875)"/>
      <use xlink:href="#ArialMT-69" transform="translate(650.341797 0.51875)"/>
      <use xlink:href="#ArialMT-6d" transform="translate(672.558594 0.51875)"/>
      <use xlink:href="#ArialMT-61" transform="translate(755.859375 0.51875)"/>
      <use xlink:href="#ArialMT-74" transform="translate(811.474609 0.51875)"/>
      <use xlink:href="#ArialMT-65" transform="translate(839.257812 0.51875)"/>
      <use xlink:href="#ArialMT-20" transform="translate(894.873047 0.51875)"/>
      <use xlink:href="#DejaVuSans-Oblique-3c4" transform="translate(922.65625 0.51875)"/>
      <use xlink:href="#DejaVuSans-Oblique-78" transform="translate(982.861328 -15.8875) scale(0.7)"/>
      <use xlink:href="#DejaVuSans-28" transform="translate(1027.021484 0.51875)"/>
      <use xlink:href="#DejaVuSans-Oblique-50" transform="translate(1066.035156 0.51875)"/>
      <use xlink:href="#DejaVuSans-Oblique-6e" transform="translate(1133.354661 38.8) scale(0.7)"/>
      <use xlink:href="#DejaVuSans-29" transform="translate(1180.454271 0.51875)"/>
     </g>
    </g>
   </g>
   <g id="line2d_11">
    <path d="M 73.832727 53.568 
L 77.112073 53.624131 
L 80.391404 53.700773 
L 83.670734 53.757833 
L 86.95008 53.822689 
L 90.229426 53.9069 
L 93.508757 53.979827 
L 96.788103 54.052526 
L 100.067434 54.134971 
L 103.34678 54.208385 
L 106.62611 54.312545 
L 109.905456 54.441435 
L 113.184795 54.563854 
L 116.464133 54.689835 
L 119.743479 54.829888 
L 123.022809 54.950296 
L 126.302148 55.117774 
L 129.581486 55.295562 
L 132.860824 55.462461 
L 136.140163 55.642975 
L 139.419493 55.878979 
L 142.698847 56.120602 
L 145.978178 56.39521 
L 149.257516 56.656828 
L 152.536862 56.997997 
L 155.816192 57.371968 
L 159.095538 57.761181 
L 162.374869 58.138852 
L 165.654215 58.587303 
L 168.933553 59.128463 
L 172.212892 59.762026 
L 175.492234 60.499673 
L 178.771564 61.465147 
L 182.050914 62.751262 
L 185.330245 64.413633 
L 188.609583 66.678257 
L 191.888925 69.654215 
L 195.168256 73.599986 
L 198.447606 78.782275 
L 201.726936 85.302989 
L 205.006277 93.08859 
L 208.285621 101.808828 
L 211.564957 110.893839 
L 214.844301 120.061766 
L 218.123628 128.221444 
L 221.402982 134.757584 
L 224.682308 139.47525 
L 227.961652 142.053405 
L 231.240996 143.208285 
L 234.520323 143.440224 
L 237.799667 143.322008 
L 241.079004 142.992686 
L 244.358348 142.051379 
L 247.637684 139.37578 
L 250.917028 134.628952 
L 254.196364 128.060804 
L 257.475699 119.94247 
L 260.755035 110.782522 
L 264.034379 101.66209 
L 267.313716 92.98213 
L 270.59306 85.345658 
L 273.872394 78.882826 
L 277.151733 73.606093 
L 280.431067 69.629104 
L 283.710409 66.674953 
L 286.989755 64.558193 
L 290.269093 62.956049 
L 293.548424 61.704334 
L 296.827762 60.768905 
L 300.107108 60.084845 
L 303.386439 59.490753 
L 306.665785 58.972512 
L 309.945123 58.513082 
L 313.224462 58.124645 
L 316.503792 57.767425 
L 319.783138 57.427459 
L 323.062476 57.125425 
L 326.341815 56.811651 
L 329.621153 56.571383 
L 332.900491 56.362637 
L 336.179822 56.136211 
L 339.459168 55.921846 
L 342.738514 55.747804 
L 346.01786 55.597184 
L 349.297191 55.4347 
L 352.576521 55.274517 
L 355.855867 55.140632 
L 359.135213 55.007721 
L 362.414536 54.912287 
L 365.693882 54.812954 
L 368.97322 54.712419 
L 372.252566 54.596838 
L 375.531881 54.499957 
L 378.811227 54.415335 
L 382.090574 54.326951 
L 385.36992 54.278373 
L 388.649266 54.224558 
L 391.928581 54.15929 
L 395.207927 54.092439 
L 398.487273 54.020913 
" clip-path="url(#p0197b87775)" style="fill: none; stroke: #4169e1; stroke-width: 1.5; stroke-linecap: round"/>
   </g>
   <g id="line2d_12">
    <path d="M 73.832727 65.208659 
L 77.112073 66.218949 
L 80.391404 67.294933 
L 83.670734 68.539628 
L 86.95008 69.767938 
L 90.229426 71.210233 
L 93.508757 72.637923 
L 96.788103 74.376967 
L 100.067434 76.133599 
L 103.34678 78.111068 
L 106.62611 80.203098 
L 109.905456 82.428861 
L 113.184795 84.853411 
L 116.464133 87.425947 
L 119.743479 90.263177 
L 123.022809 93.31797 
L 126.302148 96.528455 
L 129.581486 100.060754 
L 132.860824 103.610992 
L 136.140163 107.463217 
L 139.419493 111.560431 
L 142.698847 115.647397 
L 145.978178 120.223503 
L 149.257516 124.994331 
L 152.536862 130.0715 
L 155.816192 135.051759 
L 159.095538 140.29525 
L 162.374869 145.591095 
L 165.654215 151.429591 
L 168.933553 156.997104 
L 172.212892 163.10363 
L 175.492234 169.050855 
L 178.771564 175.31062 
L 182.050914 181.525425 
L 185.330245 187.798218 
L 188.609583 194.053186 
L 191.888925 200.618518 
L 195.168256 206.931604 
L 198.447606 213.622026 
L 201.726936 220.621433 
L 205.006277 227.131114 
L 208.285621 234.175337 
L 211.564957 240.363752 
L 214.844301 246.007691 
L 218.123628 250.891544 
L 221.402982 254.884271 
L 224.682308 257.642886 
L 227.961652 259.572726 
L 231.240996 260.448853 
L 234.520323 260.701551 
L 237.799667 260.797134 
L 241.079004 260.337334 
L 244.358348 259.165912 
L 247.637684 257.333582 
L 250.917028 254.453812 
L 254.196364 250.351774 
L 257.475699 245.125632 
L 260.755035 239.657794 
L 264.034379 233.103366 
L 267.313716 226.592619 
L 270.59306 219.751988 
L 273.872394 212.504371 
L 277.151733 205.530707 
L 280.431067 198.870725 
L 283.710409 192.499521 
L 286.989755 186.110355 
L 290.269093 179.795343 
L 293.548424 173.67863 
L 296.827762 167.539638 
L 300.107108 161.856087 
L 303.386439 156.041696 
L 306.665785 150.502842 
L 309.945123 145.092071 
L 313.224462 139.781973 
L 316.503792 134.544315 
L 319.783138 129.362178 
L 323.062476 124.60632 
L 326.341815 120.014041 
L 329.621153 115.532456 
L 332.900491 111.467373 
L 336.179822 107.366808 
L 339.459168 103.500253 
L 342.738514 99.931666 
L 346.01786 96.433355 
L 349.297191 93.339167 
L 352.576521 90.288029 
L 355.855867 87.411176 
L 359.135213 84.845477 
L 362.414536 82.406826 
L 365.693882 80.046432 
L 368.97322 77.869993 
L 372.252566 75.966959 
L 375.531881 74.263747 
L 378.811227 72.718952 
L 382.090574 71.119214 
L 385.36992 69.774014 
L 388.649266 68.494157 
L 391.928581 67.218244 
L 395.207927 66.07448 
L 398.487273 65.059013 
" clip-path="url(#p0197b87775)" style="fill: none; stroke: #0000cd; stroke-width: 1.5; stroke-linecap: round"/>
   </g>
   <g id="line2d_13">
    <path d="M 73.832727 128.13967 
L 77.112073 131.956718 
L 80.391404 135.718687 
L 83.670734 139.525929 
L 86.95008 143.695644 
L 90.229426 147.868054 
L 93.508757 152.337351 
L 96.788103 156.718203 
L 100.067434 161.288674 
L 103.34678 165.476206 
L 106.62611 169.772177 
L 109.905456 174.275661 
L 113.184795 178.853472 
L 116.464133 183.477242 
L 119.743479 188.139021 
L 123.022809 192.691014 
L 126.302148 197.482132 
L 129.581486 202.180124 
L 132.860824 207.088803 
L 136.140163 211.636829 
L 139.419493 216.197798 
L 142.698847 220.64528 
L 145.978178 224.921508 
L 149.257516 229.197987 
L 152.536862 233.523493 
L 155.816192 237.871087 
L 159.095538 241.854357 
L 162.374869 245.241506 
L 165.654215 249.153951 
L 168.933553 253.319593 
L 172.212892 256.580711 
L 175.492234 259.820947 
L 178.771564 263.035993 
L 182.050914 266.327936 
L 185.330245 269.34389 
L 188.609583 271.766106 
L 191.888925 274.561451 
L 195.168256 276.882827 
L 198.447606 279.501171 
L 201.726936 282.362939 
L 205.006277 284.662211 
L 208.285621 286.835744 
L 211.564957 289.10033 
L 214.844301 290.874966 
L 218.123628 291.911319 
L 221.402982 293.107433 
L 224.682308 294.147715 
L 227.961652 294.642206 
L 231.240996 295.053178 
L 234.520323 295.488 
L 237.799667 295.41964 
L 241.079004 294.942406 
L 244.358348 294.992952 
L 247.637684 294.523724 
L 250.917028 293.413687 
L 254.196364 292.02867 
L 257.475699 290.275215 
L 260.755035 288.613571 
L 264.034379 285.917353 
L 267.313716 283.690458 
L 270.59306 282.097598 
L 273.872394 279.291816 
L 277.151733 276.988439 
L 280.431067 274.306857 
L 283.710409 271.652235 
L 286.989755 268.927418 
L 290.269093 265.970907 
L 293.548424 262.868872 
L 296.827762 259.411202 
L 300.107108 255.996471 
L 303.386439 252.504389 
L 306.665785 249.018802 
L 309.945123 245.457162 
L 313.224462 241.349121 
L 316.503792 237.235529 
L 319.783138 233.013391 
L 323.062476 228.997456 
L 326.341815 224.865515 
L 329.621153 220.50918 
L 332.900491 216.155053 
L 336.179822 211.569041 
L 339.459168 206.670153 
L 342.738514 201.621673 
L 346.01786 197.399475 
L 349.297191 193.057066 
L 352.576521 187.937866 
L 355.855867 183.193528 
L 359.135213 178.300938 
L 362.414536 173.777627 
L 365.693882 169.245515 
L 368.97322 164.654866 
L 372.252566 160.103125 
L 375.531881 155.663721 
L 378.811227 151.484641 
L 382.090574 147.135844 
L 385.36992 143.199285 
L 388.649266 138.977688 
L 391.928581 135.187867 
L 395.207927 131.228117 
L 398.487273 127.577998 
" clip-path="url(#p0197b87775)" style="fill: none; stroke: #191970; stroke-width: 1.5; stroke-linecap: round"/>
   </g>
   <g id="patch_3">
    <path d="M 57.6 307.584 
L 57.6 41.472 
" style="fill: none; stroke: #ffffff; stroke-width: 0.8; stroke-linejoin: miter; stroke-linecap: square"/>
   </g>
   <g id="patch_4">
    <path d="M 414.72 307.584 
L 414.72 41.472 
" style="fill: none; stroke: #ffffff; stroke-width: 0.8; stroke-linejoin: miter; stroke-linecap: square"/>
   </g>
   <g id="patch_5">
    <path d="M 57.6 307.584 
L 414.72 307.584 
" style="fill: none; stroke: #ffffff; stroke-width: 0.8; stroke-linejoin: miter; stroke-linecap: square"/>
   </g>
   <g id="patch_6">
    <path d="M 57.6 41.472 
L 414.72 41.472 
" style="fill: none; stroke: #ffffff; stroke-width: 0.8; stroke-linejoin: miter; stroke-linecap: square"/>
   </g>
   <g id="text_13">
    <!-- $\sigma = 1$ -->
    <g style="fill: #262626" transform="translate(221.16 35.472) scale(0.12 -0.12)">
     <defs>
      <path id="DejaVuSans-Oblique-3c3" d="M 2219 3044 
Q 1744 3044 1422 2700 
Q 1081 2341 969 1747 
Q 844 1119 1044 756 
Q 1241 397 1706 397 
Q 2166 397 2503 759 
Q 2844 1122 2966 1747 
Q 3075 2319 2881 2700 
Q 2700 3044 2219 3044 
z
M 2309 3503 
L 4219 3500 
L 4106 2925 
L 3463 2925 
Q 3706 2438 3575 1747 
Q 3406 888 2884 400 
Q 2359 -91 1609 -91 
Q 856 -91 525 400 
Q 194 888 363 1747 
Q 528 2609 1050 3097 
Q 1484 3503 2309 3503 
z
" transform="scale(0.015625)"/>
      <path id="DejaVuSans-3d" d="M 678 2906 
L 4684 2906 
L 4684 2381 
L 678 2381 
L 678 2906 
z
M 678 1631 
L 4684 1631 
L 4684 1100 
L 678 1100 
L 678 1631 
z
" transform="scale(0.015625)"/>
      <path id="DejaVuSans-31" d="M 794 531 
L 1825 531 
L 1825 4091 
L 703 3866 
L 703 4441 
L 1819 4666 
L 2450 4666 
L 2450 531 
L 3481 531 
L 3481 0 
L 794 0 
L 794 531 
z
" transform="scale(0.015625)"/>
     </defs>
     <use xlink:href="#DejaVuSans-Oblique-3c3" transform="translate(0 0.09375)"/>
     <use xlink:href="#DejaVuSans-3d" transform="translate(82.861328 0.09375)"/>
     <use xlink:href="#DejaVuSans-31" transform="translate(186.132812 0.09375)"/>
    </g>
   </g>
   <g id="legend_1">
    <g id="patch_7">
     <path d="M 64.6 302.584 
L 125.5 302.584 
Q 127.5 302.584 127.5 300.584 
L 127.5 259.148062 
Q 127.5 257.148062 125.5 257.148062 
L 64.6 257.148062 
Q 62.6 257.148062 62.6 259.148062 
L 62.6 300.584 
Q 62.6 302.584 64.6 302.584 
z
" style="fill: #eaeaf2; opacity: 0.8; stroke: #cccccc; stroke-linejoin: miter"/>
    </g>
    <g id="line2d_14">
     <path d="M 66.6 264.805875 
L 76.6 264.805875 
L 86.6 264.805875 
" style="fill: none; stroke: #4169e1; stroke-width: 1.5; stroke-linecap: round"/>
    </g>
    <g id="text_14">
     <!-- $n$ = 1 -->
     <g style="fill: #262626" transform="translate(94.6 268.305875) scale(0.1 -0.1)">
      <defs>
       <path id="ArialMT-3d" d="M 3381 2694 
L 356 2694 
L 356 3219 
L 3381 3219 
L 3381 2694 
z
M 3381 1303 
L 356 1303 
L 356 1828 
L 3381 1828 
L 3381 1303 
z
" transform="scale(0.015625)"/>
      </defs>
      <use xlink:href="#DejaVuSans-Oblique-6e" transform="translate(0 0.125)"/>
      <use xlink:href="#ArialMT-20" transform="translate(63.378906 0.125)"/>
      <use xlink:href="#ArialMT-3d" transform="translate(91.162109 0.125)"/>
      <use xlink:href="#ArialMT-20" transform="translate(149.560547 0.125)"/>
      <use xlink:href="#ArialMT-31" transform="translate(177.34375 0.125)"/>
     </g>
    </g>
    <g id="line2d_15">
     <path d="M 66.6 278.951187 
L 76.6 278.951187 
L 86.6 278.951187 
" style="fill: none; stroke: #0000cd; stroke-width: 1.5; stroke-linecap: round"/>
    </g>
    <g id="text_15">
     <!-- $n$ = 5 -->
     <g style="fill: #262626" transform="translate(94.6 282.451187) scale(0.1 -0.1)">
      <defs>
       <path id="ArialMT-35" d="M 266 1200 
L 856 1250 
Q 922 819 1161 601 
Q 1400 384 1738 384 
Q 2144 384 2425 690 
Q 2706 997 2706 1503 
Q 2706 1984 2436 2262 
Q 2166 2541 1728 2541 
Q 1456 2541 1237 2417 
Q 1019 2294 894 2097 
L 366 2166 
L 809 4519 
L 3088 4519 
L 3088 3981 
L 1259 3981 
L 1013 2750 
Q 1425 3038 1878 3038 
Q 2478 3038 2890 2622 
Q 3303 2206 3303 1553 
Q 3303 931 2941 478 
Q 2500 -78 1738 -78 
Q 1113 -78 717 272 
Q 322 622 266 1200 
z
" transform="scale(0.015625)"/>
      </defs>
      <use xlink:href="#DejaVuSans-Oblique-6e" transform="translate(0 0.390625)"/>
      <use xlink:href="#ArialMT-20" transform="translate(63.378906 0.390625)"/>
      <use xlink:href="#ArialMT-3d" transform="translate(91.162109 0.390625)"/>
      <use xlink:href="#ArialMT-20" transform="translate(149.560547 0.390625)"/>
      <use xlink:href="#ArialMT-35" transform="translate(177.34375 0.390625)"/>
     </g>
    </g>
    <g id="line2d_16">
     <path d="M 66.6 293.0965 
L 76.6 293.0965 
L 86.6 293.0965 
" style="fill: none; stroke: #191970; stroke-width: 1.5; stroke-linecap: round"/>
    </g>
    <g id="text_16">
     <!-- $n$ = 10 -->
     <g style="fill: #262626" transform="translate(94.6 296.5965) scale(0.1 -0.1)">
      <use xlink:href="#DejaVuSans-Oblique-6e" transform="translate(0 0.125)"/>
      <use xlink:href="#ArialMT-20" transform="translate(63.378906 0.125)"/>
      <use xlink:href="#ArialMT-3d" transform="translate(91.162109 0.125)"/>
      <use xlink:href="#ArialMT-20" transform="translate(149.560547 0.125)"/>
      <use xlink:href="#ArialMT-31" transform="translate(177.34375 0.125)"/>
      <use xlink:href="#ArialMT-30" transform="translate(232.958984 0.125)"/>
     </g>
    </g>
   </g>
  </g>
 </g>
 <defs>
  <clipPath id="p0197b87775">
   <rect x="57.6" y="41.472" width="357.12" height="266.112"/>
  </clipPath>
 </defs>
</svg>
