<?xml version="1.0" encoding="utf-8" standalone="no"?>
<!DOCTYPE svg PUBLIC "-//W3C//DTD SVG 1.1//EN"
  "http://www.w3.org/Graphics/SVG/1.1/DTD/svg11.dtd">
<svg xmlns:xlink="http://www.w3.org/1999/xlink" width="921.6pt" height="345.6pt" viewBox="0 0 921.6 345.6" xmlns="http://www.w3.org/2000/svg" version="1.1">
 <metadata>
  <rdf:RDF xmlns:dc="http://purl.org/dc/elements/1.1/" xmlns:cc="http://creativecommons.org/ns#" xmlns:rdf="http://www.w3.org/1999/02/22-rdf-syntax-ns#">
   <cc:Work>
    <dc:type rdf:resource="http://purl.org/dc/dcmitype/StillImage"/>
    <dc:date>2025-04-12T14:52:21.960293</dc:date>
    <dc:format>image/svg+xml</dc:format>
    <dc:creator>
     <cc:Agent>
      <dc:title>Matplotlib v3.10.1, https://matplotlib.org/</dc:title>
     </cc:Agent>
    </dc:creator>
   </cc:Work>
  </rdf:RDF>
 </metadata>
 <defs>
  <style type="text/css">*{stroke-linejoin: round; stroke-linecap: butt}</style>
 </defs>
 <g id="figure_1">
  <g id="patch_1">
   <path d="M 0 345.6 
L 921.6 345.6 
L 921.6 0 
L 0 0 
z
" style="fill: #ffffff"/>
  </g>
  <g id="axes_1">
   <g id="patch_2">
    <path d="M 115.2 307.584 
L 439.854545 307.584 
L 439.854545 41.472 
L 115.2 41.472 
z
" style="fill: #eaeaf2"/>
   </g>
   <g id="matplotlib.axis_1">
    <g id="xtick_1">
     <g id="line2d_1">
      <path d="M 159.471074 307.584 
L 159.471074 41.472 
" clip-path="url(#p44752847df)" style="fill: none; stroke: #ffffff; stroke-width: 0.8; stroke-linecap: round"/>
     </g>
     <g id="text_1">
      <!-- −2 -->
      <g style="fill: #262626" transform="translate(153.770293 321.741812) scale(0.1 -0.1)">
       <defs>
        <path id="ArialMT-2212" d="M 3381 1997 
L 356 1997 
L 356 2522 
L 3381 2522 
L 3381 1997 
z
" transform="scale(0.015625)"/>
        <path id="ArialMT-32" d="M 3222 541 
L 3222 0 
L 194 0 
Q 188 203 259 391 
Q 375 700 629 1000 
Q 884 1300 1366 1694 
Q 2113 2306 2375 2664 
Q 2638 3022 2638 3341 
Q 2638 3675 2398 3904 
Q 2159 4134 1775 4134 
Q 1369 4134 1125 3890 
Q 881 3647 878 3216 
L 300 3275 
Q 359 3922 746 4261 
Q 1134 4600 1788 4600 
Q 2447 4600 2831 4234 
Q 3216 3869 3216 3328 
Q 3216 3053 3103 2787 
Q 2991 2522 2730 2228 
Q 2469 1934 1863 1422 
Q 1356 997 1212 845 
Q 1069 694 975 541 
L 3222 541 
z
" transform="scale(0.015625)"/>
       </defs>
       <use xlink:href="#ArialMT-2212"/>
       <use xlink:href="#ArialMT-32" transform="translate(58.398438 0)"/>
      </g>
     </g>
    </g>
    <g id="xtick_2">
     <g id="line2d_2">
      <path d="M 218.499174 307.584 
L 218.499174 41.472 
" clip-path="url(#p44752847df)" style="fill: none; stroke: #ffffff; stroke-width: 0.8; stroke-linecap: round"/>
     </g>
     <g id="text_2">
      <!-- −1 -->
      <g style="fill: #262626" transform="translate(212.798392 321.741812) scale(0.1 -0.1)">
       <defs>
        <path id="ArialMT-31" d="M 2384 0 
L 1822 0 
L 1822 3584 
Q 1619 3391 1289 3197 
Q 959 3003 697 2906 
L 697 3450 
Q 1169 3672 1522 3987 
Q 1875 4303 2022 4600 
L 2384 4600 
L 2384 0 
z
" transform="scale(0.015625)"/>
       </defs>
       <use xlink:href="#ArialMT-2212"/>
       <use xlink:href="#ArialMT-31" transform="translate(58.398438 0)"/>
      </g>
     </g>
    </g>
    <g id="xtick_3">
     <g id="line2d_3">
      <path d="M 277.527273 307.584 
L 277.527273 41.472 
" clip-path="url(#p44752847df)" style="fill: none; stroke: #ffffff; stroke-width: 0.8; stroke-linecap: round"/>
     </g>
     <g id="text_3">
      <!-- 0 -->
      <g style="fill: #262626" transform="translate(274.746804 321.741812) scale(0.1 -0.1)">
       <defs>
        <path id="ArialMT-30" d="M 266 2259 
Q 266 3072 433 3567 
Q 600 4063 929 4331 
Q 1259 4600 1759 4600 
Q 2128 4600 2406 4451 
Q 2684 4303 2865 4023 
Q 3047 3744 3150 3342 
Q 3253 2941 3253 2259 
Q 3253 1453 3087 958 
Q 2922 463 2592 192 
Q 2263 -78 1759 -78 
Q 1097 -78 719 397 
Q 266 969 266 2259 
z
M 844 2259 
Q 844 1131 1108 757 
Q 1372 384 1759 384 
Q 2147 384 2411 759 
Q 2675 1134 2675 2259 
Q 2675 3391 2411 3762 
Q 2147 4134 1753 4134 
Q 1366 4134 1134 3806 
Q 844 3388 844 2259 
z
" transform="scale(0.015625)"/>
       </defs>
       <use xlink:href="#ArialMT-30"/>
      </g>
     </g>
    </g>
    <g id="xtick_4">
     <g id="line2d_4">
      <path d="M 336.555372 307.584 
L 336.555372 41.472 
" clip-path="url(#p44752847df)" style="fill: none; stroke: #ffffff; stroke-width: 0.8; stroke-linecap: round"/>
     </g>
     <g id="text_4">
      <!-- 1 -->
      <g style="fill: #262626" transform="translate(333.774903 321.741812) scale(0.1 -0.1)">
       <use xlink:href="#ArialMT-31"/>
      </g>
     </g>
    </g>
    <g id="xtick_5">
     <g id="line2d_5">
      <path d="M 395.583471 307.584 
L 395.583471 41.472 
" clip-path="url(#p44752847df)" style="fill: none; stroke: #ffffff; stroke-width: 0.8; stroke-linecap: round"/>
     </g>
     <g id="text_5">
      <!-- 2 -->
      <g style="fill: #262626" transform="translate(392.803002 321.741812) scale(0.1 -0.1)">
       <use xlink:href="#ArialMT-32"/>
      </g>
     </g>
    </g>
    <g id="text_6">
     <!-- x -->
     <g style="fill: #262626" transform="translate(275.027273 334.887125) scale(0.1 -0.1)">
      <defs>
       <path id="ArialMT-78" d="M 47 0 
L 1259 1725 
L 138 3319 
L 841 3319 
L 1350 2541 
Q 1494 2319 1581 2169 
Q 1719 2375 1834 2534 
L 2394 3319 
L 3066 3319 
L 1919 1756 
L 3153 0 
L 2463 0 
L 1781 1031 
L 1600 1309 
L 728 0 
L 47 0 
z
" transform="scale(0.015625)"/>
      </defs>
      <use xlink:href="#ArialMT-78"/>
     </g>
    </g>
   </g>
   <g id="matplotlib.axis_2">
    <g id="ytick_1">
     <g id="line2d_6">
      <path d="M 115.2 294.490944 
L 439.854545 294.490944 
" clip-path="url(#p44752847df)" style="fill: none; stroke: #ffffff; stroke-width: 0.8; stroke-linecap: round"/>
     </g>
     <g id="text_7">
      <!-- −6 -->
      <g style="fill: #262626" transform="translate(96.798438 298.06985) scale(0.1 -0.1)">
       <defs>
        <path id="ArialMT-36" d="M 3184 3459 
L 2625 3416 
Q 2550 3747 2413 3897 
Q 2184 4138 1850 4138 
Q 1581 4138 1378 3988 
Q 1113 3794 959 3422 
Q 806 3050 800 2363 
Q 1003 2672 1297 2822 
Q 1591 2972 1913 2972 
Q 2475 2972 2870 2558 
Q 3266 2144 3266 1488 
Q 3266 1056 3080 686 
Q 2894 316 2569 119 
Q 2244 -78 1831 -78 
Q 1128 -78 684 439 
Q 241 956 241 2144 
Q 241 3472 731 4075 
Q 1159 4600 1884 4600 
Q 2425 4600 2770 4297 
Q 3116 3994 3184 3459 
z
M 888 1484 
Q 888 1194 1011 928 
Q 1134 663 1356 523 
Q 1578 384 1822 384 
Q 2178 384 2434 671 
Q 2691 959 2691 1453 
Q 2691 1928 2437 2201 
Q 2184 2475 1800 2475 
Q 1419 2475 1153 2201 
Q 888 1928 888 1484 
z
" transform="scale(0.015625)"/>
       </defs>
       <use xlink:href="#ArialMT-2212"/>
       <use xlink:href="#ArialMT-36" transform="translate(58.398438 0)"/>
      </g>
     </g>
    </g>
    <g id="ytick_2">
     <g id="line2d_7">
      <path d="M 115.2 254.333123 
L 439.854545 254.333123 
" clip-path="url(#p44752847df)" style="fill: none; stroke: #ffffff; stroke-width: 0.8; stroke-linecap: round"/>
     </g>
     <g id="text_8">
      <!-- −5 -->
      <g style="fill: #262626" transform="translate(96.798438 257.91203) scale(0.1 -0.1)">
       <defs>
        <path id="ArialMT-35" d="M 266 1200 
L 856 1250 
Q 922 819 1161 601 
Q 1400 384 1738 384 
Q 2144 384 2425 690 
Q 2706 997 2706 1503 
Q 2706 1984 2436 2262 
Q 2166 2541 1728 2541 
Q 1456 2541 1237 2417 
Q 1019 2294 894 2097 
L 366 2166 
L 809 4519 
L 3088 4519 
L 3088 3981 
L 1259 3981 
L 1013 2750 
Q 1425 3038 1878 3038 
Q 2478 3038 2890 2622 
Q 3303 2206 3303 1553 
Q 3303 931 2941 478 
Q 2500 -78 1738 -78 
Q 1113 -78 717 272 
Q 322 622 266 1200 
z
" transform="scale(0.015625)"/>
       </defs>
       <use xlink:href="#ArialMT-2212"/>
       <use xlink:href="#ArialMT-35" transform="translate(58.398438 0)"/>
      </g>
     </g>
    </g>
    <g id="ytick_3">
     <g id="line2d_8">
      <path d="M 115.2 214.175302 
L 439.854545 214.175302 
" clip-path="url(#p44752847df)" style="fill: none; stroke: #ffffff; stroke-width: 0.8; stroke-linecap: round"/>
     </g>
     <g id="text_9">
      <!-- −4 -->
      <g style="fill: #262626" transform="translate(96.798438 217.754209) scale(0.1 -0.1)">
       <defs>
        <path id="ArialMT-34" d="M 2069 0 
L 2069 1097 
L 81 1097 
L 81 1613 
L 2172 4581 
L 2631 4581 
L 2631 1613 
L 3250 1613 
L 3250 1097 
L 2631 1097 
L 2631 0 
L 2069 0 
z
M 2069 1613 
L 2069 3678 
L 634 1613 
L 2069 1613 
z
" transform="scale(0.015625)"/>
       </defs>
       <use xlink:href="#ArialMT-2212"/>
       <use xlink:href="#ArialMT-34" transform="translate(58.398438 0)"/>
      </g>
     </g>
    </g>
    <g id="ytick_4">
     <g id="line2d_9">
      <path d="M 115.2 174.017481 
L 439.854545 174.017481 
" clip-path="url(#p44752847df)" style="fill: none; stroke: #ffffff; stroke-width: 0.8; stroke-linecap: round"/>
     </g>
     <g id="text_10">
      <!-- −3 -->
      <g style="fill: #262626" transform="translate(96.798438 177.596388) scale(0.1 -0.1)">
       <defs>
        <path id="ArialMT-33" d="M 269 1209 
L 831 1284 
Q 928 806 1161 595 
Q 1394 384 1728 384 
Q 2125 384 2398 659 
Q 2672 934 2672 1341 
Q 2672 1728 2419 1979 
Q 2166 2231 1775 2231 
Q 1616 2231 1378 2169 
L 1441 2663 
Q 1497 2656 1531 2656 
Q 1891 2656 2178 2843 
Q 2466 3031 2466 3422 
Q 2466 3731 2256 3934 
Q 2047 4138 1716 4138 
Q 1388 4138 1169 3931 
Q 950 3725 888 3313 
L 325 3413 
Q 428 3978 793 4289 
Q 1159 4600 1703 4600 
Q 2078 4600 2393 4439 
Q 2709 4278 2876 4000 
Q 3044 3722 3044 3409 
Q 3044 3113 2884 2869 
Q 2725 2625 2413 2481 
Q 2819 2388 3044 2092 
Q 3269 1797 3269 1353 
Q 3269 753 2831 336 
Q 2394 -81 1725 -81 
Q 1122 -81 723 278 
Q 325 638 269 1209 
z
" transform="scale(0.015625)"/>
       </defs>
       <use xlink:href="#ArialMT-2212"/>
       <use xlink:href="#ArialMT-33" transform="translate(58.398438 0)"/>
      </g>
     </g>
    </g>
    <g id="ytick_5">
     <g id="line2d_10">
      <path d="M 115.2 133.85966 
L 439.854545 133.85966 
" clip-path="url(#p44752847df)" style="fill: none; stroke: #ffffff; stroke-width: 0.8; stroke-linecap: round"/>
     </g>
     <g id="text_11">
      <!-- −2 -->
      <g style="fill: #262626" transform="translate(96.798438 137.438567) scale(0.1 -0.1)">
       <use xlink:href="#ArialMT-2212"/>
       <use xlink:href="#ArialMT-32" transform="translate(58.398438 0)"/>
      </g>
     </g>
    </g>
    <g id="ytick_6">
     <g id="line2d_11">
      <path d="M 115.2 93.70184 
L 439.854545 93.70184 
" clip-path="url(#p44752847df)" style="fill: none; stroke: #ffffff; stroke-width: 0.8; stroke-linecap: round"/>
     </g>
     <g id="text_12">
      <!-- −1 -->
      <g style="fill: #262626" transform="translate(96.798438 97.280746) scale(0.1 -0.1)">
       <use xlink:href="#ArialMT-2212"/>
       <use xlink:href="#ArialMT-31" transform="translate(58.398438 0)"/>
      </g>
     </g>
    </g>
    <g id="ytick_7">
     <g id="line2d_12">
      <path d="M 115.2 53.544019 
L 439.854545 53.544019 
" clip-path="url(#p44752847df)" style="fill: none; stroke: #ffffff; stroke-width: 0.8; stroke-linecap: round"/>
     </g>
     <g id="text_13">
      <!-- 0 -->
      <g style="fill: #262626" transform="translate(102.639063 57.122925) scale(0.1 -0.1)">
       <use xlink:href="#ArialMT-30"/>
      </g>
     </g>
    </g>
    <g id="text_14">
     <!-- f(x) -->
     <g style="fill: #262626" transform="translate(90.69375 181.74675) rotate(-90) scale(0.1 -0.1)">
      <defs>
       <path id="ArialMT-66" d="M 556 0 
L 556 2881 
L 59 2881 
L 59 3319 
L 556 3319 
L 556 3672 
Q 556 4006 616 4169 
Q 697 4388 901 4523 
Q 1106 4659 1475 4659 
Q 1713 4659 2000 4603 
L 1916 4113 
Q 1741 4144 1584 4144 
Q 1328 4144 1222 4034 
Q 1116 3925 1116 3625 
L 1116 3319 
L 1763 3319 
L 1763 2881 
L 1116 2881 
L 1116 0 
L 556 0 
z
" transform="scale(0.015625)"/>
       <path id="ArialMT-28" d="M 1497 -1347 
Q 1031 -759 709 28 
Q 388 816 388 1659 
Q 388 2403 628 3084 
Q 909 3875 1497 4659 
L 1900 4659 
Q 1522 4009 1400 3731 
Q 1209 3300 1100 2831 
Q 966 2247 966 1656 
Q 966 153 1900 -1347 
L 1497 -1347 
z
" transform="scale(0.015625)"/>
       <path id="ArialMT-29" d="M 791 -1347 
L 388 -1347 
Q 1322 153 1322 1656 
Q 1322 2244 1188 2822 
Q 1081 3291 891 3722 
Q 769 4003 388 4659 
L 791 4659 
Q 1378 3875 1659 3084 
Q 1900 2403 1900 1659 
Q 1900 816 1576 28 
Q 1253 -759 791 -1347 
z
" transform="scale(0.015625)"/>
      </defs>
      <use xlink:href="#ArialMT-66"/>
      <use xlink:href="#ArialMT-28" transform="translate(27.783203 0)"/>
      <use xlink:href="#ArialMT-78" transform="translate(61.083984 0)"/>
      <use xlink:href="#ArialMT-29" transform="translate(111.083984 0)"/>
     </g>
    </g>
   </g>
   <g id="line2d_13">
    <path d="M 129.957025 59.642718 
L 132.938248 59.519513 
L 135.919458 59.396306 
L 138.900668 59.273101 
L 141.881891 59.149894 
L 144.863115 59.026687 
L 147.844325 58.903483 
L 150.825548 58.780277 
L 153.806758 58.65707 
L 156.787982 58.533865 
L 159.769191 58.410658 
L 162.750415 58.287452 
L 165.731631 58.164246 
L 168.712848 58.04104 
L 171.694072 57.917834 
L 174.675281 57.794628 
L 177.656498 57.671423 
L 180.637715 57.548216 
L 183.618931 57.42501 
L 186.600148 57.301804 
L 189.581357 57.178598 
L 192.562588 57.055392 
L 195.543798 56.932185 
L 198.525014 56.80898 
L 201.506238 56.685774 
L 204.487448 56.562567 
L 207.468671 56.439361 
L 210.449881 56.316156 
L 213.431105 56.192949 
L 216.412321 56.069743 
L 219.393538 55.946537 
L 222.374758 55.823331 
L 225.355968 55.700125 
L 228.337195 55.576918 
L 231.318404 55.453713 
L 234.299621 55.330507 
L 237.280841 55.207301 
L 240.262051 55.084095 
L 243.243278 54.960888 
L 246.224488 54.837682 
L 249.205706 54.714476 
L 252.186928 54.59127 
L 255.168143 54.468064 
L 258.149365 54.344858 
L 261.130571 54.221652 
L 264.111801 54.098446 
L 267.093007 53.97524 
L 270.074229 53.852034 
L 273.055451 53.728828 
L 276.036657 53.605622 
L 279.017879 53.568 
L 281.999094 53.615963 
L 284.980316 53.663926 
L 287.961531 53.711888 
L 290.942753 53.759851 
L 293.923968 53.807814 
L 296.905181 53.855777 
L 299.886396 53.903739 
L 302.867618 53.951702 
L 305.848832 53.999665 
L 308.830054 54.047628 
L 311.811268 54.095591 
L 314.792484 54.143553 
L 317.773697 54.191516 
L 320.754917 54.239479 
L 323.736141 54.287442 
L 326.717358 54.335404 
L 329.698567 54.383367 
L 332.679784 54.43133 
L 335.661008 54.479293 
L 338.642217 54.527256 
L 341.623441 54.575219 
L 344.604658 54.623181 
L 347.585874 54.671144 
L 350.567084 54.719107 
L 353.548307 54.76707 
L 356.529524 54.815032 
L 359.510741 54.862995 
L 362.491957 54.910958 
L 365.473174 54.958921 
L 368.454384 55.006883 
L 371.435607 55.054846 
L 374.416831 55.102808 
L 377.398055 55.150772 
L 380.379264 55.198735 
L 383.360474 55.246697 
L 386.341697 55.29466 
L 389.322921 55.342623 
L 392.304124 55.390585 
L 395.285347 55.438548 
L 398.266564 55.486511 
L 401.247788 55.534473 
L 404.228983 55.582436 
L 407.210207 55.630399 
L 410.19143 55.678362 
L 413.172654 55.726325 
L 416.153878 55.774288 
L 419.135073 55.822251 
L 422.116297 55.870214 
L 425.097521 55.918177 
" clip-path="url(#p44752847df)" style="fill: none; stroke: #4169e1; stroke-width: 1.5; stroke-linecap: round"/>
   </g>
   <g id="line2d_14">
    <path d="M 129.957025 180.167741 
L 132.938248 178.505535 
L 135.919458 176.843328 
L 138.900668 175.181122 
L 141.881891 173.518915 
L 144.863115 171.85669 
L 147.844325 170.194502 
L 150.825548 168.532286 
L 153.806758 166.870089 
L 156.787982 165.207873 
L 159.769191 163.545667 
L 162.750415 161.88346 
L 165.731631 160.221254 
L 168.712848 158.559047 
L 171.694072 156.896831 
L 174.675281 155.234625 
L 177.656498 153.572428 
L 180.637715 151.910221 
L 183.618931 150.248005 
L 186.600148 148.585808 
L 189.581357 146.925622 
L 192.562588 145.274828 
L 195.543798 143.624054 
L 198.525014 141.973279 
L 201.506238 140.322485 
L 204.487448 138.67171 
L 207.468671 137.020926 
L 210.449881 135.370152 
L 213.431105 133.719367 
L 216.412321 132.068593 
L 219.393538 130.417837 
L 222.374758 128.767062 
L 225.355968 127.116307 
L 228.337195 125.465551 
L 231.318404 123.814777 
L 234.299621 122.151708 
L 237.280841 120.458874 
L 240.262051 118.766039 
L 243.243278 117.07329 
L 246.224488 115.379 
L 249.205706 113.678572 
L 252.186928 111.978145 
L 255.168143 110.277718 
L 258.149365 108.577281 
L 261.130571 106.876863 
L 264.111801 105.176421 
L 267.093007 103.475999 
L 270.074229 101.775571 
L 273.055451 100.075134 
L 276.036657 98.374707 
L 279.017879 96.67428 
L 281.999094 94.981248 
L 284.980316 93.288868 
L 287.961531 91.596029 
L 290.942753 89.891106 
L 293.923968 88.186188 
L 296.905181 86.492884 
L 299.886396 84.815857 
L 302.867618 83.138829 
L 305.848832 81.545012 
L 308.830054 79.966773 
L 311.811268 78.388534 
L 314.792484 76.899887 
L 317.773697 75.420599 
L 320.754917 73.968794 
L 323.736141 72.725448 
L 326.717358 71.599861 
L 329.698567 70.515264 
L 332.679784 69.444725 
L 335.661008 68.44929 
L 338.642217 67.507509 
L 341.623441 66.677517 
L 344.604658 65.936599 
L 347.585874 65.358647 
L 350.567084 64.988674 
L 353.548307 64.645797 
L 356.529524 64.30292 
L 359.510741 63.960042 
L 362.491957 63.738937 
L 365.473174 63.540273 
L 368.454384 63.34161 
L 371.435607 63.142946 
L 374.416831 62.952818 
L 377.398055 62.775283 
L 380.379264 62.611416 
L 383.360474 62.450454 
L 386.341697 62.289487 
L 389.322921 62.128518 
L 392.304124 61.967553 
L 395.285347 61.806589 
L 398.266564 61.674774 
L 401.247788 61.610339 
L 404.228983 61.545908 
L 407.210207 61.481475 
L 410.19143 61.417042 
L 413.172654 61.352611 
L 416.153878 61.288175 
L 419.135073 61.223745 
L 422.116297 61.159314 
L 425.097521 61.094878 
" clip-path="url(#p44752847df)" style="fill: none; stroke: #0000ff; stroke-width: 1.5; stroke-linecap: round"/>
   </g>
   <g id="line2d_15">
    <path d="M 129.957025 232.013159 
L 132.938248 230.062132 
L 135.919458 228.111067 
L 138.900668 226.16004 
L 141.881891 224.208975 
L 144.863115 222.257948 
L 147.844325 220.306882 
L 150.825548 218.355817 
L 153.806758 216.40479 
L 156.787982 214.453725 
L 159.769191 212.502669 
L 162.750415 210.549842 
L 165.731631 208.596058 
L 168.712848 206.642255 
L 171.694072 204.688451 
L 174.675281 202.734667 
L 177.656498 200.780882 
L 180.637715 198.827098 
L 183.618931 196.873294 
L 186.600148 194.919491 
L 189.581357 192.965707 
L 192.562588 191.011922 
L 195.543798 189.058119 
L 198.525014 187.104334 
L 201.506238 185.15055 
L 204.487448 183.196746 
L 207.468671 181.242953 
L 210.449881 179.289178 
L 213.431105 177.335355 
L 216.412321 175.381571 
L 219.393538 173.427786 
L 222.374758 171.473992 
L 225.355968 169.520198 
L 228.337195 167.566395 
L 231.318404 165.612601 
L 234.299621 163.658817 
L 237.280841 161.705023 
L 240.262051 159.751238 
L 243.243278 157.797435 
L 246.224488 155.84365 
L 249.205706 153.889301 
L 252.186928 151.925062 
L 255.168143 149.960832 
L 258.149365 147.996611 
L 261.130571 146.032381 
L 264.111801 144.068132 
L 267.093007 142.103912 
L 270.074229 140.144986 
L 273.055451 138.194045 
L 276.036657 136.243104 
L 279.017879 134.292144 
L 281.999094 132.33882 
L 284.980316 130.38359 
L 287.961531 128.428369 
L 290.942753 126.47312 
L 293.923968 124.517899 
L 296.905181 122.562669 
L 299.886396 120.607439 
L 302.867618 118.652209 
L 305.848832 116.696979 
L 308.830054 114.741758 
L 311.811268 112.786519 
L 314.792484 110.831298 
L 317.773697 108.876058 
L 320.754917 106.920828 
L 323.736141 104.965598 
L 326.717358 103.010368 
L 329.698567 101.055138 
L 332.679784 99.099913 
L 335.661008 97.144678 
L 338.642217 95.189448 
L 341.623441 93.234213 
L 344.604658 91.310535 
L 347.585874 89.510692 
L 350.567084 87.710869 
L 353.548307 85.911026 
L 356.529524 84.111193 
L 359.510741 82.311354 
L 362.491957 80.511516 
L 365.473174 78.816704 
L 368.454384 77.178266 
L 371.435607 75.807743 
L 374.416831 74.571586 
L 377.398055 73.335439 
L 380.379264 72.124138 
L 383.360474 71.424539 
L 386.341697 70.724944 
L 389.322921 70.025345 
L 392.304124 69.325751 
L 395.285347 68.626156 
L 398.266564 67.926562 
L 401.247788 67.226962 
L 404.228983 66.710195 
L 407.210207 66.393102 
L 410.19143 66.111539 
L 413.172654 65.880093 
L 416.153878 65.648646 
L 419.135073 65.417205 
L 422.116297 65.185759 
L 425.097521 64.954313 
" clip-path="url(#p44752847df)" style="fill: none; stroke: #0000cd; stroke-width: 1.5; stroke-linecap: round"/>
   </g>
   <g id="line2d_16">
    <path d="M 129.957025 295.488 
L 132.938248 293.459823 
L 135.919458 291.431684 
L 138.900668 289.403507 
L 141.881891 287.375329 
L 144.863115 285.347152 
L 147.844325 283.318994 
L 150.825548 281.290836 
L 153.806758 279.262678 
L 156.787982 277.234482 
L 159.769191 275.206304 
L 162.750415 273.178146 
L 165.731631 271.149969 
L 168.712848 269.121811 
L 171.694072 267.093615 
L 174.675281 265.065457 
L 177.656498 263.037298 
L 180.637715 261.00914 
L 183.618931 258.980963 
L 186.600148 256.952786 
L 189.581357 254.924628 
L 192.562588 252.896432 
L 195.543798 250.868273 
L 198.525014 248.840115 
L 201.506238 246.811938 
L 204.487448 244.78378 
L 207.468671 242.755603 
L 210.449881 240.727445 
L 213.431105 238.699268 
L 216.412321 236.67109 
L 219.393538 234.642932 
L 222.374758 232.614736 
L 225.355968 230.586597 
L 228.337195 228.55842 
L 231.318404 226.530262 
L 234.299621 224.502084 
L 237.280841 222.473907 
L 240.262051 220.445749 
L 243.243278 218.417572 
L 246.224488 216.389395 
L 249.205706 214.361237 
L 252.186928 212.333079 
L 255.168143 210.304882 
L 258.149365 208.276724 
L 261.130571 206.248547 
L 264.111801 204.22037 
L 267.093007 202.192212 
L 270.074229 200.164054 
L 273.055451 198.135857 
L 276.036657 196.107718 
L 279.017879 194.079541 
L 281.999094 192.051364 
L 284.980316 190.023187 
L 287.961531 187.995028 
L 290.942753 185.966851 
L 293.923968 183.938693 
L 296.905181 181.910535 
L 299.886396 179.882358 
L 302.867618 177.854162 
L 305.848832 175.826003 
L 308.830054 173.797845 
L 311.811268 171.769668 
L 314.792484 169.74151 
L 317.773697 167.713333 
L 320.754917 165.685175 
L 323.736141 163.656978 
L 326.717358 161.62882 
L 329.698567 159.600662 
L 332.679784 157.572466 
L 335.661008 155.544308 
L 338.642217 153.51615 
L 341.623441 151.487982 
L 344.604658 149.459814 
L 347.585874 147.431637 
L 350.567084 145.40347 
L 353.548307 143.375302 
L 356.529524 141.347125 
L 359.510741 139.318967 
L 362.491957 137.290789 
L 365.473174 135.262622 
L 368.454384 133.234454 
L 371.435607 131.206277 
L 374.416831 129.1781 
L 377.398055 127.149942 
L 380.379264 125.121764 
L 383.360474 123.093616 
L 386.341697 121.065429 
L 389.322921 119.037261 
L 392.304124 117.009094 
L 395.285347 114.980917 
L 398.266564 112.952758 
L 401.247788 110.924581 
L 404.228983 108.896423 
L 407.210207 106.868256 
L 410.19143 104.841333 
L 413.172654 102.821868 
L 416.153878 100.80922 
L 419.135073 98.803198 
L 422.116297 96.797138 
L 425.097521 94.791077 
" clip-path="url(#p44752847df)" style="fill: none; stroke: #191970; stroke-width: 1.5; stroke-linecap: round"/>
   </g>
   <g id="patch_3">
    <path d="M 115.2 307.584 
L 115.2 41.472 
" style="fill: none; stroke: #ffffff; stroke-width: 0.8; stroke-linejoin: miter; stroke-linecap: square"/>
   </g>
   <g id="patch_4">
    <path d="M 439.854545 307.584 
L 439.854545 41.472 
" style="fill: none; stroke: #ffffff; stroke-width: 0.8; stroke-linejoin: miter; stroke-linecap: square"/>
   </g>
   <g id="patch_5">
    <path d="M 115.2 307.584 
L 439.854545 307.584 
" style="fill: none; stroke: #ffffff; stroke-width: 0.8; stroke-linejoin: miter; stroke-linecap: square"/>
   </g>
   <g id="patch_6">
    <path d="M 115.2 41.472 
L 439.854545 41.472 
" style="fill: none; stroke: #ffffff; stroke-width: 0.8; stroke-linejoin: miter; stroke-linecap: square"/>
   </g>
   <g id="legend_1">
    <g id="patch_7">
     <path d="M 354.431108 302.584 
L 432.854545 302.584 
Q 434.854545 302.584 434.854545 300.584 
L 434.854545 244.913687 
Q 434.854545 242.913687 432.854545 242.913687 
L 354.431108 242.913687 
Q 352.431108 242.913687 352.431108 244.913687 
L 352.431108 300.584 
Q 352.431108 302.584 354.431108 302.584 
z
" style="fill: #eaeaf2; opacity: 0.8; stroke: #cccccc; stroke-linejoin: miter"/>
    </g>
    <g id="line2d_17">
     <path d="M 356.431108 250.601187 
L 366.431108 250.601187 
L 376.431108 250.601187 
" style="fill: none; stroke: #4169e1; stroke-width: 1.5; stroke-linecap: round"/>
    </g>
    <g id="text_15">
     <!-- steps=0 -->
     <g style="fill: #262626" transform="translate(384.431108 254.101187) scale(0.1 -0.1)">
      <defs>
       <path id="ArialMT-73" d="M 197 991 
L 753 1078 
Q 800 744 1014 566 
Q 1228 388 1613 388 
Q 2000 388 2187 545 
Q 2375 703 2375 916 
Q 2375 1106 2209 1216 
Q 2094 1291 1634 1406 
Q 1016 1563 777 1677 
Q 538 1791 414 1992 
Q 291 2194 291 2438 
Q 291 2659 392 2848 
Q 494 3038 669 3163 
Q 800 3259 1026 3326 
Q 1253 3394 1513 3394 
Q 1903 3394 2198 3281 
Q 2494 3169 2634 2976 
Q 2775 2784 2828 2463 
L 2278 2388 
Q 2241 2644 2061 2787 
Q 1881 2931 1553 2931 
Q 1166 2931 1000 2803 
Q 834 2675 834 2503 
Q 834 2394 903 2306 
Q 972 2216 1119 2156 
Q 1203 2125 1616 2013 
Q 2213 1853 2448 1751 
Q 2684 1650 2818 1456 
Q 2953 1263 2953 975 
Q 2953 694 2789 445 
Q 2625 197 2315 61 
Q 2006 -75 1616 -75 
Q 969 -75 630 194 
Q 291 463 197 991 
z
" transform="scale(0.015625)"/>
       <path id="ArialMT-74" d="M 1650 503 
L 1731 6 
Q 1494 -44 1306 -44 
Q 1000 -44 831 53 
Q 663 150 594 308 
Q 525 466 525 972 
L 525 2881 
L 113 2881 
L 113 3319 
L 525 3319 
L 525 4141 
L 1084 4478 
L 1084 3319 
L 1650 3319 
L 1650 2881 
L 1084 2881 
L 1084 941 
Q 1084 700 1114 631 
Q 1144 563 1211 522 
Q 1278 481 1403 481 
Q 1497 481 1650 503 
z
" transform="scale(0.015625)"/>
       <path id="ArialMT-65" d="M 2694 1069 
L 3275 997 
Q 3138 488 2766 206 
Q 2394 -75 1816 -75 
Q 1088 -75 661 373 
Q 234 822 234 1631 
Q 234 2469 665 2931 
Q 1097 3394 1784 3394 
Q 2450 3394 2872 2941 
Q 3294 2488 3294 1666 
Q 3294 1616 3291 1516 
L 816 1516 
Q 847 969 1125 678 
Q 1403 388 1819 388 
Q 2128 388 2347 550 
Q 2566 713 2694 1069 
z
M 847 1978 
L 2700 1978 
Q 2663 2397 2488 2606 
Q 2219 2931 1791 2931 
Q 1403 2931 1139 2672 
Q 875 2413 847 1978 
z
" transform="scale(0.015625)"/>
       <path id="ArialMT-70" d="M 422 -1272 
L 422 3319 
L 934 3319 
L 934 2888 
Q 1116 3141 1344 3267 
Q 1572 3394 1897 3394 
Q 2322 3394 2647 3175 
Q 2972 2956 3137 2557 
Q 3303 2159 3303 1684 
Q 3303 1175 3120 767 
Q 2938 359 2589 142 
Q 2241 -75 1856 -75 
Q 1575 -75 1351 44 
Q 1128 163 984 344 
L 984 -1272 
L 422 -1272 
z
M 931 1641 
Q 931 1000 1190 694 
Q 1450 388 1819 388 
Q 2194 388 2461 705 
Q 2728 1022 2728 1688 
Q 2728 2322 2467 2637 
Q 2206 2953 1844 2953 
Q 1484 2953 1207 2617 
Q 931 2281 931 1641 
z
" transform="scale(0.015625)"/>
       <path id="ArialMT-3d" d="M 3381 2694 
L 356 2694 
L 356 3219 
L 3381 3219 
L 3381 2694 
z
M 3381 1303 
L 356 1303 
L 356 1828 
L 3381 1828 
L 3381 1303 
z
" transform="scale(0.015625)"/>
      </defs>
      <use xlink:href="#ArialMT-73"/>
      <use xlink:href="#ArialMT-74" transform="translate(50 0)"/>
      <use xlink:href="#ArialMT-65" transform="translate(77.783203 0)"/>
      <use xlink:href="#ArialMT-70" transform="translate(133.398438 0)"/>
      <use xlink:href="#ArialMT-73" transform="translate(189.013672 0)"/>
      <use xlink:href="#ArialMT-3d" transform="translate(239.013672 0)"/>
      <use xlink:href="#ArialMT-30" transform="translate(297.412109 0)"/>
     </g>
    </g>
    <g id="line2d_18">
     <path d="M 356.431108 264.7465 
L 366.431108 264.7465 
L 376.431108 264.7465 
" style="fill: none; stroke: #0000ff; stroke-width: 1.5; stroke-linecap: round"/>
    </g>
    <g id="text_16">
     <!-- steps=5 -->
     <g style="fill: #262626" transform="translate(384.431108 268.2465) scale(0.1 -0.1)">
      <use xlink:href="#ArialMT-73"/>
      <use xlink:href="#ArialMT-74" transform="translate(50 0)"/>
      <use xlink:href="#ArialMT-65" transform="translate(77.783203 0)"/>
      <use xlink:href="#ArialMT-70" transform="translate(133.398438 0)"/>
      <use xlink:href="#ArialMT-73" transform="translate(189.013672 0)"/>
      <use xlink:href="#ArialMT-3d" transform="translate(239.013672 0)"/>
      <use xlink:href="#ArialMT-35" transform="translate(297.412109 0)"/>
     </g>
    </g>
    <g id="line2d_19">
     <path d="M 356.431108 278.9215 
L 366.431108 278.9215 
L 376.431108 278.9215 
" style="fill: none; stroke: #0000cd; stroke-width: 1.5; stroke-linecap: round"/>
    </g>
    <g id="text_17">
     <!-- steps=10 -->
     <g style="fill: #262626" transform="translate(384.431108 282.4215) scale(0.1 -0.1)">
      <use xlink:href="#ArialMT-73"/>
      <use xlink:href="#ArialMT-74" transform="translate(50 0)"/>
      <use xlink:href="#ArialMT-65" transform="translate(77.783203 0)"/>
      <use xlink:href="#ArialMT-70" transform="translate(133.398438 0)"/>
      <use xlink:href="#ArialMT-73" transform="translate(189.013672 0)"/>
      <use xlink:href="#ArialMT-3d" transform="translate(239.013672 0)"/>
      <use xlink:href="#ArialMT-31" transform="translate(297.412109 0)"/>
      <use xlink:href="#ArialMT-30" transform="translate(353.027344 0)"/>
     </g>
    </g>
    <g id="line2d_20">
     <path d="M 356.431108 293.0965 
L 366.431108 293.0965 
L 376.431108 293.0965 
" style="fill: none; stroke: #191970; stroke-width: 1.5; stroke-linecap: round"/>
    </g>
    <g id="text_18">
     <!-- steps=100 -->
     <g style="fill: #262626" transform="translate(384.431108 296.5965) scale(0.1 -0.1)">
      <use xlink:href="#ArialMT-73"/>
      <use xlink:href="#ArialMT-74" transform="translate(50 0)"/>
      <use xlink:href="#ArialMT-65" transform="translate(77.783203 0)"/>
      <use xlink:href="#ArialMT-70" transform="translate(133.398438 0)"/>
      <use xlink:href="#ArialMT-73" transform="translate(189.013672 0)"/>
      <use xlink:href="#ArialMT-3d" transform="translate(239.013672 0)"/>
      <use xlink:href="#ArialMT-31" transform="translate(297.412109 0)"/>
      <use xlink:href="#ArialMT-30" transform="translate(353.027344 0)"/>
      <use xlink:href="#ArialMT-30" transform="translate(408.642578 0)"/>
     </g>
    </g>
   </g>
  </g>
  <g id="axes_2">
   <g id="patch_8">
    <path d="M 504.785455 307.584 
L 829.44 307.584 
L 829.44 41.472 
L 504.785455 41.472 
z
" style="fill: #eaeaf2"/>
   </g>
   <g id="matplotlib.axis_3">
    <g id="xtick_6">
     <g id="line2d_21">
      <path d="M 549.056529 307.584 
L 549.056529 41.472 
" clip-path="url(#p5d8f1cf1b0)" style="fill: none; stroke: #ffffff; stroke-width: 0.8; stroke-linecap: round"/>
     </g>
     <g id="text_19">
      <!-- −2 -->
      <g style="fill: #262626" transform="translate(543.355748 321.741812) scale(0.1 -0.1)">
       <use xlink:href="#ArialMT-2212"/>
       <use xlink:href="#ArialMT-32" transform="translate(58.398438 0)"/>
      </g>
     </g>
    </g>
    <g id="xtick_7">
     <g id="line2d_22">
      <path d="M 608.084628 307.584 
L 608.084628 41.472 
" clip-path="url(#p5d8f1cf1b0)" style="fill: none; stroke: #ffffff; stroke-width: 0.8; stroke-linecap: round"/>
     </g>
     <g id="text_20">
      <!-- −1 -->
      <g style="fill: #262626" transform="translate(602.383847 321.741812) scale(0.1 -0.1)">
       <use xlink:href="#ArialMT-2212"/>
       <use xlink:href="#ArialMT-31" transform="translate(58.398438 0)"/>
      </g>
     </g>
    </g>
    <g id="xtick_8">
     <g id="line2d_23">
      <path d="M 667.112727 307.584 
L 667.112727 41.472 
" clip-path="url(#p5d8f1cf1b0)" style="fill: none; stroke: #ffffff; stroke-width: 0.8; stroke-linecap: round"/>
     </g>
     <g id="text_21">
      <!-- 0 -->
      <g style="fill: #262626" transform="translate(664.332259 321.741812) scale(0.1 -0.1)">
       <use xlink:href="#ArialMT-30"/>
      </g>
     </g>
    </g>
    <g id="xtick_9">
     <g id="line2d_24">
      <path d="M 726.140826 307.584 
L 726.140826 41.472 
" clip-path="url(#p5d8f1cf1b0)" style="fill: none; stroke: #ffffff; stroke-width: 0.8; stroke-linecap: round"/>
     </g>
     <g id="text_22">
      <!-- 1 -->
      <g style="fill: #262626" transform="translate(723.360358 321.741812) scale(0.1 -0.1)">
       <use xlink:href="#ArialMT-31"/>
      </g>
     </g>
    </g>
    <g id="xtick_10">
     <g id="line2d_25">
      <path d="M 785.168926 307.584 
L 785.168926 41.472 
" clip-path="url(#p5d8f1cf1b0)" style="fill: none; stroke: #ffffff; stroke-width: 0.8; stroke-linecap: round"/>
     </g>
     <g id="text_23">
      <!-- 2 -->
      <g style="fill: #262626" transform="translate(782.388457 321.741812) scale(0.1 -0.1)">
       <use xlink:href="#ArialMT-32"/>
      </g>
     </g>
    </g>
    <g id="text_24">
     <!-- x -->
     <g style="fill: #262626" transform="translate(664.612727 334.887125) scale(0.1 -0.1)">
      <use xlink:href="#ArialMT-78"/>
     </g>
    </g>
   </g>
   <g id="matplotlib.axis_4">
    <g id="ytick_8">
     <g id="line2d_26">
      <path d="M 504.785455 294.490944 
L 829.44 294.490944 
" clip-path="url(#p5d8f1cf1b0)" style="fill: none; stroke: #ffffff; stroke-width: 0.8; stroke-linecap: round"/>
     </g>
    </g>
    <g id="ytick_9">
     <g id="line2d_27">
      <path d="M 504.785455 254.333123 
L 829.44 254.333123 
" clip-path="url(#p5d8f1cf1b0)" style="fill: none; stroke: #ffffff; stroke-width: 0.8; stroke-linecap: round"/>
     </g>
    </g>
    <g id="ytick_10">
     <g id="line2d_28">
      <path d="M 504.785455 214.175302 
L 829.44 214.175302 
" clip-path="url(#p5d8f1cf1b0)" style="fill: none; stroke: #ffffff; stroke-width: 0.8; stroke-linecap: round"/>
     </g>
    </g>
    <g id="ytick_11">
     <g id="line2d_29">
      <path d="M 504.785455 174.017481 
L 829.44 174.017481 
" clip-path="url(#p5d8f1cf1b0)" style="fill: none; stroke: #ffffff; stroke-width: 0.8; stroke-linecap: round"/>
     </g>
    </g>
    <g id="ytick_12">
     <g id="line2d_30">
      <path d="M 504.785455 133.85966 
L 829.44 133.85966 
" clip-path="url(#p5d8f1cf1b0)" style="fill: none; stroke: #ffffff; stroke-width: 0.8; stroke-linecap: round"/>
     </g>
    </g>
    <g id="ytick_13">
     <g id="line2d_31">
      <path d="M 504.785455 93.70184 
L 829.44 93.70184 
" clip-path="url(#p5d8f1cf1b0)" style="fill: none; stroke: #ffffff; stroke-width: 0.8; stroke-linecap: round"/>
     </g>
    </g>
    <g id="ytick_14">
     <g id="line2d_32">
      <path d="M 504.785455 53.544019 
L 829.44 53.544019 
" clip-path="url(#p5d8f1cf1b0)" style="fill: none; stroke: #ffffff; stroke-width: 0.8; stroke-linecap: round"/>
     </g>
    </g>
    <g id="text_25">
     <!-- Pf(x) -->
     <g style="fill: #262626" transform="translate(498.680767 185.081906) rotate(-90) scale(0.1 -0.1)">
      <defs>
       <path id="ArialMT-50" d="M 494 0 
L 494 4581 
L 2222 4581 
Q 2678 4581 2919 4538 
Q 3256 4481 3484 4323 
Q 3713 4166 3852 3881 
Q 3991 3597 3991 3256 
Q 3991 2672 3619 2267 
Q 3247 1863 2275 1863 
L 1100 1863 
L 1100 0 
L 494 0 
z
M 1100 2403 
L 2284 2403 
Q 2872 2403 3119 2622 
Q 3366 2841 3366 3238 
Q 3366 3525 3220 3729 
Q 3075 3934 2838 4000 
Q 2684 4041 2272 4041 
L 1100 4041 
L 1100 2403 
z
" transform="scale(0.015625)"/>
      </defs>
      <use xlink:href="#ArialMT-50"/>
      <use xlink:href="#ArialMT-66" transform="translate(66.699219 0)"/>
      <use xlink:href="#ArialMT-28" transform="translate(94.482422 0)"/>
      <use xlink:href="#ArialMT-78" transform="translate(127.783203 0)"/>
      <use xlink:href="#ArialMT-29" transform="translate(177.783203 0)"/>
     </g>
    </g>
   </g>
   <g id="line2d_33">
    <path d="M 519.542479 58.681078 
L 522.523703 58.549629 
L 525.504913 58.431522 
L 528.486122 58.308893 
L 531.467346 58.192676 
L 534.44857 58.06783 
L 537.429779 57.942267 
L 540.411003 57.83106 
L 543.392212 57.705009 
L 546.373436 57.585563 
L 549.354646 57.464755 
L 552.335869 57.36621 
L 555.317086 57.28225 
L 558.298303 57.209272 
L 561.279526 57.128433 
L 564.260736 57.057081 
L 567.241952 56.985478 
L 570.223169 56.917481 
L 573.204386 56.851565 
L 576.185602 56.79768 
L 579.166812 56.734446 
L 582.148043 56.672137 
L 585.129252 56.614173 
L 588.110469 56.544966 
L 591.091693 56.478037 
L 594.072902 56.402177 
L 597.054126 56.325445 
L 600.035335 56.236382 
L 603.016559 56.141662 
L 605.997776 56.039686 
L 608.978992 55.928872 
L 611.960213 55.818256 
L 614.941422 55.70901 
L 617.922649 55.607096 
L 620.903859 55.510706 
L 623.885076 55.425578 
L 626.866296 55.34616 
L 629.847505 55.272394 
L 632.828732 55.20183 
L 635.809942 55.137057 
L 638.79116 55.08039 
L 641.772382 55.022569 
L 644.753597 54.971685 
L 647.734819 54.922656 
L 650.716025 54.881734 
L 653.697256 54.835428 
L 656.678462 54.805734 
L 659.659684 54.769428 
L 662.640906 54.747153 
L 665.622112 54.722374 
L 668.603334 54.70203 
L 671.584549 54.656059 
L 674.565771 54.615708 
L 677.546985 54.578166 
L 680.528207 54.541529 
L 683.509422 54.510296 
L 686.490635 54.478958 
L 689.47185 54.457312 
L 692.453072 54.439758 
L 695.434287 54.412587 
L 698.415509 54.398594 
L 701.396722 54.389869 
L 704.377939 54.381998 
L 707.359152 54.38058 
L 710.340372 54.387049 
L 713.321596 54.396247 
L 716.302812 54.412681 
L 719.284022 54.436076 
L 722.265238 54.465448 
L 725.246462 54.501772 
L 728.227672 54.542313 
L 731.208895 54.584889 
L 734.190112 54.624719 
L 737.171329 54.660521 
L 740.152538 54.694296 
L 743.133762 54.724576 
L 746.114979 54.751738 
L 749.096195 54.7759 
L 752.077412 54.799427 
L 755.058628 54.824327 
L 758.039838 54.84699 
L 761.021062 54.868669 
L 764.002285 54.890879 
L 766.983509 54.914392 
L 769.964719 54.940057 
L 772.945928 54.965367 
L 775.927152 54.99217 
L 778.908376 55.023741 
L 781.889578 55.055375 
L 784.870802 55.08949 
L 787.852018 55.131883 
L 790.833242 55.178773 
L 793.814438 55.223176 
L 796.795661 55.267307 
L 799.776885 55.312061 
L 802.758109 55.360324 
L 805.739332 55.406694 
L 808.720528 55.454405 
L 811.701752 55.500291 
L 814.682975 55.546834 
" clip-path="url(#p5d8f1cf1b0)" style="fill: none; stroke: #4169e1; stroke-width: 1.5; stroke-linecap: round"/>
   </g>
   <g id="line2d_34">
    <path d="M 519.542479 167.114006 
L 522.523703 165.315403 
L 525.504913 163.706794 
L 528.486122 162.025027 
L 531.467346 160.44875 
L 534.44857 158.722262 
L 537.429779 157.00595 
L 540.411003 155.482745 
L 543.392212 153.748481 
L 546.373436 152.109004 
L 549.354646 150.400707 
L 552.335869 149.037288 
L 555.317086 147.844561 
L 558.298303 146.856055 
L 561.279526 145.686919 
L 564.260736 144.685947 
L 567.241952 143.676598 
L 570.223169 142.743834 
L 573.204386 141.787517 
L 576.185602 141.053871 
L 579.166812 140.169085 
L 582.148043 139.322854 
L 585.129252 138.594608 
L 588.110469 137.596317 
L 591.091693 136.723891 
L 594.072902 135.73414 
L 597.054126 134.771792 
L 600.035335 133.623523 
L 603.016559 132.409517 
L 605.997776 131.093438 
L 608.978992 129.575546 
L 611.960213 127.971092 
L 614.941422 126.193548 
L 617.922649 124.513758 
L 620.903859 122.77219 
L 623.885076 121.204281 
L 626.866296 119.538427 
L 629.847505 117.924303 
L 632.828732 116.167248 
L 635.809942 114.604256 
L 638.79116 113.088829 
L 641.772382 111.405014 
L 644.753597 109.810101 
L 647.734819 108.299279 
L 650.716025 106.812882 
L 653.697256 105.235361 
L 656.678462 103.938163 
L 659.659684 102.485855 
L 662.640906 101.363902 
L 665.622112 100.081243 
L 668.603334 98.914467 
L 671.584549 97.553982 
L 674.565771 96.136822 
L 677.546985 94.616723 
L 680.528207 93.006099 
L 683.509422 91.364949 
L 686.490635 89.594408 
L 689.47185 87.904257 
L 692.453072 86.293263 
L 695.434287 84.341236 
L 698.415509 82.564668 
L 701.396722 80.908338 
L 704.377939 79.151523 
L 707.359152 77.493064 
L 710.340372 75.927205 
L 713.321596 74.36337 
L 716.302812 72.975092 
L 719.284022 71.661933 
L 722.265238 70.408323 
L 725.246462 69.327101 
L 728.227672 68.426481 
L 731.208895 67.801387 
L 734.190112 67.325438 
L 737.171329 67.003675 
L 740.152538 66.898743 
L 743.133762 66.921049 
L 746.114979 66.787292 
L 749.096195 66.695104 
L 752.077412 66.731177 
L 755.058628 66.806129 
L 758.039838 66.80654 
L 761.021062 66.74097 
L 764.002285 66.726871 
L 766.983509 66.66345 
L 769.964719 66.621771 
L 772.945928 66.481034 
L 775.927152 66.376272 
L 778.908376 66.178182 
L 781.889578 65.978292 
L 784.870802 65.778732 
L 787.852018 65.406648 
L 790.833242 65.009793 
L 793.814438 64.787917 
L 796.795661 64.449884 
L 799.776885 64.165731 
L 802.758109 63.868009 
L 805.739332 63.634152 
L 808.720528 63.390216 
L 811.701752 63.183538 
L 814.682975 62.975634 
" clip-path="url(#p5d8f1cf1b0)" style="fill: none; stroke: #0000ff; stroke-width: 1.5; stroke-linecap: round"/>
   </g>
   <g id="line2d_35">
    <path d="M 519.542479 216.670594 
L 522.523703 214.558086 
L 525.504913 212.667339 
L 528.486122 210.69026 
L 531.467346 208.838596 
L 534.44857 206.808801 
L 537.429779 204.79308 
L 540.411003 203.003142 
L 543.392212 200.965572 
L 546.373436 199.038864 
L 549.354646 197.026772 
L 552.335869 195.422902 
L 555.317086 194.016972 
L 558.298303 192.850067 
L 561.279526 191.468246 
L 564.260736 190.28404 
L 567.241952 189.090155 
L 570.223169 187.990758 
L 573.204386 186.855085 
L 576.185602 185.988374 
L 579.166812 184.939052 
L 582.148043 183.93292 
L 585.129252 183.066746 
L 588.110469 181.874545 
L 591.091693 180.841183 
L 594.072902 179.667509 
L 597.054126 178.530524 
L 600.035335 177.173759 
L 603.016559 175.740351 
L 605.997776 174.185923 
L 608.978992 172.386832 
L 611.960213 170.479196 
L 614.941422 168.353188 
L 617.922649 166.344715 
L 620.903859 164.25214 
L 623.885076 162.377096 
L 626.866296 160.40445 
L 629.847505 158.481112 
L 632.828732 156.36959 
L 635.809942 154.496201 
L 638.79116 152.666999 
L 641.772382 150.617337 
L 644.753597 148.659933 
L 647.734819 146.809763 
L 650.716025 144.962273 
L 653.697256 142.974356 
L 656.678462 141.300086 
L 659.659684 139.436262 
L 662.640906 137.977032 
L 665.622112 136.290947 
L 668.603334 134.765109 
L 671.584549 133.100025 
L 674.565771 131.426138 
L 677.546985 129.620258 
L 680.528207 127.771586 
L 683.509422 125.876809 
L 686.490635 123.885498 
L 689.47185 121.967948 
L 692.453072 120.201926 
L 695.434287 118.009036 
L 698.415509 115.987934 
L 701.396722 114.159613 
L 704.377939 112.135299 
L 707.359152 110.2032 
L 710.340372 108.348185 
L 713.321596 106.256798 
L 716.302812 104.225284 
L 719.284022 102.180045 
L 722.265238 100.142231 
L 725.246462 98.185235 
L 728.227672 96.373644 
L 731.208895 94.800317 
L 734.190112 93.400122 
L 737.171329 92.180553 
L 740.152538 91.074156 
L 743.133762 90.197153 
L 746.114979 89.123632 
L 749.096195 88.180436 
L 752.077412 87.314944 
L 755.058628 86.550895 
L 758.039838 85.756974 
L 761.021062 85.02812 
L 764.002285 84.442672 
L 766.983509 83.761793 
L 769.964719 83.074338 
L 772.945928 82.523235 
L 775.927152 82.008402 
L 778.908376 81.290688 
L 781.889578 80.566555 
L 784.870802 79.829165 
L 787.852018 78.748923 
L 790.833242 77.558287 
L 793.814438 76.710065 
L 796.795661 75.800909 
L 799.776885 75.026817 
L 802.758109 74.192499 
L 805.739332 73.497619 
L 808.720528 72.765198 
L 811.701752 72.147959 
L 814.682975 71.515718 
" clip-path="url(#p5d8f1cf1b0)" style="fill: none; stroke: #0000cd; stroke-width: 1.5; stroke-linecap: round"/>
   </g>
   <g id="line2d_36">
    <path d="M 519.542479 279.550445 
L 522.523703 277.355674 
L 525.504913 275.391147 
L 528.486122 273.336947 
L 531.467346 271.413092 
L 534.44857 269.304547 
L 537.429779 267.210479 
L 540.411003 265.351022 
L 543.392212 263.234243 
L 546.373436 261.232817 
L 549.354646 259.142579 
L 552.335869 257.477615 
L 555.317086 256.018078 
L 558.298303 254.806174 
L 561.279526 253.371512 
L 564.260736 252.141914 
L 567.241952 250.902205 
L 570.223169 249.760997 
L 573.204386 248.581646 
L 576.185602 247.681808 
L 579.166812 246.592685 
L 582.148043 245.548428 
L 585.129252 244.649126 
L 588.110469 243.411869 
L 591.091693 242.33929 
L 594.072902 241.121219 
L 597.054126 239.941063 
L 600.035335 238.532654 
L 603.016559 237.044682 
L 605.997776 235.430999 
L 608.978992 233.563499 
L 611.960213 231.58348 
L 614.941422 229.377009 
L 617.922649 227.292382 
L 620.903859 225.120378 
L 623.885076 223.173449 
L 626.866296 221.125357 
L 629.847505 219.12755 
L 632.828732 216.934119 
L 635.809942 214.987496 
L 638.79116 213.085404 
L 641.772382 210.958046 
L 644.753597 208.923205 
L 647.734819 206.997942 
L 650.716025 205.069377 
L 653.697256 202.990063 
L 656.678462 201.229011 
L 659.659684 199.264321 
L 662.640906 197.715858 
L 665.622112 195.925355 
L 668.603334 194.31756 
L 671.584549 192.601478 
L 674.565771 190.885856 
L 677.546985 189.032316 
L 680.528207 187.13817 
L 683.509422 185.192495 
L 686.490635 183.148674 
L 689.47185 181.178498 
L 692.453072 179.366797 
L 695.434287 177.107744 
L 698.415509 175.024408 
L 701.396722 173.141991 
L 704.377939 171.054922 
L 707.359152 169.061146 
L 710.340372 167.146961 
L 713.321596 164.984273 
L 716.302812 162.882316 
L 719.284022 160.763718 
L 722.265238 158.651229 
L 725.246462 156.621702 
L 728.227672 154.742464 
L 731.208895 153.109708 
L 734.190112 151.628314 
L 737.171329 150.230781 
L 740.152538 148.957687 
L 743.133762 147.932348 
L 746.114979 146.704856 
L 749.096195 145.622091 
L 752.077412 144.622459 
L 755.058628 143.659393 
L 758.039838 142.635672 
L 761.021062 141.51346 
L 764.002285 140.469174 
L 766.983509 139.333347 
L 769.964719 138.169401 
L 772.945928 136.85347 
L 775.927152 135.598002 
L 778.908376 134.077899 
L 781.889578 132.547081 
L 784.870802 130.994272 
L 787.852018 129.013894 
L 790.833242 126.879317 
L 793.814438 124.980097 
L 796.795661 122.877158 
L 799.776885 120.924901 
L 802.758109 118.784201 
L 805.739332 116.767839 
L 808.720528 114.707683 
L 811.701752 112.752252 
L 814.682975 110.745631 
" clip-path="url(#p5d8f1cf1b0)" style="fill: none; stroke: #191970; stroke-width: 1.5; stroke-linecap: round"/>
   </g>
   <g id="patch_9">
    <path d="M 504.785455 307.584 
L 504.785455 41.472 
" style="fill: none; stroke: #ffffff; stroke-width: 0.8; stroke-linejoin: miter; stroke-linecap: square"/>
   </g>
   <g id="patch_10">
    <path d="M 829.44 307.584 
L 829.44 41.472 
" style="fill: none; stroke: #ffffff; stroke-width: 0.8; stroke-linejoin: miter; stroke-linecap: square"/>
   </g>
   <g id="patch_11">
    <path d="M 504.785455 307.584 
L 829.44 307.584 
" style="fill: none; stroke: #ffffff; stroke-width: 0.8; stroke-linejoin: miter; stroke-linecap: square"/>
   </g>
   <g id="patch_12">
    <path d="M 504.785455 41.472 
L 829.44 41.472 
" style="fill: none; stroke: #ffffff; stroke-width: 0.8; stroke-linejoin: miter; stroke-linecap: square"/>
   </g>
  </g>
  <g id="text_26">
   <!-- $\sigma=1$ -->
   <g style="fill: #262626" transform="translate(445.8 15.501375) scale(0.12 -0.12)">
    <defs>
     <path id="DejaVuSans-Oblique-3c3" d="M 2219 3044 
Q 1744 3044 1422 2700 
Q 1081 2341 969 1747 
Q 844 1119 1044 756 
Q 1241 397 1706 397 
Q 2166 397 2503 759 
Q 2844 1122 2966 1747 
Q 3075 2319 2881 2700 
Q 2700 3044 2219 3044 
z
M 2309 3503 
L 4219 3500 
L 4106 2925 
L 3463 2925 
Q 3706 2438 3575 1747 
Q 3406 888 2884 400 
Q 2359 -91 1609 -91 
Q 856 -91 525 400 
Q 194 888 363 1747 
Q 528 2609 1050 3097 
Q 1484 3503 2309 3503 
z
" transform="scale(0.015625)"/>
     <path id="DejaVuSans-3d" d="M 678 2906 
L 4684 2906 
L 4684 2381 
L 678 2381 
L 678 2906 
z
M 678 1631 
L 4684 1631 
L 4684 1100 
L 678 1100 
L 678 1631 
z
" transform="scale(0.015625)"/>
     <path id="DejaVuSans-31" d="M 794 531 
L 1825 531 
L 1825 4091 
L 703 3866 
L 703 4441 
L 1819 4666 
L 2450 4666 
L 2450 531 
L 3481 531 
L 3481 0 
L 794 0 
L 794 531 
z
" transform="scale(0.015625)"/>
    </defs>
    <use xlink:href="#DejaVuSans-Oblique-3c3" transform="translate(0 0.09375)"/>
    <use xlink:href="#DejaVuSans-3d" transform="translate(82.861328 0.09375)"/>
    <use xlink:href="#DejaVuSans-31" transform="translate(186.132812 0.09375)"/>
   </g>
  </g>
 </g>
 <defs>
  <clipPath id="p44752847df">
   <rect x="115.2" y="41.472" width="324.654545" height="266.112"/>
  </clipPath>
  <clipPath id="p5d8f1cf1b0">
   <rect x="504.785455" y="41.472" width="324.654545" height="266.112"/>
  </clipPath>
 </defs>
</svg>
