<?xml version="1.0" encoding="utf-8" standalone="no"?>
<!DOCTYPE svg PUBLIC "-//W3C//DTD SVG 1.1//EN"
  "http://www.w3.org/Graphics/SVG/1.1/DTD/svg11.dtd">
<svg xmlns:xlink="http://www.w3.org/1999/xlink" width="921.6pt" height="345.6pt" viewBox="0 0 921.6 345.6" xmlns="http://www.w3.org/2000/svg" version="1.1">
 <metadata>
  <rdf:RDF xmlns:dc="http://purl.org/dc/elements/1.1/" xmlns:cc="http://creativecommons.org/ns#" xmlns:rdf="http://www.w3.org/1999/02/22-rdf-syntax-ns#">
   <cc:Work>
    <dc:type rdf:resource="http://purl.org/dc/dcmitype/StillImage"/>
    <dc:date>2025-04-12T14:35:38.226437</dc:date>
    <dc:format>image/svg+xml</dc:format>
    <dc:creator>
     <cc:Agent>
      <dc:title>Matplotlib v3.10.1, https://matplotlib.org/</dc:title>
     </cc:Agent>
    </dc:creator>
   </cc:Work>
  </rdf:RDF>
 </metadata>
 <defs>
  <style type="text/css">*{stroke-linejoin: round; stroke-linecap: butt}</style>
 </defs>
 <g id="figure_1">
  <g id="patch_1">
   <path d="M 0 345.6 
L 921.6 345.6 
L 921.6 0 
L 0 0 
z
" style="fill: #ffffff"/>
  </g>
  <g id="axes_1">
   <g id="patch_2">
    <path d="M 115.2 307.584 
L 439.854545 307.584 
L 439.854545 41.472 
L 115.2 41.472 
z
" style="fill: #eaeaf2"/>
   </g>
   <g id="matplotlib.axis_1">
    <g id="xtick_1">
     <g id="line2d_1">
      <path d="M 159.471074 307.584 
L 159.471074 41.472 
" clip-path="url(#pf1552e4c7c)" style="fill: none; stroke: #ffffff; stroke-width: 0.8; stroke-linecap: round"/>
     </g>
     <g id="text_1">
      <!-- −4 -->
      <g style="fill: #262626" transform="translate(153.770293 321.741812) scale(0.1 -0.1)">
       <defs>
        <path id="ArialMT-2212" d="M 3381 1997 
L 356 1997 
L 356 2522 
L 3381 2522 
L 3381 1997 
z
" transform="scale(0.015625)"/>
        <path id="ArialMT-34" d="M 2069 0 
L 2069 1097 
L 81 1097 
L 81 1613 
L 2172 4581 
L 2631 4581 
L 2631 1613 
L 3250 1613 
L 3250 1097 
L 2631 1097 
L 2631 0 
L 2069 0 
z
M 2069 1613 
L 2069 3678 
L 634 1613 
L 2069 1613 
z
" transform="scale(0.015625)"/>
       </defs>
       <use xlink:href="#ArialMT-2212"/>
       <use xlink:href="#ArialMT-34" transform="translate(58.398438 0)"/>
      </g>
     </g>
    </g>
    <g id="xtick_2">
     <g id="line2d_2">
      <path d="M 218.499174 307.584 
L 218.499174 41.472 
" clip-path="url(#pf1552e4c7c)" style="fill: none; stroke: #ffffff; stroke-width: 0.8; stroke-linecap: round"/>
     </g>
     <g id="text_2">
      <!-- −2 -->
      <g style="fill: #262626" transform="translate(212.798392 321.741812) scale(0.1 -0.1)">
       <defs>
        <path id="ArialMT-32" d="M 3222 541 
L 3222 0 
L 194 0 
Q 188 203 259 391 
Q 375 700 629 1000 
Q 884 1300 1366 1694 
Q 2113 2306 2375 2664 
Q 2638 3022 2638 3341 
Q 2638 3675 2398 3904 
Q 2159 4134 1775 4134 
Q 1369 4134 1125 3890 
Q 881 3647 878 3216 
L 300 3275 
Q 359 3922 746 4261 
Q 1134 4600 1788 4600 
Q 2447 4600 2831 4234 
Q 3216 3869 3216 3328 
Q 3216 3053 3103 2787 
Q 2991 2522 2730 2228 
Q 2469 1934 1863 1422 
Q 1356 997 1212 845 
Q 1069 694 975 541 
L 3222 541 
z
" transform="scale(0.015625)"/>
       </defs>
       <use xlink:href="#ArialMT-2212"/>
       <use xlink:href="#ArialMT-32" transform="translate(58.398438 0)"/>
      </g>
     </g>
    </g>
    <g id="xtick_3">
     <g id="line2d_3">
      <path d="M 277.527273 307.584 
L 277.527273 41.472 
" clip-path="url(#pf1552e4c7c)" style="fill: none; stroke: #ffffff; stroke-width: 0.8; stroke-linecap: round"/>
     </g>
     <g id="text_3">
      <!-- 0 -->
      <g style="fill: #262626" transform="translate(274.746804 321.741812) scale(0.1 -0.1)">
       <defs>
        <path id="ArialMT-30" d="M 266 2259 
Q 266 3072 433 3567 
Q 600 4063 929 4331 
Q 1259 4600 1759 4600 
Q 2128 4600 2406 4451 
Q 2684 4303 2865 4023 
Q 3047 3744 3150 3342 
Q 3253 2941 3253 2259 
Q 3253 1453 3087 958 
Q 2922 463 2592 192 
Q 2263 -78 1759 -78 
Q 1097 -78 719 397 
Q 266 969 266 2259 
z
M 844 2259 
Q 844 1131 1108 757 
Q 1372 384 1759 384 
Q 2147 384 2411 759 
Q 2675 1134 2675 2259 
Q 2675 3391 2411 3762 
Q 2147 4134 1753 4134 
Q 1366 4134 1134 3806 
Q 844 3388 844 2259 
z
" transform="scale(0.015625)"/>
       </defs>
       <use xlink:href="#ArialMT-30"/>
      </g>
     </g>
    </g>
    <g id="xtick_4">
     <g id="line2d_4">
      <path d="M 336.555372 307.584 
L 336.555372 41.472 
" clip-path="url(#pf1552e4c7c)" style="fill: none; stroke: #ffffff; stroke-width: 0.8; stroke-linecap: round"/>
     </g>
     <g id="text_4">
      <!-- 2 -->
      <g style="fill: #262626" transform="translate(333.774903 321.741812) scale(0.1 -0.1)">
       <use xlink:href="#ArialMT-32"/>
      </g>
     </g>
    </g>
    <g id="xtick_5">
     <g id="line2d_5">
      <path d="M 395.583471 307.584 
L 395.583471 41.472 
" clip-path="url(#pf1552e4c7c)" style="fill: none; stroke: #ffffff; stroke-width: 0.8; stroke-linecap: round"/>
     </g>
     <g id="text_5">
      <!-- 4 -->
      <g style="fill: #262626" transform="translate(392.803002 321.741812) scale(0.1 -0.1)">
       <use xlink:href="#ArialMT-34"/>
      </g>
     </g>
    </g>
    <g id="text_6">
     <!-- x -->
     <g style="fill: #262626" transform="translate(275.027273 334.887125) scale(0.1 -0.1)">
      <defs>
       <path id="ArialMT-78" d="M 47 0 
L 1259 1725 
L 138 3319 
L 841 3319 
L 1350 2541 
Q 1494 2319 1581 2169 
Q 1719 2375 1834 2534 
L 2394 3319 
L 3066 3319 
L 1919 1756 
L 3153 0 
L 2463 0 
L 1781 1031 
L 1600 1309 
L 728 0 
L 47 0 
z
" transform="scale(0.015625)"/>
      </defs>
      <use xlink:href="#ArialMT-78"/>
     </g>
    </g>
   </g>
   <g id="matplotlib.axis_2">
    <g id="ytick_1">
     <g id="line2d_6">
      <path d="M 115.2 272.26402 
L 439.854545 272.26402 
" clip-path="url(#pf1552e4c7c)" style="fill: none; stroke: #ffffff; stroke-width: 0.8; stroke-linecap: round"/>
     </g>
     <g id="text_7">
      <!-- −10 -->
      <g style="fill: #262626" transform="translate(91.2375 275.842926) scale(0.1 -0.1)">
       <defs>
        <path id="ArialMT-31" d="M 2384 0 
L 1822 0 
L 1822 3584 
Q 1619 3391 1289 3197 
Q 959 3003 697 2906 
L 697 3450 
Q 1169 3672 1522 3987 
Q 1875 4303 2022 4600 
L 2384 4600 
L 2384 0 
z
" transform="scale(0.015625)"/>
       </defs>
       <use xlink:href="#ArialMT-2212"/>
       <use xlink:href="#ArialMT-31" transform="translate(58.398438 0)"/>
       <use xlink:href="#ArialMT-30" transform="translate(114.013672 0)"/>
      </g>
     </g>
    </g>
    <g id="ytick_2">
     <g id="line2d_7">
      <path d="M 115.2 228.519592 
L 439.854545 228.519592 
" clip-path="url(#pf1552e4c7c)" style="fill: none; stroke: #ffffff; stroke-width: 0.8; stroke-linecap: round"/>
     </g>
     <g id="text_8">
      <!-- −8 -->
      <g style="fill: #262626" transform="translate(96.798438 232.098498) scale(0.1 -0.1)">
       <defs>
        <path id="ArialMT-38" d="M 1131 2484 
Q 781 2613 612 2850 
Q 444 3088 444 3419 
Q 444 3919 803 4259 
Q 1163 4600 1759 4600 
Q 2359 4600 2725 4251 
Q 3091 3903 3091 3403 
Q 3091 3084 2923 2848 
Q 2756 2613 2416 2484 
Q 2838 2347 3058 2040 
Q 3278 1734 3278 1309 
Q 3278 722 2862 322 
Q 2447 -78 1769 -78 
Q 1091 -78 675 323 
Q 259 725 259 1325 
Q 259 1772 486 2073 
Q 713 2375 1131 2484 
z
M 1019 3438 
Q 1019 3113 1228 2906 
Q 1438 2700 1772 2700 
Q 2097 2700 2305 2904 
Q 2513 3109 2513 3406 
Q 2513 3716 2298 3927 
Q 2084 4138 1766 4138 
Q 1444 4138 1231 3931 
Q 1019 3725 1019 3438 
z
M 838 1322 
Q 838 1081 952 856 
Q 1066 631 1291 507 
Q 1516 384 1775 384 
Q 2178 384 2440 643 
Q 2703 903 2703 1303 
Q 2703 1709 2433 1975 
Q 2163 2241 1756 2241 
Q 1359 2241 1098 1978 
Q 838 1716 838 1322 
z
" transform="scale(0.015625)"/>
       </defs>
       <use xlink:href="#ArialMT-2212"/>
       <use xlink:href="#ArialMT-38" transform="translate(58.398438 0)"/>
      </g>
     </g>
    </g>
    <g id="ytick_3">
     <g id="line2d_8">
      <path d="M 115.2 184.775163 
L 439.854545 184.775163 
" clip-path="url(#pf1552e4c7c)" style="fill: none; stroke: #ffffff; stroke-width: 0.8; stroke-linecap: round"/>
     </g>
     <g id="text_9">
      <!-- −6 -->
      <g style="fill: #262626" transform="translate(96.798438 188.354069) scale(0.1 -0.1)">
       <defs>
        <path id="ArialMT-36" d="M 3184 3459 
L 2625 3416 
Q 2550 3747 2413 3897 
Q 2184 4138 1850 4138 
Q 1581 4138 1378 3988 
Q 1113 3794 959 3422 
Q 806 3050 800 2363 
Q 1003 2672 1297 2822 
Q 1591 2972 1913 2972 
Q 2475 2972 2870 2558 
Q 3266 2144 3266 1488 
Q 3266 1056 3080 686 
Q 2894 316 2569 119 
Q 2244 -78 1831 -78 
Q 1128 -78 684 439 
Q 241 956 241 2144 
Q 241 3472 731 4075 
Q 1159 4600 1884 4600 
Q 2425 4600 2770 4297 
Q 3116 3994 3184 3459 
z
M 888 1484 
Q 888 1194 1011 928 
Q 1134 663 1356 523 
Q 1578 384 1822 384 
Q 2178 384 2434 671 
Q 2691 959 2691 1453 
Q 2691 1928 2437 2201 
Q 2184 2475 1800 2475 
Q 1419 2475 1153 2201 
Q 888 1928 888 1484 
z
" transform="scale(0.015625)"/>
       </defs>
       <use xlink:href="#ArialMT-2212"/>
       <use xlink:href="#ArialMT-36" transform="translate(58.398438 0)"/>
      </g>
     </g>
    </g>
    <g id="ytick_4">
     <g id="line2d_9">
      <path d="M 115.2 141.030734 
L 439.854545 141.030734 
" clip-path="url(#pf1552e4c7c)" style="fill: none; stroke: #ffffff; stroke-width: 0.8; stroke-linecap: round"/>
     </g>
     <g id="text_10">
      <!-- −4 -->
      <g style="fill: #262626" transform="translate(96.798438 144.60964) scale(0.1 -0.1)">
       <use xlink:href="#ArialMT-2212"/>
       <use xlink:href="#ArialMT-34" transform="translate(58.398438 0)"/>
      </g>
     </g>
    </g>
    <g id="ytick_5">
     <g id="line2d_10">
      <path d="M 115.2 97.286305 
L 439.854545 97.286305 
" clip-path="url(#pf1552e4c7c)" style="fill: none; stroke: #ffffff; stroke-width: 0.8; stroke-linecap: round"/>
     </g>
     <g id="text_11">
      <!-- −2 -->
      <g style="fill: #262626" transform="translate(96.798438 100.865212) scale(0.1 -0.1)">
       <use xlink:href="#ArialMT-2212"/>
       <use xlink:href="#ArialMT-32" transform="translate(58.398438 0)"/>
      </g>
     </g>
    </g>
    <g id="ytick_6">
     <g id="line2d_11">
      <path d="M 115.2 53.541877 
L 439.854545 53.541877 
" clip-path="url(#pf1552e4c7c)" style="fill: none; stroke: #ffffff; stroke-width: 0.8; stroke-linecap: round"/>
     </g>
     <g id="text_12">
      <!-- 0 -->
      <g style="fill: #262626" transform="translate(102.639063 57.120783) scale(0.1 -0.1)">
       <use xlink:href="#ArialMT-30"/>
      </g>
     </g>
    </g>
    <g id="text_13">
     <!-- f(x) -->
     <g style="fill: #262626" transform="translate(85.132812 181.74675) rotate(-90) scale(0.1 -0.1)">
      <defs>
       <path id="ArialMT-66" d="M 556 0 
L 556 2881 
L 59 2881 
L 59 3319 
L 556 3319 
L 556 3672 
Q 556 4006 616 4169 
Q 697 4388 901 4523 
Q 1106 4659 1475 4659 
Q 1713 4659 2000 4603 
L 1916 4113 
Q 1741 4144 1584 4144 
Q 1328 4144 1222 4034 
Q 1116 3925 1116 3625 
L 1116 3319 
L 1763 3319 
L 1763 2881 
L 1116 2881 
L 1116 0 
L 556 0 
z
" transform="scale(0.015625)"/>
       <path id="ArialMT-28" d="M 1497 -1347 
Q 1031 -759 709 28 
Q 388 816 388 1659 
Q 388 2403 628 3084 
Q 909 3875 1497 4659 
L 1900 4659 
Q 1522 4009 1400 3731 
Q 1209 3300 1100 2831 
Q 966 2247 966 1656 
Q 966 153 1900 -1347 
L 1497 -1347 
z
" transform="scale(0.015625)"/>
       <path id="ArialMT-29" d="M 791 -1347 
L 388 -1347 
Q 1322 153 1322 1656 
Q 1322 2244 1188 2822 
Q 1081 3291 891 3722 
Q 769 4003 388 4659 
L 791 4659 
Q 1378 3875 1659 3084 
Q 1900 2403 1900 1659 
Q 1900 816 1576 28 
Q 1253 -759 791 -1347 
z
" transform="scale(0.015625)"/>
      </defs>
      <use xlink:href="#ArialMT-66"/>
      <use xlink:href="#ArialMT-28" transform="translate(27.783203 0)"/>
      <use xlink:href="#ArialMT-78" transform="translate(61.083984 0)"/>
      <use xlink:href="#ArialMT-29" transform="translate(111.083984 0)"/>
     </g>
    </g>
   </g>
   <g id="line2d_12">
    <path d="M 129.957025 60.185268 
L 132.938248 60.05106 
L 135.919458 59.916848 
L 138.900668 59.782639 
L 141.881891 59.648429 
L 144.863115 59.514218 
L 147.844325 59.38001 
L 150.825548 59.2458 
L 153.806758 59.111589 
L 156.787982 58.97738 
L 159.769191 58.843169 
L 162.750415 58.708959 
L 165.731631 58.57475 
L 168.712848 58.44054 
L 171.694072 58.30633 
L 174.675281 58.17212 
L 177.656498 58.037911 
L 180.637715 57.9037 
L 183.618931 57.76949 
L 186.600148 57.63528 
L 189.581357 57.501071 
L 192.562588 57.36686 
L 195.543798 57.23265 
L 198.525014 57.098441 
L 201.506238 56.964231 
L 204.487448 56.83002 
L 207.468671 56.69581 
L 210.449881 56.561601 
L 213.431105 56.42739 
L 216.412321 56.29318 
L 219.393538 56.158971 
L 222.374758 56.024761 
L 225.355968 55.890551 
L 228.337195 55.756341 
L 231.318404 55.622131 
L 234.299621 55.487921 
L 237.280841 55.353711 
L 240.262051 55.219501 
L 243.243278 55.085291 
L 246.224488 54.951081 
L 249.205706 54.816872 
L 252.186928 54.682661 
L 255.168143 54.548451 
L 258.149365 54.414241 
L 261.130571 54.280032 
L 264.111801 54.145821 
L 267.093007 54.011612 
L 270.074229 53.877402 
L 273.055451 53.743192 
L 276.036657 53.608982 
L 279.017879 53.568 
L 281.999094 53.620246 
L 284.980316 53.672493 
L 287.961531 53.724739 
L 290.942753 53.776986 
L 293.923968 53.829232 
L 296.905181 53.881479 
L 299.886396 53.933725 
L 302.867618 53.985972 
L 305.848832 54.038218 
L 308.830054 54.090465 
L 311.811268 54.142711 
L 314.792484 54.194958 
L 317.773697 54.247204 
L 320.754917 54.299451 
L 323.736141 54.351697 
L 326.717358 54.403944 
L 329.698567 54.45619 
L 332.679784 54.508436 
L 335.661008 54.560683 
L 338.642217 54.61293 
L 341.623441 54.665176 
L 344.604658 54.717422 
L 347.585874 54.769669 
L 350.567084 54.821915 
L 353.548307 54.874162 
L 356.529524 54.926408 
L 359.510741 54.978655 
L 362.491957 55.030902 
L 365.473174 55.083148 
L 368.454384 55.135394 
L 371.435607 55.187641 
L 374.416831 55.239886 
L 377.398055 55.292134 
L 380.379264 55.34438 
L 383.360474 55.396626 
L 386.341697 55.448873 
L 389.322921 55.501119 
L 392.304124 55.553366 
L 395.285347 55.605612 
L 398.266564 55.657859 
L 401.247788 55.710105 
L 404.228983 55.762351 
L 407.210207 55.814598 
L 410.19143 55.866844 
L 413.172654 55.919092 
L 416.153878 55.971338 
L 419.135073 56.023584 
L 422.116297 56.075831 
L 425.097521 56.128078 
" clip-path="url(#pf1552e4c7c)" style="fill: none; stroke: #4169e1; stroke-width: 1.5; stroke-linecap: round"/>
   </g>
   <g id="line2d_13">
    <path d="M 129.957025 169.32409 
L 132.938248 167.437668 
L 135.919458 165.550671 
L 138.900668 163.663675 
L 141.881891 161.776658 
L 144.863115 159.889662 
L 147.844325 158.002655 
L 150.825548 156.115649 
L 153.806758 154.228652 
L 156.787982 152.341646 
L 159.769191 150.45465 
L 162.750415 148.567632 
L 165.731631 146.680626 
L 168.712848 144.79363 
L 171.694072 142.906623 
L 174.675281 141.019606 
L 177.656498 139.13261 
L 180.637715 137.245613 
L 183.618931 135.358596 
L 186.600148 133.47159 
L 189.581357 131.584166 
L 192.562588 129.6967 
L 195.543798 127.809256 
L 198.525014 125.921801 
L 201.506238 124.034356 
L 204.487448 122.146911 
L 207.468671 120.259446 
L 210.449881 118.372012 
L 213.431105 116.484556 
L 216.412321 114.597216 
L 219.393538 112.710157 
L 222.374758 110.823098 
L 225.355968 108.93605 
L 228.337195 107.048981 
L 231.318404 105.161933 
L 234.299621 103.274874 
L 237.280841 101.389525 
L 240.262051 99.504845 
L 243.243278 97.620153 
L 246.224488 95.73547 
L 249.205706 93.850779 
L 252.186928 91.966098 
L 255.168143 90.082632 
L 258.149365 88.199299 
L 261.130571 86.315971 
L 264.111801 84.432636 
L 267.093007 82.549316 
L 270.074229 80.665981 
L 273.055451 78.782783 
L 276.036657 76.899868 
L 279.017879 75.016939 
L 281.999094 73.242485 
L 284.980316 72.187621 
L 287.961531 71.203534 
L 290.942753 70.219441 
L 293.923968 69.235352 
L 296.905181 68.248256 
L 299.886396 67.253515 
L 302.867618 66.427411 
L 305.848832 65.763165 
L 308.830054 65.130291 
L 311.811268 64.500645 
L 314.792484 63.927199 
L 317.773697 63.452917 
L 320.754917 62.966299 
L 323.736141 62.596517 
L 326.717358 62.294652 
L 329.698567 62.101455 
L 332.679784 61.9346 
L 335.661008 61.767997 
L 338.642217 61.601394 
L 341.623441 61.434791 
L 344.604658 61.268188 
L 347.585874 61.126821 
L 350.567084 61.02073 
L 353.548307 60.915885 
L 356.529524 60.811024 
L 359.510741 60.706161 
L 362.491957 60.614207 
L 365.473174 60.564523 
L 368.454384 60.514841 
L 371.435607 60.464007 
L 374.416831 60.412534 
L 377.398055 60.361065 
L 380.379264 60.309593 
L 383.360474 60.258123 
L 386.341697 60.208853 
L 389.322921 60.206351 
L 392.304124 60.203851 
L 395.285347 60.201348 
L 398.266564 60.200349 
L 401.247788 60.246294 
L 404.228983 60.291062 
L 407.210207 60.369182 
L 410.19143 60.447564 
L 413.172654 60.525949 
L 416.153878 60.604333 
L 419.135073 60.682718 
L 422.116297 60.761102 
L 425.097521 60.839486 
" clip-path="url(#pf1552e4c7c)" style="fill: none; stroke: #0000ff; stroke-width: 1.5; stroke-linecap: round"/>
   </g>
   <g id="line2d_14">
    <path d="M 129.957025 208.931017 
L 132.938248 206.826243 
L 135.919458 204.721458 
L 138.900668 202.616694 
L 141.881891 200.51191 
L 144.863115 198.407125 
L 147.844325 196.302371 
L 150.825548 194.197587 
L 153.806758 192.092812 
L 156.787982 189.988028 
L 159.769191 187.883254 
L 162.750415 185.778469 
L 165.731631 183.673705 
L 168.712848 181.56892 
L 171.694072 179.464136 
L 174.675281 177.359361 
L 177.656498 175.254566 
L 180.637715 173.149771 
L 183.618931 171.044976 
L 186.600148 168.940181 
L 189.581357 166.835386 
L 192.562588 164.73057 
L 195.543798 162.625785 
L 198.525014 160.521 
L 201.506238 158.416184 
L 204.487448 156.3114 
L 207.468671 154.206594 
L 210.449881 152.101799 
L 213.431105 149.997004 
L 216.412321 147.892209 
L 219.393538 145.787413 
L 222.374758 143.682618 
L 225.355968 141.577823 
L 228.337195 139.473028 
L 231.318404 137.368233 
L 234.299621 135.263438 
L 237.280841 133.158643 
L 240.262051 131.053837 
L 243.243278 128.949037 
L 246.224488 126.844247 
L 249.205706 124.739446 
L 252.186928 122.634646 
L 255.168143 120.529851 
L 258.149365 118.425056 
L 261.130571 116.320266 
L 264.111801 114.215466 
L 267.093007 112.11067 
L 270.074229 110.005875 
L 273.055451 107.90107 
L 276.036657 105.79628 
L 279.017879 103.69148 
L 281.999094 101.586684 
L 284.980316 99.481889 
L 287.961531 97.377089 
L 290.942753 95.272294 
L 293.923968 93.167493 
L 296.905181 91.062704 
L 299.886396 88.957903 
L 302.867618 86.853108 
L 305.848832 84.748318 
L 308.830054 82.643513 
L 311.811268 80.805253 
L 314.792484 79.33103 
L 317.773697 77.877697 
L 320.754917 76.560187 
L 323.736141 75.355653 
L 326.717358 74.208483 
L 329.698567 73.199957 
L 332.679784 72.231673 
L 335.661008 71.346161 
L 338.642217 70.580373 
L 341.623441 69.972032 
L 344.604658 69.436092 
L 347.585874 68.910409 
L 350.567084 68.386064 
L 353.548307 67.861719 
L 356.529524 67.425702 
L 359.510741 67.259146 
L 362.491957 67.095087 
L 365.473174 66.931029 
L 368.454384 66.822859 
L 371.435607 66.715305 
L 374.416831 66.607749 
L 377.398055 66.500192 
L 380.379264 66.392635 
L 383.360474 66.338775 
L 386.341697 66.30697 
L 389.322921 66.27516 
L 392.304124 66.243353 
L 395.285347 66.211546 
L 398.266564 66.179736 
L 401.247788 66.149062 
L 404.228983 66.11955 
L 407.210207 66.090042 
L 410.19143 66.060375 
L 413.172654 66.02298 
L 416.153878 65.984819 
L 419.135073 65.94666 
L 422.116297 65.908499 
L 425.097521 65.87034 
" clip-path="url(#pf1552e4c7c)" style="fill: none; stroke: #0000cd; stroke-width: 1.5; stroke-linecap: round"/>
   </g>
   <g id="line2d_15">
    <path d="M 129.957025 295.488 
L 132.938248 293.534412 
L 135.919458 291.580823 
L 138.900668 289.627235 
L 141.881891 287.673625 
L 144.863115 285.720037 
L 147.844325 283.766469 
L 150.825548 281.81286 
L 153.806758 279.859292 
L 156.787982 277.905704 
L 159.769191 275.952115 
L 162.750415 273.998527 
L 165.731631 272.044897 
L 168.712848 270.091329 
L 171.694072 268.137761 
L 174.675281 266.184152 
L 177.656498 264.230585 
L 180.637715 262.276996 
L 183.618931 260.323408 
L 186.600148 258.369819 
L 189.581357 256.416231 
L 192.562588 254.462621 
L 195.543798 252.509054 
L 198.525014 250.555444 
L 201.506238 248.601835 
L 204.487448 246.648268 
L 207.468671 244.6947 
L 210.449881 242.741091 
L 213.431105 240.787502 
L 216.412321 238.833914 
L 219.393538 236.880325 
L 222.374758 234.926737 
L 225.355968 232.973148 
L 228.337195 231.01956 
L 231.318404 229.065971 
L 234.299621 227.112383 
L 237.280841 225.158794 
L 240.262051 223.205206 
L 243.243278 221.251597 
L 246.224488 219.298029 
L 249.205706 217.344441 
L 252.186928 215.390852 
L 255.168143 213.437243 
L 258.149365 211.483675 
L 261.130571 209.530087 
L 264.111801 207.576498 
L 267.093007 205.622889 
L 270.074229 203.669321 
L 273.055451 201.715712 
L 276.036657 199.762144 
L 279.017879 197.808535 
L 281.999094 195.854967 
L 284.980316 193.901358 
L 287.961531 191.947791 
L 290.942753 189.994202 
L 293.923968 188.040593 
L 296.905181 186.087004 
L 299.886396 184.133416 
L 302.867618 182.179848 
L 305.848832 180.226239 
L 308.830054 178.27265 
L 311.811268 176.319062 
L 314.792484 174.365473 
L 317.773697 172.411885 
L 320.754917 170.458297 
L 323.736141 168.504708 
L 326.717358 166.55112 
L 329.698567 164.597531 
L 332.679784 162.643964 
L 335.661008 160.690354 
L 338.642217 158.736766 
L 341.623441 156.783177 
L 344.604658 154.829589 
L 347.585874 152.876 
L 350.567084 150.922412 
L 353.548307 148.968823 
L 356.529524 147.015235 
L 359.510741 145.061646 
L 362.491957 143.108058 
L 365.473174 141.15447 
L 368.454384 139.200897 
L 371.435607 137.247287 
L 374.416831 135.293689 
L 377.398055 133.34011 
L 380.379264 131.386522 
L 383.360474 129.432934 
L 386.341697 127.479345 
L 389.322921 125.525757 
L 392.304124 123.572168 
L 395.285347 121.61858 
L 398.266564 119.664991 
L 401.247788 117.711403 
L 404.228983 115.757814 
L 407.210207 113.804226 
L 410.19143 111.850637 
L 413.172654 109.897038 
L 416.153878 107.94345 
L 419.135073 105.989872 
L 422.116297 104.036278 
L 425.097521 102.086006 
" clip-path="url(#pf1552e4c7c)" style="fill: none; stroke: #191970; stroke-width: 1.5; stroke-linecap: round"/>
   </g>
   <g id="patch_3">
    <path d="M 115.2 307.584 
L 115.2 41.472 
" style="fill: none; stroke: #ffffff; stroke-width: 0.8; stroke-linejoin: miter; stroke-linecap: square"/>
   </g>
   <g id="patch_4">
    <path d="M 439.854545 307.584 
L 439.854545 41.472 
" style="fill: none; stroke: #ffffff; stroke-width: 0.8; stroke-linejoin: miter; stroke-linecap: square"/>
   </g>
   <g id="patch_5">
    <path d="M 115.2 307.584 
L 439.854545 307.584 
" style="fill: none; stroke: #ffffff; stroke-width: 0.8; stroke-linejoin: miter; stroke-linecap: square"/>
   </g>
   <g id="patch_6">
    <path d="M 115.2 41.472 
L 439.854545 41.472 
" style="fill: none; stroke: #ffffff; stroke-width: 0.8; stroke-linejoin: miter; stroke-linecap: square"/>
   </g>
   <g id="legend_1">
    <g id="patch_7">
     <path d="M 354.431108 302.584 
L 432.854545 302.584 
Q 434.854545 302.584 434.854545 300.584 
L 434.854545 244.913687 
Q 434.854545 242.913687 432.854545 242.913687 
L 354.431108 242.913687 
Q 352.431108 242.913687 352.431108 244.913687 
L 352.431108 300.584 
Q 352.431108 302.584 354.431108 302.584 
z
" style="fill: #eaeaf2; opacity: 0.8; stroke: #cccccc; stroke-linejoin: miter"/>
    </g>
    <g id="line2d_16">
     <path d="M 356.431108 250.601187 
L 366.431108 250.601187 
L 376.431108 250.601187 
" style="fill: none; stroke: #4169e1; stroke-width: 1.5; stroke-linecap: round"/>
    </g>
    <g id="text_14">
     <!-- steps=0 -->
     <g style="fill: #262626" transform="translate(384.431108 254.101187) scale(0.1 -0.1)">
      <defs>
       <path id="ArialMT-73" d="M 197 991 
L 753 1078 
Q 800 744 1014 566 
Q 1228 388 1613 388 
Q 2000 388 2187 545 
Q 2375 703 2375 916 
Q 2375 1106 2209 1216 
Q 2094 1291 1634 1406 
Q 1016 1563 777 1677 
Q 538 1791 414 1992 
Q 291 2194 291 2438 
Q 291 2659 392 2848 
Q 494 3038 669 3163 
Q 800 3259 1026 3326 
Q 1253 3394 1513 3394 
Q 1903 3394 2198 3281 
Q 2494 3169 2634 2976 
Q 2775 2784 2828 2463 
L 2278 2388 
Q 2241 2644 2061 2787 
Q 1881 2931 1553 2931 
Q 1166 2931 1000 2803 
Q 834 2675 834 2503 
Q 834 2394 903 2306 
Q 972 2216 1119 2156 
Q 1203 2125 1616 2013 
Q 2213 1853 2448 1751 
Q 2684 1650 2818 1456 
Q 2953 1263 2953 975 
Q 2953 694 2789 445 
Q 2625 197 2315 61 
Q 2006 -75 1616 -75 
Q 969 -75 630 194 
Q 291 463 197 991 
z
" transform="scale(0.015625)"/>
       <path id="ArialMT-74" d="M 1650 503 
L 1731 6 
Q 1494 -44 1306 -44 
Q 1000 -44 831 53 
Q 663 150 594 308 
Q 525 466 525 972 
L 525 2881 
L 113 2881 
L 113 3319 
L 525 3319 
L 525 4141 
L 1084 4478 
L 1084 3319 
L 1650 3319 
L 1650 2881 
L 1084 2881 
L 1084 941 
Q 1084 700 1114 631 
Q 1144 563 1211 522 
Q 1278 481 1403 481 
Q 1497 481 1650 503 
z
" transform="scale(0.015625)"/>
       <path id="ArialMT-65" d="M 2694 1069 
L 3275 997 
Q 3138 488 2766 206 
Q 2394 -75 1816 -75 
Q 1088 -75 661 373 
Q 234 822 234 1631 
Q 234 2469 665 2931 
Q 1097 3394 1784 3394 
Q 2450 3394 2872 2941 
Q 3294 2488 3294 1666 
Q 3294 1616 3291 1516 
L 816 1516 
Q 847 969 1125 678 
Q 1403 388 1819 388 
Q 2128 388 2347 550 
Q 2566 713 2694 1069 
z
M 847 1978 
L 2700 1978 
Q 2663 2397 2488 2606 
Q 2219 2931 1791 2931 
Q 1403 2931 1139 2672 
Q 875 2413 847 1978 
z
" transform="scale(0.015625)"/>
       <path id="ArialMT-70" d="M 422 -1272 
L 422 3319 
L 934 3319 
L 934 2888 
Q 1116 3141 1344 3267 
Q 1572 3394 1897 3394 
Q 2322 3394 2647 3175 
Q 2972 2956 3137 2557 
Q 3303 2159 3303 1684 
Q 3303 1175 3120 767 
Q 2938 359 2589 142 
Q 2241 -75 1856 -75 
Q 1575 -75 1351 44 
Q 1128 163 984 344 
L 984 -1272 
L 422 -1272 
z
M 931 1641 
Q 931 1000 1190 694 
Q 1450 388 1819 388 
Q 2194 388 2461 705 
Q 2728 1022 2728 1688 
Q 2728 2322 2467 2637 
Q 2206 2953 1844 2953 
Q 1484 2953 1207 2617 
Q 931 2281 931 1641 
z
" transform="scale(0.015625)"/>
       <path id="ArialMT-3d" d="M 3381 2694 
L 356 2694 
L 356 3219 
L 3381 3219 
L 3381 2694 
z
M 3381 1303 
L 356 1303 
L 356 1828 
L 3381 1828 
L 3381 1303 
z
" transform="scale(0.015625)"/>
      </defs>
      <use xlink:href="#ArialMT-73"/>
      <use xlink:href="#ArialMT-74" transform="translate(50 0)"/>
      <use xlink:href="#ArialMT-65" transform="translate(77.783203 0)"/>
      <use xlink:href="#ArialMT-70" transform="translate(133.398438 0)"/>
      <use xlink:href="#ArialMT-73" transform="translate(189.013672 0)"/>
      <use xlink:href="#ArialMT-3d" transform="translate(239.013672 0)"/>
      <use xlink:href="#ArialMT-30" transform="translate(297.412109 0)"/>
     </g>
    </g>
    <g id="line2d_17">
     <path d="M 356.431108 264.7465 
L 366.431108 264.7465 
L 376.431108 264.7465 
" style="fill: none; stroke: #0000ff; stroke-width: 1.5; stroke-linecap: round"/>
    </g>
    <g id="text_15">
     <!-- steps=5 -->
     <g style="fill: #262626" transform="translate(384.431108 268.2465) scale(0.1 -0.1)">
      <defs>
       <path id="ArialMT-35" d="M 266 1200 
L 856 1250 
Q 922 819 1161 601 
Q 1400 384 1738 384 
Q 2144 384 2425 690 
Q 2706 997 2706 1503 
Q 2706 1984 2436 2262 
Q 2166 2541 1728 2541 
Q 1456 2541 1237 2417 
Q 1019 2294 894 2097 
L 366 2166 
L 809 4519 
L 3088 4519 
L 3088 3981 
L 1259 3981 
L 1013 2750 
Q 1425 3038 1878 3038 
Q 2478 3038 2890 2622 
Q 3303 2206 3303 1553 
Q 3303 931 2941 478 
Q 2500 -78 1738 -78 
Q 1113 -78 717 272 
Q 322 622 266 1200 
z
" transform="scale(0.015625)"/>
      </defs>
      <use xlink:href="#ArialMT-73"/>
      <use xlink:href="#ArialMT-74" transform="translate(50 0)"/>
      <use xlink:href="#ArialMT-65" transform="translate(77.783203 0)"/>
      <use xlink:href="#ArialMT-70" transform="translate(133.398438 0)"/>
      <use xlink:href="#ArialMT-73" transform="translate(189.013672 0)"/>
      <use xlink:href="#ArialMT-3d" transform="translate(239.013672 0)"/>
      <use xlink:href="#ArialMT-35" transform="translate(297.412109 0)"/>
     </g>
    </g>
    <g id="line2d_18">
     <path d="M 356.431108 278.9215 
L 366.431108 278.9215 
L 376.431108 278.9215 
" style="fill: none; stroke: #0000cd; stroke-width: 1.5; stroke-linecap: round"/>
    </g>
    <g id="text_16">
     <!-- steps=10 -->
     <g style="fill: #262626" transform="translate(384.431108 282.4215) scale(0.1 -0.1)">
      <use xlink:href="#ArialMT-73"/>
      <use xlink:href="#ArialMT-74" transform="translate(50 0)"/>
      <use xlink:href="#ArialMT-65" transform="translate(77.783203 0)"/>
      <use xlink:href="#ArialMT-70" transform="translate(133.398438 0)"/>
      <use xlink:href="#ArialMT-73" transform="translate(189.013672 0)"/>
      <use xlink:href="#ArialMT-3d" transform="translate(239.013672 0)"/>
      <use xlink:href="#ArialMT-31" transform="translate(297.412109 0)"/>
      <use xlink:href="#ArialMT-30" transform="translate(353.027344 0)"/>
     </g>
    </g>
    <g id="line2d_19">
     <path d="M 356.431108 293.0965 
L 366.431108 293.0965 
L 376.431108 293.0965 
" style="fill: none; stroke: #191970; stroke-width: 1.5; stroke-linecap: round"/>
    </g>
    <g id="text_17">
     <!-- steps=100 -->
     <g style="fill: #262626" transform="translate(384.431108 296.5965) scale(0.1 -0.1)">
      <use xlink:href="#ArialMT-73"/>
      <use xlink:href="#ArialMT-74" transform="translate(50 0)"/>
      <use xlink:href="#ArialMT-65" transform="translate(77.783203 0)"/>
      <use xlink:href="#ArialMT-70" transform="translate(133.398438 0)"/>
      <use xlink:href="#ArialMT-73" transform="translate(189.013672 0)"/>
      <use xlink:href="#ArialMT-3d" transform="translate(239.013672 0)"/>
      <use xlink:href="#ArialMT-31" transform="translate(297.412109 0)"/>
      <use xlink:href="#ArialMT-30" transform="translate(353.027344 0)"/>
      <use xlink:href="#ArialMT-30" transform="translate(408.642578 0)"/>
     </g>
    </g>
   </g>
  </g>
  <g id="axes_2">
   <g id="patch_8">
    <path d="M 504.785455 307.584 
L 829.44 307.584 
L 829.44 41.472 
L 504.785455 41.472 
z
" style="fill: #eaeaf2"/>
   </g>
   <g id="matplotlib.axis_3">
    <g id="xtick_6">
     <g id="line2d_20">
      <path d="M 549.056529 307.584 
L 549.056529 41.472 
" clip-path="url(#p40281a25e1)" style="fill: none; stroke: #ffffff; stroke-width: 0.8; stroke-linecap: round"/>
     </g>
     <g id="text_18">
      <!-- −4 -->
      <g style="fill: #262626" transform="translate(543.355748 321.741812) scale(0.1 -0.1)">
       <use xlink:href="#ArialMT-2212"/>
       <use xlink:href="#ArialMT-34" transform="translate(58.398438 0)"/>
      </g>
     </g>
    </g>
    <g id="xtick_7">
     <g id="line2d_21">
      <path d="M 608.084628 307.584 
L 608.084628 41.472 
" clip-path="url(#p40281a25e1)" style="fill: none; stroke: #ffffff; stroke-width: 0.8; stroke-linecap: round"/>
     </g>
     <g id="text_19">
      <!-- −2 -->
      <g style="fill: #262626" transform="translate(602.383847 321.741812) scale(0.1 -0.1)">
       <use xlink:href="#ArialMT-2212"/>
       <use xlink:href="#ArialMT-32" transform="translate(58.398438 0)"/>
      </g>
     </g>
    </g>
    <g id="xtick_8">
     <g id="line2d_22">
      <path d="M 667.112727 307.584 
L 667.112727 41.472 
" clip-path="url(#p40281a25e1)" style="fill: none; stroke: #ffffff; stroke-width: 0.8; stroke-linecap: round"/>
     </g>
     <g id="text_20">
      <!-- 0 -->
      <g style="fill: #262626" transform="translate(664.332259 321.741812) scale(0.1 -0.1)">
       <use xlink:href="#ArialMT-30"/>
      </g>
     </g>
    </g>
    <g id="xtick_9">
     <g id="line2d_23">
      <path d="M 726.140826 307.584 
L 726.140826 41.472 
" clip-path="url(#p40281a25e1)" style="fill: none; stroke: #ffffff; stroke-width: 0.8; stroke-linecap: round"/>
     </g>
     <g id="text_21">
      <!-- 2 -->
      <g style="fill: #262626" transform="translate(723.360358 321.741812) scale(0.1 -0.1)">
       <use xlink:href="#ArialMT-32"/>
      </g>
     </g>
    </g>
    <g id="xtick_10">
     <g id="line2d_24">
      <path d="M 785.168926 307.584 
L 785.168926 41.472 
" clip-path="url(#p40281a25e1)" style="fill: none; stroke: #ffffff; stroke-width: 0.8; stroke-linecap: round"/>
     </g>
     <g id="text_22">
      <!-- 4 -->
      <g style="fill: #262626" transform="translate(782.388457 321.741812) scale(0.1 -0.1)">
       <use xlink:href="#ArialMT-34"/>
      </g>
     </g>
    </g>
    <g id="text_23">
     <!-- x -->
     <g style="fill: #262626" transform="translate(664.612727 334.887125) scale(0.1 -0.1)">
      <use xlink:href="#ArialMT-78"/>
     </g>
    </g>
   </g>
   <g id="matplotlib.axis_4">
    <g id="ytick_7">
     <g id="line2d_25">
      <path d="M 504.785455 272.26402 
L 829.44 272.26402 
" clip-path="url(#p40281a25e1)" style="fill: none; stroke: #ffffff; stroke-width: 0.8; stroke-linecap: round"/>
     </g>
    </g>
    <g id="ytick_8">
     <g id="line2d_26">
      <path d="M 504.785455 228.519592 
L 829.44 228.519592 
" clip-path="url(#p40281a25e1)" style="fill: none; stroke: #ffffff; stroke-width: 0.8; stroke-linecap: round"/>
     </g>
    </g>
    <g id="ytick_9">
     <g id="line2d_27">
      <path d="M 504.785455 184.775163 
L 829.44 184.775163 
" clip-path="url(#p40281a25e1)" style="fill: none; stroke: #ffffff; stroke-width: 0.8; stroke-linecap: round"/>
     </g>
    </g>
    <g id="ytick_10">
     <g id="line2d_28">
      <path d="M 504.785455 141.030734 
L 829.44 141.030734 
" clip-path="url(#p40281a25e1)" style="fill: none; stroke: #ffffff; stroke-width: 0.8; stroke-linecap: round"/>
     </g>
    </g>
    <g id="ytick_11">
     <g id="line2d_29">
      <path d="M 504.785455 97.286305 
L 829.44 97.286305 
" clip-path="url(#p40281a25e1)" style="fill: none; stroke: #ffffff; stroke-width: 0.8; stroke-linecap: round"/>
     </g>
    </g>
    <g id="ytick_12">
     <g id="line2d_30">
      <path d="M 504.785455 53.541877 
L 829.44 53.541877 
" clip-path="url(#p40281a25e1)" style="fill: none; stroke: #ffffff; stroke-width: 0.8; stroke-linecap: round"/>
     </g>
    </g>
    <g id="text_24">
     <!-- Pf(x) -->
     <g style="fill: #262626" transform="translate(498.680767 185.081906) rotate(-90) scale(0.1 -0.1)">
      <defs>
       <path id="ArialMT-50" d="M 494 0 
L 494 4581 
L 2222 4581 
Q 2678 4581 2919 4538 
Q 3256 4481 3484 4323 
Q 3713 4166 3852 3881 
Q 3991 3597 3991 3256 
Q 3991 2672 3619 2267 
Q 3247 1863 2275 1863 
L 1100 1863 
L 1100 0 
L 494 0 
z
M 1100 2403 
L 2284 2403 
Q 2872 2403 3119 2622 
Q 3366 2841 3366 3238 
Q 3366 3525 3220 3729 
Q 3075 3934 2838 4000 
Q 2684 4041 2272 4041 
L 1100 4041 
L 1100 2403 
z
" transform="scale(0.015625)"/>
      </defs>
      <use xlink:href="#ArialMT-50"/>
      <use xlink:href="#ArialMT-66" transform="translate(66.699219 0)"/>
      <use xlink:href="#ArialMT-28" transform="translate(94.482422 0)"/>
      <use xlink:href="#ArialMT-78" transform="translate(127.783203 0)"/>
      <use xlink:href="#ArialMT-29" transform="translate(177.783203 0)"/>
     </g>
    </g>
   </g>
   <g id="line2d_31">
    <path d="M 519.542479 59.675107 
L 522.523703 59.536546 
L 525.504913 59.404748 
L 528.486122 59.27011 
L 531.467346 59.139935 
L 534.44857 59.004056 
L 537.429779 58.868274 
L 540.411003 58.741083 
L 543.392212 58.604226 
L 546.373436 58.471995 
L 549.354646 58.336435 
L 552.335869 58.20103 
L 555.317086 58.069565 
L 558.298303 57.943069 
L 561.279526 57.807071 
L 564.260736 57.674723 
L 567.241952 57.54243 
L 570.223169 57.410221 
L 573.204386 57.271355 
L 576.185602 57.144637 
L 579.166812 57.00797 
L 582.148043 56.873896 
L 585.129252 56.752069 
L 588.110469 56.609099 
L 591.091693 56.485992 
L 594.072902 56.350215 
L 597.054126 56.222206 
L 600.035335 56.093647 
L 603.016559 55.961017 
L 605.997776 55.833951 
L 608.978992 55.711393 
L 611.960213 55.592774 
L 614.941422 55.459487 
L 617.922649 55.337847 
L 620.903859 55.216822 
L 623.885076 55.102486 
L 626.866296 54.990747 
L 629.847505 54.885032 
L 632.828732 54.775837 
L 635.809942 54.677633 
L 638.79116 54.583565 
L 641.772382 54.489527 
L 644.753597 54.405006 
L 647.734819 54.323811 
L 650.716025 54.252718 
L 653.697256 54.179333 
L 656.678462 54.116635 
L 659.659684 54.055705 
L 662.640906 53.993963 
L 665.622112 53.937418 
L 668.603334 53.913128 
L 671.584549 53.915168 
L 674.565771 53.921634 
L 677.546985 53.930964 
L 680.528207 53.942596 
L 683.509422 53.954763 
L 686.490635 53.97275 
L 689.47185 53.989097 
L 692.453072 54.009812 
L 695.434287 54.032383 
L 698.415509 54.056401 
L 701.396722 54.08566 
L 704.377939 54.115716 
L 707.359152 54.149232 
L 710.340372 54.184267 
L 713.321596 54.223816 
L 716.302812 54.264119 
L 719.284022 54.30662 
L 722.265238 54.351157 
L 725.246462 54.397307 
L 728.227672 54.444264 
L 731.208895 54.491953 
L 734.190112 54.540485 
L 737.171329 54.589682 
L 740.152538 54.638161 
L 743.133762 54.687789 
L 746.114979 54.740883 
L 749.096195 54.791035 
L 752.077412 54.841037 
L 755.058628 54.892718 
L 758.039838 54.944249 
L 761.021062 54.994322 
L 764.002285 55.046291 
L 766.983509 55.098894 
L 769.964719 55.149801 
L 772.945928 55.201135 
L 775.927152 55.252447 
L 778.908376 55.305911 
L 781.889578 55.358215 
L 784.870802 55.40912 
L 787.852018 55.460476 
L 790.833242 55.513735 
L 793.814438 55.563674 
L 796.795661 55.616933 
L 799.776885 55.667763 
L 802.758109 55.721193 
L 805.739332 55.773311 
L 808.720528 55.825732 
L 811.701752 55.876981 
L 814.682975 55.928904 
" clip-path="url(#p40281a25e1)" style="fill: none; stroke: #4169e1; stroke-width: 1.5; stroke-linecap: round"/>
   </g>
   <g id="line2d_32">
    <path d="M 519.542479 162.15115 
L 522.523703 160.203308 
L 525.504913 158.350312 
L 528.486122 156.457308 
L 531.467346 154.627059 
L 534.44857 152.716554 
L 537.429779 150.807396 
L 540.411003 149.019052 
L 543.392212 147.094822 
L 546.373436 145.2356 
L 549.354646 143.329184 
L 552.335869 141.425584 
L 555.317086 139.576859 
L 558.298303 137.7981 
L 561.279526 135.88539 
L 564.260736 134.024775 
L 567.241952 132.162778 
L 570.223169 130.304526 
L 573.204386 128.349769 
L 576.185602 126.56604 
L 579.166812 124.642786 
L 582.148043 122.752562 
L 585.129252 121.036656 
L 588.110469 119.019813 
L 591.091693 117.279872 
L 594.072902 115.358302 
L 597.054126 113.543968 
L 600.035335 111.717865 
L 603.016559 109.826431 
L 605.997776 108.008217 
L 608.978992 106.237207 
L 611.960213 104.527517 
L 614.941422 102.581892 
L 617.922649 100.788756 
L 620.903859 98.984387 
L 623.885076 97.274421 
L 626.866296 95.575411 
L 629.847505 93.928267 
L 632.828732 92.23006 
L 635.809942 90.649 
L 638.79116 89.145501 
L 641.772382 87.606101 
L 644.753597 86.187331 
L 647.734819 84.84216 
L 650.716025 83.626512 
L 653.697256 82.352277 
L 656.678462 81.26559 
L 659.659684 80.172048 
L 662.640906 79.070215 
L 665.622112 77.974058 
L 668.603334 76.903721 
L 671.584549 75.86878 
L 674.565771 75.121113 
L 677.546985 74.359511 
L 680.528207 73.602863 
L 683.509422 72.838574 
L 686.490635 72.023672 
L 689.47185 71.23137 
L 692.453072 70.495687 
L 695.434287 69.635093 
L 698.415509 68.868953 
L 701.396722 68.149645 
L 704.377939 67.401024 
L 707.359152 66.700108 
L 710.340372 66.076098 
L 713.321596 65.450927 
L 716.302812 64.920285 
L 719.284022 64.44548 
L 722.265238 64.014255 
L 725.246462 63.620082 
L 728.227672 63.251445 
L 731.208895 62.926695 
L 734.190112 62.630606 
L 737.171329 62.335887 
L 740.152538 62.113237 
L 743.133762 61.89707 
L 746.114979 61.676263 
L 749.096195 61.492532 
L 752.077412 61.330103 
L 755.058628 61.197669 
L 758.039838 61.075009 
L 761.021062 60.963797 
L 764.002285 60.85973 
L 766.983509 60.7604 
L 769.964719 60.680186 
L 772.945928 60.597982 
L 775.927152 60.525853 
L 778.908376 60.475726 
L 781.889578 60.436171 
L 784.870802 60.402352 
L 787.852018 60.375248 
L 790.833242 60.370844 
L 793.814438 60.379912 
L 796.795661 60.401254 
L 799.776885 60.430993 
L 802.758109 60.465844 
L 805.739332 60.508472 
L 808.720528 60.553928 
L 811.701752 60.604295 
L 814.682975 60.65818 
" clip-path="url(#p40281a25e1)" style="fill: none; stroke: #0000ff; stroke-width: 1.5; stroke-linecap: round"/>
   </g>
   <g id="line2d_33">
    <path d="M 519.542479 200.93032 
L 522.523703 198.757264 
L 525.504913 196.690296 
L 528.486122 194.578847 
L 531.467346 192.537307 
L 534.44857 190.406396 
L 537.429779 188.276914 
L 540.411003 186.282213 
L 543.392212 184.135961 
L 546.373436 182.062183 
L 549.354646 179.935715 
L 552.335869 177.812564 
L 555.317086 175.750509 
L 558.298303 173.766435 
L 561.279526 171.633032 
L 564.260736 169.557825 
L 567.241952 167.480293 
L 570.223169 165.408027 
L 573.204386 163.227097 
L 576.185602 161.236692 
L 579.166812 159.091066 
L 582.148043 156.981765 
L 585.129252 155.066734 
L 588.110469 152.815155 
L 591.091693 150.871433 
L 594.072902 148.723699 
L 597.054126 146.694455 
L 600.035335 144.650527 
L 603.016559 142.531725 
L 605.997776 140.491092 
L 608.978992 138.498064 
L 611.960213 136.573313 
L 614.941422 134.374715 
L 617.922649 132.340231 
L 620.903859 130.28654 
L 623.885076 128.337233 
L 626.866296 126.388452 
L 629.847505 124.480143 
L 632.828732 122.524021 
L 635.809942 120.672985 
L 638.79116 118.920754 
L 641.772382 117.114164 
L 644.753597 115.436018 
L 647.734819 113.850809 
L 650.716025 112.40461 
L 653.697256 110.87182 
L 656.678462 109.562883 
L 659.659684 108.229552 
L 662.640906 106.890375 
L 665.622112 105.517025 
L 668.603334 104.146471 
L 671.584549 102.782659 
L 674.565771 101.514304 
L 677.546985 100.162523 
L 680.528207 98.792083 
L 683.509422 97.408325 
L 686.490635 95.88804 
L 689.47185 94.416044 
L 692.453072 92.910454 
L 695.434287 91.103548 
L 698.415509 89.404955 
L 701.396722 87.802183 
L 704.377939 86.223342 
L 707.359152 84.638673 
L 710.340372 83.21431 
L 713.321596 81.713995 
L 716.302812 80.350064 
L 719.284022 79.037677 
L 722.265238 77.780622 
L 725.246462 76.601352 
L 728.227672 75.508541 
L 731.208895 74.552196 
L 734.190112 73.66973 
L 737.171329 72.790983 
L 740.152538 72.033868 
L 743.133762 71.286947 
L 746.114979 70.555288 
L 749.096195 70.0319 
L 752.077412 69.560345 
L 755.058628 69.12729 
L 758.039838 68.745022 
L 761.021062 68.403508 
L 764.002285 68.089175 
L 766.983509 67.789328 
L 769.964719 67.553519 
L 772.945928 67.337446 
L 775.927152 67.161769 
L 778.908376 66.995173 
L 781.889578 66.857801 
L 784.870802 66.741588 
L 787.852018 66.634238 
L 790.833242 66.532263 
L 793.814438 66.467024 
L 796.795661 66.380581 
L 799.776885 66.315687 
L 802.758109 66.248674 
L 805.739332 66.19219 
L 808.720528 66.138887 
L 811.701752 66.089783 
L 814.682975 66.042225 
" clip-path="url(#p40281a25e1)" style="fill: none; stroke: #0000cd; stroke-width: 1.5; stroke-linecap: round"/>
   </g>
   <g id="line2d_34">
    <path d="M 519.542479 288.061957 
L 522.523703 286.04504 
L 525.504913 284.126578 
L 528.486122 282.166795 
L 531.467346 280.271862 
L 534.44857 278.294014 
L 537.429779 276.317502 
L 540.411003 274.466122 
L 543.392212 272.474007 
L 546.373436 270.549204 
L 549.354646 268.575466 
L 552.335869 266.604857 
L 555.317086 264.690921 
L 558.298303 262.849387 
L 561.279526 260.869183 
L 564.260736 258.943044 
L 567.241952 257.0148 
L 570.223169 255.091415 
L 573.204386 253.067115 
L 576.185602 251.21974 
L 579.166812 249.228188 
L 582.148043 247.270428 
L 585.129252 245.492952 
L 588.110469 243.403113 
L 591.091693 241.598833 
L 594.072902 239.605362 
L 597.054126 237.721755 
L 600.035335 235.824507 
L 603.016559 233.857902 
L 605.997776 231.962948 
L 608.978992 230.113029 
L 611.960213 228.325634 
L 614.941422 226.283677 
L 617.922649 224.394365 
L 620.903859 222.487146 
L 623.885076 220.677151 
L 626.866296 218.866749 
L 629.847505 217.09211 
L 632.828732 215.276305 
L 635.809942 213.554439 
L 638.79116 211.927669 
L 641.772382 210.246592 
L 644.753597 208.685236 
L 647.734819 207.210402 
L 650.716025 205.862558 
L 653.697256 204.432342 
L 656.678462 203.209527 
L 659.659684 201.965164 
L 662.640906 200.713157 
L 665.622112 199.423155 
L 668.603334 198.135113 
L 671.584549 196.84993 
L 674.565771 195.655921 
L 677.546985 194.371488 
L 680.528207 193.07115 
L 683.509422 191.751466 
L 686.490635 190.286301 
L 689.47185 188.869142 
L 692.453072 187.403998 
L 695.434287 185.646838 
L 698.415509 183.96499 
L 701.396722 182.289629 
L 704.377939 180.490637 
L 707.359152 178.660314 
L 710.340372 176.892047 
L 713.321596 174.971792 
L 716.302812 173.133021 
L 719.284022 171.251104 
L 722.265238 169.339109 
L 725.246462 167.432818 
L 728.227672 165.52392 
L 731.208895 163.628987 
L 734.190112 161.741344 
L 737.171329 159.806862 
L 740.152538 157.952187 
L 743.133762 156.053687 
L 746.114979 154.035071 
L 749.096195 152.13606 
L 752.077412 150.247645 
L 755.058628 148.301274 
L 758.039838 146.365572 
L 761.021062 144.49082 
L 764.002285 142.543656 
L 766.983509 140.570158 
L 769.964719 138.668122 
L 772.945928 136.747027 
L 775.927152 134.826437 
L 778.908376 132.826203 
L 781.889578 130.872713 
L 784.870802 128.966496 
L 787.852018 127.045797 
L 790.833242 125.054313 
L 793.814438 123.187524 
L 796.795661 121.196478 
L 799.776885 119.296179 
L 802.758109 117.299376 
L 805.739332 115.352691 
L 808.720528 113.395729 
L 811.701752 111.484875 
L 814.682975 109.554842 
" clip-path="url(#p40281a25e1)" style="fill: none; stroke: #191970; stroke-width: 1.5; stroke-linecap: round"/>
   </g>
   <g id="patch_9">
    <path d="M 504.785455 307.584 
L 504.785455 41.472 
" style="fill: none; stroke: #ffffff; stroke-width: 0.8; stroke-linejoin: miter; stroke-linecap: square"/>
   </g>
   <g id="patch_10">
    <path d="M 829.44 307.584 
L 829.44 41.472 
" style="fill: none; stroke: #ffffff; stroke-width: 0.8; stroke-linejoin: miter; stroke-linecap: square"/>
   </g>
   <g id="patch_11">
    <path d="M 504.785455 307.584 
L 829.44 307.584 
" style="fill: none; stroke: #ffffff; stroke-width: 0.8; stroke-linejoin: miter; stroke-linecap: square"/>
   </g>
   <g id="patch_12">
    <path d="M 504.785455 41.472 
L 829.44 41.472 
" style="fill: none; stroke: #ffffff; stroke-width: 0.8; stroke-linejoin: miter; stroke-linecap: square"/>
   </g>
  </g>
  <g id="text_25">
   <!-- $\sigma=1$ -->
   <g style="fill: #262626" transform="translate(445.8 15.501375) scale(0.12 -0.12)">
    <defs>
     <path id="DejaVuSans-Oblique-3c3" d="M 2219 3044 
Q 1744 3044 1422 2700 
Q 1081 2341 969 1747 
Q 844 1119 1044 756 
Q 1241 397 1706 397 
Q 2166 397 2503 759 
Q 2844 1122 2966 1747 
Q 3075 2319 2881 2700 
Q 2700 3044 2219 3044 
z
M 2309 3503 
L 4219 3500 
L 4106 2925 
L 3463 2925 
Q 3706 2438 3575 1747 
Q 3406 888 2884 400 
Q 2359 -91 1609 -91 
Q 856 -91 525 400 
Q 194 888 363 1747 
Q 528 2609 1050 3097 
Q 1484 3503 2309 3503 
z
" transform="scale(0.015625)"/>
     <path id="DejaVuSans-3d" d="M 678 2906 
L 4684 2906 
L 4684 2381 
L 678 2381 
L 678 2906 
z
M 678 1631 
L 4684 1631 
L 4684 1100 
L 678 1100 
L 678 1631 
z
" transform="scale(0.015625)"/>
     <path id="DejaVuSans-31" d="M 794 531 
L 1825 531 
L 1825 4091 
L 703 3866 
L 703 4441 
L 1819 4666 
L 2450 4666 
L 2450 531 
L 3481 531 
L 3481 0 
L 794 0 
L 794 531 
z
" transform="scale(0.015625)"/>
    </defs>
    <use xlink:href="#DejaVuSans-Oblique-3c3" transform="translate(0 0.09375)"/>
    <use xlink:href="#DejaVuSans-3d" transform="translate(82.861328 0.09375)"/>
    <use xlink:href="#DejaVuSans-31" transform="translate(186.132812 0.09375)"/>
   </g>
  </g>
 </g>
 <defs>
  <clipPath id="pf1552e4c7c">
   <rect x="115.2" y="41.472" width="324.654545" height="266.112"/>
  </clipPath>
  <clipPath id="p40281a25e1">
   <rect x="504.785455" y="41.472" width="324.654545" height="266.112"/>
  </clipPath>
 </defs>
</svg>
