<?xml version="1.0" encoding="utf-8" standalone="no"?>
<!DOCTYPE svg PUBLIC "-//W3C//DTD SVG 1.1//EN"
  "http://www.w3.org/Graphics/SVG/1.1/DTD/svg11.dtd">
<svg xmlns:xlink="http://www.w3.org/1999/xlink" width="460.8pt" height="345.6pt" viewBox="0 0 460.8 345.6" xmlns="http://www.w3.org/2000/svg" version="1.1">
 <metadata>
  <rdf:RDF xmlns:dc="http://purl.org/dc/elements/1.1/" xmlns:cc="http://creativecommons.org/ns#" xmlns:rdf="http://www.w3.org/1999/02/22-rdf-syntax-ns#">
   <cc:Work>
    <dc:type rdf:resource="http://purl.org/dc/dcmitype/StillImage"/>
    <dc:date>2025-04-11T13:16:42.615153</dc:date>
    <dc:format>image/svg+xml</dc:format>
    <dc:creator>
     <cc:Agent>
      <dc:title>Matplotlib v3.10.1, https://matplotlib.org/</dc:title>
     </cc:Agent>
    </dc:creator>
   </cc:Work>
  </rdf:RDF>
 </metadata>
 <defs>
  <style type="text/css">*{stroke-linejoin: round; stroke-linecap: butt}</style>
 </defs>
 <g id="figure_1">
  <g id="patch_1">
   <path d="M 0 345.6 
L 460.8 345.6 
L 460.8 0 
L 0 0 
z
" style="fill: #ffffff"/>
  </g>
  <g id="axes_1">
   <g id="patch_2">
    <path d="M 57.6 307.584 
L 414.72 307.584 
L 414.72 41.472 
L 57.6 41.472 
z
" style="fill: #eaeaf2"/>
   </g>
   <g id="matplotlib.axis_1">
    <g id="xtick_1">
     <g id="line2d_1">
      <path d="M 106.298182 307.584 
L 106.298182 41.472 
" clip-path="url(#p976b5feabb)" style="fill: none; stroke: #ffffff; stroke-width: 0.8; stroke-linecap: round"/>
     </g>
     <g id="text_1">
      <!-- −4 -->
      <g style="fill: #262626" transform="translate(100.597401 321.741812) scale(0.1 -0.1)">
       <defs>
        <path id="ArialMT-2212" d="M 3381 1997 
L 356 1997 
L 356 2522 
L 3381 2522 
L 3381 1997 
z
" transform="scale(0.015625)"/>
        <path id="ArialMT-34" d="M 2069 0 
L 2069 1097 
L 81 1097 
L 81 1613 
L 2172 4581 
L 2631 4581 
L 2631 1613 
L 3250 1613 
L 3250 1097 
L 2631 1097 
L 2631 0 
L 2069 0 
z
M 2069 1613 
L 2069 3678 
L 634 1613 
L 2069 1613 
z
" transform="scale(0.015625)"/>
       </defs>
       <use xlink:href="#ArialMT-2212"/>
       <use xlink:href="#ArialMT-34" transform="translate(58.398438 0)"/>
      </g>
     </g>
    </g>
    <g id="xtick_2">
     <g id="line2d_2">
      <path d="M 171.229091 307.584 
L 171.229091 41.472 
" clip-path="url(#p976b5feabb)" style="fill: none; stroke: #ffffff; stroke-width: 0.8; stroke-linecap: round"/>
     </g>
     <g id="text_2">
      <!-- −2 -->
      <g style="fill: #262626" transform="translate(165.52831 321.741812) scale(0.1 -0.1)">
       <defs>
        <path id="ArialMT-32" d="M 3222 541 
L 3222 0 
L 194 0 
Q 188 203 259 391 
Q 375 700 629 1000 
Q 884 1300 1366 1694 
Q 2113 2306 2375 2664 
Q 2638 3022 2638 3341 
Q 2638 3675 2398 3904 
Q 2159 4134 1775 4134 
Q 1369 4134 1125 3890 
Q 881 3647 878 3216 
L 300 3275 
Q 359 3922 746 4261 
Q 1134 4600 1788 4600 
Q 2447 4600 2831 4234 
Q 3216 3869 3216 3328 
Q 3216 3053 3103 2787 
Q 2991 2522 2730 2228 
Q 2469 1934 1863 1422 
Q 1356 997 1212 845 
Q 1069 694 975 541 
L 3222 541 
z
" transform="scale(0.015625)"/>
       </defs>
       <use xlink:href="#ArialMT-2212"/>
       <use xlink:href="#ArialMT-32" transform="translate(58.398438 0)"/>
      </g>
     </g>
    </g>
    <g id="xtick_3">
     <g id="line2d_3">
      <path d="M 236.16 307.584 
L 236.16 41.472 
" clip-path="url(#p976b5feabb)" style="fill: none; stroke: #ffffff; stroke-width: 0.8; stroke-linecap: round"/>
     </g>
     <g id="text_3">
      <!-- 0 -->
      <g style="fill: #262626" transform="translate(233.379531 321.741812) scale(0.1 -0.1)">
       <defs>
        <path id="ArialMT-30" d="M 266 2259 
Q 266 3072 433 3567 
Q 600 4063 929 4331 
Q 1259 4600 1759 4600 
Q 2128 4600 2406 4451 
Q 2684 4303 2865 4023 
Q 3047 3744 3150 3342 
Q 3253 2941 3253 2259 
Q 3253 1453 3087 958 
Q 2922 463 2592 192 
Q 2263 -78 1759 -78 
Q 1097 -78 719 397 
Q 266 969 266 2259 
z
M 844 2259 
Q 844 1131 1108 757 
Q 1372 384 1759 384 
Q 2147 384 2411 759 
Q 2675 1134 2675 2259 
Q 2675 3391 2411 3762 
Q 2147 4134 1753 4134 
Q 1366 4134 1134 3806 
Q 844 3388 844 2259 
z
" transform="scale(0.015625)"/>
       </defs>
       <use xlink:href="#ArialMT-30"/>
      </g>
     </g>
    </g>
    <g id="xtick_4">
     <g id="line2d_4">
      <path d="M 301.090909 307.584 
L 301.090909 41.472 
" clip-path="url(#p976b5feabb)" style="fill: none; stroke: #ffffff; stroke-width: 0.8; stroke-linecap: round"/>
     </g>
     <g id="text_4">
      <!-- 2 -->
      <g style="fill: #262626" transform="translate(298.31044 321.741812) scale(0.1 -0.1)">
       <use xlink:href="#ArialMT-32"/>
      </g>
     </g>
    </g>
    <g id="xtick_5">
     <g id="line2d_5">
      <path d="M 366.021818 307.584 
L 366.021818 41.472 
" clip-path="url(#p976b5feabb)" style="fill: none; stroke: #ffffff; stroke-width: 0.8; stroke-linecap: round"/>
     </g>
     <g id="text_5">
      <!-- 4 -->
      <g style="fill: #262626" transform="translate(363.241349 321.741812) scale(0.1 -0.1)">
       <use xlink:href="#ArialMT-34"/>
      </g>
     </g>
    </g>
    <g id="text_6">
     <!-- $x$ -->
     <g style="fill: #262626" transform="translate(233.16 334.887125) scale(0.1 -0.1)">
      <defs>
       <path id="DejaVuSans-Oblique-78" d="M 3841 3500 
L 2234 1784 
L 3219 0 
L 2559 0 
L 1819 1388 
L 531 0 
L -166 0 
L 1556 1844 
L 641 3500 
L 1300 3500 
L 1972 2234 
L 3144 3500 
L 3841 3500 
z
" transform="scale(0.015625)"/>
      </defs>
      <use xlink:href="#DejaVuSans-Oblique-78" transform="translate(0 0.3125)"/>
     </g>
    </g>
   </g>
   <g id="matplotlib.axis_2">
    <g id="ytick_1">
     <g id="line2d_6">
      <path d="M 57.6 271.296 
L 414.72 271.296 
" clip-path="url(#p976b5feabb)" style="fill: none; stroke: #ffffff; stroke-width: 0.8; stroke-linecap: round"/>
     </g>
     <g id="text_7">
      <!-- −4 -->
      <g style="fill: #262626" transform="translate(39.198437 274.874906) scale(0.1 -0.1)">
       <use xlink:href="#ArialMT-2212"/>
       <use xlink:href="#ArialMT-34" transform="translate(58.398438 0)"/>
      </g>
     </g>
    </g>
    <g id="ytick_2">
     <g id="line2d_7">
      <path d="M 57.6 222.912 
L 414.72 222.912 
" clip-path="url(#p976b5feabb)" style="fill: none; stroke: #ffffff; stroke-width: 0.8; stroke-linecap: round"/>
     </g>
     <g id="text_8">
      <!-- −2 -->
      <g style="fill: #262626" transform="translate(39.198437 226.490906) scale(0.1 -0.1)">
       <use xlink:href="#ArialMT-2212"/>
       <use xlink:href="#ArialMT-32" transform="translate(58.398438 0)"/>
      </g>
     </g>
    </g>
    <g id="ytick_3">
     <g id="line2d_8">
      <path d="M 57.6 174.528 
L 414.72 174.528 
" clip-path="url(#p976b5feabb)" style="fill: none; stroke: #ffffff; stroke-width: 0.8; stroke-linecap: round"/>
     </g>
     <g id="text_9">
      <!-- 0 -->
      <g style="fill: #262626" transform="translate(45.039062 178.106906) scale(0.1 -0.1)">
       <use xlink:href="#ArialMT-30"/>
      </g>
     </g>
    </g>
    <g id="ytick_4">
     <g id="line2d_9">
      <path d="M 57.6 126.144 
L 414.72 126.144 
" clip-path="url(#p976b5feabb)" style="fill: none; stroke: #ffffff; stroke-width: 0.8; stroke-linecap: round"/>
     </g>
     <g id="text_10">
      <!-- 2 -->
      <g style="fill: #262626" transform="translate(45.039062 129.722906) scale(0.1 -0.1)">
       <use xlink:href="#ArialMT-32"/>
      </g>
     </g>
    </g>
    <g id="ytick_5">
     <g id="line2d_10">
      <path d="M 57.6 77.76 
L 414.72 77.76 
" clip-path="url(#p976b5feabb)" style="fill: none; stroke: #ffffff; stroke-width: 0.8; stroke-linecap: round"/>
     </g>
     <g id="text_11">
      <!-- 4 -->
      <g style="fill: #262626" transform="translate(45.039062 81.338906) scale(0.1 -0.1)">
       <use xlink:href="#ArialMT-34"/>
      </g>
     </g>
    </g>
    <g id="text_12">
     <!-- $x_{next}$ -->
     <g style="fill: #262626" transform="translate(33.210938 185.478) rotate(-90) scale(0.1 -0.1)">
      <defs>
       <path id="DejaVuSans-Oblique-6e" d="M 3566 2113 
L 3156 0 
L 2578 0 
L 2988 2091 
Q 3016 2238 3031 2350 
Q 3047 2463 3047 2528 
Q 3047 2791 2881 2937 
Q 2716 3084 2419 3084 
Q 1956 3084 1622 2776 
Q 1288 2469 1184 1941 
L 800 0 
L 225 0 
L 903 3500 
L 1478 3500 
L 1363 2950 
Q 1603 3253 1940 3418 
Q 2278 3584 2650 3584 
Q 3113 3584 3367 3334 
Q 3622 3084 3622 2631 
Q 3622 2519 3608 2391 
Q 3594 2263 3566 2113 
z
" transform="scale(0.015625)"/>
       <path id="DejaVuSans-Oblique-65" d="M 3078 2063 
Q 3088 2113 3092 2166 
Q 3097 2219 3097 2272 
Q 3097 2653 2873 2875 
Q 2650 3097 2266 3097 
Q 1838 3097 1509 2826 
Q 1181 2556 1013 2059 
L 3078 2063 
z
M 3578 1613 
L 903 1613 
Q 884 1494 878 1425 
Q 872 1356 872 1306 
Q 872 872 1139 634 
Q 1406 397 1894 397 
Q 2269 397 2603 481 
Q 2938 566 3225 728 
L 3116 159 
Q 2806 34 2476 -28 
Q 2147 -91 1806 -91 
Q 1078 -91 686 257 
Q 294 606 294 1247 
Q 294 1794 489 2264 
Q 684 2734 1063 3103 
Q 1306 3334 1642 3459 
Q 1978 3584 2356 3584 
Q 2950 3584 3301 3228 
Q 3653 2872 3653 2272 
Q 3653 2128 3634 1964 
Q 3616 1800 3578 1613 
z
" transform="scale(0.015625)"/>
       <path id="DejaVuSans-Oblique-74" d="M 2706 3500 
L 2619 3053 
L 1472 3053 
L 1100 1153 
Q 1081 1047 1072 975 
Q 1063 903 1063 863 
Q 1063 663 1183 572 
Q 1303 481 1569 481 
L 2150 481 
L 2053 0 
L 1503 0 
Q 991 0 739 200 
Q 488 400 488 806 
Q 488 878 497 964 
Q 506 1050 525 1153 
L 897 3053 
L 409 3053 
L 500 3500 
L 978 3500 
L 1172 4494 
L 1747 4494 
L 1556 3500 
L 2706 3500 
z
" transform="scale(0.015625)"/>
      </defs>
      <use xlink:href="#DejaVuSans-Oblique-78" transform="translate(0 0.3125)"/>
      <use xlink:href="#DejaVuSans-Oblique-6e" transform="translate(59.179688 -16.09375) scale(0.7)"/>
      <use xlink:href="#DejaVuSans-Oblique-65" transform="translate(103.544922 -16.09375) scale(0.7)"/>
      <use xlink:href="#DejaVuSans-Oblique-78" transform="translate(146.611328 -16.09375) scale(0.7)"/>
      <use xlink:href="#DejaVuSans-Oblique-74" transform="translate(188.037109 -16.09375) scale(0.7)"/>
     </g>
    </g>
   </g>
   <g id="FillBetweenPolyCollection_1">
    <defs>
     <path id="m7b06dd566b" d="M 73.832727 -183.411435 
L 73.832727 -148.19591 
L 77.112073 -148.72614 
L 80.391404 -148.857305 
L 83.670734 -149.114757 
L 86.95008 -149.577277 
L 90.229426 -149.985101 
L 93.508757 -150.331387 
L 96.788103 -150.824816 
L 100.067434 -150.996933 
L 103.34678 -151.12824 
L 106.62611 -151.47091 
L 109.905456 -151.85768 
L 113.184795 -152.014889 
L 116.464133 -152.382244 
L 119.743479 -152.58489 
L 123.022809 -152.367319 
L 126.302148 -152.765502 
L 129.581486 -152.885813 
L 132.860824 -153.361962 
L 136.140163 -153.344764 
L 139.419493 -153.513418 
L 142.698847 -153.5479 
L 145.978178 -153.54901 
L 149.257516 -153.898844 
L 152.536862 -154.024829 
L 155.816192 -154.212784 
L 159.095538 -154.073213 
L 162.374869 -154.177746 
L 165.654215 -154.08123 
L 168.933553 -154.265469 
L 172.212892 -154.290619 
L 175.492234 -154.263461 
L 178.771564 -154.436559 
L 182.050914 -154.488626 
L 185.330245 -154.355804 
L 188.609583 -154.870872 
L 191.888925 -154.577067 
L 195.168256 -154.663585 
L 198.447606 -154.617438 
L 201.726936 -154.565842 
L 205.006277 -154.519068 
L 208.285621 -154.617322 
L 211.564957 -154.580484 
L 214.844301 -154.511919 
L 218.123628 -154.870111 
L 221.402982 -154.831655 
L 224.682308 -154.487841 
L 227.961652 -154.766049 
L 231.240996 -154.843246 
L 234.520323 -154.727288 
L 237.799667 -154.818177 
L 241.079004 -154.877078 
L 244.358348 -154.824832 
L 247.637684 -154.774464 
L 250.917028 -154.782323 
L 254.196364 -154.866877 
L 257.475699 -154.892454 
L 260.755035 -155.018885 
L 264.034379 -154.890933 
L 267.313716 -155.110776 
L 270.59306 -154.921394 
L 273.872394 -155.053549 
L 277.151733 -154.924584 
L 280.431067 -155.139537 
L 283.710409 -154.938416 
L 286.989755 -155.053324 
L 290.269093 -154.917964 
L 293.548424 -155.117367 
L 296.827762 -155.157771 
L 300.107108 -155.160196 
L 303.386439 -155.168955 
L 306.665785 -155.256579 
L 309.945123 -155.231074 
L 313.224462 -155.387102 
L 316.503792 -155.437672 
L 319.783138 -155.484192 
L 323.062476 -155.527537 
L 326.341815 -155.478008 
L 329.621153 -155.762513 
L 332.900491 -155.84735 
L 336.179822 -155.991116 
L 339.459168 -156.044966 
L 342.738514 -155.929413 
L 346.01786 -156.086337 
L 349.297191 -156.227157 
L 352.576521 -156.391995 
L 355.855867 -156.589066 
L 359.135213 -156.624916 
L 362.414536 -156.826359 
L 365.693882 -156.811902 
L 368.97322 -157.158222 
L 372.252566 -157.21048 
L 375.531881 -157.410821 
L 378.811227 -157.586767 
L 382.090574 -157.868535 
L 385.36992 -157.876265 
L 388.649266 -158.185064 
L 391.928581 -158.41621 
L 395.207927 -158.447192 
L 398.487273 -158.822458 
L 398.487273 -194.223903 
L 398.487273 -194.223903 
L 395.207927 -193.784275 
L 391.928581 -193.061691 
L 388.649266 -192.793516 
L 385.36992 -192.482784 
L 382.090574 -192.110347 
L 378.811227 -191.872913 
L 375.531881 -191.354316 
L 372.252566 -191.090836 
L 368.97322 -190.873003 
L 365.693882 -190.449106 
L 362.414536 -190.51913 
L 359.135213 -190.047057 
L 355.855867 -190.039548 
L 352.576521 -189.625605 
L 349.297191 -189.548166 
L 346.01786 -189.233244 
L 342.738514 -188.959319 
L 339.459168 -189.029624 
L 336.179822 -188.974439 
L 332.900491 -188.852363 
L 329.621153 -188.584347 
L 326.341815 -188.569695 
L 323.062476 -188.300621 
L 319.783138 -188.123747 
L 316.503792 -188.254497 
L 313.224462 -188.133625 
L 309.945123 -188.168899 
L 306.665785 -187.9921 
L 303.386439 -187.766134 
L 300.107108 -187.637716 
L 296.827762 -187.742701 
L 293.548424 -187.819002 
L 290.269093 -187.798569 
L 286.989755 -187.734049 
L 283.710409 -187.580688 
L 280.431067 -187.673142 
L 277.151733 -187.452188 
L 273.872394 -187.738195 
L 270.59306 -187.337651 
L 267.313716 -187.805932 
L 264.034379 -187.497102 
L 260.755035 -187.589121 
L 257.475699 -187.320685 
L 254.196364 -187.450845 
L 250.917028 -187.519151 
L 247.637684 -187.586062 
L 244.358348 -187.364923 
L 241.079004 -187.583666 
L 237.799667 -187.354518 
L 234.520323 -187.320277 
L 231.240996 -187.488971 
L 227.961652 -187.388483 
L 224.682308 -187.313765 
L 221.402982 -187.176276 
L 218.123628 -187.39368 
L 214.844301 -187.176788 
L 211.564957 -187.227999 
L 208.285621 -187.107227 
L 205.006277 -187.253477 
L 201.726936 -187.119261 
L 198.447606 -187.165492 
L 195.168256 -187.195728 
L 191.888925 -187.306007 
L 188.609583 -187.17748 
L 185.330245 -187.074083 
L 182.050914 -187.090811 
L 178.771564 -187.096873 
L 175.492234 -187.068791 
L 172.212892 -186.986842 
L 168.933553 -186.814869 
L 165.654215 -186.933866 
L 162.374869 -186.921909 
L 159.095538 -186.902265 
L 155.816192 -186.670389 
L 152.536862 -186.801959 
L 149.257516 -186.579301 
L 145.978178 -186.547589 
L 142.698847 -186.258249 
L 139.419493 -186.373946 
L 136.140163 -186.229133 
L 132.860824 -186.261903 
L 129.581486 -185.995976 
L 126.302148 -186.025757 
L 123.022809 -185.756349 
L 119.743479 -185.976472 
L 116.464133 -185.642357 
L 113.184795 -185.590007 
L 109.905456 -185.371099 
L 106.62611 -185.187552 
L 103.34678 -185.186533 
L 100.067434 -184.769035 
L 96.788103 -184.800076 
L 93.508757 -184.646127 
L 90.229426 -184.278751 
L 86.95008 -184.053838 
L 83.670734 -184.021763 
L 80.391404 -183.771171 
L 77.112073 -183.580939 
L 73.832727 -183.411435 
z
" style="stroke: #0000ff; stroke-opacity: 0.5"/>
    </defs>
    <g clip-path="url(#p976b5feabb)">
     <use xlink:href="#m7b06dd566b" x="0" y="345.6" style="fill: #0000ff; fill-opacity: 0.5; stroke: #0000ff; stroke-opacity: 0.5"/>
    </g>
   </g>
   <g id="FillBetweenPolyCollection_2">
    <defs>
     <path id="m85cac1b9e5" d="M 73.832727 -206.987797 
L 73.832727 -118.231602 
L 77.112073 -119.659299 
L 80.391404 -120.023255 
L 83.670734 -120.899727 
L 86.95008 -121.626888 
L 90.229426 -122.51365 
L 93.508757 -123.680524 
L 96.788103 -124.038227 
L 100.067434 -124.810233 
L 103.34678 -124.925517 
L 106.62611 -125.472615 
L 109.905456 -126.410948 
L 113.184795 -126.238697 
L 116.464133 -127.156199 
L 119.743479 -127.582586 
L 123.022809 -127.668566 
L 126.302148 -127.996084 
L 129.581486 -128.024591 
L 132.860824 -128.823864 
L 136.140163 -128.904288 
L 139.419493 -129.214103 
L 142.698847 -129.321085 
L 145.978178 -129.709202 
L 149.257516 -129.774946 
L 152.536862 -130.021071 
L 155.816192 -130.007949 
L 159.095538 -130.36806 
L 162.374869 -130.095744 
L 165.654215 -130.208185 
L 168.933553 -130.363371 
L 172.212892 -130.402546 
L 175.492234 -130.558315 
L 178.771564 -130.55338 
L 182.050914 -131.003106 
L 185.330245 -130.797622 
L 188.609583 -131.002007 
L 191.888925 -130.999135 
L 195.168256 -131.04468 
L 198.447606 -131.161476 
L 201.726936 -131.375929 
L 205.006277 -131.163578 
L 208.285621 -131.014218 
L 211.564957 -131.162647 
L 214.844301 -131.226719 
L 218.123628 -131.485553 
L 221.402982 -131.164397 
L 224.682308 -131.114849 
L 227.961652 -131.295255 
L 231.240996 -131.345908 
L 234.520323 -131.366989 
L 237.799667 -131.481478 
L 241.079004 -131.397077 
L 244.358348 -131.301063 
L 247.637684 -131.2937 
L 250.917028 -131.201366 
L 254.196364 -131.427693 
L 257.475699 -131.402222 
L 260.755035 -131.547271 
L 264.034379 -131.500904 
L 267.313716 -131.775492 
L 270.59306 -131.619954 
L 273.872394 -131.814771 
L 277.151733 -131.521829 
L 280.431067 -131.787143 
L 283.710409 -131.632817 
L 286.989755 -131.779077 
L 290.269093 -131.43248 
L 293.548424 -131.663822 
L 296.827762 -131.760758 
L 300.107108 -131.803524 
L 303.386439 -131.939287 
L 306.665785 -131.961334 
L 309.945123 -131.619317 
L 313.224462 -132.258204 
L 316.503792 -132.327761 
L 319.783138 -132.301284 
L 323.062476 -132.161094 
L 326.341815 -132.064186 
L 329.621153 -132.390856 
L 332.900491 -132.515565 
L 336.179822 -132.713626 
L 339.459168 -132.636746 
L 342.738514 -132.504779 
L 346.01786 -132.715457 
L 349.297191 -133.153907 
L 352.576521 -133.082651 
L 355.855867 -133.187548 
L 359.135213 -133.294843 
L 362.414536 -133.621008 
L 365.693882 -133.442007 
L 368.97322 -133.871692 
L 372.252566 -134.05365 
L 375.531881 -134.115902 
L 378.811227 -134.099319 
L 382.090574 -134.183103 
L 385.36992 -134.661341 
L 388.649266 -134.800288 
L 391.928581 -134.922719 
L 395.207927 -134.969908 
L 398.487273 -135.183514 
L 398.487273 -223.982691 
L 398.487273 -223.982691 
L 395.207927 -223.024748 
L 391.928581 -222.114903 
L 388.649266 -220.904162 
L 385.36992 -220.344481 
L 382.090574 -219.828872 
L 378.811227 -219.064324 
L 375.531881 -218.015331 
L 372.252566 -217.619704 
L 368.97322 -217.287137 
L 365.693882 -216.550324 
L 362.414536 -216.152708 
L 359.135213 -215.541212 
L 355.855867 -215.397178 
L 352.576521 -214.846137 
L 349.297191 -214.549221 
L 346.01786 -213.988012 
L 342.738514 -213.555809 
L 339.459168 -213.454852 
L 336.179822 -213.242942 
L 332.900491 -212.846459 
L 329.621153 -212.683931 
L 326.341815 -212.762909 
L 323.062476 -212.306669 
L 319.783138 -212.143633 
L 316.503792 -212.447943 
L 313.224462 -211.844952 
L 309.945123 -212.029378 
L 306.665785 -211.726758 
L 303.386439 -211.365709 
L 300.107108 -211.524864 
L 296.827762 -211.721587 
L 293.548424 -211.479459 
L 290.269093 -211.427217 
L 286.989755 -211.17878 
L 283.710409 -211.360709 
L 280.431067 -211.379278 
L 277.151733 -211.137658 
L 273.872394 -211.119233 
L 270.59306 -211.1046 
L 267.313716 -211.075559 
L 264.034379 -211.105785 
L 260.755035 -211.217358 
L 257.475699 -210.703748 
L 254.196364 -210.830106 
L 250.917028 -210.84867 
L 247.637684 -210.748659 
L 244.358348 -210.704437 
L 241.079004 -211.032084 
L 237.799667 -210.794928 
L 234.520323 -210.706929 
L 231.240996 -211.084756 
L 227.961652 -210.605259 
L 224.682308 -210.805899 
L 221.402982 -210.668648 
L 218.123628 -210.888177 
L 214.844301 -210.539423 
L 211.564957 -210.656443 
L 208.285621 -210.580637 
L 205.006277 -210.701539 
L 201.726936 -210.523137 
L 198.447606 -210.481142 
L 195.168256 -210.4742 
L 191.888925 -210.580285 
L 188.609583 -210.568403 
L 185.330245 -210.567287 
L 182.050914 -210.636065 
L 178.771564 -210.839724 
L 175.492234 -210.659116 
L 172.212892 -210.25102 
L 168.933553 -210.242665 
L 165.654215 -210.067537 
L 162.374869 -210.297517 
L 159.095538 -210.187433 
L 155.816192 -209.51519 
L 152.536862 -209.942704 
L 149.257516 -209.929002 
L 145.978178 -210.072434 
L 142.698847 -209.73878 
L 139.419493 -209.879445 
L 136.140163 -209.58165 
L 132.860824 -209.500531 
L 129.581486 -209.391886 
L 126.302148 -209.221945 
L 123.022809 -209.078208 
L 119.743479 -209.049937 
L 116.464133 -208.867567 
L 113.184795 -208.9108 
L 109.905456 -209.06357 
L 106.62611 -208.683611 
L 103.34678 -208.504546 
L 100.067434 -208.01654 
L 96.788103 -208.097439 
L 93.508757 -207.71473 
L 90.229426 -208.093157 
L 86.95008 -207.449522 
L 83.670734 -207.56928 
L 80.391404 -207.216133 
L 77.112073 -206.958456 
L 73.832727 -206.987797 
z
" style="stroke: #0000ff; stroke-opacity: 0.3"/>
    </defs>
    <g clip-path="url(#p976b5feabb)">
     <use xlink:href="#m85cac1b9e5" x="0" y="345.6" style="fill: #0000ff; fill-opacity: 0.3; stroke: #0000ff; stroke-opacity: 0.3"/>
    </g>
   </g>
   <g id="line2d_11">
    <path d="M 73.832727 180.605663 
L 77.112073 180.119248 
L 80.391404 179.942356 
L 83.670734 179.592041 
L 86.95008 179.359561 
L 90.229426 178.914306 
L 93.508757 178.599321 
L 96.788103 178.212905 
L 100.067434 178.097541 
L 103.34678 177.759276 
L 106.62611 177.572254 
L 109.905456 177.181319 
L 113.184795 177.055998 
L 116.464133 176.879393 
L 119.743479 176.554782 
L 123.022809 176.719844 
L 126.302148 176.415135 
L 129.581486 176.325618 
L 132.860824 175.94186 
L 136.140163 175.95854 
L 139.419493 175.74788 
L 142.698847 175.750659 
L 145.978178 175.666029 
L 149.257516 175.452806 
L 152.536862 175.322055 
L 155.816192 175.312337 
L 159.095538 175.173895 
L 162.374869 175.138892 
L 165.654215 175.188425 
L 168.933553 175.092004 
L 172.212892 175.04325 
L 175.492234 174.941162 
L 178.771564 174.898137 
L 182.050914 174.825644 
L 185.330245 174.868027 
L 188.609583 174.670396 
L 191.888925 174.725554 
L 195.168256 174.734099 
L 198.447606 174.69512 
L 201.726936 174.741305 
L 205.006277 174.748282 
L 208.285621 174.703135 
L 211.564957 174.682711 
L 214.844301 174.740335 
L 218.123628 174.465002 
L 221.402982 174.598388 
L 224.682308 174.709784 
L 227.961652 174.581235 
L 231.240996 174.38824 
L 234.520323 174.624089 
L 237.799667 174.543126 
L 241.079004 174.400501 
L 244.358348 174.548228 
L 247.637684 174.489326 
L 250.917028 174.483837 
L 254.196364 174.45504 
L 257.475699 174.483272 
L 260.755035 174.287164 
L 264.034379 174.441404 
L 267.313716 174.178707 
L 270.59306 174.436746 
L 273.872394 174.213926 
L 277.151733 174.347202 
L 280.431067 174.157459 
L 283.710409 174.286578 
L 286.989755 174.159776 
L 290.269093 174.193324 
L 293.548424 174.065711 
L 296.827762 174.071051 
L 300.107108 174.0544 
L 303.386439 174.054246 
L 306.665785 173.928299 
L 309.945123 173.803605 
L 313.224462 173.750046 
L 316.503792 173.652913 
L 319.783138 173.688068 
L 323.062476 173.598573 
L 326.341815 173.433631 
L 329.621153 173.305609 
L 332.900491 173.160869 
L 336.179822 173.03704 
L 339.459168 172.901816 
L 342.738514 172.975605 
L 346.01786 172.690068 
L 349.297191 172.496371 
L 352.576521 172.322477 
L 355.855867 172.075172 
L 359.135213 171.974078 
L 362.414536 171.662092 
L 365.693882 171.652169 
L 368.97322 171.180982 
L 372.252566 171.020711 
L 375.531881 170.73681 
L 378.811227 170.416941 
L 382.090574 170.139737 
L 385.36992 169.857883 
L 388.649266 169.517273 
L 391.928581 169.135186 
L 395.207927 168.811056 
L 398.487273 168.384992 
" clip-path="url(#p976b5feabb)" style="fill: none; stroke: #0000ff; stroke-width: 1.5; stroke-linecap: round"/>
   </g>
   <g id="line2d_12">
    <path d="M 73.832727 295.488 
L 77.112073 293.044358 
L 80.391404 290.600728 
L 83.670734 288.157098 
L 86.95008 285.713456 
L 90.229426 283.269814 
L 93.508757 280.826184 
L 96.788103 278.382543 
L 100.067434 275.938912 
L 103.34678 273.495271 
L 106.62611 271.05164 
L 109.905456 268.607999 
L 113.184795 266.164363 
L 116.464133 263.720727 
L 119.743479 261.277085 
L 123.022809 258.833455 
L 126.302148 256.389819 
L 129.581486 253.946183 
L 132.860824 251.502547 
L 136.140163 249.058911 
L 139.419493 246.615281 
L 142.698847 244.171633 
L 145.978178 241.728003 
L 149.257516 239.284367 
L 152.536862 236.840726 
L 155.816192 234.397095 
L 159.095538 231.953454 
L 162.374869 229.509823 
L 165.654215 227.066182 
L 168.933553 224.622546 
L 172.212892 222.17891 
L 175.492234 219.735271 
L 178.771564 217.291641 
L 182.050914 214.847996 
L 185.330245 212.404366 
L 188.609583 209.96073 
L 191.888925 207.517091 
L 195.168256 205.073461 
L 198.447606 202.629816 
L 201.726936 200.186186 
L 205.006277 197.742549 
L 208.285621 195.298909 
L 211.564957 192.855274 
L 214.844301 190.411634 
L 218.123628 187.968006 
L 221.402982 185.524359 
L 224.682308 183.080732 
L 227.961652 180.637091 
L 231.240996 178.193451 
L 234.520323 175.749824 
L 237.799667 173.306183 
L 241.079004 170.862549 
L 244.358348 168.418909 
L 247.637684 165.975274 
L 250.917028 163.531634 
L 254.196364 161.087999 
L 257.475699 158.644366 
L 260.755035 156.200732 
L 264.034379 153.757091 
L 267.313716 151.313457 
L 270.59306 148.869817 
L 273.872394 146.426184 
L 277.151733 143.982548 
L 280.431067 141.538915 
L 283.710409 139.095276 
L 286.989755 136.651634 
L 290.269093 134.207998 
L 293.548424 131.764368 
L 296.827762 129.320732 
L 300.107108 126.87709 
L 303.386439 124.43346 
L 306.665785 121.989818 
L 309.945123 119.546182 
L 313.224462 117.102546 
L 316.503792 114.658916 
L 319.783138 112.215274 
L 323.062476 109.771639 
L 326.341815 107.328003 
L 329.621153 104.884367 
L 332.900491 102.440731 
L 336.179822 99.9971 
L 339.459168 97.553459 
L 342.738514 95.109817 
L 346.01786 92.666175 
L 349.297191 90.222545 
L 352.576521 87.778915 
L 355.855867 85.335273 
L 359.135213 82.891631 
L 362.414536 80.448007 
L 365.693882 78.004365 
L 368.97322 75.560729 
L 372.252566 73.117088 
L 375.531881 70.673469 
L 378.811227 68.229827 
L 382.090574 65.786186 
L 385.36992 63.342544 
L 388.649266 60.898902 
L 391.928581 58.455283 
L 395.207927 56.011642 
L 398.487273 53.568 
" clip-path="url(#p976b5feabb)" style="fill: none; stroke-dasharray: 5.55,2.4; stroke-dashoffset: 0; stroke: #808080; stroke-width: 1.5"/>
   </g>
   <g id="LineCollection_1">
    <path d="M 236.16 295.488 
L 236.16 53.568 
" clip-path="url(#p976b5feabb)" style="fill: none; stroke-dasharray: 5.55,2.4; stroke-dashoffset: 0; stroke: #008000; stroke-width: 1.5"/>
   </g>
   <g id="patch_3">
    <path d="M 57.6 307.584 
L 57.6 41.472 
" style="fill: none; stroke: #ffffff; stroke-width: 0.8; stroke-linejoin: miter; stroke-linecap: square"/>
   </g>
   <g id="patch_4">
    <path d="M 414.72 307.584 
L 414.72 41.472 
" style="fill: none; stroke: #ffffff; stroke-width: 0.8; stroke-linejoin: miter; stroke-linecap: square"/>
   </g>
   <g id="patch_5">
    <path d="M 57.6 307.584 
L 414.72 307.584 
" style="fill: none; stroke: #ffffff; stroke-width: 0.8; stroke-linejoin: miter; stroke-linecap: square"/>
   </g>
   <g id="patch_6">
    <path d="M 57.6 41.472 
L 414.72 41.472 
" style="fill: none; stroke: #ffffff; stroke-width: 0.8; stroke-linejoin: miter; stroke-linecap: square"/>
   </g>
   <g id="text_13">
    <!-- $\sigma=1, n=20$ -->
    <g style="fill: #262626" transform="translate(199.26 35.472) scale(0.12 -0.12)">
     <defs>
      <path id="DejaVuSans-Oblique-3c3" d="M 2219 3044 
Q 1744 3044 1422 2700 
Q 1081 2341 969 1747 
Q 844 1119 1044 756 
Q 1241 397 1706 397 
Q 2166 397 2503 759 
Q 2844 1122 2966 1747 
Q 3075 2319 2881 2700 
Q 2700 3044 2219 3044 
z
M 2309 3503 
L 4219 3500 
L 4106 2925 
L 3463 2925 
Q 3706 2438 3575 1747 
Q 3406 888 2884 400 
Q 2359 -91 1609 -91 
Q 856 -91 525 400 
Q 194 888 363 1747 
Q 528 2609 1050 3097 
Q 1484 3503 2309 3503 
z
" transform="scale(0.015625)"/>
      <path id="DejaVuSans-3d" d="M 678 2906 
L 4684 2906 
L 4684 2381 
L 678 2381 
L 678 2906 
z
M 678 1631 
L 4684 1631 
L 4684 1100 
L 678 1100 
L 678 1631 
z
" transform="scale(0.015625)"/>
      <path id="DejaVuSans-31" d="M 794 531 
L 1825 531 
L 1825 4091 
L 703 3866 
L 703 4441 
L 1819 4666 
L 2450 4666 
L 2450 531 
L 3481 531 
L 3481 0 
L 794 0 
L 794 531 
z
" transform="scale(0.015625)"/>
      <path id="DejaVuSans-2c" d="M 750 794 
L 1409 794 
L 1409 256 
L 897 -744 
L 494 -744 
L 750 256 
L 750 794 
z
" transform="scale(0.015625)"/>
      <path id="DejaVuSans-32" d="M 1228 531 
L 3431 531 
L 3431 0 
L 469 0 
L 469 531 
Q 828 903 1448 1529 
Q 2069 2156 2228 2338 
Q 2531 2678 2651 2914 
Q 2772 3150 2772 3378 
Q 2772 3750 2511 3984 
Q 2250 4219 1831 4219 
Q 1534 4219 1204 4116 
Q 875 4013 500 3803 
L 500 4441 
Q 881 4594 1212 4672 
Q 1544 4750 1819 4750 
Q 2544 4750 2975 4387 
Q 3406 4025 3406 3419 
Q 3406 3131 3298 2873 
Q 3191 2616 2906 2266 
Q 2828 2175 2409 1742 
Q 1991 1309 1228 531 
z
" transform="scale(0.015625)"/>
      <path id="DejaVuSans-30" d="M 2034 4250 
Q 1547 4250 1301 3770 
Q 1056 3291 1056 2328 
Q 1056 1369 1301 889 
Q 1547 409 2034 409 
Q 2525 409 2770 889 
Q 3016 1369 3016 2328 
Q 3016 3291 2770 3770 
Q 2525 4250 2034 4250 
z
M 2034 4750 
Q 2819 4750 3233 4129 
Q 3647 3509 3647 2328 
Q 3647 1150 3233 529 
Q 2819 -91 2034 -91 
Q 1250 -91 836 529 
Q 422 1150 422 2328 
Q 422 3509 836 4129 
Q 1250 4750 2034 4750 
z
" transform="scale(0.015625)"/>
     </defs>
     <use xlink:href="#DejaVuSans-Oblique-3c3" transform="translate(0 0.78125)"/>
     <use xlink:href="#DejaVuSans-3d" transform="translate(82.861328 0.78125)"/>
     <use xlink:href="#DejaVuSans-31" transform="translate(186.132812 0.78125)"/>
     <use xlink:href="#DejaVuSans-2c" transform="translate(249.755859 0.78125)"/>
     <use xlink:href="#DejaVuSans-Oblique-6e" transform="translate(301.025391 0.78125)"/>
     <use xlink:href="#DejaVuSans-3d" transform="translate(383.886719 0.78125)"/>
     <use xlink:href="#DejaVuSans-32" transform="translate(487.158203 0.78125)"/>
     <use xlink:href="#DejaVuSans-30" transform="translate(550.78125 0.78125)"/>
    </g>
   </g>
   <g id="legend_1">
    <g id="patch_7">
     <path d="M 302.42 302.584 
L 407.72 302.584 
Q 409.72 302.584 409.72 300.584 
L 409.72 230.248062 
Q 409.72 228.248062 407.72 228.248062 
L 302.42 228.248062 
Q 300.42 228.248062 300.42 230.248062 
L 300.42 300.584 
Q 300.42 302.584 302.42 302.584 
z
" style="fill: #eaeaf2; opacity: 0.8; stroke: #cccccc; stroke-linejoin: miter"/>
    </g>
    <g id="line2d_13">
     <path d="M 304.42 236.160562 
L 314.42 236.160562 
L 324.42 236.160562 
" style="fill: none; stroke: #0000ff; stroke-width: 1.5; stroke-linecap: round"/>
    </g>
    <g id="text_14">
     <!-- $E[x_{next}]$ -->
     <g style="fill: #262626" transform="translate(332.42 239.660562) scale(0.1 -0.1)">
      <defs>
       <path id="DejaVuSans-Oblique-45" d="M 1081 4666 
L 4031 4666 
L 3928 4134 
L 1606 4134 
L 1338 2753 
L 3566 2753 
L 3463 2222 
L 1234 2222 
L 909 531 
L 3284 531 
L 3181 0 
L 172 0 
L 1081 4666 
z
" transform="scale(0.015625)"/>
       <path id="DejaVuSans-5b" d="M 550 4863 
L 1875 4863 
L 1875 4416 
L 1125 4416 
L 1125 -397 
L 1875 -397 
L 1875 -844 
L 550 -844 
L 550 4863 
z
" transform="scale(0.015625)"/>
       <path id="DejaVuSans-5d" d="M 1947 4863 
L 1947 -844 
L 622 -844 
L 622 -397 
L 1369 -397 
L 1369 4416 
L 622 4416 
L 622 4863 
L 1947 4863 
z
" transform="scale(0.015625)"/>
      </defs>
      <use xlink:href="#DejaVuSans-Oblique-45" transform="translate(0 0.015625)"/>
      <use xlink:href="#DejaVuSans-5b" transform="translate(63.183594 0.015625)"/>
      <use xlink:href="#DejaVuSans-Oblique-78" transform="translate(102.197266 0.015625)"/>
      <use xlink:href="#DejaVuSans-Oblique-6e" transform="translate(161.376953 -16.390625) scale(0.7)"/>
      <use xlink:href="#DejaVuSans-Oblique-65" transform="translate(205.742188 -16.390625) scale(0.7)"/>
      <use xlink:href="#DejaVuSans-Oblique-78" transform="translate(248.808594 -16.390625) scale(0.7)"/>
      <use xlink:href="#DejaVuSans-Oblique-74" transform="translate(290.234375 -16.390625) scale(0.7)"/>
      <use xlink:href="#DejaVuSans-5d" transform="translate(320.415039 0.015625)"/>
     </g>
    </g>
    <g id="patch_8">
     <path d="M 304.42 253.805875 
L 324.42 253.805875 
L 324.42 246.805875 
L 304.42 246.805875 
z
" style="fill: #0000ff; fill-opacity: 0.5; stroke: #0000ff; stroke-opacity: 0.5; stroke-linejoin: miter"/>
    </g>
    <g id="text_15">
     <!-- 50% CI -->
     <g style="fill: #262626" transform="translate(332.42 253.805875) scale(0.1 -0.1)">
      <defs>
       <path id="ArialMT-35" d="M 266 1200 
L 856 1250 
Q 922 819 1161 601 
Q 1400 384 1738 384 
Q 2144 384 2425 690 
Q 2706 997 2706 1503 
Q 2706 1984 2436 2262 
Q 2166 2541 1728 2541 
Q 1456 2541 1237 2417 
Q 1019 2294 894 2097 
L 366 2166 
L 809 4519 
L 3088 4519 
L 3088 3981 
L 1259 3981 
L 1013 2750 
Q 1425 3038 1878 3038 
Q 2478 3038 2890 2622 
Q 3303 2206 3303 1553 
Q 3303 931 2941 478 
Q 2500 -78 1738 -78 
Q 1113 -78 717 272 
Q 322 622 266 1200 
z
" transform="scale(0.015625)"/>
       <path id="ArialMT-25" d="M 372 3481 
Q 372 3972 619 4315 
Q 866 4659 1334 4659 
Q 1766 4659 2048 4351 
Q 2331 4044 2331 3447 
Q 2331 2866 2045 2552 
Q 1759 2238 1341 2238 
Q 925 2238 648 2547 
Q 372 2856 372 3481 
z
M 1350 4272 
Q 1141 4272 1002 4090 
Q 863 3909 863 3425 
Q 863 2984 1003 2804 
Q 1144 2625 1350 2625 
Q 1563 2625 1702 2806 
Q 1841 2988 1841 3469 
Q 1841 3913 1700 4092 
Q 1559 4272 1350 4272 
z
M 1353 -169 
L 3859 4659 
L 4316 4659 
L 1819 -169 
L 1353 -169 
z
M 3334 1075 
Q 3334 1569 3581 1911 
Q 3828 2253 4300 2253 
Q 4731 2253 5014 1945 
Q 5297 1638 5297 1041 
Q 5297 459 5011 145 
Q 4725 -169 4303 -169 
Q 3888 -169 3611 142 
Q 3334 453 3334 1075 
z
M 4316 1866 
Q 4103 1866 3964 1684 
Q 3825 1503 3825 1019 
Q 3825 581 3965 400 
Q 4106 219 4313 219 
Q 4528 219 4667 400 
Q 4806 581 4806 1063 
Q 4806 1506 4665 1686 
Q 4525 1866 4316 1866 
z
" transform="scale(0.015625)"/>
       <path id="ArialMT-20" transform="scale(0.015625)"/>
       <path id="ArialMT-43" d="M 3763 1606 
L 4369 1453 
Q 4178 706 3683 314 
Q 3188 -78 2472 -78 
Q 1731 -78 1267 223 
Q 803 525 561 1097 
Q 319 1669 319 2325 
Q 319 3041 592 3573 
Q 866 4106 1370 4382 
Q 1875 4659 2481 4659 
Q 3169 4659 3637 4309 
Q 4106 3959 4291 3325 
L 3694 3184 
Q 3534 3684 3231 3912 
Q 2928 4141 2469 4141 
Q 1941 4141 1586 3887 
Q 1231 3634 1087 3207 
Q 944 2781 944 2328 
Q 944 1744 1114 1308 
Q 1284 872 1643 656 
Q 2003 441 2422 441 
Q 2931 441 3284 734 
Q 3638 1028 3763 1606 
z
" transform="scale(0.015625)"/>
       <path id="ArialMT-49" d="M 597 0 
L 597 4581 
L 1203 4581 
L 1203 0 
L 597 0 
z
" transform="scale(0.015625)"/>
      </defs>
      <use xlink:href="#ArialMT-35"/>
      <use xlink:href="#ArialMT-30" transform="translate(55.615234 0)"/>
      <use xlink:href="#ArialMT-25" transform="translate(111.230469 0)"/>
      <use xlink:href="#ArialMT-20" transform="translate(200.146484 0)"/>
      <use xlink:href="#ArialMT-43" transform="translate(227.929688 0)"/>
      <use xlink:href="#ArialMT-49" transform="translate(300.146484 0)"/>
     </g>
    </g>
    <g id="patch_9">
     <path d="M 304.42 267.951187 
L 324.42 267.951187 
L 324.42 260.951187 
L 304.42 260.951187 
z
" style="fill: #0000ff; fill-opacity: 0.3; stroke: #0000ff; stroke-opacity: 0.3; stroke-linejoin: miter"/>
    </g>
    <g id="text_16">
     <!-- 90% CI -->
     <g style="fill: #262626" transform="translate(332.42 267.951187) scale(0.1 -0.1)">
      <defs>
       <path id="ArialMT-39" d="M 350 1059 
L 891 1109 
Q 959 728 1153 556 
Q 1347 384 1650 384 
Q 1909 384 2104 503 
Q 2300 622 2425 820 
Q 2550 1019 2634 1356 
Q 2719 1694 2719 2044 
Q 2719 2081 2716 2156 
Q 2547 1888 2255 1720 
Q 1963 1553 1622 1553 
Q 1053 1553 659 1965 
Q 266 2378 266 3053 
Q 266 3750 677 4175 
Q 1088 4600 1706 4600 
Q 2153 4600 2523 4359 
Q 2894 4119 3086 3673 
Q 3278 3228 3278 2384 
Q 3278 1506 3087 986 
Q 2897 466 2520 194 
Q 2144 -78 1638 -78 
Q 1100 -78 759 220 
Q 419 519 350 1059 
z
M 2653 3081 
Q 2653 3566 2395 3850 
Q 2138 4134 1775 4134 
Q 1400 4134 1122 3828 
Q 844 3522 844 3034 
Q 844 2597 1108 2323 
Q 1372 2050 1759 2050 
Q 2150 2050 2401 2323 
Q 2653 2597 2653 3081 
z
" transform="scale(0.015625)"/>
      </defs>
      <use xlink:href="#ArialMT-39"/>
      <use xlink:href="#ArialMT-30" transform="translate(55.615234 0)"/>
      <use xlink:href="#ArialMT-25" transform="translate(111.230469 0)"/>
      <use xlink:href="#ArialMT-20" transform="translate(200.146484 0)"/>
      <use xlink:href="#ArialMT-43" transform="translate(227.929688 0)"/>
      <use xlink:href="#ArialMT-49" transform="translate(300.146484 0)"/>
     </g>
    </g>
    <g id="line2d_14">
     <path d="M 304.42 278.5965 
L 314.42 278.5965 
L 324.42 278.5965 
" style="fill: none; stroke-dasharray: 5.55,2.4; stroke-dashoffset: 0; stroke: #808080; stroke-width: 1.5"/>
    </g>
    <g id="text_17">
     <!-- $x=x_{next}$ -->
     <g style="fill: #262626" transform="translate(332.42 282.0965) scale(0.1 -0.1)">
      <use xlink:href="#DejaVuSans-Oblique-78" transform="translate(0 0.3125)"/>
      <use xlink:href="#DejaVuSans-3d" transform="translate(78.662109 0.3125)"/>
      <use xlink:href="#DejaVuSans-Oblique-78" transform="translate(181.933594 0.3125)"/>
      <use xlink:href="#DejaVuSans-Oblique-6e" transform="translate(241.113281 -16.09375) scale(0.7)"/>
      <use xlink:href="#DejaVuSans-Oblique-65" transform="translate(285.478516 -16.09375) scale(0.7)"/>
      <use xlink:href="#DejaVuSans-Oblique-78" transform="translate(328.544922 -16.09375) scale(0.7)"/>
      <use xlink:href="#DejaVuSans-Oblique-74" transform="translate(369.970703 -16.09375) scale(0.7)"/>
     </g>
    </g>
    <g id="line2d_15">
     <path d="M 304.42 292.884 
L 324.42 292.884 
" style="fill: none; stroke-dasharray: 5.55,2.4; stroke-dashoffset: 0; stroke: #008000; stroke-width: 1.5"/>
    </g>
    <g id="text_18">
     <!-- mode of target $\pi$ -->
     <g style="fill: #262626" transform="translate(332.42 296.384) scale(0.1 -0.1)">
      <defs>
       <path id="ArialMT-6d" d="M 422 0 
L 422 3319 
L 925 3319 
L 925 2853 
Q 1081 3097 1340 3245 
Q 1600 3394 1931 3394 
Q 2300 3394 2536 3241 
Q 2772 3088 2869 2813 
Q 3263 3394 3894 3394 
Q 4388 3394 4653 3120 
Q 4919 2847 4919 2278 
L 4919 0 
L 4359 0 
L 4359 2091 
Q 4359 2428 4304 2576 
Q 4250 2725 4106 2815 
Q 3963 2906 3769 2906 
Q 3419 2906 3187 2673 
Q 2956 2441 2956 1928 
L 2956 0 
L 2394 0 
L 2394 2156 
Q 2394 2531 2256 2718 
Q 2119 2906 1806 2906 
Q 1569 2906 1367 2781 
Q 1166 2656 1075 2415 
Q 984 2175 984 1722 
L 984 0 
L 422 0 
z
" transform="scale(0.015625)"/>
       <path id="ArialMT-6f" d="M 213 1659 
Q 213 2581 725 3025 
Q 1153 3394 1769 3394 
Q 2453 3394 2887 2945 
Q 3322 2497 3322 1706 
Q 3322 1066 3130 698 
Q 2938 331 2570 128 
Q 2203 -75 1769 -75 
Q 1072 -75 642 372 
Q 213 819 213 1659 
z
M 791 1659 
Q 791 1022 1069 705 
Q 1347 388 1769 388 
Q 2188 388 2466 706 
Q 2744 1025 2744 1678 
Q 2744 2294 2464 2611 
Q 2184 2928 1769 2928 
Q 1347 2928 1069 2612 
Q 791 2297 791 1659 
z
" transform="scale(0.015625)"/>
       <path id="ArialMT-64" d="M 2575 0 
L 2575 419 
Q 2259 -75 1647 -75 
Q 1250 -75 917 144 
Q 584 363 401 755 
Q 219 1147 219 1656 
Q 219 2153 384 2558 
Q 550 2963 881 3178 
Q 1213 3394 1622 3394 
Q 1922 3394 2156 3267 
Q 2391 3141 2538 2938 
L 2538 4581 
L 3097 4581 
L 3097 0 
L 2575 0 
z
M 797 1656 
Q 797 1019 1065 703 
Q 1334 388 1700 388 
Q 2069 388 2326 689 
Q 2584 991 2584 1609 
Q 2584 2291 2321 2609 
Q 2059 2928 1675 2928 
Q 1300 2928 1048 2622 
Q 797 2316 797 1656 
z
" transform="scale(0.015625)"/>
       <path id="ArialMT-65" d="M 2694 1069 
L 3275 997 
Q 3138 488 2766 206 
Q 2394 -75 1816 -75 
Q 1088 -75 661 373 
Q 234 822 234 1631 
Q 234 2469 665 2931 
Q 1097 3394 1784 3394 
Q 2450 3394 2872 2941 
Q 3294 2488 3294 1666 
Q 3294 1616 3291 1516 
L 816 1516 
Q 847 969 1125 678 
Q 1403 388 1819 388 
Q 2128 388 2347 550 
Q 2566 713 2694 1069 
z
M 847 1978 
L 2700 1978 
Q 2663 2397 2488 2606 
Q 2219 2931 1791 2931 
Q 1403 2931 1139 2672 
Q 875 2413 847 1978 
z
" transform="scale(0.015625)"/>
       <path id="ArialMT-66" d="M 556 0 
L 556 2881 
L 59 2881 
L 59 3319 
L 556 3319 
L 556 3672 
Q 556 4006 616 4169 
Q 697 4388 901 4523 
Q 1106 4659 1475 4659 
Q 1713 4659 2000 4603 
L 1916 4113 
Q 1741 4144 1584 4144 
Q 1328 4144 1222 4034 
Q 1116 3925 1116 3625 
L 1116 3319 
L 1763 3319 
L 1763 2881 
L 1116 2881 
L 1116 0 
L 556 0 
z
" transform="scale(0.015625)"/>
       <path id="ArialMT-74" d="M 1650 503 
L 1731 6 
Q 1494 -44 1306 -44 
Q 1000 -44 831 53 
Q 663 150 594 308 
Q 525 466 525 972 
L 525 2881 
L 113 2881 
L 113 3319 
L 525 3319 
L 525 4141 
L 1084 4478 
L 1084 3319 
L 1650 3319 
L 1650 2881 
L 1084 2881 
L 1084 941 
Q 1084 700 1114 631 
Q 1144 563 1211 522 
Q 1278 481 1403 481 
Q 1497 481 1650 503 
z
" transform="scale(0.015625)"/>
       <path id="ArialMT-61" d="M 2588 409 
Q 2275 144 1986 34 
Q 1697 -75 1366 -75 
Q 819 -75 525 192 
Q 231 459 231 875 
Q 231 1119 342 1320 
Q 453 1522 633 1644 
Q 813 1766 1038 1828 
Q 1203 1872 1538 1913 
Q 2219 1994 2541 2106 
Q 2544 2222 2544 2253 
Q 2544 2597 2384 2738 
Q 2169 2928 1744 2928 
Q 1347 2928 1158 2789 
Q 969 2650 878 2297 
L 328 2372 
Q 403 2725 575 2942 
Q 747 3159 1072 3276 
Q 1397 3394 1825 3394 
Q 2250 3394 2515 3294 
Q 2781 3194 2906 3042 
Q 3031 2891 3081 2659 
Q 3109 2516 3109 2141 
L 3109 1391 
Q 3109 606 3145 398 
Q 3181 191 3288 0 
L 2700 0 
Q 2613 175 2588 409 
z
M 2541 1666 
Q 2234 1541 1622 1453 
Q 1275 1403 1131 1340 
Q 988 1278 909 1158 
Q 831 1038 831 891 
Q 831 666 1001 516 
Q 1172 366 1500 366 
Q 1825 366 2078 508 
Q 2331 650 2450 897 
Q 2541 1088 2541 1459 
L 2541 1666 
z
" transform="scale(0.015625)"/>
       <path id="ArialMT-72" d="M 416 0 
L 416 3319 
L 922 3319 
L 922 2816 
Q 1116 3169 1280 3281 
Q 1444 3394 1641 3394 
Q 1925 3394 2219 3213 
L 2025 2691 
Q 1819 2813 1613 2813 
Q 1428 2813 1281 2702 
Q 1134 2591 1072 2394 
Q 978 2094 978 1738 
L 978 0 
L 416 0 
z
" transform="scale(0.015625)"/>
       <path id="ArialMT-67" d="M 319 -275 
L 866 -356 
Q 900 -609 1056 -725 
Q 1266 -881 1628 -881 
Q 2019 -881 2231 -725 
Q 2444 -569 2519 -288 
Q 2563 -116 2559 434 
Q 2191 0 1641 0 
Q 956 0 581 494 
Q 206 988 206 1678 
Q 206 2153 378 2554 
Q 550 2956 876 3175 
Q 1203 3394 1644 3394 
Q 2231 3394 2613 2919 
L 2613 3319 
L 3131 3319 
L 3131 450 
Q 3131 -325 2973 -648 
Q 2816 -972 2473 -1159 
Q 2131 -1347 1631 -1347 
Q 1038 -1347 672 -1080 
Q 306 -813 319 -275 
z
M 784 1719 
Q 784 1066 1043 766 
Q 1303 466 1694 466 
Q 2081 466 2343 764 
Q 2606 1063 2606 1700 
Q 2606 2309 2336 2618 
Q 2066 2928 1684 2928 
Q 1309 2928 1046 2623 
Q 784 2319 784 1719 
z
" transform="scale(0.015625)"/>
       <path id="DejaVuSans-Oblique-3c0" d="M 584 3500 
L 3938 3500 
L 3825 2925 
L 3384 2925 
L 2966 775 
Q 2922 550 2981 450 
Q 3038 353 3209 353 
Q 3256 353 3325 363 
Q 3397 369 3419 372 
L 3338 -44 
Q 3222 -84 3103 -103 
Q 2981 -122 2866 -122 
Q 2491 -122 2388 81 
Q 2284 288 2391 838 
L 2797 2925 
L 1506 2925 
L 938 0 
L 350 0 
L 919 2925 
L 472 2925 
L 584 3500 
z
" transform="scale(0.015625)"/>
      </defs>
      <use xlink:href="#ArialMT-6d" transform="translate(0 0.203125)"/>
      <use xlink:href="#ArialMT-6f" transform="translate(83.300781 0.203125)"/>
      <use xlink:href="#ArialMT-64" transform="translate(138.916016 0.203125)"/>
      <use xlink:href="#ArialMT-65" transform="translate(194.53125 0.203125)"/>
      <use xlink:href="#ArialMT-20" transform="translate(250.146484 0.203125)"/>
      <use xlink:href="#ArialMT-6f" transform="translate(277.929688 0.203125)"/>
      <use xlink:href="#ArialMT-66" transform="translate(333.544922 0.203125)"/>
      <use xlink:href="#ArialMT-20" transform="translate(361.328125 0.203125)"/>
      <use xlink:href="#ArialMT-74" transform="translate(389.111328 0.203125)"/>
      <use xlink:href="#ArialMT-61" transform="translate(416.894531 0.203125)"/>
      <use xlink:href="#ArialMT-72" transform="translate(472.509766 0.203125)"/>
      <use xlink:href="#ArialMT-67" transform="translate(505.810547 0.203125)"/>
      <use xlink:href="#ArialMT-65" transform="translate(561.425781 0.203125)"/>
      <use xlink:href="#ArialMT-74" transform="translate(617.041016 0.203125)"/>
      <use xlink:href="#ArialMT-20" transform="translate(644.824219 0.203125)"/>
      <use xlink:href="#DejaVuSans-Oblique-3c0" transform="translate(672.607422 0.203125)"/>
     </g>
    </g>
   </g>
  </g>
 </g>
 <defs>
  <clipPath id="p976b5feabb">
   <rect x="57.6" y="41.472" width="357.12" height="266.112"/>
  </clipPath>
 </defs>
</svg>
