<?xml version="1.0" encoding="utf-8" standalone="no"?>
<!DOCTYPE svg PUBLIC "-//W3C//DTD SVG 1.1//EN"
  "http://www.w3.org/Graphics/SVG/1.1/DTD/svg11.dtd">
<svg xmlns:xlink="http://www.w3.org/1999/xlink" width="460.8pt" height="345.6pt" viewBox="0 0 460.8 345.6" xmlns="http://www.w3.org/2000/svg" version="1.1">
 <metadata>
  <rdf:RDF xmlns:dc="http://purl.org/dc/elements/1.1/" xmlns:cc="http://creativecommons.org/ns#" xmlns:rdf="http://www.w3.org/1999/02/22-rdf-syntax-ns#">
   <cc:Work>
    <dc:type rdf:resource="http://purl.org/dc/dcmitype/StillImage"/>
    <dc:date>2025-04-11T13:15:53.800577</dc:date>
    <dc:format>image/svg+xml</dc:format>
    <dc:creator>
     <cc:Agent>
      <dc:title>Matplotlib v3.10.1, https://matplotlib.org/</dc:title>
     </cc:Agent>
    </dc:creator>
   </cc:Work>
  </rdf:RDF>
 </metadata>
 <defs>
  <style type="text/css">*{stroke-linejoin: round; stroke-linecap: butt}</style>
 </defs>
 <g id="figure_1">
  <g id="patch_1">
   <path d="M 0 345.6 
L 460.8 345.6 
L 460.8 0 
L 0 0 
z
" style="fill: #ffffff"/>
  </g>
  <g id="axes_1">
   <g id="patch_2">
    <path d="M 57.6 307.584 
L 414.72 307.584 
L 414.72 41.472 
L 57.6 41.472 
z
" style="fill: #eaeaf2"/>
   </g>
   <g id="matplotlib.axis_1">
    <g id="xtick_1">
     <g id="line2d_1">
      <path d="M 106.298182 307.584 
L 106.298182 41.472 
" clip-path="url(#pfb1a1d03ec)" style="fill: none; stroke: #ffffff; stroke-width: 0.8; stroke-linecap: round"/>
     </g>
     <g id="text_1">
      <!-- −4 -->
      <g style="fill: #262626" transform="translate(100.597401 321.741812) scale(0.1 -0.1)">
       <defs>
        <path id="ArialMT-2212" d="M 3381 1997 
L 356 1997 
L 356 2522 
L 3381 2522 
L 3381 1997 
z
" transform="scale(0.015625)"/>
        <path id="ArialMT-34" d="M 2069 0 
L 2069 1097 
L 81 1097 
L 81 1613 
L 2172 4581 
L 2631 4581 
L 2631 1613 
L 3250 1613 
L 3250 1097 
L 2631 1097 
L 2631 0 
L 2069 0 
z
M 2069 1613 
L 2069 3678 
L 634 1613 
L 2069 1613 
z
" transform="scale(0.015625)"/>
       </defs>
       <use xlink:href="#ArialMT-2212"/>
       <use xlink:href="#ArialMT-34" transform="translate(58.398438 0)"/>
      </g>
     </g>
    </g>
    <g id="xtick_2">
     <g id="line2d_2">
      <path d="M 171.229091 307.584 
L 171.229091 41.472 
" clip-path="url(#pfb1a1d03ec)" style="fill: none; stroke: #ffffff; stroke-width: 0.8; stroke-linecap: round"/>
     </g>
     <g id="text_2">
      <!-- −2 -->
      <g style="fill: #262626" transform="translate(165.52831 321.741812) scale(0.1 -0.1)">
       <defs>
        <path id="ArialMT-32" d="M 3222 541 
L 3222 0 
L 194 0 
Q 188 203 259 391 
Q 375 700 629 1000 
Q 884 1300 1366 1694 
Q 2113 2306 2375 2664 
Q 2638 3022 2638 3341 
Q 2638 3675 2398 3904 
Q 2159 4134 1775 4134 
Q 1369 4134 1125 3890 
Q 881 3647 878 3216 
L 300 3275 
Q 359 3922 746 4261 
Q 1134 4600 1788 4600 
Q 2447 4600 2831 4234 
Q 3216 3869 3216 3328 
Q 3216 3053 3103 2787 
Q 2991 2522 2730 2228 
Q 2469 1934 1863 1422 
Q 1356 997 1212 845 
Q 1069 694 975 541 
L 3222 541 
z
" transform="scale(0.015625)"/>
       </defs>
       <use xlink:href="#ArialMT-2212"/>
       <use xlink:href="#ArialMT-32" transform="translate(58.398438 0)"/>
      </g>
     </g>
    </g>
    <g id="xtick_3">
     <g id="line2d_3">
      <path d="M 236.16 307.584 
L 236.16 41.472 
" clip-path="url(#pfb1a1d03ec)" style="fill: none; stroke: #ffffff; stroke-width: 0.8; stroke-linecap: round"/>
     </g>
     <g id="text_3">
      <!-- 0 -->
      <g style="fill: #262626" transform="translate(233.379531 321.741812) scale(0.1 -0.1)">
       <defs>
        <path id="ArialMT-30" d="M 266 2259 
Q 266 3072 433 3567 
Q 600 4063 929 4331 
Q 1259 4600 1759 4600 
Q 2128 4600 2406 4451 
Q 2684 4303 2865 4023 
Q 3047 3744 3150 3342 
Q 3253 2941 3253 2259 
Q 3253 1453 3087 958 
Q 2922 463 2592 192 
Q 2263 -78 1759 -78 
Q 1097 -78 719 397 
Q 266 969 266 2259 
z
M 844 2259 
Q 844 1131 1108 757 
Q 1372 384 1759 384 
Q 2147 384 2411 759 
Q 2675 1134 2675 2259 
Q 2675 3391 2411 3762 
Q 2147 4134 1753 4134 
Q 1366 4134 1134 3806 
Q 844 3388 844 2259 
z
" transform="scale(0.015625)"/>
       </defs>
       <use xlink:href="#ArialMT-30"/>
      </g>
     </g>
    </g>
    <g id="xtick_4">
     <g id="line2d_4">
      <path d="M 301.090909 307.584 
L 301.090909 41.472 
" clip-path="url(#pfb1a1d03ec)" style="fill: none; stroke: #ffffff; stroke-width: 0.8; stroke-linecap: round"/>
     </g>
     <g id="text_4">
      <!-- 2 -->
      <g style="fill: #262626" transform="translate(298.31044 321.741812) scale(0.1 -0.1)">
       <use xlink:href="#ArialMT-32"/>
      </g>
     </g>
    </g>
    <g id="xtick_5">
     <g id="line2d_5">
      <path d="M 366.021818 307.584 
L 366.021818 41.472 
" clip-path="url(#pfb1a1d03ec)" style="fill: none; stroke: #ffffff; stroke-width: 0.8; stroke-linecap: round"/>
     </g>
     <g id="text_5">
      <!-- 4 -->
      <g style="fill: #262626" transform="translate(363.241349 321.741812) scale(0.1 -0.1)">
       <use xlink:href="#ArialMT-34"/>
      </g>
     </g>
    </g>
    <g id="text_6">
     <!-- $x$ -->
     <g style="fill: #262626" transform="translate(233.16 334.887125) scale(0.1 -0.1)">
      <defs>
       <path id="DejaVuSans-Oblique-78" d="M 3841 3500 
L 2234 1784 
L 3219 0 
L 2559 0 
L 1819 1388 
L 531 0 
L -166 0 
L 1556 1844 
L 641 3500 
L 1300 3500 
L 1972 2234 
L 3144 3500 
L 3841 3500 
z
" transform="scale(0.015625)"/>
      </defs>
      <use xlink:href="#DejaVuSans-Oblique-78" transform="translate(0 0.3125)"/>
     </g>
    </g>
   </g>
   <g id="matplotlib.axis_2">
    <g id="ytick_1">
     <g id="line2d_6">
      <path d="M 57.6 269.942222 
L 414.72 269.942222 
" clip-path="url(#pfb1a1d03ec)" style="fill: none; stroke: #ffffff; stroke-width: 0.8; stroke-linecap: round"/>
     </g>
     <g id="text_7">
      <!-- −4 -->
      <g style="fill: #262626" transform="translate(39.198437 273.521129) scale(0.1 -0.1)">
       <use xlink:href="#ArialMT-2212"/>
       <use xlink:href="#ArialMT-34" transform="translate(58.398438 0)"/>
      </g>
     </g>
    </g>
    <g id="ytick_2">
     <g id="line2d_7">
      <path d="M 57.6 222.252323 
L 414.72 222.252323 
" clip-path="url(#pfb1a1d03ec)" style="fill: none; stroke: #ffffff; stroke-width: 0.8; stroke-linecap: round"/>
     </g>
     <g id="text_8">
      <!-- −2 -->
      <g style="fill: #262626" transform="translate(39.198437 225.831229) scale(0.1 -0.1)">
       <use xlink:href="#ArialMT-2212"/>
       <use xlink:href="#ArialMT-32" transform="translate(58.398438 0)"/>
      </g>
     </g>
    </g>
    <g id="ytick_3">
     <g id="line2d_8">
      <path d="M 57.6 174.562423 
L 414.72 174.562423 
" clip-path="url(#pfb1a1d03ec)" style="fill: none; stroke: #ffffff; stroke-width: 0.8; stroke-linecap: round"/>
     </g>
     <g id="text_9">
      <!-- 0 -->
      <g style="fill: #262626" transform="translate(45.039062 178.141329) scale(0.1 -0.1)">
       <use xlink:href="#ArialMT-30"/>
      </g>
     </g>
    </g>
    <g id="ytick_4">
     <g id="line2d_9">
      <path d="M 57.6 126.872524 
L 414.72 126.872524 
" clip-path="url(#pfb1a1d03ec)" style="fill: none; stroke: #ffffff; stroke-width: 0.8; stroke-linecap: round"/>
     </g>
     <g id="text_10">
      <!-- 2 -->
      <g style="fill: #262626" transform="translate(45.039062 130.45143) scale(0.1 -0.1)">
       <use xlink:href="#ArialMT-32"/>
      </g>
     </g>
    </g>
    <g id="ytick_5">
     <g id="line2d_10">
      <path d="M 57.6 79.182624 
L 414.72 79.182624 
" clip-path="url(#pfb1a1d03ec)" style="fill: none; stroke: #ffffff; stroke-width: 0.8; stroke-linecap: round"/>
     </g>
     <g id="text_11">
      <!-- 4 -->
      <g style="fill: #262626" transform="translate(45.039062 82.76153) scale(0.1 -0.1)">
       <use xlink:href="#ArialMT-34"/>
      </g>
     </g>
    </g>
    <g id="text_12">
     <!-- $x_{next}$ -->
     <g style="fill: #262626" transform="translate(33.210938 185.478) rotate(-90) scale(0.1 -0.1)">
      <defs>
       <path id="DejaVuSans-Oblique-6e" d="M 3566 2113 
L 3156 0 
L 2578 0 
L 2988 2091 
Q 3016 2238 3031 2350 
Q 3047 2463 3047 2528 
Q 3047 2791 2881 2937 
Q 2716 3084 2419 3084 
Q 1956 3084 1622 2776 
Q 1288 2469 1184 1941 
L 800 0 
L 225 0 
L 903 3500 
L 1478 3500 
L 1363 2950 
Q 1603 3253 1940 3418 
Q 2278 3584 2650 3584 
Q 3113 3584 3367 3334 
Q 3622 3084 3622 2631 
Q 3622 2519 3608 2391 
Q 3594 2263 3566 2113 
z
" transform="scale(0.015625)"/>
       <path id="DejaVuSans-Oblique-65" d="M 3078 2063 
Q 3088 2113 3092 2166 
Q 3097 2219 3097 2272 
Q 3097 2653 2873 2875 
Q 2650 3097 2266 3097 
Q 1838 3097 1509 2826 
Q 1181 2556 1013 2059 
L 3078 2063 
z
M 3578 1613 
L 903 1613 
Q 884 1494 878 1425 
Q 872 1356 872 1306 
Q 872 872 1139 634 
Q 1406 397 1894 397 
Q 2269 397 2603 481 
Q 2938 566 3225 728 
L 3116 159 
Q 2806 34 2476 -28 
Q 2147 -91 1806 -91 
Q 1078 -91 686 257 
Q 294 606 294 1247 
Q 294 1794 489 2264 
Q 684 2734 1063 3103 
Q 1306 3334 1642 3459 
Q 1978 3584 2356 3584 
Q 2950 3584 3301 3228 
Q 3653 2872 3653 2272 
Q 3653 2128 3634 1964 
Q 3616 1800 3578 1613 
z
" transform="scale(0.015625)"/>
       <path id="DejaVuSans-Oblique-74" d="M 2706 3500 
L 2619 3053 
L 1472 3053 
L 1100 1153 
Q 1081 1047 1072 975 
Q 1063 903 1063 863 
Q 1063 663 1183 572 
Q 1303 481 1569 481 
L 2150 481 
L 2053 0 
L 1503 0 
Q 991 0 739 200 
Q 488 400 488 806 
Q 488 878 497 964 
Q 506 1050 525 1153 
L 897 3053 
L 409 3053 
L 500 3500 
L 978 3500 
L 1172 4494 
L 1747 4494 
L 1556 3500 
L 2706 3500 
z
" transform="scale(0.015625)"/>
      </defs>
      <use xlink:href="#DejaVuSans-Oblique-78" transform="translate(0 0.3125)"/>
      <use xlink:href="#DejaVuSans-Oblique-6e" transform="translate(59.179688 -16.09375) scale(0.7)"/>
      <use xlink:href="#DejaVuSans-Oblique-65" transform="translate(103.544922 -16.09375) scale(0.7)"/>
      <use xlink:href="#DejaVuSans-Oblique-78" transform="translate(146.611328 -16.09375) scale(0.7)"/>
      <use xlink:href="#DejaVuSans-Oblique-74" transform="translate(188.037109 -16.09375) scale(0.7)"/>
     </g>
    </g>
   </g>
   <g id="FillBetweenPolyCollection_1">
    <defs>
     <path id="m76758263fd" d="M 73.832727 -67.745694 
L 73.832727 -51.812828 
L 77.112073 -54.221414 
L 80.391404 -56.629989 
L 83.670734 -59.038563 
L 86.95008 -61.447149 
L 90.229426 -63.855735 
L 93.508757 -66.26431 
L 96.788103 -68.672896 
L 100.067434 -71.081471 
L 103.34678 -73.490057 
L 106.62611 -75.898632 
L 109.905456 -78.307218 
L 113.184795 -80.715798 
L 116.464133 -83.124379 
L 119.743479 -85.532965 
L 123.022809 -87.941539 
L 126.302148 -90.35012 
L 129.581486 -92.7587 
L 132.860824 -95.16728 
L 136.140163 -97.575861 
L 139.419493 -99.984436 
L 142.698847 -102.393027 
L 145.978178 -104.801602 
L 149.257516 -107.210182 
L 152.536862 -109.618768 
L 155.816192 -112.027343 
L 159.095538 -114.435929 
L 162.374869 -116.844504 
L 165.654215 -119.25309 
L 168.933553 -121.66167 
L 172.212892 -124.070251 
L 175.492234 -126.478834 
L 178.771564 -128.887409 
L 182.050914 -131.295998 
L 185.330245 -133.704572 
L 188.609583 -136.113153 
L 191.888925 -138.521736 
L 195.168256 -140.930311 
L 198.447606 -143.3389 
L 201.726936 -145.747474 
L 205.006277 -148.156056 
L 208.285621 -150.564641 
L 211.564957 -152.97322 
L 214.844301 -155.373089 
L 218.123628 -156.812459 
L 221.402982 -158.547976 
L 224.682308 -160.048227 
L 227.961652 -161.375889 
L 231.240996 -162.854194 
L 234.520323 -164.103244 
L 237.799667 -165.26992 
L 241.079004 -166.452456 
L 244.358348 -167.474866 
L 247.637684 -168.608162 
L 250.917028 -169.86266 
L 254.196364 -171.207054 
L 257.475699 -172.90541 
L 260.755035 -174.517725 
L 264.034379 -176.163835 
L 267.313716 -178.577566 
L 270.59306 -180.654266 
L 273.872394 -182.963487 
L 277.151733 -185.158662 
L 280.431067 -187.710268 
L 283.710409 -189.772095 
L 286.989755 -192.364869 
L 290.269093 -194.707654 
L 293.548424 -197.136356 
L 296.827762 -199.508944 
L 300.107108 -201.954009 
L 303.386439 -204.485242 
L 306.665785 -206.741593 
L 309.945123 -209.254753 
L 313.224462 -211.610718 
L 316.503792 -213.855099 
L 319.783138 -216.335172 
L 323.062476 -218.901588 
L 326.341815 -221.302897 
L 329.621153 -223.560254 
L 332.900491 -226.050324 
L 336.179822 -228.530628 
L 339.459168 -230.759639 
L 342.738514 -233.179027 
L 346.01786 -235.745482 
L 349.297191 -237.960758 
L 352.576521 -240.263585 
L 355.855867 -242.808658 
L 359.135213 -245.287597 
L 362.414536 -247.683108 
L 365.693882 -250.167572 
L 368.97322 -252.495664 
L 372.252566 -255.013426 
L 375.531881 -257.292637 
L 378.811227 -259.764645 
L 382.090574 -262.02866 
L 385.36992 -264.568537 
L 388.649266 -267.018448 
L 391.928581 -269.495483 
L 395.207927 -271.81313 
L 398.487273 -274.217327 
L 398.487273 -290.262326 
L 398.487273 -290.262326 
L 395.207927 -287.85374 
L 391.928581 -285.445154 
L 388.649266 -283.03659 
L 385.36992 -280.628004 
L 382.090574 -278.219418 
L 378.811227 -275.810832 
L 375.531881 -273.402246 
L 372.252566 -270.993683 
L 368.97322 -268.585097 
L 365.693882 -266.176516 
L 362.414536 -263.76793 
L 359.135213 -261.359361 
L 355.855867 -258.950775 
L 352.576521 -256.542189 
L 349.297191 -254.133614 
L 346.01786 -251.72504 
L 342.738514 -249.316454 
L 339.459168 -246.907868 
L 336.179822 -244.499281 
L 332.900491 -242.090707 
L 329.621153 -239.682126 
L 326.341815 -237.273546 
L 323.062476 -234.864966 
L 319.783138 -232.456385 
L 316.503792 -230.047799 
L 313.224462 -227.639224 
L 309.945123 -225.230644 
L 306.665785 -222.822064 
L 303.386439 -220.413478 
L 300.107108 -218.004903 
L 296.827762 -215.596317 
L 293.548424 -213.187736 
L 290.269093 -210.779162 
L 286.989755 -208.370581 
L 283.710409 -205.961995 
L 280.431067 -203.553412 
L 277.151733 -201.144835 
L 273.872394 -198.736254 
L 270.59306 -196.327677 
L 267.313716 -193.919092 
L 264.034379 -191.510513 
L 260.755035 -189.101928 
L 257.475699 -187.080338 
L 254.196364 -185.18753 
L 250.917028 -183.631873 
L 247.637684 -182.077135 
L 244.358348 -180.653902 
L 241.079004 -179.352119 
L 237.799667 -178.131943 
L 234.520323 -176.793832 
L 231.240996 -175.532975 
L 227.961652 -174.520791 
L 224.682308 -173.410622 
L 221.402982 -172.324291 
L 218.123628 -170.938173 
L 214.844301 -169.303463 
L 211.564957 -167.595535 
L 208.285621 -165.656764 
L 205.006277 -163.36304 
L 201.726936 -161.494891 
L 198.447606 -159.164853 
L 195.168256 -156.880673 
L 191.888925 -154.620277 
L 188.609583 -152.349031 
L 185.330245 -150.007096 
L 182.050914 -147.442563 
L 178.771564 -145.10437 
L 175.492234 -142.307592 
L 172.212892 -140.215472 
L 168.933553 -137.859362 
L 165.654215 -135.587016 
L 162.374869 -132.850727 
L 159.095538 -130.64604 
L 155.816192 -128.203158 
L 152.536862 -125.689032 
L 149.257516 -123.489571 
L 145.978178 -120.752223 
L 142.698847 -118.616481 
L 139.419493 -116.177769 
L 136.140163 -113.57784 
L 132.860824 -111.360341 
L 129.581486 -108.830737 
L 126.302148 -106.305413 
L 123.022809 -103.899249 
L 119.743479 -101.627082 
L 116.464133 -99.108587 
L 113.184795 -96.865772 
L 109.905456 -94.63468 
L 106.62611 -92.010038 
L 103.34678 -89.617631 
L 100.067434 -87.167152 
L 96.788103 -84.631266 
L 93.508757 -82.387137 
L 90.229426 -80.021843 
L 86.95008 -77.486719 
L 83.670734 -75.091498 
L 80.391404 -72.705459 
L 77.112073 -70.375509 
L 73.832727 -67.745694 
z
" style="stroke: #0000ff; stroke-opacity: 0.5"/>
    </defs>
    <g clip-path="url(#pfb1a1d03ec)">
     <use xlink:href="#m76758263fd" x="0" y="345.6" style="fill: #0000ff; fill-opacity: 0.5; stroke: #0000ff; stroke-opacity: 0.5"/>
    </g>
   </g>
   <g id="FillBetweenPolyCollection_2">
    <defs>
     <path id="m0fcc1e1624" d="M 73.832727 -90.903102 
L 73.832727 -50.112 
L 77.112073 -52.295491 
L 80.391404 -54.693582 
L 83.670734 -56.944567 
L 86.95008 -59.234346 
L 90.229426 -61.482681 
L 93.508757 -63.772983 
L 96.788103 -65.970539 
L 100.067434 -68.282422 
L 103.34678 -70.526835 
L 106.62611 -72.82164 
L 109.905456 -74.952293 
L 113.184795 -77.173579 
L 116.464133 -79.423176 
L 119.743479 -81.508617 
L 123.022809 -83.890193 
L 126.302148 -86.005918 
L 129.581486 -88.024684 
L 132.860824 -90.489046 
L 136.140163 -92.505862 
L 139.419493 -94.715652 
L 142.698847 -96.646282 
L 145.978178 -98.788352 
L 149.257516 -101.071497 
L 152.536862 -102.931217 
L 155.816192 -105.141592 
L 159.095538 -107.124019 
L 162.374869 -109.227476 
L 165.654215 -110.98993 
L 168.933553 -113.037485 
L 172.212892 -114.941759 
L 175.492234 -116.83754 
L 178.771564 -118.841263 
L 182.050914 -120.828681 
L 185.330245 -122.431925 
L 188.609583 -124.123946 
L 191.888925 -126.094531 
L 195.168256 -127.62465 
L 198.447606 -129.560815 
L 201.726936 -131.134914 
L 205.006277 -132.794843 
L 208.285621 -134.661311 
L 211.564957 -135.937356 
L 214.844301 -137.619227 
L 218.123628 -138.838122 
L 221.402982 -140.567762 
L 224.682308 -141.834784 
L 227.961652 -143.083196 
L 231.240996 -144.260266 
L 234.520323 -145.661649 
L 237.799667 -146.715402 
L 241.079004 -148.083978 
L 244.358348 -149.063813 
L 247.637684 -150.330978 
L 250.917028 -151.179987 
L 254.196364 -152.222971 
L 257.475699 -153.25019 
L 260.755035 -153.972232 
L 264.034379 -155.055805 
L 267.313716 -156.617421 
L 270.59306 -158.467698 
L 273.872394 -160.220423 
L 277.151733 -162.279147 
L 280.431067 -164.58129 
L 283.710409 -166.730912 
L 286.989755 -169.357447 
L 290.269093 -171.522174 
L 293.548424 -174.01768 
L 296.827762 -176.367558 
L 300.107108 -178.786451 
L 303.386439 -181.346446 
L 306.665785 -183.649163 
L 309.945123 -185.744322 
L 313.224462 -188.482114 
L 316.503792 -190.760803 
L 319.783138 -192.94871 
L 323.062476 -195.643372 
L 326.341815 -198.145722 
L 329.621153 -200.411002 
L 332.900491 -202.688558 
L 336.179822 -205.12039 
L 339.459168 -207.542064 
L 342.738514 -209.898972 
L 346.01786 -212.621579 
L 349.297191 -214.774075 
L 352.576521 -217.266946 
L 355.855867 -219.644684 
L 359.135213 -222.275534 
L 362.414536 -224.585518 
L 365.693882 -226.979164 
L 368.97322 -229.347324 
L 372.252566 -232.262132 
L 375.531881 -234.012335 
L 378.811227 -236.400494 
L 382.090574 -239.068144 
L 385.36992 -241.532159 
L 388.649266 -243.869176 
L 391.928581 -246.485466 
L 395.207927 -248.8081 
L 398.487273 -251.148584 
L 398.487273 -292.032 
L 398.487273 -292.032 
L 395.207927 -289.772454 
L 391.928581 -287.398797 
L 388.649266 -285.199058 
L 385.36992 -282.825401 
L 382.090574 -280.553905 
L 378.811227 -278.396122 
L 375.531881 -275.977826 
L 372.252566 -273.837007 
L 368.97322 -271.60036 
L 365.693882 -269.287272 
L 362.414536 -267.145191 
L 359.135213 -264.84415 
L 355.855867 -262.700062 
L 352.576521 -260.445553 
L 349.297191 -258.288139 
L 346.01786 -256.022084 
L 342.738514 -253.871129 
L 339.459168 -251.573595 
L 336.179822 -249.675745 
L 332.900491 -247.50907 
L 329.621153 -245.252077 
L 326.341815 -243.154982 
L 323.062476 -241.070468 
L 319.783138 -238.939519 
L 316.503792 -236.983692 
L 313.224462 -235.025063 
L 309.945123 -232.968344 
L 306.665785 -230.942949 
L 303.386439 -228.923779 
L 300.107108 -226.96527 
L 296.827762 -225.03269 
L 293.548424 -223.105704 
L 290.269093 -221.321089 
L 286.989755 -219.603053 
L 283.710409 -217.638491 
L 280.431067 -215.927211 
L 277.151733 -214.230886 
L 273.872394 -212.512397 
L 270.59306 -210.94043 
L 267.313716 -209.256399 
L 264.034379 -207.75439 
L 260.755035 -206.177133 
L 257.475699 -204.665706 
L 254.196364 -202.98746 
L 250.917028 -201.701921 
L 247.637684 -200.377039 
L 244.358348 -198.836084 
L 241.079004 -197.893646 
L 237.799667 -196.482871 
L 234.520323 -195.270914 
L 231.240996 -193.941498 
L 227.961652 -192.922517 
L 224.682308 -191.873549 
L 221.402982 -190.886689 
L 218.123628 -189.682621 
L 214.844301 -188.855129 
L 211.564957 -188.003283 
L 208.285621 -186.804201 
L 205.006277 -185.486481 
L 201.726936 -183.891363 
L 198.447606 -181.864418 
L 195.168256 -179.811884 
L 191.888925 -177.47481 
L 188.609583 -175.244591 
L 185.330245 -173.143025 
L 182.050914 -170.545473 
L 178.771564 -168.184777 
L 175.492234 -165.224077 
L 172.212892 -163.370188 
L 168.933553 -160.91324 
L 165.654215 -158.687085 
L 162.374869 -155.901517 
L 159.095538 -153.567089 
L 155.816192 -151.436529 
L 152.536862 -148.923063 
L 149.257516 -146.756067 
L 145.978178 -143.841077 
L 142.698847 -141.693862 
L 139.419493 -139.088771 
L 136.140163 -136.533584 
L 132.860824 -134.439892 
L 129.581486 -131.849346 
L 126.302148 -129.552171 
L 123.022809 -127.2179 
L 119.743479 -124.807972 
L 116.464133 -122.075311 
L 113.184795 -120.179508 
L 109.905456 -117.654298 
L 106.62611 -115.212289 
L 103.34678 -112.66617 
L 100.067434 -110.312359 
L 96.788103 -107.88134 
L 93.508757 -105.637536 
L 90.229426 -103.167193 
L 86.95008 -100.384256 
L 83.670734 -98.535815 
L 80.391404 -95.949166 
L 77.112073 -93.471501 
L 73.832727 -90.903102 
z
" style="stroke: #0000ff; stroke-opacity: 0.3"/>
    </defs>
    <g clip-path="url(#pfb1a1d03ec)">
     <use xlink:href="#m0fcc1e1624" x="0" y="345.6" style="fill: #0000ff; fill-opacity: 0.3; stroke: #0000ff; stroke-opacity: 0.3"/>
    </g>
   </g>
   <g id="line2d_11">
    <path d="M 73.832727 284.631614 
L 77.112073 282.144926 
L 80.391404 279.77966 
L 83.670734 277.363388 
L 86.95008 275.027241 
L 90.229426 272.588706 
L 93.508757 270.151865 
L 96.788103 267.869272 
L 100.067434 265.413216 
L 103.34678 263.040133 
L 106.62611 260.606697 
L 109.905456 258.177139 
L 113.184795 255.817439 
L 116.464133 253.547006 
L 119.743479 251.105679 
L 123.022809 248.730931 
L 126.302148 246.353539 
L 129.581486 243.982196 
L 132.860824 241.486497 
L 136.140163 239.208799 
L 139.419493 236.75347 
L 142.698847 234.339745 
L 145.978178 232.14826 
L 149.257516 229.571743 
L 152.536862 227.347205 
L 155.816192 224.889432 
L 159.095538 222.567117 
L 162.374869 220.228034 
L 165.654215 217.803436 
L 168.933553 215.467141 
L 172.212892 213.186376 
L 175.492234 210.982668 
L 178.771564 208.465145 
L 182.050914 206.135806 
L 185.330245 203.784409 
L 188.609583 201.552839 
L 191.888925 199.320806 
L 195.168256 197.132868 
L 198.447606 194.894126 
L 201.726936 192.771279 
L 205.006277 190.765565 
L 208.285621 188.693048 
L 211.564957 186.767997 
L 214.844301 184.949684 
L 218.123628 183.287964 
L 221.402982 181.524629 
L 224.682308 180.017022 
L 227.961652 178.482823 
L 231.240996 176.939251 
L 234.520323 175.348776 
L 237.799667 173.760799 
L 241.079004 172.176282 
L 244.358348 170.704159 
L 247.637684 169.1206 
L 250.917028 167.517396 
L 254.196364 165.890382 
L 257.475699 164.083954 
L 260.755035 162.336742 
L 264.034379 160.530348 
L 267.313716 158.363963 
L 270.59306 156.290426 
L 273.872394 154.22484 
L 277.151733 152.006906 
L 280.431067 149.750285 
L 283.710409 147.570191 
L 286.989755 145.202694 
L 290.269093 142.935686 
L 293.548424 140.615455 
L 296.827762 138.258145 
L 300.107108 135.907891 
L 303.386439 133.554419 
L 306.665785 131.218147 
L 309.945123 128.890866 
L 313.224462 126.505842 
L 316.503792 124.219235 
L 319.783138 121.878557 
L 323.062476 119.389811 
L 326.341815 117.04848 
L 329.621153 114.720292 
L 332.900491 112.320592 
L 336.179822 109.934069 
L 339.459168 107.622698 
L 342.738514 105.222026 
L 346.01786 102.788903 
L 349.297191 100.443836 
L 352.576521 98.075347 
L 355.855867 95.707415 
L 359.135213 93.241364 
L 362.414536 90.832869 
L 365.693882 88.482634 
L 368.97322 86.114481 
L 372.252566 83.659078 
L 375.531881 81.357241 
L 378.811227 78.901906 
L 382.090574 76.558278 
L 385.36992 74.095172 
L 388.649266 71.692498 
L 391.928581 69.275851 
L 395.207927 66.913291 
L 398.487273 64.519634 
" clip-path="url(#pfb1a1d03ec)" style="fill: none; stroke: #0000ff; stroke-width: 1.5; stroke-linecap: round"/>
   </g>
   <g id="line2d_12">
    <path d="M 73.832727 293.787172 
L 77.112073 291.378586 
L 80.391404 288.970011 
L 83.670734 286.561437 
L 86.95008 284.152851 
L 90.229426 281.744265 
L 93.508757 279.33569 
L 96.788103 276.927104 
L 100.067434 274.518529 
L 103.34678 272.109943 
L 106.62611 269.701368 
L 109.905456 267.292782 
L 113.184795 264.884202 
L 116.464133 262.475621 
L 119.743479 260.067035 
L 123.022809 257.658461 
L 126.302148 255.24988 
L 129.581486 252.8413 
L 132.860824 250.43272 
L 136.140163 248.024139 
L 139.419493 245.615564 
L 142.698847 243.206973 
L 145.978178 240.798398 
L 149.257516 238.389818 
L 152.536862 235.981232 
L 155.816192 233.572657 
L 159.095538 231.164071 
L 162.374869 228.755496 
L 165.654215 226.34691 
L 168.933553 223.93833 
L 172.212892 221.529749 
L 175.492234 219.121166 
L 178.771564 216.712591 
L 182.050914 214.304002 
L 185.330245 211.895428 
L 188.609583 209.486847 
L 191.888925 207.078264 
L 195.168256 204.669689 
L 198.447606 202.2611 
L 201.726936 199.852526 
L 205.006277 197.443944 
L 208.285621 195.035359 
L 211.564957 192.62678 
L 214.844301 190.218196 
L 218.123628 187.809624 
L 221.402982 185.401032 
L 224.682308 182.99246 
L 227.961652 180.583876 
L 231.240996 178.175291 
L 234.520323 175.766719 
L 237.799667 173.358134 
L 241.079004 170.949555 
L 244.358348 168.540971 
L 247.637684 166.132392 
L 250.917028 163.723807 
L 254.196364 161.315228 
L 257.475699 158.906651 
L 260.755035 156.498072 
L 264.034379 154.089487 
L 267.313716 151.680908 
L 270.59306 149.272323 
L 273.872394 146.863746 
L 277.151733 144.455165 
L 280.431067 142.046588 
L 283.710409 139.638005 
L 286.989755 137.229419 
L 290.269093 134.820838 
L 293.548424 132.412264 
L 296.827762 130.003683 
L 300.107108 127.595097 
L 303.386439 125.186522 
L 306.665785 122.777936 
L 309.945123 120.369356 
L 313.224462 117.960776 
L 316.503792 115.552201 
L 319.783138 113.143615 
L 323.062476 110.735034 
L 326.341815 108.326454 
L 329.621153 105.917874 
L 332.900491 103.509293 
L 336.179822 101.100719 
L 339.459168 98.692132 
L 342.738514 96.283546 
L 346.01786 93.87496 
L 349.297191 91.466386 
L 352.576521 89.057811 
L 355.855867 86.649225 
L 359.135213 84.240639 
L 362.414536 81.83207 
L 365.693882 79.423484 
L 368.97322 77.014903 
L 372.252566 74.606317 
L 375.531881 72.197754 
L 378.811227 69.789168 
L 382.090574 67.380582 
L 385.36992 64.971996 
L 388.649266 62.56341 
L 391.928581 60.154846 
L 395.207927 57.74626 
L 398.487273 55.337674 
" clip-path="url(#pfb1a1d03ec)" style="fill: none; stroke-dasharray: 5.55,2.4; stroke-dashoffset: 0; stroke: #808080; stroke-width: 1.5"/>
   </g>
   <g id="LineCollection_1">
    <path d="M 236.16 293.787172 
L 236.16 55.337674 
" clip-path="url(#pfb1a1d03ec)" style="fill: none; stroke-dasharray: 5.55,2.4; stroke-dashoffset: 0; stroke: #008000; stroke-width: 1.5"/>
   </g>
   <g id="patch_3">
    <path d="M 57.6 307.584 
L 57.6 41.472 
" style="fill: none; stroke: #ffffff; stroke-width: 0.8; stroke-linejoin: miter; stroke-linecap: square"/>
   </g>
   <g id="patch_4">
    <path d="M 414.72 307.584 
L 414.72 41.472 
" style="fill: none; stroke: #ffffff; stroke-width: 0.8; stroke-linejoin: miter; stroke-linecap: square"/>
   </g>
   <g id="patch_5">
    <path d="M 57.6 307.584 
L 414.72 307.584 
" style="fill: none; stroke: #ffffff; stroke-width: 0.8; stroke-linejoin: miter; stroke-linecap: square"/>
   </g>
   <g id="patch_6">
    <path d="M 57.6 41.472 
L 414.72 41.472 
" style="fill: none; stroke: #ffffff; stroke-width: 0.8; stroke-linejoin: miter; stroke-linecap: square"/>
   </g>
   <g id="text_13">
    <!-- $\sigma=1, n=1$ -->
    <g style="fill: #262626" transform="translate(203.1 35.472) scale(0.12 -0.12)">
     <defs>
      <path id="DejaVuSans-Oblique-3c3" d="M 2219 3044 
Q 1744 3044 1422 2700 
Q 1081 2341 969 1747 
Q 844 1119 1044 756 
Q 1241 397 1706 397 
Q 2166 397 2503 759 
Q 2844 1122 2966 1747 
Q 3075 2319 2881 2700 
Q 2700 3044 2219 3044 
z
M 2309 3503 
L 4219 3500 
L 4106 2925 
L 3463 2925 
Q 3706 2438 3575 1747 
Q 3406 888 2884 400 
Q 2359 -91 1609 -91 
Q 856 -91 525 400 
Q 194 888 363 1747 
Q 528 2609 1050 3097 
Q 1484 3503 2309 3503 
z
" transform="scale(0.015625)"/>
      <path id="DejaVuSans-3d" d="M 678 2906 
L 4684 2906 
L 4684 2381 
L 678 2381 
L 678 2906 
z
M 678 1631 
L 4684 1631 
L 4684 1100 
L 678 1100 
L 678 1631 
z
" transform="scale(0.015625)"/>
      <path id="DejaVuSans-31" d="M 794 531 
L 1825 531 
L 1825 4091 
L 703 3866 
L 703 4441 
L 1819 4666 
L 2450 4666 
L 2450 531 
L 3481 531 
L 3481 0 
L 794 0 
L 794 531 
z
" transform="scale(0.015625)"/>
      <path id="DejaVuSans-2c" d="M 750 794 
L 1409 794 
L 1409 256 
L 897 -744 
L 494 -744 
L 750 256 
L 750 794 
z
" transform="scale(0.015625)"/>
     </defs>
     <use xlink:href="#DejaVuSans-Oblique-3c3" transform="translate(0 0.09375)"/>
     <use xlink:href="#DejaVuSans-3d" transform="translate(82.861328 0.09375)"/>
     <use xlink:href="#DejaVuSans-31" transform="translate(186.132812 0.09375)"/>
     <use xlink:href="#DejaVuSans-2c" transform="translate(249.755859 0.09375)"/>
     <use xlink:href="#DejaVuSans-Oblique-6e" transform="translate(301.025391 0.09375)"/>
     <use xlink:href="#DejaVuSans-3d" transform="translate(383.886719 0.09375)"/>
     <use xlink:href="#DejaVuSans-31" transform="translate(487.158203 0.09375)"/>
    </g>
   </g>
   <g id="legend_1">
    <g id="patch_7">
     <path d="M 302.42 302.584 
L 407.72 302.584 
Q 409.72 302.584 409.72 300.584 
L 409.72 230.248062 
Q 409.72 228.248062 407.72 228.248062 
L 302.42 228.248062 
Q 300.42 228.248062 300.42 230.248062 
L 300.42 300.584 
Q 300.42 302.584 302.42 302.584 
z
" style="fill: #eaeaf2; opacity: 0.8; stroke: #cccccc; stroke-linejoin: miter"/>
    </g>
    <g id="line2d_13">
     <path d="M 304.42 236.160562 
L 314.42 236.160562 
L 324.42 236.160562 
" style="fill: none; stroke: #0000ff; stroke-width: 1.5; stroke-linecap: round"/>
    </g>
    <g id="text_14">
     <!-- $E[x_{next}]$ -->
     <g style="fill: #262626" transform="translate(332.42 239.660562) scale(0.1 -0.1)">
      <defs>
       <path id="DejaVuSans-Oblique-45" d="M 1081 4666 
L 4031 4666 
L 3928 4134 
L 1606 4134 
L 1338 2753 
L 3566 2753 
L 3463 2222 
L 1234 2222 
L 909 531 
L 3284 531 
L 3181 0 
L 172 0 
L 1081 4666 
z
" transform="scale(0.015625)"/>
       <path id="DejaVuSans-5b" d="M 550 4863 
L 1875 4863 
L 1875 4416 
L 1125 4416 
L 1125 -397 
L 1875 -397 
L 1875 -844 
L 550 -844 
L 550 4863 
z
" transform="scale(0.015625)"/>
       <path id="DejaVuSans-5d" d="M 1947 4863 
L 1947 -844 
L 622 -844 
L 622 -397 
L 1369 -397 
L 1369 4416 
L 622 4416 
L 622 4863 
L 1947 4863 
z
" transform="scale(0.015625)"/>
      </defs>
      <use xlink:href="#DejaVuSans-Oblique-45" transform="translate(0 0.015625)"/>
      <use xlink:href="#DejaVuSans-5b" transform="translate(63.183594 0.015625)"/>
      <use xlink:href="#DejaVuSans-Oblique-78" transform="translate(102.197266 0.015625)"/>
      <use xlink:href="#DejaVuSans-Oblique-6e" transform="translate(161.376953 -16.390625) scale(0.7)"/>
      <use xlink:href="#DejaVuSans-Oblique-65" transform="translate(205.742188 -16.390625) scale(0.7)"/>
      <use xlink:href="#DejaVuSans-Oblique-78" transform="translate(248.808594 -16.390625) scale(0.7)"/>
      <use xlink:href="#DejaVuSans-Oblique-74" transform="translate(290.234375 -16.390625) scale(0.7)"/>
      <use xlink:href="#DejaVuSans-5d" transform="translate(320.415039 0.015625)"/>
     </g>
    </g>
    <g id="patch_8">
     <path d="M 304.42 253.805875 
L 324.42 253.805875 
L 324.42 246.805875 
L 304.42 246.805875 
z
" style="fill: #0000ff; fill-opacity: 0.5; stroke: #0000ff; stroke-opacity: 0.5; stroke-linejoin: miter"/>
    </g>
    <g id="text_15">
     <!-- 50% CI -->
     <g style="fill: #262626" transform="translate(332.42 253.805875) scale(0.1 -0.1)">
      <defs>
       <path id="ArialMT-35" d="M 266 1200 
L 856 1250 
Q 922 819 1161 601 
Q 1400 384 1738 384 
Q 2144 384 2425 690 
Q 2706 997 2706 1503 
Q 2706 1984 2436 2262 
Q 2166 2541 1728 2541 
Q 1456 2541 1237 2417 
Q 1019 2294 894 2097 
L 366 2166 
L 809 4519 
L 3088 4519 
L 3088 3981 
L 1259 3981 
L 1013 2750 
Q 1425 3038 1878 3038 
Q 2478 3038 2890 2622 
Q 3303 2206 3303 1553 
Q 3303 931 2941 478 
Q 2500 -78 1738 -78 
Q 1113 -78 717 272 
Q 322 622 266 1200 
z
" transform="scale(0.015625)"/>
       <path id="ArialMT-25" d="M 372 3481 
Q 372 3972 619 4315 
Q 866 4659 1334 4659 
Q 1766 4659 2048 4351 
Q 2331 4044 2331 3447 
Q 2331 2866 2045 2552 
Q 1759 2238 1341 2238 
Q 925 2238 648 2547 
Q 372 2856 372 3481 
z
M 1350 4272 
Q 1141 4272 1002 4090 
Q 863 3909 863 3425 
Q 863 2984 1003 2804 
Q 1144 2625 1350 2625 
Q 1563 2625 1702 2806 
Q 1841 2988 1841 3469 
Q 1841 3913 1700 4092 
Q 1559 4272 1350 4272 
z
M 1353 -169 
L 3859 4659 
L 4316 4659 
L 1819 -169 
L 1353 -169 
z
M 3334 1075 
Q 3334 1569 3581 1911 
Q 3828 2253 4300 2253 
Q 4731 2253 5014 1945 
Q 5297 1638 5297 1041 
Q 5297 459 5011 145 
Q 4725 -169 4303 -169 
Q 3888 -169 3611 142 
Q 3334 453 3334 1075 
z
M 4316 1866 
Q 4103 1866 3964 1684 
Q 3825 1503 3825 1019 
Q 3825 581 3965 400 
Q 4106 219 4313 219 
Q 4528 219 4667 400 
Q 4806 581 4806 1063 
Q 4806 1506 4665 1686 
Q 4525 1866 4316 1866 
z
" transform="scale(0.015625)"/>
       <path id="ArialMT-20" transform="scale(0.015625)"/>
       <path id="ArialMT-43" d="M 3763 1606 
L 4369 1453 
Q 4178 706 3683 314 
Q 3188 -78 2472 -78 
Q 1731 -78 1267 223 
Q 803 525 561 1097 
Q 319 1669 319 2325 
Q 319 3041 592 3573 
Q 866 4106 1370 4382 
Q 1875 4659 2481 4659 
Q 3169 4659 3637 4309 
Q 4106 3959 4291 3325 
L 3694 3184 
Q 3534 3684 3231 3912 
Q 2928 4141 2469 4141 
Q 1941 4141 1586 3887 
Q 1231 3634 1087 3207 
Q 944 2781 944 2328 
Q 944 1744 1114 1308 
Q 1284 872 1643 656 
Q 2003 441 2422 441 
Q 2931 441 3284 734 
Q 3638 1028 3763 1606 
z
" transform="scale(0.015625)"/>
       <path id="ArialMT-49" d="M 597 0 
L 597 4581 
L 1203 4581 
L 1203 0 
L 597 0 
z
" transform="scale(0.015625)"/>
      </defs>
      <use xlink:href="#ArialMT-35"/>
      <use xlink:href="#ArialMT-30" transform="translate(55.615234 0)"/>
      <use xlink:href="#ArialMT-25" transform="translate(111.230469 0)"/>
      <use xlink:href="#ArialMT-20" transform="translate(200.146484 0)"/>
      <use xlink:href="#ArialMT-43" transform="translate(227.929688 0)"/>
      <use xlink:href="#ArialMT-49" transform="translate(300.146484 0)"/>
     </g>
    </g>
    <g id="patch_9">
     <path d="M 304.42 267.951187 
L 324.42 267.951187 
L 324.42 260.951187 
L 304.42 260.951187 
z
" style="fill: #0000ff; fill-opacity: 0.3; stroke: #0000ff; stroke-opacity: 0.3; stroke-linejoin: miter"/>
    </g>
    <g id="text_16">
     <!-- 90% CI -->
     <g style="fill: #262626" transform="translate(332.42 267.951187) scale(0.1 -0.1)">
      <defs>
       <path id="ArialMT-39" d="M 350 1059 
L 891 1109 
Q 959 728 1153 556 
Q 1347 384 1650 384 
Q 1909 384 2104 503 
Q 2300 622 2425 820 
Q 2550 1019 2634 1356 
Q 2719 1694 2719 2044 
Q 2719 2081 2716 2156 
Q 2547 1888 2255 1720 
Q 1963 1553 1622 1553 
Q 1053 1553 659 1965 
Q 266 2378 266 3053 
Q 266 3750 677 4175 
Q 1088 4600 1706 4600 
Q 2153 4600 2523 4359 
Q 2894 4119 3086 3673 
Q 3278 3228 3278 2384 
Q 3278 1506 3087 986 
Q 2897 466 2520 194 
Q 2144 -78 1638 -78 
Q 1100 -78 759 220 
Q 419 519 350 1059 
z
M 2653 3081 
Q 2653 3566 2395 3850 
Q 2138 4134 1775 4134 
Q 1400 4134 1122 3828 
Q 844 3522 844 3034 
Q 844 2597 1108 2323 
Q 1372 2050 1759 2050 
Q 2150 2050 2401 2323 
Q 2653 2597 2653 3081 
z
" transform="scale(0.015625)"/>
      </defs>
      <use xlink:href="#ArialMT-39"/>
      <use xlink:href="#ArialMT-30" transform="translate(55.615234 0)"/>
      <use xlink:href="#ArialMT-25" transform="translate(111.230469 0)"/>
      <use xlink:href="#ArialMT-20" transform="translate(200.146484 0)"/>
      <use xlink:href="#ArialMT-43" transform="translate(227.929688 0)"/>
      <use xlink:href="#ArialMT-49" transform="translate(300.146484 0)"/>
     </g>
    </g>
    <g id="line2d_14">
     <path d="M 304.42 278.5965 
L 314.42 278.5965 
L 324.42 278.5965 
" style="fill: none; stroke-dasharray: 5.55,2.4; stroke-dashoffset: 0; stroke: #808080; stroke-width: 1.5"/>
    </g>
    <g id="text_17">
     <!-- $x=x_{next}$ -->
     <g style="fill: #262626" transform="translate(332.42 282.0965) scale(0.1 -0.1)">
      <use xlink:href="#DejaVuSans-Oblique-78" transform="translate(0 0.3125)"/>
      <use xlink:href="#DejaVuSans-3d" transform="translate(78.662109 0.3125)"/>
      <use xlink:href="#DejaVuSans-Oblique-78" transform="translate(181.933594 0.3125)"/>
      <use xlink:href="#DejaVuSans-Oblique-6e" transform="translate(241.113281 -16.09375) scale(0.7)"/>
      <use xlink:href="#DejaVuSans-Oblique-65" transform="translate(285.478516 -16.09375) scale(0.7)"/>
      <use xlink:href="#DejaVuSans-Oblique-78" transform="translate(328.544922 -16.09375) scale(0.7)"/>
      <use xlink:href="#DejaVuSans-Oblique-74" transform="translate(369.970703 -16.09375) scale(0.7)"/>
     </g>
    </g>
    <g id="line2d_15">
     <path d="M 304.42 292.884 
L 324.42 292.884 
" style="fill: none; stroke-dasharray: 5.55,2.4; stroke-dashoffset: 0; stroke: #008000; stroke-width: 1.5"/>
    </g>
    <g id="text_18">
     <!-- mode of target $\pi$ -->
     <g style="fill: #262626" transform="translate(332.42 296.384) scale(0.1 -0.1)">
      <defs>
       <path id="ArialMT-6d" d="M 422 0 
L 422 3319 
L 925 3319 
L 925 2853 
Q 1081 3097 1340 3245 
Q 1600 3394 1931 3394 
Q 2300 3394 2536 3241 
Q 2772 3088 2869 2813 
Q 3263 3394 3894 3394 
Q 4388 3394 4653 3120 
Q 4919 2847 4919 2278 
L 4919 0 
L 4359 0 
L 4359 2091 
Q 4359 2428 4304 2576 
Q 4250 2725 4106 2815 
Q 3963 2906 3769 2906 
Q 3419 2906 3187 2673 
Q 2956 2441 2956 1928 
L 2956 0 
L 2394 0 
L 2394 2156 
Q 2394 2531 2256 2718 
Q 2119 2906 1806 2906 
Q 1569 2906 1367 2781 
Q 1166 2656 1075 2415 
Q 984 2175 984 1722 
L 984 0 
L 422 0 
z
" transform="scale(0.015625)"/>
       <path id="ArialMT-6f" d="M 213 1659 
Q 213 2581 725 3025 
Q 1153 3394 1769 3394 
Q 2453 3394 2887 2945 
Q 3322 2497 3322 1706 
Q 3322 1066 3130 698 
Q 2938 331 2570 128 
Q 2203 -75 1769 -75 
Q 1072 -75 642 372 
Q 213 819 213 1659 
z
M 791 1659 
Q 791 1022 1069 705 
Q 1347 388 1769 388 
Q 2188 388 2466 706 
Q 2744 1025 2744 1678 
Q 2744 2294 2464 2611 
Q 2184 2928 1769 2928 
Q 1347 2928 1069 2612 
Q 791 2297 791 1659 
z
" transform="scale(0.015625)"/>
       <path id="ArialMT-64" d="M 2575 0 
L 2575 419 
Q 2259 -75 1647 -75 
Q 1250 -75 917 144 
Q 584 363 401 755 
Q 219 1147 219 1656 
Q 219 2153 384 2558 
Q 550 2963 881 3178 
Q 1213 3394 1622 3394 
Q 1922 3394 2156 3267 
Q 2391 3141 2538 2938 
L 2538 4581 
L 3097 4581 
L 3097 0 
L 2575 0 
z
M 797 1656 
Q 797 1019 1065 703 
Q 1334 388 1700 388 
Q 2069 388 2326 689 
Q 2584 991 2584 1609 
Q 2584 2291 2321 2609 
Q 2059 2928 1675 2928 
Q 1300 2928 1048 2622 
Q 797 2316 797 1656 
z
" transform="scale(0.015625)"/>
       <path id="ArialMT-65" d="M 2694 1069 
L 3275 997 
Q 3138 488 2766 206 
Q 2394 -75 1816 -75 
Q 1088 -75 661 373 
Q 234 822 234 1631 
Q 234 2469 665 2931 
Q 1097 3394 1784 3394 
Q 2450 3394 2872 2941 
Q 3294 2488 3294 1666 
Q 3294 1616 3291 1516 
L 816 1516 
Q 847 969 1125 678 
Q 1403 388 1819 388 
Q 2128 388 2347 550 
Q 2566 713 2694 1069 
z
M 847 1978 
L 2700 1978 
Q 2663 2397 2488 2606 
Q 2219 2931 1791 2931 
Q 1403 2931 1139 2672 
Q 875 2413 847 1978 
z
" transform="scale(0.015625)"/>
       <path id="ArialMT-66" d="M 556 0 
L 556 2881 
L 59 2881 
L 59 3319 
L 556 3319 
L 556 3672 
Q 556 4006 616 4169 
Q 697 4388 901 4523 
Q 1106 4659 1475 4659 
Q 1713 4659 2000 4603 
L 1916 4113 
Q 1741 4144 1584 4144 
Q 1328 4144 1222 4034 
Q 1116 3925 1116 3625 
L 1116 3319 
L 1763 3319 
L 1763 2881 
L 1116 2881 
L 1116 0 
L 556 0 
z
" transform="scale(0.015625)"/>
       <path id="ArialMT-74" d="M 1650 503 
L 1731 6 
Q 1494 -44 1306 -44 
Q 1000 -44 831 53 
Q 663 150 594 308 
Q 525 466 525 972 
L 525 2881 
L 113 2881 
L 113 3319 
L 525 3319 
L 525 4141 
L 1084 4478 
L 1084 3319 
L 1650 3319 
L 1650 2881 
L 1084 2881 
L 1084 941 
Q 1084 700 1114 631 
Q 1144 563 1211 522 
Q 1278 481 1403 481 
Q 1497 481 1650 503 
z
" transform="scale(0.015625)"/>
       <path id="ArialMT-61" d="M 2588 409 
Q 2275 144 1986 34 
Q 1697 -75 1366 -75 
Q 819 -75 525 192 
Q 231 459 231 875 
Q 231 1119 342 1320 
Q 453 1522 633 1644 
Q 813 1766 1038 1828 
Q 1203 1872 1538 1913 
Q 2219 1994 2541 2106 
Q 2544 2222 2544 2253 
Q 2544 2597 2384 2738 
Q 2169 2928 1744 2928 
Q 1347 2928 1158 2789 
Q 969 2650 878 2297 
L 328 2372 
Q 403 2725 575 2942 
Q 747 3159 1072 3276 
Q 1397 3394 1825 3394 
Q 2250 3394 2515 3294 
Q 2781 3194 2906 3042 
Q 3031 2891 3081 2659 
Q 3109 2516 3109 2141 
L 3109 1391 
Q 3109 606 3145 398 
Q 3181 191 3288 0 
L 2700 0 
Q 2613 175 2588 409 
z
M 2541 1666 
Q 2234 1541 1622 1453 
Q 1275 1403 1131 1340 
Q 988 1278 909 1158 
Q 831 1038 831 891 
Q 831 666 1001 516 
Q 1172 366 1500 366 
Q 1825 366 2078 508 
Q 2331 650 2450 897 
Q 2541 1088 2541 1459 
L 2541 1666 
z
" transform="scale(0.015625)"/>
       <path id="ArialMT-72" d="M 416 0 
L 416 3319 
L 922 3319 
L 922 2816 
Q 1116 3169 1280 3281 
Q 1444 3394 1641 3394 
Q 1925 3394 2219 3213 
L 2025 2691 
Q 1819 2813 1613 2813 
Q 1428 2813 1281 2702 
Q 1134 2591 1072 2394 
Q 978 2094 978 1738 
L 978 0 
L 416 0 
z
" transform="scale(0.015625)"/>
       <path id="ArialMT-67" d="M 319 -275 
L 866 -356 
Q 900 -609 1056 -725 
Q 1266 -881 1628 -881 
Q 2019 -881 2231 -725 
Q 2444 -569 2519 -288 
Q 2563 -116 2559 434 
Q 2191 0 1641 0 
Q 956 0 581 494 
Q 206 988 206 1678 
Q 206 2153 378 2554 
Q 550 2956 876 3175 
Q 1203 3394 1644 3394 
Q 2231 3394 2613 2919 
L 2613 3319 
L 3131 3319 
L 3131 450 
Q 3131 -325 2973 -648 
Q 2816 -972 2473 -1159 
Q 2131 -1347 1631 -1347 
Q 1038 -1347 672 -1080 
Q 306 -813 319 -275 
z
M 784 1719 
Q 784 1066 1043 766 
Q 1303 466 1694 466 
Q 2081 466 2343 764 
Q 2606 1063 2606 1700 
Q 2606 2309 2336 2618 
Q 2066 2928 1684 2928 
Q 1309 2928 1046 2623 
Q 784 2319 784 1719 
z
" transform="scale(0.015625)"/>
       <path id="DejaVuSans-Oblique-3c0" d="M 584 3500 
L 3938 3500 
L 3825 2925 
L 3384 2925 
L 2966 775 
Q 2922 550 2981 450 
Q 3038 353 3209 353 
Q 3256 353 3325 363 
Q 3397 369 3419 372 
L 3338 -44 
Q 3222 -84 3103 -103 
Q 2981 -122 2866 -122 
Q 2491 -122 2388 81 
Q 2284 288 2391 838 
L 2797 2925 
L 1506 2925 
L 938 0 
L 350 0 
L 919 2925 
L 472 2925 
L 584 3500 
z
" transform="scale(0.015625)"/>
      </defs>
      <use xlink:href="#ArialMT-6d" transform="translate(0 0.203125)"/>
      <use xlink:href="#ArialMT-6f" transform="translate(83.300781 0.203125)"/>
      <use xlink:href="#ArialMT-64" transform="translate(138.916016 0.203125)"/>
      <use xlink:href="#ArialMT-65" transform="translate(194.53125 0.203125)"/>
      <use xlink:href="#ArialMT-20" transform="translate(250.146484 0.203125)"/>
      <use xlink:href="#ArialMT-6f" transform="translate(277.929688 0.203125)"/>
      <use xlink:href="#ArialMT-66" transform="translate(333.544922 0.203125)"/>
      <use xlink:href="#ArialMT-20" transform="translate(361.328125 0.203125)"/>
      <use xlink:href="#ArialMT-74" transform="translate(389.111328 0.203125)"/>
      <use xlink:href="#ArialMT-61" transform="translate(416.894531 0.203125)"/>
      <use xlink:href="#ArialMT-72" transform="translate(472.509766 0.203125)"/>
      <use xlink:href="#ArialMT-67" transform="translate(505.810547 0.203125)"/>
      <use xlink:href="#ArialMT-65" transform="translate(561.425781 0.203125)"/>
      <use xlink:href="#ArialMT-74" transform="translate(617.041016 0.203125)"/>
      <use xlink:href="#ArialMT-20" transform="translate(644.824219 0.203125)"/>
      <use xlink:href="#DejaVuSans-Oblique-3c0" transform="translate(672.607422 0.203125)"/>
     </g>
    </g>
   </g>
  </g>
 </g>
 <defs>
  <clipPath id="pfb1a1d03ec">
   <rect x="57.6" y="41.472" width="357.12" height="266.112"/>
  </clipPath>
 </defs>
</svg>
