<?xml version="1.0" encoding="utf-8" standalone="no"?>
<!DOCTYPE svg PUBLIC "-//W3C//DTD SVG 1.1//EN"
  "http://www.w3.org/Graphics/SVG/1.1/DTD/svg11.dtd">
<svg xmlns:xlink="http://www.w3.org/1999/xlink" width="460.8pt" height="345.6pt" viewBox="0 0 460.8 345.6" xmlns="http://www.w3.org/2000/svg" version="1.1">
 <metadata>
  <rdf:RDF xmlns:dc="http://purl.org/dc/elements/1.1/" xmlns:cc="http://creativecommons.org/ns#" xmlns:rdf="http://www.w3.org/1999/02/22-rdf-syntax-ns#">
   <cc:Work>
    <dc:type rdf:resource="http://purl.org/dc/dcmitype/StillImage"/>
    <dc:date>2025-04-11T14:12:35.396359</dc:date>
    <dc:format>image/svg+xml</dc:format>
    <dc:creator>
     <cc:Agent>
      <dc:title>Matplotlib v3.10.1, https://matplotlib.org/</dc:title>
     </cc:Agent>
    </dc:creator>
   </cc:Work>
  </rdf:RDF>
 </metadata>
 <defs>
  <style type="text/css">*{stroke-linejoin: round; stroke-linecap: butt}</style>
 </defs>
 <g id="figure_1">
  <g id="patch_1">
   <path d="M 0 345.6 
L 460.8 345.6 
L 460.8 0 
L 0 0 
z
" style="fill: #ffffff"/>
  </g>
  <g id="axes_1">
   <g id="patch_2">
    <path d="M 57.6 307.584 
L 414.72 307.584 
L 414.72 41.472 
L 57.6 41.472 
z
" style="fill: #eaeaf2"/>
   </g>
   <g id="matplotlib.axis_1">
    <g id="xtick_1">
     <g id="line2d_1">
      <path d="M 106.298182 307.584 
L 106.298182 41.472 
" clip-path="url(#p54413a8426)" style="fill: none; stroke: #ffffff; stroke-width: 0.8; stroke-linecap: round"/>
     </g>
     <g id="text_1">
      <!-- −2 -->
      <g style="fill: #262626" transform="translate(100.597401 321.741812) scale(0.1 -0.1)">
       <defs>
        <path id="ArialMT-2212" d="M 3381 1997 
L 356 1997 
L 356 2522 
L 3381 2522 
L 3381 1997 
z
" transform="scale(0.015625)"/>
        <path id="ArialMT-32" d="M 3222 541 
L 3222 0 
L 194 0 
Q 188 203 259 391 
Q 375 700 629 1000 
Q 884 1300 1366 1694 
Q 2113 2306 2375 2664 
Q 2638 3022 2638 3341 
Q 2638 3675 2398 3904 
Q 2159 4134 1775 4134 
Q 1369 4134 1125 3890 
Q 881 3647 878 3216 
L 300 3275 
Q 359 3922 746 4261 
Q 1134 4600 1788 4600 
Q 2447 4600 2831 4234 
Q 3216 3869 3216 3328 
Q 3216 3053 3103 2787 
Q 2991 2522 2730 2228 
Q 2469 1934 1863 1422 
Q 1356 997 1212 845 
Q 1069 694 975 541 
L 3222 541 
z
" transform="scale(0.015625)"/>
       </defs>
       <use xlink:href="#ArialMT-2212"/>
       <use xlink:href="#ArialMT-32" transform="translate(58.398438 0)"/>
      </g>
     </g>
    </g>
    <g id="xtick_2">
     <g id="line2d_2">
      <path d="M 171.229091 307.584 
L 171.229091 41.472 
" clip-path="url(#p54413a8426)" style="fill: none; stroke: #ffffff; stroke-width: 0.8; stroke-linecap: round"/>
     </g>
     <g id="text_2">
      <!-- −1 -->
      <g style="fill: #262626" transform="translate(165.52831 321.741812) scale(0.1 -0.1)">
       <defs>
        <path id="ArialMT-31" d="M 2384 0 
L 1822 0 
L 1822 3584 
Q 1619 3391 1289 3197 
Q 959 3003 697 2906 
L 697 3450 
Q 1169 3672 1522 3987 
Q 1875 4303 2022 4600 
L 2384 4600 
L 2384 0 
z
" transform="scale(0.015625)"/>
       </defs>
       <use xlink:href="#ArialMT-2212"/>
       <use xlink:href="#ArialMT-31" transform="translate(58.398438 0)"/>
      </g>
     </g>
    </g>
    <g id="xtick_3">
     <g id="line2d_3">
      <path d="M 236.16 307.584 
L 236.16 41.472 
" clip-path="url(#p54413a8426)" style="fill: none; stroke: #ffffff; stroke-width: 0.8; stroke-linecap: round"/>
     </g>
     <g id="text_3">
      <!-- 0 -->
      <g style="fill: #262626" transform="translate(233.379531 321.741812) scale(0.1 -0.1)">
       <defs>
        <path id="ArialMT-30" d="M 266 2259 
Q 266 3072 433 3567 
Q 600 4063 929 4331 
Q 1259 4600 1759 4600 
Q 2128 4600 2406 4451 
Q 2684 4303 2865 4023 
Q 3047 3744 3150 3342 
Q 3253 2941 3253 2259 
Q 3253 1453 3087 958 
Q 2922 463 2592 192 
Q 2263 -78 1759 -78 
Q 1097 -78 719 397 
Q 266 969 266 2259 
z
M 844 2259 
Q 844 1131 1108 757 
Q 1372 384 1759 384 
Q 2147 384 2411 759 
Q 2675 1134 2675 2259 
Q 2675 3391 2411 3762 
Q 2147 4134 1753 4134 
Q 1366 4134 1134 3806 
Q 844 3388 844 2259 
z
" transform="scale(0.015625)"/>
       </defs>
       <use xlink:href="#ArialMT-30"/>
      </g>
     </g>
    </g>
    <g id="xtick_4">
     <g id="line2d_4">
      <path d="M 301.090909 307.584 
L 301.090909 41.472 
" clip-path="url(#p54413a8426)" style="fill: none; stroke: #ffffff; stroke-width: 0.8; stroke-linecap: round"/>
     </g>
     <g id="text_4">
      <!-- 1 -->
      <g style="fill: #262626" transform="translate(298.31044 321.741812) scale(0.1 -0.1)">
       <use xlink:href="#ArialMT-31"/>
      </g>
     </g>
    </g>
    <g id="xtick_5">
     <g id="line2d_5">
      <path d="M 366.021818 307.584 
L 366.021818 41.472 
" clip-path="url(#p54413a8426)" style="fill: none; stroke: #ffffff; stroke-width: 0.8; stroke-linecap: round"/>
     </g>
     <g id="text_5">
      <!-- 2 -->
      <g style="fill: #262626" transform="translate(363.241349 321.741812) scale(0.1 -0.1)">
       <use xlink:href="#ArialMT-32"/>
      </g>
     </g>
    </g>
    <g id="text_6">
     <!-- x -->
     <g style="fill: #262626" transform="translate(233.66 334.887125) scale(0.1 -0.1)">
      <defs>
       <path id="ArialMT-78" d="M 47 0 
L 1259 1725 
L 138 3319 
L 841 3319 
L 1350 2541 
Q 1494 2319 1581 2169 
Q 1719 2375 1834 2534 
L 2394 3319 
L 3066 3319 
L 1919 1756 
L 3153 0 
L 2463 0 
L 1781 1031 
L 1600 1309 
L 728 0 
L 47 0 
z
" transform="scale(0.015625)"/>
      </defs>
      <use xlink:href="#ArialMT-78"/>
     </g>
    </g>
   </g>
   <g id="matplotlib.axis_2">
    <g id="ytick_1">
     <g id="line2d_6">
      <path d="M 57.6 307.584 
L 414.72 307.584 
" clip-path="url(#p54413a8426)" style="fill: none; stroke: #ffffff; stroke-width: 0.8; stroke-linecap: round"/>
     </g>
     <g id="text_7">
      <!-- 0.0 -->
      <g style="fill: #262626" transform="translate(36.7 311.162906) scale(0.1 -0.1)">
       <defs>
        <path id="ArialMT-2e" d="M 581 0 
L 581 641 
L 1222 641 
L 1222 0 
L 581 0 
z
" transform="scale(0.015625)"/>
       </defs>
       <use xlink:href="#ArialMT-30"/>
       <use xlink:href="#ArialMT-2e" transform="translate(55.615234 0)"/>
       <use xlink:href="#ArialMT-30" transform="translate(83.398438 0)"/>
      </g>
     </g>
    </g>
    <g id="ytick_2">
     <g id="line2d_7">
      <path d="M 57.6 256.408615 
L 414.72 256.408615 
" clip-path="url(#p54413a8426)" style="fill: none; stroke: #ffffff; stroke-width: 0.8; stroke-linecap: round"/>
     </g>
     <g id="text_8">
      <!-- 0.5 -->
      <g style="fill: #262626" transform="translate(36.7 259.987522) scale(0.1 -0.1)">
       <defs>
        <path id="ArialMT-35" d="M 266 1200 
L 856 1250 
Q 922 819 1161 601 
Q 1400 384 1738 384 
Q 2144 384 2425 690 
Q 2706 997 2706 1503 
Q 2706 1984 2436 2262 
Q 2166 2541 1728 2541 
Q 1456 2541 1237 2417 
Q 1019 2294 894 2097 
L 366 2166 
L 809 4519 
L 3088 4519 
L 3088 3981 
L 1259 3981 
L 1013 2750 
Q 1425 3038 1878 3038 
Q 2478 3038 2890 2622 
Q 3303 2206 3303 1553 
Q 3303 931 2941 478 
Q 2500 -78 1738 -78 
Q 1113 -78 717 272 
Q 322 622 266 1200 
z
" transform="scale(0.015625)"/>
       </defs>
       <use xlink:href="#ArialMT-30"/>
       <use xlink:href="#ArialMT-2e" transform="translate(55.615234 0)"/>
       <use xlink:href="#ArialMT-35" transform="translate(83.398438 0)"/>
      </g>
     </g>
    </g>
    <g id="ytick_3">
     <g id="line2d_8">
      <path d="M 57.6 205.233231 
L 414.72 205.233231 
" clip-path="url(#p54413a8426)" style="fill: none; stroke: #ffffff; stroke-width: 0.8; stroke-linecap: round"/>
     </g>
     <g id="text_9">
      <!-- 1.0 -->
      <g style="fill: #262626" transform="translate(36.7 208.812137) scale(0.1 -0.1)">
       <use xlink:href="#ArialMT-31"/>
       <use xlink:href="#ArialMT-2e" transform="translate(55.615234 0)"/>
       <use xlink:href="#ArialMT-30" transform="translate(83.398438 0)"/>
      </g>
     </g>
    </g>
    <g id="ytick_4">
     <g id="line2d_9">
      <path d="M 57.6 154.057846 
L 414.72 154.057846 
" clip-path="url(#p54413a8426)" style="fill: none; stroke: #ffffff; stroke-width: 0.8; stroke-linecap: round"/>
     </g>
     <g id="text_10">
      <!-- 1.5 -->
      <g style="fill: #262626" transform="translate(36.7 157.636752) scale(0.1 -0.1)">
       <use xlink:href="#ArialMT-31"/>
       <use xlink:href="#ArialMT-2e" transform="translate(55.615234 0)"/>
       <use xlink:href="#ArialMT-35" transform="translate(83.398438 0)"/>
      </g>
     </g>
    </g>
    <g id="ytick_5">
     <g id="line2d_10">
      <path d="M 57.6 102.882462 
L 414.72 102.882462 
" clip-path="url(#p54413a8426)" style="fill: none; stroke: #ffffff; stroke-width: 0.8; stroke-linecap: round"/>
     </g>
     <g id="text_11">
      <!-- 2.0 -->
      <g style="fill: #262626" transform="translate(36.7 106.461368) scale(0.1 -0.1)">
       <use xlink:href="#ArialMT-32"/>
       <use xlink:href="#ArialMT-2e" transform="translate(55.615234 0)"/>
       <use xlink:href="#ArialMT-30" transform="translate(83.398438 0)"/>
      </g>
     </g>
    </g>
    <g id="ytick_6">
     <g id="line2d_11">
      <path d="M 57.6 51.707077 
L 414.72 51.707077 
" clip-path="url(#p54413a8426)" style="fill: none; stroke: #ffffff; stroke-width: 0.8; stroke-linecap: round"/>
     </g>
     <g id="text_12">
      <!-- 2.5 -->
      <g style="fill: #262626" transform="translate(36.7 55.285983) scale(0.1 -0.1)">
       <use xlink:href="#ArialMT-32"/>
       <use xlink:href="#ArialMT-2e" transform="translate(55.615234 0)"/>
       <use xlink:href="#ArialMT-35" transform="translate(83.398438 0)"/>
      </g>
     </g>
    </g>
    <g id="text_13">
     <!-- $\mathcal{W}(\delta_x P_{\mu,\sigma}, \pi)$ -->
     <g style="fill: #262626" transform="translate(29.6 203.478) rotate(-90) scale(0.1 -0.1)">
      <defs>
       <path id="STIXNonUnicode-Italic-e243" d="M 4634 736 
L 4672 717 
Q 4742 794 4931 1008 
Q 5120 1222 5248 1369 
Q 5376 1517 5545 1757 
Q 5715 1997 5837 2234 
Q 6131 2803 6131 3245 
Q 6131 3936 5741 3936 
Q 5696 3936 5661 3885 
Q 5626 3834 5606 3776 
Q 5587 3718 5529 3667 
Q 5472 3616 5382 3616 
Q 5229 3616 5145 3715 
Q 5062 3814 5062 3962 
Q 5062 4173 5209 4278 
Q 5357 4384 5594 4384 
Q 5965 4384 6176 4073 
Q 6387 3763 6387 3290 
Q 6387 2906 6236 2506 
Q 6086 2106 5814 1718 
Q 5542 1331 5289 1027 
Q 5037 723 4697 352 
Q 4358 -19 4211 -205 
L 4045 -205 
L 4045 230 
Q 4045 1306 3936 2099 
Q 3827 2893 3475 3373 
L 3430 3373 
L 1363 -205 
L 1171 -205 
Q 1459 1581 1459 2624 
Q 1459 4006 602 4006 
Q 448 4006 307 3891 
L 211 4013 
Q 486 4237 915 4237 
Q 1184 4237 1389 4157 
Q 1594 4077 1722 3923 
Q 1850 3770 1933 3590 
Q 2016 3411 2054 3155 
Q 2093 2899 2105 2684 
Q 2118 2470 2118 2182 
Q 2118 1920 2099 1658 
L 2138 1658 
L 3398 3846 
L 3686 4160 
Q 4077 3738 4365 2950 
Q 4653 2163 4653 1395 
Q 4653 966 4634 736 
z
" transform="scale(0.015625)"/>
       <path id="DejaVuSans-28" d="M 1984 4856 
Q 1566 4138 1362 3434 
Q 1159 2731 1159 2009 
Q 1159 1288 1364 580 
Q 1569 -128 1984 -844 
L 1484 -844 
Q 1016 -109 783 600 
Q 550 1309 550 2009 
Q 550 2706 781 3412 
Q 1013 4119 1484 4856 
L 1984 4856 
z
" transform="scale(0.015625)"/>
       <path id="DejaVuSans-Oblique-3b4" d="M 3472 4053 
Q 3197 4272 2450 4272 
Q 1659 4272 1588 3906 
Q 1531 3619 2328 3469 
Q 2953 3353 3253 3003 
Q 3616 2581 3447 1716 
Q 3284 888 2763 400 
Q 2238 -91 1488 -91 
Q 741 -91 406 400 
Q 72 888 241 1747 
Q 363 2384 891 2900 
Q 1097 3100 1353 3213 
Q 913 3459 1000 3900 
Q 1166 4750 2544 4750 
Q 3234 4750 3566 4531 
L 3472 4053 
z
M 1753 3056 
Q 1525 2966 1306 2738 
Q 969 2384 847 1747 
Q 722 1113 919 756 
Q 1119 397 1584 397 
Q 2044 397 2381 759 
Q 2722 1122 2838 1716 
Q 2956 2338 2731 2638 
Q 2491 2959 2103 2994 
Q 1906 3013 1753 3056 
z
" transform="scale(0.015625)"/>
       <path id="DejaVuSans-Oblique-78" d="M 3841 3500 
L 2234 1784 
L 3219 0 
L 2559 0 
L 1819 1388 
L 531 0 
L -166 0 
L 1556 1844 
L 641 3500 
L 1300 3500 
L 1972 2234 
L 3144 3500 
L 3841 3500 
z
" transform="scale(0.015625)"/>
       <path id="DejaVuSans-Oblique-50" d="M 1081 4666 
L 2541 4666 
Q 3178 4666 3512 4369 
Q 3847 4072 3847 3500 
Q 3847 2731 3353 2303 
Q 2859 1875 1966 1875 
L 1172 1875 
L 806 0 
L 172 0 
L 1081 4666 
z
M 1613 4147 
L 1275 2394 
L 2069 2394 
Q 2606 2394 2893 2669 
Q 3181 2944 3181 3456 
Q 3181 3784 2986 3965 
Q 2791 4147 2438 4147 
L 1613 4147 
z
" transform="scale(0.015625)"/>
       <path id="DejaVuSans-Oblique-3bc" d="M -84 -1331 
L 856 3500 
L 1434 3500 
L 1009 1322 
Q 997 1256 987 1175 
Q 978 1094 978 1013 
Q 978 722 1161 565 
Q 1344 409 1684 409 
Q 2147 409 2431 671 
Q 2716 934 2816 1459 
L 3213 3500 
L 3788 3500 
L 3266 809 
Q 3253 750 3248 706 
Q 3244 663 3244 628 
Q 3244 531 3283 486 
Q 3322 441 3406 441 
Q 3438 441 3492 456 
Q 3547 472 3647 513 
L 3559 50 
Q 3422 -19 3297 -55 
Q 3172 -91 3053 -91 
Q 2847 -91 2730 40 
Q 2613 172 2613 403 
Q 2438 153 2195 31 
Q 1953 -91 1625 -91 
Q 1334 -91 1117 43 
Q 900 178 831 397 
L 494 -1331 
L -84 -1331 
z
" transform="scale(0.015625)"/>
       <path id="DejaVuSans-2c" d="M 750 794 
L 1409 794 
L 1409 256 
L 897 -744 
L 494 -744 
L 750 256 
L 750 794 
z
" transform="scale(0.015625)"/>
       <path id="DejaVuSans-Oblique-3c3" d="M 2219 3044 
Q 1744 3044 1422 2700 
Q 1081 2341 969 1747 
Q 844 1119 1044 756 
Q 1241 397 1706 397 
Q 2166 397 2503 759 
Q 2844 1122 2966 1747 
Q 3075 2319 2881 2700 
Q 2700 3044 2219 3044 
z
M 2309 3503 
L 4219 3500 
L 4106 2925 
L 3463 2925 
Q 3706 2438 3575 1747 
Q 3406 888 2884 400 
Q 2359 -91 1609 -91 
Q 856 -91 525 400 
Q 194 888 363 1747 
Q 528 2609 1050 3097 
Q 1484 3503 2309 3503 
z
" transform="scale(0.015625)"/>
       <path id="DejaVuSans-Oblique-3c0" d="M 584 3500 
L 3938 3500 
L 3825 2925 
L 3384 2925 
L 2966 775 
Q 2922 550 2981 450 
Q 3038 353 3209 353 
Q 3256 353 3325 363 
Q 3397 369 3419 372 
L 3338 -44 
Q 3222 -84 3103 -103 
Q 2981 -122 2866 -122 
Q 2491 -122 2388 81 
Q 2284 288 2391 838 
L 2797 2925 
L 1506 2925 
L 938 0 
L 350 0 
L 919 2925 
L 472 2925 
L 584 3500 
z
" transform="scale(0.015625)"/>
       <path id="DejaVuSans-29" d="M 513 4856 
L 1013 4856 
Q 1481 4119 1714 3412 
Q 1947 2706 1947 2009 
Q 1947 1309 1714 600 
Q 1481 -109 1013 -844 
L 513 -844 
Q 928 -128 1133 580 
Q 1338 1288 1338 2009 
Q 1338 2731 1133 3434 
Q 928 4138 513 4856 
z
" transform="scale(0.015625)"/>
      </defs>
      <use xlink:href="#STIXNonUnicode-Italic-e243" transform="translate(0 0.125)"/>
      <use xlink:href="#DejaVuSans-28" transform="translate(95.599991 0.125)"/>
      <use xlink:href="#DejaVuSans-Oblique-3b4" transform="translate(134.613663 0.125)"/>
      <use xlink:href="#DejaVuSans-Oblique-78" transform="translate(195.795303 -16.28125) scale(0.7)"/>
      <use xlink:href="#DejaVuSans-Oblique-50" transform="translate(239.95546 0.125)"/>
      <use xlink:href="#DejaVuSans-Oblique-3bc" transform="translate(300.258194 -16.28125) scale(0.7)"/>
      <use xlink:href="#DejaVuSans-2c" transform="translate(344.794327 -16.28125) scale(0.7)"/>
      <use xlink:href="#DejaVuSans-Oblique-3c3" transform="translate(380.682999 -16.28125) scale(0.7)"/>
      <use xlink:href="#DejaVuSans-2c" transform="translate(427.782608 0.125)"/>
      <use xlink:href="#DejaVuSans-Oblique-3c0" transform="translate(479.052139 0.125)"/>
      <use xlink:href="#DejaVuSans-29" transform="translate(539.257217 0.125)"/>
     </g>
    </g>
   </g>
   <g id="line2d_12">
    <path d="M 73.832727 51.726379 
L 77.112073 56.895597 
L 80.391404 62.064863 
L 83.670734 67.234057 
L 86.95008 72.403348 
L 90.229426 77.572541 
L 93.508757 82.741759 
L 96.788103 87.911001 
L 100.067434 93.080218 
L 103.34678 98.249461 
L 106.62611 103.41869 
L 109.905456 108.587933 
L 113.184795 113.75715 
L 116.464133 118.926392 
L 119.743479 124.095622 
L 123.022809 129.264852 
L 126.302148 134.43407 
L 129.581486 139.603312 
L 132.860824 144.772542 
L 136.140163 149.941772 
L 139.419493 155.110989 
L 142.698847 160.280244 
L 145.978178 165.449315 
L 149.257516 170.61763 
L 152.536862 175.781626 
L 155.816192 180.926002 
L 159.095538 186.0021 
L 162.374869 190.887738 
L 165.654215 195.355011 
L 168.933553 199.103635 
L 172.212892 201.88877 
L 175.492234 203.669103 
L 178.771564 204.631494 
L 182.050914 205.051336 
L 185.330245 205.203558 
L 188.609583 205.244291 
L 191.888925 205.25393 
L 195.168256 205.256175 
L 198.447606 205.25684 
L 201.726936 205.257255 
L 205.006277 205.25767 
L 208.285621 205.258072 
L 211.564957 205.258499 
L 214.844301 205.258908 
L 218.123628 205.259323 
L 221.402982 205.259732 
L 224.682308 205.260147 
L 227.961652 205.260549 
L 231.240996 205.26097 
L 234.520323 205.261379 
L 237.799667 205.261806 
L 241.079004 205.262209 
L 244.358348 205.262629 
L 247.637684 205.263044 
L 250.917028 205.263441 
L 254.196364 205.26388 
L 257.475699 205.264283 
L 260.755035 205.264698 
L 264.034379 205.265106 
L 267.313716 205.265527 
L 270.59306 205.265948 
L 273.872394 205.266351 
L 277.151733 205.266607 
L 280.431067 205.265741 
L 283.710409 205.256565 
L 286.989755 205.213233 
L 290.269093 205.061487 
L 293.548424 204.639522 
L 296.827762 203.684061 
L 300.107108 201.896689 
L 303.386439 199.0974 
L 306.665785 195.334598 
L 309.945123 190.860749 
L 313.224462 185.969303 
L 316.503792 180.891106 
L 319.783138 175.744119 
L 323.062476 170.579452 
L 326.341815 165.410869 
L 329.621153 160.241627 
L 332.900491 155.072397 
L 336.179822 149.90318 
L 339.459168 144.733937 
L 342.738514 139.564695 
L 346.01786 134.395441 
L 349.297191 129.226248 
L 352.576521 124.057018 
L 355.855867 118.887776 
L 359.135213 113.718534 
L 362.414536 108.54934 
L 365.693882 103.38011 
L 368.97322 98.210856 
L 372.252566 93.04159 
L 375.531881 87.872421 
L 378.811227 82.703179 
L 382.090574 77.533961 
L 385.36992 72.364694 
L 388.649266 67.195452 
L 391.928581 62.026259 
L 395.207927 56.857017 
L 398.487273 51.687775 
" clip-path="url(#p54413a8426)" style="fill: none; stroke-dasharray: 5.55,2.4; stroke-dashoffset: 0; stroke: #808080; stroke-width: 1.5"/>
   </g>
   <g id="line2d_13">
    <path d="M 73.832727 206.093114 
L 77.112073 206.226497 
L 80.391404 206.271342 
L 83.670734 206.378285 
L 86.95008 206.546954 
L 90.229426 206.363876 
L 93.508757 206.580447 
L 96.788103 206.974849 
L 100.067434 206.895163 
L 103.34678 207.176992 
L 106.62611 207.343153 
L 109.905456 207.319196 
L 113.184795 207.27357 
L 116.464133 207.63151 
L 119.743479 207.53969 
L 123.022809 207.42201 
L 126.302148 207.242402 
L 129.581486 207.377024 
L 132.860824 207.476451 
L 136.140163 207.345527 
L 139.419493 207.613793 
L 142.698847 207.772506 
L 145.978178 208.693883 
L 149.257516 278.055558 
L 152.536862 234.880677 
L 155.816192 214.133814 
L 159.095538 208.817548 
L 162.374869 206.697761 
L 165.654215 205.751353 
L 168.933553 205.509331 
L 172.212892 205.517866 
L 175.492234 205.842154 
L 178.771564 206.673975 
L 182.050914 208.632737 
L 185.330245 214.280063 
L 188.609583 234.846428 
L 191.888925 278.853624 
L 195.168256 208.545047 
L 198.447606 207.699458 
L 201.726936 207.444649 
L 205.006277 207.101613 
L 208.285621 207.092291 
L 211.564957 206.91427 
L 214.844301 207.057115 
L 218.123628 206.887995 
L 221.402982 206.930443 
L 224.682308 206.885982 
L 227.961652 206.893358 
L 231.240996 206.835445 
L 234.520323 206.712677 
L 237.799667 206.870517 
L 241.079004 206.943913 
L 244.358348 207.056298 
L 247.637684 207.216481 
L 250.917028 207.24843 
L 254.196364 207.160929 
L 257.475699 207.153285 
L 260.755035 206.905101 
L 264.034379 206.806363 
L 267.313716 206.191772 
L 270.59306 206.145762 
L 273.872394 206.059573 
L 277.151733 205.768599 
L 280.431067 205.722296 
L 283.710409 205.622192 
L 286.989755 205.724413 
L 290.269093 205.609539 
L 293.548424 206.247208 
L 296.827762 205.668873 
L 300.107108 206.04606 
L 303.386439 207.279402 
L 306.665785 207.764813 
L 309.945123 208.330014 
L 313.224462 208.603845 
L 316.503792 208.654852 
L 319.783138 208.927279 
L 323.062476 208.978457 
L 326.341815 209.045453 
L 329.621153 209.153428 
L 332.900491 209.379973 
L 336.179822 209.678749 
L 339.459168 209.640638 
L 342.738514 210.059785 
L 346.01786 210.131814 
L 349.297191 210.212903 
L 352.576521 210.417633 
L 355.855867 210.926366 
L 359.135213 210.888799 
L 362.414536 210.995254 
L 365.693882 211.149696 
L 368.97322 211.184201 
L 372.252566 210.897572 
L 375.531881 210.453657 
L 378.811227 210.321128 
L 382.090574 210.404809 
L 385.36992 209.966196 
L 388.649266 209.826114 
L 391.928581 209.751614 
L 395.207927 209.610666 
L 398.487273 209.780915 
" clip-path="url(#p54413a8426)" style="fill: none; stroke: #ffa500; stroke-width: 1.5; stroke-linecap: round"/>
   </g>
   <g id="line2d_14">
    <path d="M 73.832727 216.367652 
L 77.112073 217.518514 
L 80.391404 218.498658 
L 83.670734 219.841396 
L 86.95008 221.027111 
L 90.229426 222.76746 
L 93.508757 223.898014 
L 96.788103 226.022059 
L 100.067434 227.832523 
L 103.34678 229.462891 
L 106.62611 230.609184 
L 109.905456 232.229993 
L 113.184795 233.278103 
L 116.464133 234.599452 
L 119.743479 235.887913 
L 123.022809 238.485089 
L 126.302148 242.353511 
L 129.581486 247.563139 
L 132.860824 252.409678 
L 136.140163 258.15451 
L 139.419493 265.000409 
L 142.698847 272.396878 
L 145.978178 282.526241 
L 149.257516 294.511379 
L 152.536862 294.640551 
L 155.816192 281.212008 
L 159.095538 255.204141 
L 162.374869 228.410407 
L 165.654215 218.735293 
L 168.933553 215.345268 
L 172.212892 215.176965 
L 175.492234 218.172283 
L 178.771564 227.086776 
L 182.050914 252.352125 
L 185.330245 279.698402 
L 188.609583 294.499156 
L 191.888925 294.784323 
L 195.168256 283.277527 
L 198.447606 276.090567 
L 201.726936 270.817276 
L 205.006277 265.518189 
L 208.285621 260.035139 
L 211.564957 255.220027 
L 214.844301 250.995551 
L 218.123628 247.087909 
L 221.402982 244.243642 
L 224.682308 241.216692 
L 227.961652 238.34843 
L 231.240996 235.712869 
L 234.520323 233.495949 
L 237.799667 233.049166 
L 241.079004 234.324005 
L 244.358348 236.11965 
L 247.637684 238.274442 
L 250.917028 242.021895 
L 254.196364 243.934586 
L 257.475699 244.156916 
L 260.755035 242.799341 
L 264.034379 240.498007 
L 267.313716 239.194801 
L 270.59306 237.431074 
L 273.872394 235.886431 
L 277.151733 233.955383 
L 280.431067 231.765086 
L 283.710409 230.042538 
L 286.989755 228.166072 
L 290.269093 226.633856 
L 293.548424 225.143704 
L 296.827762 223.825655 
L 300.107108 223.255226 
L 303.386439 223.657712 
L 306.665785 224.597976 
L 309.945123 225.534898 
L 313.224462 226.754764 
L 316.503792 228.401353 
L 319.783138 230.137237 
L 323.062476 230.876017 
L 326.341815 228.494954 
L 329.621153 230.080099 
L 332.900491 232.086916 
L 336.179822 234.309113 
L 339.459168 236.619269 
L 342.738514 238.764106 
L 346.01786 241.116917 
L 349.297191 242.751464 
L 352.576521 244.547963 
L 355.855867 245.913121 
L 359.135213 246.687815 
L 362.414536 247.798109 
L 365.693882 248.635517 
L 368.97322 247.887378 
L 372.252566 247.173214 
L 375.531881 246.012712 
L 378.811227 245.233711 
L 382.090574 244.524616 
L 385.36992 243.134824 
L 388.649266 243.212161 
L 391.928581 241.693117 
L 395.207927 241.347726 
L 398.487273 240.01007 
" clip-path="url(#p54413a8426)" style="fill: none; stroke: #0000ff; stroke-width: 1.5; stroke-linecap: round"/>
   </g>
   <g id="line2d_15">
    <path d="M 73.832727 249.034581 
L 77.112073 250.913139 
L 80.391404 252.530567 
L 83.670734 254.221038 
L 86.95008 255.943653 
L 90.229426 257.368707 
L 93.508757 259.039787 
L 96.788103 260.4514 
L 100.067434 261.829159 
L 103.34678 263.335148 
L 106.62611 264.691832 
L 109.905456 266.878561 
L 113.184795 269.086075 
L 116.464133 270.850219 
L 119.743479 272.402186 
L 123.022809 273.566738 
L 126.302148 274.134724 
L 129.581486 274.391717 
L 132.860824 274.214589 
L 136.140163 272.998393 
L 139.419493 271.353045 
L 142.698847 269.103449 
L 145.978178 265.541308 
L 149.257516 260.968208 
L 152.536862 256.456115 
L 155.816192 250.626588 
L 159.095538 244.780664 
L 162.374869 239.477752 
L 165.654215 233.425578 
L 168.933553 229.100163 
L 172.212892 227.916436 
L 175.492234 231.798102 
L 178.771564 237.160556 
L 182.050914 243.430666 
L 185.330245 249.29 
L 188.609583 254.476116 
L 191.888925 259.511569 
L 195.168256 263.983137 
L 198.447606 267.950546 
L 201.726936 271.021149 
L 205.006277 272.378964 
L 208.285621 273.822709 
L 211.564957 274.16972 
L 214.844301 274.281964 
L 218.123628 273.573318 
L 221.402982 272.802491 
L 224.682308 271.803807 
L 227.961652 269.887093 
L 231.240996 267.808878 
L 234.520323 265.473765 
L 237.799667 265.386954 
L 241.079004 267.411776 
L 244.358348 268.906745 
L 247.637684 270.382262 
L 250.917028 271.685175 
L 254.196364 271.790051 
L 257.475699 272.681776 
L 260.755035 272.472458 
L 264.034379 271.823137 
L 267.313716 270.728363 
L 270.59306 268.704495 
L 273.872394 265.897023 
L 277.151733 261.78367 
L 280.431067 257.628909 
L 283.710409 252.461253 
L 286.989755 247.723401 
L 290.269093 242.041198 
L 293.548424 236.479548 
L 296.827762 231.292028 
L 300.107108 228.658359 
L 303.386439 229.480387 
L 306.665785 233.26068 
L 309.945123 238.542069 
L 313.224462 244.026979 
L 316.503792 249.740888 
L 319.783138 254.711916 
L 323.062476 258.887556 
L 326.341815 263.278303 
L 329.621153 266.812803 
L 332.900491 269.591371 
L 336.179822 271.469923 
L 339.459168 271.726937 
L 342.738514 272.392419 
L 346.01786 272.440769 
L 349.297191 271.994359 
L 352.576521 271.21375 
L 355.855867 269.787407 
L 359.135213 268.379713 
L 362.414536 266.567913 
L 365.693882 264.460815 
L 368.97322 263.141891 
L 372.252566 261.703642 
L 375.531881 260.372081 
L 378.811227 259.031786 
L 382.090574 257.346638 
L 385.36992 256.046076 
L 388.649266 254.108324 
L 391.928581 252.642574 
L 395.207927 250.807477 
L 398.487273 249.317098 
" clip-path="url(#p54413a8426)" style="fill: none; stroke: #ff0000; stroke-width: 1.5; stroke-linecap: round"/>
   </g>
   <g id="patch_3">
    <path d="M 57.6 307.584 
L 57.6 41.472 
" style="fill: none; stroke: #ffffff; stroke-width: 0.8; stroke-linejoin: miter; stroke-linecap: square"/>
   </g>
   <g id="patch_4">
    <path d="M 414.72 307.584 
L 414.72 41.472 
" style="fill: none; stroke: #ffffff; stroke-width: 0.8; stroke-linejoin: miter; stroke-linecap: square"/>
   </g>
   <g id="patch_5">
    <path d="M 57.6 307.584 
L 414.72 307.584 
" style="fill: none; stroke: #ffffff; stroke-width: 0.8; stroke-linejoin: miter; stroke-linecap: square"/>
   </g>
   <g id="patch_6">
    <path d="M 57.6 41.472 
L 414.72 41.472 
" style="fill: none; stroke: #ffffff; stroke-width: 0.8; stroke-linejoin: miter; stroke-linecap: square"/>
   </g>
   <g id="legend_1">
    <g id="patch_7">
     <path d="M 311.02 204.95925 
L 407.72 204.95925 
Q 409.72 204.95925 409.72 202.95925 
L 409.72 146.09675 
Q 409.72 144.09675 407.72 144.09675 
L 311.02 144.09675 
Q 309.02 144.09675 309.02 146.09675 
L 309.02 202.95925 
Q 309.02 204.95925 311.02 204.95925 
z
" style="fill: #eaeaf2; opacity: 0.8; stroke: #cccccc; stroke-linejoin: miter"/>
    </g>
    <g id="line2d_16">
     <path d="M 313.02 151.754562 
L 323.02 151.754562 
L 333.02 151.754562 
" style="fill: none; stroke-dasharray: 5.55,2.4; stroke-dashoffset: 0; stroke: #808080; stroke-width: 1.5"/>
    </g>
    <g id="text_14">
     <!-- eccentricity -->
     <g style="fill: #262626" transform="translate(341.02 155.254562) scale(0.1 -0.1)">
      <defs>
       <path id="ArialMT-65" d="M 2694 1069 
L 3275 997 
Q 3138 488 2766 206 
Q 2394 -75 1816 -75 
Q 1088 -75 661 373 
Q 234 822 234 1631 
Q 234 2469 665 2931 
Q 1097 3394 1784 3394 
Q 2450 3394 2872 2941 
Q 3294 2488 3294 1666 
Q 3294 1616 3291 1516 
L 816 1516 
Q 847 969 1125 678 
Q 1403 388 1819 388 
Q 2128 388 2347 550 
Q 2566 713 2694 1069 
z
M 847 1978 
L 2700 1978 
Q 2663 2397 2488 2606 
Q 2219 2931 1791 2931 
Q 1403 2931 1139 2672 
Q 875 2413 847 1978 
z
" transform="scale(0.015625)"/>
       <path id="ArialMT-63" d="M 2588 1216 
L 3141 1144 
Q 3050 572 2676 248 
Q 2303 -75 1759 -75 
Q 1078 -75 664 370 
Q 250 816 250 1647 
Q 250 2184 428 2587 
Q 606 2991 970 3192 
Q 1334 3394 1763 3394 
Q 2303 3394 2647 3120 
Q 2991 2847 3088 2344 
L 2541 2259 
Q 2463 2594 2264 2762 
Q 2066 2931 1784 2931 
Q 1359 2931 1093 2626 
Q 828 2322 828 1663 
Q 828 994 1084 691 
Q 1341 388 1753 388 
Q 2084 388 2306 591 
Q 2528 794 2588 1216 
z
" transform="scale(0.015625)"/>
       <path id="ArialMT-6e" d="M 422 0 
L 422 3319 
L 928 3319 
L 928 2847 
Q 1294 3394 1984 3394 
Q 2284 3394 2536 3286 
Q 2788 3178 2913 3003 
Q 3038 2828 3088 2588 
Q 3119 2431 3119 2041 
L 3119 0 
L 2556 0 
L 2556 2019 
Q 2556 2363 2490 2533 
Q 2425 2703 2258 2804 
Q 2091 2906 1866 2906 
Q 1506 2906 1245 2678 
Q 984 2450 984 1813 
L 984 0 
L 422 0 
z
" transform="scale(0.015625)"/>
       <path id="ArialMT-74" d="M 1650 503 
L 1731 6 
Q 1494 -44 1306 -44 
Q 1000 -44 831 53 
Q 663 150 594 308 
Q 525 466 525 972 
L 525 2881 
L 113 2881 
L 113 3319 
L 525 3319 
L 525 4141 
L 1084 4478 
L 1084 3319 
L 1650 3319 
L 1650 2881 
L 1084 2881 
L 1084 941 
Q 1084 700 1114 631 
Q 1144 563 1211 522 
Q 1278 481 1403 481 
Q 1497 481 1650 503 
z
" transform="scale(0.015625)"/>
       <path id="ArialMT-72" d="M 416 0 
L 416 3319 
L 922 3319 
L 922 2816 
Q 1116 3169 1280 3281 
Q 1444 3394 1641 3394 
Q 1925 3394 2219 3213 
L 2025 2691 
Q 1819 2813 1613 2813 
Q 1428 2813 1281 2702 
Q 1134 2591 1072 2394 
Q 978 2094 978 1738 
L 978 0 
L 416 0 
z
" transform="scale(0.015625)"/>
       <path id="ArialMT-69" d="M 425 3934 
L 425 4581 
L 988 4581 
L 988 3934 
L 425 3934 
z
M 425 0 
L 425 3319 
L 988 3319 
L 988 0 
L 425 0 
z
" transform="scale(0.015625)"/>
       <path id="ArialMT-79" d="M 397 -1278 
L 334 -750 
Q 519 -800 656 -800 
Q 844 -800 956 -737 
Q 1069 -675 1141 -563 
Q 1194 -478 1313 -144 
Q 1328 -97 1363 -6 
L 103 3319 
L 709 3319 
L 1400 1397 
Q 1534 1031 1641 628 
Q 1738 1016 1872 1384 
L 2581 3319 
L 3144 3319 
L 1881 -56 
Q 1678 -603 1566 -809 
Q 1416 -1088 1222 -1217 
Q 1028 -1347 759 -1347 
Q 597 -1347 397 -1278 
z
" transform="scale(0.015625)"/>
      </defs>
      <use xlink:href="#ArialMT-65"/>
      <use xlink:href="#ArialMT-63" transform="translate(55.615234 0)"/>
      <use xlink:href="#ArialMT-63" transform="translate(105.615234 0)"/>
      <use xlink:href="#ArialMT-65" transform="translate(155.615234 0)"/>
      <use xlink:href="#ArialMT-6e" transform="translate(211.230469 0)"/>
      <use xlink:href="#ArialMT-74" transform="translate(266.845703 0)"/>
      <use xlink:href="#ArialMT-72" transform="translate(294.628906 0)"/>
      <use xlink:href="#ArialMT-69" transform="translate(327.929688 0)"/>
      <use xlink:href="#ArialMT-63" transform="translate(350.146484 0)"/>
      <use xlink:href="#ArialMT-69" transform="translate(400.146484 0)"/>
      <use xlink:href="#ArialMT-74" transform="translate(422.363281 0)"/>
      <use xlink:href="#ArialMT-79" transform="translate(450.146484 0)"/>
     </g>
    </g>
    <g id="line2d_17">
     <path d="M 313.02 166.35925 
L 323.02 166.35925 
L 333.02 166.35925 
" style="fill: none; stroke: #ffa500; stroke-width: 1.5; stroke-linecap: round"/>
    </g>
    <g id="text_15">
     <!-- $\mu=1, \sigma = 0.1$ -->
     <g style="fill: #262626" transform="translate(341.02 169.85925) scale(0.1 -0.1)">
      <defs>
       <path id="DejaVuSans-3d" d="M 678 2906 
L 4684 2906 
L 4684 2381 
L 678 2381 
L 678 2906 
z
M 678 1631 
L 4684 1631 
L 4684 1100 
L 678 1100 
L 678 1631 
z
" transform="scale(0.015625)"/>
       <path id="DejaVuSans-31" d="M 794 531 
L 1825 531 
L 1825 4091 
L 703 3866 
L 703 4441 
L 1819 4666 
L 2450 4666 
L 2450 531 
L 3481 531 
L 3481 0 
L 794 0 
L 794 531 
z
" transform="scale(0.015625)"/>
       <path id="DejaVuSans-30" d="M 2034 4250 
Q 1547 4250 1301 3770 
Q 1056 3291 1056 2328 
Q 1056 1369 1301 889 
Q 1547 409 2034 409 
Q 2525 409 2770 889 
Q 3016 1369 3016 2328 
Q 3016 3291 2770 3770 
Q 2525 4250 2034 4250 
z
M 2034 4750 
Q 2819 4750 3233 4129 
Q 3647 3509 3647 2328 
Q 3647 1150 3233 529 
Q 2819 -91 2034 -91 
Q 1250 -91 836 529 
Q 422 1150 422 2328 
Q 422 3509 836 4129 
Q 1250 4750 2034 4750 
z
" transform="scale(0.015625)"/>
       <path id="DejaVuSans-2e" d="M 684 794 
L 1344 794 
L 1344 0 
L 684 0 
L 684 794 
z
" transform="scale(0.015625)"/>
      </defs>
      <use xlink:href="#DejaVuSans-Oblique-3bc" transform="translate(0 0.78125)"/>
      <use xlink:href="#DejaVuSans-3d" transform="translate(83.105469 0.78125)"/>
      <use xlink:href="#DejaVuSans-31" transform="translate(186.376953 0.78125)"/>
      <use xlink:href="#DejaVuSans-2c" transform="translate(250 0.78125)"/>
      <use xlink:href="#DejaVuSans-Oblique-3c3" transform="translate(301.269531 0.78125)"/>
      <use xlink:href="#DejaVuSans-3d" transform="translate(384.130859 0.78125)"/>
      <use xlink:href="#DejaVuSans-30" transform="translate(487.402344 0.78125)"/>
      <use xlink:href="#DejaVuSans-2e" transform="translate(551.025391 0.78125)"/>
      <use xlink:href="#DejaVuSans-31" transform="translate(582.8125 0.78125)"/>
     </g>
    </g>
    <g id="line2d_18">
     <path d="M 313.02 180.75925 
L 323.02 180.75925 
L 333.02 180.75925 
" style="fill: none; stroke: #0000ff; stroke-width: 1.5; stroke-linecap: round"/>
    </g>
    <g id="text_16">
     <!-- $\mu=1, \sigma = 1$ -->
     <g style="fill: #262626" transform="translate(341.02 184.25925) scale(0.1 -0.1)">
      <use xlink:href="#DejaVuSans-Oblique-3bc" transform="translate(0 0.09375)"/>
      <use xlink:href="#DejaVuSans-3d" transform="translate(83.105469 0.09375)"/>
      <use xlink:href="#DejaVuSans-31" transform="translate(186.376953 0.09375)"/>
      <use xlink:href="#DejaVuSans-2c" transform="translate(250 0.09375)"/>
      <use xlink:href="#DejaVuSans-Oblique-3c3" transform="translate(301.269531 0.09375)"/>
      <use xlink:href="#DejaVuSans-3d" transform="translate(384.130859 0.09375)"/>
      <use xlink:href="#DejaVuSans-31" transform="translate(487.402344 0.09375)"/>
     </g>
    </g>
    <g id="line2d_19">
     <path d="M 313.02 195.35925 
L 323.02 195.35925 
L 333.02 195.35925 
" style="fill: none; stroke: #ff0000; stroke-width: 1.5; stroke-linecap: round"/>
    </g>
    <g id="text_17">
     <!-- $\mu=1, \sigma = 10$ -->
     <g style="fill: #262626" transform="translate(341.02 198.85925) scale(0.1 -0.1)">
      <use xlink:href="#DejaVuSans-Oblique-3bc" transform="translate(0 0.78125)"/>
      <use xlink:href="#DejaVuSans-3d" transform="translate(83.105469 0.78125)"/>
      <use xlink:href="#DejaVuSans-31" transform="translate(186.376953 0.78125)"/>
      <use xlink:href="#DejaVuSans-2c" transform="translate(250 0.78125)"/>
      <use xlink:href="#DejaVuSans-Oblique-3c3" transform="translate(301.269531 0.78125)"/>
      <use xlink:href="#DejaVuSans-3d" transform="translate(384.130859 0.78125)"/>
      <use xlink:href="#DejaVuSans-31" transform="translate(487.402344 0.78125)"/>
      <use xlink:href="#DejaVuSans-30" transform="translate(551.025391 0.78125)"/>
     </g>
    </g>
   </g>
  </g>
 </g>
 <defs>
  <clipPath id="p54413a8426">
   <rect x="57.6" y="41.472" width="357.12" height="266.112"/>
  </clipPath>
 </defs>
</svg>
