<?xml version="1.0" encoding="utf-8" standalone="no"?>
<!DOCTYPE svg PUBLIC "-//W3C//DTD SVG 1.1//EN"
  "http://www.w3.org/Graphics/SVG/1.1/DTD/svg11.dtd">
<svg xmlns:xlink="http://www.w3.org/1999/xlink" width="921.6pt" height="345.6pt" viewBox="0 0 921.6 345.6" xmlns="http://www.w3.org/2000/svg" version="1.1">
 <metadata>
  <rdf:RDF xmlns:dc="http://purl.org/dc/elements/1.1/" xmlns:cc="http://creativecommons.org/ns#" xmlns:rdf="http://www.w3.org/1999/02/22-rdf-syntax-ns#">
   <cc:Work>
    <dc:type rdf:resource="http://purl.org/dc/dcmitype/StillImage"/>
    <dc:date>2025-04-12T15:15:45.032826</dc:date>
    <dc:format>image/svg+xml</dc:format>
    <dc:creator>
     <cc:Agent>
      <dc:title>Matplotlib v3.10.1, https://matplotlib.org/</dc:title>
     </cc:Agent>
    </dc:creator>
   </cc:Work>
  </rdf:RDF>
 </metadata>
 <defs>
  <style type="text/css">*{stroke-linejoin: round; stroke-linecap: butt}</style>
 </defs>
 <g id="figure_1">
  <g id="patch_1">
   <path d="M 0 345.6 
L 921.6 345.6 
L 921.6 0 
L 0 0 
z
" style="fill: #ffffff"/>
  </g>
  <g id="axes_1">
   <g id="patch_2">
    <path d="M 115.2 307.584 
L 439.854545 307.584 
L 439.854545 41.472 
L 115.2 41.472 
z
" style="fill: #eaeaf2"/>
   </g>
   <g id="matplotlib.axis_1">
    <g id="xtick_1">
     <g id="line2d_1">
      <path d="M 159.471074 307.584 
L 159.471074 41.472 
" clip-path="url(#pb5123f10b3)" style="fill: none; stroke: #ffffff; stroke-width: 0.8; stroke-linecap: round"/>
     </g>
     <g id="text_1">
      <!-- −2 -->
      <g style="fill: #262626" transform="translate(153.770293 321.741812) scale(0.1 -0.1)">
       <defs>
        <path id="ArialMT-2212" d="M 3381 1997 
L 356 1997 
L 356 2522 
L 3381 2522 
L 3381 1997 
z
" transform="scale(0.015625)"/>
        <path id="ArialMT-32" d="M 3222 541 
L 3222 0 
L 194 0 
Q 188 203 259 391 
Q 375 700 629 1000 
Q 884 1300 1366 1694 
Q 2113 2306 2375 2664 
Q 2638 3022 2638 3341 
Q 2638 3675 2398 3904 
Q 2159 4134 1775 4134 
Q 1369 4134 1125 3890 
Q 881 3647 878 3216 
L 300 3275 
Q 359 3922 746 4261 
Q 1134 4600 1788 4600 
Q 2447 4600 2831 4234 
Q 3216 3869 3216 3328 
Q 3216 3053 3103 2787 
Q 2991 2522 2730 2228 
Q 2469 1934 1863 1422 
Q 1356 997 1212 845 
Q 1069 694 975 541 
L 3222 541 
z
" transform="scale(0.015625)"/>
       </defs>
       <use xlink:href="#ArialMT-2212"/>
       <use xlink:href="#ArialMT-32" transform="translate(58.398438 0)"/>
      </g>
     </g>
    </g>
    <g id="xtick_2">
     <g id="line2d_2">
      <path d="M 218.499174 307.584 
L 218.499174 41.472 
" clip-path="url(#pb5123f10b3)" style="fill: none; stroke: #ffffff; stroke-width: 0.8; stroke-linecap: round"/>
     </g>
     <g id="text_2">
      <!-- −1 -->
      <g style="fill: #262626" transform="translate(212.798392 321.741812) scale(0.1 -0.1)">
       <defs>
        <path id="ArialMT-31" d="M 2384 0 
L 1822 0 
L 1822 3584 
Q 1619 3391 1289 3197 
Q 959 3003 697 2906 
L 697 3450 
Q 1169 3672 1522 3987 
Q 1875 4303 2022 4600 
L 2384 4600 
L 2384 0 
z
" transform="scale(0.015625)"/>
       </defs>
       <use xlink:href="#ArialMT-2212"/>
       <use xlink:href="#ArialMT-31" transform="translate(58.398438 0)"/>
      </g>
     </g>
    </g>
    <g id="xtick_3">
     <g id="line2d_3">
      <path d="M 277.527273 307.584 
L 277.527273 41.472 
" clip-path="url(#pb5123f10b3)" style="fill: none; stroke: #ffffff; stroke-width: 0.8; stroke-linecap: round"/>
     </g>
     <g id="text_3">
      <!-- 0 -->
      <g style="fill: #262626" transform="translate(274.746804 321.741812) scale(0.1 -0.1)">
       <defs>
        <path id="ArialMT-30" d="M 266 2259 
Q 266 3072 433 3567 
Q 600 4063 929 4331 
Q 1259 4600 1759 4600 
Q 2128 4600 2406 4451 
Q 2684 4303 2865 4023 
Q 3047 3744 3150 3342 
Q 3253 2941 3253 2259 
Q 3253 1453 3087 958 
Q 2922 463 2592 192 
Q 2263 -78 1759 -78 
Q 1097 -78 719 397 
Q 266 969 266 2259 
z
M 844 2259 
Q 844 1131 1108 757 
Q 1372 384 1759 384 
Q 2147 384 2411 759 
Q 2675 1134 2675 2259 
Q 2675 3391 2411 3762 
Q 2147 4134 1753 4134 
Q 1366 4134 1134 3806 
Q 844 3388 844 2259 
z
" transform="scale(0.015625)"/>
       </defs>
       <use xlink:href="#ArialMT-30"/>
      </g>
     </g>
    </g>
    <g id="xtick_4">
     <g id="line2d_4">
      <path d="M 336.555372 307.584 
L 336.555372 41.472 
" clip-path="url(#pb5123f10b3)" style="fill: none; stroke: #ffffff; stroke-width: 0.8; stroke-linecap: round"/>
     </g>
     <g id="text_4">
      <!-- 1 -->
      <g style="fill: #262626" transform="translate(333.774903 321.741812) scale(0.1 -0.1)">
       <use xlink:href="#ArialMT-31"/>
      </g>
     </g>
    </g>
    <g id="xtick_5">
     <g id="line2d_5">
      <path d="M 395.583471 307.584 
L 395.583471 41.472 
" clip-path="url(#pb5123f10b3)" style="fill: none; stroke: #ffffff; stroke-width: 0.8; stroke-linecap: round"/>
     </g>
     <g id="text_5">
      <!-- 2 -->
      <g style="fill: #262626" transform="translate(392.803002 321.741812) scale(0.1 -0.1)">
       <use xlink:href="#ArialMT-32"/>
      </g>
     </g>
    </g>
    <g id="text_6">
     <!-- x -->
     <g style="fill: #262626" transform="translate(275.027273 334.887125) scale(0.1 -0.1)">
      <defs>
       <path id="ArialMT-78" d="M 47 0 
L 1259 1725 
L 138 3319 
L 841 3319 
L 1350 2541 
Q 1494 2319 1581 2169 
Q 1719 2375 1834 2534 
L 2394 3319 
L 3066 3319 
L 1919 1756 
L 3153 0 
L 2463 0 
L 1781 1031 
L 1600 1309 
L 728 0 
L 47 0 
z
" transform="scale(0.015625)"/>
      </defs>
      <use xlink:href="#ArialMT-78"/>
     </g>
    </g>
   </g>
   <g id="matplotlib.axis_2">
    <g id="ytick_1">
     <g id="line2d_6">
      <path d="M 115.2 302.832494 
L 439.854545 302.832494 
" clip-path="url(#pb5123f10b3)" style="fill: none; stroke: #ffffff; stroke-width: 0.8; stroke-linecap: round"/>
     </g>
     <g id="text_7">
      <!-- −4 -->
      <g style="fill: #262626" transform="translate(96.798438 306.4114) scale(0.1 -0.1)">
       <defs>
        <path id="ArialMT-34" d="M 2069 0 
L 2069 1097 
L 81 1097 
L 81 1613 
L 2172 4581 
L 2631 4581 
L 2631 1613 
L 3250 1613 
L 3250 1097 
L 2631 1097 
L 2631 0 
L 2069 0 
z
M 2069 1613 
L 2069 3678 
L 634 1613 
L 2069 1613 
z
" transform="scale(0.015625)"/>
       </defs>
       <use xlink:href="#ArialMT-2212"/>
       <use xlink:href="#ArialMT-34" transform="translate(58.398438 0)"/>
      </g>
     </g>
    </g>
    <g id="ytick_2">
     <g id="line2d_7">
      <path d="M 115.2 247.480808 
L 439.854545 247.480808 
" clip-path="url(#pb5123f10b3)" style="fill: none; stroke: #ffffff; stroke-width: 0.8; stroke-linecap: round"/>
     </g>
     <g id="text_8">
      <!-- −3 -->
      <g style="fill: #262626" transform="translate(96.798438 251.059715) scale(0.1 -0.1)">
       <defs>
        <path id="ArialMT-33" d="M 269 1209 
L 831 1284 
Q 928 806 1161 595 
Q 1394 384 1728 384 
Q 2125 384 2398 659 
Q 2672 934 2672 1341 
Q 2672 1728 2419 1979 
Q 2166 2231 1775 2231 
Q 1616 2231 1378 2169 
L 1441 2663 
Q 1497 2656 1531 2656 
Q 1891 2656 2178 2843 
Q 2466 3031 2466 3422 
Q 2466 3731 2256 3934 
Q 2047 4138 1716 4138 
Q 1388 4138 1169 3931 
Q 950 3725 888 3313 
L 325 3413 
Q 428 3978 793 4289 
Q 1159 4600 1703 4600 
Q 2078 4600 2393 4439 
Q 2709 4278 2876 4000 
Q 3044 3722 3044 3409 
Q 3044 3113 2884 2869 
Q 2725 2625 2413 2481 
Q 2819 2388 3044 2092 
Q 3269 1797 3269 1353 
Q 3269 753 2831 336 
Q 2394 -81 1725 -81 
Q 1122 -81 723 278 
Q 325 638 269 1209 
z
" transform="scale(0.015625)"/>
       </defs>
       <use xlink:href="#ArialMT-2212"/>
       <use xlink:href="#ArialMT-33" transform="translate(58.398438 0)"/>
      </g>
     </g>
    </g>
    <g id="ytick_3">
     <g id="line2d_8">
      <path d="M 115.2 192.129123 
L 439.854545 192.129123 
" clip-path="url(#pb5123f10b3)" style="fill: none; stroke: #ffffff; stroke-width: 0.8; stroke-linecap: round"/>
     </g>
     <g id="text_9">
      <!-- −2 -->
      <g style="fill: #262626" transform="translate(96.798438 195.708029) scale(0.1 -0.1)">
       <use xlink:href="#ArialMT-2212"/>
       <use xlink:href="#ArialMT-32" transform="translate(58.398438 0)"/>
      </g>
     </g>
    </g>
    <g id="ytick_4">
     <g id="line2d_9">
      <path d="M 115.2 136.777437 
L 439.854545 136.777437 
" clip-path="url(#pb5123f10b3)" style="fill: none; stroke: #ffffff; stroke-width: 0.8; stroke-linecap: round"/>
     </g>
     <g id="text_10">
      <!-- −1 -->
      <g style="fill: #262626" transform="translate(96.798438 140.356343) scale(0.1 -0.1)">
       <use xlink:href="#ArialMT-2212"/>
       <use xlink:href="#ArialMT-31" transform="translate(58.398438 0)"/>
      </g>
     </g>
    </g>
    <g id="ytick_5">
     <g id="line2d_10">
      <path d="M 115.2 81.425752 
L 439.854545 81.425752 
" clip-path="url(#pb5123f10b3)" style="fill: none; stroke: #ffffff; stroke-width: 0.8; stroke-linecap: round"/>
     </g>
     <g id="text_11">
      <!-- 0 -->
      <g style="fill: #262626" transform="translate(102.639063 85.004658) scale(0.1 -0.1)">
       <use xlink:href="#ArialMT-30"/>
      </g>
     </g>
    </g>
    <g id="text_12">
     <!-- f(x) -->
     <g style="fill: #262626" transform="translate(90.69375 181.74675) rotate(-90) scale(0.1 -0.1)">
      <defs>
       <path id="ArialMT-66" d="M 556 0 
L 556 2881 
L 59 2881 
L 59 3319 
L 556 3319 
L 556 3672 
Q 556 4006 616 4169 
Q 697 4388 901 4523 
Q 1106 4659 1475 4659 
Q 1713 4659 2000 4603 
L 1916 4113 
Q 1741 4144 1584 4144 
Q 1328 4144 1222 4034 
Q 1116 3925 1116 3625 
L 1116 3319 
L 1763 3319 
L 1763 2881 
L 1116 2881 
L 1116 0 
L 556 0 
z
" transform="scale(0.015625)"/>
       <path id="ArialMT-28" d="M 1497 -1347 
Q 1031 -759 709 28 
Q 388 816 388 1659 
Q 388 2403 628 3084 
Q 909 3875 1497 4659 
L 1900 4659 
Q 1522 4009 1400 3731 
Q 1209 3300 1100 2831 
Q 966 2247 966 1656 
Q 966 153 1900 -1347 
L 1497 -1347 
z
" transform="scale(0.015625)"/>
       <path id="ArialMT-29" d="M 791 -1347 
L 388 -1347 
Q 1322 153 1322 1656 
Q 1322 2244 1188 2822 
Q 1081 3291 891 3722 
Q 769 4003 388 4659 
L 791 4659 
Q 1378 3875 1659 3084 
Q 1900 2403 1900 1659 
Q 1900 816 1576 28 
Q 1253 -759 791 -1347 
z
" transform="scale(0.015625)"/>
      </defs>
      <use xlink:href="#ArialMT-66"/>
      <use xlink:href="#ArialMT-28" transform="translate(27.783203 0)"/>
      <use xlink:href="#ArialMT-78" transform="translate(61.083984 0)"/>
      <use xlink:href="#ArialMT-29" transform="translate(111.083984 0)"/>
     </g>
    </g>
   </g>
   <g id="line2d_11">
    <path d="M 129.957025 89.831917 
L 132.938248 89.662097 
L 135.919458 89.492274 
L 138.900668 89.322454 
L 141.881891 89.152631 
L 144.863115 88.982809 
L 147.844325 88.812989 
L 150.825548 88.643168 
L 153.806758 88.473346 
L 156.787982 88.303525 
L 159.769191 88.133703 
L 162.750415 87.963881 
L 165.731631 87.79406 
L 168.712848 87.624238 
L 171.694072 87.454416 
L 174.675281 87.284595 
L 177.656498 87.114775 
L 180.637715 86.944953 
L 183.618931 86.77513 
L 186.600148 86.605309 
L 189.581357 86.435488 
L 192.562588 86.265666 
L 195.543798 86.095844 
L 198.525014 85.926023 
L 201.506238 85.756202 
L 204.487448 85.58638 
L 207.468671 85.416558 
L 210.449881 85.246737 
L 213.431105 85.076915 
L 216.412321 84.907093 
L 219.393538 84.737272 
L 222.374758 84.56745 
L 225.355968 84.397629 
L 228.337195 84.227807 
L 231.318404 84.057986 
L 234.299621 83.888164 
L 237.280841 83.718343 
L 240.262051 83.548521 
L 243.243278 83.378699 
L 246.224488 83.208878 
L 249.205706 83.039057 
L 252.186928 82.869235 
L 255.168143 82.699413 
L 258.149365 82.529592 
L 261.130571 82.359771 
L 264.111801 82.189948 
L 267.093007 82.020127 
L 270.074229 81.850306 
L 273.055451 81.680484 
L 276.036657 81.510663 
L 279.017879 81.458807 
L 281.999094 81.524916 
L 284.980316 81.591026 
L 287.961531 81.657136 
L 290.942753 81.723245 
L 293.923968 81.789355 
L 296.905181 81.855465 
L 299.886396 81.921574 
L 302.867618 81.987684 
L 305.848832 82.053794 
L 308.830054 82.119903 
L 311.811268 82.186013 
L 314.792484 82.252123 
L 317.773697 82.318232 
L 320.754917 82.384342 
L 323.736141 82.450452 
L 326.717358 82.516561 
L 329.698567 82.582671 
L 332.679784 82.64878 
L 335.661008 82.714891 
L 338.642217 82.781 
L 341.623441 82.84711 
L 344.604658 82.913219 
L 347.585874 82.979329 
L 350.567084 83.045439 
L 353.548307 83.111549 
L 356.529524 83.177658 
L 359.510741 83.243768 
L 362.491957 83.309878 
L 365.473174 83.375987 
L 368.454384 83.442097 
L 371.435607 83.508207 
L 374.416831 83.574315 
L 377.398055 83.640426 
L 380.379264 83.706536 
L 383.360474 83.772645 
L 386.341697 83.838754 
L 389.322921 83.904865 
L 392.304124 83.970974 
L 395.285347 84.037084 
L 398.266564 84.103194 
L 401.247788 84.169303 
L 404.228983 84.235412 
L 407.210207 84.301522 
L 410.19143 84.367632 
L 413.172654 84.433743 
L 416.153878 84.499852 
L 419.135073 84.565962 
L 422.116297 84.632072 
L 425.097521 84.698182 
" clip-path="url(#pb5123f10b3)" style="fill: none; stroke: #4169e1; stroke-width: 1.5; stroke-linecap: round"/>
   </g>
   <g id="line2d_12">
    <path d="M 129.957025 250.60493 
L 132.938248 248.991084 
L 135.919458 247.376104 
L 138.900668 245.759514 
L 141.881891 244.142924 
L 144.863115 242.52636 
L 147.844325 240.909796 
L 150.825548 239.29318 
L 153.806758 237.676616 
L 156.787982 236.060026 
L 159.769191 234.391968 
L 162.750415 232.698809 
L 165.731631 231.005677 
L 168.712848 229.312571 
L 171.694072 227.619413 
L 174.675281 225.92409 
L 177.656498 224.116911 
L 180.637715 222.288247 
L 183.618931 220.368815 
L 186.600148 218.347688 
L 189.581357 216.243711 
L 192.562588 214.108167 
L 195.543798 211.953144 
L 198.525014 209.757264 
L 201.506238 207.561411 
L 204.487448 205.365531 
L 207.468671 203.169664 
L 210.449881 200.973797 
L 213.431105 198.765275 
L 216.412321 196.520962 
L 219.393538 194.218636 
L 222.374758 191.860058 
L 225.355968 189.43809 
L 228.337195 186.979889 
L 231.318404 184.521714 
L 234.299621 182.052012 
L 237.280841 179.560707 
L 240.262051 177.023365 
L 243.243278 174.356653 
L 246.224488 171.689988 
L 249.205706 169.023297 
L 252.186928 166.356605 
L 255.168143 163.689907 
L 258.149365 161.023222 
L 261.130571 158.356544 
L 264.111801 155.689852 
L 267.093007 153.023174 
L 270.074229 150.356476 
L 273.055451 147.689784 
L 276.036657 145.023106 
L 279.017879 142.356408 
L 281.999094 139.689723 
L 284.980316 137.023038 
L 287.961531 134.356349 
L 290.942753 131.689658 
L 293.923968 129.022969 
L 296.905181 126.356281 
L 299.886396 123.6896 
L 302.867618 121.022908 
L 305.848832 118.356223 
L 308.830054 115.689528 
L 311.811268 113.022843 
L 314.792484 110.356155 
L 317.773697 107.689473 
L 320.754917 105.022782 
L 323.736141 102.35609 
L 326.717358 99.811143 
L 329.698567 97.298644 
L 332.679784 94.786144 
L 335.661008 92.273637 
L 338.642217 89.761142 
L 341.623441 87.248632 
L 344.604658 84.791498 
L 347.585874 82.338388 
L 350.567084 79.946429 
L 353.548307 77.59959 
L 356.529524 75.445879 
L 359.510741 73.840204 
L 362.491957 72.678573 
L 365.473174 71.552607 
L 368.454384 70.426645 
L 371.435607 69.471677 
L 374.416831 68.517695 
L 377.398055 67.563726 
L 380.379264 66.624175 
L 383.360474 65.823897 
L 386.341697 65.023619 
L 389.322921 64.223334 
L 392.304124 63.423056 
L 395.285347 62.622769 
L 398.266564 61.822487 
L 401.247788 61.040913 
L 404.228983 60.326563 
L 407.210207 59.616109 
L 410.19143 58.913247 
L 413.172654 58.210388 
L 416.153878 57.507526 
L 419.135073 56.804674 
L 422.116297 56.101809 
L 425.097521 55.43181 
" clip-path="url(#pb5123f10b3)" style="fill: none; stroke: #0000ff; stroke-width: 1.5; stroke-linecap: round"/>
   </g>
   <g id="line2d_13">
    <path d="M 129.957025 294.005266 
L 132.938248 291.562433 
L 135.919458 289.067419 
L 138.900668 286.531469 
L 141.881891 283.995492 
L 144.863115 281.369262 
L 147.844325 278.62306 
L 150.825548 275.876817 
L 153.806758 273.130628 
L 156.787982 270.384386 
L 159.769191 267.63817 
L 162.750415 264.891954 
L 165.731631 262.145738 
L 168.712848 259.399509 
L 171.694072 256.653293 
L 174.675281 253.907077 
L 177.656498 251.160874 
L 180.637715 248.414632 
L 183.618931 245.668416 
L 186.600148 242.9222 
L 189.581357 240.175984 
L 192.562588 237.429768 
L 195.543798 234.683539 
L 198.525014 231.93731 
L 201.506238 229.191094 
L 204.487448 226.444878 
L 207.468671 223.698662 
L 210.449881 220.952447 
L 213.431105 218.206217 
L 216.412321 215.460002 
L 219.393538 212.713772 
L 222.374758 209.967557 
L 225.355968 207.221354 
L 228.337195 204.475125 
L 231.318404 201.728909 
L 234.299621 198.982693 
L 237.280841 196.236464 
L 240.262051 193.490248 
L 243.243278 190.744032 
L 246.224488 187.997816 
L 249.205706 185.251587 
L 252.186928 182.505358 
L 255.168143 179.759142 
L 258.149365 177.012926 
L 261.130571 174.266723 
L 264.111801 171.520481 
L 267.093007 168.774278 
L 270.074229 166.028049 
L 273.055451 163.28182 
L 276.036657 160.535618 
L 279.017879 157.789388 
L 281.999094 155.043173 
L 284.980316 152.296943 
L 287.961531 149.550727 
L 290.942753 146.804498 
L 293.923968 144.058296 
L 296.905181 141.31208 
L 299.886396 138.565851 
L 302.867618 135.819631 
L 305.848832 133.073683 
L 308.830054 130.327909 
L 311.811268 127.582142 
L 314.792484 124.836378 
L 317.773697 122.090614 
L 320.754917 119.344843 
L 323.736141 116.599066 
L 326.717358 113.853302 
L 329.698567 111.107542 
L 332.679784 108.361776 
L 335.661008 105.615999 
L 338.642217 102.870237 
L 341.623441 100.124463 
L 344.604658 97.378698 
L 347.585874 94.632932 
L 350.567084 91.887168 
L 353.548307 89.351233 
L 356.529524 86.865399 
L 359.510741 84.379571 
L 362.491957 81.893741 
L 365.473174 79.454723 
L 368.454384 77.216494 
L 371.435607 75.231599 
L 374.416831 73.439577 
L 377.398055 71.796606 
L 380.379264 70.221774 
L 383.360474 68.646942 
L 386.341697 67.259875 
L 389.322921 65.899627 
L 392.304124 64.62866 
L 395.285347 63.57392 
L 398.266564 62.573326 
L 401.247788 61.572727 
L 404.228983 60.57215 
L 407.210207 59.571556 
L 410.19143 58.570963 
L 413.172654 57.57037 
L 416.153878 56.569767 
L 419.135073 55.56919 
L 422.116297 54.56859 
L 425.097521 53.568 
" clip-path="url(#pb5123f10b3)" style="fill: none; stroke: #0000cd; stroke-width: 1.5; stroke-linecap: round"/>
   </g>
   <g id="line2d_14">
    <path d="M 129.957025 295.488 
L 132.938248 292.692533 
L 135.919458 289.897106 
L 138.900668 287.101653 
L 141.881891 284.306199 
L 144.863115 281.510746 
L 147.844325 278.715293 
L 150.825548 275.919866 
L 153.806758 273.124399 
L 156.787982 270.328972 
L 159.769191 267.533519 
L 162.750415 264.738091 
L 165.731631 261.942625 
L 168.712848 259.147171 
L 171.694072 256.351718 
L 174.675281 253.556278 
L 177.656498 250.760824 
L 180.637715 247.965358 
L 183.618931 245.169944 
L 186.600148 242.374517 
L 189.581357 239.579037 
L 192.562588 236.783597 
L 195.543798 233.988157 
L 198.525014 231.192703 
L 201.506238 228.39725 
L 204.487448 225.601796 
L 207.468671 222.806343 
L 210.449881 220.010929 
L 213.431105 217.215462 
L 216.412321 214.420009 
L 219.393538 211.624569 
L 222.374758 208.829102 
L 225.355968 206.033688 
L 228.337195 203.238208 
L 231.318404 200.442768 
L 234.299621 197.647328 
L 237.280841 194.851888 
L 240.262051 192.056448 
L 243.243278 189.260981 
L 246.224488 186.465541 
L 249.205706 183.670094 
L 252.186928 180.87464 
L 255.168143 178.079207 
L 258.149365 175.283753 
L 261.130571 172.488307 
L 264.111801 169.692847 
L 267.093007 166.89742 
L 270.074229 164.101966 
L 273.055451 161.306513 
L 276.036657 158.511079 
L 279.017879 155.715626 
L 281.999094 152.920179 
L 284.980316 150.124719 
L 287.961531 147.329279 
L 290.942753 144.533819 
L 293.923968 141.738378 
L 296.905181 138.942931 
L 299.886396 136.147488 
L 302.867618 133.352041 
L 305.848832 130.556594 
L 308.830054 127.761147 
L 311.811268 124.965701 
L 314.792484 122.170247 
L 317.773697 119.374807 
L 320.754917 116.57936 
L 323.736141 113.783903 
L 326.717358 110.988457 
L 329.698567 108.193016 
L 332.679784 105.39757 
L 335.661008 102.602116 
L 338.642217 99.806676 
L 341.623441 97.011224 
L 344.604658 95.491332 
L 347.585874 94.881102 
L 350.567084 94.270877 
L 353.548307 93.660649 
L 356.529524 93.050419 
L 359.510741 92.440188 
L 362.491957 91.82996 
L 365.473174 91.252212 
L 368.454384 90.753041 
L 371.435607 90.27604 
L 374.416831 89.799042 
L 377.398055 89.322039 
L 380.379264 88.90056 
L 383.360474 88.502107 
L 386.341697 88.103658 
L 389.322921 87.705205 
L 392.304124 87.346949 
L 395.285347 87.016425 
L 398.266564 86.685904 
L 401.247788 86.355382 
L 404.228983 86.02487 
L 407.210207 85.694348 
L 410.19143 85.363826 
L 413.172654 85.03331 
L 416.153878 84.702886 
L 419.135073 84.372463 
L 422.116297 84.053412 
L 425.097521 83.786237 
" clip-path="url(#pb5123f10b3)" style="fill: none; stroke: #191970; stroke-width: 1.5; stroke-linecap: round"/>
   </g>
   <g id="patch_3">
    <path d="M 115.2 307.584 
L 115.2 41.472 
" style="fill: none; stroke: #ffffff; stroke-width: 0.8; stroke-linejoin: miter; stroke-linecap: square"/>
   </g>
   <g id="patch_4">
    <path d="M 439.854545 307.584 
L 439.854545 41.472 
" style="fill: none; stroke: #ffffff; stroke-width: 0.8; stroke-linejoin: miter; stroke-linecap: square"/>
   </g>
   <g id="patch_5">
    <path d="M 115.2 307.584 
L 439.854545 307.584 
" style="fill: none; stroke: #ffffff; stroke-width: 0.8; stroke-linejoin: miter; stroke-linecap: square"/>
   </g>
   <g id="patch_6">
    <path d="M 115.2 41.472 
L 439.854545 41.472 
" style="fill: none; stroke: #ffffff; stroke-width: 0.8; stroke-linejoin: miter; stroke-linecap: square"/>
   </g>
   <g id="legend_1">
    <g id="patch_7">
     <path d="M 354.431108 302.584 
L 432.854545 302.584 
Q 434.854545 302.584 434.854545 300.584 
L 434.854545 244.913687 
Q 434.854545 242.913687 432.854545 242.913687 
L 354.431108 242.913687 
Q 352.431108 242.913687 352.431108 244.913687 
L 352.431108 300.584 
Q 352.431108 302.584 354.431108 302.584 
z
" style="fill: #eaeaf2; opacity: 0.8; stroke: #cccccc; stroke-linejoin: miter"/>
    </g>
    <g id="line2d_15">
     <path d="M 356.431108 250.601187 
L 366.431108 250.601187 
L 376.431108 250.601187 
" style="fill: none; stroke: #4169e1; stroke-width: 1.5; stroke-linecap: round"/>
    </g>
    <g id="text_13">
     <!-- steps=0 -->
     <g style="fill: #262626" transform="translate(384.431108 254.101187) scale(0.1 -0.1)">
      <defs>
       <path id="ArialMT-73" d="M 197 991 
L 753 1078 
Q 800 744 1014 566 
Q 1228 388 1613 388 
Q 2000 388 2187 545 
Q 2375 703 2375 916 
Q 2375 1106 2209 1216 
Q 2094 1291 1634 1406 
Q 1016 1563 777 1677 
Q 538 1791 414 1992 
Q 291 2194 291 2438 
Q 291 2659 392 2848 
Q 494 3038 669 3163 
Q 800 3259 1026 3326 
Q 1253 3394 1513 3394 
Q 1903 3394 2198 3281 
Q 2494 3169 2634 2976 
Q 2775 2784 2828 2463 
L 2278 2388 
Q 2241 2644 2061 2787 
Q 1881 2931 1553 2931 
Q 1166 2931 1000 2803 
Q 834 2675 834 2503 
Q 834 2394 903 2306 
Q 972 2216 1119 2156 
Q 1203 2125 1616 2013 
Q 2213 1853 2448 1751 
Q 2684 1650 2818 1456 
Q 2953 1263 2953 975 
Q 2953 694 2789 445 
Q 2625 197 2315 61 
Q 2006 -75 1616 -75 
Q 969 -75 630 194 
Q 291 463 197 991 
z
" transform="scale(0.015625)"/>
       <path id="ArialMT-74" d="M 1650 503 
L 1731 6 
Q 1494 -44 1306 -44 
Q 1000 -44 831 53 
Q 663 150 594 308 
Q 525 466 525 972 
L 525 2881 
L 113 2881 
L 113 3319 
L 525 3319 
L 525 4141 
L 1084 4478 
L 1084 3319 
L 1650 3319 
L 1650 2881 
L 1084 2881 
L 1084 941 
Q 1084 700 1114 631 
Q 1144 563 1211 522 
Q 1278 481 1403 481 
Q 1497 481 1650 503 
z
" transform="scale(0.015625)"/>
       <path id="ArialMT-65" d="M 2694 1069 
L 3275 997 
Q 3138 488 2766 206 
Q 2394 -75 1816 -75 
Q 1088 -75 661 373 
Q 234 822 234 1631 
Q 234 2469 665 2931 
Q 1097 3394 1784 3394 
Q 2450 3394 2872 2941 
Q 3294 2488 3294 1666 
Q 3294 1616 3291 1516 
L 816 1516 
Q 847 969 1125 678 
Q 1403 388 1819 388 
Q 2128 388 2347 550 
Q 2566 713 2694 1069 
z
M 847 1978 
L 2700 1978 
Q 2663 2397 2488 2606 
Q 2219 2931 1791 2931 
Q 1403 2931 1139 2672 
Q 875 2413 847 1978 
z
" transform="scale(0.015625)"/>
       <path id="ArialMT-70" d="M 422 -1272 
L 422 3319 
L 934 3319 
L 934 2888 
Q 1116 3141 1344 3267 
Q 1572 3394 1897 3394 
Q 2322 3394 2647 3175 
Q 2972 2956 3137 2557 
Q 3303 2159 3303 1684 
Q 3303 1175 3120 767 
Q 2938 359 2589 142 
Q 2241 -75 1856 -75 
Q 1575 -75 1351 44 
Q 1128 163 984 344 
L 984 -1272 
L 422 -1272 
z
M 931 1641 
Q 931 1000 1190 694 
Q 1450 388 1819 388 
Q 2194 388 2461 705 
Q 2728 1022 2728 1688 
Q 2728 2322 2467 2637 
Q 2206 2953 1844 2953 
Q 1484 2953 1207 2617 
Q 931 2281 931 1641 
z
" transform="scale(0.015625)"/>
       <path id="ArialMT-3d" d="M 3381 2694 
L 356 2694 
L 356 3219 
L 3381 3219 
L 3381 2694 
z
M 3381 1303 
L 356 1303 
L 356 1828 
L 3381 1828 
L 3381 1303 
z
" transform="scale(0.015625)"/>
      </defs>
      <use xlink:href="#ArialMT-73"/>
      <use xlink:href="#ArialMT-74" transform="translate(50 0)"/>
      <use xlink:href="#ArialMT-65" transform="translate(77.783203 0)"/>
      <use xlink:href="#ArialMT-70" transform="translate(133.398438 0)"/>
      <use xlink:href="#ArialMT-73" transform="translate(189.013672 0)"/>
      <use xlink:href="#ArialMT-3d" transform="translate(239.013672 0)"/>
      <use xlink:href="#ArialMT-30" transform="translate(297.412109 0)"/>
     </g>
    </g>
    <g id="line2d_16">
     <path d="M 356.431108 264.7465 
L 366.431108 264.7465 
L 376.431108 264.7465 
" style="fill: none; stroke: #0000ff; stroke-width: 1.5; stroke-linecap: round"/>
    </g>
    <g id="text_14">
     <!-- steps=5 -->
     <g style="fill: #262626" transform="translate(384.431108 268.2465) scale(0.1 -0.1)">
      <defs>
       <path id="ArialMT-35" d="M 266 1200 
L 856 1250 
Q 922 819 1161 601 
Q 1400 384 1738 384 
Q 2144 384 2425 690 
Q 2706 997 2706 1503 
Q 2706 1984 2436 2262 
Q 2166 2541 1728 2541 
Q 1456 2541 1237 2417 
Q 1019 2294 894 2097 
L 366 2166 
L 809 4519 
L 3088 4519 
L 3088 3981 
L 1259 3981 
L 1013 2750 
Q 1425 3038 1878 3038 
Q 2478 3038 2890 2622 
Q 3303 2206 3303 1553 
Q 3303 931 2941 478 
Q 2500 -78 1738 -78 
Q 1113 -78 717 272 
Q 322 622 266 1200 
z
" transform="scale(0.015625)"/>
      </defs>
      <use xlink:href="#ArialMT-73"/>
      <use xlink:href="#ArialMT-74" transform="translate(50 0)"/>
      <use xlink:href="#ArialMT-65" transform="translate(77.783203 0)"/>
      <use xlink:href="#ArialMT-70" transform="translate(133.398438 0)"/>
      <use xlink:href="#ArialMT-73" transform="translate(189.013672 0)"/>
      <use xlink:href="#ArialMT-3d" transform="translate(239.013672 0)"/>
      <use xlink:href="#ArialMT-35" transform="translate(297.412109 0)"/>
     </g>
    </g>
    <g id="line2d_17">
     <path d="M 356.431108 278.9215 
L 366.431108 278.9215 
L 376.431108 278.9215 
" style="fill: none; stroke: #0000cd; stroke-width: 1.5; stroke-linecap: round"/>
    </g>
    <g id="text_15">
     <!-- steps=10 -->
     <g style="fill: #262626" transform="translate(384.431108 282.4215) scale(0.1 -0.1)">
      <use xlink:href="#ArialMT-73"/>
      <use xlink:href="#ArialMT-74" transform="translate(50 0)"/>
      <use xlink:href="#ArialMT-65" transform="translate(77.783203 0)"/>
      <use xlink:href="#ArialMT-70" transform="translate(133.398438 0)"/>
      <use xlink:href="#ArialMT-73" transform="translate(189.013672 0)"/>
      <use xlink:href="#ArialMT-3d" transform="translate(239.013672 0)"/>
      <use xlink:href="#ArialMT-31" transform="translate(297.412109 0)"/>
      <use xlink:href="#ArialMT-30" transform="translate(353.027344 0)"/>
     </g>
    </g>
    <g id="line2d_18">
     <path d="M 356.431108 293.0965 
L 366.431108 293.0965 
L 376.431108 293.0965 
" style="fill: none; stroke: #191970; stroke-width: 1.5; stroke-linecap: round"/>
    </g>
    <g id="text_16">
     <!-- steps=100 -->
     <g style="fill: #262626" transform="translate(384.431108 296.5965) scale(0.1 -0.1)">
      <use xlink:href="#ArialMT-73"/>
      <use xlink:href="#ArialMT-74" transform="translate(50 0)"/>
      <use xlink:href="#ArialMT-65" transform="translate(77.783203 0)"/>
      <use xlink:href="#ArialMT-70" transform="translate(133.398438 0)"/>
      <use xlink:href="#ArialMT-73" transform="translate(189.013672 0)"/>
      <use xlink:href="#ArialMT-3d" transform="translate(239.013672 0)"/>
      <use xlink:href="#ArialMT-31" transform="translate(297.412109 0)"/>
      <use xlink:href="#ArialMT-30" transform="translate(353.027344 0)"/>
      <use xlink:href="#ArialMT-30" transform="translate(408.642578 0)"/>
     </g>
    </g>
   </g>
  </g>
  <g id="axes_2">
   <g id="patch_8">
    <path d="M 504.785455 307.584 
L 829.44 307.584 
L 829.44 41.472 
L 504.785455 41.472 
z
" style="fill: #eaeaf2"/>
   </g>
   <g id="matplotlib.axis_3">
    <g id="xtick_6">
     <g id="line2d_19">
      <path d="M 549.056529 307.584 
L 549.056529 41.472 
" clip-path="url(#p2a932db3bd)" style="fill: none; stroke: #ffffff; stroke-width: 0.8; stroke-linecap: round"/>
     </g>
     <g id="text_17">
      <!-- −2 -->
      <g style="fill: #262626" transform="translate(543.355748 321.741812) scale(0.1 -0.1)">
       <use xlink:href="#ArialMT-2212"/>
       <use xlink:href="#ArialMT-32" transform="translate(58.398438 0)"/>
      </g>
     </g>
    </g>
    <g id="xtick_7">
     <g id="line2d_20">
      <path d="M 608.084628 307.584 
L 608.084628 41.472 
" clip-path="url(#p2a932db3bd)" style="fill: none; stroke: #ffffff; stroke-width: 0.8; stroke-linecap: round"/>
     </g>
     <g id="text_18">
      <!-- −1 -->
      <g style="fill: #262626" transform="translate(602.383847 321.741812) scale(0.1 -0.1)">
       <use xlink:href="#ArialMT-2212"/>
       <use xlink:href="#ArialMT-31" transform="translate(58.398438 0)"/>
      </g>
     </g>
    </g>
    <g id="xtick_8">
     <g id="line2d_21">
      <path d="M 667.112727 307.584 
L 667.112727 41.472 
" clip-path="url(#p2a932db3bd)" style="fill: none; stroke: #ffffff; stroke-width: 0.8; stroke-linecap: round"/>
     </g>
     <g id="text_19">
      <!-- 0 -->
      <g style="fill: #262626" transform="translate(664.332259 321.741812) scale(0.1 -0.1)">
       <use xlink:href="#ArialMT-30"/>
      </g>
     </g>
    </g>
    <g id="xtick_9">
     <g id="line2d_22">
      <path d="M 726.140826 307.584 
L 726.140826 41.472 
" clip-path="url(#p2a932db3bd)" style="fill: none; stroke: #ffffff; stroke-width: 0.8; stroke-linecap: round"/>
     </g>
     <g id="text_20">
      <!-- 1 -->
      <g style="fill: #262626" transform="translate(723.360358 321.741812) scale(0.1 -0.1)">
       <use xlink:href="#ArialMT-31"/>
      </g>
     </g>
    </g>
    <g id="xtick_10">
     <g id="line2d_23">
      <path d="M 785.168926 307.584 
L 785.168926 41.472 
" clip-path="url(#p2a932db3bd)" style="fill: none; stroke: #ffffff; stroke-width: 0.8; stroke-linecap: round"/>
     </g>
     <g id="text_21">
      <!-- 2 -->
      <g style="fill: #262626" transform="translate(782.388457 321.741812) scale(0.1 -0.1)">
       <use xlink:href="#ArialMT-32"/>
      </g>
     </g>
    </g>
    <g id="text_22">
     <!-- x -->
     <g style="fill: #262626" transform="translate(664.612727 334.887125) scale(0.1 -0.1)">
      <use xlink:href="#ArialMT-78"/>
     </g>
    </g>
   </g>
   <g id="matplotlib.axis_4">
    <g id="ytick_6">
     <g id="line2d_24">
      <path d="M 504.785455 302.832494 
L 829.44 302.832494 
" clip-path="url(#p2a932db3bd)" style="fill: none; stroke: #ffffff; stroke-width: 0.8; stroke-linecap: round"/>
     </g>
    </g>
    <g id="ytick_7">
     <g id="line2d_25">
      <path d="M 504.785455 247.480808 
L 829.44 247.480808 
" clip-path="url(#p2a932db3bd)" style="fill: none; stroke: #ffffff; stroke-width: 0.8; stroke-linecap: round"/>
     </g>
    </g>
    <g id="ytick_8">
     <g id="line2d_26">
      <path d="M 504.785455 192.129123 
L 829.44 192.129123 
" clip-path="url(#p2a932db3bd)" style="fill: none; stroke: #ffffff; stroke-width: 0.8; stroke-linecap: round"/>
     </g>
    </g>
    <g id="ytick_9">
     <g id="line2d_27">
      <path d="M 504.785455 136.777437 
L 829.44 136.777437 
" clip-path="url(#p2a932db3bd)" style="fill: none; stroke: #ffffff; stroke-width: 0.8; stroke-linecap: round"/>
     </g>
    </g>
    <g id="ytick_10">
     <g id="line2d_28">
      <path d="M 504.785455 81.425752 
L 829.44 81.425752 
" clip-path="url(#p2a932db3bd)" style="fill: none; stroke: #ffffff; stroke-width: 0.8; stroke-linecap: round"/>
     </g>
    </g>
    <g id="text_23">
     <!-- Pf(x) -->
     <g style="fill: #262626" transform="translate(498.680767 185.081906) rotate(-90) scale(0.1 -0.1)">
      <defs>
       <path id="ArialMT-50" d="M 494 0 
L 494 4581 
L 2222 4581 
Q 2678 4581 2919 4538 
Q 3256 4481 3484 4323 
Q 3713 4166 3852 3881 
Q 3991 3597 3991 3256 
Q 3991 2672 3619 2267 
Q 3247 1863 2275 1863 
L 1100 1863 
L 1100 0 
L 494 0 
z
M 1100 2403 
L 2284 2403 
Q 2872 2403 3119 2622 
Q 3366 2841 3366 3238 
Q 3366 3525 3220 3729 
Q 3075 3934 2838 4000 
Q 2684 4041 2272 4041 
L 1100 4041 
L 1100 2403 
z
" transform="scale(0.015625)"/>
      </defs>
      <use xlink:href="#ArialMT-50"/>
      <use xlink:href="#ArialMT-66" transform="translate(66.699219 0)"/>
      <use xlink:href="#ArialMT-28" transform="translate(94.482422 0)"/>
      <use xlink:href="#ArialMT-78" transform="translate(127.783203 0)"/>
      <use xlink:href="#ArialMT-29" transform="translate(177.783203 0)"/>
     </g>
    </g>
   </g>
   <g id="line2d_29">
    <path d="M 519.542479 83.326258 
L 522.523703 83.300733 
L 525.504913 83.262736 
L 528.486122 83.244998 
L 531.467346 83.221748 
L 534.44857 83.19257 
L 537.429779 83.152873 
L 540.411003 83.136558 
L 543.392212 83.104667 
L 546.373436 83.067789 
L 549.354646 83.06426 
L 552.335869 83.122485 
L 555.317086 83.169364 
L 558.298303 83.237674 
L 561.279526 83.304907 
L 564.260736 83.373179 
L 567.241952 83.42867 
L 570.223169 83.50366 
L 573.204386 83.599136 
L 576.185602 83.696442 
L 579.166812 83.809319 
L 582.148043 83.89783 
L 585.129252 84.008511 
L 588.110469 84.101604 
L 591.091693 84.194919 
L 594.072902 84.287089 
L 597.054126 84.37897 
L 600.035335 84.455998 
L 603.016559 84.52096 
L 605.997776 84.564485 
L 608.978992 84.565725 
L 611.960213 84.522231 
L 614.941422 84.454652 
L 617.922649 84.37849 
L 620.903859 84.288276 
L 623.885076 84.194118 
L 626.866296 84.099851 
L 629.847505 83.990068 
L 632.828732 83.878651 
L 635.809942 83.778473 
L 638.79116 83.66527 
L 641.772382 83.560902 
L 644.753597 83.445898 
L 647.734819 83.366527 
L 650.716025 83.284483 
L 653.697256 83.216583 
L 656.678462 83.157467 
L 659.659684 83.105915 
L 662.640906 83.054802 
L 665.622112 83.01237 
L 668.603334 83.022762 
L 671.584549 83.091164 
L 674.565771 83.161716 
L 677.546985 83.208655 
L 680.528207 83.239478 
L 683.509422 83.294966 
L 686.490635 83.36577 
L 689.47185 83.43003 
L 692.453072 83.412982 
L 695.434287 83.392957 
L 698.415509 83.376967 
L 701.396722 83.340963 
L 704.377939 83.309224 
L 707.359152 83.262869 
L 710.340372 83.21913 
L 713.321596 83.16546 
L 716.302812 83.110576 
L 719.284022 83.055917 
L 722.265238 83.008764 
L 725.246462 82.972258 
L 728.227672 82.972565 
L 731.208895 83.005943 
L 734.190112 83.059944 
L 737.171329 83.113862 
L 740.152538 83.170612 
L 743.133762 83.221179 
L 746.114979 83.273571 
L 749.096195 83.31572 
L 752.077412 83.360165 
L 755.058628 83.39143 
L 758.039838 83.418631 
L 761.021062 83.442292 
L 764.002285 83.463483 
L 766.983509 83.477622 
L 769.964719 83.49439 
L 772.945928 83.493506 
L 775.927152 83.488462 
L 778.908376 83.436947 
L 781.889578 83.392828 
L 784.870802 83.325575 
L 787.852018 83.339552 
L 790.833242 83.370409 
L 793.814438 83.399727 
L 796.795661 83.428928 
L 799.776885 83.470969 
L 802.758109 83.496474 
L 805.739332 83.540376 
L 808.720528 83.569563 
L 811.701752 83.589958 
L 814.682975 83.603145 
" clip-path="url(#p2a932db3bd)" style="fill: none; stroke: #4169e1; stroke-width: 1.5; stroke-linecap: round"/>
   </g>
   <g id="line2d_30">
    <path d="M 519.542479 137.628127 
L 522.523703 137.503687 
L 525.504913 137.273527 
L 528.486122 137.137613 
L 531.467346 137.309522 
L 534.44857 137.480679 
L 537.429779 137.151978 
L 540.411003 137.524149 
L 543.392212 137.540243 
L 546.373436 137.581391 
L 549.354646 137.261974 
L 552.335869 137.193719 
L 555.317086 137.213653 
L 558.298303 137.897832 
L 561.279526 138.99659 
L 564.260736 140.604246 
L 567.241952 142.248437 
L 570.223169 144.5092 
L 573.204386 147.3092 
L 576.185602 150.101453 
L 579.166812 153.733462 
L 582.148043 156.645286 
L 585.129252 160.63276 
L 588.110469 164.118865 
L 591.091693 167.455383 
L 594.072902 171.29428 
L 597.054126 175.002429 
L 600.035335 178.399185 
L 603.016559 181.23349 
L 605.997776 183.259368 
L 608.978992 183.279401 
L 611.960213 181.264654 
L 614.941422 178.220783 
L 617.922649 175.028928 
L 620.903859 171.318285 
L 623.885076 167.777301 
L 626.866296 164.099657 
L 629.847505 160.489369 
L 632.828732 156.702916 
L 635.809942 153.312027 
L 638.79116 150.062331 
L 641.772382 147.08129 
L 644.753597 144.129592 
L 647.734819 143.396525 
L 650.716025 143.088035 
L 653.697256 142.910353 
L 656.678462 142.500273 
L 659.659684 142.156864 
L 662.640906 142.932801 
L 665.622112 143.343982 
L 668.603334 144.050483 
L 671.584549 144.419745 
L 674.565771 144.983357 
L 677.546985 144.700634 
L 680.528207 143.900408 
L 683.509422 143.695395 
L 686.490635 143.636854 
L 689.47185 142.832029 
L 692.453072 139.78924 
L 695.434287 136.358545 
L 698.415509 133.342025 
L 701.396722 129.563751 
L 704.377939 126.138761 
L 707.359152 122.330015 
L 710.340372 118.760285 
L 713.321596 114.941249 
L 716.302812 111.32946 
L 719.284022 107.967686 
L 722.265238 105.108761 
L 725.246462 103.046719 
L 728.227672 103.113134 
L 731.208895 105.004202 
L 734.190112 108.13575 
L 737.171329 111.392644 
L 740.152538 115.084158 
L 743.133762 118.578376 
L 746.114979 122.41431 
L 749.096195 125.837819 
L 752.077412 129.643295 
L 755.058628 132.962404 
L 758.039838 136.374609 
L 761.021062 139.275921 
L 764.002285 142.502055 
L 766.983509 144.683412 
L 769.964719 146.539789 
L 772.945928 148.116551 
L 775.927152 149.771881 
L 778.908376 150.276839 
L 781.889578 150.443192 
L 784.870802 150.124217 
L 787.852018 150.426894 
L 790.833242 150.610126 
L 793.814438 150.435868 
L 796.795661 150.370913 
L 799.776885 150.812164 
L 802.758109 150.477761 
L 805.739332 151.098489 
L 808.720528 151.042093 
L 811.701752 151.144995 
L 814.682975 150.875278 
" clip-path="url(#p2a932db3bd)" style="fill: none; stroke: #0000ff; stroke-width: 1.5; stroke-linecap: round"/>
   </g>
   <g id="line2d_31">
    <path d="M 519.542479 152.919605 
L 522.523703 152.792281 
L 525.504913 152.533497 
L 528.486122 152.360671 
L 531.467346 152.566417 
L 534.44857 152.738214 
L 537.429779 152.361964 
L 540.411003 152.782199 
L 543.392212 152.776894 
L 546.373436 152.826395 
L 549.354646 152.473709 
L 552.335869 152.329949 
L 555.317086 152.395491 
L 558.298303 153.161675 
L 561.279526 154.40317 
L 564.260736 156.165395 
L 567.241952 157.949506 
L 570.223169 160.39224 
L 573.204386 163.390411 
L 576.185602 166.375134 
L 579.166812 170.250414 
L 582.148043 173.33967 
L 585.129252 177.568627 
L 588.110469 181.242127 
L 591.091693 184.762445 
L 594.072902 188.797349 
L 597.054126 192.6961 
L 600.035335 196.256272 
L 603.016559 199.230926 
L 605.997776 201.355609 
L 608.978992 201.377859 
L 611.960213 199.264459 
L 614.941422 196.073443 
L 617.922649 192.719815 
L 620.903859 188.82299 
L 623.885076 185.094386 
L 626.866296 181.216076 
L 629.847505 177.380254 
L 632.828732 173.36314 
L 635.809942 169.755037 
L 638.79116 166.278612 
L 641.772382 163.087378 
L 644.753597 159.923177 
L 647.734819 159.162787 
L 650.716025 158.796131 
L 653.697256 158.558304 
L 656.678462 158.079548 
L 659.659684 157.661062 
L 662.640906 158.565727 
L 665.622112 159.002247 
L 668.603334 159.797576 
L 671.584549 160.219731 
L 674.565771 160.881098 
L 677.546985 160.552351 
L 680.528207 159.666571 
L 683.509422 159.433323 
L 686.490635 159.42068 
L 689.47185 158.64609 
L 692.453072 155.456822 
L 695.434287 151.848679 
L 698.415509 148.706669 
L 701.396722 144.775414 
L 704.377939 141.196528 
L 707.359152 137.209813 
L 710.340372 133.460516 
L 713.321596 129.44394 
L 716.302812 125.640816 
L 719.284022 122.095959 
L 722.265238 119.08568 
L 725.246462 116.911707 
L 728.227672 116.984253 
L 731.208895 118.974496 
L 734.190112 122.273747 
L 737.171329 125.705316 
L 740.152538 129.592358 
L 743.133762 133.267664 
L 746.114979 137.29614 
L 749.096195 140.872446 
L 752.077412 144.842612 
L 755.058628 148.291568 
L 758.039838 151.849174 
L 761.021062 154.86935 
L 764.002285 158.269636 
L 766.983509 160.560428 
L 769.964719 162.546332 
L 772.945928 164.254251 
L 775.927152 166.054285 
L 778.908376 166.619777 
L 781.889578 166.780601 
L 784.870802 166.377107 
L 787.852018 166.708018 
L 790.833242 166.951164 
L 793.814438 166.789621 
L 796.795661 166.749252 
L 799.776885 167.297014 
L 802.758109 166.958079 
L 805.739332 167.680179 
L 808.720528 167.698437 
L 811.701752 167.822731 
L 814.682975 167.56274 
" clip-path="url(#p2a932db3bd)" style="fill: none; stroke: #0000cd; stroke-width: 1.5; stroke-linecap: round"/>
   </g>
   <g id="line2d_32">
    <path d="M 519.542479 154.118943 
L 522.523703 153.865431 
L 525.504913 153.481508 
L 528.486122 153.245858 
L 531.467346 153.308279 
L 534.44857 153.338216 
L 537.429779 152.838193 
L 540.411003 153.109607 
L 543.392212 153.000191 
L 546.373436 152.894115 
L 549.354646 152.491571 
L 552.335869 152.527935 
L 555.317086 152.538334 
L 558.298303 153.165753 
L 561.279526 154.216613 
L 564.260736 155.815282 
L 567.241952 157.438022 
L 570.223169 159.732872 
L 573.204386 162.625447 
L 576.185602 165.511491 
L 579.166812 169.276347 
L 582.148043 172.274748 
L 585.129252 176.407632 
L 588.110469 180.022868 
L 591.091693 183.490755 
L 594.072902 187.491809 
L 597.054126 191.377304 
L 600.035335 194.944873 
L 603.016559 197.943835 
L 605.997776 200.095625 
L 608.978992 200.120197 
L 611.960213 197.978767 
L 614.941422 194.759945 
L 617.922649 191.402688 
L 620.903859 187.516579 
L 623.885076 183.816361 
L 626.866296 179.997068 
L 629.847505 176.224506 
L 632.828732 172.278529 
L 635.809942 168.786492 
L 638.79116 165.391386 
L 641.772382 162.299564 
L 644.753597 159.203552 
L 647.734819 158.374511 
L 650.716025 158.044946 
L 653.697256 157.909671 
L 656.678462 157.523115 
L 659.659684 157.219515 
L 662.640906 157.929744 
L 665.622112 158.321321 
L 668.603334 159.031946 
L 671.584549 159.458383 
L 674.565771 160.100108 
L 677.546985 159.804887 
L 680.528207 158.915332 
L 683.509422 158.685858 
L 686.490635 158.6496 
L 689.47185 157.874158 
L 692.453072 154.626811 
L 695.434287 150.99079 
L 698.415509 147.770054 
L 701.396722 143.701967 
L 704.377939 139.975296 
L 707.359152 135.803924 
L 710.340372 131.831979 
L 713.321596 127.557444 
L 716.302812 123.489961 
L 719.284022 119.699905 
L 722.265238 116.511528 
L 725.246462 114.256648 
L 728.227672 114.326608 
L 731.208895 116.397774 
L 734.190112 119.877331 
L 737.171329 123.565694 
L 740.152538 127.715724 
L 743.133762 131.650037 
L 746.114979 135.916638 
L 749.096195 139.697436 
L 752.077412 143.831752 
L 755.058628 147.424124 
L 758.039838 151.077051 
L 761.021062 154.211479 
L 764.002285 157.642573 
L 766.983509 159.996981 
L 769.964719 162.03657 
L 772.945928 163.777185 
L 775.927152 165.59574 
L 778.908376 166.134726 
L 781.889578 166.346364 
L 784.870802 165.97864 
L 787.852018 166.373576 
L 790.833242 166.676979 
L 793.814438 166.643664 
L 796.795661 166.702805 
L 799.776885 167.310099 
L 802.758109 167.116389 
L 805.739332 167.900151 
L 808.720528 167.993327 
L 811.701752 168.205078 
L 814.682975 168.029203 
" clip-path="url(#p2a932db3bd)" style="fill: none; stroke: #191970; stroke-width: 1.5; stroke-linecap: round"/>
   </g>
   <g id="patch_9">
    <path d="M 504.785455 307.584 
L 504.785455 41.472 
" style="fill: none; stroke: #ffffff; stroke-width: 0.8; stroke-linejoin: miter; stroke-linecap: square"/>
   </g>
   <g id="patch_10">
    <path d="M 829.44 307.584 
L 829.44 41.472 
" style="fill: none; stroke: #ffffff; stroke-width: 0.8; stroke-linejoin: miter; stroke-linecap: square"/>
   </g>
   <g id="patch_11">
    <path d="M 504.785455 307.584 
L 829.44 307.584 
" style="fill: none; stroke: #ffffff; stroke-width: 0.8; stroke-linejoin: miter; stroke-linecap: square"/>
   </g>
   <g id="patch_12">
    <path d="M 504.785455 41.472 
L 829.44 41.472 
" style="fill: none; stroke: #ffffff; stroke-width: 0.8; stroke-linejoin: miter; stroke-linecap: square"/>
   </g>
  </g>
  <g id="text_24">
   <!-- $\mu=0, \sigma=1$ -->
   <g style="fill: #262626" transform="translate(427.68 15.912) scale(0.12 -0.12)">
    <defs>
     <path id="DejaVuSans-Oblique-3bc" d="M -84 -1331 
L 856 3500 
L 1434 3500 
L 1009 1322 
Q 997 1256 987 1175 
Q 978 1094 978 1013 
Q 978 722 1161 565 
Q 1344 409 1684 409 
Q 2147 409 2431 671 
Q 2716 934 2816 1459 
L 3213 3500 
L 3788 3500 
L 3266 809 
Q 3253 750 3248 706 
Q 3244 663 3244 628 
Q 3244 531 3283 486 
Q 3322 441 3406 441 
Q 3438 441 3492 456 
Q 3547 472 3647 513 
L 3559 50 
Q 3422 -19 3297 -55 
Q 3172 -91 3053 -91 
Q 2847 -91 2730 40 
Q 2613 172 2613 403 
Q 2438 153 2195 31 
Q 1953 -91 1625 -91 
Q 1334 -91 1117 43 
Q 900 178 831 397 
L 494 -1331 
L -84 -1331 
z
" transform="scale(0.015625)"/>
     <path id="DejaVuSans-3d" d="M 678 2906 
L 4684 2906 
L 4684 2381 
L 678 2381 
L 678 2906 
z
M 678 1631 
L 4684 1631 
L 4684 1100 
L 678 1100 
L 678 1631 
z
" transform="scale(0.015625)"/>
     <path id="DejaVuSans-30" d="M 2034 4250 
Q 1547 4250 1301 3770 
Q 1056 3291 1056 2328 
Q 1056 1369 1301 889 
Q 1547 409 2034 409 
Q 2525 409 2770 889 
Q 3016 1369 3016 2328 
Q 3016 3291 2770 3770 
Q 2525 4250 2034 4250 
z
M 2034 4750 
Q 2819 4750 3233 4129 
Q 3647 3509 3647 2328 
Q 3647 1150 3233 529 
Q 2819 -91 2034 -91 
Q 1250 -91 836 529 
Q 422 1150 422 2328 
Q 422 3509 836 4129 
Q 1250 4750 2034 4750 
z
" transform="scale(0.015625)"/>
     <path id="DejaVuSans-2c" d="M 750 794 
L 1409 794 
L 1409 256 
L 897 -744 
L 494 -744 
L 750 256 
L 750 794 
z
" transform="scale(0.015625)"/>
     <path id="DejaVuSans-Oblique-3c3" d="M 2219 3044 
Q 1744 3044 1422 2700 
Q 1081 2341 969 1747 
Q 844 1119 1044 756 
Q 1241 397 1706 397 
Q 2166 397 2503 759 
Q 2844 1122 2966 1747 
Q 3075 2319 2881 2700 
Q 2700 3044 2219 3044 
z
M 2309 3503 
L 4219 3500 
L 4106 2925 
L 3463 2925 
Q 3706 2438 3575 1747 
Q 3406 888 2884 400 
Q 2359 -91 1609 -91 
Q 856 -91 525 400 
Q 194 888 363 1747 
Q 528 2609 1050 3097 
Q 1484 3503 2309 3503 
z
" transform="scale(0.015625)"/>
     <path id="DejaVuSans-31" d="M 794 531 
L 1825 531 
L 1825 4091 
L 703 3866 
L 703 4441 
L 1819 4666 
L 2450 4666 
L 2450 531 
L 3481 531 
L 3481 0 
L 794 0 
L 794 531 
z
" transform="scale(0.015625)"/>
    </defs>
    <use xlink:href="#DejaVuSans-Oblique-3bc" transform="translate(0 0.78125)"/>
    <use xlink:href="#DejaVuSans-3d" transform="translate(83.105469 0.78125)"/>
    <use xlink:href="#DejaVuSans-30" transform="translate(186.376953 0.78125)"/>
    <use xlink:href="#DejaVuSans-2c" transform="translate(250 0.78125)"/>
    <use xlink:href="#DejaVuSans-Oblique-3c3" transform="translate(301.269531 0.78125)"/>
    <use xlink:href="#DejaVuSans-3d" transform="translate(384.130859 0.78125)"/>
    <use xlink:href="#DejaVuSans-31" transform="translate(487.402344 0.78125)"/>
   </g>
  </g>
 </g>
 <defs>
  <clipPath id="pb5123f10b3">
   <rect x="115.2" y="41.472" width="324.654545" height="266.112"/>
  </clipPath>
  <clipPath id="p2a932db3bd">
   <rect x="504.785455" y="41.472" width="324.654545" height="266.112"/>
  </clipPath>
 </defs>
</svg>
