<?xml version="1.0" encoding="utf-8" standalone="no"?>
<!DOCTYPE svg PUBLIC "-//W3C//DTD SVG 1.1//EN"
  "http://www.w3.org/Graphics/SVG/1.1/DTD/svg11.dtd">
<svg xmlns:xlink="http://www.w3.org/1999/xlink" width="460.8pt" height="345.6pt" viewBox="0 0 460.8 345.6" xmlns="http://www.w3.org/2000/svg" version="1.1">
 <metadata>
  <rdf:RDF xmlns:dc="http://purl.org/dc/elements/1.1/" xmlns:cc="http://creativecommons.org/ns#" xmlns:rdf="http://www.w3.org/1999/02/22-rdf-syntax-ns#">
   <cc:Work>
    <dc:type rdf:resource="http://purl.org/dc/dcmitype/StillImage"/>
    <dc:date>2025-04-10T17:53:06.011899</dc:date>
    <dc:format>image/svg+xml</dc:format>
    <dc:creator>
     <cc:Agent>
      <dc:title>Matplotlib v3.10.1, https://matplotlib.org/</dc:title>
     </cc:Agent>
    </dc:creator>
   </cc:Work>
  </rdf:RDF>
 </metadata>
 <defs>
  <style type="text/css">*{stroke-linejoin: round; stroke-linecap: butt}</style>
 </defs>
 <g id="figure_1">
  <g id="patch_1">
   <path d="M 0 345.6 
L 460.8 345.6 
L 460.8 0 
L 0 0 
z
" style="fill: #ffffff"/>
  </g>
  <g id="axes_1">
   <g id="patch_2">
    <path d="M 57.6 307.584 
L 414.72 307.584 
L 414.72 41.472 
L 57.6 41.472 
z
" style="fill: #eaeaf2"/>
   </g>
   <g id="matplotlib.axis_1">
    <g id="xtick_1">
     <g id="line2d_1">
      <path d="M 106.298182 307.584 
L 106.298182 41.472 
" clip-path="url(#p110b69fbd6)" style="fill: none; stroke: #ffffff; stroke-width: 0.8; stroke-linecap: round"/>
     </g>
     <g id="text_1">
      <!-- −2 -->
      <g style="fill: #262626" transform="translate(100.597401 321.741812) scale(0.1 -0.1)">
       <defs>
        <path id="ArialMT-2212" d="M 3381 1997 
L 356 1997 
L 356 2522 
L 3381 2522 
L 3381 1997 
z
" transform="scale(0.015625)"/>
        <path id="ArialMT-32" d="M 3222 541 
L 3222 0 
L 194 0 
Q 188 203 259 391 
Q 375 700 629 1000 
Q 884 1300 1366 1694 
Q 2113 2306 2375 2664 
Q 2638 3022 2638 3341 
Q 2638 3675 2398 3904 
Q 2159 4134 1775 4134 
Q 1369 4134 1125 3890 
Q 881 3647 878 3216 
L 300 3275 
Q 359 3922 746 4261 
Q 1134 4600 1788 4600 
Q 2447 4600 2831 4234 
Q 3216 3869 3216 3328 
Q 3216 3053 3103 2787 
Q 2991 2522 2730 2228 
Q 2469 1934 1863 1422 
Q 1356 997 1212 845 
Q 1069 694 975 541 
L 3222 541 
z
" transform="scale(0.015625)"/>
       </defs>
       <use xlink:href="#ArialMT-2212"/>
       <use xlink:href="#ArialMT-32" transform="translate(58.398438 0)"/>
      </g>
     </g>
    </g>
    <g id="xtick_2">
     <g id="line2d_2">
      <path d="M 171.229091 307.584 
L 171.229091 41.472 
" clip-path="url(#p110b69fbd6)" style="fill: none; stroke: #ffffff; stroke-width: 0.8; stroke-linecap: round"/>
     </g>
     <g id="text_2">
      <!-- −1 -->
      <g style="fill: #262626" transform="translate(165.52831 321.741812) scale(0.1 -0.1)">
       <defs>
        <path id="ArialMT-31" d="M 2384 0 
L 1822 0 
L 1822 3584 
Q 1619 3391 1289 3197 
Q 959 3003 697 2906 
L 697 3450 
Q 1169 3672 1522 3987 
Q 1875 4303 2022 4600 
L 2384 4600 
L 2384 0 
z
" transform="scale(0.015625)"/>
       </defs>
       <use xlink:href="#ArialMT-2212"/>
       <use xlink:href="#ArialMT-31" transform="translate(58.398438 0)"/>
      </g>
     </g>
    </g>
    <g id="xtick_3">
     <g id="line2d_3">
      <path d="M 236.16 307.584 
L 236.16 41.472 
" clip-path="url(#p110b69fbd6)" style="fill: none; stroke: #ffffff; stroke-width: 0.8; stroke-linecap: round"/>
     </g>
     <g id="text_3">
      <!-- 0 -->
      <g style="fill: #262626" transform="translate(233.379531 321.741812) scale(0.1 -0.1)">
       <defs>
        <path id="ArialMT-30" d="M 266 2259 
Q 266 3072 433 3567 
Q 600 4063 929 4331 
Q 1259 4600 1759 4600 
Q 2128 4600 2406 4451 
Q 2684 4303 2865 4023 
Q 3047 3744 3150 3342 
Q 3253 2941 3253 2259 
Q 3253 1453 3087 958 
Q 2922 463 2592 192 
Q 2263 -78 1759 -78 
Q 1097 -78 719 397 
Q 266 969 266 2259 
z
M 844 2259 
Q 844 1131 1108 757 
Q 1372 384 1759 384 
Q 2147 384 2411 759 
Q 2675 1134 2675 2259 
Q 2675 3391 2411 3762 
Q 2147 4134 1753 4134 
Q 1366 4134 1134 3806 
Q 844 3388 844 2259 
z
" transform="scale(0.015625)"/>
       </defs>
       <use xlink:href="#ArialMT-30"/>
      </g>
     </g>
    </g>
    <g id="xtick_4">
     <g id="line2d_4">
      <path d="M 301.090909 307.584 
L 301.090909 41.472 
" clip-path="url(#p110b69fbd6)" style="fill: none; stroke: #ffffff; stroke-width: 0.8; stroke-linecap: round"/>
     </g>
     <g id="text_4">
      <!-- 1 -->
      <g style="fill: #262626" transform="translate(298.31044 321.741812) scale(0.1 -0.1)">
       <use xlink:href="#ArialMT-31"/>
      </g>
     </g>
    </g>
    <g id="xtick_5">
     <g id="line2d_5">
      <path d="M 366.021818 307.584 
L 366.021818 41.472 
" clip-path="url(#p110b69fbd6)" style="fill: none; stroke: #ffffff; stroke-width: 0.8; stroke-linecap: round"/>
     </g>
     <g id="text_5">
      <!-- 2 -->
      <g style="fill: #262626" transform="translate(363.241349 321.741812) scale(0.1 -0.1)">
       <use xlink:href="#ArialMT-32"/>
      </g>
     </g>
    </g>
    <g id="text_6">
     <!-- $x$ -->
     <g style="fill: #262626" transform="translate(233.16 334.887125) scale(0.1 -0.1)">
      <defs>
       <path id="DejaVuSans-Oblique-78" d="M 3841 3500 
L 2234 1784 
L 3219 0 
L 2559 0 
L 1819 1388 
L 531 0 
L -166 0 
L 1556 1844 
L 641 3500 
L 1300 3500 
L 1972 2234 
L 3144 3500 
L 3841 3500 
z
" transform="scale(0.015625)"/>
      </defs>
      <use xlink:href="#DejaVuSans-Oblique-78" transform="translate(0 0.3125)"/>
     </g>
    </g>
   </g>
   <g id="matplotlib.axis_2">
    <g id="ytick_1">
     <g id="line2d_6">
      <path d="M 57.6 295.601931 
L 414.72 295.601931 
" clip-path="url(#p110b69fbd6)" style="fill: none; stroke: #ffffff; stroke-width: 0.8; stroke-linecap: round"/>
     </g>
     <g id="text_7">
      <!-- 0 -->
      <g style="fill: #262626" transform="translate(45.039062 299.180837) scale(0.1 -0.1)">
       <use xlink:href="#ArialMT-30"/>
      </g>
     </g>
    </g>
    <g id="ytick_2">
     <g id="line2d_7">
      <path d="M 57.6 250.765943 
L 414.72 250.765943 
" clip-path="url(#p110b69fbd6)" style="fill: none; stroke: #ffffff; stroke-width: 0.8; stroke-linecap: round"/>
     </g>
     <g id="text_8">
      <!-- 1 -->
      <g style="fill: #262626" transform="translate(45.039062 254.344849) scale(0.1 -0.1)">
       <use xlink:href="#ArialMT-31"/>
      </g>
     </g>
    </g>
    <g id="ytick_3">
     <g id="line2d_8">
      <path d="M 57.6 205.929955 
L 414.72 205.929955 
" clip-path="url(#p110b69fbd6)" style="fill: none; stroke: #ffffff; stroke-width: 0.8; stroke-linecap: round"/>
     </g>
     <g id="text_9">
      <!-- 2 -->
      <g style="fill: #262626" transform="translate(45.039062 209.508861) scale(0.1 -0.1)">
       <use xlink:href="#ArialMT-32"/>
      </g>
     </g>
    </g>
    <g id="ytick_4">
     <g id="line2d_9">
      <path d="M 57.6 161.093967 
L 414.72 161.093967 
" clip-path="url(#p110b69fbd6)" style="fill: none; stroke: #ffffff; stroke-width: 0.8; stroke-linecap: round"/>
     </g>
     <g id="text_10">
      <!-- 3 -->
      <g style="fill: #262626" transform="translate(45.039062 164.672873) scale(0.1 -0.1)">
       <defs>
        <path id="ArialMT-33" d="M 269 1209 
L 831 1284 
Q 928 806 1161 595 
Q 1394 384 1728 384 
Q 2125 384 2398 659 
Q 2672 934 2672 1341 
Q 2672 1728 2419 1979 
Q 2166 2231 1775 2231 
Q 1616 2231 1378 2169 
L 1441 2663 
Q 1497 2656 1531 2656 
Q 1891 2656 2178 2843 
Q 2466 3031 2466 3422 
Q 2466 3731 2256 3934 
Q 2047 4138 1716 4138 
Q 1388 4138 1169 3931 
Q 950 3725 888 3313 
L 325 3413 
Q 428 3978 793 4289 
Q 1159 4600 1703 4600 
Q 2078 4600 2393 4439 
Q 2709 4278 2876 4000 
Q 3044 3722 3044 3409 
Q 3044 3113 2884 2869 
Q 2725 2625 2413 2481 
Q 2819 2388 3044 2092 
Q 3269 1797 3269 1353 
Q 3269 753 2831 336 
Q 2394 -81 1725 -81 
Q 1122 -81 723 278 
Q 325 638 269 1209 
z
" transform="scale(0.015625)"/>
       </defs>
       <use xlink:href="#ArialMT-33"/>
      </g>
     </g>
    </g>
    <g id="ytick_5">
     <g id="line2d_10">
      <path d="M 57.6 116.257979 
L 414.72 116.257979 
" clip-path="url(#p110b69fbd6)" style="fill: none; stroke: #ffffff; stroke-width: 0.8; stroke-linecap: round"/>
     </g>
     <g id="text_11">
      <!-- 4 -->
      <g style="fill: #262626" transform="translate(45.039062 119.836885) scale(0.1 -0.1)">
       <defs>
        <path id="ArialMT-34" d="M 2069 0 
L 2069 1097 
L 81 1097 
L 81 1613 
L 2172 4581 
L 2631 4581 
L 2631 1613 
L 3250 1613 
L 3250 1097 
L 2631 1097 
L 2631 0 
L 2069 0 
z
M 2069 1613 
L 2069 3678 
L 634 1613 
L 2069 1613 
z
" transform="scale(0.015625)"/>
       </defs>
       <use xlink:href="#ArialMT-34"/>
      </g>
     </g>
    </g>
    <g id="ytick_6">
     <g id="line2d_11">
      <path d="M 57.6 71.421991 
L 414.72 71.421991 
" clip-path="url(#p110b69fbd6)" style="fill: none; stroke: #ffffff; stroke-width: 0.8; stroke-linecap: round"/>
     </g>
     <g id="text_12">
      <!-- 5 -->
      <g style="fill: #262626" transform="translate(45.039062 75.000898) scale(0.1 -0.1)">
       <defs>
        <path id="ArialMT-35" d="M 266 1200 
L 856 1250 
Q 922 819 1161 601 
Q 1400 384 1738 384 
Q 2144 384 2425 690 
Q 2706 997 2706 1503 
Q 2706 1984 2436 2262 
Q 2166 2541 1728 2541 
Q 1456 2541 1237 2417 
Q 1019 2294 894 2097 
L 366 2166 
L 809 4519 
L 3088 4519 
L 3088 3981 
L 1259 3981 
L 1013 2750 
Q 1425 3038 1878 3038 
Q 2478 3038 2890 2622 
Q 3303 2206 3303 1553 
Q 3303 931 2941 478 
Q 2500 -78 1738 -78 
Q 1113 -78 717 272 
Q 322 622 266 1200 
z
" transform="scale(0.015625)"/>
       </defs>
       <use xlink:href="#ArialMT-35"/>
      </g>
     </g>
    </g>
    <g id="text_13">
     <!-- contraction estimate $\tau_x(P^n)$ -->
     <g style="fill: #262626" transform="translate(39.051562 235.528) rotate(-90) scale(0.1 -0.1)">
      <defs>
       <path id="ArialMT-63" d="M 2588 1216 
L 3141 1144 
Q 3050 572 2676 248 
Q 2303 -75 1759 -75 
Q 1078 -75 664 370 
Q 250 816 250 1647 
Q 250 2184 428 2587 
Q 606 2991 970 3192 
Q 1334 3394 1763 3394 
Q 2303 3394 2647 3120 
Q 2991 2847 3088 2344 
L 2541 2259 
Q 2463 2594 2264 2762 
Q 2066 2931 1784 2931 
Q 1359 2931 1093 2626 
Q 828 2322 828 1663 
Q 828 994 1084 691 
Q 1341 388 1753 388 
Q 2084 388 2306 591 
Q 2528 794 2588 1216 
z
" transform="scale(0.015625)"/>
       <path id="ArialMT-6f" d="M 213 1659 
Q 213 2581 725 3025 
Q 1153 3394 1769 3394 
Q 2453 3394 2887 2945 
Q 3322 2497 3322 1706 
Q 3322 1066 3130 698 
Q 2938 331 2570 128 
Q 2203 -75 1769 -75 
Q 1072 -75 642 372 
Q 213 819 213 1659 
z
M 791 1659 
Q 791 1022 1069 705 
Q 1347 388 1769 388 
Q 2188 388 2466 706 
Q 2744 1025 2744 1678 
Q 2744 2294 2464 2611 
Q 2184 2928 1769 2928 
Q 1347 2928 1069 2612 
Q 791 2297 791 1659 
z
" transform="scale(0.015625)"/>
       <path id="ArialMT-6e" d="M 422 0 
L 422 3319 
L 928 3319 
L 928 2847 
Q 1294 3394 1984 3394 
Q 2284 3394 2536 3286 
Q 2788 3178 2913 3003 
Q 3038 2828 3088 2588 
Q 3119 2431 3119 2041 
L 3119 0 
L 2556 0 
L 2556 2019 
Q 2556 2363 2490 2533 
Q 2425 2703 2258 2804 
Q 2091 2906 1866 2906 
Q 1506 2906 1245 2678 
Q 984 2450 984 1813 
L 984 0 
L 422 0 
z
" transform="scale(0.015625)"/>
       <path id="ArialMT-74" d="M 1650 503 
L 1731 6 
Q 1494 -44 1306 -44 
Q 1000 -44 831 53 
Q 663 150 594 308 
Q 525 466 525 972 
L 525 2881 
L 113 2881 
L 113 3319 
L 525 3319 
L 525 4141 
L 1084 4478 
L 1084 3319 
L 1650 3319 
L 1650 2881 
L 1084 2881 
L 1084 941 
Q 1084 700 1114 631 
Q 1144 563 1211 522 
Q 1278 481 1403 481 
Q 1497 481 1650 503 
z
" transform="scale(0.015625)"/>
       <path id="ArialMT-72" d="M 416 0 
L 416 3319 
L 922 3319 
L 922 2816 
Q 1116 3169 1280 3281 
Q 1444 3394 1641 3394 
Q 1925 3394 2219 3213 
L 2025 2691 
Q 1819 2813 1613 2813 
Q 1428 2813 1281 2702 
Q 1134 2591 1072 2394 
Q 978 2094 978 1738 
L 978 0 
L 416 0 
z
" transform="scale(0.015625)"/>
       <path id="ArialMT-61" d="M 2588 409 
Q 2275 144 1986 34 
Q 1697 -75 1366 -75 
Q 819 -75 525 192 
Q 231 459 231 875 
Q 231 1119 342 1320 
Q 453 1522 633 1644 
Q 813 1766 1038 1828 
Q 1203 1872 1538 1913 
Q 2219 1994 2541 2106 
Q 2544 2222 2544 2253 
Q 2544 2597 2384 2738 
Q 2169 2928 1744 2928 
Q 1347 2928 1158 2789 
Q 969 2650 878 2297 
L 328 2372 
Q 403 2725 575 2942 
Q 747 3159 1072 3276 
Q 1397 3394 1825 3394 
Q 2250 3394 2515 3294 
Q 2781 3194 2906 3042 
Q 3031 2891 3081 2659 
Q 3109 2516 3109 2141 
L 3109 1391 
Q 3109 606 3145 398 
Q 3181 191 3288 0 
L 2700 0 
Q 2613 175 2588 409 
z
M 2541 1666 
Q 2234 1541 1622 1453 
Q 1275 1403 1131 1340 
Q 988 1278 909 1158 
Q 831 1038 831 891 
Q 831 666 1001 516 
Q 1172 366 1500 366 
Q 1825 366 2078 508 
Q 2331 650 2450 897 
Q 2541 1088 2541 1459 
L 2541 1666 
z
" transform="scale(0.015625)"/>
       <path id="ArialMT-69" d="M 425 3934 
L 425 4581 
L 988 4581 
L 988 3934 
L 425 3934 
z
M 425 0 
L 425 3319 
L 988 3319 
L 988 0 
L 425 0 
z
" transform="scale(0.015625)"/>
       <path id="ArialMT-20" transform="scale(0.015625)"/>
       <path id="ArialMT-65" d="M 2694 1069 
L 3275 997 
Q 3138 488 2766 206 
Q 2394 -75 1816 -75 
Q 1088 -75 661 373 
Q 234 822 234 1631 
Q 234 2469 665 2931 
Q 1097 3394 1784 3394 
Q 2450 3394 2872 2941 
Q 3294 2488 3294 1666 
Q 3294 1616 3291 1516 
L 816 1516 
Q 847 969 1125 678 
Q 1403 388 1819 388 
Q 2128 388 2347 550 
Q 2566 713 2694 1069 
z
M 847 1978 
L 2700 1978 
Q 2663 2397 2488 2606 
Q 2219 2931 1791 2931 
Q 1403 2931 1139 2672 
Q 875 2413 847 1978 
z
" transform="scale(0.015625)"/>
       <path id="ArialMT-73" d="M 197 991 
L 753 1078 
Q 800 744 1014 566 
Q 1228 388 1613 388 
Q 2000 388 2187 545 
Q 2375 703 2375 916 
Q 2375 1106 2209 1216 
Q 2094 1291 1634 1406 
Q 1016 1563 777 1677 
Q 538 1791 414 1992 
Q 291 2194 291 2438 
Q 291 2659 392 2848 
Q 494 3038 669 3163 
Q 800 3259 1026 3326 
Q 1253 3394 1513 3394 
Q 1903 3394 2198 3281 
Q 2494 3169 2634 2976 
Q 2775 2784 2828 2463 
L 2278 2388 
Q 2241 2644 2061 2787 
Q 1881 2931 1553 2931 
Q 1166 2931 1000 2803 
Q 834 2675 834 2503 
Q 834 2394 903 2306 
Q 972 2216 1119 2156 
Q 1203 2125 1616 2013 
Q 2213 1853 2448 1751 
Q 2684 1650 2818 1456 
Q 2953 1263 2953 975 
Q 2953 694 2789 445 
Q 2625 197 2315 61 
Q 2006 -75 1616 -75 
Q 969 -75 630 194 
Q 291 463 197 991 
z
" transform="scale(0.015625)"/>
       <path id="ArialMT-6d" d="M 422 0 
L 422 3319 
L 925 3319 
L 925 2853 
Q 1081 3097 1340 3245 
Q 1600 3394 1931 3394 
Q 2300 3394 2536 3241 
Q 2772 3088 2869 2813 
Q 3263 3394 3894 3394 
Q 4388 3394 4653 3120 
Q 4919 2847 4919 2278 
L 4919 0 
L 4359 0 
L 4359 2091 
Q 4359 2428 4304 2576 
Q 4250 2725 4106 2815 
Q 3963 2906 3769 2906 
Q 3419 2906 3187 2673 
Q 2956 2441 2956 1928 
L 2956 0 
L 2394 0 
L 2394 2156 
Q 2394 2531 2256 2718 
Q 2119 2906 1806 2906 
Q 1569 2906 1367 2781 
Q 1166 2656 1075 2415 
Q 984 2175 984 1722 
L 984 0 
L 422 0 
z
" transform="scale(0.015625)"/>
       <path id="DejaVuSans-Oblique-3c4" d="M 2103 638 
Q 2188 488 2525 488 
L 2800 488 
L 2706 0 
L 2363 0 
Q 1800 0 1600 300 
Q 1403 606 1534 1269 
L 1856 2925 
L 541 2925 
L 653 3500 
L 3881 3500 
L 3769 2925 
L 2444 2925 
L 2113 1234 
Q 2025 781 2103 638 
z
" transform="scale(0.015625)"/>
       <path id="DejaVuSans-28" d="M 1984 4856 
Q 1566 4138 1362 3434 
Q 1159 2731 1159 2009 
Q 1159 1288 1364 580 
Q 1569 -128 1984 -844 
L 1484 -844 
Q 1016 -109 783 600 
Q 550 1309 550 2009 
Q 550 2706 781 3412 
Q 1013 4119 1484 4856 
L 1984 4856 
z
" transform="scale(0.015625)"/>
       <path id="DejaVuSans-Oblique-50" d="M 1081 4666 
L 2541 4666 
Q 3178 4666 3512 4369 
Q 3847 4072 3847 3500 
Q 3847 2731 3353 2303 
Q 2859 1875 1966 1875 
L 1172 1875 
L 806 0 
L 172 0 
L 1081 4666 
z
M 1613 4147 
L 1275 2394 
L 2069 2394 
Q 2606 2394 2893 2669 
Q 3181 2944 3181 3456 
Q 3181 3784 2986 3965 
Q 2791 4147 2438 4147 
L 1613 4147 
z
" transform="scale(0.015625)"/>
       <path id="DejaVuSans-Oblique-6e" d="M 3566 2113 
L 3156 0 
L 2578 0 
L 2988 2091 
Q 3016 2238 3031 2350 
Q 3047 2463 3047 2528 
Q 3047 2791 2881 2937 
Q 2716 3084 2419 3084 
Q 1956 3084 1622 2776 
Q 1288 2469 1184 1941 
L 800 0 
L 225 0 
L 903 3500 
L 1478 3500 
L 1363 2950 
Q 1603 3253 1940 3418 
Q 2278 3584 2650 3584 
Q 3113 3584 3367 3334 
Q 3622 3084 3622 2631 
Q 3622 2519 3608 2391 
Q 3594 2263 3566 2113 
z
" transform="scale(0.015625)"/>
       <path id="DejaVuSans-29" d="M 513 4856 
L 1013 4856 
Q 1481 4119 1714 3412 
Q 1947 2706 1947 2009 
Q 1947 1309 1714 600 
Q 1481 -109 1013 -844 
L 513 -844 
Q 928 -128 1133 580 
Q 1338 1288 1338 2009 
Q 1338 2731 1133 3434 
Q 928 4138 513 4856 
z
" transform="scale(0.015625)"/>
      </defs>
      <use xlink:href="#ArialMT-63" transform="translate(0 0.51875)"/>
      <use xlink:href="#ArialMT-6f" transform="translate(50 0.51875)"/>
      <use xlink:href="#ArialMT-6e" transform="translate(105.615234 0.51875)"/>
      <use xlink:href="#ArialMT-74" transform="translate(161.230469 0.51875)"/>
      <use xlink:href="#ArialMT-72" transform="translate(189.013672 0.51875)"/>
      <use xlink:href="#ArialMT-61" transform="translate(222.314453 0.51875)"/>
      <use xlink:href="#ArialMT-63" transform="translate(277.929688 0.51875)"/>
      <use xlink:href="#ArialMT-74" transform="translate(327.929688 0.51875)"/>
      <use xlink:href="#ArialMT-69" transform="translate(355.712891 0.51875)"/>
      <use xlink:href="#ArialMT-6f" transform="translate(377.929688 0.51875)"/>
      <use xlink:href="#ArialMT-6e" transform="translate(433.544922 0.51875)"/>
      <use xlink:href="#ArialMT-20" transform="translate(489.160156 0.51875)"/>
      <use xlink:href="#ArialMT-65" transform="translate(516.943359 0.51875)"/>
      <use xlink:href="#ArialMT-73" transform="translate(572.558594 0.51875)"/>
      <use xlink:href="#ArialMT-74" transform="translate(622.558594 0.51875)"/>
      <use xlink:href="#ArialMT-69" transform="translate(650.341797 0.51875)"/>
      <use xlink:href="#ArialMT-6d" transform="translate(672.558594 0.51875)"/>
      <use xlink:href="#ArialMT-61" transform="translate(755.859375 0.51875)"/>
      <use xlink:href="#ArialMT-74" transform="translate(811.474609 0.51875)"/>
      <use xlink:href="#ArialMT-65" transform="translate(839.257812 0.51875)"/>
      <use xlink:href="#ArialMT-20" transform="translate(894.873047 0.51875)"/>
      <use xlink:href="#DejaVuSans-Oblique-3c4" transform="translate(922.65625 0.51875)"/>
      <use xlink:href="#DejaVuSans-Oblique-78" transform="translate(982.861328 -15.8875) scale(0.7)"/>
      <use xlink:href="#DejaVuSans-28" transform="translate(1027.021484 0.51875)"/>
      <use xlink:href="#DejaVuSans-Oblique-50" transform="translate(1066.035156 0.51875)"/>
      <use xlink:href="#DejaVuSans-Oblique-6e" transform="translate(1133.354661 38.8) scale(0.7)"/>
      <use xlink:href="#DejaVuSans-29" transform="translate(1180.454271 0.51875)"/>
     </g>
    </g>
   </g>
   <g id="line2d_12">
    <path d="M 73.832727 282.055347 
L 75.464165 281.941499 
L 78.727024 281.449313 
L 80.358445 281.349911 
L 81.989883 281.098158 
L 83.621304 281.043476 
L 85.252726 280.594588 
L 93.409882 279.248512 
L 101.567037 277.611659 
L 103.198459 277.559856 
L 104.829896 275.837597 
L 106.461318 273.389889 
L 108.092755 271.16448 
L 109.724192 270.110048 
L 116.249903 272.31344 
L 117.88134 273.228307 
L 119.512762 273.864985 
L 121.144191 272.147733 
L 122.775629 267.781156 
L 124.40705 261.395227 
L 126.038488 256.239217 
L 127.669909 252.885631 
L 130.932776 247.831173 
L 132.564198 245.921559 
L 134.195635 244.401495 
L 135.827057 241.833773 
L 137.458494 238.800727 
L 139.089924 233.841327 
L 140.721346 224.336488 
L 145.615642 190.25854 
L 148.878501 172.616184 
L 150.509931 162.399002 
L 152.14136 149.910978 
L 153.77279 134.397792 
L 155.404219 110.662396 
L 157.035641 66.190201 
L 158.667078 56.236114 
L 160.298515 71.77394 
L 161.929937 111.252384 
L 163.561374 179.636046 
L 165.192804 223.093892 
L 166.824234 251.192402 
L 168.455663 271.598315 
L 170.087085 289.339923 
L 171.718522 285.108331 
L 173.349952 267.161619 
L 174.981377 245.003258 
L 176.612811 214.105013 
L 178.244244 163.469226 
L 179.87567 97.348355 
L 181.507099 64.433579 
L 183.138525 53.568 
L 184.769958 70.759356 
L 186.401392 114.973843 
L 188.032817 136.424384 
L 191.295673 164.383347 
L 192.927106 181.019073 
L 194.558539 200.857409 
L 196.189965 218.200998 
L 197.821402 233.147767 
L 199.452832 241.265502 
L 201.084257 244.074876 
L 202.715691 245.568825 
L 204.347115 245.321421 
L 205.978544 244.767966 
L 207.609981 244.683148 
L 209.241401 245.761571 
L 210.872838 247.974485 
L 214.135696 253.658419 
L 215.767133 255.741831 
L 220.661419 261.210656 
L 222.292847 262.787522 
L 225.555704 266.333448 
L 230.449991 270.116892 
L 232.081428 271.903459 
L 233.712848 278.040654 
L 235.344285 286.218266 
L 236.97571 289.646547 
L 238.607147 284.372968 
L 240.238572 279.920514 
L 241.870004 277.989343 
L 243.501429 275.771671 
L 246.764291 270.336358 
L 250.027156 264.07257 
L 251.658585 263.031515 
L 253.290018 265.878985 
L 254.921443 270.609109 
L 256.552875 271.277324 
L 258.184299 270.503366 
L 259.815736 265.835643 
L 263.078595 265.316376 
L 264.710019 264.697053 
L 266.341456 264.805156 
L 267.97288 264.765262 
L 269.604313 264.374082 
L 271.235739 263.824408 
L 272.867176 263.506829 
L 274.498598 263.72808 
L 276.130031 262.970985 
L 277.761457 262.496131 
L 279.392894 262.339548 
L 281.02432 261.900603 
L 282.655753 261.875664 
L 284.287183 262.106405 
L 285.918608 262.620787 
L 287.550046 263.265099 
L 289.181471 265.499483 
L 290.812901 267.153057 
L 292.444326 269.328059 
L 294.075764 271.924472 
L 295.707189 275.728642 
L 297.338623 279.889252 
L 298.970048 285.597351 
L 300.601486 292.7331 
L 302.232907 291.57052 
L 303.864345 284.714463 
L 307.127204 275.53347 
L 308.758626 271.967854 
L 310.390063 268.978254 
L 312.021485 267.176903 
L 313.652914 265.712402 
L 315.284344 265.532405 
L 316.915781 264.899656 
L 318.54721 265.833845 
L 320.17864 268.870755 
L 321.810069 274.321502 
L 323.441499 273.494014 
L 325.072929 273.111968 
L 326.704358 275.741562 
L 328.335788 273.199672 
L 329.967217 267.653887 
L 331.598647 263.136967 
L 333.230076 262.569973 
L 334.861506 262.888113 
L 336.492935 262.907175 
L 338.124357 262.500132 
L 339.755802 262.807838 
L 341.387232 262.774895 
L 343.018653 263.513671 
L 344.650083 264.104717 
L 347.91295 264.918622 
L 349.544371 265.643544 
L 351.175801 266.076806 
L 352.807238 266.911985 
L 354.438668 267.225309 
L 356.07009 268.113035 
L 359.332956 269.219331 
L 360.964386 269.949467 
L 362.595808 271.36929 
L 364.227253 275.763195 
L 365.858674 279.532228 
L 367.490104 282.125423 
L 369.121526 283.167165 
L 370.752963 283.23457 
L 377.278681 282.571784 
L 378.910118 282.826405 
L 380.54154 282.708866 
L 387.067258 282.797204 
L 388.698696 283.181186 
L 390.330133 283.347253 
L 391.961555 283.304512 
L 393.592976 283.015817 
L 395.224429 283.327428 
L 396.855851 283.372452 
L 398.487273 283.586071 
L 398.487273 283.586071 
" clip-path="url(#p110b69fbd6)" style="fill: none; stroke: #0000ff; stroke-width: 1.5; stroke-linecap: round"/>
   </g>
   <g id="line2d_13">
    <path d="M 73.832727 295.12058 
L 83.621304 295.053927 
L 85.252726 294.768409 
L 86.884163 294.854407 
L 88.515601 295.171098 
L 91.77846 294.848062 
L 93.409882 295.207384 
L 95.041319 294.837295 
L 98.304178 295.292984 
L 99.9356 295.253788 
L 101.567037 294.916466 
L 103.198459 294.940881 
L 104.829896 294.495536 
L 106.461318 294.224614 
L 108.092755 293.059885 
L 109.724192 293.249203 
L 111.355614 293.065225 
L 112.987044 293.602647 
L 114.618473 293.642008 
L 116.249903 293.440448 
L 117.88134 293.455239 
L 119.512762 292.891525 
L 121.144191 291.257285 
L 122.775629 289.429403 
L 124.40705 286.963848 
L 126.038488 284.734062 
L 127.669909 282.8301 
L 129.301347 281.657905 
L 132.564198 278.478295 
L 134.195635 277.46516 
L 135.827057 274.946951 
L 139.089924 268.524218 
L 140.721346 264.149678 
L 142.352783 259.091005 
L 145.615642 247.681901 
L 148.878501 233.405919 
L 150.509931 225.682485 
L 152.14136 216.043976 
L 153.77279 204.614487 
L 155.404219 190.394567 
L 157.035641 165.389625 
L 158.667078 157.705781 
L 160.298515 163.773477 
L 161.929937 185.47203 
L 163.561374 221.780263 
L 165.192804 247.728696 
L 166.824234 266.177266 
L 168.455663 280.112693 
L 170.087085 291.970755 
L 171.718522 289.17303 
L 173.349952 276.181816 
L 174.981377 261.415049 
L 176.612811 241.905304 
L 178.244244 213.025997 
L 179.87567 178.489807 
L 181.507099 161.636866 
L 183.138525 158.952824 
L 184.769958 169.176335 
L 186.401392 193.259821 
L 188.032817 207.046941 
L 189.664247 217.385136 
L 192.927106 236.480083 
L 194.558539 246.23736 
L 196.189965 254.196339 
L 197.821402 260.934126 
L 199.452832 266.545786 
L 202.715691 272.946005 
L 205.978544 275.660021 
L 207.609981 275.096875 
L 209.241401 274.985396 
L 210.872838 276.226096 
L 214.135696 280.83155 
L 215.767133 283.258852 
L 217.398553 285.147283 
L 219.02999 286.737307 
L 220.661419 286.937463 
L 222.292847 287.901812 
L 223.924277 287.736491 
L 225.555704 289.231031 
L 227.187134 289.459609 
L 228.818571 288.768527 
L 230.449991 289.801498 
L 232.081428 290.564478 
L 233.712848 292.410101 
L 235.344285 292.361766 
L 236.97571 294.435204 
L 238.607147 295.214223 
L 240.238572 294.062087 
L 241.870004 294.405459 
L 243.501429 292.958357 
L 245.132866 290.333563 
L 248.395723 281.009365 
L 250.027156 280.887202 
L 253.290018 286.972432 
L 254.921443 290.957427 
L 256.552875 294.208323 
L 258.184299 293.90835 
L 259.815736 294.756035 
L 261.447162 294.511795 
L 263.078595 294.935191 
L 264.710019 295.15858 
L 267.97288 294.549194 
L 269.604313 295.008656 
L 274.498598 294.674616 
L 276.130031 294.165217 
L 277.761457 294.493218 
L 279.392894 293.325098 
L 281.02432 293.94881 
L 284.287183 292.863576 
L 285.918608 291.782038 
L 287.550046 293.605778 
L 290.812901 293.532971 
L 292.444326 293.214893 
L 294.075764 294.111309 
L 295.707189 293.660983 
L 297.338623 293.092218 
L 298.970048 294.667783 
L 300.601486 295.255254 
L 302.232907 294.882676 
L 303.864345 295.280146 
L 305.495766 294.780748 
L 307.127204 293.535843 
L 308.758626 293.069956 
L 310.390063 292.801989 
L 312.021485 293.86295 
L 313.652914 292.833086 
L 315.284344 293.616992 
L 316.915781 294.265787 
L 318.54721 294.452668 
L 320.17864 295.114585 
L 321.810069 291.862505 
L 323.441499 289.508504 
L 325.072929 289.003841 
L 326.704358 289.310291 
L 328.335788 291.865516 
L 329.967217 295.113887 
L 331.598647 294.071519 
L 334.861506 295.091095 
L 336.492935 294.633558 
L 338.124357 294.929958 
L 339.755802 294.245161 
L 341.387232 295.01267 
L 343.018653 294.467048 
L 344.650083 294.692265 
L 346.28152 294.527954 
L 347.91295 293.226323 
L 349.544371 293.865436 
L 351.175801 294.013576 
L 354.438668 293.264918 
L 356.07009 292.608144 
L 357.701535 292.235569 
L 359.332956 293.35117 
L 360.964386 293.108489 
L 362.595808 293.385474 
L 364.227253 293.79686 
L 365.858674 294.581326 
L 367.490104 294.741727 
L 369.121526 294.527453 
L 370.752963 295.121139 
L 372.3844 295.221028 
L 374.015822 294.835283 
L 375.647244 294.663809 
L 377.278681 294.324086 
L 378.910118 294.144413 
L 382.172962 295.259734 
L 385.435837 295.202143 
L 387.067258 293.940978 
L 388.698696 293.88922 
L 393.592976 294.803666 
L 395.224429 294.179044 
L 396.855851 294.277393 
L 398.487273 294.767643 
L 398.487273 294.767643 
" clip-path="url(#p110b69fbd6)" style="fill: none; stroke: #0000cd; stroke-width: 1.5; stroke-linecap: round"/>
   </g>
   <g id="line2d_14">
    <path d="M 73.832727 295.142924 
L 77.095586 295.012549 
L 80.358445 295.114633 
L 81.989883 295.428788 
L 83.621304 295.34193 
L 85.252726 295.468172 
L 86.884163 295.378661 
L 88.515601 294.961265 
L 91.77846 295.393505 
L 93.409882 295.024789 
L 95.041319 295.315169 
L 96.672756 294.141698 
L 98.304178 294.907463 
L 103.198459 295.166314 
L 104.829896 294.781489 
L 106.461318 295.444339 
L 108.092755 294.638748 
L 109.724192 295.015489 
L 111.355614 294.319897 
L 112.987044 294.464758 
L 114.618473 294.789694 
L 116.249903 294.621431 
L 117.88134 295.381459 
L 119.512762 294.42418 
L 121.144191 293.081037 
L 122.775629 292.009781 
L 126.038488 291.649298 
L 127.669909 290.88687 
L 129.301347 289.571205 
L 132.564198 289.356891 
L 134.195635 287.537787 
L 135.827057 287.139899 
L 137.458494 285.696707 
L 139.089924 284.702393 
L 140.721346 282.859771 
L 142.352783 281.533434 
L 143.98422 278.712791 
L 145.615642 276.573653 
L 147.247071 273.262373 
L 148.878501 270.25704 
L 150.509931 267.682637 
L 152.14136 264.548525 
L 153.77279 259.81289 
L 155.404219 253.883718 
L 157.035641 243.460692 
L 158.667078 240.340188 
L 160.298515 244.003014 
L 161.929937 251.43071 
L 163.561374 266.540522 
L 165.192804 276.325531 
L 166.824234 284.157677 
L 170.087085 294.729605 
L 171.718522 292.468918 
L 173.349952 287.722354 
L 174.981377 282.590824 
L 176.612811 274.857286 
L 178.244244 263.653172 
L 179.87567 249.856177 
L 181.507099 242.091679 
L 183.138525 241.026346 
L 184.769958 245.234835 
L 186.401392 254.335084 
L 188.032817 260.080898 
L 189.664247 264.854013 
L 191.295673 267.675993 
L 194.558539 275.250013 
L 197.821402 281.713475 
L 199.452832 283.968172 
L 201.084257 284.394592 
L 204.347115 286.575986 
L 205.978544 287.471556 
L 207.609981 287.079786 
L 209.241401 286.039223 
L 212.504258 287.802104 
L 214.135696 289.058395 
L 215.767133 290.965703 
L 217.398553 291.380281 
L 219.02999 292.505395 
L 220.661419 290.964104 
L 222.292847 291.875743 
L 223.924277 292.20055 
L 225.555704 293.480437 
L 227.187134 293.493508 
L 228.818571 291.920172 
L 230.449991 291.701469 
L 232.081428 292.034325 
L 233.712848 293.092479 
L 235.344285 293.970928 
L 236.97571 295.129367 
L 238.607147 295.230592 
L 240.238572 294.82597 
L 241.870004 294.697188 
L 243.501429 294.084884 
L 245.132866 292.664343 
L 246.764291 292.165479 
L 248.395723 290.817584 
L 250.027156 290.936213 
L 251.658585 290.632306 
L 253.290018 292.326977 
L 254.921443 293.256968 
L 256.552875 295.244585 
L 259.815736 295.46184 
L 261.447162 295.123422 
L 263.078595 294.444278 
L 264.710019 295.174397 
L 266.341456 294.907627 
L 267.97288 294.393812 
L 269.604313 295.161561 
L 271.235739 294.227818 
L 272.867176 294.947166 
L 274.498598 294.456488 
L 276.130031 295.022464 
L 277.761457 294.527496 
L 279.392894 294.342424 
L 281.02432 294.480764 
L 282.655753 294.085826 
L 284.287183 294.189481 
L 285.918608 293.479569 
L 287.550046 294.363619 
L 289.181471 293.656166 
L 290.812901 293.334137 
L 292.444326 295.45872 
L 294.075764 294.353003 
L 295.707189 294.085081 
L 297.338623 294.752003 
L 298.970048 295.255637 
L 300.601486 294.77876 
L 302.232907 295.179083 
L 303.864345 294.522152 
L 305.495766 295.222427 
L 308.758626 294.923392 
L 310.390063 295.252304 
L 312.021485 295.168809 
L 313.652914 295.264351 
L 315.284344 295.186356 
L 318.54721 294.211598 
L 320.17864 294.377272 
L 321.810069 293.132777 
L 325.072929 291.776697 
L 326.704358 292.759445 
L 328.335788 292.62318 
L 329.967217 295.053303 
L 331.598647 294.828707 
L 334.861506 295.268345 
L 338.124357 293.369317 
L 339.755802 293.106584 
L 341.387232 293.397881 
L 343.018653 294.241794 
L 344.650083 294.645425 
L 346.28152 295.273679 
L 347.91295 293.870197 
L 349.544371 292.76293 
L 351.175801 293.140798 
L 352.807238 294.156796 
L 354.438668 293.852303 
L 356.07009 293.798122 
L 357.701535 293.317963 
L 359.332956 295.260286 
L 360.964386 295.051758 
L 362.595808 293.721445 
L 364.227253 294.218775 
L 365.858674 295.348096 
L 367.490104 294.874087 
L 369.121526 294.917458 
L 372.3844 295.488 
L 374.015822 295.048626 
L 375.647244 294.798441 
L 377.278681 295.011098 
L 378.910118 295.022296 
L 380.54154 294.25697 
L 382.172962 295.249477 
L 383.804415 294.429646 
L 385.435837 294.254555 
L 387.067258 293.182593 
L 388.698696 294.004044 
L 390.330133 294.294174 
L 391.961555 294.921029 
L 393.592976 295.288157 
L 395.224429 294.957444 
L 396.855851 294.32241 
L 398.487273 295.27982 
L 398.487273 295.27982 
" clip-path="url(#p110b69fbd6)" style="fill: none; stroke: #00008b; stroke-width: 1.5; stroke-linecap: round"/>
   </g>
   <g id="patch_3">
    <path d="M 57.6 307.584 
L 57.6 41.472 
" style="fill: none; stroke: #ffffff; stroke-width: 0.8; stroke-linejoin: miter; stroke-linecap: square"/>
   </g>
   <g id="patch_4">
    <path d="M 414.72 307.584 
L 414.72 41.472 
" style="fill: none; stroke: #ffffff; stroke-width: 0.8; stroke-linejoin: miter; stroke-linecap: square"/>
   </g>
   <g id="patch_5">
    <path d="M 57.6 307.584 
L 414.72 307.584 
" style="fill: none; stroke: #ffffff; stroke-width: 0.8; stroke-linejoin: miter; stroke-linecap: square"/>
   </g>
   <g id="patch_6">
    <path d="M 57.6 41.472 
L 414.72 41.472 
" style="fill: none; stroke: #ffffff; stroke-width: 0.8; stroke-linejoin: miter; stroke-linecap: square"/>
   </g>
   <g id="text_14">
    <!-- $\mu = 1, \sigma^2=1$ -->
    <g style="fill: #262626" transform="translate(199.98 35.472) scale(0.12 -0.12)">
     <defs>
      <path id="DejaVuSans-Oblique-3bc" d="M -84 -1331 
L 856 3500 
L 1434 3500 
L 1009 1322 
Q 997 1256 987 1175 
Q 978 1094 978 1013 
Q 978 722 1161 565 
Q 1344 409 1684 409 
Q 2147 409 2431 671 
Q 2716 934 2816 1459 
L 3213 3500 
L 3788 3500 
L 3266 809 
Q 3253 750 3248 706 
Q 3244 663 3244 628 
Q 3244 531 3283 486 
Q 3322 441 3406 441 
Q 3438 441 3492 456 
Q 3547 472 3647 513 
L 3559 50 
Q 3422 -19 3297 -55 
Q 3172 -91 3053 -91 
Q 2847 -91 2730 40 
Q 2613 172 2613 403 
Q 2438 153 2195 31 
Q 1953 -91 1625 -91 
Q 1334 -91 1117 43 
Q 900 178 831 397 
L 494 -1331 
L -84 -1331 
z
" transform="scale(0.015625)"/>
      <path id="DejaVuSans-3d" d="M 678 2906 
L 4684 2906 
L 4684 2381 
L 678 2381 
L 678 2906 
z
M 678 1631 
L 4684 1631 
L 4684 1100 
L 678 1100 
L 678 1631 
z
" transform="scale(0.015625)"/>
      <path id="DejaVuSans-31" d="M 794 531 
L 1825 531 
L 1825 4091 
L 703 3866 
L 703 4441 
L 1819 4666 
L 2450 4666 
L 2450 531 
L 3481 531 
L 3481 0 
L 794 0 
L 794 531 
z
" transform="scale(0.015625)"/>
      <path id="DejaVuSans-2c" d="M 750 794 
L 1409 794 
L 1409 256 
L 897 -744 
L 494 -744 
L 750 256 
L 750 794 
z
" transform="scale(0.015625)"/>
      <path id="DejaVuSans-Oblique-3c3" d="M 2219 3044 
Q 1744 3044 1422 2700 
Q 1081 2341 969 1747 
Q 844 1119 1044 756 
Q 1241 397 1706 397 
Q 2166 397 2503 759 
Q 2844 1122 2966 1747 
Q 3075 2319 2881 2700 
Q 2700 3044 2219 3044 
z
M 2309 3503 
L 4219 3500 
L 4106 2925 
L 3463 2925 
Q 3706 2438 3575 1747 
Q 3406 888 2884 400 
Q 2359 -91 1609 -91 
Q 856 -91 525 400 
Q 194 888 363 1747 
Q 528 2609 1050 3097 
Q 1484 3503 2309 3503 
z
" transform="scale(0.015625)"/>
      <path id="DejaVuSans-32" d="M 1228 531 
L 3431 531 
L 3431 0 
L 469 0 
L 469 531 
Q 828 903 1448 1529 
Q 2069 2156 2228 2338 
Q 2531 2678 2651 2914 
Q 2772 3150 2772 3378 
Q 2772 3750 2511 3984 
Q 2250 4219 1831 4219 
Q 1534 4219 1204 4116 
Q 875 4013 500 3803 
L 500 4441 
Q 881 4594 1212 4672 
Q 1544 4750 1819 4750 
Q 2544 4750 2975 4387 
Q 3406 4025 3406 3419 
Q 3406 3131 3298 2873 
Q 3191 2616 2906 2266 
Q 2828 2175 2409 1742 
Q 1991 1309 1228 531 
z
" transform="scale(0.015625)"/>
     </defs>
     <use xlink:href="#DejaVuSans-Oblique-3bc" transform="translate(0 0.765625)"/>
     <use xlink:href="#DejaVuSans-3d" transform="translate(83.105469 0.765625)"/>
     <use xlink:href="#DejaVuSans-31" transform="translate(186.376953 0.765625)"/>
     <use xlink:href="#DejaVuSans-2c" transform="translate(250 0.765625)"/>
     <use xlink:href="#DejaVuSans-Oblique-3c3" transform="translate(301.269531 0.765625)"/>
     <use xlink:href="#DejaVuSans-32" transform="translate(369.121146 39.046875) scale(0.7)"/>
     <use xlink:href="#DejaVuSans-3d" transform="translate(435.874076 0.765625)"/>
     <use xlink:href="#DejaVuSans-31" transform="translate(539.14556 0.765625)"/>
    </g>
   </g>
   <g id="legend_1">
    <g id="patch_7">
     <path d="M 346.82 91.907938 
L 407.72 91.907938 
Q 409.72 91.907938 409.72 89.907938 
L 409.72 48.472 
Q 409.72 46.472 407.72 46.472 
L 346.82 46.472 
Q 344.82 46.472 344.82 48.472 
L 344.82 89.907938 
Q 344.82 91.907938 346.82 91.907938 
z
" style="fill: #eaeaf2; opacity: 0.8; stroke: #cccccc; stroke-linejoin: miter"/>
    </g>
    <g id="line2d_15">
     <path d="M 348.82 54.129813 
L 358.82 54.129813 
L 368.82 54.129813 
" style="fill: none; stroke: #0000ff; stroke-width: 1.5; stroke-linecap: round"/>
    </g>
    <g id="text_15">
     <!-- $n$ = 1 -->
     <g style="fill: #262626" transform="translate(376.82 57.629813) scale(0.1 -0.1)">
      <defs>
       <path id="ArialMT-3d" d="M 3381 2694 
L 356 2694 
L 356 3219 
L 3381 3219 
L 3381 2694 
z
M 3381 1303 
L 356 1303 
L 356 1828 
L 3381 1828 
L 3381 1303 
z
" transform="scale(0.015625)"/>
      </defs>
      <use xlink:href="#DejaVuSans-Oblique-6e" transform="translate(0 0.125)"/>
      <use xlink:href="#ArialMT-20" transform="translate(63.378906 0.125)"/>
      <use xlink:href="#ArialMT-3d" transform="translate(91.162109 0.125)"/>
      <use xlink:href="#ArialMT-20" transform="translate(149.560547 0.125)"/>
      <use xlink:href="#ArialMT-31" transform="translate(177.34375 0.125)"/>
     </g>
    </g>
    <g id="line2d_16">
     <path d="M 348.82 68.275125 
L 358.82 68.275125 
L 368.82 68.275125 
" style="fill: none; stroke: #0000cd; stroke-width: 1.5; stroke-linecap: round"/>
    </g>
    <g id="text_16">
     <!-- $n$ = 5 -->
     <g style="fill: #262626" transform="translate(376.82 71.775125) scale(0.1 -0.1)">
      <use xlink:href="#DejaVuSans-Oblique-6e" transform="translate(0 0.390625)"/>
      <use xlink:href="#ArialMT-20" transform="translate(63.378906 0.390625)"/>
      <use xlink:href="#ArialMT-3d" transform="translate(91.162109 0.390625)"/>
      <use xlink:href="#ArialMT-20" transform="translate(149.560547 0.390625)"/>
      <use xlink:href="#ArialMT-35" transform="translate(177.34375 0.390625)"/>
     </g>
    </g>
    <g id="line2d_17">
     <path d="M 348.82 82.420437 
L 358.82 82.420437 
L 368.82 82.420437 
" style="fill: none; stroke: #00008b; stroke-width: 1.5; stroke-linecap: round"/>
    </g>
    <g id="text_17">
     <!-- $n$ = 10 -->
     <g style="fill: #262626" transform="translate(376.82 85.920437) scale(0.1 -0.1)">
      <use xlink:href="#DejaVuSans-Oblique-6e" transform="translate(0 0.125)"/>
      <use xlink:href="#ArialMT-20" transform="translate(63.378906 0.125)"/>
      <use xlink:href="#ArialMT-3d" transform="translate(91.162109 0.125)"/>
      <use xlink:href="#ArialMT-20" transform="translate(149.560547 0.125)"/>
      <use xlink:href="#ArialMT-31" transform="translate(177.34375 0.125)"/>
      <use xlink:href="#ArialMT-30" transform="translate(232.958984 0.125)"/>
     </g>
    </g>
   </g>
  </g>
 </g>
 <defs>
  <clipPath id="p110b69fbd6">
   <rect x="57.6" y="41.472" width="357.12" height="266.112"/>
  </clipPath>
 </defs>
</svg>
