<?xml version="1.0" encoding="utf-8" standalone="no"?>
<!DOCTYPE svg PUBLIC "-//W3C//DTD SVG 1.1//EN"
  "http://www.w3.org/Graphics/SVG/1.1/DTD/svg11.dtd">
<svg xmlns:xlink="http://www.w3.org/1999/xlink" width="460.8pt" height="345.6pt" viewBox="0 0 460.8 345.6" xmlns="http://www.w3.org/2000/svg" version="1.1">
 <metadata>
  <rdf:RDF xmlns:dc="http://purl.org/dc/elements/1.1/" xmlns:cc="http://creativecommons.org/ns#" xmlns:rdf="http://www.w3.org/1999/02/22-rdf-syntax-ns#">
   <cc:Work>
    <dc:type rdf:resource="http://purl.org/dc/dcmitype/StillImage"/>
    <dc:date>2025-04-11T13:22:45.468810</dc:date>
    <dc:format>image/svg+xml</dc:format>
    <dc:creator>
     <cc:Agent>
      <dc:title>Matplotlib v3.10.1, https://matplotlib.org/</dc:title>
     </cc:Agent>
    </dc:creator>
   </cc:Work>
  </rdf:RDF>
 </metadata>
 <defs>
  <style type="text/css">*{stroke-linejoin: round; stroke-linecap: butt}</style>
 </defs>
 <g id="figure_1">
  <g id="patch_1">
   <path d="M 0 345.6 
L 460.8 345.6 
L 460.8 0 
L 0 0 
z
" style="fill: #ffffff"/>
  </g>
  <g id="axes_1">
   <g id="patch_2">
    <path d="M 57.6 307.584 
L 414.72 307.584 
L 414.72 41.472 
L 57.6 41.472 
z
" style="fill: #eaeaf2"/>
   </g>
   <g id="matplotlib.axis_1">
    <g id="xtick_1">
     <g id="line2d_1">
      <path d="M 106.298182 307.584 
L 106.298182 41.472 
" clip-path="url(#p597cb85f12)" style="fill: none; stroke: #ffffff; stroke-width: 0.8; stroke-linecap: round"/>
     </g>
     <g id="text_1">
      <!-- −4 -->
      <g style="fill: #262626" transform="translate(100.597401 321.741812) scale(0.1 -0.1)">
       <defs>
        <path id="ArialMT-2212" d="M 3381 1997 
L 356 1997 
L 356 2522 
L 3381 2522 
L 3381 1997 
z
" transform="scale(0.015625)"/>
        <path id="ArialMT-34" d="M 2069 0 
L 2069 1097 
L 81 1097 
L 81 1613 
L 2172 4581 
L 2631 4581 
L 2631 1613 
L 3250 1613 
L 3250 1097 
L 2631 1097 
L 2631 0 
L 2069 0 
z
M 2069 1613 
L 2069 3678 
L 634 1613 
L 2069 1613 
z
" transform="scale(0.015625)"/>
       </defs>
       <use xlink:href="#ArialMT-2212"/>
       <use xlink:href="#ArialMT-34" transform="translate(58.398438 0)"/>
      </g>
     </g>
    </g>
    <g id="xtick_2">
     <g id="line2d_2">
      <path d="M 171.229091 307.584 
L 171.229091 41.472 
" clip-path="url(#p597cb85f12)" style="fill: none; stroke: #ffffff; stroke-width: 0.8; stroke-linecap: round"/>
     </g>
     <g id="text_2">
      <!-- −2 -->
      <g style="fill: #262626" transform="translate(165.52831 321.741812) scale(0.1 -0.1)">
       <defs>
        <path id="ArialMT-32" d="M 3222 541 
L 3222 0 
L 194 0 
Q 188 203 259 391 
Q 375 700 629 1000 
Q 884 1300 1366 1694 
Q 2113 2306 2375 2664 
Q 2638 3022 2638 3341 
Q 2638 3675 2398 3904 
Q 2159 4134 1775 4134 
Q 1369 4134 1125 3890 
Q 881 3647 878 3216 
L 300 3275 
Q 359 3922 746 4261 
Q 1134 4600 1788 4600 
Q 2447 4600 2831 4234 
Q 3216 3869 3216 3328 
Q 3216 3053 3103 2787 
Q 2991 2522 2730 2228 
Q 2469 1934 1863 1422 
Q 1356 997 1212 845 
Q 1069 694 975 541 
L 3222 541 
z
" transform="scale(0.015625)"/>
       </defs>
       <use xlink:href="#ArialMT-2212"/>
       <use xlink:href="#ArialMT-32" transform="translate(58.398438 0)"/>
      </g>
     </g>
    </g>
    <g id="xtick_3">
     <g id="line2d_3">
      <path d="M 236.16 307.584 
L 236.16 41.472 
" clip-path="url(#p597cb85f12)" style="fill: none; stroke: #ffffff; stroke-width: 0.8; stroke-linecap: round"/>
     </g>
     <g id="text_3">
      <!-- 0 -->
      <g style="fill: #262626" transform="translate(233.379531 321.741812) scale(0.1 -0.1)">
       <defs>
        <path id="ArialMT-30" d="M 266 2259 
Q 266 3072 433 3567 
Q 600 4063 929 4331 
Q 1259 4600 1759 4600 
Q 2128 4600 2406 4451 
Q 2684 4303 2865 4023 
Q 3047 3744 3150 3342 
Q 3253 2941 3253 2259 
Q 3253 1453 3087 958 
Q 2922 463 2592 192 
Q 2263 -78 1759 -78 
Q 1097 -78 719 397 
Q 266 969 266 2259 
z
M 844 2259 
Q 844 1131 1108 757 
Q 1372 384 1759 384 
Q 2147 384 2411 759 
Q 2675 1134 2675 2259 
Q 2675 3391 2411 3762 
Q 2147 4134 1753 4134 
Q 1366 4134 1134 3806 
Q 844 3388 844 2259 
z
" transform="scale(0.015625)"/>
       </defs>
       <use xlink:href="#ArialMT-30"/>
      </g>
     </g>
    </g>
    <g id="xtick_4">
     <g id="line2d_4">
      <path d="M 301.090909 307.584 
L 301.090909 41.472 
" clip-path="url(#p597cb85f12)" style="fill: none; stroke: #ffffff; stroke-width: 0.8; stroke-linecap: round"/>
     </g>
     <g id="text_4">
      <!-- 2 -->
      <g style="fill: #262626" transform="translate(298.31044 321.741812) scale(0.1 -0.1)">
       <use xlink:href="#ArialMT-32"/>
      </g>
     </g>
    </g>
    <g id="xtick_5">
     <g id="line2d_5">
      <path d="M 366.021818 307.584 
L 366.021818 41.472 
" clip-path="url(#p597cb85f12)" style="fill: none; stroke: #ffffff; stroke-width: 0.8; stroke-linecap: round"/>
     </g>
     <g id="text_5">
      <!-- 4 -->
      <g style="fill: #262626" transform="translate(363.241349 321.741812) scale(0.1 -0.1)">
       <use xlink:href="#ArialMT-34"/>
      </g>
     </g>
    </g>
    <g id="text_6">
     <!-- $x$ -->
     <g style="fill: #262626" transform="translate(233.16 334.887125) scale(0.1 -0.1)">
      <defs>
       <path id="DejaVuSans-Oblique-78" d="M 3841 3500 
L 2234 1784 
L 3219 0 
L 2559 0 
L 1819 1388 
L 531 0 
L -166 0 
L 1556 1844 
L 641 3500 
L 1300 3500 
L 1972 2234 
L 3144 3500 
L 3841 3500 
z
" transform="scale(0.015625)"/>
      </defs>
      <use xlink:href="#DejaVuSans-Oblique-78" transform="translate(0 0.3125)"/>
     </g>
    </g>
   </g>
   <g id="matplotlib.axis_2">
    <g id="ytick_1">
     <g id="line2d_6">
      <path d="M 57.6 271.296 
L 414.72 271.296 
" clip-path="url(#p597cb85f12)" style="fill: none; stroke: #ffffff; stroke-width: 0.8; stroke-linecap: round"/>
     </g>
     <g id="text_7">
      <!-- −4 -->
      <g style="fill: #262626" transform="translate(39.198437 274.874906) scale(0.1 -0.1)">
       <use xlink:href="#ArialMT-2212"/>
       <use xlink:href="#ArialMT-34" transform="translate(58.398438 0)"/>
      </g>
     </g>
    </g>
    <g id="ytick_2">
     <g id="line2d_7">
      <path d="M 57.6 222.912 
L 414.72 222.912 
" clip-path="url(#p597cb85f12)" style="fill: none; stroke: #ffffff; stroke-width: 0.8; stroke-linecap: round"/>
     </g>
     <g id="text_8">
      <!-- −2 -->
      <g style="fill: #262626" transform="translate(39.198437 226.490906) scale(0.1 -0.1)">
       <use xlink:href="#ArialMT-2212"/>
       <use xlink:href="#ArialMT-32" transform="translate(58.398438 0)"/>
      </g>
     </g>
    </g>
    <g id="ytick_3">
     <g id="line2d_8">
      <path d="M 57.6 174.528 
L 414.72 174.528 
" clip-path="url(#p597cb85f12)" style="fill: none; stroke: #ffffff; stroke-width: 0.8; stroke-linecap: round"/>
     </g>
     <g id="text_9">
      <!-- 0 -->
      <g style="fill: #262626" transform="translate(45.039062 178.106906) scale(0.1 -0.1)">
       <use xlink:href="#ArialMT-30"/>
      </g>
     </g>
    </g>
    <g id="ytick_4">
     <g id="line2d_9">
      <path d="M 57.6 126.144 
L 414.72 126.144 
" clip-path="url(#p597cb85f12)" style="fill: none; stroke: #ffffff; stroke-width: 0.8; stroke-linecap: round"/>
     </g>
     <g id="text_10">
      <!-- 2 -->
      <g style="fill: #262626" transform="translate(45.039062 129.722906) scale(0.1 -0.1)">
       <use xlink:href="#ArialMT-32"/>
      </g>
     </g>
    </g>
    <g id="ytick_5">
     <g id="line2d_10">
      <path d="M 57.6 77.76 
L 414.72 77.76 
" clip-path="url(#p597cb85f12)" style="fill: none; stroke: #ffffff; stroke-width: 0.8; stroke-linecap: round"/>
     </g>
     <g id="text_11">
      <!-- 4 -->
      <g style="fill: #262626" transform="translate(45.039062 81.338906) scale(0.1 -0.1)">
       <use xlink:href="#ArialMT-34"/>
      </g>
     </g>
    </g>
    <g id="text_12">
     <!-- $x_{next}$ -->
     <g style="fill: #262626" transform="translate(33.210938 185.478) rotate(-90) scale(0.1 -0.1)">
      <defs>
       <path id="DejaVuSans-Oblique-6e" d="M 3566 2113 
L 3156 0 
L 2578 0 
L 2988 2091 
Q 3016 2238 3031 2350 
Q 3047 2463 3047 2528 
Q 3047 2791 2881 2937 
Q 2716 3084 2419 3084 
Q 1956 3084 1622 2776 
Q 1288 2469 1184 1941 
L 800 0 
L 225 0 
L 903 3500 
L 1478 3500 
L 1363 2950 
Q 1603 3253 1940 3418 
Q 2278 3584 2650 3584 
Q 3113 3584 3367 3334 
Q 3622 3084 3622 2631 
Q 3622 2519 3608 2391 
Q 3594 2263 3566 2113 
z
" transform="scale(0.015625)"/>
       <path id="DejaVuSans-Oblique-65" d="M 3078 2063 
Q 3088 2113 3092 2166 
Q 3097 2219 3097 2272 
Q 3097 2653 2873 2875 
Q 2650 3097 2266 3097 
Q 1838 3097 1509 2826 
Q 1181 2556 1013 2059 
L 3078 2063 
z
M 3578 1613 
L 903 1613 
Q 884 1494 878 1425 
Q 872 1356 872 1306 
Q 872 872 1139 634 
Q 1406 397 1894 397 
Q 2269 397 2603 481 
Q 2938 566 3225 728 
L 3116 159 
Q 2806 34 2476 -28 
Q 2147 -91 1806 -91 
Q 1078 -91 686 257 
Q 294 606 294 1247 
Q 294 1794 489 2264 
Q 684 2734 1063 3103 
Q 1306 3334 1642 3459 
Q 1978 3584 2356 3584 
Q 2950 3584 3301 3228 
Q 3653 2872 3653 2272 
Q 3653 2128 3634 1964 
Q 3616 1800 3578 1613 
z
" transform="scale(0.015625)"/>
       <path id="DejaVuSans-Oblique-74" d="M 2706 3500 
L 2619 3053 
L 1472 3053 
L 1100 1153 
Q 1081 1047 1072 975 
Q 1063 903 1063 863 
Q 1063 663 1183 572 
Q 1303 481 1569 481 
L 2150 481 
L 2053 0 
L 1503 0 
Q 991 0 739 200 
Q 488 400 488 806 
Q 488 878 497 964 
Q 506 1050 525 1153 
L 897 3053 
L 409 3053 
L 500 3500 
L 978 3500 
L 1172 4494 
L 1747 4494 
L 1556 3500 
L 2706 3500 
z
" transform="scale(0.015625)"/>
      </defs>
      <use xlink:href="#DejaVuSans-Oblique-78" transform="translate(0 0.3125)"/>
      <use xlink:href="#DejaVuSans-Oblique-6e" transform="translate(59.179688 -16.09375) scale(0.7)"/>
      <use xlink:href="#DejaVuSans-Oblique-65" transform="translate(103.544922 -16.09375) scale(0.7)"/>
      <use xlink:href="#DejaVuSans-Oblique-78" transform="translate(146.611328 -16.09375) scale(0.7)"/>
      <use xlink:href="#DejaVuSans-Oblique-74" transform="translate(188.037109 -16.09375) scale(0.7)"/>
     </g>
    </g>
   </g>
   <g id="FillBetweenPolyCollection_1">
    <defs>
     <path id="m9a5f450dd7" d="M 73.832727 -187.232648 
L 73.832727 -154.38177 
L 77.112073 -154.671532 
L 80.391404 -154.470107 
L 83.670734 -154.570152 
L 86.95008 -154.603522 
L 90.229426 -154.610099 
L 93.508757 -154.353001 
L 96.788103 -154.536243 
L 100.067434 -154.58052 
L 103.34678 -154.639368 
L 106.62611 -154.66915 
L 109.905456 -154.79296 
L 113.184795 -154.588379 
L 116.464133 -154.618405 
L 119.743479 -154.647398 
L 123.022809 -154.758454 
L 126.302148 -154.728113 
L 129.581486 -154.645179 
L 132.860824 -154.717625 
L 136.140163 -154.682339 
L 139.419493 -154.556327 
L 142.698847 -154.898363 
L 145.978178 -154.837991 
L 149.257516 -155.005202 
L 152.536862 -154.988086 
L 155.816192 -154.744382 
L 159.095538 -154.996696 
L 162.374869 -154.814846 
L 165.654215 -154.845693 
L 168.933553 -155.054045 
L 172.212892 -154.795644 
L 175.492234 -154.821634 
L 178.771564 -154.850271 
L 182.050914 -155.026337 
L 185.330245 -154.970925 
L 188.609583 -154.898675 
L 191.888925 -155.088166 
L 195.168256 -155.139716 
L 198.447606 -155.037244 
L 201.726936 -154.98833 
L 205.006277 -154.954397 
L 208.285621 -155.166055 
L 211.564957 -155.074809 
L 214.844301 -155.133674 
L 218.123628 -155.148079 
L 221.402982 -155.265073 
L 224.682308 -155.470045 
L 227.961652 -155.36838 
L 231.240996 -155.601387 
L 234.520323 -155.518489 
L 237.799667 -155.736683 
L 241.079004 -155.470674 
L 244.358348 -155.882499 
L 247.637684 -155.68223 
L 250.917028 -155.847536 
L 254.196364 -155.74087 
L 257.475699 -155.754074 
L 260.755035 -155.694421 
L 264.034379 -155.526035 
L 267.313716 -155.603928 
L 270.59306 -155.312716 
L 273.872394 -155.52571 
L 277.151733 -155.725635 
L 280.431067 -155.628243 
L 283.710409 -155.880313 
L 286.989755 -155.64296 
L 290.269093 -155.560603 
L 293.548424 -155.742448 
L 296.827762 -155.576185 
L 300.107108 -155.619187 
L 303.386439 -155.627114 
L 306.665785 -155.673956 
L 309.945123 -155.441949 
L 313.224462 -155.376037 
L 316.503792 -155.386422 
L 319.783138 -155.425045 
L 323.062476 -155.247639 
L 326.341815 -155.484114 
L 329.621153 -155.364576 
L 332.900491 -155.437272 
L 336.179822 -155.236336 
L 339.459168 -155.20041 
L 342.738514 -155.274742 
L 346.01786 -155.289838 
L 349.297191 -155.174205 
L 352.576521 -155.235331 
L 355.855867 -154.900079 
L 359.135213 -155.321401 
L 362.414536 -155.075341 
L 365.693882 -155.048912 
L 368.97322 -155.219651 
L 372.252566 -155.104325 
L 375.531881 -154.946892 
L 378.811227 -155.089951 
L 382.090574 -155.161857 
L 385.36992 -154.947244 
L 388.649266 -154.98513 
L 391.928581 -154.897136 
L 395.207927 -154.920167 
L 398.487273 -155.056579 
L 398.487273 -187.529319 
L 398.487273 -187.529319 
L 395.207927 -187.579751 
L 391.928581 -187.654218 
L 388.649266 -187.542074 
L 385.36992 -187.576377 
L 382.090574 -187.757179 
L 378.811227 -187.587259 
L 375.531881 -187.576191 
L 372.252566 -187.635214 
L 368.97322 -187.73781 
L 365.693882 -187.311756 
L 362.414536 -187.404269 
L 359.135213 -187.484301 
L 355.855867 -187.417922 
L 352.576521 -187.446258 
L 349.297191 -187.72058 
L 346.01786 -187.378738 
L 342.738514 -187.504784 
L 339.459168 -187.443652 
L 336.179822 -187.493189 
L 332.900491 -187.465619 
L 329.621153 -187.62585 
L 326.341815 -187.393172 
L 323.062476 -187.197819 
L 319.783138 -187.361251 
L 316.503792 -187.238938 
L 313.224462 -187.15313 
L 309.945123 -187.366105 
L 306.665785 -187.303136 
L 303.386439 -187.226558 
L 300.107108 -187.006568 
L 296.827762 -187.051691 
L 293.548424 -187.025365 
L 290.269093 -187.087499 
L 286.989755 -187.107225 
L 283.710409 -187.049364 
L 280.431067 -187.030535 
L 277.151733 -187.081462 
L 273.872394 -186.987899 
L 270.59306 -187.062641 
L 267.313716 -187.26346 
L 264.034379 -186.872453 
L 260.755035 -186.858358 
L 257.475699 -187.122178 
L 254.196364 -186.877134 
L 250.917028 -186.918685 
L 247.637684 -186.683462 
L 244.358348 -186.633524 
L 241.079004 -186.545331 
L 237.799667 -186.407973 
L 234.520323 -186.637668 
L 231.240996 -186.455874 
L 227.961652 -186.387378 
L 224.682308 -186.515321 
L 221.402982 -186.444018 
L 218.123628 -186.43982 
L 214.844301 -186.488294 
L 211.564957 -186.558297 
L 208.285621 -186.567505 
L 205.006277 -186.72593 
L 201.726936 -186.70281 
L 198.447606 -186.474134 
L 195.168256 -186.719635 
L 191.888925 -186.559742 
L 188.609583 -186.427323 
L 185.330245 -186.26122 
L 182.050914 -186.377404 
L 178.771564 -186.353483 
L 175.492234 -186.113787 
L 172.212892 -186.297266 
L 168.933553 -186.635664 
L 165.654215 -186.595263 
L 162.374869 -186.567996 
L 159.095538 -186.675756 
L 155.816192 -186.540482 
L 152.536862 -186.844851 
L 149.257516 -186.879912 
L 145.978178 -186.766167 
L 142.698847 -186.788942 
L 139.419493 -186.640444 
L 136.140163 -186.785056 
L 132.860824 -187.124902 
L 129.581486 -187.054325 
L 126.302148 -186.965577 
L 123.022809 -187.116624 
L 119.743479 -187.040833 
L 116.464133 -187.080944 
L 113.184795 -186.891653 
L 109.905456 -187.204385 
L 106.62611 -186.959107 
L 103.34678 -187.238045 
L 100.067434 -187.052126 
L 96.788103 -187.246166 
L 93.508757 -187.176306 
L 90.229426 -187.074501 
L 86.95008 -187.185246 
L 83.670734 -187.202331 
L 80.391404 -187.094269 
L 77.112073 -187.098283 
L 73.832727 -187.232648 
z
" style="stroke: #0000ff; stroke-opacity: 0.5"/>
    </defs>
    <g clip-path="url(#p597cb85f12)">
     <use xlink:href="#m9a5f450dd7" x="0" y="345.6" style="fill: #0000ff; fill-opacity: 0.5; stroke: #0000ff; stroke-opacity: 0.5"/>
    </g>
   </g>
   <g id="FillBetweenPolyCollection_2">
    <defs>
     <path id="me51fe77900" d="M 73.832727 -213.185982 
L 73.832727 -128.10055 
L 77.112073 -128.509114 
L 80.391404 -128.400702 
L 83.670734 -128.27086 
L 86.95008 -128.463615 
L 90.229426 -128.944042 
L 93.508757 -128.44546 
L 96.788103 -128.818001 
L 100.067434 -129.084541 
L 103.34678 -129.180887 
L 106.62611 -129.281982 
L 109.905456 -129.115067 
L 113.184795 -129.347138 
L 116.464133 -129.437217 
L 119.743479 -129.746122 
L 123.022809 -129.665701 
L 126.302148 -129.751757 
L 129.581486 -129.700498 
L 132.860824 -130.034181 
L 136.140163 -129.895324 
L 139.419493 -130.016782 
L 142.698847 -130.525807 
L 145.978178 -130.53971 
L 149.257516 -130.697342 
L 152.536862 -131.106607 
L 155.816192 -130.699 
L 159.095538 -131.085044 
L 162.374869 -130.965442 
L 165.654215 -131.200417 
L 168.933553 -131.194794 
L 172.212892 -131.33509 
L 175.492234 -131.511456 
L 178.771564 -131.505705 
L 182.050914 -131.948905 
L 185.330245 -131.454934 
L 188.609583 -131.863907 
L 191.888925 -132.025181 
L 195.168256 -131.939541 
L 198.447606 -131.944394 
L 201.726936 -131.958909 
L 205.006277 -132.121472 
L 208.285621 -132.071956 
L 211.564957 -132.031437 
L 214.844301 -132.012752 
L 218.123628 -131.928905 
L 221.402982 -132.038101 
L 224.682308 -132.067422 
L 227.961652 -132.125118 
L 231.240996 -132.392785 
L 234.520323 -132.061813 
L 237.799667 -132.388387 
L 241.079004 -132.454639 
L 244.358348 -132.492819 
L 247.637684 -132.167748 
L 250.917028 -132.424191 
L 254.196364 -132.337117 
L 257.475699 -132.374587 
L 260.755035 -132.416179 
L 264.034379 -132.260604 
L 267.313716 -132.426515 
L 270.59306 -132.280174 
L 273.872394 -132.270245 
L 277.151733 -132.329774 
L 280.431067 -132.268592 
L 283.710409 -132.54004 
L 286.989755 -132.412935 
L 290.269093 -132.120258 
L 293.548424 -132.386625 
L 296.827762 -132.417514 
L 300.107108 -131.761751 
L 303.386439 -131.916005 
L 306.665785 -131.977856 
L 309.945123 -131.846569 
L 313.224462 -131.684009 
L 316.503792 -131.527069 
L 319.783138 -131.588269 
L 323.062476 -131.162399 
L 326.341815 -131.084 
L 329.621153 -131.245092 
L 332.900491 -130.877281 
L 336.179822 -130.812716 
L 339.459168 -130.754891 
L 342.738514 -130.302884 
L 346.01786 -130.805068 
L 349.297191 -129.854035 
L 352.576521 -129.966882 
L 355.855867 -129.8758 
L 359.135213 -130.034865 
L 362.414536 -129.547163 
L 365.693882 -129.739021 
L 368.97322 -129.607997 
L 372.252566 -129.825025 
L 375.531881 -129.366876 
L 378.811227 -129.69546 
L 382.090574 -129.470872 
L 385.36992 -129.372785 
L 388.649266 -129.087035 
L 391.928581 -129.016974 
L 395.207927 -128.723247 
L 398.487273 -128.961458 
L 398.487273 -213.911845 
L 398.487273 -213.911845 
L 395.207927 -213.807006 
L 391.928581 -213.830802 
L 388.649266 -213.544749 
L 385.36992 -213.695558 
L 382.090574 -213.501626 
L 378.811227 -213.298155 
L 375.531881 -213.179277 
L 372.252566 -213.041726 
L 368.97322 -212.925357 
L 365.693882 -212.709701 
L 362.414536 -212.453498 
L 359.135213 -212.720173 
L 355.855867 -212.581073 
L 352.576521 -212.673012 
L 349.297191 -212.576075 
L 346.01786 -211.97155 
L 342.738514 -212.169605 
L 339.459168 -212.358827 
L 336.179822 -211.879066 
L 332.900491 -211.995847 
L 329.621153 -211.918581 
L 326.341815 -211.921736 
L 323.062476 -211.457726 
L 319.783138 -211.382716 
L 316.503792 -211.282731 
L 313.224462 -210.891049 
L 309.945123 -211.076767 
L 306.665785 -211.054198 
L 303.386439 -210.761899 
L 300.107108 -210.762441 
L 296.827762 -210.462688 
L 293.548424 -210.640743 
L 290.269093 -210.219611 
L 286.989755 -210.453482 
L 283.710409 -210.301705 
L 280.431067 -210.18159 
L 277.151733 -210.064039 
L 273.872394 -210.045181 
L 270.59306 -210.120137 
L 267.313716 -210.264883 
L 264.034379 -210.140027 
L 260.755035 -209.829456 
L 257.475699 -209.934923 
L 254.196364 -209.962 
L 250.917028 -210.10685 
L 247.637684 -210.058692 
L 244.358348 -210.022412 
L 241.079004 -209.813756 
L 237.799667 -209.737015 
L 234.520323 -209.781254 
L 231.240996 -209.834396 
L 227.961652 -209.553785 
L 224.682308 -209.7102 
L 221.402982 -209.561754 
L 218.123628 -209.650838 
L 214.844301 -209.974969 
L 211.564957 -209.930831 
L 208.285621 -209.799264 
L 205.006277 -209.81097 
L 201.726936 -209.894352 
L 198.447606 -209.703769 
L 195.168256 -210.099874 
L 191.888925 -209.955292 
L 188.609583 -209.836962 
L 185.330245 -209.80243 
L 182.050914 -209.859486 
L 178.771564 -209.905222 
L 175.492234 -209.778419 
L 172.212892 -209.784559 
L 168.933553 -210.508121 
L 165.654215 -210.466281 
L 162.374869 -210.512262 
L 159.095538 -210.655039 
L 155.816192 -210.666245 
L 152.536862 -211.031069 
L 149.257516 -210.918161 
L 145.978178 -210.685493 
L 142.698847 -211.092364 
L 139.419493 -211.249597 
L 136.140163 -211.048828 
L 132.860824 -211.827297 
L 129.581486 -211.683263 
L 126.302148 -211.367042 
L 123.022809 -211.715516 
L 119.743479 -211.764546 
L 116.464133 -212.126064 
L 113.184795 -211.990206 
L 109.905456 -212.517215 
L 106.62611 -212.393838 
L 103.34678 -212.301775 
L 100.067434 -212.670079 
L 96.788103 -212.832311 
L 93.508757 -212.665211 
L 90.229426 -212.969775 
L 86.95008 -213.289653 
L 83.670734 -213.254045 
L 80.391404 -212.947809 
L 77.112073 -213.419605 
L 73.832727 -213.185982 
z
" style="stroke: #0000ff; stroke-opacity: 0.3"/>
    </defs>
    <g clip-path="url(#p597cb85f12)">
     <use xlink:href="#me51fe77900" x="0" y="345.6" style="fill: #0000ff; fill-opacity: 0.3; stroke: #0000ff; stroke-opacity: 0.3"/>
    </g>
   </g>
   <g id="line2d_11">
    <path d="M 73.832727 174.84228 
L 77.112073 174.715105 
L 80.391404 174.812025 
L 83.670734 174.741935 
L 86.95008 174.689018 
L 90.229426 174.723203 
L 93.508757 174.875518 
L 96.788103 174.737147 
L 100.067434 174.757598 
L 103.34678 174.705184 
L 106.62611 174.777144 
L 109.905456 174.660686 
L 113.184795 174.902964 
L 116.464133 174.812853 
L 119.743479 174.763366 
L 123.022809 174.737264 
L 126.302148 174.774998 
L 129.581486 174.815407 
L 132.860824 174.700874 
L 136.140163 174.950161 
L 139.419493 174.9872 
L 142.698847 174.811415 
L 145.978178 174.919562 
L 149.257516 174.721454 
L 152.536862 174.662552 
L 155.816192 174.909063 
L 159.095538 174.796949 
L 162.374869 174.885987 
L 165.654215 174.875383 
L 168.933553 174.751264 
L 172.212892 175.034828 
L 175.492234 175.08623 
L 178.771564 174.960577 
L 182.050914 174.881181 
L 185.330245 174.96526 
L 188.609583 174.923929 
L 191.888925 174.765958 
L 195.168256 174.651227 
L 198.447606 174.862723 
L 201.726936 174.768614 
L 205.006277 174.716584 
L 208.285621 174.712436 
L 211.564957 174.724284 
L 214.844301 174.782339 
L 218.123628 174.826919 
L 221.402982 174.783547 
L 224.682308 174.667705 
L 227.961652 174.764035 
L 231.240996 174.530656 
L 234.520323 174.556992 
L 237.799667 174.538356 
L 241.079004 174.496305 
L 244.358348 174.338441 
L 247.637684 174.354818 
L 250.917028 174.212407 
L 254.196364 174.298436 
L 257.475699 174.2553 
L 260.755035 174.340403 
L 264.034379 174.34257 
L 267.313716 174.197662 
L 270.59306 174.416414 
L 273.872394 174.358219 
L 277.151733 174.225837 
L 280.431067 174.276911 
L 283.710409 174.164311 
L 286.989755 174.183981 
L 290.269093 174.231923 
L 293.548424 174.180765 
L 296.827762 174.225593 
L 300.107108 174.282802 
L 303.386439 174.171701 
L 306.665785 174.084521 
L 309.945123 174.117198 
L 313.224462 174.279424 
L 316.503792 174.245449 
L 319.783138 174.197502 
L 323.062476 174.300275 
L 326.341815 174.126959 
L 329.621153 174.114041 
L 332.900491 174.153719 
L 336.179822 174.262964 
L 339.459168 174.206121 
L 342.738514 174.186791 
L 346.01786 174.21811 
L 349.297191 174.21563 
L 352.576521 174.255707 
L 355.855867 174.361768 
L 359.135213 174.140558 
L 362.414536 174.386043 
L 365.693882 174.394748 
L 368.97322 174.153368 
L 372.252566 174.188864 
L 375.531881 174.344144 
L 378.811227 174.172374 
L 382.090574 174.158948 
L 385.36992 174.27324 
L 388.649266 174.303782 
L 391.928581 174.26915 
L 395.207927 174.331433 
L 398.487273 174.243997 
" clip-path="url(#p597cb85f12)" style="fill: none; stroke: #0000ff; stroke-width: 1.5; stroke-linecap: round"/>
   </g>
   <g id="LineCollection_1">
    <path d="M 236.16 295.488 
L 236.16 53.568 
" clip-path="url(#p597cb85f12)" style="fill: none; stroke-dasharray: 5.55,2.4; stroke-dashoffset: 0; stroke: #008000; stroke-width: 1.5"/>
   </g>
   <g id="patch_3">
    <path d="M 57.6 307.584 
L 57.6 41.472 
" style="fill: none; stroke: #ffffff; stroke-width: 0.8; stroke-linejoin: miter; stroke-linecap: square"/>
   </g>
   <g id="patch_4">
    <path d="M 414.72 307.584 
L 414.72 41.472 
" style="fill: none; stroke: #ffffff; stroke-width: 0.8; stroke-linejoin: miter; stroke-linecap: square"/>
   </g>
   <g id="patch_5">
    <path d="M 57.6 307.584 
L 414.72 307.584 
" style="fill: none; stroke: #ffffff; stroke-width: 0.8; stroke-linejoin: miter; stroke-linecap: square"/>
   </g>
   <g id="patch_6">
    <path d="M 57.6 41.472 
L 414.72 41.472 
" style="fill: none; stroke: #ffffff; stroke-width: 0.8; stroke-linejoin: miter; stroke-linecap: square"/>
   </g>
   <g id="text_13">
    <!-- $\mu=0, \sigma=1, n=2$ -->
    <g style="fill: #262626" transform="translate(184.98 35.472) scale(0.12 -0.12)">
     <defs>
      <path id="DejaVuSans-Oblique-3bc" d="M -84 -1331 
L 856 3500 
L 1434 3500 
L 1009 1322 
Q 997 1256 987 1175 
Q 978 1094 978 1013 
Q 978 722 1161 565 
Q 1344 409 1684 409 
Q 2147 409 2431 671 
Q 2716 934 2816 1459 
L 3213 3500 
L 3788 3500 
L 3266 809 
Q 3253 750 3248 706 
Q 3244 663 3244 628 
Q 3244 531 3283 486 
Q 3322 441 3406 441 
Q 3438 441 3492 456 
Q 3547 472 3647 513 
L 3559 50 
Q 3422 -19 3297 -55 
Q 3172 -91 3053 -91 
Q 2847 -91 2730 40 
Q 2613 172 2613 403 
Q 2438 153 2195 31 
Q 1953 -91 1625 -91 
Q 1334 -91 1117 43 
Q 900 178 831 397 
L 494 -1331 
L -84 -1331 
z
" transform="scale(0.015625)"/>
      <path id="DejaVuSans-3d" d="M 678 2906 
L 4684 2906 
L 4684 2381 
L 678 2381 
L 678 2906 
z
M 678 1631 
L 4684 1631 
L 4684 1100 
L 678 1100 
L 678 1631 
z
" transform="scale(0.015625)"/>
      <path id="DejaVuSans-30" d="M 2034 4250 
Q 1547 4250 1301 3770 
Q 1056 3291 1056 2328 
Q 1056 1369 1301 889 
Q 1547 409 2034 409 
Q 2525 409 2770 889 
Q 3016 1369 3016 2328 
Q 3016 3291 2770 3770 
Q 2525 4250 2034 4250 
z
M 2034 4750 
Q 2819 4750 3233 4129 
Q 3647 3509 3647 2328 
Q 3647 1150 3233 529 
Q 2819 -91 2034 -91 
Q 1250 -91 836 529 
Q 422 1150 422 2328 
Q 422 3509 836 4129 
Q 1250 4750 2034 4750 
z
" transform="scale(0.015625)"/>
      <path id="DejaVuSans-2c" d="M 750 794 
L 1409 794 
L 1409 256 
L 897 -744 
L 494 -744 
L 750 256 
L 750 794 
z
" transform="scale(0.015625)"/>
      <path id="DejaVuSans-Oblique-3c3" d="M 2219 3044 
Q 1744 3044 1422 2700 
Q 1081 2341 969 1747 
Q 844 1119 1044 756 
Q 1241 397 1706 397 
Q 2166 397 2503 759 
Q 2844 1122 2966 1747 
Q 3075 2319 2881 2700 
Q 2700 3044 2219 3044 
z
M 2309 3503 
L 4219 3500 
L 4106 2925 
L 3463 2925 
Q 3706 2438 3575 1747 
Q 3406 888 2884 400 
Q 2359 -91 1609 -91 
Q 856 -91 525 400 
Q 194 888 363 1747 
Q 528 2609 1050 3097 
Q 1484 3503 2309 3503 
z
" transform="scale(0.015625)"/>
      <path id="DejaVuSans-31" d="M 794 531 
L 1825 531 
L 1825 4091 
L 703 3866 
L 703 4441 
L 1819 4666 
L 2450 4666 
L 2450 531 
L 3481 531 
L 3481 0 
L 794 0 
L 794 531 
z
" transform="scale(0.015625)"/>
      <path id="DejaVuSans-32" d="M 1228 531 
L 3431 531 
L 3431 0 
L 469 0 
L 469 531 
Q 828 903 1448 1529 
Q 2069 2156 2228 2338 
Q 2531 2678 2651 2914 
Q 2772 3150 2772 3378 
Q 2772 3750 2511 3984 
Q 2250 4219 1831 4219 
Q 1534 4219 1204 4116 
Q 875 4013 500 3803 
L 500 4441 
Q 881 4594 1212 4672 
Q 1544 4750 1819 4750 
Q 2544 4750 2975 4387 
Q 3406 4025 3406 3419 
Q 3406 3131 3298 2873 
Q 3191 2616 2906 2266 
Q 2828 2175 2409 1742 
Q 1991 1309 1228 531 
z
" transform="scale(0.015625)"/>
     </defs>
     <use xlink:href="#DejaVuSans-Oblique-3bc" transform="translate(0 0.78125)"/>
     <use xlink:href="#DejaVuSans-3d" transform="translate(83.105469 0.78125)"/>
     <use xlink:href="#DejaVuSans-30" transform="translate(186.376953 0.78125)"/>
     <use xlink:href="#DejaVuSans-2c" transform="translate(250 0.78125)"/>
     <use xlink:href="#DejaVuSans-Oblique-3c3" transform="translate(301.269531 0.78125)"/>
     <use xlink:href="#DejaVuSans-3d" transform="translate(384.130859 0.78125)"/>
     <use xlink:href="#DejaVuSans-31" transform="translate(487.402344 0.78125)"/>
     <use xlink:href="#DejaVuSans-2c" transform="translate(551.025391 0.78125)"/>
     <use xlink:href="#DejaVuSans-Oblique-6e" transform="translate(602.294922 0.78125)"/>
     <use xlink:href="#DejaVuSans-3d" transform="translate(685.15625 0.78125)"/>
     <use xlink:href="#DejaVuSans-32" transform="translate(788.427734 0.78125)"/>
    </g>
   </g>
   <g id="legend_1">
    <g id="patch_7">
     <path d="M 302.42 302.584 
L 407.72 302.584 
Q 409.72 302.584 409.72 300.584 
L 409.72 244.393375 
Q 409.72 242.393375 407.72 242.393375 
L 302.42 242.393375 
Q 300.42 242.393375 300.42 244.393375 
L 300.42 300.584 
Q 300.42 302.584 302.42 302.584 
z
" style="fill: #eaeaf2; opacity: 0.8; stroke: #cccccc; stroke-linejoin: miter"/>
    </g>
    <g id="line2d_12">
     <path d="M 304.42 250.305875 
L 314.42 250.305875 
L 324.42 250.305875 
" style="fill: none; stroke: #0000ff; stroke-width: 1.5; stroke-linecap: round"/>
    </g>
    <g id="text_14">
     <!-- $E[x_{next}]$ -->
     <g style="fill: #262626" transform="translate(332.42 253.805875) scale(0.1 -0.1)">
      <defs>
       <path id="DejaVuSans-Oblique-45" d="M 1081 4666 
L 4031 4666 
L 3928 4134 
L 1606 4134 
L 1338 2753 
L 3566 2753 
L 3463 2222 
L 1234 2222 
L 909 531 
L 3284 531 
L 3181 0 
L 172 0 
L 1081 4666 
z
" transform="scale(0.015625)"/>
       <path id="DejaVuSans-5b" d="M 550 4863 
L 1875 4863 
L 1875 4416 
L 1125 4416 
L 1125 -397 
L 1875 -397 
L 1875 -844 
L 550 -844 
L 550 4863 
z
" transform="scale(0.015625)"/>
       <path id="DejaVuSans-5d" d="M 1947 4863 
L 1947 -844 
L 622 -844 
L 622 -397 
L 1369 -397 
L 1369 4416 
L 622 4416 
L 622 4863 
L 1947 4863 
z
" transform="scale(0.015625)"/>
      </defs>
      <use xlink:href="#DejaVuSans-Oblique-45" transform="translate(0 0.015625)"/>
      <use xlink:href="#DejaVuSans-5b" transform="translate(63.183594 0.015625)"/>
      <use xlink:href="#DejaVuSans-Oblique-78" transform="translate(102.197266 0.015625)"/>
      <use xlink:href="#DejaVuSans-Oblique-6e" transform="translate(161.376953 -16.390625) scale(0.7)"/>
      <use xlink:href="#DejaVuSans-Oblique-65" transform="translate(205.742188 -16.390625) scale(0.7)"/>
      <use xlink:href="#DejaVuSans-Oblique-78" transform="translate(248.808594 -16.390625) scale(0.7)"/>
      <use xlink:href="#DejaVuSans-Oblique-74" transform="translate(290.234375 -16.390625) scale(0.7)"/>
      <use xlink:href="#DejaVuSans-5d" transform="translate(320.415039 0.015625)"/>
     </g>
    </g>
    <g id="patch_8">
     <path d="M 304.42 267.951187 
L 324.42 267.951187 
L 324.42 260.951187 
L 304.42 260.951187 
z
" style="fill: #0000ff; fill-opacity: 0.5; stroke: #0000ff; stroke-opacity: 0.5; stroke-linejoin: miter"/>
    </g>
    <g id="text_15">
     <!-- 50% CI -->
     <g style="fill: #262626" transform="translate(332.42 267.951187) scale(0.1 -0.1)">
      <defs>
       <path id="ArialMT-35" d="M 266 1200 
L 856 1250 
Q 922 819 1161 601 
Q 1400 384 1738 384 
Q 2144 384 2425 690 
Q 2706 997 2706 1503 
Q 2706 1984 2436 2262 
Q 2166 2541 1728 2541 
Q 1456 2541 1237 2417 
Q 1019 2294 894 2097 
L 366 2166 
L 809 4519 
L 3088 4519 
L 3088 3981 
L 1259 3981 
L 1013 2750 
Q 1425 3038 1878 3038 
Q 2478 3038 2890 2622 
Q 3303 2206 3303 1553 
Q 3303 931 2941 478 
Q 2500 -78 1738 -78 
Q 1113 -78 717 272 
Q 322 622 266 1200 
z
" transform="scale(0.015625)"/>
       <path id="ArialMT-25" d="M 372 3481 
Q 372 3972 619 4315 
Q 866 4659 1334 4659 
Q 1766 4659 2048 4351 
Q 2331 4044 2331 3447 
Q 2331 2866 2045 2552 
Q 1759 2238 1341 2238 
Q 925 2238 648 2547 
Q 372 2856 372 3481 
z
M 1350 4272 
Q 1141 4272 1002 4090 
Q 863 3909 863 3425 
Q 863 2984 1003 2804 
Q 1144 2625 1350 2625 
Q 1563 2625 1702 2806 
Q 1841 2988 1841 3469 
Q 1841 3913 1700 4092 
Q 1559 4272 1350 4272 
z
M 1353 -169 
L 3859 4659 
L 4316 4659 
L 1819 -169 
L 1353 -169 
z
M 3334 1075 
Q 3334 1569 3581 1911 
Q 3828 2253 4300 2253 
Q 4731 2253 5014 1945 
Q 5297 1638 5297 1041 
Q 5297 459 5011 145 
Q 4725 -169 4303 -169 
Q 3888 -169 3611 142 
Q 3334 453 3334 1075 
z
M 4316 1866 
Q 4103 1866 3964 1684 
Q 3825 1503 3825 1019 
Q 3825 581 3965 400 
Q 4106 219 4313 219 
Q 4528 219 4667 400 
Q 4806 581 4806 1063 
Q 4806 1506 4665 1686 
Q 4525 1866 4316 1866 
z
" transform="scale(0.015625)"/>
       <path id="ArialMT-20" transform="scale(0.015625)"/>
       <path id="ArialMT-43" d="M 3763 1606 
L 4369 1453 
Q 4178 706 3683 314 
Q 3188 -78 2472 -78 
Q 1731 -78 1267 223 
Q 803 525 561 1097 
Q 319 1669 319 2325 
Q 319 3041 592 3573 
Q 866 4106 1370 4382 
Q 1875 4659 2481 4659 
Q 3169 4659 3637 4309 
Q 4106 3959 4291 3325 
L 3694 3184 
Q 3534 3684 3231 3912 
Q 2928 4141 2469 4141 
Q 1941 4141 1586 3887 
Q 1231 3634 1087 3207 
Q 944 2781 944 2328 
Q 944 1744 1114 1308 
Q 1284 872 1643 656 
Q 2003 441 2422 441 
Q 2931 441 3284 734 
Q 3638 1028 3763 1606 
z
" transform="scale(0.015625)"/>
       <path id="ArialMT-49" d="M 597 0 
L 597 4581 
L 1203 4581 
L 1203 0 
L 597 0 
z
" transform="scale(0.015625)"/>
      </defs>
      <use xlink:href="#ArialMT-35"/>
      <use xlink:href="#ArialMT-30" transform="translate(55.615234 0)"/>
      <use xlink:href="#ArialMT-25" transform="translate(111.230469 0)"/>
      <use xlink:href="#ArialMT-20" transform="translate(200.146484 0)"/>
      <use xlink:href="#ArialMT-43" transform="translate(227.929688 0)"/>
      <use xlink:href="#ArialMT-49" transform="translate(300.146484 0)"/>
     </g>
    </g>
    <g id="patch_9">
     <path d="M 304.42 282.0965 
L 324.42 282.0965 
L 324.42 275.0965 
L 304.42 275.0965 
z
" style="fill: #0000ff; fill-opacity: 0.3; stroke: #0000ff; stroke-opacity: 0.3; stroke-linejoin: miter"/>
    </g>
    <g id="text_16">
     <!-- 90% CI -->
     <g style="fill: #262626" transform="translate(332.42 282.0965) scale(0.1 -0.1)">
      <defs>
       <path id="ArialMT-39" d="M 350 1059 
L 891 1109 
Q 959 728 1153 556 
Q 1347 384 1650 384 
Q 1909 384 2104 503 
Q 2300 622 2425 820 
Q 2550 1019 2634 1356 
Q 2719 1694 2719 2044 
Q 2719 2081 2716 2156 
Q 2547 1888 2255 1720 
Q 1963 1553 1622 1553 
Q 1053 1553 659 1965 
Q 266 2378 266 3053 
Q 266 3750 677 4175 
Q 1088 4600 1706 4600 
Q 2153 4600 2523 4359 
Q 2894 4119 3086 3673 
Q 3278 3228 3278 2384 
Q 3278 1506 3087 986 
Q 2897 466 2520 194 
Q 2144 -78 1638 -78 
Q 1100 -78 759 220 
Q 419 519 350 1059 
z
M 2653 3081 
Q 2653 3566 2395 3850 
Q 2138 4134 1775 4134 
Q 1400 4134 1122 3828 
Q 844 3522 844 3034 
Q 844 2597 1108 2323 
Q 1372 2050 1759 2050 
Q 2150 2050 2401 2323 
Q 2653 2597 2653 3081 
z
" transform="scale(0.015625)"/>
      </defs>
      <use xlink:href="#ArialMT-39"/>
      <use xlink:href="#ArialMT-30" transform="translate(55.615234 0)"/>
      <use xlink:href="#ArialMT-25" transform="translate(111.230469 0)"/>
      <use xlink:href="#ArialMT-20" transform="translate(200.146484 0)"/>
      <use xlink:href="#ArialMT-43" transform="translate(227.929688 0)"/>
      <use xlink:href="#ArialMT-49" transform="translate(300.146484 0)"/>
     </g>
    </g>
    <g id="line2d_13">
     <path d="M 304.42 292.884 
L 324.42 292.884 
" style="fill: none; stroke-dasharray: 5.55,2.4; stroke-dashoffset: 0; stroke: #008000; stroke-width: 1.5"/>
    </g>
    <g id="text_17">
     <!-- mode of target $\pi$ -->
     <g style="fill: #262626" transform="translate(332.42 296.384) scale(0.1 -0.1)">
      <defs>
       <path id="ArialMT-6d" d="M 422 0 
L 422 3319 
L 925 3319 
L 925 2853 
Q 1081 3097 1340 3245 
Q 1600 3394 1931 3394 
Q 2300 3394 2536 3241 
Q 2772 3088 2869 2813 
Q 3263 3394 3894 3394 
Q 4388 3394 4653 3120 
Q 4919 2847 4919 2278 
L 4919 0 
L 4359 0 
L 4359 2091 
Q 4359 2428 4304 2576 
Q 4250 2725 4106 2815 
Q 3963 2906 3769 2906 
Q 3419 2906 3187 2673 
Q 2956 2441 2956 1928 
L 2956 0 
L 2394 0 
L 2394 2156 
Q 2394 2531 2256 2718 
Q 2119 2906 1806 2906 
Q 1569 2906 1367 2781 
Q 1166 2656 1075 2415 
Q 984 2175 984 1722 
L 984 0 
L 422 0 
z
" transform="scale(0.015625)"/>
       <path id="ArialMT-6f" d="M 213 1659 
Q 213 2581 725 3025 
Q 1153 3394 1769 3394 
Q 2453 3394 2887 2945 
Q 3322 2497 3322 1706 
Q 3322 1066 3130 698 
Q 2938 331 2570 128 
Q 2203 -75 1769 -75 
Q 1072 -75 642 372 
Q 213 819 213 1659 
z
M 791 1659 
Q 791 1022 1069 705 
Q 1347 388 1769 388 
Q 2188 388 2466 706 
Q 2744 1025 2744 1678 
Q 2744 2294 2464 2611 
Q 2184 2928 1769 2928 
Q 1347 2928 1069 2612 
Q 791 2297 791 1659 
z
" transform="scale(0.015625)"/>
       <path id="ArialMT-64" d="M 2575 0 
L 2575 419 
Q 2259 -75 1647 -75 
Q 1250 -75 917 144 
Q 584 363 401 755 
Q 219 1147 219 1656 
Q 219 2153 384 2558 
Q 550 2963 881 3178 
Q 1213 3394 1622 3394 
Q 1922 3394 2156 3267 
Q 2391 3141 2538 2938 
L 2538 4581 
L 3097 4581 
L 3097 0 
L 2575 0 
z
M 797 1656 
Q 797 1019 1065 703 
Q 1334 388 1700 388 
Q 2069 388 2326 689 
Q 2584 991 2584 1609 
Q 2584 2291 2321 2609 
Q 2059 2928 1675 2928 
Q 1300 2928 1048 2622 
Q 797 2316 797 1656 
z
" transform="scale(0.015625)"/>
       <path id="ArialMT-65" d="M 2694 1069 
L 3275 997 
Q 3138 488 2766 206 
Q 2394 -75 1816 -75 
Q 1088 -75 661 373 
Q 234 822 234 1631 
Q 234 2469 665 2931 
Q 1097 3394 1784 3394 
Q 2450 3394 2872 2941 
Q 3294 2488 3294 1666 
Q 3294 1616 3291 1516 
L 816 1516 
Q 847 969 1125 678 
Q 1403 388 1819 388 
Q 2128 388 2347 550 
Q 2566 713 2694 1069 
z
M 847 1978 
L 2700 1978 
Q 2663 2397 2488 2606 
Q 2219 2931 1791 2931 
Q 1403 2931 1139 2672 
Q 875 2413 847 1978 
z
" transform="scale(0.015625)"/>
       <path id="ArialMT-66" d="M 556 0 
L 556 2881 
L 59 2881 
L 59 3319 
L 556 3319 
L 556 3672 
Q 556 4006 616 4169 
Q 697 4388 901 4523 
Q 1106 4659 1475 4659 
Q 1713 4659 2000 4603 
L 1916 4113 
Q 1741 4144 1584 4144 
Q 1328 4144 1222 4034 
Q 1116 3925 1116 3625 
L 1116 3319 
L 1763 3319 
L 1763 2881 
L 1116 2881 
L 1116 0 
L 556 0 
z
" transform="scale(0.015625)"/>
       <path id="ArialMT-74" d="M 1650 503 
L 1731 6 
Q 1494 -44 1306 -44 
Q 1000 -44 831 53 
Q 663 150 594 308 
Q 525 466 525 972 
L 525 2881 
L 113 2881 
L 113 3319 
L 525 3319 
L 525 4141 
L 1084 4478 
L 1084 3319 
L 1650 3319 
L 1650 2881 
L 1084 2881 
L 1084 941 
Q 1084 700 1114 631 
Q 1144 563 1211 522 
Q 1278 481 1403 481 
Q 1497 481 1650 503 
z
" transform="scale(0.015625)"/>
       <path id="ArialMT-61" d="M 2588 409 
Q 2275 144 1986 34 
Q 1697 -75 1366 -75 
Q 819 -75 525 192 
Q 231 459 231 875 
Q 231 1119 342 1320 
Q 453 1522 633 1644 
Q 813 1766 1038 1828 
Q 1203 1872 1538 1913 
Q 2219 1994 2541 2106 
Q 2544 2222 2544 2253 
Q 2544 2597 2384 2738 
Q 2169 2928 1744 2928 
Q 1347 2928 1158 2789 
Q 969 2650 878 2297 
L 328 2372 
Q 403 2725 575 2942 
Q 747 3159 1072 3276 
Q 1397 3394 1825 3394 
Q 2250 3394 2515 3294 
Q 2781 3194 2906 3042 
Q 3031 2891 3081 2659 
Q 3109 2516 3109 2141 
L 3109 1391 
Q 3109 606 3145 398 
Q 3181 191 3288 0 
L 2700 0 
Q 2613 175 2588 409 
z
M 2541 1666 
Q 2234 1541 1622 1453 
Q 1275 1403 1131 1340 
Q 988 1278 909 1158 
Q 831 1038 831 891 
Q 831 666 1001 516 
Q 1172 366 1500 366 
Q 1825 366 2078 508 
Q 2331 650 2450 897 
Q 2541 1088 2541 1459 
L 2541 1666 
z
" transform="scale(0.015625)"/>
       <path id="ArialMT-72" d="M 416 0 
L 416 3319 
L 922 3319 
L 922 2816 
Q 1116 3169 1280 3281 
Q 1444 3394 1641 3394 
Q 1925 3394 2219 3213 
L 2025 2691 
Q 1819 2813 1613 2813 
Q 1428 2813 1281 2702 
Q 1134 2591 1072 2394 
Q 978 2094 978 1738 
L 978 0 
L 416 0 
z
" transform="scale(0.015625)"/>
       <path id="ArialMT-67" d="M 319 -275 
L 866 -356 
Q 900 -609 1056 -725 
Q 1266 -881 1628 -881 
Q 2019 -881 2231 -725 
Q 2444 -569 2519 -288 
Q 2563 -116 2559 434 
Q 2191 0 1641 0 
Q 956 0 581 494 
Q 206 988 206 1678 
Q 206 2153 378 2554 
Q 550 2956 876 3175 
Q 1203 3394 1644 3394 
Q 2231 3394 2613 2919 
L 2613 3319 
L 3131 3319 
L 3131 450 
Q 3131 -325 2973 -648 
Q 2816 -972 2473 -1159 
Q 2131 -1347 1631 -1347 
Q 1038 -1347 672 -1080 
Q 306 -813 319 -275 
z
M 784 1719 
Q 784 1066 1043 766 
Q 1303 466 1694 466 
Q 2081 466 2343 764 
Q 2606 1063 2606 1700 
Q 2606 2309 2336 2618 
Q 2066 2928 1684 2928 
Q 1309 2928 1046 2623 
Q 784 2319 784 1719 
z
" transform="scale(0.015625)"/>
       <path id="DejaVuSans-Oblique-3c0" d="M 584 3500 
L 3938 3500 
L 3825 2925 
L 3384 2925 
L 2966 775 
Q 2922 550 2981 450 
Q 3038 353 3209 353 
Q 3256 353 3325 363 
Q 3397 369 3419 372 
L 3338 -44 
Q 3222 -84 3103 -103 
Q 2981 -122 2866 -122 
Q 2491 -122 2388 81 
Q 2284 288 2391 838 
L 2797 2925 
L 1506 2925 
L 938 0 
L 350 0 
L 919 2925 
L 472 2925 
L 584 3500 
z
" transform="scale(0.015625)"/>
      </defs>
      <use xlink:href="#ArialMT-6d" transform="translate(0 0.203125)"/>
      <use xlink:href="#ArialMT-6f" transform="translate(83.300781 0.203125)"/>
      <use xlink:href="#ArialMT-64" transform="translate(138.916016 0.203125)"/>
      <use xlink:href="#ArialMT-65" transform="translate(194.53125 0.203125)"/>
      <use xlink:href="#ArialMT-20" transform="translate(250.146484 0.203125)"/>
      <use xlink:href="#ArialMT-6f" transform="translate(277.929688 0.203125)"/>
      <use xlink:href="#ArialMT-66" transform="translate(333.544922 0.203125)"/>
      <use xlink:href="#ArialMT-20" transform="translate(361.328125 0.203125)"/>
      <use xlink:href="#ArialMT-74" transform="translate(389.111328 0.203125)"/>
      <use xlink:href="#ArialMT-61" transform="translate(416.894531 0.203125)"/>
      <use xlink:href="#ArialMT-72" transform="translate(472.509766 0.203125)"/>
      <use xlink:href="#ArialMT-67" transform="translate(505.810547 0.203125)"/>
      <use xlink:href="#ArialMT-65" transform="translate(561.425781 0.203125)"/>
      <use xlink:href="#ArialMT-74" transform="translate(617.041016 0.203125)"/>
      <use xlink:href="#ArialMT-20" transform="translate(644.824219 0.203125)"/>
      <use xlink:href="#DejaVuSans-Oblique-3c0" transform="translate(672.607422 0.203125)"/>
     </g>
    </g>
   </g>
  </g>
 </g>
 <defs>
  <clipPath id="p597cb85f12">
   <rect x="57.6" y="41.472" width="357.12" height="266.112"/>
  </clipPath>
 </defs>
</svg>
