<?xml version="1.0" encoding="utf-8" standalone="no"?>
<!DOCTYPE svg PUBLIC "-//W3C//DTD SVG 1.1//EN"
  "http://www.w3.org/Graphics/SVG/1.1/DTD/svg11.dtd">
<svg xmlns:xlink="http://www.w3.org/1999/xlink" width="460.8pt" height="345.6pt" viewBox="0 0 460.8 345.6" xmlns="http://www.w3.org/2000/svg" version="1.1">
 <metadata>
  <rdf:RDF xmlns:dc="http://purl.org/dc/elements/1.1/" xmlns:cc="http://creativecommons.org/ns#" xmlns:rdf="http://www.w3.org/1999/02/22-rdf-syntax-ns#">
   <cc:Work>
    <dc:type rdf:resource="http://purl.org/dc/dcmitype/StillImage"/>
    <dc:date>2025-04-08T21:15:11.784078</dc:date>
    <dc:format>image/svg+xml</dc:format>
    <dc:creator>
     <cc:Agent>
      <dc:title>Matplotlib v3.10.1, https://matplotlib.org/</dc:title>
     </cc:Agent>
    </dc:creator>
   </cc:Work>
  </rdf:RDF>
 </metadata>
 <defs>
  <style type="text/css">*{stroke-linejoin: round; stroke-linecap: butt}</style>
 </defs>
 <g id="figure_1">
  <g id="patch_1">
   <path d="M 0 345.6 
L 460.8 345.6 
L 460.8 0 
L 0 0 
z
" style="fill: #ffffff"/>
  </g>
  <g id="axes_1">
   <g id="patch_2">
    <path d="M 57.6 307.584 
L 414.72 307.584 
L 414.72 41.472 
L 57.6 41.472 
z
" style="fill: #eaeaf2"/>
   </g>
   <g id="matplotlib.axis_1">
    <g id="xtick_1">
     <g id="line2d_1">
      <path d="M 106.298182 307.584 
L 106.298182 41.472 
" clip-path="url(#p8ae356e7ac)" style="fill: none; stroke: #ffffff; stroke-width: 0.8; stroke-linecap: round"/>
     </g>
     <g id="text_1">
      <!-- −2 -->
      <g style="fill: #262626" transform="translate(100.597401 321.741812) scale(0.1 -0.1)">
       <defs>
        <path id="ArialMT-2212" d="M 3381 1997 
L 356 1997 
L 356 2522 
L 3381 2522 
L 3381 1997 
z
" transform="scale(0.015625)"/>
        <path id="ArialMT-32" d="M 3222 541 
L 3222 0 
L 194 0 
Q 188 203 259 391 
Q 375 700 629 1000 
Q 884 1300 1366 1694 
Q 2113 2306 2375 2664 
Q 2638 3022 2638 3341 
Q 2638 3675 2398 3904 
Q 2159 4134 1775 4134 
Q 1369 4134 1125 3890 
Q 881 3647 878 3216 
L 300 3275 
Q 359 3922 746 4261 
Q 1134 4600 1788 4600 
Q 2447 4600 2831 4234 
Q 3216 3869 3216 3328 
Q 3216 3053 3103 2787 
Q 2991 2522 2730 2228 
Q 2469 1934 1863 1422 
Q 1356 997 1212 845 
Q 1069 694 975 541 
L 3222 541 
z
" transform="scale(0.015625)"/>
       </defs>
       <use xlink:href="#ArialMT-2212"/>
       <use xlink:href="#ArialMT-32" transform="translate(58.398438 0)"/>
      </g>
     </g>
    </g>
    <g id="xtick_2">
     <g id="line2d_2">
      <path d="M 171.229091 307.584 
L 171.229091 41.472 
" clip-path="url(#p8ae356e7ac)" style="fill: none; stroke: #ffffff; stroke-width: 0.8; stroke-linecap: round"/>
     </g>
     <g id="text_2">
      <!-- −1 -->
      <g style="fill: #262626" transform="translate(165.52831 321.741812) scale(0.1 -0.1)">
       <defs>
        <path id="ArialMT-31" d="M 2384 0 
L 1822 0 
L 1822 3584 
Q 1619 3391 1289 3197 
Q 959 3003 697 2906 
L 697 3450 
Q 1169 3672 1522 3987 
Q 1875 4303 2022 4600 
L 2384 4600 
L 2384 0 
z
" transform="scale(0.015625)"/>
       </defs>
       <use xlink:href="#ArialMT-2212"/>
       <use xlink:href="#ArialMT-31" transform="translate(58.398438 0)"/>
      </g>
     </g>
    </g>
    <g id="xtick_3">
     <g id="line2d_3">
      <path d="M 236.16 307.584 
L 236.16 41.472 
" clip-path="url(#p8ae356e7ac)" style="fill: none; stroke: #ffffff; stroke-width: 0.8; stroke-linecap: round"/>
     </g>
     <g id="text_3">
      <!-- 0 -->
      <g style="fill: #262626" transform="translate(233.379531 321.741812) scale(0.1 -0.1)">
       <defs>
        <path id="ArialMT-30" d="M 266 2259 
Q 266 3072 433 3567 
Q 600 4063 929 4331 
Q 1259 4600 1759 4600 
Q 2128 4600 2406 4451 
Q 2684 4303 2865 4023 
Q 3047 3744 3150 3342 
Q 3253 2941 3253 2259 
Q 3253 1453 3087 958 
Q 2922 463 2592 192 
Q 2263 -78 1759 -78 
Q 1097 -78 719 397 
Q 266 969 266 2259 
z
M 844 2259 
Q 844 1131 1108 757 
Q 1372 384 1759 384 
Q 2147 384 2411 759 
Q 2675 1134 2675 2259 
Q 2675 3391 2411 3762 
Q 2147 4134 1753 4134 
Q 1366 4134 1134 3806 
Q 844 3388 844 2259 
z
" transform="scale(0.015625)"/>
       </defs>
       <use xlink:href="#ArialMT-30"/>
      </g>
     </g>
    </g>
    <g id="xtick_4">
     <g id="line2d_4">
      <path d="M 301.090909 307.584 
L 301.090909 41.472 
" clip-path="url(#p8ae356e7ac)" style="fill: none; stroke: #ffffff; stroke-width: 0.8; stroke-linecap: round"/>
     </g>
     <g id="text_4">
      <!-- 1 -->
      <g style="fill: #262626" transform="translate(298.31044 321.741812) scale(0.1 -0.1)">
       <use xlink:href="#ArialMT-31"/>
      </g>
     </g>
    </g>
    <g id="xtick_5">
     <g id="line2d_5">
      <path d="M 366.021818 307.584 
L 366.021818 41.472 
" clip-path="url(#p8ae356e7ac)" style="fill: none; stroke: #ffffff; stroke-width: 0.8; stroke-linecap: round"/>
     </g>
     <g id="text_5">
      <!-- 2 -->
      <g style="fill: #262626" transform="translate(363.241349 321.741812) scale(0.1 -0.1)">
       <use xlink:href="#ArialMT-32"/>
      </g>
     </g>
    </g>
    <g id="text_6">
     <!-- $x$ -->
     <g style="fill: #262626" transform="translate(233.16 334.887125) scale(0.1 -0.1)">
      <defs>
       <path id="DejaVuSans-Oblique-78" d="M 3841 3500 
L 2234 1784 
L 3219 0 
L 2559 0 
L 1819 1388 
L 531 0 
L -166 0 
L 1556 1844 
L 641 3500 
L 1300 3500 
L 1972 2234 
L 3144 3500 
L 3841 3500 
z
" transform="scale(0.015625)"/>
      </defs>
      <use xlink:href="#DejaVuSans-Oblique-78" transform="translate(0 0.3125)"/>
     </g>
    </g>
   </g>
   <g id="matplotlib.axis_2">
    <g id="ytick_1">
     <g id="line2d_6">
      <path d="M 57.6 296.332811 
L 414.72 296.332811 
" clip-path="url(#p8ae356e7ac)" style="fill: none; stroke: #ffffff; stroke-width: 0.8; stroke-linecap: round"/>
     </g>
     <g id="text_7">
      <!-- 0.0 -->
      <g style="fill: #262626" transform="translate(36.7 299.911717) scale(0.1 -0.1)">
       <defs>
        <path id="ArialMT-2e" d="M 581 0 
L 581 641 
L 1222 641 
L 1222 0 
L 581 0 
z
" transform="scale(0.015625)"/>
       </defs>
       <use xlink:href="#ArialMT-30"/>
       <use xlink:href="#ArialMT-2e" transform="translate(55.615234 0)"/>
       <use xlink:href="#ArialMT-30" transform="translate(83.398438 0)"/>
      </g>
     </g>
    </g>
    <g id="ytick_2">
     <g id="line2d_7">
      <path d="M 57.6 265.986245 
L 414.72 265.986245 
" clip-path="url(#p8ae356e7ac)" style="fill: none; stroke: #ffffff; stroke-width: 0.8; stroke-linecap: round"/>
     </g>
     <g id="text_8">
      <!-- 0.2 -->
      <g style="fill: #262626" transform="translate(36.7 269.565151) scale(0.1 -0.1)">
       <use xlink:href="#ArialMT-30"/>
       <use xlink:href="#ArialMT-2e" transform="translate(55.615234 0)"/>
       <use xlink:href="#ArialMT-32" transform="translate(83.398438 0)"/>
      </g>
     </g>
    </g>
    <g id="ytick_3">
     <g id="line2d_8">
      <path d="M 57.6 235.639678 
L 414.72 235.639678 
" clip-path="url(#p8ae356e7ac)" style="fill: none; stroke: #ffffff; stroke-width: 0.8; stroke-linecap: round"/>
     </g>
     <g id="text_9">
      <!-- 0.4 -->
      <g style="fill: #262626" transform="translate(36.7 239.218584) scale(0.1 -0.1)">
       <defs>
        <path id="ArialMT-34" d="M 2069 0 
L 2069 1097 
L 81 1097 
L 81 1613 
L 2172 4581 
L 2631 4581 
L 2631 1613 
L 3250 1613 
L 3250 1097 
L 2631 1097 
L 2631 0 
L 2069 0 
z
M 2069 1613 
L 2069 3678 
L 634 1613 
L 2069 1613 
z
" transform="scale(0.015625)"/>
       </defs>
       <use xlink:href="#ArialMT-30"/>
       <use xlink:href="#ArialMT-2e" transform="translate(55.615234 0)"/>
       <use xlink:href="#ArialMT-34" transform="translate(83.398438 0)"/>
      </g>
     </g>
    </g>
    <g id="ytick_4">
     <g id="line2d_9">
      <path d="M 57.6 205.293112 
L 414.72 205.293112 
" clip-path="url(#p8ae356e7ac)" style="fill: none; stroke: #ffffff; stroke-width: 0.8; stroke-linecap: round"/>
     </g>
     <g id="text_10">
      <!-- 0.6 -->
      <g style="fill: #262626" transform="translate(36.7 208.872018) scale(0.1 -0.1)">
       <defs>
        <path id="ArialMT-36" d="M 3184 3459 
L 2625 3416 
Q 2550 3747 2413 3897 
Q 2184 4138 1850 4138 
Q 1581 4138 1378 3988 
Q 1113 3794 959 3422 
Q 806 3050 800 2363 
Q 1003 2672 1297 2822 
Q 1591 2972 1913 2972 
Q 2475 2972 2870 2558 
Q 3266 2144 3266 1488 
Q 3266 1056 3080 686 
Q 2894 316 2569 119 
Q 2244 -78 1831 -78 
Q 1128 -78 684 439 
Q 241 956 241 2144 
Q 241 3472 731 4075 
Q 1159 4600 1884 4600 
Q 2425 4600 2770 4297 
Q 3116 3994 3184 3459 
z
M 888 1484 
Q 888 1194 1011 928 
Q 1134 663 1356 523 
Q 1578 384 1822 384 
Q 2178 384 2434 671 
Q 2691 959 2691 1453 
Q 2691 1928 2437 2201 
Q 2184 2475 1800 2475 
Q 1419 2475 1153 2201 
Q 888 1928 888 1484 
z
" transform="scale(0.015625)"/>
       </defs>
       <use xlink:href="#ArialMT-30"/>
       <use xlink:href="#ArialMT-2e" transform="translate(55.615234 0)"/>
       <use xlink:href="#ArialMT-36" transform="translate(83.398438 0)"/>
      </g>
     </g>
    </g>
    <g id="ytick_5">
     <g id="line2d_10">
      <path d="M 57.6 174.946545 
L 414.72 174.946545 
" clip-path="url(#p8ae356e7ac)" style="fill: none; stroke: #ffffff; stroke-width: 0.8; stroke-linecap: round"/>
     </g>
     <g id="text_11">
      <!-- 0.8 -->
      <g style="fill: #262626" transform="translate(36.7 178.525452) scale(0.1 -0.1)">
       <defs>
        <path id="ArialMT-38" d="M 1131 2484 
Q 781 2613 612 2850 
Q 444 3088 444 3419 
Q 444 3919 803 4259 
Q 1163 4600 1759 4600 
Q 2359 4600 2725 4251 
Q 3091 3903 3091 3403 
Q 3091 3084 2923 2848 
Q 2756 2613 2416 2484 
Q 2838 2347 3058 2040 
Q 3278 1734 3278 1309 
Q 3278 722 2862 322 
Q 2447 -78 1769 -78 
Q 1091 -78 675 323 
Q 259 725 259 1325 
Q 259 1772 486 2073 
Q 713 2375 1131 2484 
z
M 1019 3438 
Q 1019 3113 1228 2906 
Q 1438 2700 1772 2700 
Q 2097 2700 2305 2904 
Q 2513 3109 2513 3406 
Q 2513 3716 2298 3927 
Q 2084 4138 1766 4138 
Q 1444 4138 1231 3931 
Q 1019 3725 1019 3438 
z
M 838 1322 
Q 838 1081 952 856 
Q 1066 631 1291 507 
Q 1516 384 1775 384 
Q 2178 384 2440 643 
Q 2703 903 2703 1303 
Q 2703 1709 2433 1975 
Q 2163 2241 1756 2241 
Q 1359 2241 1098 1978 
Q 838 1716 838 1322 
z
" transform="scale(0.015625)"/>
       </defs>
       <use xlink:href="#ArialMT-30"/>
       <use xlink:href="#ArialMT-2e" transform="translate(55.615234 0)"/>
       <use xlink:href="#ArialMT-38" transform="translate(83.398438 0)"/>
      </g>
     </g>
    </g>
    <g id="ytick_6">
     <g id="line2d_11">
      <path d="M 57.6 144.599979 
L 414.72 144.599979 
" clip-path="url(#p8ae356e7ac)" style="fill: none; stroke: #ffffff; stroke-width: 0.8; stroke-linecap: round"/>
     </g>
     <g id="text_12">
      <!-- 1.0 -->
      <g style="fill: #262626" transform="translate(36.7 148.178885) scale(0.1 -0.1)">
       <use xlink:href="#ArialMT-31"/>
       <use xlink:href="#ArialMT-2e" transform="translate(55.615234 0)"/>
       <use xlink:href="#ArialMT-30" transform="translate(83.398438 0)"/>
      </g>
     </g>
    </g>
    <g id="ytick_7">
     <g id="line2d_12">
      <path d="M 57.6 114.253413 
L 414.72 114.253413 
" clip-path="url(#p8ae356e7ac)" style="fill: none; stroke: #ffffff; stroke-width: 0.8; stroke-linecap: round"/>
     </g>
     <g id="text_13">
      <!-- 1.2 -->
      <g style="fill: #262626" transform="translate(36.7 117.832319) scale(0.1 -0.1)">
       <use xlink:href="#ArialMT-31"/>
       <use xlink:href="#ArialMT-2e" transform="translate(55.615234 0)"/>
       <use xlink:href="#ArialMT-32" transform="translate(83.398438 0)"/>
      </g>
     </g>
    </g>
    <g id="ytick_8">
     <g id="line2d_13">
      <path d="M 57.6 83.906846 
L 414.72 83.906846 
" clip-path="url(#p8ae356e7ac)" style="fill: none; stroke: #ffffff; stroke-width: 0.8; stroke-linecap: round"/>
     </g>
     <g id="text_14">
      <!-- 1.4 -->
      <g style="fill: #262626" transform="translate(36.7 87.485753) scale(0.1 -0.1)">
       <use xlink:href="#ArialMT-31"/>
       <use xlink:href="#ArialMT-2e" transform="translate(55.615234 0)"/>
       <use xlink:href="#ArialMT-34" transform="translate(83.398438 0)"/>
      </g>
     </g>
    </g>
    <g id="ytick_9">
     <g id="line2d_14">
      <path d="M 57.6 53.56028 
L 414.72 53.56028 
" clip-path="url(#p8ae356e7ac)" style="fill: none; stroke: #ffffff; stroke-width: 0.8; stroke-linecap: round"/>
     </g>
     <g id="text_15">
      <!-- 1.6 -->
      <g style="fill: #262626" transform="translate(36.7 57.139186) scale(0.1 -0.1)">
       <use xlink:href="#ArialMT-31"/>
       <use xlink:href="#ArialMT-2e" transform="translate(55.615234 0)"/>
       <use xlink:href="#ArialMT-36" transform="translate(83.398438 0)"/>
      </g>
     </g>
    </g>
    <g id="text_16">
     <!-- contraction estimate $\tau_x(P^n)$ -->
     <g style="fill: #262626" transform="translate(30.7125 235.528) rotate(-90) scale(0.1 -0.1)">
      <defs>
       <path id="ArialMT-63" d="M 2588 1216 
L 3141 1144 
Q 3050 572 2676 248 
Q 2303 -75 1759 -75 
Q 1078 -75 664 370 
Q 250 816 250 1647 
Q 250 2184 428 2587 
Q 606 2991 970 3192 
Q 1334 3394 1763 3394 
Q 2303 3394 2647 3120 
Q 2991 2847 3088 2344 
L 2541 2259 
Q 2463 2594 2264 2762 
Q 2066 2931 1784 2931 
Q 1359 2931 1093 2626 
Q 828 2322 828 1663 
Q 828 994 1084 691 
Q 1341 388 1753 388 
Q 2084 388 2306 591 
Q 2528 794 2588 1216 
z
" transform="scale(0.015625)"/>
       <path id="ArialMT-6f" d="M 213 1659 
Q 213 2581 725 3025 
Q 1153 3394 1769 3394 
Q 2453 3394 2887 2945 
Q 3322 2497 3322 1706 
Q 3322 1066 3130 698 
Q 2938 331 2570 128 
Q 2203 -75 1769 -75 
Q 1072 -75 642 372 
Q 213 819 213 1659 
z
M 791 1659 
Q 791 1022 1069 705 
Q 1347 388 1769 388 
Q 2188 388 2466 706 
Q 2744 1025 2744 1678 
Q 2744 2294 2464 2611 
Q 2184 2928 1769 2928 
Q 1347 2928 1069 2612 
Q 791 2297 791 1659 
z
" transform="scale(0.015625)"/>
       <path id="ArialMT-6e" d="M 422 0 
L 422 3319 
L 928 3319 
L 928 2847 
Q 1294 3394 1984 3394 
Q 2284 3394 2536 3286 
Q 2788 3178 2913 3003 
Q 3038 2828 3088 2588 
Q 3119 2431 3119 2041 
L 3119 0 
L 2556 0 
L 2556 2019 
Q 2556 2363 2490 2533 
Q 2425 2703 2258 2804 
Q 2091 2906 1866 2906 
Q 1506 2906 1245 2678 
Q 984 2450 984 1813 
L 984 0 
L 422 0 
z
" transform="scale(0.015625)"/>
       <path id="ArialMT-74" d="M 1650 503 
L 1731 6 
Q 1494 -44 1306 -44 
Q 1000 -44 831 53 
Q 663 150 594 308 
Q 525 466 525 972 
L 525 2881 
L 113 2881 
L 113 3319 
L 525 3319 
L 525 4141 
L 1084 4478 
L 1084 3319 
L 1650 3319 
L 1650 2881 
L 1084 2881 
L 1084 941 
Q 1084 700 1114 631 
Q 1144 563 1211 522 
Q 1278 481 1403 481 
Q 1497 481 1650 503 
z
" transform="scale(0.015625)"/>
       <path id="ArialMT-72" d="M 416 0 
L 416 3319 
L 922 3319 
L 922 2816 
Q 1116 3169 1280 3281 
Q 1444 3394 1641 3394 
Q 1925 3394 2219 3213 
L 2025 2691 
Q 1819 2813 1613 2813 
Q 1428 2813 1281 2702 
Q 1134 2591 1072 2394 
Q 978 2094 978 1738 
L 978 0 
L 416 0 
z
" transform="scale(0.015625)"/>
       <path id="ArialMT-61" d="M 2588 409 
Q 2275 144 1986 34 
Q 1697 -75 1366 -75 
Q 819 -75 525 192 
Q 231 459 231 875 
Q 231 1119 342 1320 
Q 453 1522 633 1644 
Q 813 1766 1038 1828 
Q 1203 1872 1538 1913 
Q 2219 1994 2541 2106 
Q 2544 2222 2544 2253 
Q 2544 2597 2384 2738 
Q 2169 2928 1744 2928 
Q 1347 2928 1158 2789 
Q 969 2650 878 2297 
L 328 2372 
Q 403 2725 575 2942 
Q 747 3159 1072 3276 
Q 1397 3394 1825 3394 
Q 2250 3394 2515 3294 
Q 2781 3194 2906 3042 
Q 3031 2891 3081 2659 
Q 3109 2516 3109 2141 
L 3109 1391 
Q 3109 606 3145 398 
Q 3181 191 3288 0 
L 2700 0 
Q 2613 175 2588 409 
z
M 2541 1666 
Q 2234 1541 1622 1453 
Q 1275 1403 1131 1340 
Q 988 1278 909 1158 
Q 831 1038 831 891 
Q 831 666 1001 516 
Q 1172 366 1500 366 
Q 1825 366 2078 508 
Q 2331 650 2450 897 
Q 2541 1088 2541 1459 
L 2541 1666 
z
" transform="scale(0.015625)"/>
       <path id="ArialMT-69" d="M 425 3934 
L 425 4581 
L 988 4581 
L 988 3934 
L 425 3934 
z
M 425 0 
L 425 3319 
L 988 3319 
L 988 0 
L 425 0 
z
" transform="scale(0.015625)"/>
       <path id="ArialMT-20" transform="scale(0.015625)"/>
       <path id="ArialMT-65" d="M 2694 1069 
L 3275 997 
Q 3138 488 2766 206 
Q 2394 -75 1816 -75 
Q 1088 -75 661 373 
Q 234 822 234 1631 
Q 234 2469 665 2931 
Q 1097 3394 1784 3394 
Q 2450 3394 2872 2941 
Q 3294 2488 3294 1666 
Q 3294 1616 3291 1516 
L 816 1516 
Q 847 969 1125 678 
Q 1403 388 1819 388 
Q 2128 388 2347 550 
Q 2566 713 2694 1069 
z
M 847 1978 
L 2700 1978 
Q 2663 2397 2488 2606 
Q 2219 2931 1791 2931 
Q 1403 2931 1139 2672 
Q 875 2413 847 1978 
z
" transform="scale(0.015625)"/>
       <path id="ArialMT-73" d="M 197 991 
L 753 1078 
Q 800 744 1014 566 
Q 1228 388 1613 388 
Q 2000 388 2187 545 
Q 2375 703 2375 916 
Q 2375 1106 2209 1216 
Q 2094 1291 1634 1406 
Q 1016 1563 777 1677 
Q 538 1791 414 1992 
Q 291 2194 291 2438 
Q 291 2659 392 2848 
Q 494 3038 669 3163 
Q 800 3259 1026 3326 
Q 1253 3394 1513 3394 
Q 1903 3394 2198 3281 
Q 2494 3169 2634 2976 
Q 2775 2784 2828 2463 
L 2278 2388 
Q 2241 2644 2061 2787 
Q 1881 2931 1553 2931 
Q 1166 2931 1000 2803 
Q 834 2675 834 2503 
Q 834 2394 903 2306 
Q 972 2216 1119 2156 
Q 1203 2125 1616 2013 
Q 2213 1853 2448 1751 
Q 2684 1650 2818 1456 
Q 2953 1263 2953 975 
Q 2953 694 2789 445 
Q 2625 197 2315 61 
Q 2006 -75 1616 -75 
Q 969 -75 630 194 
Q 291 463 197 991 
z
" transform="scale(0.015625)"/>
       <path id="ArialMT-6d" d="M 422 0 
L 422 3319 
L 925 3319 
L 925 2853 
Q 1081 3097 1340 3245 
Q 1600 3394 1931 3394 
Q 2300 3394 2536 3241 
Q 2772 3088 2869 2813 
Q 3263 3394 3894 3394 
Q 4388 3394 4653 3120 
Q 4919 2847 4919 2278 
L 4919 0 
L 4359 0 
L 4359 2091 
Q 4359 2428 4304 2576 
Q 4250 2725 4106 2815 
Q 3963 2906 3769 2906 
Q 3419 2906 3187 2673 
Q 2956 2441 2956 1928 
L 2956 0 
L 2394 0 
L 2394 2156 
Q 2394 2531 2256 2718 
Q 2119 2906 1806 2906 
Q 1569 2906 1367 2781 
Q 1166 2656 1075 2415 
Q 984 2175 984 1722 
L 984 0 
L 422 0 
z
" transform="scale(0.015625)"/>
       <path id="DejaVuSans-Oblique-3c4" d="M 2103 638 
Q 2188 488 2525 488 
L 2800 488 
L 2706 0 
L 2363 0 
Q 1800 0 1600 300 
Q 1403 606 1534 1269 
L 1856 2925 
L 541 2925 
L 653 3500 
L 3881 3500 
L 3769 2925 
L 2444 2925 
L 2113 1234 
Q 2025 781 2103 638 
z
" transform="scale(0.015625)"/>
       <path id="DejaVuSans-28" d="M 1984 4856 
Q 1566 4138 1362 3434 
Q 1159 2731 1159 2009 
Q 1159 1288 1364 580 
Q 1569 -128 1984 -844 
L 1484 -844 
Q 1016 -109 783 600 
Q 550 1309 550 2009 
Q 550 2706 781 3412 
Q 1013 4119 1484 4856 
L 1984 4856 
z
" transform="scale(0.015625)"/>
       <path id="DejaVuSans-Oblique-50" d="M 1081 4666 
L 2541 4666 
Q 3178 4666 3512 4369 
Q 3847 4072 3847 3500 
Q 3847 2731 3353 2303 
Q 2859 1875 1966 1875 
L 1172 1875 
L 806 0 
L 172 0 
L 1081 4666 
z
M 1613 4147 
L 1275 2394 
L 2069 2394 
Q 2606 2394 2893 2669 
Q 3181 2944 3181 3456 
Q 3181 3784 2986 3965 
Q 2791 4147 2438 4147 
L 1613 4147 
z
" transform="scale(0.015625)"/>
       <path id="DejaVuSans-Oblique-6e" d="M 3566 2113 
L 3156 0 
L 2578 0 
L 2988 2091 
Q 3016 2238 3031 2350 
Q 3047 2463 3047 2528 
Q 3047 2791 2881 2937 
Q 2716 3084 2419 3084 
Q 1956 3084 1622 2776 
Q 1288 2469 1184 1941 
L 800 0 
L 225 0 
L 903 3500 
L 1478 3500 
L 1363 2950 
Q 1603 3253 1940 3418 
Q 2278 3584 2650 3584 
Q 3113 3584 3367 3334 
Q 3622 3084 3622 2631 
Q 3622 2519 3608 2391 
Q 3594 2263 3566 2113 
z
" transform="scale(0.015625)"/>
       <path id="DejaVuSans-29" d="M 513 4856 
L 1013 4856 
Q 1481 4119 1714 3412 
Q 1947 2706 1947 2009 
Q 1947 1309 1714 600 
Q 1481 -109 1013 -844 
L 513 -844 
Q 928 -128 1133 580 
Q 1338 1288 1338 2009 
Q 1338 2731 1133 3434 
Q 928 4138 513 4856 
z
" transform="scale(0.015625)"/>
      </defs>
      <use xlink:href="#ArialMT-63" transform="translate(0 0.51875)"/>
      <use xlink:href="#ArialMT-6f" transform="translate(50 0.51875)"/>
      <use xlink:href="#ArialMT-6e" transform="translate(105.615234 0.51875)"/>
      <use xlink:href="#ArialMT-74" transform="translate(161.230469 0.51875)"/>
      <use xlink:href="#ArialMT-72" transform="translate(189.013672 0.51875)"/>
      <use xlink:href="#ArialMT-61" transform="translate(222.314453 0.51875)"/>
      <use xlink:href="#ArialMT-63" transform="translate(277.929688 0.51875)"/>
      <use xlink:href="#ArialMT-74" transform="translate(327.929688 0.51875)"/>
      <use xlink:href="#ArialMT-69" transform="translate(355.712891 0.51875)"/>
      <use xlink:href="#ArialMT-6f" transform="translate(377.929688 0.51875)"/>
      <use xlink:href="#ArialMT-6e" transform="translate(433.544922 0.51875)"/>
      <use xlink:href="#ArialMT-20" transform="translate(489.160156 0.51875)"/>
      <use xlink:href="#ArialMT-65" transform="translate(516.943359 0.51875)"/>
      <use xlink:href="#ArialMT-73" transform="translate(572.558594 0.51875)"/>
      <use xlink:href="#ArialMT-74" transform="translate(622.558594 0.51875)"/>
      <use xlink:href="#ArialMT-69" transform="translate(650.341797 0.51875)"/>
      <use xlink:href="#ArialMT-6d" transform="translate(672.558594 0.51875)"/>
      <use xlink:href="#ArialMT-61" transform="translate(755.859375 0.51875)"/>
      <use xlink:href="#ArialMT-74" transform="translate(811.474609 0.51875)"/>
      <use xlink:href="#ArialMT-65" transform="translate(839.257812 0.51875)"/>
      <use xlink:href="#ArialMT-20" transform="translate(894.873047 0.51875)"/>
      <use xlink:href="#DejaVuSans-Oblique-3c4" transform="translate(922.65625 0.51875)"/>
      <use xlink:href="#DejaVuSans-Oblique-78" transform="translate(982.861328 -15.8875) scale(0.7)"/>
      <use xlink:href="#DejaVuSans-28" transform="translate(1027.021484 0.51875)"/>
      <use xlink:href="#DejaVuSans-Oblique-50" transform="translate(1066.035156 0.51875)"/>
      <use xlink:href="#DejaVuSans-Oblique-6e" transform="translate(1133.354661 38.8) scale(0.7)"/>
      <use xlink:href="#DejaVuSans-29" transform="translate(1180.454271 0.51875)"/>
     </g>
    </g>
   </g>
   <g id="line2d_15">
    <path d="M 73.832727 261.436117 
L 75.464165 260.608638 
L 77.095586 260.242117 
L 78.727024 259.22779 
L 81.989883 257.936601 
L 83.621304 257.333887 
L 85.252726 257.419412 
L 86.884163 256.615126 
L 88.515601 256.636868 
L 90.147023 256.304022 
L 91.77846 255.20961 
L 93.409882 254.377333 
L 95.041319 254.251079 
L 96.672756 253.554475 
L 98.304178 253.063414 
L 99.9356 252.692837 
L 101.567037 251.674652 
L 103.198459 261.827659 
L 104.829896 271.195575 
L 108.092755 220.01964 
L 109.724192 206.635497 
L 111.355614 203.539824 
L 112.987044 196.747477 
L 114.618473 188.919649 
L 116.249903 179.527836 
L 117.88134 175.588287 
L 119.512762 173.604851 
L 121.144191 172.101985 
L 122.775629 169.582178 
L 124.40705 167.991604 
L 126.038488 163.500444 
L 127.669909 150.299777 
L 129.301347 134.365339 
L 130.932776 117.270152 
L 132.564198 104.624767 
L 134.195635 97.824434 
L 135.827057 92.500604 
L 137.458494 88.219708 
L 139.089924 82.937534 
L 140.721346 78.673568 
L 142.352783 75.861686 
L 143.98422 73.536695 
L 147.247071 67.296131 
L 148.878501 63.386092 
L 150.509931 62.343574 
L 152.14136 58.893368 
L 153.77279 56.467392 
L 155.404219 56.235794 
L 157.035641 57.483954 
L 158.667078 61.737103 
L 160.298515 66.905974 
L 161.929937 77.886452 
L 163.561374 94.316599 
L 165.192804 118.363678 
L 166.824234 156.23309 
L 168.455663 210.500181 
L 170.087085 277.67953 
L 171.718522 247.057668 
L 173.349952 183.322853 
L 174.981377 137.423724 
L 176.612811 105.88557 
L 178.244244 85.768952 
L 179.87567 72.379771 
L 181.507099 62.353486 
L 183.138525 58.836608 
L 184.769958 57.400351 
L 186.401392 56.215065 
L 188.032817 59.149746 
L 189.664247 59.93641 
L 191.295673 60.98052 
L 192.927106 63.700171 
L 194.558539 68.449872 
L 196.189965 72.669558 
L 197.821402 77.446806 
L 199.452832 83.007625 
L 201.084257 86.082669 
L 205.978544 99.482666 
L 207.609981 106.015568 
L 209.241401 118.943126 
L 210.872838 150.872903 
L 214.135696 167.06683 
L 215.767133 172.615674 
L 217.398553 175.867393 
L 219.02999 180.893459 
L 220.661419 187.090449 
L 223.924277 201.23814 
L 227.187134 220.030466 
L 228.818571 216.07386 
L 230.449991 211.689681 
L 232.081428 212.470973 
L 233.712848 230.337951 
L 235.344285 255.776455 
L 236.97571 256.004481 
L 238.607147 229.622183 
L 240.238572 211.078905 
L 241.870004 209.267567 
L 245.132866 217.766332 
L 248.395723 200.319624 
L 251.658585 188.070084 
L 253.290018 182.610495 
L 254.921443 178.15278 
L 256.552875 172.807244 
L 259.815736 160.80674 
L 261.447162 151.150643 
L 263.078595 119.600443 
L 264.710019 105.592527 
L 266.341456 99.606044 
L 267.97288 95.389252 
L 269.604313 89.174155 
L 272.867176 80.033476 
L 274.498598 77.202275 
L 276.130031 73.478398 
L 277.761457 70.208058 
L 279.392894 66.67792 
L 282.655753 61.42315 
L 284.287183 61.279369 
L 285.918608 58.421236 
L 287.550046 59.552855 
L 289.181471 62.005528 
L 290.812901 65.127276 
L 292.444326 73.588336 
L 294.075764 87.772808 
L 295.707189 109.729081 
L 297.338623 141.620403 
L 298.970048 188.334196 
L 300.601486 249.83753 
L 302.232907 272.553597 
L 303.864345 204.941831 
L 305.495766 149.939817 
L 307.127204 112.967804 
L 308.758626 88.834445 
L 310.390063 74.714656 
L 312.021485 65.188901 
L 313.652914 58.458388 
L 315.284344 54.098773 
L 316.915781 53.568 
L 318.54721 54.209399 
L 320.17864 54.475238 
L 321.810069 56.575685 
L 323.441499 60.563863 
L 325.072929 65.150139 
L 326.704358 68.701294 
L 329.967217 77.61857 
L 331.598647 80.285133 
L 333.230076 84.851204 
L 336.492935 95.182398 
L 338.124357 100.092755 
L 339.755802 106.77188 
L 341.387232 120.301261 
L 344.650083 155.131822 
L 346.28152 169.782412 
L 347.91295 175.224655 
L 352.807238 178.547532 
L 354.438668 180.011707 
L 356.07009 182.533721 
L 357.701535 190.07566 
L 359.332956 196.680787 
L 360.964386 201.921204 
L 362.595808 204.489361 
L 364.227253 218.554552 
L 367.490104 269.136824 
L 369.121526 264.07228 
L 370.752963 252.858324 
L 372.3844 253.540136 
L 374.015822 254.471133 
L 375.647244 254.715754 
L 377.278681 255.291896 
L 380.54154 255.705238 
L 382.172962 256.452461 
L 383.804415 256.423398 
L 385.435837 257.130723 
L 387.067258 257.471261 
L 390.330133 257.74698 
L 391.961555 258.334509 
L 396.855851 258.170926 
L 398.487273 258.226162 
L 398.487273 258.226162 
" clip-path="url(#p8ae356e7ac)" style="fill: none; stroke: #0000ff; stroke-width: 1.5; stroke-linecap: round"/>
   </g>
   <g id="line2d_16">
    <path d="M 73.832727 291.167947 
L 75.464165 290.994337 
L 78.727024 291.395692 
L 80.358445 291.035497 
L 81.989883 291.462788 
L 83.621304 291.392436 
L 85.252726 291.996445 
L 88.515601 291.845603 
L 93.409882 292.177901 
L 95.041319 291.874491 
L 96.672756 291.087409 
L 98.304178 291.300883 
L 99.9356 292.036416 
L 101.567037 292.458819 
L 103.198459 290.76922 
L 104.829896 284.756545 
L 109.724192 261.231877 
L 112.987044 251.376183 
L 114.618473 248.122791 
L 116.249903 246.464319 
L 119.512762 246.162553 
L 121.144191 246.062129 
L 124.40705 242.202764 
L 126.038488 236.777085 
L 127.669909 225.496671 
L 129.301347 212.391847 
L 130.932776 201.395125 
L 132.564198 191.167947 
L 134.195635 182.083086 
L 135.827057 175.396048 
L 140.721346 152.59428 
L 142.352783 148.38683 
L 143.98422 142.62821 
L 145.615642 135.775169 
L 147.247071 129.852139 
L 148.878501 124.368647 
L 150.509931 120.676405 
L 152.14136 115.174752 
L 153.77279 111.34553 
L 155.404219 110.653467 
L 157.035641 107.856362 
L 158.667078 106.440581 
L 160.298515 109.460584 
L 161.929937 121.310479 
L 163.561374 134.087183 
L 165.192804 154.264866 
L 166.824234 183.015141 
L 168.455663 227.189424 
L 170.087085 279.886446 
L 171.718522 258.383374 
L 173.349952 205.839627 
L 174.981377 167.468157 
L 176.612811 141.244572 
L 178.244244 124.631736 
L 179.87567 116.069636 
L 181.507099 109.546375 
L 183.138525 107.696266 
L 184.769958 106.435933 
L 186.401392 108.094834 
L 188.032817 113.799235 
L 189.664247 116.559132 
L 191.295673 121.88564 
L 192.927106 126.430385 
L 194.558539 132.84539 
L 196.189965 142.101471 
L 197.821402 150.403647 
L 199.452832 155.837967 
L 202.715691 171.465786 
L 204.347115 177.319178 
L 209.241401 202.120407 
L 210.872838 220.506116 
L 212.504258 233.805051 
L 214.135696 244.696578 
L 215.767133 250.733585 
L 217.398553 244.480789 
L 219.02999 240.84079 
L 220.661419 241.469143 
L 222.292847 246.075889 
L 223.924277 249.420019 
L 225.555704 252.019752 
L 227.187134 256.874806 
L 228.818571 260.837207 
L 230.449991 264.459536 
L 232.081428 266.503761 
L 233.712848 274.742295 
L 235.344285 289.478702 
L 236.97571 286.829452 
L 238.607147 273.120367 
L 240.238572 265.164219 
L 241.870004 262.866428 
L 243.501429 260.255152 
L 245.132866 256.293897 
L 246.764291 251.862496 
L 248.395723 248.494164 
L 250.027156 245.410628 
L 251.658585 243.42854 
L 253.290018 242.866126 
L 254.921443 245.533802 
L 256.552875 249.544509 
L 258.184299 244.255937 
L 259.815736 235.34961 
L 261.447162 221.431614 
L 263.078595 201.696054 
L 264.710019 193.742985 
L 266.341456 188.552771 
L 269.604313 174.257519 
L 271.235739 165.361587 
L 274.498598 150.240059 
L 276.130031 142.589611 
L 277.761457 136.43207 
L 279.392894 129.487649 
L 281.02432 121.032304 
L 282.655753 115.657628 
L 284.287183 112.204799 
L 285.918608 107.735263 
L 287.550046 107.64694 
L 289.181471 109.584794 
L 290.812901 110.031657 
L 292.444326 116.42208 
L 294.075764 126.79815 
L 295.707189 144.14977 
L 297.338623 170.23424 
L 298.970048 209.628404 
L 300.601486 260.515106 
L 302.232907 277.497013 
L 303.864345 222.979636 
L 305.495766 180.237065 
L 307.127204 150.534803 
L 308.758626 128.161475 
L 310.390063 112.956589 
L 312.021485 111.119901 
L 313.652914 106.897736 
L 315.284344 105.250285 
L 316.915781 107.582167 
L 318.54721 111.649571 
L 320.17864 114.819975 
L 321.810069 119.9047 
L 325.072929 137.257225 
L 328.335788 151.43391 
L 329.967217 159.949669 
L 333.230076 175.149952 
L 334.861506 181.017371 
L 336.492935 186.358104 
L 338.124357 193.827673 
L 339.755802 202.063222 
L 343.018653 221.461712 
L 344.650083 232.037989 
L 346.28152 240.326784 
L 347.91295 244.715548 
L 349.544371 247.068163 
L 351.175801 247.632232 
L 354.438668 247.204551 
L 356.07009 247.683954 
L 357.701535 248.922252 
L 359.332956 251.802977 
L 362.595808 261.417039 
L 364.227253 268.578453 
L 365.858674 276.887523 
L 367.490104 284.306766 
L 369.121526 290.883628 
L 370.752963 291.738363 
L 372.3844 291.063791 
L 374.015822 291.024724 
L 377.278681 290.573824 
L 378.910118 290.984707 
L 380.54154 290.817268 
L 382.172962 291.104545 
L 385.435837 291.130623 
L 387.067258 290.507273 
L 388.698696 290.469714 
L 390.330133 289.843833 
L 391.961555 289.352385 
L 393.592976 288.734751 
L 395.224429 289.36351 
L 396.855851 288.625884 
L 398.487273 288.597445 
L 398.487273 288.597445 
" clip-path="url(#p8ae356e7ac)" style="fill: none; stroke: #0000cd; stroke-width: 1.5; stroke-linecap: round"/>
   </g>
   <g id="line2d_17">
    <path d="M 73.832727 294.74976 
L 75.464165 293.806109 
L 77.095586 294.368186 
L 78.727024 293.925589 
L 80.358445 293.165782 
L 81.989883 294.951875 
L 83.621304 295.148817 
L 85.252726 295.488 
L 86.884163 294.669791 
L 88.515601 295.47907 
L 91.77846 295.255416 
L 93.409882 295.406225 
L 95.041319 293.609764 
L 96.672756 294.778748 
L 98.304178 294.401905 
L 99.9356 294.323979 
L 101.567037 295.196015 
L 103.198459 294.872764 
L 104.829896 293.868683 
L 106.461318 291.432072 
L 108.092755 291.433833 
L 109.724192 290.887452 
L 111.355614 292.333895 
L 112.987044 289.370193 
L 114.618473 288.636817 
L 116.249903 289.770977 
L 117.88134 291.963577 
L 119.512762 287.411363 
L 121.144191 286.273241 
L 122.775629 281.150002 
L 124.40705 278.466312 
L 126.038488 276.386726 
L 127.669909 269.871948 
L 130.932776 264.686235 
L 132.564198 259.836215 
L 135.827057 256.355089 
L 137.458494 250.262362 
L 139.089924 248.984456 
L 140.721346 244.229158 
L 142.352783 244.12517 
L 143.98422 243.158672 
L 145.615642 237.844356 
L 147.247071 234.736455 
L 148.878501 230.142596 
L 150.509931 230.851301 
L 152.14136 224.656503 
L 153.77279 223.639924 
L 155.404219 224.691268 
L 157.035641 222.36441 
L 158.667078 225.806138 
L 160.298515 221.41292 
L 161.929937 223.321548 
L 163.561374 233.226078 
L 165.192804 237.074817 
L 166.824234 248.261906 
L 168.455663 268.151529 
L 170.087085 290.917773 
L 171.718522 282.11519 
L 173.349952 262.363591 
L 174.981377 248.955905 
L 176.612811 238.39153 
L 178.244244 231.218807 
L 179.87567 227.703909 
L 181.507099 224.502923 
L 183.138525 220.385614 
L 184.769958 220.967395 
L 186.401392 224.80969 
L 188.032817 226.399957 
L 189.664247 225.21293 
L 191.295673 228.323639 
L 192.927106 232.883718 
L 194.558539 232.842627 
L 196.189965 238.753326 
L 197.821402 244.192467 
L 199.452832 246.702181 
L 201.084257 247.153371 
L 202.715691 252.119394 
L 204.347115 255.993343 
L 205.978544 258.632553 
L 207.609981 265.324738 
L 209.241401 266.594945 
L 210.872838 272.998029 
L 212.504258 275.469067 
L 214.135696 289.371824 
L 215.767133 292.220247 
L 217.398553 290.340261 
L 219.02999 286.061523 
L 220.661419 285.304817 
L 222.292847 286.107529 
L 223.924277 290.715613 
L 225.555704 292.113925 
L 227.187134 291.897151 
L 228.818571 288.810277 
L 230.449991 292.711967 
L 232.081428 292.850024 
L 233.712848 292.094935 
L 235.344285 292.005164 
L 236.97571 294.98503 
L 238.607147 293.792968 
L 240.238572 292.907342 
L 241.870004 291.886359 
L 243.501429 292.422507 
L 245.132866 292.247353 
L 246.764291 291.754559 
L 248.395723 290.747661 
L 250.027156 290.557463 
L 251.658585 286.461322 
L 253.290018 283.043227 
L 256.552875 291.944722 
L 258.184299 283.969002 
L 259.815736 275.412969 
L 261.447162 269.372786 
L 263.078595 270.220175 
L 264.710019 263.384254 
L 266.341456 263.958009 
L 267.97288 258.554603 
L 269.604313 254.395642 
L 271.235739 246.956836 
L 272.867176 243.823807 
L 274.498598 241.520187 
L 276.130031 241.027439 
L 277.761457 234.307603 
L 279.392894 231.314411 
L 281.02432 231.760103 
L 282.655753 228.986658 
L 284.287183 228.61646 
L 285.918608 221.86833 
L 287.550046 222.011351 
L 289.181471 223.472289 
L 290.812901 221.860792 
L 292.444326 220.88704 
L 294.075764 226.689789 
L 295.707189 236.311564 
L 297.338623 243.157116 
L 298.970048 258.868832 
L 300.601486 278.955251 
L 302.232907 289.073943 
L 303.864345 271.140511 
L 305.495766 245.778871 
L 307.127204 229.718284 
L 308.758626 225.740755 
L 310.390063 219.552374 
L 312.021485 220.893732 
L 313.652914 220.375503 
L 315.284344 217.332239 
L 316.915781 222.98485 
L 318.54721 224.605572 
L 320.17864 227.685025 
L 321.810069 229.626764 
L 323.441499 232.609984 
L 325.072929 239.046287 
L 326.704358 244.047202 
L 328.335788 246.538833 
L 329.967217 248.74844 
L 331.598647 253.129874 
L 333.230076 254.321916 
L 334.861506 258.149596 
L 338.124357 266.845427 
L 339.755802 268.357954 
L 341.387232 272.492889 
L 343.018653 270.330075 
L 344.650083 275.685941 
L 346.28152 281.925307 
L 347.91295 285.035572 
L 349.544371 284.348385 
L 351.175801 285.567635 
L 354.438668 290.621605 
L 356.07009 292.110147 
L 357.701535 291.768648 
L 359.332956 292.369994 
L 360.964386 290.851518 
L 362.595808 290.39045 
L 364.227253 292.063257 
L 365.858674 292.198658 
L 367.490104 292.704148 
L 369.121526 293.954822 
L 370.752963 291.953768 
L 372.3844 294.667574 
L 374.015822 293.911416 
L 375.647244 294.664366 
L 377.278681 295.018303 
L 378.910118 293.980036 
L 380.54154 295.230677 
L 382.172962 295.116562 
L 383.804415 294.580671 
L 385.435837 295.45412 
L 388.698696 295.462286 
L 390.330133 293.326505 
L 391.961555 293.939225 
L 393.592976 293.489132 
L 395.224429 294.317649 
L 396.855851 293.261748 
L 398.487273 293.576926 
L 398.487273 293.576926 
" clip-path="url(#p8ae356e7ac)" style="fill: none; stroke: #191970; stroke-width: 1.5; stroke-linecap: round"/>
   </g>
   <g id="patch_3">
    <path d="M 57.6 307.584 
L 57.6 41.472 
" style="fill: none; stroke: #ffffff; stroke-width: 0.8; stroke-linejoin: miter; stroke-linecap: square"/>
   </g>
   <g id="patch_4">
    <path d="M 414.72 307.584 
L 414.72 41.472 
" style="fill: none; stroke: #ffffff; stroke-width: 0.8; stroke-linejoin: miter; stroke-linecap: square"/>
   </g>
   <g id="patch_5">
    <path d="M 57.6 307.584 
L 414.72 307.584 
" style="fill: none; stroke: #ffffff; stroke-width: 0.8; stroke-linejoin: miter; stroke-linecap: square"/>
   </g>
   <g id="patch_6">
    <path d="M 57.6 41.472 
L 414.72 41.472 
" style="fill: none; stroke: #ffffff; stroke-width: 0.8; stroke-linejoin: miter; stroke-linecap: square"/>
   </g>
   <g id="text_17">
    <!-- $\mu = 0, \sigma^2=1$ -->
    <g style="fill: #262626" transform="translate(199.98 35.472) scale(0.12 -0.12)">
     <defs>
      <path id="DejaVuSans-Oblique-3bc" d="M -84 -1331 
L 856 3500 
L 1434 3500 
L 1009 1322 
Q 997 1256 987 1175 
Q 978 1094 978 1013 
Q 978 722 1161 565 
Q 1344 409 1684 409 
Q 2147 409 2431 671 
Q 2716 934 2816 1459 
L 3213 3500 
L 3788 3500 
L 3266 809 
Q 3253 750 3248 706 
Q 3244 663 3244 628 
Q 3244 531 3283 486 
Q 3322 441 3406 441 
Q 3438 441 3492 456 
Q 3547 472 3647 513 
L 3559 50 
Q 3422 -19 3297 -55 
Q 3172 -91 3053 -91 
Q 2847 -91 2730 40 
Q 2613 172 2613 403 
Q 2438 153 2195 31 
Q 1953 -91 1625 -91 
Q 1334 -91 1117 43 
Q 900 178 831 397 
L 494 -1331 
L -84 -1331 
z
" transform="scale(0.015625)"/>
      <path id="DejaVuSans-3d" d="M 678 2906 
L 4684 2906 
L 4684 2381 
L 678 2381 
L 678 2906 
z
M 678 1631 
L 4684 1631 
L 4684 1100 
L 678 1100 
L 678 1631 
z
" transform="scale(0.015625)"/>
      <path id="DejaVuSans-30" d="M 2034 4250 
Q 1547 4250 1301 3770 
Q 1056 3291 1056 2328 
Q 1056 1369 1301 889 
Q 1547 409 2034 409 
Q 2525 409 2770 889 
Q 3016 1369 3016 2328 
Q 3016 3291 2770 3770 
Q 2525 4250 2034 4250 
z
M 2034 4750 
Q 2819 4750 3233 4129 
Q 3647 3509 3647 2328 
Q 3647 1150 3233 529 
Q 2819 -91 2034 -91 
Q 1250 -91 836 529 
Q 422 1150 422 2328 
Q 422 3509 836 4129 
Q 1250 4750 2034 4750 
z
" transform="scale(0.015625)"/>
      <path id="DejaVuSans-2c" d="M 750 794 
L 1409 794 
L 1409 256 
L 897 -744 
L 494 -744 
L 750 256 
L 750 794 
z
" transform="scale(0.015625)"/>
      <path id="DejaVuSans-Oblique-3c3" d="M 2219 3044 
Q 1744 3044 1422 2700 
Q 1081 2341 969 1747 
Q 844 1119 1044 756 
Q 1241 397 1706 397 
Q 2166 397 2503 759 
Q 2844 1122 2966 1747 
Q 3075 2319 2881 2700 
Q 2700 3044 2219 3044 
z
M 2309 3503 
L 4219 3500 
L 4106 2925 
L 3463 2925 
Q 3706 2438 3575 1747 
Q 3406 888 2884 400 
Q 2359 -91 1609 -91 
Q 856 -91 525 400 
Q 194 888 363 1747 
Q 528 2609 1050 3097 
Q 1484 3503 2309 3503 
z
" transform="scale(0.015625)"/>
      <path id="DejaVuSans-32" d="M 1228 531 
L 3431 531 
L 3431 0 
L 469 0 
L 469 531 
Q 828 903 1448 1529 
Q 2069 2156 2228 2338 
Q 2531 2678 2651 2914 
Q 2772 3150 2772 3378 
Q 2772 3750 2511 3984 
Q 2250 4219 1831 4219 
Q 1534 4219 1204 4116 
Q 875 4013 500 3803 
L 500 4441 
Q 881 4594 1212 4672 
Q 1544 4750 1819 4750 
Q 2544 4750 2975 4387 
Q 3406 4025 3406 3419 
Q 3406 3131 3298 2873 
Q 3191 2616 2906 2266 
Q 2828 2175 2409 1742 
Q 1991 1309 1228 531 
z
" transform="scale(0.015625)"/>
      <path id="DejaVuSans-31" d="M 794 531 
L 1825 531 
L 1825 4091 
L 703 3866 
L 703 4441 
L 1819 4666 
L 2450 4666 
L 2450 531 
L 3481 531 
L 3481 0 
L 794 0 
L 794 531 
z
" transform="scale(0.015625)"/>
     </defs>
     <use xlink:href="#DejaVuSans-Oblique-3bc" transform="translate(0 0.765625)"/>
     <use xlink:href="#DejaVuSans-3d" transform="translate(83.105469 0.765625)"/>
     <use xlink:href="#DejaVuSans-30" transform="translate(186.376953 0.765625)"/>
     <use xlink:href="#DejaVuSans-2c" transform="translate(250 0.765625)"/>
     <use xlink:href="#DejaVuSans-Oblique-3c3" transform="translate(301.269531 0.765625)"/>
     <use xlink:href="#DejaVuSans-32" transform="translate(369.121146 39.046875) scale(0.7)"/>
     <use xlink:href="#DejaVuSans-3d" transform="translate(435.874076 0.765625)"/>
     <use xlink:href="#DejaVuSans-31" transform="translate(539.14556 0.765625)"/>
    </g>
   </g>
   <g id="legend_1">
    <g id="patch_7">
     <path d="M 352.42 91.907938 
L 407.72 91.907938 
Q 409.72 91.907938 409.72 89.907938 
L 409.72 48.472 
Q 409.72 46.472 407.72 46.472 
L 352.42 46.472 
Q 350.42 46.472 350.42 48.472 
L 350.42 89.907938 
Q 350.42 91.907938 352.42 91.907938 
z
" style="fill: #eaeaf2; opacity: 0.8; stroke: #cccccc; stroke-linejoin: miter"/>
    </g>
    <g id="line2d_18">
     <path d="M 354.42 54.129813 
L 364.42 54.129813 
L 374.42 54.129813 
" style="fill: none; stroke: #0000ff; stroke-width: 1.5; stroke-linecap: round"/>
    </g>
    <g id="text_18">
     <!-- $n$ = 1 -->
     <g style="fill: #262626" transform="translate(382.42 57.629813) scale(0.1 -0.1)">
      <defs>
       <path id="ArialMT-3d" d="M 3381 2694 
L 356 2694 
L 356 3219 
L 3381 3219 
L 3381 2694 
z
M 3381 1303 
L 356 1303 
L 356 1828 
L 3381 1828 
L 3381 1303 
z
" transform="scale(0.015625)"/>
      </defs>
      <use xlink:href="#DejaVuSans-Oblique-6e" transform="translate(0 0.125)"/>
      <use xlink:href="#ArialMT-20" transform="translate(63.378906 0.125)"/>
      <use xlink:href="#ArialMT-3d" transform="translate(91.162109 0.125)"/>
      <use xlink:href="#ArialMT-20" transform="translate(149.560547 0.125)"/>
      <use xlink:href="#ArialMT-31" transform="translate(177.34375 0.125)"/>
     </g>
    </g>
    <g id="line2d_19">
     <path d="M 354.42 68.275125 
L 364.42 68.275125 
L 374.42 68.275125 
" style="fill: none; stroke: #0000cd; stroke-width: 1.5; stroke-linecap: round"/>
    </g>
    <g id="text_19">
     <!-- $n$ = 2 -->
     <g style="fill: #262626" transform="translate(382.42 71.775125) scale(0.1 -0.1)">
      <use xlink:href="#DejaVuSans-Oblique-6e" transform="translate(0 0.125)"/>
      <use xlink:href="#ArialMT-20" transform="translate(63.378906 0.125)"/>
      <use xlink:href="#ArialMT-3d" transform="translate(91.162109 0.125)"/>
      <use xlink:href="#ArialMT-20" transform="translate(149.560547 0.125)"/>
      <use xlink:href="#ArialMT-32" transform="translate(177.34375 0.125)"/>
     </g>
    </g>
    <g id="line2d_20">
     <path d="M 354.42 82.420437 
L 364.42 82.420437 
L 374.42 82.420437 
" style="fill: none; stroke: #191970; stroke-width: 1.5; stroke-linecap: round"/>
    </g>
    <g id="text_20">
     <!-- $n$ = 5 -->
     <g style="fill: #262626" transform="translate(382.42 85.920437) scale(0.1 -0.1)">
      <defs>
       <path id="ArialMT-35" d="M 266 1200 
L 856 1250 
Q 922 819 1161 601 
Q 1400 384 1738 384 
Q 2144 384 2425 690 
Q 2706 997 2706 1503 
Q 2706 1984 2436 2262 
Q 2166 2541 1728 2541 
Q 1456 2541 1237 2417 
Q 1019 2294 894 2097 
L 366 2166 
L 809 4519 
L 3088 4519 
L 3088 3981 
L 1259 3981 
L 1013 2750 
Q 1425 3038 1878 3038 
Q 2478 3038 2890 2622 
Q 3303 2206 3303 1553 
Q 3303 931 2941 478 
Q 2500 -78 1738 -78 
Q 1113 -78 717 272 
Q 322 622 266 1200 
z
" transform="scale(0.015625)"/>
      </defs>
      <use xlink:href="#DejaVuSans-Oblique-6e" transform="translate(0 0.390625)"/>
      <use xlink:href="#ArialMT-20" transform="translate(63.378906 0.390625)"/>
      <use xlink:href="#ArialMT-3d" transform="translate(91.162109 0.390625)"/>
      <use xlink:href="#ArialMT-20" transform="translate(149.560547 0.390625)"/>
      <use xlink:href="#ArialMT-35" transform="translate(177.34375 0.390625)"/>
     </g>
    </g>
   </g>
  </g>
 </g>
 <defs>
  <clipPath id="p8ae356e7ac">
   <rect x="57.6" y="41.472" width="357.12" height="266.112"/>
  </clipPath>
 </defs>
</svg>
