<?xml version="1.0" encoding="utf-8" standalone="no"?>
<!DOCTYPE svg PUBLIC "-//W3C//DTD SVG 1.1//EN"
  "http://www.w3.org/Graphics/SVG/1.1/DTD/svg11.dtd">
<svg xmlns:xlink="http://www.w3.org/1999/xlink" width="460.8pt" height="345.6pt" viewBox="0 0 460.8 345.6" xmlns="http://www.w3.org/2000/svg" version="1.1">
 <metadata>
  <rdf:RDF xmlns:dc="http://purl.org/dc/elements/1.1/" xmlns:cc="http://creativecommons.org/ns#" xmlns:rdf="http://www.w3.org/1999/02/22-rdf-syntax-ns#">
   <cc:Work>
    <dc:type rdf:resource="http://purl.org/dc/dcmitype/StillImage"/>
    <dc:date>2025-04-06T14:04:09.728865</dc:date>
    <dc:format>image/svg+xml</dc:format>
    <dc:creator>
     <cc:Agent>
      <dc:title>Matplotlib v3.10.1, https://matplotlib.org/</dc:title>
     </cc:Agent>
    </dc:creator>
   </cc:Work>
  </rdf:RDF>
 </metadata>
 <defs>
  <style type="text/css">*{stroke-linejoin: round; stroke-linecap: butt}</style>
 </defs>
 <g id="figure_1">
  <g id="patch_1">
   <path d="M 0 345.6 
L 460.8 345.6 
L 460.8 0 
L 0 0 
z
" style="fill: #ffffff"/>
  </g>
  <g id="axes_1">
   <g id="patch_2">
    <path d="M 57.6 307.584 
L 414.72 307.584 
L 414.72 41.472 
L 57.6 41.472 
z
" style="fill: #eaeaf2"/>
   </g>
   <g id="matplotlib.axis_1">
    <g id="xtick_1">
     <g id="line2d_1">
      <path d="M 106.626147 307.584 
L 106.626147 41.472 
" clip-path="url(#pdb48c5b0d6)" style="fill: none; stroke: #ffffff; stroke-width: 0.8; stroke-linecap: round"/>
     </g>
     <g id="text_1">
      <!-- −2 -->
      <g style="fill: #262626" transform="translate(100.925366 321.741812) scale(0.1 -0.1)">
       <defs>
        <path id="ArialMT-2212" d="M 3381 1997 
L 356 1997 
L 356 2522 
L 3381 2522 
L 3381 1997 
z
" transform="scale(0.015625)"/>
        <path id="ArialMT-32" d="M 3222 541 
L 3222 0 
L 194 0 
Q 188 203 259 391 
Q 375 700 629 1000 
Q 884 1300 1366 1694 
Q 2113 2306 2375 2664 
Q 2638 3022 2638 3341 
Q 2638 3675 2398 3904 
Q 2159 4134 1775 4134 
Q 1369 4134 1125 3890 
Q 881 3647 878 3216 
L 300 3275 
Q 359 3922 746 4261 
Q 1134 4600 1788 4600 
Q 2447 4600 2831 4234 
Q 3216 3869 3216 3328 
Q 3216 3053 3103 2787 
Q 2991 2522 2730 2228 
Q 2469 1934 1863 1422 
Q 1356 997 1212 845 
Q 1069 694 975 541 
L 3222 541 
z
" transform="scale(0.015625)"/>
       </defs>
       <use xlink:href="#ArialMT-2212"/>
       <use xlink:href="#ArialMT-32" transform="translate(58.398438 0)"/>
      </g>
     </g>
    </g>
    <g id="xtick_2">
     <g id="line2d_2">
      <path d="M 172.212986 307.584 
L 172.212986 41.472 
" clip-path="url(#pdb48c5b0d6)" style="fill: none; stroke: #ffffff; stroke-width: 0.8; stroke-linecap: round"/>
     </g>
     <g id="text_2">
      <!-- −1 -->
      <g style="fill: #262626" transform="translate(166.512205 321.741812) scale(0.1 -0.1)">
       <defs>
        <path id="ArialMT-31" d="M 2384 0 
L 1822 0 
L 1822 3584 
Q 1619 3391 1289 3197 
Q 959 3003 697 2906 
L 697 3450 
Q 1169 3672 1522 3987 
Q 1875 4303 2022 4600 
L 2384 4600 
L 2384 0 
z
" transform="scale(0.015625)"/>
       </defs>
       <use xlink:href="#ArialMT-2212"/>
       <use xlink:href="#ArialMT-31" transform="translate(58.398438 0)"/>
      </g>
     </g>
    </g>
    <g id="xtick_3">
     <g id="line2d_3">
      <path d="M 237.799826 307.584 
L 237.799826 41.472 
" clip-path="url(#pdb48c5b0d6)" style="fill: none; stroke: #ffffff; stroke-width: 0.8; stroke-linecap: round"/>
     </g>
     <g id="text_3">
      <!-- 0 -->
      <g style="fill: #262626" transform="translate(235.019357 321.741812) scale(0.1 -0.1)">
       <defs>
        <path id="ArialMT-30" d="M 266 2259 
Q 266 3072 433 3567 
Q 600 4063 929 4331 
Q 1259 4600 1759 4600 
Q 2128 4600 2406 4451 
Q 2684 4303 2865 4023 
Q 3047 3744 3150 3342 
Q 3253 2941 3253 2259 
Q 3253 1453 3087 958 
Q 2922 463 2592 192 
Q 2263 -78 1759 -78 
Q 1097 -78 719 397 
Q 266 969 266 2259 
z
M 844 2259 
Q 844 1131 1108 757 
Q 1372 384 1759 384 
Q 2147 384 2411 759 
Q 2675 1134 2675 2259 
Q 2675 3391 2411 3762 
Q 2147 4134 1753 4134 
Q 1366 4134 1134 3806 
Q 844 3388 844 2259 
z
" transform="scale(0.015625)"/>
       </defs>
       <use xlink:href="#ArialMT-30"/>
      </g>
     </g>
    </g>
    <g id="xtick_4">
     <g id="line2d_4">
      <path d="M 303.386665 307.584 
L 303.386665 41.472 
" clip-path="url(#pdb48c5b0d6)" style="fill: none; stroke: #ffffff; stroke-width: 0.8; stroke-linecap: round"/>
     </g>
     <g id="text_4">
      <!-- 1 -->
      <g style="fill: #262626" transform="translate(300.606196 321.741812) scale(0.1 -0.1)">
       <use xlink:href="#ArialMT-31"/>
      </g>
     </g>
    </g>
    <g id="xtick_5">
     <g id="line2d_5">
      <path d="M 368.973505 307.584 
L 368.973505 41.472 
" clip-path="url(#pdb48c5b0d6)" style="fill: none; stroke: #ffffff; stroke-width: 0.8; stroke-linecap: round"/>
     </g>
     <g id="text_5">
      <!-- 2 -->
      <g style="fill: #262626" transform="translate(366.193036 321.741812) scale(0.1 -0.1)">
       <use xlink:href="#ArialMT-32"/>
      </g>
     </g>
    </g>
    <g id="text_6">
     <!-- $x$ -->
     <g style="fill: #262626" transform="translate(233.16 334.887125) scale(0.1 -0.1)">
      <defs>
       <path id="DejaVuSans-Oblique-78" d="M 3841 3500 
L 2234 1784 
L 3219 0 
L 2559 0 
L 1819 1388 
L 531 0 
L -166 0 
L 1556 1844 
L 641 3500 
L 1300 3500 
L 1972 2234 
L 3144 3500 
L 3841 3500 
z
" transform="scale(0.015625)"/>
      </defs>
      <use xlink:href="#DejaVuSans-Oblique-78" transform="translate(0 0.3125)"/>
     </g>
    </g>
   </g>
   <g id="matplotlib.axis_2">
    <g id="ytick_1">
     <g id="line2d_6">
      <path d="M 57.6 271.296 
L 414.72 271.296 
" clip-path="url(#pdb48c5b0d6)" style="fill: none; stroke: #ffffff; stroke-width: 0.8; stroke-linecap: round"/>
     </g>
     <g id="text_7">
      <!-- −2 -->
      <g style="fill: #262626" transform="translate(39.198437 274.874906) scale(0.1 -0.1)">
       <use xlink:href="#ArialMT-2212"/>
       <use xlink:href="#ArialMT-32" transform="translate(58.398438 0)"/>
      </g>
     </g>
    </g>
    <g id="ytick_2">
     <g id="line2d_7">
      <path d="M 57.6 222.912 
L 414.72 222.912 
" clip-path="url(#pdb48c5b0d6)" style="fill: none; stroke: #ffffff; stroke-width: 0.8; stroke-linecap: round"/>
     </g>
     <g id="text_8">
      <!-- −1 -->
      <g style="fill: #262626" transform="translate(39.198437 226.490906) scale(0.1 -0.1)">
       <use xlink:href="#ArialMT-2212"/>
       <use xlink:href="#ArialMT-31" transform="translate(58.398438 0)"/>
      </g>
     </g>
    </g>
    <g id="ytick_3">
     <g id="line2d_8">
      <path d="M 57.6 174.528 
L 414.72 174.528 
" clip-path="url(#pdb48c5b0d6)" style="fill: none; stroke: #ffffff; stroke-width: 0.8; stroke-linecap: round"/>
     </g>
     <g id="text_9">
      <!-- 0 -->
      <g style="fill: #262626" transform="translate(45.039062 178.106906) scale(0.1 -0.1)">
       <use xlink:href="#ArialMT-30"/>
      </g>
     </g>
    </g>
    <g id="ytick_4">
     <g id="line2d_9">
      <path d="M 57.6 126.144 
L 414.72 126.144 
" clip-path="url(#pdb48c5b0d6)" style="fill: none; stroke: #ffffff; stroke-width: 0.8; stroke-linecap: round"/>
     </g>
     <g id="text_10">
      <!-- 1 -->
      <g style="fill: #262626" transform="translate(45.039062 129.722906) scale(0.1 -0.1)">
       <use xlink:href="#ArialMT-31"/>
      </g>
     </g>
    </g>
    <g id="ytick_5">
     <g id="line2d_10">
      <path d="M 57.6 77.76 
L 414.72 77.76 
" clip-path="url(#pdb48c5b0d6)" style="fill: none; stroke: #ffffff; stroke-width: 0.8; stroke-linecap: round"/>
     </g>
     <g id="text_11">
      <!-- 2 -->
      <g style="fill: #262626" transform="translate(45.039062 81.338906) scale(0.1 -0.1)">
       <use xlink:href="#ArialMT-32"/>
      </g>
     </g>
    </g>
    <g id="text_12">
     <!-- $x_{next}$ -->
     <g style="fill: #262626" transform="translate(33.210938 185.478) rotate(-90) scale(0.1 -0.1)">
      <defs>
       <path id="DejaVuSans-Oblique-6e" d="M 3566 2113 
L 3156 0 
L 2578 0 
L 2988 2091 
Q 3016 2238 3031 2350 
Q 3047 2463 3047 2528 
Q 3047 2791 2881 2937 
Q 2716 3084 2419 3084 
Q 1956 3084 1622 2776 
Q 1288 2469 1184 1941 
L 800 0 
L 225 0 
L 903 3500 
L 1478 3500 
L 1363 2950 
Q 1603 3253 1940 3418 
Q 2278 3584 2650 3584 
Q 3113 3584 3367 3334 
Q 3622 3084 3622 2631 
Q 3622 2519 3608 2391 
Q 3594 2263 3566 2113 
z
" transform="scale(0.015625)"/>
       <path id="DejaVuSans-Oblique-65" d="M 3078 2063 
Q 3088 2113 3092 2166 
Q 3097 2219 3097 2272 
Q 3097 2653 2873 2875 
Q 2650 3097 2266 3097 
Q 1838 3097 1509 2826 
Q 1181 2556 1013 2059 
L 3078 2063 
z
M 3578 1613 
L 903 1613 
Q 884 1494 878 1425 
Q 872 1356 872 1306 
Q 872 872 1139 634 
Q 1406 397 1894 397 
Q 2269 397 2603 481 
Q 2938 566 3225 728 
L 3116 159 
Q 2806 34 2476 -28 
Q 2147 -91 1806 -91 
Q 1078 -91 686 257 
Q 294 606 294 1247 
Q 294 1794 489 2264 
Q 684 2734 1063 3103 
Q 1306 3334 1642 3459 
Q 1978 3584 2356 3584 
Q 2950 3584 3301 3228 
Q 3653 2872 3653 2272 
Q 3653 2128 3634 1964 
Q 3616 1800 3578 1613 
z
" transform="scale(0.015625)"/>
       <path id="DejaVuSans-Oblique-74" d="M 2706 3500 
L 2619 3053 
L 1472 3053 
L 1100 1153 
Q 1081 1047 1072 975 
Q 1063 903 1063 863 
Q 1063 663 1183 572 
Q 1303 481 1569 481 
L 2150 481 
L 2053 0 
L 1503 0 
Q 991 0 739 200 
Q 488 400 488 806 
Q 488 878 497 964 
Q 506 1050 525 1153 
L 897 3053 
L 409 3053 
L 500 3500 
L 978 3500 
L 1172 4494 
L 1747 4494 
L 1556 3500 
L 2706 3500 
z
" transform="scale(0.015625)"/>
      </defs>
      <use xlink:href="#DejaVuSans-Oblique-78" transform="translate(0 0.3125)"/>
      <use xlink:href="#DejaVuSans-Oblique-6e" transform="translate(59.179688 -16.09375) scale(0.7)"/>
      <use xlink:href="#DejaVuSans-Oblique-65" transform="translate(103.544922 -16.09375) scale(0.7)"/>
      <use xlink:href="#DejaVuSans-Oblique-78" transform="translate(146.611328 -16.09375) scale(0.7)"/>
      <use xlink:href="#DejaVuSans-Oblique-74" transform="translate(188.037109 -16.09375) scale(0.7)"/>
     </g>
    </g>
   </g>
   <g id="FillBetweenPolyCollection_1">
    <defs>
     <path id="m5864cb30e6" d="M 73.832727 -219.326316 
L 73.832727 -122.931269 
L 77.112066 -122.86325 
L 80.391405 -122.955206 
L 83.670744 -122.888478 
L 86.950083 -122.968443 
L 90.229421 -122.911258 
L 93.50876 -122.971708 
L 96.788099 -122.936668 
L 100.067438 -122.900348 
L 103.346777 -123.015682 
L 106.626116 -122.89706 
L 109.905455 -122.901415 
L 113.184793 -122.907033 
L 116.464132 -122.765485 
L 119.743471 -122.903743 
L 123.02281 -122.876622 
L 126.302149 -122.798451 
L 129.581488 -122.772239 
L 132.860826 -122.643974 
L 136.140165 -122.550207 
L 139.419504 -122.551499 
L 142.698843 -122.389977 
L 145.978182 -122.259428 
L 149.257521 -122.211047 
L 152.53686 -122.056124 
L 155.816198 -121.972646 
L 159.095537 -121.895322 
L 162.374876 -121.704459 
L 165.654215 -121.674017 
L 168.933554 -121.588065 
L 172.212893 -121.580757 
L 175.492231 -121.620728 
L 178.77157 -121.697152 
L 182.050909 -121.798215 
L 185.330248 -121.913987 
L 188.609587 -122.025098 
L 191.888926 -122.103789 
L 195.168264 -122.24044 
L 198.447603 -122.386493 
L 201.726942 -122.475023 
L 205.006281 -122.579813 
L 208.28562 -122.597065 
L 211.564959 -122.754558 
L 214.844298 -122.746941 
L 218.123636 -122.718004 
L 221.402975 -122.843351 
L 224.682314 -122.760127 
L 227.961653 -122.761707 
L 231.240992 -122.845808 
L 234.520331 -122.912311 
L 237.799669 -122.824536 
L 241.079008 -122.887774 
L 244.358347 -122.919809 
L 247.637686 -122.880452 
L 250.917025 -122.857565 
L 254.196364 -122.801067 
L 257.475702 -122.787743 
L 260.755041 -122.757396 
L 264.03438 -122.771746 
L 267.313719 -122.857626 
L 270.593058 -122.968982 
L 273.872397 -123.005028 
L 277.151736 -123.174227 
L 280.431074 -123.186507 
L 283.710413 -123.406261 
L 286.989752 -123.631446 
L 290.269091 -123.75734 
L 293.54843 -123.938683 
L 296.827769 -124.276825 
L 300.107107 -124.447852 
L 303.386446 -124.547197 
L 306.665785 -124.518234 
L 309.945124 -124.300648 
L 313.224463 -124.081826 
L 316.503802 -123.908414 
L 319.78314 -123.738044 
L 323.062479 -123.548721 
L 326.341818 -123.304897 
L 329.621157 -123.231643 
L 332.900496 -123.071727 
L 336.179835 -123.053034 
L 339.459174 -122.806633 
L 342.738512 -122.797808 
L 346.017851 -122.795316 
L 349.29719 -122.734543 
L 352.576529 -122.769811 
L 355.855868 -122.76691 
L 359.135207 -122.663965 
L 362.414545 -122.729854 
L 365.693884 -122.697791 
L 368.973223 -122.756089 
L 372.252562 -122.759786 
L 375.531901 -122.747556 
L 378.81124 -122.723313 
L 382.090579 -122.731962 
L 385.369917 -122.706319 
L 388.649256 -122.780908 
L 391.928595 -122.737021 
L 395.207934 -122.758145 
L 398.487273 -122.735331 
L 398.487273 -219.112662 
L 398.487273 -219.112662 
L 395.207934 -219.128249 
L 391.928595 -219.161547 
L 388.649256 -219.191188 
L 385.369917 -219.219903 
L 382.090579 -219.180056 
L 378.81124 -219.211949 
L 375.531901 -219.135964 
L 372.252562 -219.198484 
L 368.973223 -219.134046 
L 365.693884 -219.201529 
L 362.414545 -219.197108 
L 359.135207 -219.230743 
L 355.855868 -219.29814 
L 352.576529 -219.266988 
L 349.29719 -219.363925 
L 346.017851 -219.396231 
L 342.738512 -219.45615 
L 339.459174 -219.507126 
L 336.179835 -219.660706 
L 332.900496 -219.706006 
L 329.621157 -219.827932 
L 326.341818 -219.990694 
L 323.062479 -220.135317 
L 319.78314 -220.201947 
L 316.503802 -220.312787 
L 313.224463 -220.427855 
L 309.945124 -220.466534 
L 306.665785 -220.58572 
L 303.386446 -220.58752 
L 300.107107 -220.550658 
L 296.827769 -220.447223 
L 293.54843 -220.343564 
L 290.269091 -220.217514 
L 286.989752 -220.133875 
L 283.710413 -219.972774 
L 280.431074 -219.881734 
L 277.151736 -219.805195 
L 273.872397 -219.65409 
L 270.593058 -219.5502 
L 267.313719 -219.494229 
L 264.03438 -219.369667 
L 260.755041 -219.395908 
L 257.475702 -219.342192 
L 254.196364 -219.34644 
L 250.917025 -219.338106 
L 247.637686 -219.382509 
L 244.358347 -219.393405 
L 241.079008 -219.371894 
L 237.799669 -219.311989 
L 234.520331 -219.285151 
L 231.240992 -219.307213 
L 227.961653 -219.277244 
L 224.682314 -219.334714 
L 221.402975 -219.450795 
L 218.123636 -219.383602 
L 214.844298 -219.337927 
L 211.564959 -219.331421 
L 208.28562 -219.261895 
L 205.006281 -219.197065 
L 201.726942 -219.093475 
L 198.447603 -219.045879 
L 195.168264 -218.888077 
L 191.888926 -218.762036 
L 188.609587 -218.60054 
L 185.330248 -218.373484 
L 182.050909 -218.126898 
L 178.77157 -217.862902 
L 175.492231 -217.658882 
L 172.212893 -217.563136 
L 168.933554 -217.720283 
L 165.654215 -217.861953 
L 162.374876 -217.995218 
L 159.095537 -218.268071 
L 155.816198 -218.471868 
L 152.53686 -218.659121 
L 149.257521 -218.835296 
L 145.978182 -218.905147 
L 142.698843 -219.040503 
L 139.419504 -219.168754 
L 136.140165 -219.242282 
L 132.860826 -219.31782 
L 129.581488 -219.366564 
L 126.302149 -219.414841 
L 123.02281 -219.443193 
L 119.743471 -219.451149 
L 116.464132 -219.42563 
L 113.184793 -219.38828 
L 109.905455 -219.476839 
L 106.626116 -219.386867 
L 103.346777 -219.38094 
L 100.067438 -219.381462 
L 96.788099 -219.366028 
L 93.50876 -219.35613 
L 90.229421 -219.40762 
L 86.950083 -219.378348 
L 83.670744 -219.400326 
L 80.391405 -219.393803 
L 77.112066 -219.39784 
L 73.832727 -219.326316 
z
" style="stroke: #0000ff; stroke-opacity: 0.5"/>
    </defs>
    <g clip-path="url(#pdb48c5b0d6)">
     <use xlink:href="#m5864cb30e6" x="0" y="345.6" style="fill: #0000ff; fill-opacity: 0.5; stroke: #0000ff; stroke-opacity: 0.5"/>
    </g>
   </g>
   <g id="FillBetweenPolyCollection_2">
    <defs>
     <path id="mfcce0f01da" d="M 73.832727 -226.375772 
L 73.832727 -115.722339 
L 77.112066 -115.703144 
L 80.391405 -115.812243 
L 83.670744 -115.832349 
L 86.950083 -115.895853 
L 90.229421 -115.798861 
L 93.50876 -115.800966 
L 96.788099 -115.797281 
L 100.067438 -115.81662 
L 103.346777 -115.788779 
L 106.626116 -115.853442 
L 109.905455 -115.909898 
L 113.184793 -115.978517 
L 116.464132 -115.934832 
L 119.743471 -116.054399 
L 123.02281 -116.182283 
L 126.302149 -116.149285 
L 129.581488 -116.20724 
L 132.860826 -116.127558 
L 136.140165 -116.17531 
L 139.419504 -116.167886 
L 142.698843 -116.20904 
L 145.978182 -116.198387 
L 149.257521 -116.174433 
L 152.53686 -116.139036 
L 155.816198 -116.148639 
L 159.095537 -116.181666 
L 162.374876 -116.036196 
L 165.654215 -116.143137 
L 168.933554 -116.128884 
L 172.212893 -116.109672 
L 175.492231 -116.023979 
L 178.77157 -116.090609 
L 182.050909 -116.082257 
L 185.330248 -116.187814 
L 188.609587 -116.215875 
L 191.888926 -116.185859 
L 195.168264 -116.169744 
L 198.447603 -116.21824 
L 201.726942 -116.116634 
L 205.006281 -116.160152 
L 208.28562 -116.161628 
L 211.564959 -116.103685 
L 214.844298 -116.080492 
L 218.123636 -116.057859 
L 221.402975 -116.006503 
L 224.682314 -115.876525 
L 227.961653 -115.900732 
L 231.240992 -115.877875 
L 234.520331 -115.86372 
L 237.799669 -115.920257 
L 241.079008 -115.838861 
L 244.358347 -115.928412 
L 247.637686 -115.854803 
L 250.917025 -115.959899 
L 254.196364 -115.952914 
L 257.475702 -116.059123 
L 260.755041 -116.109464 
L 264.03438 -116.17062 
L 267.313719 -116.235981 
L 270.593058 -116.393276 
L 273.872397 -116.415793 
L 277.151736 -116.501924 
L 280.431074 -116.524811 
L 283.710413 -116.652528 
L 286.989752 -116.672029 
L 290.269091 -116.782979 
L 293.54843 -116.872028 
L 296.827769 -116.998989 
L 300.107107 -117.119064 
L 303.386446 -117.115609 
L 306.665785 -117.054124 
L 309.945124 -116.9786 
L 313.224463 -116.918742 
L 316.503802 -116.880576 
L 319.78314 -116.763628 
L 323.062479 -116.655752 
L 326.341818 -116.556199 
L 329.621157 -116.561483 
L 332.900496 -116.440883 
L 336.179835 -116.444367 
L 339.459174 -116.233518 
L 342.738512 -116.243485 
L 346.017851 -116.148483 
L 349.29719 -116.080412 
L 352.576529 -116.027821 
L 355.855868 -115.92622 
L 359.135207 -115.921456 
L 362.414545 -115.858616 
L 365.693884 -115.734354 
L 368.973223 -115.809047 
L 372.252562 -115.808263 
L 375.531901 -115.787331 
L 378.81124 -115.7753 
L 382.090579 -115.789777 
L 385.369917 -115.692503 
L 388.649256 -115.752932 
L 391.928595 -115.647877 
L 395.207934 -115.688782 
L 398.487273 -115.671496 
L 398.487273 -226.317499 
L 398.487273 -226.317499 
L 395.207934 -226.294815 
L 391.928595 -226.328037 
L 388.649256 -226.404801 
L 385.369917 -226.309465 
L 382.090579 -226.34485 
L 378.81124 -226.344141 
L 375.531901 -226.285465 
L 372.252562 -226.358065 
L 368.973223 -226.34823 
L 365.693884 -226.266604 
L 362.414545 -226.229592 
L 359.135207 -226.182388 
L 355.855868 -226.142608 
L 352.576529 -226.053114 
L 349.29719 -226.054198 
L 346.017851 -226.049065 
L 342.738512 -226.04948 
L 339.459174 -225.969296 
L 336.179835 -225.95115 
L 332.900496 -225.979217 
L 329.621157 -226.029506 
L 326.341818 -225.965437 
L 323.062479 -226.009578 
L 319.78314 -226.027251 
L 316.503802 -226.025348 
L 313.224463 -226.044514 
L 309.945124 -225.995747 
L 306.665785 -226.123845 
L 303.386446 -226.123856 
L 300.107107 -226.074882 
L 296.827769 -226.029847 
L 293.54843 -226.079686 
L 290.269091 -226.008979 
L 286.989752 -226.038227 
L 283.710413 -225.951941 
L 280.431074 -225.956503 
L 277.151736 -225.944269 
L 273.872397 -225.994213 
L 270.593058 -225.923782 
L 267.313719 -225.986207 
L 264.03438 -225.972647 
L 260.755041 -226.047467 
L 257.475702 -226.128522 
L 254.196364 -226.15442 
L 250.917025 -226.181258 
L 247.637686 -226.294267 
L 244.358347 -226.359645 
L 241.079008 -226.455016 
L 237.799669 -226.358301 
L 234.520331 -226.336303 
L 231.240992 -226.293955 
L 227.961653 -226.218679 
L 224.682314 -226.227798 
L 221.402975 -226.155349 
L 218.123636 -226.118071 
L 214.844298 -225.947372 
L 211.564959 -225.988526 
L 208.28562 -225.854061 
L 205.006281 -225.885743 
L 201.726942 -225.739575 
L 198.447603 -225.672386 
L 195.168264 -225.619414 
L 191.888926 -225.545949 
L 188.609587 -225.438558 
L 185.330248 -225.313345 
L 182.050909 -225.179629 
L 178.77157 -225.1103 
L 175.492231 -225.050124 
L 172.212893 -225.038577 
L 168.933554 -225.029308 
L 165.654215 -225.126202 
L 162.374876 -225.158225 
L 159.095537 -225.290227 
L 155.816198 -225.362873 
L 152.53686 -225.47275 
L 149.257521 -225.580222 
L 145.978182 -225.639959 
L 142.698843 -225.70194 
L 139.419504 -225.791272 
L 136.140165 -225.925195 
L 132.860826 -225.974522 
L 129.581488 -225.947073 
L 126.302149 -226.066541 
L 123.02281 -226.165569 
L 119.743471 -226.189904 
L 116.464132 -226.300525 
L 113.184793 -226.288995 
L 109.905455 -226.365055 
L 106.626116 -226.333534 
L 103.346777 -226.427538 
L 100.067438 -226.347688 
L 96.788099 -226.319484 
L 93.50876 -226.345139 
L 90.229421 -226.378823 
L 86.950083 -226.32798 
L 83.670744 -226.410782 
L 80.391405 -226.401167 
L 77.112066 -226.365863 
L 73.832727 -226.375772 
z
" style="stroke: #0000ff; stroke-opacity: 0.3"/>
    </defs>
    <g clip-path="url(#pdb48c5b0d6)">
     <use xlink:href="#mfcce0f01da" x="0" y="345.6" style="fill: #0000ff; fill-opacity: 0.3; stroke: #0000ff; stroke-opacity: 0.3"/>
    </g>
   </g>
   <g id="line2d_11">
    <path d="M 73.832727 173.895075 
L 77.112066 174.079006 
L 80.391405 173.880733 
L 83.670744 173.817427 
L 86.950083 174.052555 
L 90.229421 173.816191 
L 93.50876 173.8121 
L 96.788099 173.904028 
L 100.067438 174.01196 
L 103.346777 173.628509 
L 106.626116 173.897503 
L 109.905455 173.764446 
L 113.184793 173.951251 
L 116.464132 174.212914 
L 119.743471 173.891362 
L 123.02281 173.922611 
L 126.302149 174.320958 
L 129.581488 174.514774 
L 132.860826 175.210432 
L 136.140165 175.645645 
L 139.419504 176.098158 
L 142.698843 177.246255 
L 145.978182 177.869018 
L 149.257521 178.695172 
L 152.53686 179.974481 
L 155.816198 181.165832 
L 159.095537 181.994036 
L 162.374876 183.416923 
L 165.654215 184.316455 
L 168.933554 184.925433 
L 172.212893 185.543674 
L 175.492231 184.861235 
L 178.77157 184.124981 
L 182.050909 182.859606 
L 185.330248 181.544963 
L 188.609587 180.519793 
L 191.888926 179.415093 
L 195.168264 178.337975 
L 198.447603 177.375225 
L 201.726942 176.561604 
L 205.006281 175.878832 
L 208.28562 175.318927 
L 211.564959 174.876252 
L 214.844298 174.537037 
L 218.123636 174.567618 
L 221.402975 174.190616 
L 224.682314 174.699598 
L 227.961653 174.861131 
L 231.240992 174.426371 
L 234.520331 174.285865 
L 237.799669 174.460662 
L 241.079008 174.230887 
L 244.358347 174.125055 
L 247.637686 174.455774 
L 250.917025 174.325168 
L 254.196364 174.557042 
L 257.475702 174.516999 
L 260.755041 174.356727 
L 264.03438 174.400443 
L 267.313719 173.873653 
L 270.593058 173.10833 
L 273.872397 172.512486 
L 277.151736 171.457158 
L 280.431074 170.775107 
L 283.710413 169.644161 
L 286.989752 168.391865 
L 290.269091 167.327874 
L 293.54843 166.321741 
L 296.827769 165.084142 
L 300.107107 164.2027 
L 303.386446 163.618368 
L 306.665785 163.683632 
L 309.945124 164.779108 
L 313.224463 165.661747 
L 316.503802 166.682444 
L 319.78314 167.843823 
L 323.062479 168.958008 
L 326.341818 170.24682 
L 329.621157 171.049074 
L 332.900496 172.045826 
L 336.179835 172.351448 
L 339.459174 173.750189 
L 342.738512 173.979464 
L 346.017851 174.286654 
L 349.29719 174.625441 
L 352.576529 174.964648 
L 355.855868 175.002333 
L 359.135207 175.296426 
L 362.414545 175.174193 
L 365.693884 175.365973 
L 368.973223 175.317112 
L 372.252562 175.181454 
L 375.531901 175.362754 
L 378.81124 175.309807 
L 382.090579 175.273357 
L 385.369917 175.220635 
L 388.649256 174.991073 
L 391.928595 175.244793 
L 395.207934 175.477535 
L 398.487273 175.481767 
" clip-path="url(#pdb48c5b0d6)" style="fill: none; stroke: #0000ff; stroke-width: 1.5; stroke-linecap: round"/>
   </g>
   <g id="LineCollection_1">
    <path d="M 172.212986 295.488 
L 172.212986 53.568 
" clip-path="url(#pdb48c5b0d6)" style="fill: none; stroke-dasharray: 5.55,2.4; stroke-dashoffset: 0; stroke: #008000; stroke-width: 1.5"/>
    <path d="M 303.386665 295.488 
L 303.386665 53.568 
" clip-path="url(#pdb48c5b0d6)" style="fill: none; stroke-dasharray: 5.55,2.4; stroke-dashoffset: 0; stroke: #008000; stroke-width: 1.5"/>
   </g>
   <g id="patch_3">
    <path d="M 57.6 307.584 
L 57.6 41.472 
" style="fill: none; stroke: #ffffff; stroke-width: 0.8; stroke-linejoin: miter; stroke-linecap: square"/>
   </g>
   <g id="patch_4">
    <path d="M 414.72 307.584 
L 414.72 41.472 
" style="fill: none; stroke: #ffffff; stroke-width: 0.8; stroke-linejoin: miter; stroke-linecap: square"/>
   </g>
   <g id="patch_5">
    <path d="M 57.6 307.584 
L 414.72 307.584 
" style="fill: none; stroke: #ffffff; stroke-width: 0.8; stroke-linejoin: miter; stroke-linecap: square"/>
   </g>
   <g id="patch_6">
    <path d="M 57.6 41.472 
L 414.72 41.472 
" style="fill: none; stroke: #ffffff; stroke-width: 0.8; stroke-linejoin: miter; stroke-linecap: square"/>
   </g>
   <g id="text_13">
    <!-- $\mu=0, \sigma^2=1, n=5$ -->
    <g style="fill: #262626" transform="translate(181.92 35.472) scale(0.12 -0.12)">
     <defs>
      <path id="DejaVuSans-Oblique-3bc" d="M -84 -1331 
L 856 3500 
L 1434 3500 
L 1009 1322 
Q 997 1256 987 1175 
Q 978 1094 978 1013 
Q 978 722 1161 565 
Q 1344 409 1684 409 
Q 2147 409 2431 671 
Q 2716 934 2816 1459 
L 3213 3500 
L 3788 3500 
L 3266 809 
Q 3253 750 3248 706 
Q 3244 663 3244 628 
Q 3244 531 3283 486 
Q 3322 441 3406 441 
Q 3438 441 3492 456 
Q 3547 472 3647 513 
L 3559 50 
Q 3422 -19 3297 -55 
Q 3172 -91 3053 -91 
Q 2847 -91 2730 40 
Q 2613 172 2613 403 
Q 2438 153 2195 31 
Q 1953 -91 1625 -91 
Q 1334 -91 1117 43 
Q 900 178 831 397 
L 494 -1331 
L -84 -1331 
z
" transform="scale(0.015625)"/>
      <path id="DejaVuSans-3d" d="M 678 2906 
L 4684 2906 
L 4684 2381 
L 678 2381 
L 678 2906 
z
M 678 1631 
L 4684 1631 
L 4684 1100 
L 678 1100 
L 678 1631 
z
" transform="scale(0.015625)"/>
      <path id="DejaVuSans-30" d="M 2034 4250 
Q 1547 4250 1301 3770 
Q 1056 3291 1056 2328 
Q 1056 1369 1301 889 
Q 1547 409 2034 409 
Q 2525 409 2770 889 
Q 3016 1369 3016 2328 
Q 3016 3291 2770 3770 
Q 2525 4250 2034 4250 
z
M 2034 4750 
Q 2819 4750 3233 4129 
Q 3647 3509 3647 2328 
Q 3647 1150 3233 529 
Q 2819 -91 2034 -91 
Q 1250 -91 836 529 
Q 422 1150 422 2328 
Q 422 3509 836 4129 
Q 1250 4750 2034 4750 
z
" transform="scale(0.015625)"/>
      <path id="DejaVuSans-2c" d="M 750 794 
L 1409 794 
L 1409 256 
L 897 -744 
L 494 -744 
L 750 256 
L 750 794 
z
" transform="scale(0.015625)"/>
      <path id="DejaVuSans-Oblique-3c3" d="M 2219 3044 
Q 1744 3044 1422 2700 
Q 1081 2341 969 1747 
Q 844 1119 1044 756 
Q 1241 397 1706 397 
Q 2166 397 2503 759 
Q 2844 1122 2966 1747 
Q 3075 2319 2881 2700 
Q 2700 3044 2219 3044 
z
M 2309 3503 
L 4219 3500 
L 4106 2925 
L 3463 2925 
Q 3706 2438 3575 1747 
Q 3406 888 2884 400 
Q 2359 -91 1609 -91 
Q 856 -91 525 400 
Q 194 888 363 1747 
Q 528 2609 1050 3097 
Q 1484 3503 2309 3503 
z
" transform="scale(0.015625)"/>
      <path id="DejaVuSans-32" d="M 1228 531 
L 3431 531 
L 3431 0 
L 469 0 
L 469 531 
Q 828 903 1448 1529 
Q 2069 2156 2228 2338 
Q 2531 2678 2651 2914 
Q 2772 3150 2772 3378 
Q 2772 3750 2511 3984 
Q 2250 4219 1831 4219 
Q 1534 4219 1204 4116 
Q 875 4013 500 3803 
L 500 4441 
Q 881 4594 1212 4672 
Q 1544 4750 1819 4750 
Q 2544 4750 2975 4387 
Q 3406 4025 3406 3419 
Q 3406 3131 3298 2873 
Q 3191 2616 2906 2266 
Q 2828 2175 2409 1742 
Q 1991 1309 1228 531 
z
" transform="scale(0.015625)"/>
      <path id="DejaVuSans-31" d="M 794 531 
L 1825 531 
L 1825 4091 
L 703 3866 
L 703 4441 
L 1819 4666 
L 2450 4666 
L 2450 531 
L 3481 531 
L 3481 0 
L 794 0 
L 794 531 
z
" transform="scale(0.015625)"/>
      <path id="DejaVuSans-35" d="M 691 4666 
L 3169 4666 
L 3169 4134 
L 1269 4134 
L 1269 2991 
Q 1406 3038 1543 3061 
Q 1681 3084 1819 3084 
Q 2600 3084 3056 2656 
Q 3513 2228 3513 1497 
Q 3513 744 3044 326 
Q 2575 -91 1722 -91 
Q 1428 -91 1123 -41 
Q 819 9 494 109 
L 494 744 
Q 775 591 1075 516 
Q 1375 441 1709 441 
Q 2250 441 2565 725 
Q 2881 1009 2881 1497 
Q 2881 1984 2565 2268 
Q 2250 2553 1709 2553 
Q 1456 2553 1204 2497 
Q 953 2441 691 2322 
L 691 4666 
z
" transform="scale(0.015625)"/>
     </defs>
     <use xlink:href="#DejaVuSans-Oblique-3bc" transform="translate(0 0.765625)"/>
     <use xlink:href="#DejaVuSans-3d" transform="translate(83.105469 0.765625)"/>
     <use xlink:href="#DejaVuSans-30" transform="translate(186.376953 0.765625)"/>
     <use xlink:href="#DejaVuSans-2c" transform="translate(250 0.765625)"/>
     <use xlink:href="#DejaVuSans-Oblique-3c3" transform="translate(301.269531 0.765625)"/>
     <use xlink:href="#DejaVuSans-32" transform="translate(369.121146 39.046875) scale(0.7)"/>
     <use xlink:href="#DejaVuSans-3d" transform="translate(435.874076 0.765625)"/>
     <use xlink:href="#DejaVuSans-31" transform="translate(539.14556 0.765625)"/>
     <use xlink:href="#DejaVuSans-2c" transform="translate(602.768607 0.765625)"/>
     <use xlink:href="#DejaVuSans-Oblique-6e" transform="translate(654.038138 0.765625)"/>
     <use xlink:href="#DejaVuSans-3d" transform="translate(736.899466 0.765625)"/>
     <use xlink:href="#DejaVuSans-35" transform="translate(840.170951 0.765625)"/>
    </g>
   </g>
   <g id="legend_1">
    <g id="patch_7">
     <path d="M 64.6 302.584 
L 174.9 302.584 
Q 176.9 302.584 176.9 300.584 
L 176.9 244.393375 
Q 176.9 242.393375 174.9 242.393375 
L 64.6 242.393375 
Q 62.6 242.393375 62.6 244.393375 
L 62.6 300.584 
Q 62.6 302.584 64.6 302.584 
z
" style="fill: #eaeaf2; opacity: 0.8; stroke: #cccccc; stroke-linejoin: miter"/>
    </g>
    <g id="line2d_12">
     <path d="M 66.6 250.305875 
L 76.6 250.305875 
L 86.6 250.305875 
" style="fill: none; stroke: #0000ff; stroke-width: 1.5; stroke-linecap: round"/>
    </g>
    <g id="text_14">
     <!-- $E[x_{next}]$ -->
     <g style="fill: #262626" transform="translate(94.6 253.805875) scale(0.1 -0.1)">
      <defs>
       <path id="DejaVuSans-Oblique-45" d="M 1081 4666 
L 4031 4666 
L 3928 4134 
L 1606 4134 
L 1338 2753 
L 3566 2753 
L 3463 2222 
L 1234 2222 
L 909 531 
L 3284 531 
L 3181 0 
L 172 0 
L 1081 4666 
z
" transform="scale(0.015625)"/>
       <path id="DejaVuSans-5b" d="M 550 4863 
L 1875 4863 
L 1875 4416 
L 1125 4416 
L 1125 -397 
L 1875 -397 
L 1875 -844 
L 550 -844 
L 550 4863 
z
" transform="scale(0.015625)"/>
       <path id="DejaVuSans-5d" d="M 1947 4863 
L 1947 -844 
L 622 -844 
L 622 -397 
L 1369 -397 
L 1369 4416 
L 622 4416 
L 622 4863 
L 1947 4863 
z
" transform="scale(0.015625)"/>
      </defs>
      <use xlink:href="#DejaVuSans-Oblique-45" transform="translate(0 0.015625)"/>
      <use xlink:href="#DejaVuSans-5b" transform="translate(63.183594 0.015625)"/>
      <use xlink:href="#DejaVuSans-Oblique-78" transform="translate(102.197266 0.015625)"/>
      <use xlink:href="#DejaVuSans-Oblique-6e" transform="translate(161.376953 -16.390625) scale(0.7)"/>
      <use xlink:href="#DejaVuSans-Oblique-65" transform="translate(205.742188 -16.390625) scale(0.7)"/>
      <use xlink:href="#DejaVuSans-Oblique-78" transform="translate(248.808594 -16.390625) scale(0.7)"/>
      <use xlink:href="#DejaVuSans-Oblique-74" transform="translate(290.234375 -16.390625) scale(0.7)"/>
      <use xlink:href="#DejaVuSans-5d" transform="translate(320.415039 0.015625)"/>
     </g>
    </g>
    <g id="patch_8">
     <path d="M 66.6 267.951187 
L 86.6 267.951187 
L 86.6 260.951187 
L 66.6 260.951187 
z
" style="fill: #0000ff; fill-opacity: 0.5; stroke: #0000ff; stroke-opacity: 0.5; stroke-linejoin: miter"/>
    </g>
    <g id="text_15">
     <!-- 50% CI -->
     <g style="fill: #262626" transform="translate(94.6 267.951187) scale(0.1 -0.1)">
      <defs>
       <path id="ArialMT-35" d="M 266 1200 
L 856 1250 
Q 922 819 1161 601 
Q 1400 384 1738 384 
Q 2144 384 2425 690 
Q 2706 997 2706 1503 
Q 2706 1984 2436 2262 
Q 2166 2541 1728 2541 
Q 1456 2541 1237 2417 
Q 1019 2294 894 2097 
L 366 2166 
L 809 4519 
L 3088 4519 
L 3088 3981 
L 1259 3981 
L 1013 2750 
Q 1425 3038 1878 3038 
Q 2478 3038 2890 2622 
Q 3303 2206 3303 1553 
Q 3303 931 2941 478 
Q 2500 -78 1738 -78 
Q 1113 -78 717 272 
Q 322 622 266 1200 
z
" transform="scale(0.015625)"/>
       <path id="ArialMT-25" d="M 372 3481 
Q 372 3972 619 4315 
Q 866 4659 1334 4659 
Q 1766 4659 2048 4351 
Q 2331 4044 2331 3447 
Q 2331 2866 2045 2552 
Q 1759 2238 1341 2238 
Q 925 2238 648 2547 
Q 372 2856 372 3481 
z
M 1350 4272 
Q 1141 4272 1002 4090 
Q 863 3909 863 3425 
Q 863 2984 1003 2804 
Q 1144 2625 1350 2625 
Q 1563 2625 1702 2806 
Q 1841 2988 1841 3469 
Q 1841 3913 1700 4092 
Q 1559 4272 1350 4272 
z
M 1353 -169 
L 3859 4659 
L 4316 4659 
L 1819 -169 
L 1353 -169 
z
M 3334 1075 
Q 3334 1569 3581 1911 
Q 3828 2253 4300 2253 
Q 4731 2253 5014 1945 
Q 5297 1638 5297 1041 
Q 5297 459 5011 145 
Q 4725 -169 4303 -169 
Q 3888 -169 3611 142 
Q 3334 453 3334 1075 
z
M 4316 1866 
Q 4103 1866 3964 1684 
Q 3825 1503 3825 1019 
Q 3825 581 3965 400 
Q 4106 219 4313 219 
Q 4528 219 4667 400 
Q 4806 581 4806 1063 
Q 4806 1506 4665 1686 
Q 4525 1866 4316 1866 
z
" transform="scale(0.015625)"/>
       <path id="ArialMT-20" transform="scale(0.015625)"/>
       <path id="ArialMT-43" d="M 3763 1606 
L 4369 1453 
Q 4178 706 3683 314 
Q 3188 -78 2472 -78 
Q 1731 -78 1267 223 
Q 803 525 561 1097 
Q 319 1669 319 2325 
Q 319 3041 592 3573 
Q 866 4106 1370 4382 
Q 1875 4659 2481 4659 
Q 3169 4659 3637 4309 
Q 4106 3959 4291 3325 
L 3694 3184 
Q 3534 3684 3231 3912 
Q 2928 4141 2469 4141 
Q 1941 4141 1586 3887 
Q 1231 3634 1087 3207 
Q 944 2781 944 2328 
Q 944 1744 1114 1308 
Q 1284 872 1643 656 
Q 2003 441 2422 441 
Q 2931 441 3284 734 
Q 3638 1028 3763 1606 
z
" transform="scale(0.015625)"/>
       <path id="ArialMT-49" d="M 597 0 
L 597 4581 
L 1203 4581 
L 1203 0 
L 597 0 
z
" transform="scale(0.015625)"/>
      </defs>
      <use xlink:href="#ArialMT-35"/>
      <use xlink:href="#ArialMT-30" transform="translate(55.615234 0)"/>
      <use xlink:href="#ArialMT-25" transform="translate(111.230469 0)"/>
      <use xlink:href="#ArialMT-20" transform="translate(200.146484 0)"/>
      <use xlink:href="#ArialMT-43" transform="translate(227.929688 0)"/>
      <use xlink:href="#ArialMT-49" transform="translate(300.146484 0)"/>
     </g>
    </g>
    <g id="patch_9">
     <path d="M 66.6 282.0965 
L 86.6 282.0965 
L 86.6 275.0965 
L 66.6 275.0965 
z
" style="fill: #0000ff; fill-opacity: 0.3; stroke: #0000ff; stroke-opacity: 0.3; stroke-linejoin: miter"/>
    </g>
    <g id="text_16">
     <!-- 90% CI -->
     <g style="fill: #262626" transform="translate(94.6 282.0965) scale(0.1 -0.1)">
      <defs>
       <path id="ArialMT-39" d="M 350 1059 
L 891 1109 
Q 959 728 1153 556 
Q 1347 384 1650 384 
Q 1909 384 2104 503 
Q 2300 622 2425 820 
Q 2550 1019 2634 1356 
Q 2719 1694 2719 2044 
Q 2719 2081 2716 2156 
Q 2547 1888 2255 1720 
Q 1963 1553 1622 1553 
Q 1053 1553 659 1965 
Q 266 2378 266 3053 
Q 266 3750 677 4175 
Q 1088 4600 1706 4600 
Q 2153 4600 2523 4359 
Q 2894 4119 3086 3673 
Q 3278 3228 3278 2384 
Q 3278 1506 3087 986 
Q 2897 466 2520 194 
Q 2144 -78 1638 -78 
Q 1100 -78 759 220 
Q 419 519 350 1059 
z
M 2653 3081 
Q 2653 3566 2395 3850 
Q 2138 4134 1775 4134 
Q 1400 4134 1122 3828 
Q 844 3522 844 3034 
Q 844 2597 1108 2323 
Q 1372 2050 1759 2050 
Q 2150 2050 2401 2323 
Q 2653 2597 2653 3081 
z
" transform="scale(0.015625)"/>
      </defs>
      <use xlink:href="#ArialMT-39"/>
      <use xlink:href="#ArialMT-30" transform="translate(55.615234 0)"/>
      <use xlink:href="#ArialMT-25" transform="translate(111.230469 0)"/>
      <use xlink:href="#ArialMT-20" transform="translate(200.146484 0)"/>
      <use xlink:href="#ArialMT-43" transform="translate(227.929688 0)"/>
      <use xlink:href="#ArialMT-49" transform="translate(300.146484 0)"/>
     </g>
    </g>
    <g id="line2d_13">
     <path d="M 66.6 292.884 
L 86.6 292.884 
" style="fill: none; stroke-dasharray: 5.55,2.4; stroke-dashoffset: 0; stroke: #008000; stroke-width: 1.5"/>
    </g>
    <g id="text_17">
     <!-- modes of target $\pi$ -->
     <g style="fill: #262626" transform="translate(94.6 296.384) scale(0.1 -0.1)">
      <defs>
       <path id="ArialMT-6d" d="M 422 0 
L 422 3319 
L 925 3319 
L 925 2853 
Q 1081 3097 1340 3245 
Q 1600 3394 1931 3394 
Q 2300 3394 2536 3241 
Q 2772 3088 2869 2813 
Q 3263 3394 3894 3394 
Q 4388 3394 4653 3120 
Q 4919 2847 4919 2278 
L 4919 0 
L 4359 0 
L 4359 2091 
Q 4359 2428 4304 2576 
Q 4250 2725 4106 2815 
Q 3963 2906 3769 2906 
Q 3419 2906 3187 2673 
Q 2956 2441 2956 1928 
L 2956 0 
L 2394 0 
L 2394 2156 
Q 2394 2531 2256 2718 
Q 2119 2906 1806 2906 
Q 1569 2906 1367 2781 
Q 1166 2656 1075 2415 
Q 984 2175 984 1722 
L 984 0 
L 422 0 
z
" transform="scale(0.015625)"/>
       <path id="ArialMT-6f" d="M 213 1659 
Q 213 2581 725 3025 
Q 1153 3394 1769 3394 
Q 2453 3394 2887 2945 
Q 3322 2497 3322 1706 
Q 3322 1066 3130 698 
Q 2938 331 2570 128 
Q 2203 -75 1769 -75 
Q 1072 -75 642 372 
Q 213 819 213 1659 
z
M 791 1659 
Q 791 1022 1069 705 
Q 1347 388 1769 388 
Q 2188 388 2466 706 
Q 2744 1025 2744 1678 
Q 2744 2294 2464 2611 
Q 2184 2928 1769 2928 
Q 1347 2928 1069 2612 
Q 791 2297 791 1659 
z
" transform="scale(0.015625)"/>
       <path id="ArialMT-64" d="M 2575 0 
L 2575 419 
Q 2259 -75 1647 -75 
Q 1250 -75 917 144 
Q 584 363 401 755 
Q 219 1147 219 1656 
Q 219 2153 384 2558 
Q 550 2963 881 3178 
Q 1213 3394 1622 3394 
Q 1922 3394 2156 3267 
Q 2391 3141 2538 2938 
L 2538 4581 
L 3097 4581 
L 3097 0 
L 2575 0 
z
M 797 1656 
Q 797 1019 1065 703 
Q 1334 388 1700 388 
Q 2069 388 2326 689 
Q 2584 991 2584 1609 
Q 2584 2291 2321 2609 
Q 2059 2928 1675 2928 
Q 1300 2928 1048 2622 
Q 797 2316 797 1656 
z
" transform="scale(0.015625)"/>
       <path id="ArialMT-65" d="M 2694 1069 
L 3275 997 
Q 3138 488 2766 206 
Q 2394 -75 1816 -75 
Q 1088 -75 661 373 
Q 234 822 234 1631 
Q 234 2469 665 2931 
Q 1097 3394 1784 3394 
Q 2450 3394 2872 2941 
Q 3294 2488 3294 1666 
Q 3294 1616 3291 1516 
L 816 1516 
Q 847 969 1125 678 
Q 1403 388 1819 388 
Q 2128 388 2347 550 
Q 2566 713 2694 1069 
z
M 847 1978 
L 2700 1978 
Q 2663 2397 2488 2606 
Q 2219 2931 1791 2931 
Q 1403 2931 1139 2672 
Q 875 2413 847 1978 
z
" transform="scale(0.015625)"/>
       <path id="ArialMT-73" d="M 197 991 
L 753 1078 
Q 800 744 1014 566 
Q 1228 388 1613 388 
Q 2000 388 2187 545 
Q 2375 703 2375 916 
Q 2375 1106 2209 1216 
Q 2094 1291 1634 1406 
Q 1016 1563 777 1677 
Q 538 1791 414 1992 
Q 291 2194 291 2438 
Q 291 2659 392 2848 
Q 494 3038 669 3163 
Q 800 3259 1026 3326 
Q 1253 3394 1513 3394 
Q 1903 3394 2198 3281 
Q 2494 3169 2634 2976 
Q 2775 2784 2828 2463 
L 2278 2388 
Q 2241 2644 2061 2787 
Q 1881 2931 1553 2931 
Q 1166 2931 1000 2803 
Q 834 2675 834 2503 
Q 834 2394 903 2306 
Q 972 2216 1119 2156 
Q 1203 2125 1616 2013 
Q 2213 1853 2448 1751 
Q 2684 1650 2818 1456 
Q 2953 1263 2953 975 
Q 2953 694 2789 445 
Q 2625 197 2315 61 
Q 2006 -75 1616 -75 
Q 969 -75 630 194 
Q 291 463 197 991 
z
" transform="scale(0.015625)"/>
       <path id="ArialMT-66" d="M 556 0 
L 556 2881 
L 59 2881 
L 59 3319 
L 556 3319 
L 556 3672 
Q 556 4006 616 4169 
Q 697 4388 901 4523 
Q 1106 4659 1475 4659 
Q 1713 4659 2000 4603 
L 1916 4113 
Q 1741 4144 1584 4144 
Q 1328 4144 1222 4034 
Q 1116 3925 1116 3625 
L 1116 3319 
L 1763 3319 
L 1763 2881 
L 1116 2881 
L 1116 0 
L 556 0 
z
" transform="scale(0.015625)"/>
       <path id="ArialMT-74" d="M 1650 503 
L 1731 6 
Q 1494 -44 1306 -44 
Q 1000 -44 831 53 
Q 663 150 594 308 
Q 525 466 525 972 
L 525 2881 
L 113 2881 
L 113 3319 
L 525 3319 
L 525 4141 
L 1084 4478 
L 1084 3319 
L 1650 3319 
L 1650 2881 
L 1084 2881 
L 1084 941 
Q 1084 700 1114 631 
Q 1144 563 1211 522 
Q 1278 481 1403 481 
Q 1497 481 1650 503 
z
" transform="scale(0.015625)"/>
       <path id="ArialMT-61" d="M 2588 409 
Q 2275 144 1986 34 
Q 1697 -75 1366 -75 
Q 819 -75 525 192 
Q 231 459 231 875 
Q 231 1119 342 1320 
Q 453 1522 633 1644 
Q 813 1766 1038 1828 
Q 1203 1872 1538 1913 
Q 2219 1994 2541 2106 
Q 2544 2222 2544 2253 
Q 2544 2597 2384 2738 
Q 2169 2928 1744 2928 
Q 1347 2928 1158 2789 
Q 969 2650 878 2297 
L 328 2372 
Q 403 2725 575 2942 
Q 747 3159 1072 3276 
Q 1397 3394 1825 3394 
Q 2250 3394 2515 3294 
Q 2781 3194 2906 3042 
Q 3031 2891 3081 2659 
Q 3109 2516 3109 2141 
L 3109 1391 
Q 3109 606 3145 398 
Q 3181 191 3288 0 
L 2700 0 
Q 2613 175 2588 409 
z
M 2541 1666 
Q 2234 1541 1622 1453 
Q 1275 1403 1131 1340 
Q 988 1278 909 1158 
Q 831 1038 831 891 
Q 831 666 1001 516 
Q 1172 366 1500 366 
Q 1825 366 2078 508 
Q 2331 650 2450 897 
Q 2541 1088 2541 1459 
L 2541 1666 
z
" transform="scale(0.015625)"/>
       <path id="ArialMT-72" d="M 416 0 
L 416 3319 
L 922 3319 
L 922 2816 
Q 1116 3169 1280 3281 
Q 1444 3394 1641 3394 
Q 1925 3394 2219 3213 
L 2025 2691 
Q 1819 2813 1613 2813 
Q 1428 2813 1281 2702 
Q 1134 2591 1072 2394 
Q 978 2094 978 1738 
L 978 0 
L 416 0 
z
" transform="scale(0.015625)"/>
       <path id="ArialMT-67" d="M 319 -275 
L 866 -356 
Q 900 -609 1056 -725 
Q 1266 -881 1628 -881 
Q 2019 -881 2231 -725 
Q 2444 -569 2519 -288 
Q 2563 -116 2559 434 
Q 2191 0 1641 0 
Q 956 0 581 494 
Q 206 988 206 1678 
Q 206 2153 378 2554 
Q 550 2956 876 3175 
Q 1203 3394 1644 3394 
Q 2231 3394 2613 2919 
L 2613 3319 
L 3131 3319 
L 3131 450 
Q 3131 -325 2973 -648 
Q 2816 -972 2473 -1159 
Q 2131 -1347 1631 -1347 
Q 1038 -1347 672 -1080 
Q 306 -813 319 -275 
z
M 784 1719 
Q 784 1066 1043 766 
Q 1303 466 1694 466 
Q 2081 466 2343 764 
Q 2606 1063 2606 1700 
Q 2606 2309 2336 2618 
Q 2066 2928 1684 2928 
Q 1309 2928 1046 2623 
Q 784 2319 784 1719 
z
" transform="scale(0.015625)"/>
       <path id="DejaVuSans-Oblique-3c0" d="M 584 3500 
L 3938 3500 
L 3825 2925 
L 3384 2925 
L 2966 775 
Q 2922 550 2981 450 
Q 3038 353 3209 353 
Q 3256 353 3325 363 
Q 3397 369 3419 372 
L 3338 -44 
Q 3222 -84 3103 -103 
Q 2981 -122 2866 -122 
Q 2491 -122 2388 81 
Q 2284 288 2391 838 
L 2797 2925 
L 1506 2925 
L 938 0 
L 350 0 
L 919 2925 
L 472 2925 
L 584 3500 
z
" transform="scale(0.015625)"/>
      </defs>
      <use xlink:href="#ArialMT-6d" transform="translate(0 0.203125)"/>
      <use xlink:href="#ArialMT-6f" transform="translate(83.300781 0.203125)"/>
      <use xlink:href="#ArialMT-64" transform="translate(138.916016 0.203125)"/>
      <use xlink:href="#ArialMT-65" transform="translate(194.53125 0.203125)"/>
      <use xlink:href="#ArialMT-73" transform="translate(250.146484 0.203125)"/>
      <use xlink:href="#ArialMT-20" transform="translate(300.146484 0.203125)"/>
      <use xlink:href="#ArialMT-6f" transform="translate(327.929688 0.203125)"/>
      <use xlink:href="#ArialMT-66" transform="translate(383.544922 0.203125)"/>
      <use xlink:href="#ArialMT-20" transform="translate(411.328125 0.203125)"/>
      <use xlink:href="#ArialMT-74" transform="translate(439.111328 0.203125)"/>
      <use xlink:href="#ArialMT-61" transform="translate(466.894531 0.203125)"/>
      <use xlink:href="#ArialMT-72" transform="translate(522.509766 0.203125)"/>
      <use xlink:href="#ArialMT-67" transform="translate(555.810547 0.203125)"/>
      <use xlink:href="#ArialMT-65" transform="translate(611.425781 0.203125)"/>
      <use xlink:href="#ArialMT-74" transform="translate(667.041016 0.203125)"/>
      <use xlink:href="#ArialMT-20" transform="translate(694.824219 0.203125)"/>
      <use xlink:href="#DejaVuSans-Oblique-3c0" transform="translate(722.607422 0.203125)"/>
     </g>
    </g>
   </g>
  </g>
 </g>
 <defs>
  <clipPath id="pdb48c5b0d6">
   <rect x="57.6" y="41.472" width="357.12" height="266.112"/>
  </clipPath>
 </defs>
</svg>
