<?xml version="1.0" encoding="utf-8" standalone="no"?>
<!DOCTYPE svg PUBLIC "-//W3C//DTD SVG 1.1//EN"
  "http://www.w3.org/Graphics/SVG/1.1/DTD/svg11.dtd">
<svg xmlns:xlink="http://www.w3.org/1999/xlink" width="921.6pt" height="345.6pt" viewBox="0 0 921.6 345.6" xmlns="http://www.w3.org/2000/svg" version="1.1">
 <metadata>
  <rdf:RDF xmlns:dc="http://purl.org/dc/elements/1.1/" xmlns:cc="http://creativecommons.org/ns#" xmlns:rdf="http://www.w3.org/1999/02/22-rdf-syntax-ns#">
   <cc:Work>
    <dc:type rdf:resource="http://purl.org/dc/dcmitype/StillImage"/>
    <dc:date>2025-04-12T14:04:12.427118</dc:date>
    <dc:format>image/svg+xml</dc:format>
    <dc:creator>
     <cc:Agent>
      <dc:title>Matplotlib v3.10.1, https://matplotlib.org/</dc:title>
     </cc:Agent>
    </dc:creator>
   </cc:Work>
  </rdf:RDF>
 </metadata>
 <defs>
  <style type="text/css">*{stroke-linejoin: round; stroke-linecap: butt}</style>
 </defs>
 <g id="figure_1">
  <g id="patch_1">
   <path d="M 0 345.6 
L 921.6 345.6 
L 921.6 0 
L 0 0 
z
" style="fill: #ffffff"/>
  </g>
  <g id="axes_1">
   <g id="patch_2">
    <path d="M 115.2 307.584 
L 439.854545 307.584 
L 439.854545 41.472 
L 115.2 41.472 
z
" style="fill: #eaeaf2"/>
   </g>
   <g id="matplotlib.axis_1">
    <g id="xtick_1">
     <g id="line2d_1">
      <path d="M 159.471074 307.584 
L 159.471074 41.472 
" clip-path="url(#pa23e15d39f)" style="fill: none; stroke: #ffffff; stroke-width: 0.8; stroke-linecap: round"/>
     </g>
     <g id="text_1">
      <!-- −4 -->
      <g style="fill: #262626" transform="translate(153.770293 321.741812) scale(0.1 -0.1)">
       <defs>
        <path id="ArialMT-2212" d="M 3381 1997 
L 356 1997 
L 356 2522 
L 3381 2522 
L 3381 1997 
z
" transform="scale(0.015625)"/>
        <path id="ArialMT-34" d="M 2069 0 
L 2069 1097 
L 81 1097 
L 81 1613 
L 2172 4581 
L 2631 4581 
L 2631 1613 
L 3250 1613 
L 3250 1097 
L 2631 1097 
L 2631 0 
L 2069 0 
z
M 2069 1613 
L 2069 3678 
L 634 1613 
L 2069 1613 
z
" transform="scale(0.015625)"/>
       </defs>
       <use xlink:href="#ArialMT-2212"/>
       <use xlink:href="#ArialMT-34" transform="translate(58.398438 0)"/>
      </g>
     </g>
    </g>
    <g id="xtick_2">
     <g id="line2d_2">
      <path d="M 218.499174 307.584 
L 218.499174 41.472 
" clip-path="url(#pa23e15d39f)" style="fill: none; stroke: #ffffff; stroke-width: 0.8; stroke-linecap: round"/>
     </g>
     <g id="text_2">
      <!-- −2 -->
      <g style="fill: #262626" transform="translate(212.798392 321.741812) scale(0.1 -0.1)">
       <defs>
        <path id="ArialMT-32" d="M 3222 541 
L 3222 0 
L 194 0 
Q 188 203 259 391 
Q 375 700 629 1000 
Q 884 1300 1366 1694 
Q 2113 2306 2375 2664 
Q 2638 3022 2638 3341 
Q 2638 3675 2398 3904 
Q 2159 4134 1775 4134 
Q 1369 4134 1125 3890 
Q 881 3647 878 3216 
L 300 3275 
Q 359 3922 746 4261 
Q 1134 4600 1788 4600 
Q 2447 4600 2831 4234 
Q 3216 3869 3216 3328 
Q 3216 3053 3103 2787 
Q 2991 2522 2730 2228 
Q 2469 1934 1863 1422 
Q 1356 997 1212 845 
Q 1069 694 975 541 
L 3222 541 
z
" transform="scale(0.015625)"/>
       </defs>
       <use xlink:href="#ArialMT-2212"/>
       <use xlink:href="#ArialMT-32" transform="translate(58.398438 0)"/>
      </g>
     </g>
    </g>
    <g id="xtick_3">
     <g id="line2d_3">
      <path d="M 277.527273 307.584 
L 277.527273 41.472 
" clip-path="url(#pa23e15d39f)" style="fill: none; stroke: #ffffff; stroke-width: 0.8; stroke-linecap: round"/>
     </g>
     <g id="text_3">
      <!-- 0 -->
      <g style="fill: #262626" transform="translate(274.746804 321.741812) scale(0.1 -0.1)">
       <defs>
        <path id="ArialMT-30" d="M 266 2259 
Q 266 3072 433 3567 
Q 600 4063 929 4331 
Q 1259 4600 1759 4600 
Q 2128 4600 2406 4451 
Q 2684 4303 2865 4023 
Q 3047 3744 3150 3342 
Q 3253 2941 3253 2259 
Q 3253 1453 3087 958 
Q 2922 463 2592 192 
Q 2263 -78 1759 -78 
Q 1097 -78 719 397 
Q 266 969 266 2259 
z
M 844 2259 
Q 844 1131 1108 757 
Q 1372 384 1759 384 
Q 2147 384 2411 759 
Q 2675 1134 2675 2259 
Q 2675 3391 2411 3762 
Q 2147 4134 1753 4134 
Q 1366 4134 1134 3806 
Q 844 3388 844 2259 
z
" transform="scale(0.015625)"/>
       </defs>
       <use xlink:href="#ArialMT-30"/>
      </g>
     </g>
    </g>
    <g id="xtick_4">
     <g id="line2d_4">
      <path d="M 336.555372 307.584 
L 336.555372 41.472 
" clip-path="url(#pa23e15d39f)" style="fill: none; stroke: #ffffff; stroke-width: 0.8; stroke-linecap: round"/>
     </g>
     <g id="text_4">
      <!-- 2 -->
      <g style="fill: #262626" transform="translate(333.774903 321.741812) scale(0.1 -0.1)">
       <use xlink:href="#ArialMT-32"/>
      </g>
     </g>
    </g>
    <g id="xtick_5">
     <g id="line2d_5">
      <path d="M 395.583471 307.584 
L 395.583471 41.472 
" clip-path="url(#pa23e15d39f)" style="fill: none; stroke: #ffffff; stroke-width: 0.8; stroke-linecap: round"/>
     </g>
     <g id="text_5">
      <!-- 4 -->
      <g style="fill: #262626" transform="translate(392.803002 321.741812) scale(0.1 -0.1)">
       <use xlink:href="#ArialMT-34"/>
      </g>
     </g>
    </g>
    <g id="text_6">
     <!-- x -->
     <g style="fill: #262626" transform="translate(275.027273 334.887125) scale(0.1 -0.1)">
      <defs>
       <path id="ArialMT-78" d="M 47 0 
L 1259 1725 
L 138 3319 
L 841 3319 
L 1350 2541 
Q 1494 2319 1581 2169 
Q 1719 2375 1834 2534 
L 2394 3319 
L 3066 3319 
L 1919 1756 
L 3153 0 
L 2463 0 
L 1781 1031 
L 1600 1309 
L 728 0 
L 47 0 
z
" transform="scale(0.015625)"/>
      </defs>
      <use xlink:href="#ArialMT-78"/>
     </g>
    </g>
   </g>
   <g id="matplotlib.axis_2">
    <g id="ytick_1">
     <g id="line2d_6">
      <path d="M 115.2 287.255357 
L 439.854545 287.255357 
" clip-path="url(#pa23e15d39f)" style="fill: none; stroke: #ffffff; stroke-width: 0.8; stroke-linecap: round"/>
     </g>
     <g id="text_7">
      <!-- −6 -->
      <g style="fill: #262626" transform="translate(96.798438 290.834263) scale(0.1 -0.1)">
       <defs>
        <path id="ArialMT-36" d="M 3184 3459 
L 2625 3416 
Q 2550 3747 2413 3897 
Q 2184 4138 1850 4138 
Q 1581 4138 1378 3988 
Q 1113 3794 959 3422 
Q 806 3050 800 2363 
Q 1003 2672 1297 2822 
Q 1591 2972 1913 2972 
Q 2475 2972 2870 2558 
Q 3266 2144 3266 1488 
Q 3266 1056 3080 686 
Q 2894 316 2569 119 
Q 2244 -78 1831 -78 
Q 1128 -78 684 439 
Q 241 956 241 2144 
Q 241 3472 731 4075 
Q 1159 4600 1884 4600 
Q 2425 4600 2770 4297 
Q 3116 3994 3184 3459 
z
M 888 1484 
Q 888 1194 1011 928 
Q 1134 663 1356 523 
Q 1578 384 1822 384 
Q 2178 384 2434 671 
Q 2691 959 2691 1453 
Q 2691 1928 2437 2201 
Q 2184 2475 1800 2475 
Q 1419 2475 1153 2201 
Q 888 1928 888 1484 
z
" transform="scale(0.015625)"/>
       </defs>
       <use xlink:href="#ArialMT-2212"/>
       <use xlink:href="#ArialMT-36" transform="translate(58.398438 0)"/>
      </g>
     </g>
    </g>
    <g id="ytick_2">
     <g id="line2d_7">
      <path d="M 115.2 248.29971 
L 439.854545 248.29971 
" clip-path="url(#pa23e15d39f)" style="fill: none; stroke: #ffffff; stroke-width: 0.8; stroke-linecap: round"/>
     </g>
     <g id="text_8">
      <!-- −5 -->
      <g style="fill: #262626" transform="translate(96.798438 251.878616) scale(0.1 -0.1)">
       <defs>
        <path id="ArialMT-35" d="M 266 1200 
L 856 1250 
Q 922 819 1161 601 
Q 1400 384 1738 384 
Q 2144 384 2425 690 
Q 2706 997 2706 1503 
Q 2706 1984 2436 2262 
Q 2166 2541 1728 2541 
Q 1456 2541 1237 2417 
Q 1019 2294 894 2097 
L 366 2166 
L 809 4519 
L 3088 4519 
L 3088 3981 
L 1259 3981 
L 1013 2750 
Q 1425 3038 1878 3038 
Q 2478 3038 2890 2622 
Q 3303 2206 3303 1553 
Q 3303 931 2941 478 
Q 2500 -78 1738 -78 
Q 1113 -78 717 272 
Q 322 622 266 1200 
z
" transform="scale(0.015625)"/>
       </defs>
       <use xlink:href="#ArialMT-2212"/>
       <use xlink:href="#ArialMT-35" transform="translate(58.398438 0)"/>
      </g>
     </g>
    </g>
    <g id="ytick_3">
     <g id="line2d_8">
      <path d="M 115.2 209.344062 
L 439.854545 209.344062 
" clip-path="url(#pa23e15d39f)" style="fill: none; stroke: #ffffff; stroke-width: 0.8; stroke-linecap: round"/>
     </g>
     <g id="text_9">
      <!-- −4 -->
      <g style="fill: #262626" transform="translate(96.798438 212.922969) scale(0.1 -0.1)">
       <use xlink:href="#ArialMT-2212"/>
       <use xlink:href="#ArialMT-34" transform="translate(58.398438 0)"/>
      </g>
     </g>
    </g>
    <g id="ytick_4">
     <g id="line2d_9">
      <path d="M 115.2 170.388415 
L 439.854545 170.388415 
" clip-path="url(#pa23e15d39f)" style="fill: none; stroke: #ffffff; stroke-width: 0.8; stroke-linecap: round"/>
     </g>
     <g id="text_10">
      <!-- −3 -->
      <g style="fill: #262626" transform="translate(96.798438 173.967321) scale(0.1 -0.1)">
       <defs>
        <path id="ArialMT-33" d="M 269 1209 
L 831 1284 
Q 928 806 1161 595 
Q 1394 384 1728 384 
Q 2125 384 2398 659 
Q 2672 934 2672 1341 
Q 2672 1728 2419 1979 
Q 2166 2231 1775 2231 
Q 1616 2231 1378 2169 
L 1441 2663 
Q 1497 2656 1531 2656 
Q 1891 2656 2178 2843 
Q 2466 3031 2466 3422 
Q 2466 3731 2256 3934 
Q 2047 4138 1716 4138 
Q 1388 4138 1169 3931 
Q 950 3725 888 3313 
L 325 3413 
Q 428 3978 793 4289 
Q 1159 4600 1703 4600 
Q 2078 4600 2393 4439 
Q 2709 4278 2876 4000 
Q 3044 3722 3044 3409 
Q 3044 3113 2884 2869 
Q 2725 2625 2413 2481 
Q 2819 2388 3044 2092 
Q 3269 1797 3269 1353 
Q 3269 753 2831 336 
Q 2394 -81 1725 -81 
Q 1122 -81 723 278 
Q 325 638 269 1209 
z
" transform="scale(0.015625)"/>
       </defs>
       <use xlink:href="#ArialMT-2212"/>
       <use xlink:href="#ArialMT-33" transform="translate(58.398438 0)"/>
      </g>
     </g>
    </g>
    <g id="ytick_5">
     <g id="line2d_10">
      <path d="M 115.2 131.432768 
L 439.854545 131.432768 
" clip-path="url(#pa23e15d39f)" style="fill: none; stroke: #ffffff; stroke-width: 0.8; stroke-linecap: round"/>
     </g>
     <g id="text_11">
      <!-- −2 -->
      <g style="fill: #262626" transform="translate(96.798438 135.011674) scale(0.1 -0.1)">
       <use xlink:href="#ArialMT-2212"/>
       <use xlink:href="#ArialMT-32" transform="translate(58.398438 0)"/>
      </g>
     </g>
    </g>
    <g id="ytick_6">
     <g id="line2d_11">
      <path d="M 115.2 92.47712 
L 439.854545 92.47712 
" clip-path="url(#pa23e15d39f)" style="fill: none; stroke: #ffffff; stroke-width: 0.8; stroke-linecap: round"/>
     </g>
     <g id="text_12">
      <!-- −1 -->
      <g style="fill: #262626" transform="translate(96.798438 96.056027) scale(0.1 -0.1)">
       <defs>
        <path id="ArialMT-31" d="M 2384 0 
L 1822 0 
L 1822 3584 
Q 1619 3391 1289 3197 
Q 959 3003 697 2906 
L 697 3450 
Q 1169 3672 1522 3987 
Q 1875 4303 2022 4600 
L 2384 4600 
L 2384 0 
z
" transform="scale(0.015625)"/>
       </defs>
       <use xlink:href="#ArialMT-2212"/>
       <use xlink:href="#ArialMT-31" transform="translate(58.398438 0)"/>
      </g>
     </g>
    </g>
    <g id="ytick_7">
     <g id="line2d_12">
      <path d="M 115.2 53.521473 
L 439.854545 53.521473 
" clip-path="url(#pa23e15d39f)" style="fill: none; stroke: #ffffff; stroke-width: 0.8; stroke-linecap: round"/>
     </g>
     <g id="text_13">
      <!-- 0 -->
      <g style="fill: #262626" transform="translate(102.639063 57.100379) scale(0.1 -0.1)">
       <use xlink:href="#ArialMT-30"/>
      </g>
     </g>
    </g>
    <g id="text_14">
     <!-- f(x) -->
     <g style="fill: #262626" transform="translate(90.69375 181.74675) rotate(-90) scale(0.1 -0.1)">
      <defs>
       <path id="ArialMT-66" d="M 556 0 
L 556 2881 
L 59 2881 
L 59 3319 
L 556 3319 
L 556 3672 
Q 556 4006 616 4169 
Q 697 4388 901 4523 
Q 1106 4659 1475 4659 
Q 1713 4659 2000 4603 
L 1916 4113 
Q 1741 4144 1584 4144 
Q 1328 4144 1222 4034 
Q 1116 3925 1116 3625 
L 1116 3319 
L 1763 3319 
L 1763 2881 
L 1116 2881 
L 1116 0 
L 556 0 
z
" transform="scale(0.015625)"/>
       <path id="ArialMT-28" d="M 1497 -1347 
Q 1031 -759 709 28 
Q 388 816 388 1659 
Q 388 2403 628 3084 
Q 909 3875 1497 4659 
L 1900 4659 
Q 1522 4009 1400 3731 
Q 1209 3300 1100 2831 
Q 966 2247 966 1656 
Q 966 153 1900 -1347 
L 1497 -1347 
z
" transform="scale(0.015625)"/>
       <path id="ArialMT-29" d="M 791 -1347 
L 388 -1347 
Q 1322 153 1322 1656 
Q 1322 2244 1188 2822 
Q 1081 3291 891 3722 
Q 769 4003 388 4659 
L 791 4659 
Q 1378 3875 1659 3084 
Q 1900 2403 1900 1659 
Q 1900 816 1576 28 
Q 1253 -759 791 -1347 
z
" transform="scale(0.015625)"/>
      </defs>
      <use xlink:href="#ArialMT-66"/>
      <use xlink:href="#ArialMT-28" transform="translate(27.783203 0)"/>
      <use xlink:href="#ArialMT-78" transform="translate(61.083984 0)"/>
      <use xlink:href="#ArialMT-29" transform="translate(111.083984 0)"/>
     </g>
    </g>
   </g>
   <g id="line2d_13">
    <path d="M 129.957025 65.353728 
L 132.938248 65.114695 
L 135.919458 64.875657 
L 138.900668 64.636623 
L 141.881891 64.397586 
L 144.863115 64.15855 
L 147.844325 63.919517 
L 150.825548 63.680481 
L 153.806758 63.441445 
L 156.787982 63.202411 
L 159.769191 62.963374 
L 162.750415 62.724338 
L 165.731631 62.485304 
L 168.712848 62.246268 
L 171.694072 62.007232 
L 174.675281 61.768197 
L 177.656498 61.529164 
L 180.637715 61.290127 
L 183.618931 61.05109 
L 186.600148 60.812055 
L 189.581357 60.573021 
L 192.562588 60.333984 
L 195.543798 60.094948 
L 198.525014 59.855914 
L 201.506238 59.616878 
L 204.487448 59.377842 
L 207.468671 59.138807 
L 210.449881 58.899772 
L 213.431105 58.660735 
L 216.412321 58.4217 
L 219.393538 58.182665 
L 222.374758 57.94363 
L 225.355968 57.704594 
L 228.337195 57.465558 
L 231.318404 57.226524 
L 234.299621 56.987488 
L 237.280841 56.748453 
L 240.262051 56.509417 
L 243.243278 56.270381 
L 246.224488 56.031346 
L 249.205706 55.792311 
L 252.186928 55.553275 
L 255.168143 55.314239 
L 258.149365 55.075203 
L 261.130571 54.836169 
L 264.111801 54.597132 
L 267.093007 54.358098 
L 270.074229 54.119062 
L 273.055451 53.880026 
L 276.036657 53.640991 
L 279.017879 53.568 
L 281.999094 53.661054 
L 284.980316 53.754108 
L 287.961531 53.847162 
L 290.942753 53.940216 
L 293.923968 54.03327 
L 296.905181 54.126324 
L 299.886396 54.219377 
L 302.867618 54.312431 
L 305.848832 54.405485 
L 308.830054 54.498539 
L 311.811268 54.591593 
L 314.792484 54.684647 
L 317.773697 54.777701 
L 320.754917 54.870755 
L 323.736141 54.963809 
L 326.717358 55.056863 
L 329.698567 55.149917 
L 332.679784 55.24297 
L 335.661008 55.336025 
L 338.642217 55.429079 
L 341.623441 55.522133 
L 344.604658 55.615186 
L 347.585874 55.70824 
L 350.567084 55.801294 
L 353.548307 55.894349 
L 356.529524 55.987402 
L 359.510741 56.080456 
L 362.491957 56.17351 
L 365.473174 56.266563 
L 368.454384 56.359617 
L 371.435607 56.452672 
L 374.416831 56.545724 
L 377.398055 56.638779 
L 380.379264 56.731833 
L 383.360474 56.824886 
L 386.341697 56.91794 
L 389.322921 57.010995 
L 392.304124 57.104048 
L 395.285347 57.197102 
L 398.266564 57.290157 
L 401.247788 57.383209 
L 404.228983 57.476263 
L 407.210207 57.569318 
L 410.19143 57.662372 
L 413.172654 57.755427 
L 416.153878 57.84848 
L 419.135073 57.941534 
L 422.116297 58.034589 
L 425.097521 58.127643 
" clip-path="url(#pa23e15d39f)" style="fill: none; stroke: #4169e1; stroke-width: 1.5; stroke-linecap: round"/>
   </g>
   <g id="line2d_14">
    <path d="M 129.957025 214.341763 
L 132.938248 211.718048 
L 135.919458 209.09437 
L 138.900668 206.470692 
L 141.881891 203.848315 
L 144.863115 201.233386 
L 147.844325 198.618494 
L 150.825548 196.003584 
L 153.806758 193.388683 
L 156.787982 190.773782 
L 159.769191 188.158881 
L 162.750415 185.543961 
L 165.731631 182.924649 
L 168.712848 180.296475 
L 171.694072 177.668302 
L 174.675281 175.040147 
L 177.656498 172.411993 
L 180.637715 169.78382 
L 183.618931 167.155646 
L 186.600148 164.527325 
L 189.581357 161.89799 
L 192.562588 159.268638 
L 195.543798 156.639313 
L 198.525014 154.009969 
L 201.506238 151.380626 
L 204.487448 148.751301 
L 207.468671 146.121948 
L 210.449881 143.492614 
L 213.431105 140.863271 
L 216.412321 138.233927 
L 219.393538 135.604593 
L 222.374758 132.975249 
L 225.355968 130.345911 
L 228.337195 127.716558 
L 231.318404 125.090456 
L 234.299621 122.470001 
L 237.280841 119.849546 
L 240.262051 117.229104 
L 243.243278 114.608645 
L 246.224488 111.988491 
L 249.205706 109.371055 
L 252.186928 106.753609 
L 255.168143 104.136177 
L 258.149365 101.518736 
L 261.130571 98.901304 
L 264.111801 96.283858 
L 267.093007 93.666431 
L 270.074229 91.04899 
L 273.055451 88.431544 
L 276.036657 86.078262 
L 279.017879 84.252871 
L 281.999094 82.582284 
L 284.980316 81.065339 
L 287.961531 79.94398 
L 290.942753 79.350144 
L 293.923968 79.322964 
L 296.905181 79.630414 
L 299.886396 80.221948 
L 302.867618 81.349414 
L 305.848832 82.631597 
L 308.830054 83.935855 
L 311.811268 85.267458 
L 314.792484 86.687913 
L 317.773697 88.164507 
L 320.754917 89.641106 
L 323.736141 91.11771 
L 326.717358 92.594304 
L 329.698567 94.070898 
L 332.679784 95.547497 
L 335.661008 97.024101 
L 338.642217 98.500691 
L 341.623441 99.982742 
L 344.604658 101.465944 
L 347.585874 102.949142 
L 350.567084 104.43234 
L 353.548307 105.915543 
L 356.529524 107.398745 
L 359.510741 108.881948 
L 362.491957 110.365146 
L 365.473174 111.848344 
L 368.454384 113.331542 
L 371.435607 114.814744 
L 374.416831 116.297947 
L 377.398055 117.781154 
L 380.379264 119.264348 
L 383.360474 120.74755 
L 386.341697 122.230753 
L 389.322921 123.713951 
L 392.304124 125.197149 
L 395.285347 126.680347 
L 398.266564 128.163549 
L 401.247788 129.646747 
L 404.228983 131.129945 
L 407.210207 132.613157 
L 410.19143 134.096346 
L 413.172654 135.579562 
L 416.153878 137.06276 
L 419.135073 138.550825 
L 422.116297 140.046877 
L 425.097521 141.54722 
" clip-path="url(#pa23e15d39f)" style="fill: none; stroke: #0000ff; stroke-width: 1.5; stroke-linecap: round"/>
   </g>
   <g id="line2d_15">
    <path d="M 129.957025 234.676531 
L 132.938248 231.846367 
L 135.919458 229.016223 
L 138.900668 226.186078 
L 141.881891 223.355915 
L 144.863115 220.525752 
L 147.844325 217.695607 
L 150.825548 214.865444 
L 153.806758 212.035299 
L 156.787982 209.205118 
L 159.769191 206.374982 
L 162.750415 203.5448 
L 165.731631 200.714656 
L 168.712848 197.884502 
L 171.694072 195.054329 
L 174.675281 192.224185 
L 177.656498 189.39404 
L 180.637715 186.563877 
L 183.618931 183.733732 
L 186.600148 180.903569 
L 189.581357 178.073424 
L 192.562588 175.243261 
L 195.543798 172.413107 
L 198.525014 169.582953 
L 201.506238 166.75279 
L 204.487448 163.922646 
L 207.468671 161.092482 
L 210.449881 158.262338 
L 213.431105 155.432175 
L 216.412321 152.602011 
L 219.393538 149.780281 
L 222.374758 146.960827 
L 225.355968 144.141373 
L 228.337195 141.3219 
L 231.318404 138.502445 
L 234.299621 135.682981 
L 237.280841 132.863518 
L 240.262051 130.044063 
L 243.243278 127.2246 
L 246.224488 124.405145 
L 249.205706 121.585681 
L 252.186928 118.767258 
L 255.168143 115.949104 
L 258.149365 113.13095 
L 261.130571 110.312805 
L 264.111801 107.504997 
L 267.093007 104.699632 
L 270.074229 101.932774 
L 273.055451 99.214111 
L 276.036657 96.633087 
L 279.017879 94.25552 
L 281.999094 92.402229 
L 284.980316 90.888068 
L 287.961531 90.333738 
L 290.942753 90.198673 
L 293.923968 90.394658 
L 296.905181 91.320524 
L 299.886396 92.40113 
L 302.867618 93.505126 
L 305.848832 94.609123 
L 308.830054 95.713121 
L 311.811268 96.817119 
L 314.792484 97.921117 
L 317.773697 99.027139 
L 320.754917 100.144892 
L 323.736141 101.262645 
L 326.717358 102.380398 
L 329.698567 103.498141 
L 332.679784 104.615894 
L 335.661008 105.733647 
L 338.642217 106.85139 
L 341.623441 107.969143 
L 344.604658 109.086896 
L 347.585874 110.204649 
L 350.567084 111.322634 
L 353.548307 112.442198 
L 356.529524 113.561762 
L 359.510741 114.681326 
L 362.491957 115.800899 
L 365.473174 116.920463 
L 368.454384 118.040027 
L 371.435607 119.159591 
L 374.416831 120.278607 
L 377.398055 121.400493 
L 380.379264 122.522769 
L 383.360474 123.645045 
L 386.341697 124.76733 
L 389.322921 125.889606 
L 392.304124 127.011882 
L 395.285347 128.134168 
L 398.266564 129.256453 
L 401.247788 130.378738 
L 404.228983 131.501005 
L 407.210207 132.62329 
L 410.19143 133.745566 
L 413.172654 134.867851 
L 416.153878 135.990137 
L 419.135073 137.112413 
L 422.116297 138.234698 
L 425.097521 139.356974 
" clip-path="url(#pa23e15d39f)" style="fill: none; stroke: #0000cd; stroke-width: 1.5; stroke-linecap: round"/>
   </g>
   <g id="line2d_16">
    <path d="M 129.957025 295.488 
L 132.938248 291.753767 
L 135.919458 288.019572 
L 138.900668 284.285339 
L 141.881891 280.551106 
L 144.863115 276.816873 
L 147.844325 273.082603 
L 150.825548 269.348408 
L 153.806758 265.614175 
L 156.787982 261.879923 
L 159.769191 258.145728 
L 162.750415 254.411476 
L 165.731631 250.677244 
L 168.712848 246.943011 
L 171.694072 243.208778 
L 174.675281 239.474545 
L 177.656498 235.740331 
L 180.637715 232.00608 
L 183.618931 228.271847 
L 186.600148 224.537633 
L 189.581357 220.803418 
L 192.562588 217.069148 
L 195.543798 213.334934 
L 198.525014 209.60072 
L 201.506238 205.866469 
L 204.487448 202.132254 
L 207.468671 198.398022 
L 210.449881 194.663789 
L 213.431105 190.929547 
L 216.412321 187.195333 
L 219.393538 183.46109 
L 222.374758 179.726858 
L 225.355968 175.992643 
L 228.337195 172.258392 
L 231.318404 168.524178 
L 234.299621 164.789936 
L 237.280841 161.055712 
L 240.262051 157.321479 
L 243.243278 153.587237 
L 246.224488 149.853014 
L 249.205706 146.11879 
L 252.186928 142.384548 
L 255.168143 138.650325 
L 258.149365 134.916092 
L 261.130571 131.181868 
L 264.111801 127.447617 
L 267.093007 123.713403 
L 270.074229 119.97917 
L 273.055451 116.251383 
L 276.036657 112.539761 
L 279.017879 108.828752 
L 281.999094 105.117748 
L 284.980316 101.406735 
L 287.961531 97.695731 
L 290.942753 93.995918 
L 293.923968 90.305719 
L 296.905181 86.659334 
L 299.886396 84.213071 
L 302.867618 83.373806 
L 305.848832 83.065462 
L 308.830054 83.406838 
L 311.811268 83.903097 
L 314.792484 84.399351 
L 317.773697 84.895614 
L 320.754917 85.391867 
L 323.736141 85.88813 
L 326.717358 86.384394 
L 329.698567 86.880643 
L 332.679784 87.376901 
L 335.661008 87.873159 
L 338.642217 88.369418 
L 341.623441 88.865681 
L 344.604658 89.361935 
L 347.585874 89.858193 
L 350.567084 90.354452 
L 353.548307 90.850705 
L 356.529524 91.346968 
L 359.510741 91.843231 
L 362.491957 92.339485 
L 365.473174 92.835739 
L 368.454384 93.332002 
L 371.435607 93.828256 
L 374.416831 94.324519 
L 377.398055 94.820777 
L 380.379264 95.317036 
L 383.360474 95.81329 
L 386.341697 96.309553 
L 389.322921 96.805811 
L 392.304124 97.302069 
L 395.285347 97.798328 
L 398.266564 98.294582 
L 401.247788 98.79084 
L 404.228983 99.287094 
L 407.210207 99.783357 
L 410.19143 100.279615 
L 413.172654 100.775874 
L 416.153878 101.272132 
L 419.135073 101.768386 
L 422.116297 102.264649 
L 425.097521 102.760907 
" clip-path="url(#pa23e15d39f)" style="fill: none; stroke: #191970; stroke-width: 1.5; stroke-linecap: round"/>
   </g>
   <g id="patch_3">
    <path d="M 115.2 307.584 
L 115.2 41.472 
" style="fill: none; stroke: #ffffff; stroke-width: 0.8; stroke-linejoin: miter; stroke-linecap: square"/>
   </g>
   <g id="patch_4">
    <path d="M 439.854545 307.584 
L 439.854545 41.472 
" style="fill: none; stroke: #ffffff; stroke-width: 0.8; stroke-linejoin: miter; stroke-linecap: square"/>
   </g>
   <g id="patch_5">
    <path d="M 115.2 307.584 
L 439.854545 307.584 
" style="fill: none; stroke: #ffffff; stroke-width: 0.8; stroke-linejoin: miter; stroke-linecap: square"/>
   </g>
   <g id="patch_6">
    <path d="M 115.2 41.472 
L 439.854545 41.472 
" style="fill: none; stroke: #ffffff; stroke-width: 0.8; stroke-linejoin: miter; stroke-linecap: square"/>
   </g>
   <g id="legend_1">
    <g id="patch_7">
     <path d="M 354.431108 302.584 
L 432.854545 302.584 
Q 434.854545 302.584 434.854545 300.584 
L 434.854545 244.913687 
Q 434.854545 242.913687 432.854545 242.913687 
L 354.431108 242.913687 
Q 352.431108 242.913687 352.431108 244.913687 
L 352.431108 300.584 
Q 352.431108 302.584 354.431108 302.584 
z
" style="fill: #eaeaf2; opacity: 0.8; stroke: #cccccc; stroke-linejoin: miter"/>
    </g>
    <g id="line2d_17">
     <path d="M 356.431108 250.601187 
L 366.431108 250.601187 
L 376.431108 250.601187 
" style="fill: none; stroke: #4169e1; stroke-width: 1.5; stroke-linecap: round"/>
    </g>
    <g id="text_15">
     <!-- steps=0 -->
     <g style="fill: #262626" transform="translate(384.431108 254.101187) scale(0.1 -0.1)">
      <defs>
       <path id="ArialMT-73" d="M 197 991 
L 753 1078 
Q 800 744 1014 566 
Q 1228 388 1613 388 
Q 2000 388 2187 545 
Q 2375 703 2375 916 
Q 2375 1106 2209 1216 
Q 2094 1291 1634 1406 
Q 1016 1563 777 1677 
Q 538 1791 414 1992 
Q 291 2194 291 2438 
Q 291 2659 392 2848 
Q 494 3038 669 3163 
Q 800 3259 1026 3326 
Q 1253 3394 1513 3394 
Q 1903 3394 2198 3281 
Q 2494 3169 2634 2976 
Q 2775 2784 2828 2463 
L 2278 2388 
Q 2241 2644 2061 2787 
Q 1881 2931 1553 2931 
Q 1166 2931 1000 2803 
Q 834 2675 834 2503 
Q 834 2394 903 2306 
Q 972 2216 1119 2156 
Q 1203 2125 1616 2013 
Q 2213 1853 2448 1751 
Q 2684 1650 2818 1456 
Q 2953 1263 2953 975 
Q 2953 694 2789 445 
Q 2625 197 2315 61 
Q 2006 -75 1616 -75 
Q 969 -75 630 194 
Q 291 463 197 991 
z
" transform="scale(0.015625)"/>
       <path id="ArialMT-74" d="M 1650 503 
L 1731 6 
Q 1494 -44 1306 -44 
Q 1000 -44 831 53 
Q 663 150 594 308 
Q 525 466 525 972 
L 525 2881 
L 113 2881 
L 113 3319 
L 525 3319 
L 525 4141 
L 1084 4478 
L 1084 3319 
L 1650 3319 
L 1650 2881 
L 1084 2881 
L 1084 941 
Q 1084 700 1114 631 
Q 1144 563 1211 522 
Q 1278 481 1403 481 
Q 1497 481 1650 503 
z
" transform="scale(0.015625)"/>
       <path id="ArialMT-65" d="M 2694 1069 
L 3275 997 
Q 3138 488 2766 206 
Q 2394 -75 1816 -75 
Q 1088 -75 661 373 
Q 234 822 234 1631 
Q 234 2469 665 2931 
Q 1097 3394 1784 3394 
Q 2450 3394 2872 2941 
Q 3294 2488 3294 1666 
Q 3294 1616 3291 1516 
L 816 1516 
Q 847 969 1125 678 
Q 1403 388 1819 388 
Q 2128 388 2347 550 
Q 2566 713 2694 1069 
z
M 847 1978 
L 2700 1978 
Q 2663 2397 2488 2606 
Q 2219 2931 1791 2931 
Q 1403 2931 1139 2672 
Q 875 2413 847 1978 
z
" transform="scale(0.015625)"/>
       <path id="ArialMT-70" d="M 422 -1272 
L 422 3319 
L 934 3319 
L 934 2888 
Q 1116 3141 1344 3267 
Q 1572 3394 1897 3394 
Q 2322 3394 2647 3175 
Q 2972 2956 3137 2557 
Q 3303 2159 3303 1684 
Q 3303 1175 3120 767 
Q 2938 359 2589 142 
Q 2241 -75 1856 -75 
Q 1575 -75 1351 44 
Q 1128 163 984 344 
L 984 -1272 
L 422 -1272 
z
M 931 1641 
Q 931 1000 1190 694 
Q 1450 388 1819 388 
Q 2194 388 2461 705 
Q 2728 1022 2728 1688 
Q 2728 2322 2467 2637 
Q 2206 2953 1844 2953 
Q 1484 2953 1207 2617 
Q 931 2281 931 1641 
z
" transform="scale(0.015625)"/>
       <path id="ArialMT-3d" d="M 3381 2694 
L 356 2694 
L 356 3219 
L 3381 3219 
L 3381 2694 
z
M 3381 1303 
L 356 1303 
L 356 1828 
L 3381 1828 
L 3381 1303 
z
" transform="scale(0.015625)"/>
      </defs>
      <use xlink:href="#ArialMT-73"/>
      <use xlink:href="#ArialMT-74" transform="translate(50 0)"/>
      <use xlink:href="#ArialMT-65" transform="translate(77.783203 0)"/>
      <use xlink:href="#ArialMT-70" transform="translate(133.398438 0)"/>
      <use xlink:href="#ArialMT-73" transform="translate(189.013672 0)"/>
      <use xlink:href="#ArialMT-3d" transform="translate(239.013672 0)"/>
      <use xlink:href="#ArialMT-30" transform="translate(297.412109 0)"/>
     </g>
    </g>
    <g id="line2d_18">
     <path d="M 356.431108 264.7465 
L 366.431108 264.7465 
L 376.431108 264.7465 
" style="fill: none; stroke: #0000ff; stroke-width: 1.5; stroke-linecap: round"/>
    </g>
    <g id="text_16">
     <!-- steps=5 -->
     <g style="fill: #262626" transform="translate(384.431108 268.2465) scale(0.1 -0.1)">
      <use xlink:href="#ArialMT-73"/>
      <use xlink:href="#ArialMT-74" transform="translate(50 0)"/>
      <use xlink:href="#ArialMT-65" transform="translate(77.783203 0)"/>
      <use xlink:href="#ArialMT-70" transform="translate(133.398438 0)"/>
      <use xlink:href="#ArialMT-73" transform="translate(189.013672 0)"/>
      <use xlink:href="#ArialMT-3d" transform="translate(239.013672 0)"/>
      <use xlink:href="#ArialMT-35" transform="translate(297.412109 0)"/>
     </g>
    </g>
    <g id="line2d_19">
     <path d="M 356.431108 278.9215 
L 366.431108 278.9215 
L 376.431108 278.9215 
" style="fill: none; stroke: #0000cd; stroke-width: 1.5; stroke-linecap: round"/>
    </g>
    <g id="text_17">
     <!-- steps=10 -->
     <g style="fill: #262626" transform="translate(384.431108 282.4215) scale(0.1 -0.1)">
      <use xlink:href="#ArialMT-73"/>
      <use xlink:href="#ArialMT-74" transform="translate(50 0)"/>
      <use xlink:href="#ArialMT-65" transform="translate(77.783203 0)"/>
      <use xlink:href="#ArialMT-70" transform="translate(133.398438 0)"/>
      <use xlink:href="#ArialMT-73" transform="translate(189.013672 0)"/>
      <use xlink:href="#ArialMT-3d" transform="translate(239.013672 0)"/>
      <use xlink:href="#ArialMT-31" transform="translate(297.412109 0)"/>
      <use xlink:href="#ArialMT-30" transform="translate(353.027344 0)"/>
     </g>
    </g>
    <g id="line2d_20">
     <path d="M 356.431108 293.0965 
L 366.431108 293.0965 
L 376.431108 293.0965 
" style="fill: none; stroke: #191970; stroke-width: 1.5; stroke-linecap: round"/>
    </g>
    <g id="text_18">
     <!-- steps=100 -->
     <g style="fill: #262626" transform="translate(384.431108 296.5965) scale(0.1 -0.1)">
      <use xlink:href="#ArialMT-73"/>
      <use xlink:href="#ArialMT-74" transform="translate(50 0)"/>
      <use xlink:href="#ArialMT-65" transform="translate(77.783203 0)"/>
      <use xlink:href="#ArialMT-70" transform="translate(133.398438 0)"/>
      <use xlink:href="#ArialMT-73" transform="translate(189.013672 0)"/>
      <use xlink:href="#ArialMT-3d" transform="translate(239.013672 0)"/>
      <use xlink:href="#ArialMT-31" transform="translate(297.412109 0)"/>
      <use xlink:href="#ArialMT-30" transform="translate(353.027344 0)"/>
      <use xlink:href="#ArialMT-30" transform="translate(408.642578 0)"/>
     </g>
    </g>
   </g>
  </g>
  <g id="axes_2">
   <g id="patch_8">
    <path d="M 504.785455 307.584 
L 829.44 307.584 
L 829.44 41.472 
L 504.785455 41.472 
z
" style="fill: #eaeaf2"/>
   </g>
   <g id="matplotlib.axis_3">
    <g id="xtick_6">
     <g id="line2d_21">
      <path d="M 549.056529 307.584 
L 549.056529 41.472 
" clip-path="url(#p6b763a7285)" style="fill: none; stroke: #ffffff; stroke-width: 0.8; stroke-linecap: round"/>
     </g>
     <g id="text_19">
      <!-- −4 -->
      <g style="fill: #262626" transform="translate(543.355748 321.741812) scale(0.1 -0.1)">
       <use xlink:href="#ArialMT-2212"/>
       <use xlink:href="#ArialMT-34" transform="translate(58.398438 0)"/>
      </g>
     </g>
    </g>
    <g id="xtick_7">
     <g id="line2d_22">
      <path d="M 608.084628 307.584 
L 608.084628 41.472 
" clip-path="url(#p6b763a7285)" style="fill: none; stroke: #ffffff; stroke-width: 0.8; stroke-linecap: round"/>
     </g>
     <g id="text_20">
      <!-- −2 -->
      <g style="fill: #262626" transform="translate(602.383847 321.741812) scale(0.1 -0.1)">
       <use xlink:href="#ArialMT-2212"/>
       <use xlink:href="#ArialMT-32" transform="translate(58.398438 0)"/>
      </g>
     </g>
    </g>
    <g id="xtick_8">
     <g id="line2d_23">
      <path d="M 667.112727 307.584 
L 667.112727 41.472 
" clip-path="url(#p6b763a7285)" style="fill: none; stroke: #ffffff; stroke-width: 0.8; stroke-linecap: round"/>
     </g>
     <g id="text_21">
      <!-- 0 -->
      <g style="fill: #262626" transform="translate(664.332259 321.741812) scale(0.1 -0.1)">
       <use xlink:href="#ArialMT-30"/>
      </g>
     </g>
    </g>
    <g id="xtick_9">
     <g id="line2d_24">
      <path d="M 726.140826 307.584 
L 726.140826 41.472 
" clip-path="url(#p6b763a7285)" style="fill: none; stroke: #ffffff; stroke-width: 0.8; stroke-linecap: round"/>
     </g>
     <g id="text_22">
      <!-- 2 -->
      <g style="fill: #262626" transform="translate(723.360358 321.741812) scale(0.1 -0.1)">
       <use xlink:href="#ArialMT-32"/>
      </g>
     </g>
    </g>
    <g id="xtick_10">
     <g id="line2d_25">
      <path d="M 785.168926 307.584 
L 785.168926 41.472 
" clip-path="url(#p6b763a7285)" style="fill: none; stroke: #ffffff; stroke-width: 0.8; stroke-linecap: round"/>
     </g>
     <g id="text_23">
      <!-- 4 -->
      <g style="fill: #262626" transform="translate(782.388457 321.741812) scale(0.1 -0.1)">
       <use xlink:href="#ArialMT-34"/>
      </g>
     </g>
    </g>
    <g id="text_24">
     <!-- x -->
     <g style="fill: #262626" transform="translate(664.612727 334.887125) scale(0.1 -0.1)">
      <use xlink:href="#ArialMT-78"/>
     </g>
    </g>
   </g>
   <g id="matplotlib.axis_4">
    <g id="ytick_8">
     <g id="line2d_26">
      <path d="M 504.785455 287.255357 
L 829.44 287.255357 
" clip-path="url(#p6b763a7285)" style="fill: none; stroke: #ffffff; stroke-width: 0.8; stroke-linecap: round"/>
     </g>
    </g>
    <g id="ytick_9">
     <g id="line2d_27">
      <path d="M 504.785455 248.29971 
L 829.44 248.29971 
" clip-path="url(#p6b763a7285)" style="fill: none; stroke: #ffffff; stroke-width: 0.8; stroke-linecap: round"/>
     </g>
    </g>
    <g id="ytick_10">
     <g id="line2d_28">
      <path d="M 504.785455 209.344062 
L 829.44 209.344062 
" clip-path="url(#p6b763a7285)" style="fill: none; stroke: #ffffff; stroke-width: 0.8; stroke-linecap: round"/>
     </g>
    </g>
    <g id="ytick_11">
     <g id="line2d_29">
      <path d="M 504.785455 170.388415 
L 829.44 170.388415 
" clip-path="url(#p6b763a7285)" style="fill: none; stroke: #ffffff; stroke-width: 0.8; stroke-linecap: round"/>
     </g>
    </g>
    <g id="ytick_12">
     <g id="line2d_30">
      <path d="M 504.785455 131.432768 
L 829.44 131.432768 
" clip-path="url(#p6b763a7285)" style="fill: none; stroke: #ffffff; stroke-width: 0.8; stroke-linecap: round"/>
     </g>
    </g>
    <g id="ytick_13">
     <g id="line2d_31">
      <path d="M 504.785455 92.47712 
L 829.44 92.47712 
" clip-path="url(#p6b763a7285)" style="fill: none; stroke: #ffffff; stroke-width: 0.8; stroke-linecap: round"/>
     </g>
    </g>
    <g id="ytick_14">
     <g id="line2d_32">
      <path d="M 504.785455 53.521473 
L 829.44 53.521473 
" clip-path="url(#p6b763a7285)" style="fill: none; stroke: #ffffff; stroke-width: 0.8; stroke-linecap: round"/>
     </g>
    </g>
    <g id="text_25">
     <!-- Pf(x) -->
     <g style="fill: #262626" transform="translate(498.680767 185.081906) rotate(-90) scale(0.1 -0.1)">
      <defs>
       <path id="ArialMT-50" d="M 494 0 
L 494 4581 
L 2222 4581 
Q 2678 4581 2919 4538 
Q 3256 4481 3484 4323 
Q 3713 4166 3852 3881 
Q 3991 3597 3991 3256 
Q 3991 2672 3619 2267 
Q 3247 1863 2275 1863 
L 1100 1863 
L 1100 0 
L 494 0 
z
M 1100 2403 
L 2284 2403 
Q 2872 2403 3119 2622 
Q 3366 2841 3366 3238 
Q 3366 3525 3220 3729 
Q 3075 3934 2838 4000 
Q 2684 4041 2272 4041 
L 1100 4041 
L 1100 2403 
z
" transform="scale(0.015625)"/>
      </defs>
      <use xlink:href="#ArialMT-50"/>
      <use xlink:href="#ArialMT-66" transform="translate(66.699219 0)"/>
      <use xlink:href="#ArialMT-28" transform="translate(94.482422 0)"/>
      <use xlink:href="#ArialMT-78" transform="translate(127.783203 0)"/>
      <use xlink:href="#ArialMT-29" transform="translate(177.783203 0)"/>
     </g>
    </g>
   </g>
   <g id="line2d_33">
    <path d="M 519.542479 55.547892 
L 522.523703 55.529868 
L 525.504913 55.500829 
L 528.486122 55.487079 
L 531.467346 55.472953 
L 534.44857 55.44876 
L 537.429779 55.421683 
L 540.411003 55.416498 
L 543.392212 55.378687 
L 546.373436 55.364291 
L 549.354646 55.349948 
L 552.335869 55.325532 
L 555.317086 55.304433 
L 558.298303 55.284466 
L 561.279526 55.257292 
L 564.260736 55.23756 
L 567.241952 55.207195 
L 570.223169 55.187535 
L 573.204386 55.165613 
L 576.185602 55.132854 
L 579.166812 55.119163 
L 582.148043 55.088428 
L 585.129252 55.065955 
L 588.110469 55.037321 
L 591.091693 55.008847 
L 594.072902 54.987595 
L 597.054126 54.957841 
L 600.035335 54.92123 
L 603.016559 54.895448 
L 605.997776 54.871575 
L 608.978992 54.843303 
L 611.960213 54.819142 
L 614.941422 54.796168 
L 617.922649 54.76499 
L 620.903859 54.751645 
L 623.885076 54.741511 
L 626.866296 54.759074 
L 629.847505 54.774858 
L 632.828732 54.784656 
L 635.809942 54.786497 
L 638.79116 54.785656 
L 641.772382 54.756489 
L 644.753597 54.742306 
L 647.734819 54.712554 
L 650.716025 54.688152 
L 653.697256 54.668806 
L 656.678462 54.661709 
L 659.659684 54.660147 
L 662.640906 54.674047 
L 665.622112 54.694317 
L 668.603334 54.706378 
L 671.584549 54.743249 
L 674.565771 54.764002 
L 677.546985 54.800287 
L 680.528207 54.820162 
L 683.509422 54.834434 
L 686.490635 54.855269 
L 689.47185 54.866402 
L 692.453072 54.880557 
L 695.434287 54.889686 
L 698.415509 54.895245 
L 701.396722 54.908552 
L 704.377939 54.921807 
L 707.359152 54.925036 
L 710.340372 54.937816 
L 713.321596 54.950578 
L 716.302812 54.96883 
L 719.284022 55.004485 
L 722.265238 55.02677 
L 725.246462 55.061517 
L 728.227672 55.099161 
L 731.208895 55.120221 
L 734.190112 55.143084 
L 737.171329 55.180078 
L 740.152538 55.210438 
L 743.133762 55.234477 
L 746.114979 55.266122 
L 749.096195 55.296321 
L 752.077412 55.323982 
L 755.058628 55.353222 
L 758.039838 55.372455 
L 761.021062 55.407919 
L 764.002285 55.413657 
L 766.983509 55.440199 
L 769.964719 55.469737 
L 772.945928 55.484191 
L 775.927152 55.523885 
L 778.908376 55.542526 
L 781.889578 55.560996 
L 784.870802 55.585732 
L 787.852018 55.614209 
L 790.833242 55.62414 
L 793.814438 55.637657 
L 796.795661 55.660979 
L 799.776885 55.700884 
L 802.758109 55.710638 
L 805.739332 55.731987 
L 808.720528 55.771787 
L 811.701752 55.763377 
L 814.682975 55.782581 
" clip-path="url(#p6b763a7285)" style="fill: none; stroke: #4169e1; stroke-width: 1.5; stroke-linecap: round"/>
   </g>
   <g id="line2d_34">
    <path d="M 519.542479 103.160113 
L 522.523703 102.923977 
L 525.504913 102.579731 
L 528.486122 102.373432 
L 531.467346 102.186655 
L 534.44857 101.897193 
L 537.429779 101.555153 
L 540.411003 101.460799 
L 543.392212 101.000595 
L 546.373436 100.818045 
L 549.354646 100.580343 
L 552.335869 100.30368 
L 555.317086 100.022331 
L 558.298303 99.769936 
L 561.279526 99.410379 
L 564.260736 99.14644 
L 567.241952 98.757265 
L 570.223169 98.486443 
L 573.204386 98.218469 
L 576.185602 97.793874 
L 579.166812 97.610822 
L 582.148043 97.205421 
L 585.129252 96.919024 
L 588.110469 96.554048 
L 591.091693 96.18538 
L 594.072902 95.934258 
L 597.054126 95.519681 
L 600.035335 95.055646 
L 603.016559 94.752378 
L 605.997776 94.459154 
L 608.978992 94.105616 
L 611.960213 93.834637 
L 614.941422 93.590907 
L 617.922649 93.210546 
L 620.903859 93.086564 
L 623.885076 92.950893 
L 626.866296 93.175815 
L 629.847505 93.415931 
L 632.828732 93.583124 
L 635.809942 93.651895 
L 638.79116 93.701176 
L 641.772382 93.354167 
L 644.753597 93.17379 
L 647.734819 92.851872 
L 650.716025 92.590793 
L 653.697256 92.448788 
L 656.678462 92.428088 
L 659.659684 92.521279 
L 662.640906 92.824204 
L 665.622112 93.213189 
L 668.603334 93.471016 
L 671.584549 94.034853 
L 674.565771 94.399745 
L 677.546985 94.867444 
L 680.528207 95.09719 
L 683.509422 95.19453 
L 686.490635 95.352157 
L 689.47185 95.363238 
L 692.453072 95.437869 
L 695.434287 95.509863 
L 698.415509 95.551663 
L 701.396722 95.755069 
L 704.377939 96.014193 
L 707.359152 96.156425 
L 710.340372 96.444123 
L 713.321596 96.678118 
L 716.302812 96.874513 
L 719.284022 97.259039 
L 722.265238 97.4781 
L 725.246462 97.850279 
L 728.227672 98.229312 
L 731.208895 98.468936 
L 734.190112 98.717267 
L 737.171329 99.116431 
L 740.152538 99.412465 
L 743.133762 99.699289 
L 746.114979 100.050561 
L 749.096195 100.395605 
L 752.077412 100.71333 
L 755.058628 101.045799 
L 758.039838 101.252205 
L 761.021062 101.648481 
L 764.002285 101.702127 
L 766.983509 102.00827 
L 769.964719 102.358799 
L 772.945928 102.496787 
L 775.927152 102.978961 
L 778.908376 103.192073 
L 781.889578 103.392395 
L 784.870802 103.681611 
L 787.852018 104.022551 
L 790.833242 104.118047 
L 793.814438 104.280332 
L 796.795661 104.54012 
L 799.776885 104.989582 
L 802.758109 105.105567 
L 805.739332 105.371415 
L 808.720528 105.82476 
L 811.701752 105.751902 
L 814.682975 105.955982 
" clip-path="url(#p6b763a7285)" style="fill: none; stroke: #0000ff; stroke-width: 1.5; stroke-linecap: round"/>
   </g>
   <g id="line2d_35">
    <path d="M 519.542479 113.960239 
L 522.523703 113.736218 
L 525.504913 113.377939 
L 528.486122 113.197371 
L 531.467346 113.035123 
L 534.44857 112.741412 
L 537.429779 112.407109 
L 540.411003 112.356379 
L 543.392212 111.891383 
L 546.373436 111.728165 
L 549.354646 111.504279 
L 552.335869 111.260383 
L 555.317086 110.977692 
L 558.298303 110.742145 
L 561.279526 110.40213 
L 564.260736 110.153167 
L 567.241952 109.775708 
L 570.223169 109.517397 
L 573.204386 109.274978 
L 576.185602 108.857577 
L 579.166812 108.710937 
L 582.148043 108.298533 
L 585.129252 108.024085 
L 588.110469 107.696427 
L 591.091693 107.330936 
L 594.072902 107.086533 
L 597.054126 106.68761 
L 600.035335 106.224751 
L 603.016559 105.936059 
L 605.997776 105.643073 
L 608.978992 105.290324 
L 611.960213 105.025252 
L 614.941422 104.774115 
L 617.922649 104.384713 
L 620.903859 104.267302 
L 623.885076 104.139093 
L 626.866296 104.405629 
L 629.847505 104.665087 
L 632.828732 104.848134 
L 635.809942 104.923453 
L 638.79116 104.968401 
L 641.772382 104.603551 
L 644.753597 104.406478 
L 647.734819 104.064113 
L 650.716025 103.780154 
L 653.697256 103.619397 
L 656.678462 103.601421 
L 659.659684 103.696941 
L 662.640906 104.014958 
L 665.622112 104.419351 
L 668.603334 104.678744 
L 671.584549 105.274525 
L 674.565771 105.652769 
L 677.546985 106.14906 
L 680.528207 106.402249 
L 683.509422 106.526491 
L 686.490635 106.719444 
L 689.47185 106.758513 
L 692.453072 106.858194 
L 695.434287 106.938695 
L 698.415509 106.994013 
L 701.396722 107.195214 
L 704.377939 107.451203 
L 707.359152 107.572208 
L 710.340372 107.846712 
L 713.321596 108.074582 
L 716.302812 108.276958 
L 719.284022 108.674864 
L 722.265238 108.898675 
L 725.246462 109.274792 
L 728.227672 109.666085 
L 731.208895 109.901808 
L 734.190112 110.158289 
L 737.171329 110.567549 
L 740.152538 110.857624 
L 743.133762 111.150565 
L 746.114979 111.501498 
L 749.096195 111.84403 
L 752.077412 112.179508 
L 755.058628 112.50248 
L 758.039838 112.715109 
L 761.021062 113.098819 
L 764.002285 113.150983 
L 766.983509 113.453713 
L 769.964719 113.801521 
L 772.945928 113.935594 
L 775.927152 114.431694 
L 778.908376 114.636489 
L 781.889578 114.833046 
L 784.870802 115.107086 
L 787.852018 115.463907 
L 790.833242 115.555052 
L 793.814438 115.697972 
L 796.795661 115.957398 
L 799.776885 116.426578 
L 802.758109 116.515123 
L 805.739332 116.789023 
L 808.720528 117.246561 
L 811.701752 117.156558 
L 814.682975 117.352176 
" clip-path="url(#p6b763a7285)" style="fill: none; stroke: #0000cd; stroke-width: 1.5; stroke-linecap: round"/>
   </g>
   <g id="line2d_36">
    <path d="M 519.542479 122.103283 
L 522.523703 121.891142 
L 525.504913 121.410152 
L 528.486122 121.193042 
L 531.467346 121.059261 
L 534.44857 120.695543 
L 537.429779 120.292785 
L 540.411003 120.38772 
L 543.392212 119.773381 
L 546.373436 119.668518 
L 549.354646 119.301782 
L 552.335869 119.185318 
L 555.317086 118.787361 
L 558.298303 118.540577 
L 561.279526 118.193535 
L 564.260736 117.890833 
L 567.241952 117.448021 
L 570.223169 117.072954 
L 573.204386 116.92931 
L 576.185602 116.420661 
L 579.166812 116.380232 
L 582.148043 115.788941 
L 585.129252 115.480904 
L 588.110469 115.269905 
L 591.091693 114.823582 
L 594.072902 114.648215 
L 597.054126 114.162447 
L 600.035335 113.651718 
L 603.016559 113.474141 
L 605.997776 113.207541 
L 608.978992 112.855294 
L 611.960213 112.759807 
L 614.941422 112.561908 
L 617.922649 112.149857 
L 620.903859 112.197902 
L 623.885076 112.034559 
L 626.866296 112.516653 
L 629.847505 113.007646 
L 632.828732 113.432737 
L 635.809942 113.631179 
L 638.79116 113.861408 
L 641.772382 113.329104 
L 644.753597 113.022181 
L 647.734819 112.643947 
L 650.716025 112.288797 
L 653.697256 112.31177 
L 656.678462 112.503432 
L 659.659684 112.946532 
L 662.640906 113.7804 
L 665.622112 114.723084 
L 668.603334 115.368996 
L 671.584549 116.566851 
L 674.565771 117.393205 
L 677.546985 118.141287 
L 680.528207 118.41352 
L 683.509422 118.378979 
L 686.490635 118.387226 
L 689.47185 118.091741 
L 692.453072 117.946973 
L 695.434287 117.934133 
L 698.415509 117.934764 
L 701.396722 118.342994 
L 704.377939 118.967989 
L 707.359152 119.386872 
L 710.340372 120.049975 
L 713.321596 120.444904 
L 716.302812 120.666018 
L 719.284022 121.103341 
L 722.265238 121.257638 
L 725.246462 121.591022 
L 728.227672 121.932166 
L 731.208895 122.103873 
L 734.190112 122.406347 
L 737.171329 122.818198 
L 740.152538 122.92895 
L 743.133762 123.295686 
L 746.114979 123.605382 
L 749.096195 123.928242 
L 752.077412 124.409055 
L 755.058628 124.672038 
L 758.039838 124.86214 
L 761.021062 125.133597 
L 764.002285 125.178875 
L 766.983509 125.493711 
L 769.964719 125.843929 
L 772.945928 125.928443 
L 775.927152 126.568685 
L 778.908376 126.744892 
L 781.889578 126.8892 
L 784.870802 127.088339 
L 787.852018 127.595733 
L 790.833242 127.6617 
L 793.814438 127.686117 
L 796.795661 127.935595 
L 799.776885 128.521383 
L 802.758109 128.440765 
L 805.739332 128.833832 
L 808.720528 129.313243 
L 811.701752 129.218433 
L 814.682975 129.335733 
" clip-path="url(#p6b763a7285)" style="fill: none; stroke: #191970; stroke-width: 1.5; stroke-linecap: round"/>
   </g>
   <g id="patch_9">
    <path d="M 504.785455 307.584 
L 504.785455 41.472 
" style="fill: none; stroke: #ffffff; stroke-width: 0.8; stroke-linejoin: miter; stroke-linecap: square"/>
   </g>
   <g id="patch_10">
    <path d="M 829.44 307.584 
L 829.44 41.472 
" style="fill: none; stroke: #ffffff; stroke-width: 0.8; stroke-linejoin: miter; stroke-linecap: square"/>
   </g>
   <g id="patch_11">
    <path d="M 504.785455 307.584 
L 829.44 307.584 
" style="fill: none; stroke: #ffffff; stroke-width: 0.8; stroke-linejoin: miter; stroke-linecap: square"/>
   </g>
   <g id="patch_12">
    <path d="M 504.785455 41.472 
L 829.44 41.472 
" style="fill: none; stroke: #ffffff; stroke-width: 0.8; stroke-linejoin: miter; stroke-linecap: square"/>
   </g>
  </g>
  <g id="text_26">
   <!-- $\mu=0, \sigma=1$ -->
   <g style="fill: #262626" transform="translate(427.68 15.912) scale(0.12 -0.12)">
    <defs>
     <path id="DejaVuSans-Oblique-3bc" d="M -84 -1331 
L 856 3500 
L 1434 3500 
L 1009 1322 
Q 997 1256 987 1175 
Q 978 1094 978 1013 
Q 978 722 1161 565 
Q 1344 409 1684 409 
Q 2147 409 2431 671 
Q 2716 934 2816 1459 
L 3213 3500 
L 3788 3500 
L 3266 809 
Q 3253 750 3248 706 
Q 3244 663 3244 628 
Q 3244 531 3283 486 
Q 3322 441 3406 441 
Q 3438 441 3492 456 
Q 3547 472 3647 513 
L 3559 50 
Q 3422 -19 3297 -55 
Q 3172 -91 3053 -91 
Q 2847 -91 2730 40 
Q 2613 172 2613 403 
Q 2438 153 2195 31 
Q 1953 -91 1625 -91 
Q 1334 -91 1117 43 
Q 900 178 831 397 
L 494 -1331 
L -84 -1331 
z
" transform="scale(0.015625)"/>
     <path id="DejaVuSans-3d" d="M 678 2906 
L 4684 2906 
L 4684 2381 
L 678 2381 
L 678 2906 
z
M 678 1631 
L 4684 1631 
L 4684 1100 
L 678 1100 
L 678 1631 
z
" transform="scale(0.015625)"/>
     <path id="DejaVuSans-30" d="M 2034 4250 
Q 1547 4250 1301 3770 
Q 1056 3291 1056 2328 
Q 1056 1369 1301 889 
Q 1547 409 2034 409 
Q 2525 409 2770 889 
Q 3016 1369 3016 2328 
Q 3016 3291 2770 3770 
Q 2525 4250 2034 4250 
z
M 2034 4750 
Q 2819 4750 3233 4129 
Q 3647 3509 3647 2328 
Q 3647 1150 3233 529 
Q 2819 -91 2034 -91 
Q 1250 -91 836 529 
Q 422 1150 422 2328 
Q 422 3509 836 4129 
Q 1250 4750 2034 4750 
z
" transform="scale(0.015625)"/>
     <path id="DejaVuSans-2c" d="M 750 794 
L 1409 794 
L 1409 256 
L 897 -744 
L 494 -744 
L 750 256 
L 750 794 
z
" transform="scale(0.015625)"/>
     <path id="DejaVuSans-Oblique-3c3" d="M 2219 3044 
Q 1744 3044 1422 2700 
Q 1081 2341 969 1747 
Q 844 1119 1044 756 
Q 1241 397 1706 397 
Q 2166 397 2503 759 
Q 2844 1122 2966 1747 
Q 3075 2319 2881 2700 
Q 2700 3044 2219 3044 
z
M 2309 3503 
L 4219 3500 
L 4106 2925 
L 3463 2925 
Q 3706 2438 3575 1747 
Q 3406 888 2884 400 
Q 2359 -91 1609 -91 
Q 856 -91 525 400 
Q 194 888 363 1747 
Q 528 2609 1050 3097 
Q 1484 3503 2309 3503 
z
" transform="scale(0.015625)"/>
     <path id="DejaVuSans-31" d="M 794 531 
L 1825 531 
L 1825 4091 
L 703 3866 
L 703 4441 
L 1819 4666 
L 2450 4666 
L 2450 531 
L 3481 531 
L 3481 0 
L 794 0 
L 794 531 
z
" transform="scale(0.015625)"/>
    </defs>
    <use xlink:href="#DejaVuSans-Oblique-3bc" transform="translate(0 0.78125)"/>
    <use xlink:href="#DejaVuSans-3d" transform="translate(83.105469 0.78125)"/>
    <use xlink:href="#DejaVuSans-30" transform="translate(186.376953 0.78125)"/>
    <use xlink:href="#DejaVuSans-2c" transform="translate(250 0.78125)"/>
    <use xlink:href="#DejaVuSans-Oblique-3c3" transform="translate(301.269531 0.78125)"/>
    <use xlink:href="#DejaVuSans-3d" transform="translate(384.130859 0.78125)"/>
    <use xlink:href="#DejaVuSans-31" transform="translate(487.402344 0.78125)"/>
   </g>
  </g>
 </g>
 <defs>
  <clipPath id="pa23e15d39f">
   <rect x="115.2" y="41.472" width="324.654545" height="266.112"/>
  </clipPath>
  <clipPath id="p6b763a7285">
   <rect x="504.785455" y="41.472" width="324.654545" height="266.112"/>
  </clipPath>
 </defs>
</svg>
