<?xml version="1.0" encoding="utf-8" standalone="no"?>
<!DOCTYPE svg PUBLIC "-//W3C//DTD SVG 1.1//EN"
  "http://www.w3.org/Graphics/SVG/1.1/DTD/svg11.dtd">
<svg xmlns:xlink="http://www.w3.org/1999/xlink" width="460.8pt" height="345.6pt" viewBox="0 0 460.8 345.6" xmlns="http://www.w3.org/2000/svg" version="1.1">
 <metadata>
  <rdf:RDF xmlns:dc="http://purl.org/dc/elements/1.1/" xmlns:cc="http://creativecommons.org/ns#" xmlns:rdf="http://www.w3.org/1999/02/22-rdf-syntax-ns#">
   <cc:Work>
    <dc:type rdf:resource="http://purl.org/dc/dcmitype/StillImage"/>
    <dc:date>2025-04-11T13:24:24.425783</dc:date>
    <dc:format>image/svg+xml</dc:format>
    <dc:creator>
     <cc:Agent>
      <dc:title>Matplotlib v3.10.1, https://matplotlib.org/</dc:title>
     </cc:Agent>
    </dc:creator>
   </cc:Work>
  </rdf:RDF>
 </metadata>
 <defs>
  <style type="text/css">*{stroke-linejoin: round; stroke-linecap: butt}</style>
 </defs>
 <g id="figure_1">
  <g id="patch_1">
   <path d="M 0 345.6 
L 460.8 345.6 
L 460.8 0 
L 0 0 
z
" style="fill: #ffffff"/>
  </g>
  <g id="axes_1">
   <g id="patch_2">
    <path d="M 57.6 307.584 
L 414.72 307.584 
L 414.72 41.472 
L 57.6 41.472 
z
" style="fill: #eaeaf2"/>
   </g>
   <g id="matplotlib.axis_1">
    <g id="xtick_1">
     <g id="line2d_1">
      <path d="M 106.298182 307.584 
L 106.298182 41.472 
" clip-path="url(#p037fbd8f24)" style="fill: none; stroke: #ffffff; stroke-width: 0.8; stroke-linecap: round"/>
     </g>
     <g id="text_1">
      <!-- −4 -->
      <g style="fill: #262626" transform="translate(100.597401 321.741812) scale(0.1 -0.1)">
       <defs>
        <path id="ArialMT-2212" d="M 3381 1997 
L 356 1997 
L 356 2522 
L 3381 2522 
L 3381 1997 
z
" transform="scale(0.015625)"/>
        <path id="ArialMT-34" d="M 2069 0 
L 2069 1097 
L 81 1097 
L 81 1613 
L 2172 4581 
L 2631 4581 
L 2631 1613 
L 3250 1613 
L 3250 1097 
L 2631 1097 
L 2631 0 
L 2069 0 
z
M 2069 1613 
L 2069 3678 
L 634 1613 
L 2069 1613 
z
" transform="scale(0.015625)"/>
       </defs>
       <use xlink:href="#ArialMT-2212"/>
       <use xlink:href="#ArialMT-34" transform="translate(58.398438 0)"/>
      </g>
     </g>
    </g>
    <g id="xtick_2">
     <g id="line2d_2">
      <path d="M 171.229091 307.584 
L 171.229091 41.472 
" clip-path="url(#p037fbd8f24)" style="fill: none; stroke: #ffffff; stroke-width: 0.8; stroke-linecap: round"/>
     </g>
     <g id="text_2">
      <!-- −2 -->
      <g style="fill: #262626" transform="translate(165.52831 321.741812) scale(0.1 -0.1)">
       <defs>
        <path id="ArialMT-32" d="M 3222 541 
L 3222 0 
L 194 0 
Q 188 203 259 391 
Q 375 700 629 1000 
Q 884 1300 1366 1694 
Q 2113 2306 2375 2664 
Q 2638 3022 2638 3341 
Q 2638 3675 2398 3904 
Q 2159 4134 1775 4134 
Q 1369 4134 1125 3890 
Q 881 3647 878 3216 
L 300 3275 
Q 359 3922 746 4261 
Q 1134 4600 1788 4600 
Q 2447 4600 2831 4234 
Q 3216 3869 3216 3328 
Q 3216 3053 3103 2787 
Q 2991 2522 2730 2228 
Q 2469 1934 1863 1422 
Q 1356 997 1212 845 
Q 1069 694 975 541 
L 3222 541 
z
" transform="scale(0.015625)"/>
       </defs>
       <use xlink:href="#ArialMT-2212"/>
       <use xlink:href="#ArialMT-32" transform="translate(58.398438 0)"/>
      </g>
     </g>
    </g>
    <g id="xtick_3">
     <g id="line2d_3">
      <path d="M 236.16 307.584 
L 236.16 41.472 
" clip-path="url(#p037fbd8f24)" style="fill: none; stroke: #ffffff; stroke-width: 0.8; stroke-linecap: round"/>
     </g>
     <g id="text_3">
      <!-- 0 -->
      <g style="fill: #262626" transform="translate(233.379531 321.741812) scale(0.1 -0.1)">
       <defs>
        <path id="ArialMT-30" d="M 266 2259 
Q 266 3072 433 3567 
Q 600 4063 929 4331 
Q 1259 4600 1759 4600 
Q 2128 4600 2406 4451 
Q 2684 4303 2865 4023 
Q 3047 3744 3150 3342 
Q 3253 2941 3253 2259 
Q 3253 1453 3087 958 
Q 2922 463 2592 192 
Q 2263 -78 1759 -78 
Q 1097 -78 719 397 
Q 266 969 266 2259 
z
M 844 2259 
Q 844 1131 1108 757 
Q 1372 384 1759 384 
Q 2147 384 2411 759 
Q 2675 1134 2675 2259 
Q 2675 3391 2411 3762 
Q 2147 4134 1753 4134 
Q 1366 4134 1134 3806 
Q 844 3388 844 2259 
z
" transform="scale(0.015625)"/>
       </defs>
       <use xlink:href="#ArialMT-30"/>
      </g>
     </g>
    </g>
    <g id="xtick_4">
     <g id="line2d_4">
      <path d="M 301.090909 307.584 
L 301.090909 41.472 
" clip-path="url(#p037fbd8f24)" style="fill: none; stroke: #ffffff; stroke-width: 0.8; stroke-linecap: round"/>
     </g>
     <g id="text_4">
      <!-- 2 -->
      <g style="fill: #262626" transform="translate(298.31044 321.741812) scale(0.1 -0.1)">
       <use xlink:href="#ArialMT-32"/>
      </g>
     </g>
    </g>
    <g id="xtick_5">
     <g id="line2d_5">
      <path d="M 366.021818 307.584 
L 366.021818 41.472 
" clip-path="url(#p037fbd8f24)" style="fill: none; stroke: #ffffff; stroke-width: 0.8; stroke-linecap: round"/>
     </g>
     <g id="text_5">
      <!-- 4 -->
      <g style="fill: #262626" transform="translate(363.241349 321.741812) scale(0.1 -0.1)">
       <use xlink:href="#ArialMT-34"/>
      </g>
     </g>
    </g>
    <g id="text_6">
     <!-- $x$ -->
     <g style="fill: #262626" transform="translate(233.16 334.887125) scale(0.1 -0.1)">
      <defs>
       <path id="DejaVuSans-Oblique-78" d="M 3841 3500 
L 2234 1784 
L 3219 0 
L 2559 0 
L 1819 1388 
L 531 0 
L -166 0 
L 1556 1844 
L 641 3500 
L 1300 3500 
L 1972 2234 
L 3144 3500 
L 3841 3500 
z
" transform="scale(0.015625)"/>
      </defs>
      <use xlink:href="#DejaVuSans-Oblique-78" transform="translate(0 0.3125)"/>
     </g>
    </g>
   </g>
   <g id="matplotlib.axis_2">
    <g id="ytick_1">
     <g id="line2d_6">
      <path d="M 57.6 271.296 
L 414.72 271.296 
" clip-path="url(#p037fbd8f24)" style="fill: none; stroke: #ffffff; stroke-width: 0.8; stroke-linecap: round"/>
     </g>
     <g id="text_7">
      <!-- −4 -->
      <g style="fill: #262626" transform="translate(39.198437 274.874906) scale(0.1 -0.1)">
       <use xlink:href="#ArialMT-2212"/>
       <use xlink:href="#ArialMT-34" transform="translate(58.398438 0)"/>
      </g>
     </g>
    </g>
    <g id="ytick_2">
     <g id="line2d_7">
      <path d="M 57.6 222.912 
L 414.72 222.912 
" clip-path="url(#p037fbd8f24)" style="fill: none; stroke: #ffffff; stroke-width: 0.8; stroke-linecap: round"/>
     </g>
     <g id="text_8">
      <!-- −2 -->
      <g style="fill: #262626" transform="translate(39.198437 226.490906) scale(0.1 -0.1)">
       <use xlink:href="#ArialMT-2212"/>
       <use xlink:href="#ArialMT-32" transform="translate(58.398438 0)"/>
      </g>
     </g>
    </g>
    <g id="ytick_3">
     <g id="line2d_8">
      <path d="M 57.6 174.528 
L 414.72 174.528 
" clip-path="url(#p037fbd8f24)" style="fill: none; stroke: #ffffff; stroke-width: 0.8; stroke-linecap: round"/>
     </g>
     <g id="text_9">
      <!-- 0 -->
      <g style="fill: #262626" transform="translate(45.039062 178.106906) scale(0.1 -0.1)">
       <use xlink:href="#ArialMT-30"/>
      </g>
     </g>
    </g>
    <g id="ytick_4">
     <g id="line2d_9">
      <path d="M 57.6 126.144 
L 414.72 126.144 
" clip-path="url(#p037fbd8f24)" style="fill: none; stroke: #ffffff; stroke-width: 0.8; stroke-linecap: round"/>
     </g>
     <g id="text_10">
      <!-- 2 -->
      <g style="fill: #262626" transform="translate(45.039062 129.722906) scale(0.1 -0.1)">
       <use xlink:href="#ArialMT-32"/>
      </g>
     </g>
    </g>
    <g id="ytick_5">
     <g id="line2d_10">
      <path d="M 57.6 77.76 
L 414.72 77.76 
" clip-path="url(#p037fbd8f24)" style="fill: none; stroke: #ffffff; stroke-width: 0.8; stroke-linecap: round"/>
     </g>
     <g id="text_11">
      <!-- 4 -->
      <g style="fill: #262626" transform="translate(45.039062 81.338906) scale(0.1 -0.1)">
       <use xlink:href="#ArialMT-34"/>
      </g>
     </g>
    </g>
    <g id="text_12">
     <!-- $x_{next}$ -->
     <g style="fill: #262626" transform="translate(33.210938 185.478) rotate(-90) scale(0.1 -0.1)">
      <defs>
       <path id="DejaVuSans-Oblique-6e" d="M 3566 2113 
L 3156 0 
L 2578 0 
L 2988 2091 
Q 3016 2238 3031 2350 
Q 3047 2463 3047 2528 
Q 3047 2791 2881 2937 
Q 2716 3084 2419 3084 
Q 1956 3084 1622 2776 
Q 1288 2469 1184 1941 
L 800 0 
L 225 0 
L 903 3500 
L 1478 3500 
L 1363 2950 
Q 1603 3253 1940 3418 
Q 2278 3584 2650 3584 
Q 3113 3584 3367 3334 
Q 3622 3084 3622 2631 
Q 3622 2519 3608 2391 
Q 3594 2263 3566 2113 
z
" transform="scale(0.015625)"/>
       <path id="DejaVuSans-Oblique-65" d="M 3078 2063 
Q 3088 2113 3092 2166 
Q 3097 2219 3097 2272 
Q 3097 2653 2873 2875 
Q 2650 3097 2266 3097 
Q 1838 3097 1509 2826 
Q 1181 2556 1013 2059 
L 3078 2063 
z
M 3578 1613 
L 903 1613 
Q 884 1494 878 1425 
Q 872 1356 872 1306 
Q 872 872 1139 634 
Q 1406 397 1894 397 
Q 2269 397 2603 481 
Q 2938 566 3225 728 
L 3116 159 
Q 2806 34 2476 -28 
Q 2147 -91 1806 -91 
Q 1078 -91 686 257 
Q 294 606 294 1247 
Q 294 1794 489 2264 
Q 684 2734 1063 3103 
Q 1306 3334 1642 3459 
Q 1978 3584 2356 3584 
Q 2950 3584 3301 3228 
Q 3653 2872 3653 2272 
Q 3653 2128 3634 1964 
Q 3616 1800 3578 1613 
z
" transform="scale(0.015625)"/>
       <path id="DejaVuSans-Oblique-74" d="M 2706 3500 
L 2619 3053 
L 1472 3053 
L 1100 1153 
Q 1081 1047 1072 975 
Q 1063 903 1063 863 
Q 1063 663 1183 572 
Q 1303 481 1569 481 
L 2150 481 
L 2053 0 
L 1503 0 
Q 991 0 739 200 
Q 488 400 488 806 
Q 488 878 497 964 
Q 506 1050 525 1153 
L 897 3053 
L 409 3053 
L 500 3500 
L 978 3500 
L 1172 4494 
L 1747 4494 
L 1556 3500 
L 2706 3500 
z
" transform="scale(0.015625)"/>
      </defs>
      <use xlink:href="#DejaVuSans-Oblique-78" transform="translate(0 0.3125)"/>
      <use xlink:href="#DejaVuSans-Oblique-6e" transform="translate(59.179688 -16.09375) scale(0.7)"/>
      <use xlink:href="#DejaVuSans-Oblique-65" transform="translate(103.544922 -16.09375) scale(0.7)"/>
      <use xlink:href="#DejaVuSans-Oblique-78" transform="translate(146.611328 -16.09375) scale(0.7)"/>
      <use xlink:href="#DejaVuSans-Oblique-74" transform="translate(188.037109 -16.09375) scale(0.7)"/>
     </g>
    </g>
   </g>
   <g id="FillBetweenPolyCollection_1">
    <defs>
     <path id="mbfde5d8cae" d="M 73.832727 -197.138513 
L 73.832727 -161.493115 
L 77.112073 -161.776724 
L 80.391404 -161.308492 
L 83.670734 -161.379441 
L 86.95008 -161.448898 
L 90.229426 -161.467565 
L 93.508757 -161.344632 
L 96.788103 -161.317148 
L 100.067434 -161.574986 
L 103.34678 -161.419151 
L 106.62611 -161.535555 
L 109.905456 -161.228497 
L 113.184795 -161.302184 
L 116.464133 -161.259953 
L 119.743479 -161.533612 
L 123.022809 -161.422388 
L 126.302148 -161.412562 
L 129.581486 -160.919238 
L 132.860824 -161.145316 
L 136.140163 -161.373925 
L 139.419493 -161.022464 
L 142.698847 -161.168638 
L 145.978178 -161.010185 
L 149.257516 -161.109211 
L 152.536862 -160.739284 
L 155.816192 -159.690404 
L 159.095538 -158.99695 
L 162.374869 -158.095703 
L 165.654215 -157.437301 
L 168.933553 -156.58544 
L 172.212892 -155.772353 
L 175.492234 -155.254215 
L 178.771564 -154.653727 
L 182.050914 -154.233317 
L 185.330245 -153.736444 
L 188.609583 -153.291328 
L 191.888925 -152.923158 
L 195.168256 -152.748877 
L 198.447606 -152.652562 
L 201.726936 -152.389159 
L 205.006277 -152.354123 
L 208.285621 -152.374035 
L 211.564957 -152.387327 
L 214.844301 -152.480117 
L 218.123628 -152.498081 
L 221.402982 -152.83318 
L 224.682308 -152.892955 
L 227.961652 -153.354729 
L 231.240996 -153.60586 
L 234.520323 -153.970506 
L 237.799667 -154.333235 
L 241.079004 -154.954816 
L 244.358348 -155.324219 
L 247.637684 -156.134612 
L 250.917028 -156.564817 
L 254.196364 -157.26146 
L 257.475699 -157.735855 
L 260.755035 -158.554961 
L 264.034379 -158.731025 
L 267.313716 -159.131149 
L 270.59306 -159.223329 
L 273.872394 -159.246136 
L 277.151733 -159.331715 
L 280.431067 -159.460234 
L 283.710409 -159.204686 
L 286.989755 -159.154519 
L 290.269093 -158.975787 
L 293.548424 -159.296894 
L 296.827762 -158.911837 
L 300.107108 -159.265786 
L 303.386439 -159.414587 
L 306.665785 -159.479269 
L 309.945123 -159.175818 
L 313.224462 -159.092801 
L 316.503792 -159.619481 
L 319.783138 -159.510141 
L 323.062476 -159.666731 
L 326.341815 -159.823762 
L 329.621153 -159.88157 
L 332.900491 -159.713796 
L 336.179822 -159.841249 
L 339.459168 -159.93832 
L 342.738514 -159.765958 
L 346.01786 -159.950125 
L 349.297191 -159.765879 
L 352.576521 -159.908977 
L 355.855867 -159.995504 
L 359.135213 -160.298394 
L 362.414536 -160.011731 
L 365.693882 -160.23954 
L 368.97322 -160.080108 
L 372.252566 -160.357063 
L 375.531881 -160.263123 
L 378.811227 -160.420709 
L 382.090574 -160.508252 
L 385.36992 -160.581693 
L 388.649266 -160.533556 
L 391.928581 -160.515838 
L 395.207927 -160.50988 
L 398.487273 -160.733894 
L 398.487273 -196.218116 
L 398.487273 -196.218116 
L 395.207927 -196.366361 
L 391.928581 -196.365524 
L 388.649266 -196.207852 
L 385.36992 -196.165447 
L 382.090574 -196.089785 
L 378.811227 -196.090497 
L 375.531881 -195.869454 
L 372.252566 -195.659598 
L 368.97322 -195.560126 
L 365.693882 -195.426667 
L 362.414536 -195.387754 
L 359.135213 -195.534719 
L 355.855867 -195.316741 
L 352.576521 -195.306691 
L 349.297191 -194.933417 
L 346.01786 -195.076011 
L 342.738514 -194.855882 
L 339.459168 -194.836669 
L 336.179822 -194.56139 
L 332.900491 -194.484551 
L 329.621153 -194.359822 
L 326.341815 -194.285904 
L 323.062476 -194.19618 
L 319.783138 -194.105197 
L 316.503792 -193.909287 
L 313.224462 -193.555114 
L 309.945123 -193.372137 
L 306.665785 -193.43062 
L 303.386439 -193.246982 
L 300.107108 -193.068476 
L 296.827762 -193.018133 
L 293.548424 -192.952464 
L 290.269093 -192.900346 
L 286.989755 -192.807793 
L 283.710409 -192.796702 
L 280.431067 -192.855558 
L 277.151733 -192.679074 
L 273.872394 -192.631693 
L 270.59306 -192.298979 
L 267.313716 -192.317019 
L 264.034379 -191.977926 
L 260.755035 -191.383784 
L 257.475699 -190.729621 
L 254.196364 -189.999632 
L 250.917028 -189.045278 
L 247.637684 -188.366904 
L 244.358348 -187.31908 
L 241.079004 -186.707245 
L 237.799667 -185.746609 
L 234.520323 -185.031801 
L 231.240996 -184.401316 
L 227.961652 -184.015271 
L 224.682308 -183.374104 
L 221.402982 -182.80184 
L 218.123628 -182.566618 
L 214.844301 -182.405801 
L 211.564957 -182.486475 
L 208.285621 -182.019634 
L 205.006277 -182.204386 
L 201.726936 -182.382343 
L 198.447606 -182.558529 
L 195.168256 -183.086182 
L 191.888925 -183.284064 
L 188.609583 -184.069991 
L 185.330245 -184.819029 
L 182.050914 -185.439909 
L 178.771564 -186.203423 
L 175.492234 -187.071106 
L 172.212892 -188.040731 
L 168.933553 -189.098342 
L 165.654215 -190.127832 
L 162.374869 -191.355372 
L 159.095538 -192.12313 
L 155.816192 -193.195474 
L 152.536862 -194.080495 
L 149.257516 -194.680174 
L 145.978178 -195.051549 
L 142.698847 -195.291455 
L 139.419493 -195.379616 
L 136.140163 -195.647572 
L 132.860824 -195.820122 
L 129.581486 -196.01031 
L 126.302148 -196.244983 
L 123.022809 -196.243313 
L 119.743479 -196.476587 
L 116.464133 -196.228536 
L 113.184795 -196.466836 
L 109.905456 -196.565356 
L 106.62611 -196.712467 
L 103.34678 -196.55141 
L 100.067434 -196.853978 
L 96.788103 -196.945848 
L 93.508757 -196.827348 
L 90.229426 -197.077683 
L 86.95008 -197.177887 
L 83.670734 -197.051797 
L 80.391404 -197.074707 
L 77.112073 -197.02904 
L 73.832727 -197.138513 
z
" style="stroke: #0000ff; stroke-opacity: 0.5"/>
    </defs>
    <g clip-path="url(#p037fbd8f24)">
     <use xlink:href="#mbfde5d8cae" x="0" y="345.6" style="fill: #0000ff; fill-opacity: 0.5; stroke: #0000ff; stroke-opacity: 0.5"/>
    </g>
   </g>
   <g id="FillBetweenPolyCollection_2">
    <defs>
     <path id="m1e21f35b4c" d="M 73.832727 -221.869747 
L 73.832727 -127.812742 
L 77.112073 -128.375961 
L 80.391404 -128.213825 
L 83.670734 -127.669434 
L 86.95008 -128.698209 
L 90.229426 -128.274418 
L 93.508757 -128.064585 
L 96.788103 -128.255186 
L 100.067434 -128.56965 
L 103.34678 -129.039987 
L 106.62611 -128.672767 
L 109.905456 -128.389639 
L 113.184795 -128.371667 
L 116.464133 -128.472578 
L 119.743479 -129.210842 
L 123.022809 -129.117614 
L 126.302148 -129.024446 
L 129.581486 -128.72306 
L 132.860824 -128.989326 
L 136.140163 -129.089406 
L 139.419493 -128.976905 
L 142.698847 -129.447337 
L 145.978178 -129.452937 
L 149.257516 -130.443316 
L 152.536862 -130.36299 
L 155.816192 -130.380847 
L 159.095538 -130.824523 
L 162.374869 -130.773708 
L 165.654215 -131.148418 
L 168.933553 -131.117404 
L 172.212892 -131.254753 
L 175.492234 -131.329576 
L 178.771564 -131.525815 
L 182.050914 -131.674267 
L 185.330245 -132.098767 
L 188.609583 -132.034084 
L 191.888925 -132.011817 
L 195.168256 -132.410547 
L 198.447606 -132.536516 
L 201.726936 -132.42139 
L 205.006277 -132.51846 
L 208.285621 -132.61623 
L 211.564957 -132.389979 
L 214.844301 -132.478255 
L 218.123628 -132.177426 
L 221.402982 -132.472323 
L 224.682308 -132.419718 
L 227.961652 -132.071246 
L 231.240996 -132.11426 
L 234.520323 -131.575441 
L 237.799667 -131.560503 
L 241.079004 -131.565232 
L 244.358348 -131.296656 
L 247.637684 -131.255295 
L 250.917028 -130.844704 
L 254.196364 -131.019547 
L 257.475699 -130.725475 
L 260.755035 -130.716621 
L 264.034379 -130.70001 
L 267.313716 -130.847317 
L 270.59306 -130.605778 
L 273.872394 -130.558969 
L 277.151733 -130.696817 
L 280.431067 -130.698297 
L 283.710409 -130.285442 
L 286.989755 -130.266783 
L 290.269093 -129.982539 
L 293.548424 -130.351824 
L 296.827762 -130.03393 
L 300.107108 -129.900806 
L 303.386439 -130.252931 
L 306.665785 -130.410664 
L 309.945123 -129.938 
L 313.224462 -130.012234 
L 316.503792 -130.334863 
L 319.783138 -130.401032 
L 323.062476 -129.736737 
L 326.341815 -130.056413 
L 329.621153 -130.244309 
L 332.900491 -129.74675 
L 336.179822 -130.358592 
L 339.459168 -129.685386 
L 342.738514 -129.482255 
L 346.01786 -129.822583 
L 349.297191 -129.280214 
L 352.576521 -129.488262 
L 355.855867 -129.631838 
L 359.135213 -129.609972 
L 362.414536 -129.043676 
L 365.693882 -129.107358 
L 368.97322 -129.306083 
L 372.252566 -129.530235 
L 375.531881 -129.259822 
L 378.811227 -129.282954 
L 382.090574 -129.532905 
L 385.36992 -128.890384 
L 388.649266 -129.230891 
L 391.928581 -128.642374 
L 395.207927 -129.125181 
L 398.487273 -128.681038 
L 398.487273 -220.830443 
L 398.487273 -220.830443 
L 395.207927 -220.890953 
L 391.928581 -220.974102 
L 388.649266 -220.512602 
L 385.36992 -220.67346 
L 382.090574 -220.669319 
L 378.811227 -220.033342 
L 375.531881 -219.897083 
L 372.252566 -219.763494 
L 368.97322 -219.468026 
L 365.693882 -219.29532 
L 362.414536 -219.002675 
L 359.135213 -219.054767 
L 355.855867 -218.8668 
L 352.576521 -218.52212 
L 349.297191 -218.64105 
L 346.01786 -218.141375 
L 342.738514 -218.158964 
L 339.459168 -218.063893 
L 336.179822 -217.460449 
L 332.900491 -217.629161 
L 329.621153 -217.099268 
L 326.341815 -217.217384 
L 323.062476 -216.967251 
L 319.783138 -216.392808 
L 316.503792 -216.706381 
L 313.224462 -215.747031 
L 309.945123 -215.73373 
L 306.665785 -215.531461 
L 303.386439 -215.408627 
L 300.107108 -215.074136 
L 296.827762 -214.821067 
L 293.548424 -214.646253 
L 290.269093 -214.199279 
L 286.989755 -214.313675 
L 283.710409 -213.967089 
L 280.431067 -213.777775 
L 277.151733 -213.54789 
L 273.872394 -213.388231 
L 270.59306 -213.028359 
L 267.313716 -213.229771 
L 264.034379 -212.885055 
L 260.755035 -212.499083 
L 257.475699 -212.11197 
L 254.196364 -211.343177 
L 250.917028 -210.88294 
L 247.637684 -210.664339 
L 244.358348 -209.849825 
L 241.079004 -209.589624 
L 237.799667 -208.840738 
L 234.520323 -208.492399 
L 231.240996 -208.060121 
L 227.961652 -207.900748 
L 224.682308 -207.337315 
L 221.402982 -206.951569 
L 218.123628 -206.777779 
L 214.844301 -206.951133 
L 211.564957 -207.248476 
L 208.285621 -206.42424 
L 205.006277 -206.700083 
L 201.726936 -206.983315 
L 198.447606 -206.773309 
L 195.168256 -207.252606 
L 191.888925 -207.219865 
L 188.609583 -207.903692 
L 185.330245 -208.466277 
L 182.050914 -208.978356 
L 178.771564 -209.441737 
L 175.492234 -209.762909 
L 172.212892 -210.382679 
L 168.933553 -211.395627 
L 165.654215 -212.030335 
L 162.374869 -212.510308 
L 159.095538 -213.337509 
L 155.816192 -214.282987 
L 152.536862 -215.179217 
L 149.257516 -215.74883 
L 145.978178 -216.361736 
L 142.698847 -217.049895 
L 139.419493 -217.263798 
L 136.140163 -217.519635 
L 132.860824 -218.217562 
L 129.581486 -218.4146 
L 126.302148 -218.767902 
L 123.022809 -219.075575 
L 119.743479 -219.667131 
L 116.464133 -219.868809 
L 113.184795 -219.858825 
L 109.905456 -220.234183 
L 106.62611 -220.289877 
L 103.34678 -220.522326 
L 100.067434 -220.647799 
L 96.788103 -221.13533 
L 93.508757 -221.141352 
L 90.229426 -221.539441 
L 86.95008 -221.701932 
L 83.670734 -221.888775 
L 80.391404 -221.587793 
L 77.112073 -222.00292 
L 73.832727 -221.869747 
z
" style="stroke: #0000ff; stroke-opacity: 0.3"/>
    </defs>
    <g clip-path="url(#p037fbd8f24)">
     <use xlink:href="#m1e21f35b4c" x="0" y="345.6" style="fill: #0000ff; fill-opacity: 0.3; stroke: #0000ff; stroke-opacity: 0.3"/>
    </g>
   </g>
   <g id="line2d_11">
    <path d="M 73.832727 167.032657 
L 77.112073 166.89943 
L 80.391404 167.089822 
L 83.670734 167.1335 
L 86.95008 167.020656 
L 90.229426 167.09934 
L 93.508757 167.31477 
L 96.788103 167.2309 
L 100.067434 167.218445 
L 103.34678 167.296781 
L 106.62611 167.328059 
L 109.905456 167.462599 
L 113.184795 167.537073 
L 116.464133 167.660068 
L 119.743479 167.454488 
L 123.022809 167.683446 
L 126.302148 167.721281 
L 129.581486 168.025312 
L 132.860824 167.971957 
L 136.140163 168.017015 
L 139.419493 168.322331 
L 142.698847 168.251575 
L 145.978178 168.441547 
L 149.257516 168.551885 
L 152.536862 168.951238 
L 155.816192 169.850011 
L 159.095538 170.577216 
L 162.374869 171.361861 
L 165.654215 172.143696 
L 168.933553 172.964649 
L 172.212892 173.839421 
L 175.492234 174.531276 
L 178.771564 175.103164 
L 182.050914 175.624617 
L 185.330245 176.110095 
L 188.609583 176.652628 
L 191.888925 177.159639 
L 195.168256 177.268943 
L 198.447606 177.602251 
L 201.726936 177.704867 
L 205.006277 177.848817 
L 208.285621 177.943827 
L 211.564957 177.684655 
L 214.844301 177.729146 
L 218.123628 177.679691 
L 221.402982 177.41837 
L 224.682308 177.089403 
L 227.961652 176.678858 
L 231.240996 176.343873 
L 234.520323 175.963779 
L 237.799667 175.50389 
L 241.079004 174.764649 
L 244.358348 174.331409 
L 247.637684 173.490265 
L 250.917028 173.069738 
L 254.196364 172.388197 
L 257.475699 171.750468 
L 260.755035 171.168628 
L 264.034379 170.835176 
L 267.313716 170.531076 
L 270.59306 170.511389 
L 273.872394 170.363508 
L 277.151733 170.25821 
L 280.431067 170.099342 
L 283.710409 170.269842 
L 286.989755 170.244139 
L 290.269093 170.266253 
L 293.548424 170.069726 
L 296.827762 170.190453 
L 300.107108 170.096042 
L 303.386439 169.883447 
L 306.665785 169.757301 
L 309.945123 169.931929 
L 313.224462 169.838285 
L 316.503792 169.440648 
L 319.783138 169.417982 
L 323.062476 169.370221 
L 326.341815 169.213902 
L 329.621153 169.089206 
L 332.900491 169.095709 
L 336.179822 168.977474 
L 339.459168 168.827351 
L 342.738514 168.860086 
L 346.01786 168.680102 
L 349.297191 168.80223 
L 352.576521 168.526746 
L 355.855867 168.549367 
L 359.135213 168.319151 
L 362.414536 168.482508 
L 365.693882 168.347751 
L 368.97322 168.313551 
L 372.252566 168.130661 
L 375.531881 168.082575 
L 378.811227 167.900578 
L 382.090574 167.796438 
L 385.36992 167.811353 
L 388.649266 167.73882 
L 391.928581 167.752037 
L 395.207927 167.698602 
L 398.487273 167.705656 
" clip-path="url(#p037fbd8f24)" style="fill: none; stroke: #0000ff; stroke-width: 1.5; stroke-linecap: round"/>
   </g>
   <g id="LineCollection_1">
    <path d="M 236.16 295.488 
L 236.16 53.568 
" clip-path="url(#p037fbd8f24)" style="fill: none; stroke-dasharray: 5.55,2.4; stroke-dashoffset: 0; stroke: #008000; stroke-width: 1.5"/>
   </g>
   <g id="patch_3">
    <path d="M 57.6 307.584 
L 57.6 41.472 
" style="fill: none; stroke: #ffffff; stroke-width: 0.8; stroke-linejoin: miter; stroke-linecap: square"/>
   </g>
   <g id="patch_4">
    <path d="M 414.72 307.584 
L 414.72 41.472 
" style="fill: none; stroke: #ffffff; stroke-width: 0.8; stroke-linejoin: miter; stroke-linecap: square"/>
   </g>
   <g id="patch_5">
    <path d="M 57.6 307.584 
L 414.72 307.584 
" style="fill: none; stroke: #ffffff; stroke-width: 0.8; stroke-linejoin: miter; stroke-linecap: square"/>
   </g>
   <g id="patch_6">
    <path d="M 57.6 41.472 
L 414.72 41.472 
" style="fill: none; stroke: #ffffff; stroke-width: 0.8; stroke-linejoin: miter; stroke-linecap: square"/>
   </g>
   <g id="text_13">
    <!-- $\mu=1, \sigma=1, n=2$ -->
    <g style="fill: #262626" transform="translate(184.98 35.472) scale(0.12 -0.12)">
     <defs>
      <path id="DejaVuSans-Oblique-3bc" d="M -84 -1331 
L 856 3500 
L 1434 3500 
L 1009 1322 
Q 997 1256 987 1175 
Q 978 1094 978 1013 
Q 978 722 1161 565 
Q 1344 409 1684 409 
Q 2147 409 2431 671 
Q 2716 934 2816 1459 
L 3213 3500 
L 3788 3500 
L 3266 809 
Q 3253 750 3248 706 
Q 3244 663 3244 628 
Q 3244 531 3283 486 
Q 3322 441 3406 441 
Q 3438 441 3492 456 
Q 3547 472 3647 513 
L 3559 50 
Q 3422 -19 3297 -55 
Q 3172 -91 3053 -91 
Q 2847 -91 2730 40 
Q 2613 172 2613 403 
Q 2438 153 2195 31 
Q 1953 -91 1625 -91 
Q 1334 -91 1117 43 
Q 900 178 831 397 
L 494 -1331 
L -84 -1331 
z
" transform="scale(0.015625)"/>
      <path id="DejaVuSans-3d" d="M 678 2906 
L 4684 2906 
L 4684 2381 
L 678 2381 
L 678 2906 
z
M 678 1631 
L 4684 1631 
L 4684 1100 
L 678 1100 
L 678 1631 
z
" transform="scale(0.015625)"/>
      <path id="DejaVuSans-31" d="M 794 531 
L 1825 531 
L 1825 4091 
L 703 3866 
L 703 4441 
L 1819 4666 
L 2450 4666 
L 2450 531 
L 3481 531 
L 3481 0 
L 794 0 
L 794 531 
z
" transform="scale(0.015625)"/>
      <path id="DejaVuSans-2c" d="M 750 794 
L 1409 794 
L 1409 256 
L 897 -744 
L 494 -744 
L 750 256 
L 750 794 
z
" transform="scale(0.015625)"/>
      <path id="DejaVuSans-Oblique-3c3" d="M 2219 3044 
Q 1744 3044 1422 2700 
Q 1081 2341 969 1747 
Q 844 1119 1044 756 
Q 1241 397 1706 397 
Q 2166 397 2503 759 
Q 2844 1122 2966 1747 
Q 3075 2319 2881 2700 
Q 2700 3044 2219 3044 
z
M 2309 3503 
L 4219 3500 
L 4106 2925 
L 3463 2925 
Q 3706 2438 3575 1747 
Q 3406 888 2884 400 
Q 2359 -91 1609 -91 
Q 856 -91 525 400 
Q 194 888 363 1747 
Q 528 2609 1050 3097 
Q 1484 3503 2309 3503 
z
" transform="scale(0.015625)"/>
      <path id="DejaVuSans-32" d="M 1228 531 
L 3431 531 
L 3431 0 
L 469 0 
L 469 531 
Q 828 903 1448 1529 
Q 2069 2156 2228 2338 
Q 2531 2678 2651 2914 
Q 2772 3150 2772 3378 
Q 2772 3750 2511 3984 
Q 2250 4219 1831 4219 
Q 1534 4219 1204 4116 
Q 875 4013 500 3803 
L 500 4441 
Q 881 4594 1212 4672 
Q 1544 4750 1819 4750 
Q 2544 4750 2975 4387 
Q 3406 4025 3406 3419 
Q 3406 3131 3298 2873 
Q 3191 2616 2906 2266 
Q 2828 2175 2409 1742 
Q 1991 1309 1228 531 
z
" transform="scale(0.015625)"/>
     </defs>
     <use xlink:href="#DejaVuSans-Oblique-3bc" transform="translate(0 0.78125)"/>
     <use xlink:href="#DejaVuSans-3d" transform="translate(83.105469 0.78125)"/>
     <use xlink:href="#DejaVuSans-31" transform="translate(186.376953 0.78125)"/>
     <use xlink:href="#DejaVuSans-2c" transform="translate(250 0.78125)"/>
     <use xlink:href="#DejaVuSans-Oblique-3c3" transform="translate(301.269531 0.78125)"/>
     <use xlink:href="#DejaVuSans-3d" transform="translate(384.130859 0.78125)"/>
     <use xlink:href="#DejaVuSans-31" transform="translate(487.402344 0.78125)"/>
     <use xlink:href="#DejaVuSans-2c" transform="translate(551.025391 0.78125)"/>
     <use xlink:href="#DejaVuSans-Oblique-6e" transform="translate(602.294922 0.78125)"/>
     <use xlink:href="#DejaVuSans-3d" transform="translate(685.15625 0.78125)"/>
     <use xlink:href="#DejaVuSans-32" transform="translate(788.427734 0.78125)"/>
    </g>
   </g>
   <g id="legend_1">
    <g id="patch_7">
     <path d="M 302.42 302.584 
L 407.72 302.584 
Q 409.72 302.584 409.72 300.584 
L 409.72 244.393375 
Q 409.72 242.393375 407.72 242.393375 
L 302.42 242.393375 
Q 300.42 242.393375 300.42 244.393375 
L 300.42 300.584 
Q 300.42 302.584 302.42 302.584 
z
" style="fill: #eaeaf2; opacity: 0.8; stroke: #cccccc; stroke-linejoin: miter"/>
    </g>
    <g id="line2d_12">
     <path d="M 304.42 250.305875 
L 314.42 250.305875 
L 324.42 250.305875 
" style="fill: none; stroke: #0000ff; stroke-width: 1.5; stroke-linecap: round"/>
    </g>
    <g id="text_14">
     <!-- $E[x_{next}]$ -->
     <g style="fill: #262626" transform="translate(332.42 253.805875) scale(0.1 -0.1)">
      <defs>
       <path id="DejaVuSans-Oblique-45" d="M 1081 4666 
L 4031 4666 
L 3928 4134 
L 1606 4134 
L 1338 2753 
L 3566 2753 
L 3463 2222 
L 1234 2222 
L 909 531 
L 3284 531 
L 3181 0 
L 172 0 
L 1081 4666 
z
" transform="scale(0.015625)"/>
       <path id="DejaVuSans-5b" d="M 550 4863 
L 1875 4863 
L 1875 4416 
L 1125 4416 
L 1125 -397 
L 1875 -397 
L 1875 -844 
L 550 -844 
L 550 4863 
z
" transform="scale(0.015625)"/>
       <path id="DejaVuSans-5d" d="M 1947 4863 
L 1947 -844 
L 622 -844 
L 622 -397 
L 1369 -397 
L 1369 4416 
L 622 4416 
L 622 4863 
L 1947 4863 
z
" transform="scale(0.015625)"/>
      </defs>
      <use xlink:href="#DejaVuSans-Oblique-45" transform="translate(0 0.015625)"/>
      <use xlink:href="#DejaVuSans-5b" transform="translate(63.183594 0.015625)"/>
      <use xlink:href="#DejaVuSans-Oblique-78" transform="translate(102.197266 0.015625)"/>
      <use xlink:href="#DejaVuSans-Oblique-6e" transform="translate(161.376953 -16.390625) scale(0.7)"/>
      <use xlink:href="#DejaVuSans-Oblique-65" transform="translate(205.742188 -16.390625) scale(0.7)"/>
      <use xlink:href="#DejaVuSans-Oblique-78" transform="translate(248.808594 -16.390625) scale(0.7)"/>
      <use xlink:href="#DejaVuSans-Oblique-74" transform="translate(290.234375 -16.390625) scale(0.7)"/>
      <use xlink:href="#DejaVuSans-5d" transform="translate(320.415039 0.015625)"/>
     </g>
    </g>
    <g id="patch_8">
     <path d="M 304.42 267.951187 
L 324.42 267.951187 
L 324.42 260.951187 
L 304.42 260.951187 
z
" style="fill: #0000ff; fill-opacity: 0.5; stroke: #0000ff; stroke-opacity: 0.5; stroke-linejoin: miter"/>
    </g>
    <g id="text_15">
     <!-- 50% CI -->
     <g style="fill: #262626" transform="translate(332.42 267.951187) scale(0.1 -0.1)">
      <defs>
       <path id="ArialMT-35" d="M 266 1200 
L 856 1250 
Q 922 819 1161 601 
Q 1400 384 1738 384 
Q 2144 384 2425 690 
Q 2706 997 2706 1503 
Q 2706 1984 2436 2262 
Q 2166 2541 1728 2541 
Q 1456 2541 1237 2417 
Q 1019 2294 894 2097 
L 366 2166 
L 809 4519 
L 3088 4519 
L 3088 3981 
L 1259 3981 
L 1013 2750 
Q 1425 3038 1878 3038 
Q 2478 3038 2890 2622 
Q 3303 2206 3303 1553 
Q 3303 931 2941 478 
Q 2500 -78 1738 -78 
Q 1113 -78 717 272 
Q 322 622 266 1200 
z
" transform="scale(0.015625)"/>
       <path id="ArialMT-25" d="M 372 3481 
Q 372 3972 619 4315 
Q 866 4659 1334 4659 
Q 1766 4659 2048 4351 
Q 2331 4044 2331 3447 
Q 2331 2866 2045 2552 
Q 1759 2238 1341 2238 
Q 925 2238 648 2547 
Q 372 2856 372 3481 
z
M 1350 4272 
Q 1141 4272 1002 4090 
Q 863 3909 863 3425 
Q 863 2984 1003 2804 
Q 1144 2625 1350 2625 
Q 1563 2625 1702 2806 
Q 1841 2988 1841 3469 
Q 1841 3913 1700 4092 
Q 1559 4272 1350 4272 
z
M 1353 -169 
L 3859 4659 
L 4316 4659 
L 1819 -169 
L 1353 -169 
z
M 3334 1075 
Q 3334 1569 3581 1911 
Q 3828 2253 4300 2253 
Q 4731 2253 5014 1945 
Q 5297 1638 5297 1041 
Q 5297 459 5011 145 
Q 4725 -169 4303 -169 
Q 3888 -169 3611 142 
Q 3334 453 3334 1075 
z
M 4316 1866 
Q 4103 1866 3964 1684 
Q 3825 1503 3825 1019 
Q 3825 581 3965 400 
Q 4106 219 4313 219 
Q 4528 219 4667 400 
Q 4806 581 4806 1063 
Q 4806 1506 4665 1686 
Q 4525 1866 4316 1866 
z
" transform="scale(0.015625)"/>
       <path id="ArialMT-20" transform="scale(0.015625)"/>
       <path id="ArialMT-43" d="M 3763 1606 
L 4369 1453 
Q 4178 706 3683 314 
Q 3188 -78 2472 -78 
Q 1731 -78 1267 223 
Q 803 525 561 1097 
Q 319 1669 319 2325 
Q 319 3041 592 3573 
Q 866 4106 1370 4382 
Q 1875 4659 2481 4659 
Q 3169 4659 3637 4309 
Q 4106 3959 4291 3325 
L 3694 3184 
Q 3534 3684 3231 3912 
Q 2928 4141 2469 4141 
Q 1941 4141 1586 3887 
Q 1231 3634 1087 3207 
Q 944 2781 944 2328 
Q 944 1744 1114 1308 
Q 1284 872 1643 656 
Q 2003 441 2422 441 
Q 2931 441 3284 734 
Q 3638 1028 3763 1606 
z
" transform="scale(0.015625)"/>
       <path id="ArialMT-49" d="M 597 0 
L 597 4581 
L 1203 4581 
L 1203 0 
L 597 0 
z
" transform="scale(0.015625)"/>
      </defs>
      <use xlink:href="#ArialMT-35"/>
      <use xlink:href="#ArialMT-30" transform="translate(55.615234 0)"/>
      <use xlink:href="#ArialMT-25" transform="translate(111.230469 0)"/>
      <use xlink:href="#ArialMT-20" transform="translate(200.146484 0)"/>
      <use xlink:href="#ArialMT-43" transform="translate(227.929688 0)"/>
      <use xlink:href="#ArialMT-49" transform="translate(300.146484 0)"/>
     </g>
    </g>
    <g id="patch_9">
     <path d="M 304.42 282.0965 
L 324.42 282.0965 
L 324.42 275.0965 
L 304.42 275.0965 
z
" style="fill: #0000ff; fill-opacity: 0.3; stroke: #0000ff; stroke-opacity: 0.3; stroke-linejoin: miter"/>
    </g>
    <g id="text_16">
     <!-- 90% CI -->
     <g style="fill: #262626" transform="translate(332.42 282.0965) scale(0.1 -0.1)">
      <defs>
       <path id="ArialMT-39" d="M 350 1059 
L 891 1109 
Q 959 728 1153 556 
Q 1347 384 1650 384 
Q 1909 384 2104 503 
Q 2300 622 2425 820 
Q 2550 1019 2634 1356 
Q 2719 1694 2719 2044 
Q 2719 2081 2716 2156 
Q 2547 1888 2255 1720 
Q 1963 1553 1622 1553 
Q 1053 1553 659 1965 
Q 266 2378 266 3053 
Q 266 3750 677 4175 
Q 1088 4600 1706 4600 
Q 2153 4600 2523 4359 
Q 2894 4119 3086 3673 
Q 3278 3228 3278 2384 
Q 3278 1506 3087 986 
Q 2897 466 2520 194 
Q 2144 -78 1638 -78 
Q 1100 -78 759 220 
Q 419 519 350 1059 
z
M 2653 3081 
Q 2653 3566 2395 3850 
Q 2138 4134 1775 4134 
Q 1400 4134 1122 3828 
Q 844 3522 844 3034 
Q 844 2597 1108 2323 
Q 1372 2050 1759 2050 
Q 2150 2050 2401 2323 
Q 2653 2597 2653 3081 
z
" transform="scale(0.015625)"/>
      </defs>
      <use xlink:href="#ArialMT-39"/>
      <use xlink:href="#ArialMT-30" transform="translate(55.615234 0)"/>
      <use xlink:href="#ArialMT-25" transform="translate(111.230469 0)"/>
      <use xlink:href="#ArialMT-20" transform="translate(200.146484 0)"/>
      <use xlink:href="#ArialMT-43" transform="translate(227.929688 0)"/>
      <use xlink:href="#ArialMT-49" transform="translate(300.146484 0)"/>
     </g>
    </g>
    <g id="line2d_13">
     <path d="M 304.42 292.884 
L 324.42 292.884 
" style="fill: none; stroke-dasharray: 5.55,2.4; stroke-dashoffset: 0; stroke: #008000; stroke-width: 1.5"/>
    </g>
    <g id="text_17">
     <!-- mode of target $\pi$ -->
     <g style="fill: #262626" transform="translate(332.42 296.384) scale(0.1 -0.1)">
      <defs>
       <path id="ArialMT-6d" d="M 422 0 
L 422 3319 
L 925 3319 
L 925 2853 
Q 1081 3097 1340 3245 
Q 1600 3394 1931 3394 
Q 2300 3394 2536 3241 
Q 2772 3088 2869 2813 
Q 3263 3394 3894 3394 
Q 4388 3394 4653 3120 
Q 4919 2847 4919 2278 
L 4919 0 
L 4359 0 
L 4359 2091 
Q 4359 2428 4304 2576 
Q 4250 2725 4106 2815 
Q 3963 2906 3769 2906 
Q 3419 2906 3187 2673 
Q 2956 2441 2956 1928 
L 2956 0 
L 2394 0 
L 2394 2156 
Q 2394 2531 2256 2718 
Q 2119 2906 1806 2906 
Q 1569 2906 1367 2781 
Q 1166 2656 1075 2415 
Q 984 2175 984 1722 
L 984 0 
L 422 0 
z
" transform="scale(0.015625)"/>
       <path id="ArialMT-6f" d="M 213 1659 
Q 213 2581 725 3025 
Q 1153 3394 1769 3394 
Q 2453 3394 2887 2945 
Q 3322 2497 3322 1706 
Q 3322 1066 3130 698 
Q 2938 331 2570 128 
Q 2203 -75 1769 -75 
Q 1072 -75 642 372 
Q 213 819 213 1659 
z
M 791 1659 
Q 791 1022 1069 705 
Q 1347 388 1769 388 
Q 2188 388 2466 706 
Q 2744 1025 2744 1678 
Q 2744 2294 2464 2611 
Q 2184 2928 1769 2928 
Q 1347 2928 1069 2612 
Q 791 2297 791 1659 
z
" transform="scale(0.015625)"/>
       <path id="ArialMT-64" d="M 2575 0 
L 2575 419 
Q 2259 -75 1647 -75 
Q 1250 -75 917 144 
Q 584 363 401 755 
Q 219 1147 219 1656 
Q 219 2153 384 2558 
Q 550 2963 881 3178 
Q 1213 3394 1622 3394 
Q 1922 3394 2156 3267 
Q 2391 3141 2538 2938 
L 2538 4581 
L 3097 4581 
L 3097 0 
L 2575 0 
z
M 797 1656 
Q 797 1019 1065 703 
Q 1334 388 1700 388 
Q 2069 388 2326 689 
Q 2584 991 2584 1609 
Q 2584 2291 2321 2609 
Q 2059 2928 1675 2928 
Q 1300 2928 1048 2622 
Q 797 2316 797 1656 
z
" transform="scale(0.015625)"/>
       <path id="ArialMT-65" d="M 2694 1069 
L 3275 997 
Q 3138 488 2766 206 
Q 2394 -75 1816 -75 
Q 1088 -75 661 373 
Q 234 822 234 1631 
Q 234 2469 665 2931 
Q 1097 3394 1784 3394 
Q 2450 3394 2872 2941 
Q 3294 2488 3294 1666 
Q 3294 1616 3291 1516 
L 816 1516 
Q 847 969 1125 678 
Q 1403 388 1819 388 
Q 2128 388 2347 550 
Q 2566 713 2694 1069 
z
M 847 1978 
L 2700 1978 
Q 2663 2397 2488 2606 
Q 2219 2931 1791 2931 
Q 1403 2931 1139 2672 
Q 875 2413 847 1978 
z
" transform="scale(0.015625)"/>
       <path id="ArialMT-66" d="M 556 0 
L 556 2881 
L 59 2881 
L 59 3319 
L 556 3319 
L 556 3672 
Q 556 4006 616 4169 
Q 697 4388 901 4523 
Q 1106 4659 1475 4659 
Q 1713 4659 2000 4603 
L 1916 4113 
Q 1741 4144 1584 4144 
Q 1328 4144 1222 4034 
Q 1116 3925 1116 3625 
L 1116 3319 
L 1763 3319 
L 1763 2881 
L 1116 2881 
L 1116 0 
L 556 0 
z
" transform="scale(0.015625)"/>
       <path id="ArialMT-74" d="M 1650 503 
L 1731 6 
Q 1494 -44 1306 -44 
Q 1000 -44 831 53 
Q 663 150 594 308 
Q 525 466 525 972 
L 525 2881 
L 113 2881 
L 113 3319 
L 525 3319 
L 525 4141 
L 1084 4478 
L 1084 3319 
L 1650 3319 
L 1650 2881 
L 1084 2881 
L 1084 941 
Q 1084 700 1114 631 
Q 1144 563 1211 522 
Q 1278 481 1403 481 
Q 1497 481 1650 503 
z
" transform="scale(0.015625)"/>
       <path id="ArialMT-61" d="M 2588 409 
Q 2275 144 1986 34 
Q 1697 -75 1366 -75 
Q 819 -75 525 192 
Q 231 459 231 875 
Q 231 1119 342 1320 
Q 453 1522 633 1644 
Q 813 1766 1038 1828 
Q 1203 1872 1538 1913 
Q 2219 1994 2541 2106 
Q 2544 2222 2544 2253 
Q 2544 2597 2384 2738 
Q 2169 2928 1744 2928 
Q 1347 2928 1158 2789 
Q 969 2650 878 2297 
L 328 2372 
Q 403 2725 575 2942 
Q 747 3159 1072 3276 
Q 1397 3394 1825 3394 
Q 2250 3394 2515 3294 
Q 2781 3194 2906 3042 
Q 3031 2891 3081 2659 
Q 3109 2516 3109 2141 
L 3109 1391 
Q 3109 606 3145 398 
Q 3181 191 3288 0 
L 2700 0 
Q 2613 175 2588 409 
z
M 2541 1666 
Q 2234 1541 1622 1453 
Q 1275 1403 1131 1340 
Q 988 1278 909 1158 
Q 831 1038 831 891 
Q 831 666 1001 516 
Q 1172 366 1500 366 
Q 1825 366 2078 508 
Q 2331 650 2450 897 
Q 2541 1088 2541 1459 
L 2541 1666 
z
" transform="scale(0.015625)"/>
       <path id="ArialMT-72" d="M 416 0 
L 416 3319 
L 922 3319 
L 922 2816 
Q 1116 3169 1280 3281 
Q 1444 3394 1641 3394 
Q 1925 3394 2219 3213 
L 2025 2691 
Q 1819 2813 1613 2813 
Q 1428 2813 1281 2702 
Q 1134 2591 1072 2394 
Q 978 2094 978 1738 
L 978 0 
L 416 0 
z
" transform="scale(0.015625)"/>
       <path id="ArialMT-67" d="M 319 -275 
L 866 -356 
Q 900 -609 1056 -725 
Q 1266 -881 1628 -881 
Q 2019 -881 2231 -725 
Q 2444 -569 2519 -288 
Q 2563 -116 2559 434 
Q 2191 0 1641 0 
Q 956 0 581 494 
Q 206 988 206 1678 
Q 206 2153 378 2554 
Q 550 2956 876 3175 
Q 1203 3394 1644 3394 
Q 2231 3394 2613 2919 
L 2613 3319 
L 3131 3319 
L 3131 450 
Q 3131 -325 2973 -648 
Q 2816 -972 2473 -1159 
Q 2131 -1347 1631 -1347 
Q 1038 -1347 672 -1080 
Q 306 -813 319 -275 
z
M 784 1719 
Q 784 1066 1043 766 
Q 1303 466 1694 466 
Q 2081 466 2343 764 
Q 2606 1063 2606 1700 
Q 2606 2309 2336 2618 
Q 2066 2928 1684 2928 
Q 1309 2928 1046 2623 
Q 784 2319 784 1719 
z
" transform="scale(0.015625)"/>
       <path id="DejaVuSans-Oblique-3c0" d="M 584 3500 
L 3938 3500 
L 3825 2925 
L 3384 2925 
L 2966 775 
Q 2922 550 2981 450 
Q 3038 353 3209 353 
Q 3256 353 3325 363 
Q 3397 369 3419 372 
L 3338 -44 
Q 3222 -84 3103 -103 
Q 2981 -122 2866 -122 
Q 2491 -122 2388 81 
Q 2284 288 2391 838 
L 2797 2925 
L 1506 2925 
L 938 0 
L 350 0 
L 919 2925 
L 472 2925 
L 584 3500 
z
" transform="scale(0.015625)"/>
      </defs>
      <use xlink:href="#ArialMT-6d" transform="translate(0 0.203125)"/>
      <use xlink:href="#ArialMT-6f" transform="translate(83.300781 0.203125)"/>
      <use xlink:href="#ArialMT-64" transform="translate(138.916016 0.203125)"/>
      <use xlink:href="#ArialMT-65" transform="translate(194.53125 0.203125)"/>
      <use xlink:href="#ArialMT-20" transform="translate(250.146484 0.203125)"/>
      <use xlink:href="#ArialMT-6f" transform="translate(277.929688 0.203125)"/>
      <use xlink:href="#ArialMT-66" transform="translate(333.544922 0.203125)"/>
      <use xlink:href="#ArialMT-20" transform="translate(361.328125 0.203125)"/>
      <use xlink:href="#ArialMT-74" transform="translate(389.111328 0.203125)"/>
      <use xlink:href="#ArialMT-61" transform="translate(416.894531 0.203125)"/>
      <use xlink:href="#ArialMT-72" transform="translate(472.509766 0.203125)"/>
      <use xlink:href="#ArialMT-67" transform="translate(505.810547 0.203125)"/>
      <use xlink:href="#ArialMT-65" transform="translate(561.425781 0.203125)"/>
      <use xlink:href="#ArialMT-74" transform="translate(617.041016 0.203125)"/>
      <use xlink:href="#ArialMT-20" transform="translate(644.824219 0.203125)"/>
      <use xlink:href="#DejaVuSans-Oblique-3c0" transform="translate(672.607422 0.203125)"/>
     </g>
    </g>
   </g>
  </g>
 </g>
 <defs>
  <clipPath id="p037fbd8f24">
   <rect x="57.6" y="41.472" width="357.12" height="266.112"/>
  </clipPath>
 </defs>
</svg>
