<?xml version="1.0" encoding="utf-8" standalone="no"?>
<!DOCTYPE svg PUBLIC "-//W3C//DTD SVG 1.1//EN"
  "http://www.w3.org/Graphics/SVG/1.1/DTD/svg11.dtd">
<svg xmlns:xlink="http://www.w3.org/1999/xlink" width="460.8pt" height="345.6pt" viewBox="0 0 460.8 345.6" xmlns="http://www.w3.org/2000/svg" version="1.1">
 <metadata>
  <rdf:RDF xmlns:dc="http://purl.org/dc/elements/1.1/" xmlns:cc="http://creativecommons.org/ns#" xmlns:rdf="http://www.w3.org/1999/02/22-rdf-syntax-ns#">
   <cc:Work>
    <dc:type rdf:resource="http://purl.org/dc/dcmitype/StillImage"/>
    <dc:date>2025-04-12T12:19:56.394787</dc:date>
    <dc:format>image/svg+xml</dc:format>
    <dc:creator>
     <cc:Agent>
      <dc:title>Matplotlib v3.10.1, https://matplotlib.org/</dc:title>
     </cc:Agent>
    </dc:creator>
   </cc:Work>
  </rdf:RDF>
 </metadata>
 <defs>
  <style type="text/css">*{stroke-linejoin: round; stroke-linecap: butt}</style>
 </defs>
 <g id="figure_1">
  <g id="patch_1">
   <path d="M 0 345.6 
L 460.8 345.6 
L 460.8 0 
L 0 0 
z
" style="fill: #ffffff"/>
  </g>
  <g id="axes_1">
   <g id="patch_2">
    <path d="M 57.6 307.584 
L 414.72 307.584 
L 414.72 41.472 
L 57.6 41.472 
z
" style="fill: #eaeaf2"/>
   </g>
   <g id="matplotlib.axis_1">
    <g id="xtick_1">
     <g id="line2d_1">
      <path d="M 106.298182 307.584 
L 106.298182 41.472 
" clip-path="url(#p1c69120796)" style="fill: none; stroke: #ffffff; stroke-width: 0.8; stroke-linecap: round"/>
     </g>
     <g id="text_1">
      <!-- −4 -->
      <g style="fill: #262626" transform="translate(100.597401 321.741812) scale(0.1 -0.1)">
       <defs>
        <path id="ArialMT-2212" d="M 3381 1997 
L 356 1997 
L 356 2522 
L 3381 2522 
L 3381 1997 
z
" transform="scale(0.015625)"/>
        <path id="ArialMT-34" d="M 2069 0 
L 2069 1097 
L 81 1097 
L 81 1613 
L 2172 4581 
L 2631 4581 
L 2631 1613 
L 3250 1613 
L 3250 1097 
L 2631 1097 
L 2631 0 
L 2069 0 
z
M 2069 1613 
L 2069 3678 
L 634 1613 
L 2069 1613 
z
" transform="scale(0.015625)"/>
       </defs>
       <use xlink:href="#ArialMT-2212"/>
       <use xlink:href="#ArialMT-34" transform="translate(58.398438 0)"/>
      </g>
     </g>
    </g>
    <g id="xtick_2">
     <g id="line2d_2">
      <path d="M 171.229091 307.584 
L 171.229091 41.472 
" clip-path="url(#p1c69120796)" style="fill: none; stroke: #ffffff; stroke-width: 0.8; stroke-linecap: round"/>
     </g>
     <g id="text_2">
      <!-- −2 -->
      <g style="fill: #262626" transform="translate(165.52831 321.741812) scale(0.1 -0.1)">
       <defs>
        <path id="ArialMT-32" d="M 3222 541 
L 3222 0 
L 194 0 
Q 188 203 259 391 
Q 375 700 629 1000 
Q 884 1300 1366 1694 
Q 2113 2306 2375 2664 
Q 2638 3022 2638 3341 
Q 2638 3675 2398 3904 
Q 2159 4134 1775 4134 
Q 1369 4134 1125 3890 
Q 881 3647 878 3216 
L 300 3275 
Q 359 3922 746 4261 
Q 1134 4600 1788 4600 
Q 2447 4600 2831 4234 
Q 3216 3869 3216 3328 
Q 3216 3053 3103 2787 
Q 2991 2522 2730 2228 
Q 2469 1934 1863 1422 
Q 1356 997 1212 845 
Q 1069 694 975 541 
L 3222 541 
z
" transform="scale(0.015625)"/>
       </defs>
       <use xlink:href="#ArialMT-2212"/>
       <use xlink:href="#ArialMT-32" transform="translate(58.398438 0)"/>
      </g>
     </g>
    </g>
    <g id="xtick_3">
     <g id="line2d_3">
      <path d="M 236.16 307.584 
L 236.16 41.472 
" clip-path="url(#p1c69120796)" style="fill: none; stroke: #ffffff; stroke-width: 0.8; stroke-linecap: round"/>
     </g>
     <g id="text_3">
      <!-- 0 -->
      <g style="fill: #262626" transform="translate(233.379531 321.741812) scale(0.1 -0.1)">
       <defs>
        <path id="ArialMT-30" d="M 266 2259 
Q 266 3072 433 3567 
Q 600 4063 929 4331 
Q 1259 4600 1759 4600 
Q 2128 4600 2406 4451 
Q 2684 4303 2865 4023 
Q 3047 3744 3150 3342 
Q 3253 2941 3253 2259 
Q 3253 1453 3087 958 
Q 2922 463 2592 192 
Q 2263 -78 1759 -78 
Q 1097 -78 719 397 
Q 266 969 266 2259 
z
M 844 2259 
Q 844 1131 1108 757 
Q 1372 384 1759 384 
Q 2147 384 2411 759 
Q 2675 1134 2675 2259 
Q 2675 3391 2411 3762 
Q 2147 4134 1753 4134 
Q 1366 4134 1134 3806 
Q 844 3388 844 2259 
z
" transform="scale(0.015625)"/>
       </defs>
       <use xlink:href="#ArialMT-30"/>
      </g>
     </g>
    </g>
    <g id="xtick_4">
     <g id="line2d_4">
      <path d="M 301.090909 307.584 
L 301.090909 41.472 
" clip-path="url(#p1c69120796)" style="fill: none; stroke: #ffffff; stroke-width: 0.8; stroke-linecap: round"/>
     </g>
     <g id="text_4">
      <!-- 2 -->
      <g style="fill: #262626" transform="translate(298.31044 321.741812) scale(0.1 -0.1)">
       <use xlink:href="#ArialMT-32"/>
      </g>
     </g>
    </g>
    <g id="xtick_5">
     <g id="line2d_5">
      <path d="M 366.021818 307.584 
L 366.021818 41.472 
" clip-path="url(#p1c69120796)" style="fill: none; stroke: #ffffff; stroke-width: 0.8; stroke-linecap: round"/>
     </g>
     <g id="text_5">
      <!-- 4 -->
      <g style="fill: #262626" transform="translate(363.241349 321.741812) scale(0.1 -0.1)">
       <use xlink:href="#ArialMT-34"/>
      </g>
     </g>
    </g>
    <g id="text_6">
     <!-- $x$ -->
     <g style="fill: #262626" transform="translate(233.16 334.887125) scale(0.1 -0.1)">
      <defs>
       <path id="DejaVuSans-Oblique-78" d="M 3841 3500 
L 2234 1784 
L 3219 0 
L 2559 0 
L 1819 1388 
L 531 0 
L -166 0 
L 1556 1844 
L 641 3500 
L 1300 3500 
L 1972 2234 
L 3144 3500 
L 3841 3500 
z
" transform="scale(0.015625)"/>
      </defs>
      <use xlink:href="#DejaVuSans-Oblique-78" transform="translate(0 0.3125)"/>
     </g>
    </g>
   </g>
   <g id="matplotlib.axis_2">
    <g id="ytick_1">
     <g id="line2d_6">
      <path d="M 57.6 271.296 
L 414.72 271.296 
" clip-path="url(#p1c69120796)" style="fill: none; stroke: #ffffff; stroke-width: 0.8; stroke-linecap: round"/>
     </g>
     <g id="text_7">
      <!-- −4 -->
      <g style="fill: #262626" transform="translate(39.198437 274.874906) scale(0.1 -0.1)">
       <use xlink:href="#ArialMT-2212"/>
       <use xlink:href="#ArialMT-34" transform="translate(58.398438 0)"/>
      </g>
     </g>
    </g>
    <g id="ytick_2">
     <g id="line2d_7">
      <path d="M 57.6 222.912 
L 414.72 222.912 
" clip-path="url(#p1c69120796)" style="fill: none; stroke: #ffffff; stroke-width: 0.8; stroke-linecap: round"/>
     </g>
     <g id="text_8">
      <!-- −2 -->
      <g style="fill: #262626" transform="translate(39.198437 226.490906) scale(0.1 -0.1)">
       <use xlink:href="#ArialMT-2212"/>
       <use xlink:href="#ArialMT-32" transform="translate(58.398438 0)"/>
      </g>
     </g>
    </g>
    <g id="ytick_3">
     <g id="line2d_8">
      <path d="M 57.6 174.528 
L 414.72 174.528 
" clip-path="url(#p1c69120796)" style="fill: none; stroke: #ffffff; stroke-width: 0.8; stroke-linecap: round"/>
     </g>
     <g id="text_9">
      <!-- 0 -->
      <g style="fill: #262626" transform="translate(45.039062 178.106906) scale(0.1 -0.1)">
       <use xlink:href="#ArialMT-30"/>
      </g>
     </g>
    </g>
    <g id="ytick_4">
     <g id="line2d_9">
      <path d="M 57.6 126.144 
L 414.72 126.144 
" clip-path="url(#p1c69120796)" style="fill: none; stroke: #ffffff; stroke-width: 0.8; stroke-linecap: round"/>
     </g>
     <g id="text_10">
      <!-- 2 -->
      <g style="fill: #262626" transform="translate(45.039062 129.722906) scale(0.1 -0.1)">
       <use xlink:href="#ArialMT-32"/>
      </g>
     </g>
    </g>
    <g id="ytick_5">
     <g id="line2d_10">
      <path d="M 57.6 77.76 
L 414.72 77.76 
" clip-path="url(#p1c69120796)" style="fill: none; stroke: #ffffff; stroke-width: 0.8; stroke-linecap: round"/>
     </g>
     <g id="text_11">
      <!-- 4 -->
      <g style="fill: #262626" transform="translate(45.039062 81.338906) scale(0.1 -0.1)">
       <use xlink:href="#ArialMT-34"/>
      </g>
     </g>
    </g>
    <g id="text_12">
     <!-- $x_{next}$ -->
     <g style="fill: #262626" transform="translate(33.210938 185.478) rotate(-90) scale(0.1 -0.1)">
      <defs>
       <path id="DejaVuSans-Oblique-6e" d="M 3566 2113 
L 3156 0 
L 2578 0 
L 2988 2091 
Q 3016 2238 3031 2350 
Q 3047 2463 3047 2528 
Q 3047 2791 2881 2937 
Q 2716 3084 2419 3084 
Q 1956 3084 1622 2776 
Q 1288 2469 1184 1941 
L 800 0 
L 225 0 
L 903 3500 
L 1478 3500 
L 1363 2950 
Q 1603 3253 1940 3418 
Q 2278 3584 2650 3584 
Q 3113 3584 3367 3334 
Q 3622 3084 3622 2631 
Q 3622 2519 3608 2391 
Q 3594 2263 3566 2113 
z
" transform="scale(0.015625)"/>
       <path id="DejaVuSans-Oblique-65" d="M 3078 2063 
Q 3088 2113 3092 2166 
Q 3097 2219 3097 2272 
Q 3097 2653 2873 2875 
Q 2650 3097 2266 3097 
Q 1838 3097 1509 2826 
Q 1181 2556 1013 2059 
L 3078 2063 
z
M 3578 1613 
L 903 1613 
Q 884 1494 878 1425 
Q 872 1356 872 1306 
Q 872 872 1139 634 
Q 1406 397 1894 397 
Q 2269 397 2603 481 
Q 2938 566 3225 728 
L 3116 159 
Q 2806 34 2476 -28 
Q 2147 -91 1806 -91 
Q 1078 -91 686 257 
Q 294 606 294 1247 
Q 294 1794 489 2264 
Q 684 2734 1063 3103 
Q 1306 3334 1642 3459 
Q 1978 3584 2356 3584 
Q 2950 3584 3301 3228 
Q 3653 2872 3653 2272 
Q 3653 2128 3634 1964 
Q 3616 1800 3578 1613 
z
" transform="scale(0.015625)"/>
       <path id="DejaVuSans-Oblique-74" d="M 2706 3500 
L 2619 3053 
L 1472 3053 
L 1100 1153 
Q 1081 1047 1072 975 
Q 1063 903 1063 863 
Q 1063 663 1183 572 
Q 1303 481 1569 481 
L 2150 481 
L 2053 0 
L 1503 0 
Q 991 0 739 200 
Q 488 400 488 806 
Q 488 878 497 964 
Q 506 1050 525 1153 
L 897 3053 
L 409 3053 
L 500 3500 
L 978 3500 
L 1172 4494 
L 1747 4494 
L 1556 3500 
L 2706 3500 
z
" transform="scale(0.015625)"/>
      </defs>
      <use xlink:href="#DejaVuSans-Oblique-78" transform="translate(0 0.3125)"/>
      <use xlink:href="#DejaVuSans-Oblique-6e" transform="translate(59.179688 -16.09375) scale(0.7)"/>
      <use xlink:href="#DejaVuSans-Oblique-65" transform="translate(103.544922 -16.09375) scale(0.7)"/>
      <use xlink:href="#DejaVuSans-Oblique-78" transform="translate(146.611328 -16.09375) scale(0.7)"/>
      <use xlink:href="#DejaVuSans-Oblique-74" transform="translate(188.037109 -16.09375) scale(0.7)"/>
     </g>
    </g>
   </g>
   <g id="FillBetweenPolyCollection_1">
    <defs>
     <path id="m9dba939c4c" d="M 73.832727 -197.579933 
L 73.832727 -152.735444 
L 77.112073 -152.82045 
L 80.391404 -153.314389 
L 83.670734 -153.125953 
L 86.95008 -153.161829 
L 90.229426 -153.562783 
L 93.508757 -153.647366 
L 96.788103 -153.428033 
L 100.067434 -153.803045 
L 103.34678 -153.770161 
L 106.62611 -154.035105 
L 109.905456 -153.905481 
L 113.184795 -154.198814 
L 116.464133 -154.35352 
L 119.743479 -154.399654 
L 123.022809 -154.645352 
L 126.302148 -154.923809 
L 129.581486 -155.023972 
L 132.860824 -155.226068 
L 136.140163 -155.638004 
L 139.419493 -155.472025 
L 142.698847 -155.791879 
L 145.978178 -156.064173 
L 149.257516 -155.983449 
L 152.536862 -156.417788 
L 155.816192 -156.520412 
L 159.095538 -156.810581 
L 162.374869 -157.312897 
L 165.654215 -157.384652 
L 168.933553 -157.565434 
L 172.212892 -158.025656 
L 175.492234 -157.977516 
L 178.771564 -158.14871 
L 182.050914 -158.857307 
L 185.330245 -158.651172 
L 188.609583 -158.426243 
L 191.888925 -157.302893 
L 195.168256 -156.040748 
L 198.447606 -155.222487 
L 201.726936 -154.769184 
L 205.006277 -154.720107 
L 208.285621 -155.712148 
L 211.564957 -156.624835 
L 214.844301 -157.688915 
L 218.123628 -158.841807 
L 221.402982 -159.452496 
L 224.682308 -159.589701 
L 227.961652 -159.224276 
L 231.240996 -158.537504 
L 234.520323 -157.416202 
L 237.799667 -156.924262 
L 241.079004 -155.676722 
L 244.358348 -154.961388 
L 247.637684 -154.078841 
L 250.917028 -153.799303 
L 254.196364 -153.641611 
L 257.475699 -153.060348 
L 260.755035 -153.050183 
L 264.034379 -152.884124 
L 267.313716 -152.726449 
L 270.59306 -152.673857 
L 273.872394 -152.312994 
L 277.151733 -152.217211 
L 280.431067 -152.210601 
L 283.710409 -151.953973 
L 286.989755 -151.687096 
L 290.269093 -151.470352 
L 293.548424 -151.054254 
L 296.827762 -150.773599 
L 300.107108 -150.300992 
L 303.386439 -149.870472 
L 306.665785 -149.584447 
L 309.945123 -149.168112 
L 313.224462 -148.732942 
L 316.503792 -148.455609 
L 319.783138 -148.089985 
L 323.062476 -147.71803 
L 326.341815 -147.34636 
L 329.621153 -146.752433 
L 332.900491 -146.376512 
L 336.179822 -146.30673 
L 339.459168 -146.024165 
L 342.738514 -145.98214 
L 346.01786 -145.580994 
L 349.297191 -145.311882 
L 352.576521 -145.291905 
L 355.855867 -144.684709 
L 359.135213 -144.377498 
L 362.414536 -144.569805 
L 365.693882 -144.502504 
L 368.97322 -144.116922 
L 372.252566 -144.44762 
L 375.531881 -144.829332 
L 378.811227 -144.803428 
L 382.090574 -144.361157 
L 385.36992 -144.819339 
L 388.649266 -144.666307 
L 391.928581 -144.25541 
L 395.207927 -144.84213 
L 398.487273 -144.999448 
L 398.487273 -189.353789 
L 398.487273 -189.353789 
L 395.207927 -189.097548 
L 391.928581 -189.302429 
L 388.649266 -188.924075 
L 385.36992 -189.191317 
L 382.090574 -188.665874 
L 378.811227 -188.681571 
L 375.531881 -188.51014 
L 372.252566 -188.074079 
L 368.97322 -188.160091 
L 365.693882 -188.206472 
L 362.414536 -187.942994 
L 359.135213 -187.702428 
L 355.855867 -187.577447 
L 352.576521 -187.573411 
L 349.297191 -187.473411 
L 346.01786 -187.21886 
L 342.738514 -187.141691 
L 339.459168 -187.201341 
L 336.179822 -186.574136 
L 332.900491 -186.421063 
L 329.621153 -186.153229 
L 326.341815 -186.321776 
L 323.062476 -186.036298 
L 319.783138 -185.762776 
L 316.503792 -185.761579 
L 313.224462 -185.093801 
L 309.945123 -184.897258 
L 306.665785 -184.937448 
L 303.386439 -184.61463 
L 300.107108 -184.243054 
L 296.827762 -183.89664 
L 293.548424 -183.591922 
L 290.269093 -183.437628 
L 286.989755 -183.364433 
L 283.710409 -183.727412 
L 280.431067 -184.850671 
L 277.151733 -185.84804 
L 273.872394 -186.813506 
L 270.59306 -187.431701 
L 267.313716 -187.060197 
L 264.034379 -186.693374 
L 260.755035 -185.755976 
L 257.475699 -184.572231 
L 254.196364 -183.555182 
L 250.917028 -182.82272 
L 247.637684 -182.585529 
L 244.358348 -182.839241 
L 241.079004 -183.700751 
L 237.799667 -184.687138 
L 234.520323 -185.446995 
L 231.240996 -186.290307 
L 227.961652 -187.256219 
L 224.682308 -187.912758 
L 221.402982 -188.352097 
L 218.123628 -188.901218 
L 214.844301 -188.998507 
L 211.564957 -189.248802 
L 208.285621 -189.23105 
L 205.006277 -189.137718 
L 201.726936 -189.547246 
L 198.447606 -189.65214 
L 195.168256 -189.913795 
L 191.888925 -190.106591 
L 188.609583 -190.268274 
L 185.330245 -190.197404 
L 182.050914 -190.670627 
L 178.771564 -190.950214 
L 175.492234 -191.318407 
L 172.212892 -191.878493 
L 168.933553 -192.16995 
L 165.654215 -192.570799 
L 162.374869 -193.117534 
L 159.095538 -193.439231 
L 155.816192 -193.612639 
L 152.536862 -194.012582 
L 149.257516 -194.284547 
L 145.978178 -194.959778 
L 142.698847 -195.191602 
L 139.419493 -195.228033 
L 136.140163 -195.632821 
L 132.860824 -195.992052 
L 129.581486 -196.666184 
L 126.302148 -196.635839 
L 123.022809 -196.833289 
L 119.743479 -197.051662 
L 116.464133 -197.437984 
L 113.184795 -197.694667 
L 109.905456 -197.579959 
L 106.62611 -197.875084 
L 103.34678 -197.670757 
L 100.067434 -197.806289 
L 96.788103 -197.321417 
L 93.508757 -197.814214 
L 90.229426 -197.726292 
L 86.95008 -197.367496 
L 83.670734 -197.566826 
L 80.391404 -197.485924 
L 77.112073 -196.99704 
L 73.832727 -197.579933 
z
" style="stroke: #0000ff; stroke-opacity: 0.5"/>
    </defs>
    <g clip-path="url(#p1c69120796)">
     <use xlink:href="#m9dba939c4c" x="0" y="345.6" style="fill: #0000ff; fill-opacity: 0.5; stroke: #0000ff; stroke-opacity: 0.5"/>
    </g>
   </g>
   <g id="FillBetweenPolyCollection_2">
    <defs>
     <path id="mbe3fce94cf" d="M 73.832727 -252.050125 
L 73.832727 -102.271634 
L 77.112073 -102.016252 
L 80.391404 -103.88175 
L 83.670734 -103.932242 
L 86.95008 -104.485532 
L 90.229426 -105.644414 
L 93.508757 -107.386913 
L 96.788103 -106.967362 
L 100.067434 -108.944981 
L 103.34678 -109.669143 
L 106.62611 -109.588849 
L 109.905456 -110.704484 
L 113.184795 -111.56671 
L 116.464133 -112.486055 
L 119.743479 -113.639089 
L 123.022809 -114.085207 
L 126.302148 -115.416305 
L 129.581486 -116.23999 
L 132.860824 -116.754422 
L 136.140163 -118.106601 
L 139.419493 -118.495087 
L 142.698847 -120.003258 
L 145.978178 -120.905743 
L 149.257516 -122.060115 
L 152.536862 -122.938776 
L 155.816192 -124.084179 
L 159.095538 -124.860101 
L 162.374869 -126.404075 
L 165.654215 -126.951692 
L 168.933553 -128.24194 
L 172.212892 -129.001712 
L 175.492234 -129.740077 
L 178.771564 -130.9061 
L 182.050914 -131.658532 
L 185.330245 -132.534316 
L 188.609583 -133.933673 
L 191.888925 -133.856485 
L 195.168256 -134.606314 
L 198.447606 -134.828288 
L 201.726936 -135.336739 
L 205.006277 -135.306611 
L 208.285621 -135.810447 
L 211.564957 -135.128082 
L 214.844301 -135.339609 
L 218.123628 -135.064091 
L 221.402982 -134.879674 
L 224.682308 -134.531721 
L 227.961652 -134.628603 
L 231.240996 -133.907925 
L 234.520323 -134.149981 
L 237.799667 -133.694781 
L 241.079004 -132.950614 
L 244.358348 -132.593407 
L 247.637684 -131.813251 
L 250.917028 -131.472125 
L 254.196364 -131.313657 
L 257.475699 -131.197412 
L 260.755035 -131.049052 
L 264.034379 -130.94862 
L 267.313716 -130.875392 
L 270.59306 -130.748298 
L 273.872394 -130.709123 
L 277.151733 -130.086224 
L 280.431067 -129.696807 
L 283.710409 -129.326161 
L 286.989755 -128.600779 
L 290.269093 -127.839827 
L 293.548424 -126.549401 
L 296.827762 -125.945372 
L 300.107108 -124.537524 
L 303.386439 -123.200736 
L 306.665785 -122.187803 
L 309.945123 -121.096214 
L 313.224462 -119.488203 
L 316.503792 -118.38855 
L 319.783138 -117.362177 
L 323.062476 -116.18955 
L 326.341815 -114.462901 
L 329.621153 -113.629843 
L 332.900491 -112.25743 
L 336.179822 -111.134989 
L 339.459168 -109.834293 
L 342.738514 -109.064202 
L 346.01786 -107.688692 
L 349.297191 -106.300631 
L 352.576521 -104.834294 
L 355.855867 -103.647703 
L 359.135213 -102.696486 
L 362.414536 -101.497944 
L 365.693882 -100.280974 
L 368.97322 -98.891869 
L 372.252566 -98.380199 
L 375.531881 -97.836605 
L 378.811227 -96.373268 
L 382.090574 -94.690299 
L 385.36992 -94.08778 
L 388.649266 -92.86574 
L 391.928581 -91.004245 
L 395.207927 -90.933128 
L 398.487273 -89.916347 
L 398.487273 -240.257582 
L 398.487273 -240.257582 
L 395.207927 -239.190823 
L 391.928581 -239.274382 
L 388.649266 -237.969798 
L 385.36992 -237.88053 
L 382.090574 -236.029445 
L 378.811227 -235.334601 
L 375.531881 -234.737701 
L 372.252566 -233.232172 
L 368.97322 -233.035028 
L 365.693882 -233.015487 
L 362.414536 -231.466659 
L 359.135213 -230.310101 
L 355.855867 -229.375247 
L 352.576521 -228.653156 
L 349.297191 -227.961704 
L 346.01786 -226.866129 
L 342.738514 -225.656588 
L 339.459168 -225.698295 
L 336.179822 -223.691341 
L 332.900491 -223.344718 
L 329.621153 -221.802281 
L 326.341815 -221.744303 
L 323.062476 -220.368245 
L 319.783138 -219.138288 
L 316.503792 -218.581024 
L 313.224462 -217.1504 
L 309.945123 -216.128512 
L 306.665785 -215.494452 
L 303.386439 -214.151937 
L 300.107108 -213.17528 
L 296.827762 -211.855164 
L 293.548424 -211.068788 
L 290.269093 -210.085587 
L 286.989755 -209.531106 
L 283.710409 -208.955804 
L 280.431067 -208.131094 
L 277.151733 -207.550214 
L 273.872394 -207.321895 
L 270.59306 -206.798615 
L 267.313716 -206.86361 
L 264.034379 -206.704017 
L 260.755035 -206.82913 
L 257.475699 -206.939552 
L 254.196364 -207.244038 
L 250.917028 -207.511561 
L 247.637684 -207.621597 
L 244.358348 -207.879816 
L 241.079004 -208.145384 
L 237.799667 -208.697581 
L 234.520323 -208.695995 
L 231.240996 -208.983956 
L 227.961652 -209.455107 
L 224.682308 -210.104823 
L 221.402982 -210.751396 
L 218.123628 -211.01485 
L 214.844301 -211.012652 
L 211.564957 -211.198414 
L 208.285621 -211.153589 
L 205.006277 -211.097728 
L 201.726936 -211.240395 
L 198.447606 -211.566259 
L 195.168256 -211.854604 
L 191.888925 -212.169383 
L 188.609583 -213.196027 
L 185.330245 -213.670909 
L 182.050914 -214.5241 
L 178.771564 -215.577768 
L 175.492234 -216.222648 
L 172.212892 -217.501323 
L 168.933553 -218.659619 
L 165.654215 -219.789611 
L 162.374869 -221.117865 
L 159.095538 -222.158611 
L 155.816192 -223.894345 
L 152.536862 -224.841848 
L 149.257516 -225.570832 
L 145.978178 -227.958866 
L 142.698847 -229.148197 
L 139.419493 -229.48844 
L 136.140163 -231.216751 
L 132.860824 -232.125737 
L 129.581486 -233.293605 
L 126.302148 -234.514873 
L 123.022809 -235.859554 
L 119.743479 -236.610743 
L 116.464133 -238.310134 
L 113.184795 -239.034417 
L 109.905456 -239.954454 
L 106.62611 -241.74358 
L 103.34678 -242.853782 
L 100.067434 -243.783653 
L 96.788103 -244.484132 
L 93.508757 -246.369881 
L 90.229426 -247.456597 
L 86.95008 -248.610496 
L 83.670734 -249.644476 
L 80.391404 -250.409076 
L 77.112073 -251.401101 
L 73.832727 -252.050125 
z
" style="stroke: #0000ff; stroke-opacity: 0.3"/>
    </defs>
    <g clip-path="url(#p1c69120796)">
     <use xlink:href="#mbe3fce94cf" x="0" y="345.6" style="fill: #0000ff; fill-opacity: 0.3; stroke: #0000ff; stroke-opacity: 0.3"/>
    </g>
   </g>
   <g id="line2d_11">
    <path d="M 73.832727 170.475312 
L 77.112073 170.532181 
L 80.391404 170.272988 
L 83.670734 170.334737 
L 86.95008 170.474638 
L 90.229426 170.331501 
L 93.508757 170.252419 
L 96.788103 170.64718 
L 100.067434 170.383709 
L 103.34678 170.531786 
L 106.62611 170.411509 
L 109.905456 170.694921 
L 113.184795 170.520431 
L 116.464133 170.562648 
L 119.743479 170.626464 
L 123.022809 170.611501 
L 126.302148 170.554508 
L 129.581486 170.445445 
L 132.860824 170.674927 
L 136.140163 170.561718 
L 139.419493 170.859828 
L 142.698847 170.569254 
L 145.978178 170.562366 
L 149.257516 170.86517 
L 152.536862 170.758198 
L 155.816192 170.853195 
L 159.095538 170.794656 
L 162.374869 170.702015 
L 165.654215 170.885276 
L 168.933553 170.896032 
L 172.212892 170.879299 
L 175.492234 171.100609 
L 178.771564 171.109478 
L 182.050914 171.016169 
L 185.330245 171.244429 
L 188.609583 171.219331 
L 191.888925 171.712767 
L 195.168256 172.113258 
L 198.447606 172.502751 
L 201.726936 172.682476 
L 205.006277 172.889326 
L 208.285621 172.560373 
L 211.564957 172.32309 
L 214.844301 172.147602 
L 218.123628 171.913093 
L 221.402982 172.025116 
L 224.682308 172.293106 
L 227.961652 172.727556 
L 231.240996 173.461209 
L 234.520323 174.219561 
L 237.799667 174.720661 
L 241.079004 175.658237 
L 244.358348 176.297695 
L 247.637684 176.780847 
L 250.917028 176.934332 
L 254.196364 176.881311 
L 257.475699 176.85113 
L 260.755035 176.582802 
L 264.034379 176.413352 
L 267.313716 176.348085 
L 270.59306 176.348494 
L 273.872394 176.605173 
L 277.151733 177.054721 
L 280.431067 177.321767 
L 283.710409 177.741591 
L 286.989755 177.931246 
L 290.269093 178.008899 
L 293.548424 178.171791 
L 296.827762 178.140068 
L 300.107108 178.150378 
L 303.386439 178.20425 
L 306.665785 178.127647 
L 309.945123 178.258851 
L 313.224462 178.360828 
L 316.503792 178.147238 
L 319.783138 178.302482 
L 323.062476 178.286629 
L 326.341815 178.287887 
L 329.621153 178.598729 
L 332.900491 178.512477 
L 336.179822 178.53844 
L 339.459168 178.378007 
L 342.738514 178.373638 
L 346.01786 178.406438 
L 349.297191 178.430232 
L 352.576521 178.37925 
L 355.855867 178.674522 
L 359.135213 178.62271 
L 362.414536 178.562083 
L 365.693882 178.421428 
L 368.97322 178.72866 
L 372.252566 178.688448 
L 375.531881 178.460081 
L 378.811227 178.477275 
L 382.090574 178.774632 
L 385.36992 178.435209 
L 388.649266 178.649409 
L 391.928581 178.751961 
L 395.207927 178.651266 
L 398.487273 178.537564 
" clip-path="url(#p1c69120796)" style="fill: none; stroke: #0000ff; stroke-width: 1.5; stroke-linecap: round"/>
   </g>
   <g id="LineCollection_1">
    <path d="M 236.16 295.488 
L 236.16 53.568 
" clip-path="url(#p1c69120796)" style="fill: none; stroke-dasharray: 5.55,2.4; stroke-dashoffset: 0; stroke: #008000; stroke-width: 1.5"/>
   </g>
   <g id="patch_3">
    <path d="M 57.6 307.584 
L 57.6 41.472 
" style="fill: none; stroke: #ffffff; stroke-width: 0.8; stroke-linejoin: miter; stroke-linecap: square"/>
   </g>
   <g id="patch_4">
    <path d="M 414.72 307.584 
L 414.72 41.472 
" style="fill: none; stroke: #ffffff; stroke-width: 0.8; stroke-linejoin: miter; stroke-linecap: square"/>
   </g>
   <g id="patch_5">
    <path d="M 57.6 307.584 
L 414.72 307.584 
" style="fill: none; stroke: #ffffff; stroke-width: 0.8; stroke-linejoin: miter; stroke-linecap: square"/>
   </g>
   <g id="patch_6">
    <path d="M 57.6 41.472 
L 414.72 41.472 
" style="fill: none; stroke: #ffffff; stroke-width: 0.8; stroke-linejoin: miter; stroke-linecap: square"/>
   </g>
   <g id="text_13">
    <!-- $\mu=0, \sigma=1, n=1$ -->
    <g style="fill: #262626" transform="translate(184.98 35.472) scale(0.12 -0.12)">
     <defs>
      <path id="DejaVuSans-Oblique-3bc" d="M -84 -1331 
L 856 3500 
L 1434 3500 
L 1009 1322 
Q 997 1256 987 1175 
Q 978 1094 978 1013 
Q 978 722 1161 565 
Q 1344 409 1684 409 
Q 2147 409 2431 671 
Q 2716 934 2816 1459 
L 3213 3500 
L 3788 3500 
L 3266 809 
Q 3253 750 3248 706 
Q 3244 663 3244 628 
Q 3244 531 3283 486 
Q 3322 441 3406 441 
Q 3438 441 3492 456 
Q 3547 472 3647 513 
L 3559 50 
Q 3422 -19 3297 -55 
Q 3172 -91 3053 -91 
Q 2847 -91 2730 40 
Q 2613 172 2613 403 
Q 2438 153 2195 31 
Q 1953 -91 1625 -91 
Q 1334 -91 1117 43 
Q 900 178 831 397 
L 494 -1331 
L -84 -1331 
z
" transform="scale(0.015625)"/>
      <path id="DejaVuSans-3d" d="M 678 2906 
L 4684 2906 
L 4684 2381 
L 678 2381 
L 678 2906 
z
M 678 1631 
L 4684 1631 
L 4684 1100 
L 678 1100 
L 678 1631 
z
" transform="scale(0.015625)"/>
      <path id="DejaVuSans-30" d="M 2034 4250 
Q 1547 4250 1301 3770 
Q 1056 3291 1056 2328 
Q 1056 1369 1301 889 
Q 1547 409 2034 409 
Q 2525 409 2770 889 
Q 3016 1369 3016 2328 
Q 3016 3291 2770 3770 
Q 2525 4250 2034 4250 
z
M 2034 4750 
Q 2819 4750 3233 4129 
Q 3647 3509 3647 2328 
Q 3647 1150 3233 529 
Q 2819 -91 2034 -91 
Q 1250 -91 836 529 
Q 422 1150 422 2328 
Q 422 3509 836 4129 
Q 1250 4750 2034 4750 
z
" transform="scale(0.015625)"/>
      <path id="DejaVuSans-2c" d="M 750 794 
L 1409 794 
L 1409 256 
L 897 -744 
L 494 -744 
L 750 256 
L 750 794 
z
" transform="scale(0.015625)"/>
      <path id="DejaVuSans-Oblique-3c3" d="M 2219 3044 
Q 1744 3044 1422 2700 
Q 1081 2341 969 1747 
Q 844 1119 1044 756 
Q 1241 397 1706 397 
Q 2166 397 2503 759 
Q 2844 1122 2966 1747 
Q 3075 2319 2881 2700 
Q 2700 3044 2219 3044 
z
M 2309 3503 
L 4219 3500 
L 4106 2925 
L 3463 2925 
Q 3706 2438 3575 1747 
Q 3406 888 2884 400 
Q 2359 -91 1609 -91 
Q 856 -91 525 400 
Q 194 888 363 1747 
Q 528 2609 1050 3097 
Q 1484 3503 2309 3503 
z
" transform="scale(0.015625)"/>
      <path id="DejaVuSans-31" d="M 794 531 
L 1825 531 
L 1825 4091 
L 703 3866 
L 703 4441 
L 1819 4666 
L 2450 4666 
L 2450 531 
L 3481 531 
L 3481 0 
L 794 0 
L 794 531 
z
" transform="scale(0.015625)"/>
     </defs>
     <use xlink:href="#DejaVuSans-Oblique-3bc" transform="translate(0 0.78125)"/>
     <use xlink:href="#DejaVuSans-3d" transform="translate(83.105469 0.78125)"/>
     <use xlink:href="#DejaVuSans-30" transform="translate(186.376953 0.78125)"/>
     <use xlink:href="#DejaVuSans-2c" transform="translate(250 0.78125)"/>
     <use xlink:href="#DejaVuSans-Oblique-3c3" transform="translate(301.269531 0.78125)"/>
     <use xlink:href="#DejaVuSans-3d" transform="translate(384.130859 0.78125)"/>
     <use xlink:href="#DejaVuSans-31" transform="translate(487.402344 0.78125)"/>
     <use xlink:href="#DejaVuSans-2c" transform="translate(551.025391 0.78125)"/>
     <use xlink:href="#DejaVuSans-Oblique-6e" transform="translate(602.294922 0.78125)"/>
     <use xlink:href="#DejaVuSans-3d" transform="translate(685.15625 0.78125)"/>
     <use xlink:href="#DejaVuSans-31" transform="translate(788.427734 0.78125)"/>
    </g>
   </g>
   <g id="legend_1">
    <g id="patch_7">
     <path d="M 302.42 302.584 
L 407.72 302.584 
Q 409.72 302.584 409.72 300.584 
L 409.72 244.393375 
Q 409.72 242.393375 407.72 242.393375 
L 302.42 242.393375 
Q 300.42 242.393375 300.42 244.393375 
L 300.42 300.584 
Q 300.42 302.584 302.42 302.584 
z
" style="fill: #eaeaf2; opacity: 0.8; stroke: #cccccc; stroke-linejoin: miter"/>
    </g>
    <g id="line2d_12">
     <path d="M 304.42 250.305875 
L 314.42 250.305875 
L 324.42 250.305875 
" style="fill: none; stroke: #0000ff; stroke-width: 1.5; stroke-linecap: round"/>
    </g>
    <g id="text_14">
     <!-- $E[x_{next}]$ -->
     <g style="fill: #262626" transform="translate(332.42 253.805875) scale(0.1 -0.1)">
      <defs>
       <path id="DejaVuSans-Oblique-45" d="M 1081 4666 
L 4031 4666 
L 3928 4134 
L 1606 4134 
L 1338 2753 
L 3566 2753 
L 3463 2222 
L 1234 2222 
L 909 531 
L 3284 531 
L 3181 0 
L 172 0 
L 1081 4666 
z
" transform="scale(0.015625)"/>
       <path id="DejaVuSans-5b" d="M 550 4863 
L 1875 4863 
L 1875 4416 
L 1125 4416 
L 1125 -397 
L 1875 -397 
L 1875 -844 
L 550 -844 
L 550 4863 
z
" transform="scale(0.015625)"/>
       <path id="DejaVuSans-5d" d="M 1947 4863 
L 1947 -844 
L 622 -844 
L 622 -397 
L 1369 -397 
L 1369 4416 
L 622 4416 
L 622 4863 
L 1947 4863 
z
" transform="scale(0.015625)"/>
      </defs>
      <use xlink:href="#DejaVuSans-Oblique-45" transform="translate(0 0.015625)"/>
      <use xlink:href="#DejaVuSans-5b" transform="translate(63.183594 0.015625)"/>
      <use xlink:href="#DejaVuSans-Oblique-78" transform="translate(102.197266 0.015625)"/>
      <use xlink:href="#DejaVuSans-Oblique-6e" transform="translate(161.376953 -16.390625) scale(0.7)"/>
      <use xlink:href="#DejaVuSans-Oblique-65" transform="translate(205.742188 -16.390625) scale(0.7)"/>
      <use xlink:href="#DejaVuSans-Oblique-78" transform="translate(248.808594 -16.390625) scale(0.7)"/>
      <use xlink:href="#DejaVuSans-Oblique-74" transform="translate(290.234375 -16.390625) scale(0.7)"/>
      <use xlink:href="#DejaVuSans-5d" transform="translate(320.415039 0.015625)"/>
     </g>
    </g>
    <g id="patch_8">
     <path d="M 304.42 267.951187 
L 324.42 267.951187 
L 324.42 260.951187 
L 304.42 260.951187 
z
" style="fill: #0000ff; fill-opacity: 0.5; stroke: #0000ff; stroke-opacity: 0.5; stroke-linejoin: miter"/>
    </g>
    <g id="text_15">
     <!-- 50% CI -->
     <g style="fill: #262626" transform="translate(332.42 267.951187) scale(0.1 -0.1)">
      <defs>
       <path id="ArialMT-35" d="M 266 1200 
L 856 1250 
Q 922 819 1161 601 
Q 1400 384 1738 384 
Q 2144 384 2425 690 
Q 2706 997 2706 1503 
Q 2706 1984 2436 2262 
Q 2166 2541 1728 2541 
Q 1456 2541 1237 2417 
Q 1019 2294 894 2097 
L 366 2166 
L 809 4519 
L 3088 4519 
L 3088 3981 
L 1259 3981 
L 1013 2750 
Q 1425 3038 1878 3038 
Q 2478 3038 2890 2622 
Q 3303 2206 3303 1553 
Q 3303 931 2941 478 
Q 2500 -78 1738 -78 
Q 1113 -78 717 272 
Q 322 622 266 1200 
z
" transform="scale(0.015625)"/>
       <path id="ArialMT-25" d="M 372 3481 
Q 372 3972 619 4315 
Q 866 4659 1334 4659 
Q 1766 4659 2048 4351 
Q 2331 4044 2331 3447 
Q 2331 2866 2045 2552 
Q 1759 2238 1341 2238 
Q 925 2238 648 2547 
Q 372 2856 372 3481 
z
M 1350 4272 
Q 1141 4272 1002 4090 
Q 863 3909 863 3425 
Q 863 2984 1003 2804 
Q 1144 2625 1350 2625 
Q 1563 2625 1702 2806 
Q 1841 2988 1841 3469 
Q 1841 3913 1700 4092 
Q 1559 4272 1350 4272 
z
M 1353 -169 
L 3859 4659 
L 4316 4659 
L 1819 -169 
L 1353 -169 
z
M 3334 1075 
Q 3334 1569 3581 1911 
Q 3828 2253 4300 2253 
Q 4731 2253 5014 1945 
Q 5297 1638 5297 1041 
Q 5297 459 5011 145 
Q 4725 -169 4303 -169 
Q 3888 -169 3611 142 
Q 3334 453 3334 1075 
z
M 4316 1866 
Q 4103 1866 3964 1684 
Q 3825 1503 3825 1019 
Q 3825 581 3965 400 
Q 4106 219 4313 219 
Q 4528 219 4667 400 
Q 4806 581 4806 1063 
Q 4806 1506 4665 1686 
Q 4525 1866 4316 1866 
z
" transform="scale(0.015625)"/>
       <path id="ArialMT-20" transform="scale(0.015625)"/>
       <path id="ArialMT-43" d="M 3763 1606 
L 4369 1453 
Q 4178 706 3683 314 
Q 3188 -78 2472 -78 
Q 1731 -78 1267 223 
Q 803 525 561 1097 
Q 319 1669 319 2325 
Q 319 3041 592 3573 
Q 866 4106 1370 4382 
Q 1875 4659 2481 4659 
Q 3169 4659 3637 4309 
Q 4106 3959 4291 3325 
L 3694 3184 
Q 3534 3684 3231 3912 
Q 2928 4141 2469 4141 
Q 1941 4141 1586 3887 
Q 1231 3634 1087 3207 
Q 944 2781 944 2328 
Q 944 1744 1114 1308 
Q 1284 872 1643 656 
Q 2003 441 2422 441 
Q 2931 441 3284 734 
Q 3638 1028 3763 1606 
z
" transform="scale(0.015625)"/>
       <path id="ArialMT-49" d="M 597 0 
L 597 4581 
L 1203 4581 
L 1203 0 
L 597 0 
z
" transform="scale(0.015625)"/>
      </defs>
      <use xlink:href="#ArialMT-35"/>
      <use xlink:href="#ArialMT-30" transform="translate(55.615234 0)"/>
      <use xlink:href="#ArialMT-25" transform="translate(111.230469 0)"/>
      <use xlink:href="#ArialMT-20" transform="translate(200.146484 0)"/>
      <use xlink:href="#ArialMT-43" transform="translate(227.929688 0)"/>
      <use xlink:href="#ArialMT-49" transform="translate(300.146484 0)"/>
     </g>
    </g>
    <g id="patch_9">
     <path d="M 304.42 282.0965 
L 324.42 282.0965 
L 324.42 275.0965 
L 304.42 275.0965 
z
" style="fill: #0000ff; fill-opacity: 0.3; stroke: #0000ff; stroke-opacity: 0.3; stroke-linejoin: miter"/>
    </g>
    <g id="text_16">
     <!-- 90% CI -->
     <g style="fill: #262626" transform="translate(332.42 282.0965) scale(0.1 -0.1)">
      <defs>
       <path id="ArialMT-39" d="M 350 1059 
L 891 1109 
Q 959 728 1153 556 
Q 1347 384 1650 384 
Q 1909 384 2104 503 
Q 2300 622 2425 820 
Q 2550 1019 2634 1356 
Q 2719 1694 2719 2044 
Q 2719 2081 2716 2156 
Q 2547 1888 2255 1720 
Q 1963 1553 1622 1553 
Q 1053 1553 659 1965 
Q 266 2378 266 3053 
Q 266 3750 677 4175 
Q 1088 4600 1706 4600 
Q 2153 4600 2523 4359 
Q 2894 4119 3086 3673 
Q 3278 3228 3278 2384 
Q 3278 1506 3087 986 
Q 2897 466 2520 194 
Q 2144 -78 1638 -78 
Q 1100 -78 759 220 
Q 419 519 350 1059 
z
M 2653 3081 
Q 2653 3566 2395 3850 
Q 2138 4134 1775 4134 
Q 1400 4134 1122 3828 
Q 844 3522 844 3034 
Q 844 2597 1108 2323 
Q 1372 2050 1759 2050 
Q 2150 2050 2401 2323 
Q 2653 2597 2653 3081 
z
" transform="scale(0.015625)"/>
      </defs>
      <use xlink:href="#ArialMT-39"/>
      <use xlink:href="#ArialMT-30" transform="translate(55.615234 0)"/>
      <use xlink:href="#ArialMT-25" transform="translate(111.230469 0)"/>
      <use xlink:href="#ArialMT-20" transform="translate(200.146484 0)"/>
      <use xlink:href="#ArialMT-43" transform="translate(227.929688 0)"/>
      <use xlink:href="#ArialMT-49" transform="translate(300.146484 0)"/>
     </g>
    </g>
    <g id="line2d_13">
     <path d="M 304.42 292.884 
L 324.42 292.884 
" style="fill: none; stroke-dasharray: 5.55,2.4; stroke-dashoffset: 0; stroke: #008000; stroke-width: 1.5"/>
    </g>
    <g id="text_17">
     <!-- mode of target $\pi$ -->
     <g style="fill: #262626" transform="translate(332.42 296.384) scale(0.1 -0.1)">
      <defs>
       <path id="ArialMT-6d" d="M 422 0 
L 422 3319 
L 925 3319 
L 925 2853 
Q 1081 3097 1340 3245 
Q 1600 3394 1931 3394 
Q 2300 3394 2536 3241 
Q 2772 3088 2869 2813 
Q 3263 3394 3894 3394 
Q 4388 3394 4653 3120 
Q 4919 2847 4919 2278 
L 4919 0 
L 4359 0 
L 4359 2091 
Q 4359 2428 4304 2576 
Q 4250 2725 4106 2815 
Q 3963 2906 3769 2906 
Q 3419 2906 3187 2673 
Q 2956 2441 2956 1928 
L 2956 0 
L 2394 0 
L 2394 2156 
Q 2394 2531 2256 2718 
Q 2119 2906 1806 2906 
Q 1569 2906 1367 2781 
Q 1166 2656 1075 2415 
Q 984 2175 984 1722 
L 984 0 
L 422 0 
z
" transform="scale(0.015625)"/>
       <path id="ArialMT-6f" d="M 213 1659 
Q 213 2581 725 3025 
Q 1153 3394 1769 3394 
Q 2453 3394 2887 2945 
Q 3322 2497 3322 1706 
Q 3322 1066 3130 698 
Q 2938 331 2570 128 
Q 2203 -75 1769 -75 
Q 1072 -75 642 372 
Q 213 819 213 1659 
z
M 791 1659 
Q 791 1022 1069 705 
Q 1347 388 1769 388 
Q 2188 388 2466 706 
Q 2744 1025 2744 1678 
Q 2744 2294 2464 2611 
Q 2184 2928 1769 2928 
Q 1347 2928 1069 2612 
Q 791 2297 791 1659 
z
" transform="scale(0.015625)"/>
       <path id="ArialMT-64" d="M 2575 0 
L 2575 419 
Q 2259 -75 1647 -75 
Q 1250 -75 917 144 
Q 584 363 401 755 
Q 219 1147 219 1656 
Q 219 2153 384 2558 
Q 550 2963 881 3178 
Q 1213 3394 1622 3394 
Q 1922 3394 2156 3267 
Q 2391 3141 2538 2938 
L 2538 4581 
L 3097 4581 
L 3097 0 
L 2575 0 
z
M 797 1656 
Q 797 1019 1065 703 
Q 1334 388 1700 388 
Q 2069 388 2326 689 
Q 2584 991 2584 1609 
Q 2584 2291 2321 2609 
Q 2059 2928 1675 2928 
Q 1300 2928 1048 2622 
Q 797 2316 797 1656 
z
" transform="scale(0.015625)"/>
       <path id="ArialMT-65" d="M 2694 1069 
L 3275 997 
Q 3138 488 2766 206 
Q 2394 -75 1816 -75 
Q 1088 -75 661 373 
Q 234 822 234 1631 
Q 234 2469 665 2931 
Q 1097 3394 1784 3394 
Q 2450 3394 2872 2941 
Q 3294 2488 3294 1666 
Q 3294 1616 3291 1516 
L 816 1516 
Q 847 969 1125 678 
Q 1403 388 1819 388 
Q 2128 388 2347 550 
Q 2566 713 2694 1069 
z
M 847 1978 
L 2700 1978 
Q 2663 2397 2488 2606 
Q 2219 2931 1791 2931 
Q 1403 2931 1139 2672 
Q 875 2413 847 1978 
z
" transform="scale(0.015625)"/>
       <path id="ArialMT-66" d="M 556 0 
L 556 2881 
L 59 2881 
L 59 3319 
L 556 3319 
L 556 3672 
Q 556 4006 616 4169 
Q 697 4388 901 4523 
Q 1106 4659 1475 4659 
Q 1713 4659 2000 4603 
L 1916 4113 
Q 1741 4144 1584 4144 
Q 1328 4144 1222 4034 
Q 1116 3925 1116 3625 
L 1116 3319 
L 1763 3319 
L 1763 2881 
L 1116 2881 
L 1116 0 
L 556 0 
z
" transform="scale(0.015625)"/>
       <path id="ArialMT-74" d="M 1650 503 
L 1731 6 
Q 1494 -44 1306 -44 
Q 1000 -44 831 53 
Q 663 150 594 308 
Q 525 466 525 972 
L 525 2881 
L 113 2881 
L 113 3319 
L 525 3319 
L 525 4141 
L 1084 4478 
L 1084 3319 
L 1650 3319 
L 1650 2881 
L 1084 2881 
L 1084 941 
Q 1084 700 1114 631 
Q 1144 563 1211 522 
Q 1278 481 1403 481 
Q 1497 481 1650 503 
z
" transform="scale(0.015625)"/>
       <path id="ArialMT-61" d="M 2588 409 
Q 2275 144 1986 34 
Q 1697 -75 1366 -75 
Q 819 -75 525 192 
Q 231 459 231 875 
Q 231 1119 342 1320 
Q 453 1522 633 1644 
Q 813 1766 1038 1828 
Q 1203 1872 1538 1913 
Q 2219 1994 2541 2106 
Q 2544 2222 2544 2253 
Q 2544 2597 2384 2738 
Q 2169 2928 1744 2928 
Q 1347 2928 1158 2789 
Q 969 2650 878 2297 
L 328 2372 
Q 403 2725 575 2942 
Q 747 3159 1072 3276 
Q 1397 3394 1825 3394 
Q 2250 3394 2515 3294 
Q 2781 3194 2906 3042 
Q 3031 2891 3081 2659 
Q 3109 2516 3109 2141 
L 3109 1391 
Q 3109 606 3145 398 
Q 3181 191 3288 0 
L 2700 0 
Q 2613 175 2588 409 
z
M 2541 1666 
Q 2234 1541 1622 1453 
Q 1275 1403 1131 1340 
Q 988 1278 909 1158 
Q 831 1038 831 891 
Q 831 666 1001 516 
Q 1172 366 1500 366 
Q 1825 366 2078 508 
Q 2331 650 2450 897 
Q 2541 1088 2541 1459 
L 2541 1666 
z
" transform="scale(0.015625)"/>
       <path id="ArialMT-72" d="M 416 0 
L 416 3319 
L 922 3319 
L 922 2816 
Q 1116 3169 1280 3281 
Q 1444 3394 1641 3394 
Q 1925 3394 2219 3213 
L 2025 2691 
Q 1819 2813 1613 2813 
Q 1428 2813 1281 2702 
Q 1134 2591 1072 2394 
Q 978 2094 978 1738 
L 978 0 
L 416 0 
z
" transform="scale(0.015625)"/>
       <path id="ArialMT-67" d="M 319 -275 
L 866 -356 
Q 900 -609 1056 -725 
Q 1266 -881 1628 -881 
Q 2019 -881 2231 -725 
Q 2444 -569 2519 -288 
Q 2563 -116 2559 434 
Q 2191 0 1641 0 
Q 956 0 581 494 
Q 206 988 206 1678 
Q 206 2153 378 2554 
Q 550 2956 876 3175 
Q 1203 3394 1644 3394 
Q 2231 3394 2613 2919 
L 2613 3319 
L 3131 3319 
L 3131 450 
Q 3131 -325 2973 -648 
Q 2816 -972 2473 -1159 
Q 2131 -1347 1631 -1347 
Q 1038 -1347 672 -1080 
Q 306 -813 319 -275 
z
M 784 1719 
Q 784 1066 1043 766 
Q 1303 466 1694 466 
Q 2081 466 2343 764 
Q 2606 1063 2606 1700 
Q 2606 2309 2336 2618 
Q 2066 2928 1684 2928 
Q 1309 2928 1046 2623 
Q 784 2319 784 1719 
z
" transform="scale(0.015625)"/>
       <path id="DejaVuSans-Oblique-3c0" d="M 584 3500 
L 3938 3500 
L 3825 2925 
L 3384 2925 
L 2966 775 
Q 2922 550 2981 450 
Q 3038 353 3209 353 
Q 3256 353 3325 363 
Q 3397 369 3419 372 
L 3338 -44 
Q 3222 -84 3103 -103 
Q 2981 -122 2866 -122 
Q 2491 -122 2388 81 
Q 2284 288 2391 838 
L 2797 2925 
L 1506 2925 
L 938 0 
L 350 0 
L 919 2925 
L 472 2925 
L 584 3500 
z
" transform="scale(0.015625)"/>
      </defs>
      <use xlink:href="#ArialMT-6d" transform="translate(0 0.203125)"/>
      <use xlink:href="#ArialMT-6f" transform="translate(83.300781 0.203125)"/>
      <use xlink:href="#ArialMT-64" transform="translate(138.916016 0.203125)"/>
      <use xlink:href="#ArialMT-65" transform="translate(194.53125 0.203125)"/>
      <use xlink:href="#ArialMT-20" transform="translate(250.146484 0.203125)"/>
      <use xlink:href="#ArialMT-6f" transform="translate(277.929688 0.203125)"/>
      <use xlink:href="#ArialMT-66" transform="translate(333.544922 0.203125)"/>
      <use xlink:href="#ArialMT-20" transform="translate(361.328125 0.203125)"/>
      <use xlink:href="#ArialMT-74" transform="translate(389.111328 0.203125)"/>
      <use xlink:href="#ArialMT-61" transform="translate(416.894531 0.203125)"/>
      <use xlink:href="#ArialMT-72" transform="translate(472.509766 0.203125)"/>
      <use xlink:href="#ArialMT-67" transform="translate(505.810547 0.203125)"/>
      <use xlink:href="#ArialMT-65" transform="translate(561.425781 0.203125)"/>
      <use xlink:href="#ArialMT-74" transform="translate(617.041016 0.203125)"/>
      <use xlink:href="#ArialMT-20" transform="translate(644.824219 0.203125)"/>
      <use xlink:href="#DejaVuSans-Oblique-3c0" transform="translate(672.607422 0.203125)"/>
     </g>
    </g>
   </g>
  </g>
 </g>
 <defs>
  <clipPath id="p1c69120796">
   <rect x="57.6" y="41.472" width="357.12" height="266.112"/>
  </clipPath>
 </defs>
</svg>
