<?xml version="1.0" encoding="utf-8" standalone="no"?>
<!DOCTYPE svg PUBLIC "-//W3C//DTD SVG 1.1//EN"
  "http://www.w3.org/Graphics/SVG/1.1/DTD/svg11.dtd">
<svg xmlns:xlink="http://www.w3.org/1999/xlink" width="460.8pt" height="345.6pt" viewBox="0 0 460.8 345.6" xmlns="http://www.w3.org/2000/svg" version="1.1">
 <metadata>
  <rdf:RDF xmlns:dc="http://purl.org/dc/elements/1.1/" xmlns:cc="http://creativecommons.org/ns#" xmlns:rdf="http://www.w3.org/1999/02/22-rdf-syntax-ns#">
   <cc:Work>
    <dc:type rdf:resource="http://purl.org/dc/dcmitype/StillImage"/>
    <dc:date>2025-04-11T13:23:57.072989</dc:date>
    <dc:format>image/svg+xml</dc:format>
    <dc:creator>
     <cc:Agent>
      <dc:title>Matplotlib v3.10.1, https://matplotlib.org/</dc:title>
     </cc:Agent>
    </dc:creator>
   </cc:Work>
  </rdf:RDF>
 </metadata>
 <defs>
  <style type="text/css">*{stroke-linejoin: round; stroke-linecap: butt}</style>
 </defs>
 <g id="figure_1">
  <g id="patch_1">
   <path d="M 0 345.6 
L 460.8 345.6 
L 460.8 0 
L 0 0 
z
" style="fill: #ffffff"/>
  </g>
  <g id="axes_1">
   <g id="patch_2">
    <path d="M 57.6 307.584 
L 414.72 307.584 
L 414.72 41.472 
L 57.6 41.472 
z
" style="fill: #eaeaf2"/>
   </g>
   <g id="matplotlib.axis_1">
    <g id="xtick_1">
     <g id="line2d_1">
      <path d="M 106.298182 307.584 
L 106.298182 41.472 
" clip-path="url(#p5672dd6ba7)" style="fill: none; stroke: #ffffff; stroke-width: 0.8; stroke-linecap: round"/>
     </g>
     <g id="text_1">
      <!-- −4 -->
      <g style="fill: #262626" transform="translate(100.597401 321.741812) scale(0.1 -0.1)">
       <defs>
        <path id="ArialMT-2212" d="M 3381 1997 
L 356 1997 
L 356 2522 
L 3381 2522 
L 3381 1997 
z
" transform="scale(0.015625)"/>
        <path id="ArialMT-34" d="M 2069 0 
L 2069 1097 
L 81 1097 
L 81 1613 
L 2172 4581 
L 2631 4581 
L 2631 1613 
L 3250 1613 
L 3250 1097 
L 2631 1097 
L 2631 0 
L 2069 0 
z
M 2069 1613 
L 2069 3678 
L 634 1613 
L 2069 1613 
z
" transform="scale(0.015625)"/>
       </defs>
       <use xlink:href="#ArialMT-2212"/>
       <use xlink:href="#ArialMT-34" transform="translate(58.398438 0)"/>
      </g>
     </g>
    </g>
    <g id="xtick_2">
     <g id="line2d_2">
      <path d="M 171.229091 307.584 
L 171.229091 41.472 
" clip-path="url(#p5672dd6ba7)" style="fill: none; stroke: #ffffff; stroke-width: 0.8; stroke-linecap: round"/>
     </g>
     <g id="text_2">
      <!-- −2 -->
      <g style="fill: #262626" transform="translate(165.52831 321.741812) scale(0.1 -0.1)">
       <defs>
        <path id="ArialMT-32" d="M 3222 541 
L 3222 0 
L 194 0 
Q 188 203 259 391 
Q 375 700 629 1000 
Q 884 1300 1366 1694 
Q 2113 2306 2375 2664 
Q 2638 3022 2638 3341 
Q 2638 3675 2398 3904 
Q 2159 4134 1775 4134 
Q 1369 4134 1125 3890 
Q 881 3647 878 3216 
L 300 3275 
Q 359 3922 746 4261 
Q 1134 4600 1788 4600 
Q 2447 4600 2831 4234 
Q 3216 3869 3216 3328 
Q 3216 3053 3103 2787 
Q 2991 2522 2730 2228 
Q 2469 1934 1863 1422 
Q 1356 997 1212 845 
Q 1069 694 975 541 
L 3222 541 
z
" transform="scale(0.015625)"/>
       </defs>
       <use xlink:href="#ArialMT-2212"/>
       <use xlink:href="#ArialMT-32" transform="translate(58.398438 0)"/>
      </g>
     </g>
    </g>
    <g id="xtick_3">
     <g id="line2d_3">
      <path d="M 236.16 307.584 
L 236.16 41.472 
" clip-path="url(#p5672dd6ba7)" style="fill: none; stroke: #ffffff; stroke-width: 0.8; stroke-linecap: round"/>
     </g>
     <g id="text_3">
      <!-- 0 -->
      <g style="fill: #262626" transform="translate(233.379531 321.741812) scale(0.1 -0.1)">
       <defs>
        <path id="ArialMT-30" d="M 266 2259 
Q 266 3072 433 3567 
Q 600 4063 929 4331 
Q 1259 4600 1759 4600 
Q 2128 4600 2406 4451 
Q 2684 4303 2865 4023 
Q 3047 3744 3150 3342 
Q 3253 2941 3253 2259 
Q 3253 1453 3087 958 
Q 2922 463 2592 192 
Q 2263 -78 1759 -78 
Q 1097 -78 719 397 
Q 266 969 266 2259 
z
M 844 2259 
Q 844 1131 1108 757 
Q 1372 384 1759 384 
Q 2147 384 2411 759 
Q 2675 1134 2675 2259 
Q 2675 3391 2411 3762 
Q 2147 4134 1753 4134 
Q 1366 4134 1134 3806 
Q 844 3388 844 2259 
z
" transform="scale(0.015625)"/>
       </defs>
       <use xlink:href="#ArialMT-30"/>
      </g>
     </g>
    </g>
    <g id="xtick_4">
     <g id="line2d_4">
      <path d="M 301.090909 307.584 
L 301.090909 41.472 
" clip-path="url(#p5672dd6ba7)" style="fill: none; stroke: #ffffff; stroke-width: 0.8; stroke-linecap: round"/>
     </g>
     <g id="text_4">
      <!-- 2 -->
      <g style="fill: #262626" transform="translate(298.31044 321.741812) scale(0.1 -0.1)">
       <use xlink:href="#ArialMT-32"/>
      </g>
     </g>
    </g>
    <g id="xtick_5">
     <g id="line2d_5">
      <path d="M 366.021818 307.584 
L 366.021818 41.472 
" clip-path="url(#p5672dd6ba7)" style="fill: none; stroke: #ffffff; stroke-width: 0.8; stroke-linecap: round"/>
     </g>
     <g id="text_5">
      <!-- 4 -->
      <g style="fill: #262626" transform="translate(363.241349 321.741812) scale(0.1 -0.1)">
       <use xlink:href="#ArialMT-34"/>
      </g>
     </g>
    </g>
    <g id="text_6">
     <!-- $x$ -->
     <g style="fill: #262626" transform="translate(233.16 334.887125) scale(0.1 -0.1)">
      <defs>
       <path id="DejaVuSans-Oblique-78" d="M 3841 3500 
L 2234 1784 
L 3219 0 
L 2559 0 
L 1819 1388 
L 531 0 
L -166 0 
L 1556 1844 
L 641 3500 
L 1300 3500 
L 1972 2234 
L 3144 3500 
L 3841 3500 
z
" transform="scale(0.015625)"/>
      </defs>
      <use xlink:href="#DejaVuSans-Oblique-78" transform="translate(0 0.3125)"/>
     </g>
    </g>
   </g>
   <g id="matplotlib.axis_2">
    <g id="ytick_1">
     <g id="line2d_6">
      <path d="M 57.6 271.296 
L 414.72 271.296 
" clip-path="url(#p5672dd6ba7)" style="fill: none; stroke: #ffffff; stroke-width: 0.8; stroke-linecap: round"/>
     </g>
     <g id="text_7">
      <!-- −4 -->
      <g style="fill: #262626" transform="translate(39.198437 274.874906) scale(0.1 -0.1)">
       <use xlink:href="#ArialMT-2212"/>
       <use xlink:href="#ArialMT-34" transform="translate(58.398438 0)"/>
      </g>
     </g>
    </g>
    <g id="ytick_2">
     <g id="line2d_7">
      <path d="M 57.6 222.912 
L 414.72 222.912 
" clip-path="url(#p5672dd6ba7)" style="fill: none; stroke: #ffffff; stroke-width: 0.8; stroke-linecap: round"/>
     </g>
     <g id="text_8">
      <!-- −2 -->
      <g style="fill: #262626" transform="translate(39.198437 226.490906) scale(0.1 -0.1)">
       <use xlink:href="#ArialMT-2212"/>
       <use xlink:href="#ArialMT-32" transform="translate(58.398438 0)"/>
      </g>
     </g>
    </g>
    <g id="ytick_3">
     <g id="line2d_8">
      <path d="M 57.6 174.528 
L 414.72 174.528 
" clip-path="url(#p5672dd6ba7)" style="fill: none; stroke: #ffffff; stroke-width: 0.8; stroke-linecap: round"/>
     </g>
     <g id="text_9">
      <!-- 0 -->
      <g style="fill: #262626" transform="translate(45.039062 178.106906) scale(0.1 -0.1)">
       <use xlink:href="#ArialMT-30"/>
      </g>
     </g>
    </g>
    <g id="ytick_4">
     <g id="line2d_9">
      <path d="M 57.6 126.144 
L 414.72 126.144 
" clip-path="url(#p5672dd6ba7)" style="fill: none; stroke: #ffffff; stroke-width: 0.8; stroke-linecap: round"/>
     </g>
     <g id="text_10">
      <!-- 2 -->
      <g style="fill: #262626" transform="translate(45.039062 129.722906) scale(0.1 -0.1)">
       <use xlink:href="#ArialMT-32"/>
      </g>
     </g>
    </g>
    <g id="ytick_5">
     <g id="line2d_10">
      <path d="M 57.6 77.76 
L 414.72 77.76 
" clip-path="url(#p5672dd6ba7)" style="fill: none; stroke: #ffffff; stroke-width: 0.8; stroke-linecap: round"/>
     </g>
     <g id="text_11">
      <!-- 4 -->
      <g style="fill: #262626" transform="translate(45.039062 81.338906) scale(0.1 -0.1)">
       <use xlink:href="#ArialMT-34"/>
      </g>
     </g>
    </g>
    <g id="text_12">
     <!-- $x_{next}$ -->
     <g style="fill: #262626" transform="translate(33.210938 185.478) rotate(-90) scale(0.1 -0.1)">
      <defs>
       <path id="DejaVuSans-Oblique-6e" d="M 3566 2113 
L 3156 0 
L 2578 0 
L 2988 2091 
Q 3016 2238 3031 2350 
Q 3047 2463 3047 2528 
Q 3047 2791 2881 2937 
Q 2716 3084 2419 3084 
Q 1956 3084 1622 2776 
Q 1288 2469 1184 1941 
L 800 0 
L 225 0 
L 903 3500 
L 1478 3500 
L 1363 2950 
Q 1603 3253 1940 3418 
Q 2278 3584 2650 3584 
Q 3113 3584 3367 3334 
Q 3622 3084 3622 2631 
Q 3622 2519 3608 2391 
Q 3594 2263 3566 2113 
z
" transform="scale(0.015625)"/>
       <path id="DejaVuSans-Oblique-65" d="M 3078 2063 
Q 3088 2113 3092 2166 
Q 3097 2219 3097 2272 
Q 3097 2653 2873 2875 
Q 2650 3097 2266 3097 
Q 1838 3097 1509 2826 
Q 1181 2556 1013 2059 
L 3078 2063 
z
M 3578 1613 
L 903 1613 
Q 884 1494 878 1425 
Q 872 1356 872 1306 
Q 872 872 1139 634 
Q 1406 397 1894 397 
Q 2269 397 2603 481 
Q 2938 566 3225 728 
L 3116 159 
Q 2806 34 2476 -28 
Q 2147 -91 1806 -91 
Q 1078 -91 686 257 
Q 294 606 294 1247 
Q 294 1794 489 2264 
Q 684 2734 1063 3103 
Q 1306 3334 1642 3459 
Q 1978 3584 2356 3584 
Q 2950 3584 3301 3228 
Q 3653 2872 3653 2272 
Q 3653 2128 3634 1964 
Q 3616 1800 3578 1613 
z
" transform="scale(0.015625)"/>
       <path id="DejaVuSans-Oblique-74" d="M 2706 3500 
L 2619 3053 
L 1472 3053 
L 1100 1153 
Q 1081 1047 1072 975 
Q 1063 903 1063 863 
Q 1063 663 1183 572 
Q 1303 481 1569 481 
L 2150 481 
L 2053 0 
L 1503 0 
Q 991 0 739 200 
Q 488 400 488 806 
Q 488 878 497 964 
Q 506 1050 525 1153 
L 897 3053 
L 409 3053 
L 500 3500 
L 978 3500 
L 1172 4494 
L 1747 4494 
L 1556 3500 
L 2706 3500 
z
" transform="scale(0.015625)"/>
      </defs>
      <use xlink:href="#DejaVuSans-Oblique-78" transform="translate(0 0.3125)"/>
      <use xlink:href="#DejaVuSans-Oblique-6e" transform="translate(59.179688 -16.09375) scale(0.7)"/>
      <use xlink:href="#DejaVuSans-Oblique-65" transform="translate(103.544922 -16.09375) scale(0.7)"/>
      <use xlink:href="#DejaVuSans-Oblique-78" transform="translate(146.611328 -16.09375) scale(0.7)"/>
      <use xlink:href="#DejaVuSans-Oblique-74" transform="translate(188.037109 -16.09375) scale(0.7)"/>
     </g>
    </g>
   </g>
   <g id="FillBetweenPolyCollection_1">
    <defs>
     <path id="m545b35049f" d="M 73.832727 -219.781674 
L 73.832727 -175.677444 
L 77.112073 -175.661992 
L 80.391404 -176.116368 
L 83.670734 -175.894557 
L 86.95008 -175.794642 
L 90.229426 -176.249631 
L 93.508757 -176.144641 
L 96.788103 -175.958436 
L 100.067434 -176.180743 
L 103.34678 -176.136561 
L 106.62611 -176.280207 
L 109.905456 -176.065211 
L 113.184795 -176.319109 
L 116.464133 -176.246657 
L 119.743479 -176.277722 
L 123.022809 -176.438996 
L 126.302148 -176.570112 
L 129.581486 -176.379623 
L 132.860824 -176.531542 
L 136.140163 -176.796696 
L 139.419493 -176.330663 
L 142.698847 -176.332095 
L 145.978178 -176.044938 
L 149.257516 -175.316009 
L 152.536862 -173.580906 
L 155.816192 -170.785791 
L 159.095538 -168.188984 
L 162.374869 -165.714178 
L 165.654215 -162.979054 
L 168.933553 -160.722555 
L 172.212892 -158.697504 
L 175.492234 -156.857666 
L 178.771564 -155.259982 
L 182.050914 -153.929992 
L 185.330245 -152.648258 
L 188.609583 -151.866549 
L 191.888925 -151.074199 
L 195.168256 -150.510975 
L 198.447606 -150.1019 
L 201.726936 -149.885559 
L 205.006277 -149.648281 
L 208.285621 -149.666566 
L 211.564957 -149.692785 
L 214.844301 -149.754028 
L 218.123628 -150.07619 
L 221.402982 -150.315292 
L 224.682308 -150.691363 
L 227.961652 -151.444084 
L 231.240996 -152.226725 
L 234.520323 -153.230075 
L 237.799667 -154.573032 
L 241.079004 -156.16853 
L 244.358348 -157.682967 
L 247.637684 -159.448422 
L 250.917028 -161.322764 
L 254.196364 -163.258387 
L 257.475699 -165.094062 
L 260.755035 -166.489711 
L 264.034379 -167.600713 
L 267.313716 -168.235388 
L 270.59306 -168.714899 
L 273.872394 -169.049044 
L 277.151733 -168.446387 
L 280.431067 -168.697644 
L 283.710409 -167.935993 
L 286.989755 -167.814087 
L 290.269093 -167.711032 
L 293.548424 -167.635537 
L 296.827762 -167.289856 
L 300.107108 -167.541887 
L 303.386439 -167.310616 
L 306.665785 -167.209766 
L 309.945123 -167.217377 
L 313.224462 -167.1826 
L 316.503792 -167.266908 
L 319.783138 -166.795977 
L 323.062476 -166.774559 
L 326.341815 -166.716071 
L 329.621153 -166.134552 
L 332.900491 -165.944505 
L 336.179822 -166.151579 
L 339.459168 -166.049362 
L 342.738514 -166.011123 
L 346.01786 -166.040125 
L 349.297191 -165.804061 
L 352.576521 -165.859606 
L 355.855867 -165.357668 
L 359.135213 -165.363738 
L 362.414536 -165.41312 
L 365.693882 -165.324509 
L 368.97322 -164.860824 
L 372.252566 -165.245087 
L 375.531881 -165.97643 
L 378.811227 -166.134428 
L 382.090574 -165.521158 
L 385.36992 -166.214527 
L 388.649266 -166.266849 
L 391.928581 -165.930854 
L 395.207927 -166.631822 
L 398.487273 -167.028885 
L 398.487273 -212.053793 
L 398.487273 -212.053793 
L 395.207927 -211.680751 
L 391.928581 -211.799666 
L 388.649266 -211.385461 
L 385.36992 -211.495102 
L 382.090574 -210.935756 
L 378.811227 -210.942625 
L 375.531881 -210.659327 
L 372.252566 -210.177042 
L 368.97322 -210.121651 
L 365.693882 -210.111814 
L 362.414536 -209.755244 
L 359.135213 -209.483107 
L 355.855867 -209.15708 
L 352.576521 -208.953 
L 349.297191 -208.836113 
L 346.01786 -208.488526 
L 342.738514 -208.169101 
L 339.459168 -208.047819 
L 336.179822 -207.365952 
L 332.900491 -206.91967 
L 329.621153 -206.576724 
L 326.341815 -206.570192 
L 323.062476 -206.095754 
L 319.783138 -205.594715 
L 316.503792 -205.29159 
L 313.224462 -204.527267 
L 309.945123 -203.894398 
L 306.665785 -203.714684 
L 303.386439 -203.040983 
L 300.107108 -202.395733 
L 296.827762 -201.759165 
L 293.548424 -201.144168 
L 290.269093 -200.373616 
L 286.989755 -199.888398 
L 283.710409 -198.859588 
L 280.431067 -198.315322 
L 277.151733 -198.313938 
L 273.872394 -198.184107 
L 270.59306 -197.419856 
L 267.313716 -196.800138 
L 264.034379 -195.736151 
L 260.755035 -194.489955 
L 257.475699 -193.021716 
L 254.196364 -191.275617 
L 250.917028 -189.598923 
L 247.637684 -187.580732 
L 244.358348 -185.620285 
L 241.079004 -184.054138 
L 237.799667 -181.985981 
L 234.520323 -180.555166 
L 231.240996 -178.849709 
L 227.961652 -177.584092 
L 224.682308 -176.323805 
L 221.402982 -175.403808 
L 218.123628 -174.86375 
L 214.844301 -174.142769 
L 211.564957 -174.017771 
L 208.285621 -173.83903 
L 205.006277 -173.952134 
L 201.726936 -174.400112 
L 198.447606 -174.872447 
L 195.168256 -175.891253 
L 191.888925 -176.746752 
L 188.609583 -178.160926 
L 185.330245 -179.364498 
L 182.050914 -181.14052 
L 178.771564 -182.884083 
L 175.492234 -184.84618 
L 172.212892 -187.062529 
L 168.933553 -189.542046 
L 165.654215 -191.851798 
L 162.374869 -194.637828 
L 159.095538 -197.326389 
L 155.816192 -200.07114 
L 152.536862 -203.001346 
L 149.257516 -205.677365 
L 145.978178 -207.856379 
L 142.698847 -209.580744 
L 139.419493 -210.764267 
L 136.140163 -211.882991 
L 132.860824 -212.800824 
L 129.581486 -213.878274 
L 126.302148 -214.485066 
L 123.022809 -215.083126 
L 119.743479 -215.755351 
L 116.464133 -216.249673 
L 113.184795 -216.977238 
L 109.905456 -217.332184 
L 106.62611 -217.873731 
L 103.34678 -218.194572 
L 100.067434 -218.650887 
L 96.788103 -218.703149 
L 93.508757 -219.183684 
L 90.229426 -219.329114 
L 86.95008 -219.019243 
L 83.670734 -219.410273 
L 80.391404 -219.402483 
L 77.112073 -219.136128 
L 73.832727 -219.781674 
z
" style="stroke: #0000ff; stroke-opacity: 0.5"/>
    </defs>
    <g clip-path="url(#p5672dd6ba7)">
     <use xlink:href="#m545b35049f" x="0" y="345.6" style="fill: #0000ff; fill-opacity: 0.5; stroke: #0000ff; stroke-opacity: 0.5"/>
    </g>
   </g>
   <g id="FillBetweenPolyCollection_2">
    <defs>
     <path id="m4ebe29f07d" d="M 73.832727 -262.862098 
L 73.832727 -118.963475 
L 77.112073 -118.294448 
L 80.391404 -120.403198 
L 83.670734 -120.429407 
L 86.95008 -120.636351 
L 90.229426 -121.492607 
L 93.508757 -123.328197 
L 96.788103 -122.505281 
L 100.067434 -124.764107 
L 103.34678 -125.076152 
L 106.62611 -124.850449 
L 109.905456 -125.678154 
L 113.184795 -126.477612 
L 116.464133 -127.033518 
L 119.743479 -128.188484 
L 123.022809 -128.293354 
L 126.302148 -129.544092 
L 129.581486 -129.827756 
L 132.860824 -130.185001 
L 136.140163 -131.461432 
L 139.419493 -131.292273 
L 142.698847 -132.68806 
L 145.978178 -132.940815 
L 149.257516 -133.531465 
L 152.536862 -133.215784 
L 155.816192 -132.075846 
L 159.095538 -130.607206 
L 162.374869 -130.564255 
L 165.654215 -129.508433 
L 168.933553 -129.941708 
L 172.212892 -129.390308 
L 175.492234 -129.634699 
L 178.771564 -130.392628 
L 182.050914 -131.190335 
L 185.330245 -131.834468 
L 188.609583 -132.70729 
L 191.888925 -133.143677 
L 195.168256 -133.57261 
L 198.447606 -134.040704 
L 201.726936 -134.232804 
L 205.006277 -134.52589 
L 208.285621 -134.352195 
L 211.564957 -134.502501 
L 214.844301 -134.515522 
L 218.123628 -134.271189 
L 221.402982 -133.600746 
L 224.682308 -133.310699 
L 227.961652 -132.804123 
L 231.240996 -131.964415 
L 234.520323 -131.342306 
L 237.799667 -130.686202 
L 241.079004 -130.021962 
L 244.358348 -129.839745 
L 247.637684 -129.468182 
L 250.917028 -129.70581 
L 254.196364 -129.583584 
L 257.475699 -129.8408 
L 260.755035 -130.494831 
L 264.034379 -130.143144 
L 267.313716 -130.151135 
L 270.59306 -130.591105 
L 273.872394 -130.034037 
L 277.151733 -129.23156 
L 280.431067 -128.720756 
L 283.710409 -127.398629 
L 286.989755 -126.777761 
L 290.269093 -126.410659 
L 293.548424 -125.753024 
L 296.827762 -124.983599 
L 300.107108 -125.164319 
L 303.386439 -124.368588 
L 306.665785 -124.137209 
L 309.945123 -123.535827 
L 313.224462 -122.795498 
L 316.503792 -121.956415 
L 319.783138 -121.166656 
L 323.062476 -120.411729 
L 326.341815 -120.408839 
L 329.621153 -119.421653 
L 332.900491 -118.199227 
L 336.179822 -117.908794 
L 339.459168 -116.712709 
L 342.738514 -116.990678 
L 346.01786 -116.234736 
L 349.297191 -115.185349 
L 352.576521 -113.422438 
L 355.855867 -112.703404 
L 359.135213 -113.375868 
L 362.414536 -112.042821 
L 365.693882 -110.552335 
L 368.97322 -109.329608 
L 372.252566 -109.36673 
L 375.531881 -108.861746 
L 378.811227 -107.398547 
L 382.090574 -106.301011 
L 385.36992 -106.012216 
L 388.649266 -105.482315 
L 391.928581 -103.370681 
L 395.207927 -104.16296 
L 398.487273 -102.903233 
L 398.487273 -255.918898 
L 398.487273 -255.918898 
L 395.207927 -254.749593 
L 391.928581 -254.303602 
L 388.649266 -253.126672 
L 385.36992 -252.360843 
L 382.090574 -250.91883 
L 378.811227 -250.018392 
L 375.531881 -249.161231 
L 372.252566 -247.900085 
L 368.97322 -247.229252 
L 365.693882 -246.756083 
L 362.414536 -245.269658 
L 359.135213 -243.971696 
L 355.855867 -242.616454 
L 352.576521 -241.734363 
L 349.297191 -240.839307 
L 346.01786 -239.549028 
L 342.738514 -238.217688 
L 339.459168 -237.705222 
L 336.179822 -235.833564 
L 332.900491 -235.125598 
L 329.621153 -233.583242 
L 326.341815 -232.949641 
L 323.062476 -231.342022 
L 319.783138 -230.123085 
L 316.503792 -228.609834 
L 313.224462 -227.499615 
L 309.945123 -226.060664 
L 306.665785 -225.031736 
L 303.386439 -223.963034 
L 300.107108 -222.757842 
L 296.827762 -221.895835 
L 293.548424 -220.974102 
L 290.269093 -220.061362 
L 286.989755 -219.39286 
L 283.710409 -218.246623 
L 280.431067 -217.730314 
L 277.151733 -216.68192 
L 273.872394 -216.058211 
L 270.59306 -214.67006 
L 267.313716 -213.571913 
L 264.034379 -212.675325 
L 260.755035 -212.39207 
L 257.475699 -212.383721 
L 254.196364 -211.494574 
L 250.917028 -210.631982 
L 247.637684 -209.447141 
L 244.358348 -208.437994 
L 241.079004 -206.940051 
L 237.799667 -205.600252 
L 234.520323 -204.350993 
L 231.240996 -203.321082 
L 227.961652 -202.442831 
L 224.682308 -201.37356 
L 221.402982 -200.701113 
L 218.123628 -200.771892 
L 214.844301 -200.030797 
L 211.564957 -200.014263 
L 208.285621 -200.040709 
L 205.006277 -199.949323 
L 201.726936 -200.329936 
L 198.447606 -200.596063 
L 195.168256 -201.569559 
L 191.888925 -202.366897 
L 188.609583 -203.290654 
L 185.330245 -204.308447 
L 182.050914 -205.373403 
L 178.771564 -206.858485 
L 175.492234 -208.512567 
L 172.212892 -210.115395 
L 168.933553 -211.826873 
L 165.654215 -213.52558 
L 162.374869 -215.375179 
L 159.095538 -217.332605 
L 155.816192 -219.132059 
L 152.536862 -221.116435 
L 149.257516 -223.246682 
L 145.978178 -225.412793 
L 142.698847 -227.636347 
L 139.419493 -229.641911 
L 136.140163 -231.821046 
L 132.860824 -234.364534 
L 129.581486 -236.408166 
L 126.302148 -238.434477 
L 123.022809 -240.316085 
L 119.743479 -242.333456 
L 116.464133 -244.002496 
L 113.184795 -245.519082 
L 109.905456 -247.04102 
L 106.62611 -248.871888 
L 103.34678 -250.118314 
L 100.067434 -251.960297 
L 96.788103 -253.194997 
L 93.508757 -255.519747 
L 90.229426 -256.997181 
L 86.95008 -258.183235 
L 83.670734 -259.542561 
L 80.391404 -260.648114 
L 77.112073 -261.749641 
L 73.832727 -262.862098 
z
" style="stroke: #0000ff; stroke-opacity: 0.3"/>
    </defs>
    <g clip-path="url(#p5672dd6ba7)">
     <use xlink:href="#m4ebe29f07d" x="0" y="345.6" style="fill: #0000ff; fill-opacity: 0.3; stroke: #0000ff; stroke-opacity: 0.3"/>
    </g>
   </g>
   <g id="line2d_11">
    <path d="M 73.832727 150.188084 
L 77.112073 150.411058 
L 80.391404 150.236768 
L 83.670734 150.375683 
L 86.95008 150.713381 
L 90.229426 150.597832 
L 93.508757 150.69825 
L 96.788103 151.188122 
L 100.067434 151.11529 
L 103.34678 151.403259 
L 106.62611 151.486633 
L 109.905456 151.827118 
L 113.184795 151.904001 
L 116.464133 152.252627 
L 119.743479 152.38156 
L 123.022809 152.690974 
L 126.302148 152.865455 
L 129.581486 153.232791 
L 132.860824 153.736092 
L 136.140163 154.052671 
L 139.419493 154.83846 
L 142.698847 155.268078 
L 145.978178 156.288137 
L 149.257516 157.60449 
L 152.536862 159.514866 
L 155.816192 161.964652 
L 159.095538 164.363015 
L 162.374869 166.62737 
L 165.654215 169.044031 
L 168.933553 170.957316 
L 172.212892 172.872174 
L 175.492234 174.687481 
L 178.771564 176.247476 
L 182.050914 177.598136 
L 185.330245 178.900873 
L 188.609583 179.743 
L 191.888925 180.702902 
L 195.168256 181.398499 
L 198.447606 182.075371 
L 201.726936 182.459236 
L 205.006277 182.701847 
L 208.285621 182.820411 
L 211.564957 182.711688 
L 214.844301 182.559261 
L 218.123628 182.063978 
L 221.402982 181.754789 
L 224.682308 181.125012 
L 227.961652 180.224974 
L 231.240996 179.345064 
L 234.520323 178.163957 
L 237.799667 176.955889 
L 241.079004 175.478271 
L 244.358348 174.047417 
L 247.637684 172.508984 
L 250.917028 170.900003 
L 254.196364 169.345249 
L 257.475699 167.856284 
L 260.755035 166.605073 
L 264.034379 165.648991 
L 267.313716 164.993769 
L 270.59306 164.492195 
L 273.872394 163.926326 
L 277.151733 164.154355 
L 280.431067 163.87485 
L 283.710409 164.11802 
L 286.989755 163.907846 
L 290.269093 163.860437 
L 293.548424 163.656543 
L 296.827762 163.518526 
L 300.107108 163.148076 
L 303.386439 162.853062 
L 306.665785 162.633791 
L 309.945123 162.484827 
L 313.224462 162.179998 
L 316.503792 161.792911 
L 319.783138 161.72753 
L 323.062476 161.45562 
L 326.341815 161.079522 
L 329.621153 161.294252 
L 332.900491 161.13611 
L 336.179822 160.741523 
L 339.459168 160.53134 
L 342.738514 160.276954 
L 346.01786 160.003718 
L 349.297191 159.966862 
L 352.576521 159.816281 
L 355.855867 159.945327 
L 359.135213 159.48762 
L 362.414536 159.381614 
L 365.693882 159.187681 
L 368.97322 159.380734 
L 372.252566 159.201731 
L 375.531881 158.847864 
L 378.811227 158.738966 
L 382.090574 159.000741 
L 385.36992 158.577943 
L 388.649266 158.594176 
L 391.928581 158.651494 
L 395.207927 158.4239 
L 398.487273 158.136772 
" clip-path="url(#p5672dd6ba7)" style="fill: none; stroke: #0000ff; stroke-width: 1.5; stroke-linecap: round"/>
   </g>
   <g id="LineCollection_1">
    <path d="M 236.16 295.488 
L 236.16 53.568 
" clip-path="url(#p5672dd6ba7)" style="fill: none; stroke-dasharray: 5.55,2.4; stroke-dashoffset: 0; stroke: #008000; stroke-width: 1.5"/>
   </g>
   <g id="patch_3">
    <path d="M 57.6 307.584 
L 57.6 41.472 
" style="fill: none; stroke: #ffffff; stroke-width: 0.8; stroke-linejoin: miter; stroke-linecap: square"/>
   </g>
   <g id="patch_4">
    <path d="M 414.72 307.584 
L 414.72 41.472 
" style="fill: none; stroke: #ffffff; stroke-width: 0.8; stroke-linejoin: miter; stroke-linecap: square"/>
   </g>
   <g id="patch_5">
    <path d="M 57.6 307.584 
L 414.72 307.584 
" style="fill: none; stroke: #ffffff; stroke-width: 0.8; stroke-linejoin: miter; stroke-linecap: square"/>
   </g>
   <g id="patch_6">
    <path d="M 57.6 41.472 
L 414.72 41.472 
" style="fill: none; stroke: #ffffff; stroke-width: 0.8; stroke-linejoin: miter; stroke-linecap: square"/>
   </g>
   <g id="text_13">
    <!-- $\mu=1, \sigma=1, n=1$ -->
    <g style="fill: #262626" transform="translate(184.98 35.472) scale(0.12 -0.12)">
     <defs>
      <path id="DejaVuSans-Oblique-3bc" d="M -84 -1331 
L 856 3500 
L 1434 3500 
L 1009 1322 
Q 997 1256 987 1175 
Q 978 1094 978 1013 
Q 978 722 1161 565 
Q 1344 409 1684 409 
Q 2147 409 2431 671 
Q 2716 934 2816 1459 
L 3213 3500 
L 3788 3500 
L 3266 809 
Q 3253 750 3248 706 
Q 3244 663 3244 628 
Q 3244 531 3283 486 
Q 3322 441 3406 441 
Q 3438 441 3492 456 
Q 3547 472 3647 513 
L 3559 50 
Q 3422 -19 3297 -55 
Q 3172 -91 3053 -91 
Q 2847 -91 2730 40 
Q 2613 172 2613 403 
Q 2438 153 2195 31 
Q 1953 -91 1625 -91 
Q 1334 -91 1117 43 
Q 900 178 831 397 
L 494 -1331 
L -84 -1331 
z
" transform="scale(0.015625)"/>
      <path id="DejaVuSans-3d" d="M 678 2906 
L 4684 2906 
L 4684 2381 
L 678 2381 
L 678 2906 
z
M 678 1631 
L 4684 1631 
L 4684 1100 
L 678 1100 
L 678 1631 
z
" transform="scale(0.015625)"/>
      <path id="DejaVuSans-31" d="M 794 531 
L 1825 531 
L 1825 4091 
L 703 3866 
L 703 4441 
L 1819 4666 
L 2450 4666 
L 2450 531 
L 3481 531 
L 3481 0 
L 794 0 
L 794 531 
z
" transform="scale(0.015625)"/>
      <path id="DejaVuSans-2c" d="M 750 794 
L 1409 794 
L 1409 256 
L 897 -744 
L 494 -744 
L 750 256 
L 750 794 
z
" transform="scale(0.015625)"/>
      <path id="DejaVuSans-Oblique-3c3" d="M 2219 3044 
Q 1744 3044 1422 2700 
Q 1081 2341 969 1747 
Q 844 1119 1044 756 
Q 1241 397 1706 397 
Q 2166 397 2503 759 
Q 2844 1122 2966 1747 
Q 3075 2319 2881 2700 
Q 2700 3044 2219 3044 
z
M 2309 3503 
L 4219 3500 
L 4106 2925 
L 3463 2925 
Q 3706 2438 3575 1747 
Q 3406 888 2884 400 
Q 2359 -91 1609 -91 
Q 856 -91 525 400 
Q 194 888 363 1747 
Q 528 2609 1050 3097 
Q 1484 3503 2309 3503 
z
" transform="scale(0.015625)"/>
     </defs>
     <use xlink:href="#DejaVuSans-Oblique-3bc" transform="translate(0 0.09375)"/>
     <use xlink:href="#DejaVuSans-3d" transform="translate(83.105469 0.09375)"/>
     <use xlink:href="#DejaVuSans-31" transform="translate(186.376953 0.09375)"/>
     <use xlink:href="#DejaVuSans-2c" transform="translate(250 0.09375)"/>
     <use xlink:href="#DejaVuSans-Oblique-3c3" transform="translate(301.269531 0.09375)"/>
     <use xlink:href="#DejaVuSans-3d" transform="translate(384.130859 0.09375)"/>
     <use xlink:href="#DejaVuSans-31" transform="translate(487.402344 0.09375)"/>
     <use xlink:href="#DejaVuSans-2c" transform="translate(551.025391 0.09375)"/>
     <use xlink:href="#DejaVuSans-Oblique-6e" transform="translate(602.294922 0.09375)"/>
     <use xlink:href="#DejaVuSans-3d" transform="translate(685.15625 0.09375)"/>
     <use xlink:href="#DejaVuSans-31" transform="translate(788.427734 0.09375)"/>
    </g>
   </g>
   <g id="legend_1">
    <g id="patch_7">
     <path d="M 302.42 302.584 
L 407.72 302.584 
Q 409.72 302.584 409.72 300.584 
L 409.72 244.393375 
Q 409.72 242.393375 407.72 242.393375 
L 302.42 242.393375 
Q 300.42 242.393375 300.42 244.393375 
L 300.42 300.584 
Q 300.42 302.584 302.42 302.584 
z
" style="fill: #eaeaf2; opacity: 0.8; stroke: #cccccc; stroke-linejoin: miter"/>
    </g>
    <g id="line2d_12">
     <path d="M 304.42 250.305875 
L 314.42 250.305875 
L 324.42 250.305875 
" style="fill: none; stroke: #0000ff; stroke-width: 1.5; stroke-linecap: round"/>
    </g>
    <g id="text_14">
     <!-- $E[x_{next}]$ -->
     <g style="fill: #262626" transform="translate(332.42 253.805875) scale(0.1 -0.1)">
      <defs>
       <path id="DejaVuSans-Oblique-45" d="M 1081 4666 
L 4031 4666 
L 3928 4134 
L 1606 4134 
L 1338 2753 
L 3566 2753 
L 3463 2222 
L 1234 2222 
L 909 531 
L 3284 531 
L 3181 0 
L 172 0 
L 1081 4666 
z
" transform="scale(0.015625)"/>
       <path id="DejaVuSans-5b" d="M 550 4863 
L 1875 4863 
L 1875 4416 
L 1125 4416 
L 1125 -397 
L 1875 -397 
L 1875 -844 
L 550 -844 
L 550 4863 
z
" transform="scale(0.015625)"/>
       <path id="DejaVuSans-5d" d="M 1947 4863 
L 1947 -844 
L 622 -844 
L 622 -397 
L 1369 -397 
L 1369 4416 
L 622 4416 
L 622 4863 
L 1947 4863 
z
" transform="scale(0.015625)"/>
      </defs>
      <use xlink:href="#DejaVuSans-Oblique-45" transform="translate(0 0.015625)"/>
      <use xlink:href="#DejaVuSans-5b" transform="translate(63.183594 0.015625)"/>
      <use xlink:href="#DejaVuSans-Oblique-78" transform="translate(102.197266 0.015625)"/>
      <use xlink:href="#DejaVuSans-Oblique-6e" transform="translate(161.376953 -16.390625) scale(0.7)"/>
      <use xlink:href="#DejaVuSans-Oblique-65" transform="translate(205.742188 -16.390625) scale(0.7)"/>
      <use xlink:href="#DejaVuSans-Oblique-78" transform="translate(248.808594 -16.390625) scale(0.7)"/>
      <use xlink:href="#DejaVuSans-Oblique-74" transform="translate(290.234375 -16.390625) scale(0.7)"/>
      <use xlink:href="#DejaVuSans-5d" transform="translate(320.415039 0.015625)"/>
     </g>
    </g>
    <g id="patch_8">
     <path d="M 304.42 267.951187 
L 324.42 267.951187 
L 324.42 260.951187 
L 304.42 260.951187 
z
" style="fill: #0000ff; fill-opacity: 0.5; stroke: #0000ff; stroke-opacity: 0.5; stroke-linejoin: miter"/>
    </g>
    <g id="text_15">
     <!-- 50% CI -->
     <g style="fill: #262626" transform="translate(332.42 267.951187) scale(0.1 -0.1)">
      <defs>
       <path id="ArialMT-35" d="M 266 1200 
L 856 1250 
Q 922 819 1161 601 
Q 1400 384 1738 384 
Q 2144 384 2425 690 
Q 2706 997 2706 1503 
Q 2706 1984 2436 2262 
Q 2166 2541 1728 2541 
Q 1456 2541 1237 2417 
Q 1019 2294 894 2097 
L 366 2166 
L 809 4519 
L 3088 4519 
L 3088 3981 
L 1259 3981 
L 1013 2750 
Q 1425 3038 1878 3038 
Q 2478 3038 2890 2622 
Q 3303 2206 3303 1553 
Q 3303 931 2941 478 
Q 2500 -78 1738 -78 
Q 1113 -78 717 272 
Q 322 622 266 1200 
z
" transform="scale(0.015625)"/>
       <path id="ArialMT-25" d="M 372 3481 
Q 372 3972 619 4315 
Q 866 4659 1334 4659 
Q 1766 4659 2048 4351 
Q 2331 4044 2331 3447 
Q 2331 2866 2045 2552 
Q 1759 2238 1341 2238 
Q 925 2238 648 2547 
Q 372 2856 372 3481 
z
M 1350 4272 
Q 1141 4272 1002 4090 
Q 863 3909 863 3425 
Q 863 2984 1003 2804 
Q 1144 2625 1350 2625 
Q 1563 2625 1702 2806 
Q 1841 2988 1841 3469 
Q 1841 3913 1700 4092 
Q 1559 4272 1350 4272 
z
M 1353 -169 
L 3859 4659 
L 4316 4659 
L 1819 -169 
L 1353 -169 
z
M 3334 1075 
Q 3334 1569 3581 1911 
Q 3828 2253 4300 2253 
Q 4731 2253 5014 1945 
Q 5297 1638 5297 1041 
Q 5297 459 5011 145 
Q 4725 -169 4303 -169 
Q 3888 -169 3611 142 
Q 3334 453 3334 1075 
z
M 4316 1866 
Q 4103 1866 3964 1684 
Q 3825 1503 3825 1019 
Q 3825 581 3965 400 
Q 4106 219 4313 219 
Q 4528 219 4667 400 
Q 4806 581 4806 1063 
Q 4806 1506 4665 1686 
Q 4525 1866 4316 1866 
z
" transform="scale(0.015625)"/>
       <path id="ArialMT-20" transform="scale(0.015625)"/>
       <path id="ArialMT-43" d="M 3763 1606 
L 4369 1453 
Q 4178 706 3683 314 
Q 3188 -78 2472 -78 
Q 1731 -78 1267 223 
Q 803 525 561 1097 
Q 319 1669 319 2325 
Q 319 3041 592 3573 
Q 866 4106 1370 4382 
Q 1875 4659 2481 4659 
Q 3169 4659 3637 4309 
Q 4106 3959 4291 3325 
L 3694 3184 
Q 3534 3684 3231 3912 
Q 2928 4141 2469 4141 
Q 1941 4141 1586 3887 
Q 1231 3634 1087 3207 
Q 944 2781 944 2328 
Q 944 1744 1114 1308 
Q 1284 872 1643 656 
Q 2003 441 2422 441 
Q 2931 441 3284 734 
Q 3638 1028 3763 1606 
z
" transform="scale(0.015625)"/>
       <path id="ArialMT-49" d="M 597 0 
L 597 4581 
L 1203 4581 
L 1203 0 
L 597 0 
z
" transform="scale(0.015625)"/>
      </defs>
      <use xlink:href="#ArialMT-35"/>
      <use xlink:href="#ArialMT-30" transform="translate(55.615234 0)"/>
      <use xlink:href="#ArialMT-25" transform="translate(111.230469 0)"/>
      <use xlink:href="#ArialMT-20" transform="translate(200.146484 0)"/>
      <use xlink:href="#ArialMT-43" transform="translate(227.929688 0)"/>
      <use xlink:href="#ArialMT-49" transform="translate(300.146484 0)"/>
     </g>
    </g>
    <g id="patch_9">
     <path d="M 304.42 282.0965 
L 324.42 282.0965 
L 324.42 275.0965 
L 304.42 275.0965 
z
" style="fill: #0000ff; fill-opacity: 0.3; stroke: #0000ff; stroke-opacity: 0.3; stroke-linejoin: miter"/>
    </g>
    <g id="text_16">
     <!-- 90% CI -->
     <g style="fill: #262626" transform="translate(332.42 282.0965) scale(0.1 -0.1)">
      <defs>
       <path id="ArialMT-39" d="M 350 1059 
L 891 1109 
Q 959 728 1153 556 
Q 1347 384 1650 384 
Q 1909 384 2104 503 
Q 2300 622 2425 820 
Q 2550 1019 2634 1356 
Q 2719 1694 2719 2044 
Q 2719 2081 2716 2156 
Q 2547 1888 2255 1720 
Q 1963 1553 1622 1553 
Q 1053 1553 659 1965 
Q 266 2378 266 3053 
Q 266 3750 677 4175 
Q 1088 4600 1706 4600 
Q 2153 4600 2523 4359 
Q 2894 4119 3086 3673 
Q 3278 3228 3278 2384 
Q 3278 1506 3087 986 
Q 2897 466 2520 194 
Q 2144 -78 1638 -78 
Q 1100 -78 759 220 
Q 419 519 350 1059 
z
M 2653 3081 
Q 2653 3566 2395 3850 
Q 2138 4134 1775 4134 
Q 1400 4134 1122 3828 
Q 844 3522 844 3034 
Q 844 2597 1108 2323 
Q 1372 2050 1759 2050 
Q 2150 2050 2401 2323 
Q 2653 2597 2653 3081 
z
" transform="scale(0.015625)"/>
      </defs>
      <use xlink:href="#ArialMT-39"/>
      <use xlink:href="#ArialMT-30" transform="translate(55.615234 0)"/>
      <use xlink:href="#ArialMT-25" transform="translate(111.230469 0)"/>
      <use xlink:href="#ArialMT-20" transform="translate(200.146484 0)"/>
      <use xlink:href="#ArialMT-43" transform="translate(227.929688 0)"/>
      <use xlink:href="#ArialMT-49" transform="translate(300.146484 0)"/>
     </g>
    </g>
    <g id="line2d_13">
     <path d="M 304.42 292.884 
L 324.42 292.884 
" style="fill: none; stroke-dasharray: 5.55,2.4; stroke-dashoffset: 0; stroke: #008000; stroke-width: 1.5"/>
    </g>
    <g id="text_17">
     <!-- mode of target $\pi$ -->
     <g style="fill: #262626" transform="translate(332.42 296.384) scale(0.1 -0.1)">
      <defs>
       <path id="ArialMT-6d" d="M 422 0 
L 422 3319 
L 925 3319 
L 925 2853 
Q 1081 3097 1340 3245 
Q 1600 3394 1931 3394 
Q 2300 3394 2536 3241 
Q 2772 3088 2869 2813 
Q 3263 3394 3894 3394 
Q 4388 3394 4653 3120 
Q 4919 2847 4919 2278 
L 4919 0 
L 4359 0 
L 4359 2091 
Q 4359 2428 4304 2576 
Q 4250 2725 4106 2815 
Q 3963 2906 3769 2906 
Q 3419 2906 3187 2673 
Q 2956 2441 2956 1928 
L 2956 0 
L 2394 0 
L 2394 2156 
Q 2394 2531 2256 2718 
Q 2119 2906 1806 2906 
Q 1569 2906 1367 2781 
Q 1166 2656 1075 2415 
Q 984 2175 984 1722 
L 984 0 
L 422 0 
z
" transform="scale(0.015625)"/>
       <path id="ArialMT-6f" d="M 213 1659 
Q 213 2581 725 3025 
Q 1153 3394 1769 3394 
Q 2453 3394 2887 2945 
Q 3322 2497 3322 1706 
Q 3322 1066 3130 698 
Q 2938 331 2570 128 
Q 2203 -75 1769 -75 
Q 1072 -75 642 372 
Q 213 819 213 1659 
z
M 791 1659 
Q 791 1022 1069 705 
Q 1347 388 1769 388 
Q 2188 388 2466 706 
Q 2744 1025 2744 1678 
Q 2744 2294 2464 2611 
Q 2184 2928 1769 2928 
Q 1347 2928 1069 2612 
Q 791 2297 791 1659 
z
" transform="scale(0.015625)"/>
       <path id="ArialMT-64" d="M 2575 0 
L 2575 419 
Q 2259 -75 1647 -75 
Q 1250 -75 917 144 
Q 584 363 401 755 
Q 219 1147 219 1656 
Q 219 2153 384 2558 
Q 550 2963 881 3178 
Q 1213 3394 1622 3394 
Q 1922 3394 2156 3267 
Q 2391 3141 2538 2938 
L 2538 4581 
L 3097 4581 
L 3097 0 
L 2575 0 
z
M 797 1656 
Q 797 1019 1065 703 
Q 1334 388 1700 388 
Q 2069 388 2326 689 
Q 2584 991 2584 1609 
Q 2584 2291 2321 2609 
Q 2059 2928 1675 2928 
Q 1300 2928 1048 2622 
Q 797 2316 797 1656 
z
" transform="scale(0.015625)"/>
       <path id="ArialMT-65" d="M 2694 1069 
L 3275 997 
Q 3138 488 2766 206 
Q 2394 -75 1816 -75 
Q 1088 -75 661 373 
Q 234 822 234 1631 
Q 234 2469 665 2931 
Q 1097 3394 1784 3394 
Q 2450 3394 2872 2941 
Q 3294 2488 3294 1666 
Q 3294 1616 3291 1516 
L 816 1516 
Q 847 969 1125 678 
Q 1403 388 1819 388 
Q 2128 388 2347 550 
Q 2566 713 2694 1069 
z
M 847 1978 
L 2700 1978 
Q 2663 2397 2488 2606 
Q 2219 2931 1791 2931 
Q 1403 2931 1139 2672 
Q 875 2413 847 1978 
z
" transform="scale(0.015625)"/>
       <path id="ArialMT-66" d="M 556 0 
L 556 2881 
L 59 2881 
L 59 3319 
L 556 3319 
L 556 3672 
Q 556 4006 616 4169 
Q 697 4388 901 4523 
Q 1106 4659 1475 4659 
Q 1713 4659 2000 4603 
L 1916 4113 
Q 1741 4144 1584 4144 
Q 1328 4144 1222 4034 
Q 1116 3925 1116 3625 
L 1116 3319 
L 1763 3319 
L 1763 2881 
L 1116 2881 
L 1116 0 
L 556 0 
z
" transform="scale(0.015625)"/>
       <path id="ArialMT-74" d="M 1650 503 
L 1731 6 
Q 1494 -44 1306 -44 
Q 1000 -44 831 53 
Q 663 150 594 308 
Q 525 466 525 972 
L 525 2881 
L 113 2881 
L 113 3319 
L 525 3319 
L 525 4141 
L 1084 4478 
L 1084 3319 
L 1650 3319 
L 1650 2881 
L 1084 2881 
L 1084 941 
Q 1084 700 1114 631 
Q 1144 563 1211 522 
Q 1278 481 1403 481 
Q 1497 481 1650 503 
z
" transform="scale(0.015625)"/>
       <path id="ArialMT-61" d="M 2588 409 
Q 2275 144 1986 34 
Q 1697 -75 1366 -75 
Q 819 -75 525 192 
Q 231 459 231 875 
Q 231 1119 342 1320 
Q 453 1522 633 1644 
Q 813 1766 1038 1828 
Q 1203 1872 1538 1913 
Q 2219 1994 2541 2106 
Q 2544 2222 2544 2253 
Q 2544 2597 2384 2738 
Q 2169 2928 1744 2928 
Q 1347 2928 1158 2789 
Q 969 2650 878 2297 
L 328 2372 
Q 403 2725 575 2942 
Q 747 3159 1072 3276 
Q 1397 3394 1825 3394 
Q 2250 3394 2515 3294 
Q 2781 3194 2906 3042 
Q 3031 2891 3081 2659 
Q 3109 2516 3109 2141 
L 3109 1391 
Q 3109 606 3145 398 
Q 3181 191 3288 0 
L 2700 0 
Q 2613 175 2588 409 
z
M 2541 1666 
Q 2234 1541 1622 1453 
Q 1275 1403 1131 1340 
Q 988 1278 909 1158 
Q 831 1038 831 891 
Q 831 666 1001 516 
Q 1172 366 1500 366 
Q 1825 366 2078 508 
Q 2331 650 2450 897 
Q 2541 1088 2541 1459 
L 2541 1666 
z
" transform="scale(0.015625)"/>
       <path id="ArialMT-72" d="M 416 0 
L 416 3319 
L 922 3319 
L 922 2816 
Q 1116 3169 1280 3281 
Q 1444 3394 1641 3394 
Q 1925 3394 2219 3213 
L 2025 2691 
Q 1819 2813 1613 2813 
Q 1428 2813 1281 2702 
Q 1134 2591 1072 2394 
Q 978 2094 978 1738 
L 978 0 
L 416 0 
z
" transform="scale(0.015625)"/>
       <path id="ArialMT-67" d="M 319 -275 
L 866 -356 
Q 900 -609 1056 -725 
Q 1266 -881 1628 -881 
Q 2019 -881 2231 -725 
Q 2444 -569 2519 -288 
Q 2563 -116 2559 434 
Q 2191 0 1641 0 
Q 956 0 581 494 
Q 206 988 206 1678 
Q 206 2153 378 2554 
Q 550 2956 876 3175 
Q 1203 3394 1644 3394 
Q 2231 3394 2613 2919 
L 2613 3319 
L 3131 3319 
L 3131 450 
Q 3131 -325 2973 -648 
Q 2816 -972 2473 -1159 
Q 2131 -1347 1631 -1347 
Q 1038 -1347 672 -1080 
Q 306 -813 319 -275 
z
M 784 1719 
Q 784 1066 1043 766 
Q 1303 466 1694 466 
Q 2081 466 2343 764 
Q 2606 1063 2606 1700 
Q 2606 2309 2336 2618 
Q 2066 2928 1684 2928 
Q 1309 2928 1046 2623 
Q 784 2319 784 1719 
z
" transform="scale(0.015625)"/>
       <path id="DejaVuSans-Oblique-3c0" d="M 584 3500 
L 3938 3500 
L 3825 2925 
L 3384 2925 
L 2966 775 
Q 2922 550 2981 450 
Q 3038 353 3209 353 
Q 3256 353 3325 363 
Q 3397 369 3419 372 
L 3338 -44 
Q 3222 -84 3103 -103 
Q 2981 -122 2866 -122 
Q 2491 -122 2388 81 
Q 2284 288 2391 838 
L 2797 2925 
L 1506 2925 
L 938 0 
L 350 0 
L 919 2925 
L 472 2925 
L 584 3500 
z
" transform="scale(0.015625)"/>
      </defs>
      <use xlink:href="#ArialMT-6d" transform="translate(0 0.203125)"/>
      <use xlink:href="#ArialMT-6f" transform="translate(83.300781 0.203125)"/>
      <use xlink:href="#ArialMT-64" transform="translate(138.916016 0.203125)"/>
      <use xlink:href="#ArialMT-65" transform="translate(194.53125 0.203125)"/>
      <use xlink:href="#ArialMT-20" transform="translate(250.146484 0.203125)"/>
      <use xlink:href="#ArialMT-6f" transform="translate(277.929688 0.203125)"/>
      <use xlink:href="#ArialMT-66" transform="translate(333.544922 0.203125)"/>
      <use xlink:href="#ArialMT-20" transform="translate(361.328125 0.203125)"/>
      <use xlink:href="#ArialMT-74" transform="translate(389.111328 0.203125)"/>
      <use xlink:href="#ArialMT-61" transform="translate(416.894531 0.203125)"/>
      <use xlink:href="#ArialMT-72" transform="translate(472.509766 0.203125)"/>
      <use xlink:href="#ArialMT-67" transform="translate(505.810547 0.203125)"/>
      <use xlink:href="#ArialMT-65" transform="translate(561.425781 0.203125)"/>
      <use xlink:href="#ArialMT-74" transform="translate(617.041016 0.203125)"/>
      <use xlink:href="#ArialMT-20" transform="translate(644.824219 0.203125)"/>
      <use xlink:href="#DejaVuSans-Oblique-3c0" transform="translate(672.607422 0.203125)"/>
     </g>
    </g>
   </g>
  </g>
 </g>
 <defs>
  <clipPath id="p5672dd6ba7">
   <rect x="57.6" y="41.472" width="357.12" height="266.112"/>
  </clipPath>
 </defs>
</svg>
