<?xml version="1.0" encoding="utf-8" standalone="no"?>
<!DOCTYPE svg PUBLIC "-//W3C//DTD SVG 1.1//EN"
  "http://www.w3.org/Graphics/SVG/1.1/DTD/svg11.dtd">
<svg xmlns:xlink="http://www.w3.org/1999/xlink" width="460.8pt" height="345.6pt" viewBox="0 0 460.8 345.6" xmlns="http://www.w3.org/2000/svg" version="1.1">
 <metadata>
  <rdf:RDF xmlns:dc="http://purl.org/dc/elements/1.1/" xmlns:cc="http://creativecommons.org/ns#" xmlns:rdf="http://www.w3.org/1999/02/22-rdf-syntax-ns#">
   <cc:Work>
    <dc:type rdf:resource="http://purl.org/dc/dcmitype/StillImage"/>
    <dc:date>2025-04-06T14:11:30.093648</dc:date>
    <dc:format>image/svg+xml</dc:format>
    <dc:creator>
     <cc:Agent>
      <dc:title>Matplotlib v3.10.1, https://matplotlib.org/</dc:title>
     </cc:Agent>
    </dc:creator>
   </cc:Work>
  </rdf:RDF>
 </metadata>
 <defs>
  <style type="text/css">*{stroke-linejoin: round; stroke-linecap: butt}</style>
 </defs>
 <g id="figure_1">
  <g id="patch_1">
   <path d="M 0 345.6 
L 460.8 345.6 
L 460.8 0 
L 0 0 
z
" style="fill: #ffffff"/>
  </g>
  <g id="axes_1">
   <g id="patch_2">
    <path d="M 57.6 307.584 
L 414.72 307.584 
L 414.72 41.472 
L 57.6 41.472 
z
" style="fill: #eaeaf2"/>
   </g>
   <g id="matplotlib.axis_1">
    <g id="xtick_1">
     <g id="line2d_1">
      <path d="M 106.626147 307.584 
L 106.626147 41.472 
" clip-path="url(#pf8a6ebb223)" style="fill: none; stroke: #ffffff; stroke-width: 0.8; stroke-linecap: round"/>
     </g>
     <g id="text_1">
      <!-- −2 -->
      <g style="fill: #262626" transform="translate(100.925366 321.741812) scale(0.1 -0.1)">
       <defs>
        <path id="ArialMT-2212" d="M 3381 1997 
L 356 1997 
L 356 2522 
L 3381 2522 
L 3381 1997 
z
" transform="scale(0.015625)"/>
        <path id="ArialMT-32" d="M 3222 541 
L 3222 0 
L 194 0 
Q 188 203 259 391 
Q 375 700 629 1000 
Q 884 1300 1366 1694 
Q 2113 2306 2375 2664 
Q 2638 3022 2638 3341 
Q 2638 3675 2398 3904 
Q 2159 4134 1775 4134 
Q 1369 4134 1125 3890 
Q 881 3647 878 3216 
L 300 3275 
Q 359 3922 746 4261 
Q 1134 4600 1788 4600 
Q 2447 4600 2831 4234 
Q 3216 3869 3216 3328 
Q 3216 3053 3103 2787 
Q 2991 2522 2730 2228 
Q 2469 1934 1863 1422 
Q 1356 997 1212 845 
Q 1069 694 975 541 
L 3222 541 
z
" transform="scale(0.015625)"/>
       </defs>
       <use xlink:href="#ArialMT-2212"/>
       <use xlink:href="#ArialMT-32" transform="translate(58.398438 0)"/>
      </g>
     </g>
    </g>
    <g id="xtick_2">
     <g id="line2d_2">
      <path d="M 172.212986 307.584 
L 172.212986 41.472 
" clip-path="url(#pf8a6ebb223)" style="fill: none; stroke: #ffffff; stroke-width: 0.8; stroke-linecap: round"/>
     </g>
     <g id="text_2">
      <!-- −1 -->
      <g style="fill: #262626" transform="translate(166.512205 321.741812) scale(0.1 -0.1)">
       <defs>
        <path id="ArialMT-31" d="M 2384 0 
L 1822 0 
L 1822 3584 
Q 1619 3391 1289 3197 
Q 959 3003 697 2906 
L 697 3450 
Q 1169 3672 1522 3987 
Q 1875 4303 2022 4600 
L 2384 4600 
L 2384 0 
z
" transform="scale(0.015625)"/>
       </defs>
       <use xlink:href="#ArialMT-2212"/>
       <use xlink:href="#ArialMT-31" transform="translate(58.398438 0)"/>
      </g>
     </g>
    </g>
    <g id="xtick_3">
     <g id="line2d_3">
      <path d="M 237.799826 307.584 
L 237.799826 41.472 
" clip-path="url(#pf8a6ebb223)" style="fill: none; stroke: #ffffff; stroke-width: 0.8; stroke-linecap: round"/>
     </g>
     <g id="text_3">
      <!-- 0 -->
      <g style="fill: #262626" transform="translate(235.019357 321.741812) scale(0.1 -0.1)">
       <defs>
        <path id="ArialMT-30" d="M 266 2259 
Q 266 3072 433 3567 
Q 600 4063 929 4331 
Q 1259 4600 1759 4600 
Q 2128 4600 2406 4451 
Q 2684 4303 2865 4023 
Q 3047 3744 3150 3342 
Q 3253 2941 3253 2259 
Q 3253 1453 3087 958 
Q 2922 463 2592 192 
Q 2263 -78 1759 -78 
Q 1097 -78 719 397 
Q 266 969 266 2259 
z
M 844 2259 
Q 844 1131 1108 757 
Q 1372 384 1759 384 
Q 2147 384 2411 759 
Q 2675 1134 2675 2259 
Q 2675 3391 2411 3762 
Q 2147 4134 1753 4134 
Q 1366 4134 1134 3806 
Q 844 3388 844 2259 
z
" transform="scale(0.015625)"/>
       </defs>
       <use xlink:href="#ArialMT-30"/>
      </g>
     </g>
    </g>
    <g id="xtick_4">
     <g id="line2d_4">
      <path d="M 303.386665 307.584 
L 303.386665 41.472 
" clip-path="url(#pf8a6ebb223)" style="fill: none; stroke: #ffffff; stroke-width: 0.8; stroke-linecap: round"/>
     </g>
     <g id="text_4">
      <!-- 1 -->
      <g style="fill: #262626" transform="translate(300.606196 321.741812) scale(0.1 -0.1)">
       <use xlink:href="#ArialMT-31"/>
      </g>
     </g>
    </g>
    <g id="xtick_5">
     <g id="line2d_5">
      <path d="M 368.973505 307.584 
L 368.973505 41.472 
" clip-path="url(#pf8a6ebb223)" style="fill: none; stroke: #ffffff; stroke-width: 0.8; stroke-linecap: round"/>
     </g>
     <g id="text_5">
      <!-- 2 -->
      <g style="fill: #262626" transform="translate(366.193036 321.741812) scale(0.1 -0.1)">
       <use xlink:href="#ArialMT-32"/>
      </g>
     </g>
    </g>
    <g id="text_6">
     <!-- $x$ -->
     <g style="fill: #262626" transform="translate(233.16 334.887125) scale(0.1 -0.1)">
      <defs>
       <path id="DejaVuSans-Oblique-78" d="M 3841 3500 
L 2234 1784 
L 3219 0 
L 2559 0 
L 1819 1388 
L 531 0 
L -166 0 
L 1556 1844 
L 641 3500 
L 1300 3500 
L 1972 2234 
L 3144 3500 
L 3841 3500 
z
" transform="scale(0.015625)"/>
      </defs>
      <use xlink:href="#DejaVuSans-Oblique-78" transform="translate(0 0.3125)"/>
     </g>
    </g>
   </g>
   <g id="matplotlib.axis_2">
    <g id="ytick_1">
     <g id="line2d_6">
      <path d="M 57.6 271.296 
L 414.72 271.296 
" clip-path="url(#pf8a6ebb223)" style="fill: none; stroke: #ffffff; stroke-width: 0.8; stroke-linecap: round"/>
     </g>
     <g id="text_7">
      <!-- −2 -->
      <g style="fill: #262626" transform="translate(39.198437 274.874906) scale(0.1 -0.1)">
       <use xlink:href="#ArialMT-2212"/>
       <use xlink:href="#ArialMT-32" transform="translate(58.398438 0)"/>
      </g>
     </g>
    </g>
    <g id="ytick_2">
     <g id="line2d_7">
      <path d="M 57.6 222.912 
L 414.72 222.912 
" clip-path="url(#pf8a6ebb223)" style="fill: none; stroke: #ffffff; stroke-width: 0.8; stroke-linecap: round"/>
     </g>
     <g id="text_8">
      <!-- −1 -->
      <g style="fill: #262626" transform="translate(39.198437 226.490906) scale(0.1 -0.1)">
       <use xlink:href="#ArialMT-2212"/>
       <use xlink:href="#ArialMT-31" transform="translate(58.398438 0)"/>
      </g>
     </g>
    </g>
    <g id="ytick_3">
     <g id="line2d_8">
      <path d="M 57.6 174.528 
L 414.72 174.528 
" clip-path="url(#pf8a6ebb223)" style="fill: none; stroke: #ffffff; stroke-width: 0.8; stroke-linecap: round"/>
     </g>
     <g id="text_9">
      <!-- 0 -->
      <g style="fill: #262626" transform="translate(45.039062 178.106906) scale(0.1 -0.1)">
       <use xlink:href="#ArialMT-30"/>
      </g>
     </g>
    </g>
    <g id="ytick_4">
     <g id="line2d_9">
      <path d="M 57.6 126.144 
L 414.72 126.144 
" clip-path="url(#pf8a6ebb223)" style="fill: none; stroke: #ffffff; stroke-width: 0.8; stroke-linecap: round"/>
     </g>
     <g id="text_10">
      <!-- 1 -->
      <g style="fill: #262626" transform="translate(45.039062 129.722906) scale(0.1 -0.1)">
       <use xlink:href="#ArialMT-31"/>
      </g>
     </g>
    </g>
    <g id="ytick_5">
     <g id="line2d_10">
      <path d="M 57.6 77.76 
L 414.72 77.76 
" clip-path="url(#pf8a6ebb223)" style="fill: none; stroke: #ffffff; stroke-width: 0.8; stroke-linecap: round"/>
     </g>
     <g id="text_11">
      <!-- 2 -->
      <g style="fill: #262626" transform="translate(45.039062 81.338906) scale(0.1 -0.1)">
       <use xlink:href="#ArialMT-32"/>
      </g>
     </g>
    </g>
    <g id="text_12">
     <!-- $x_{next}$ -->
     <g style="fill: #262626" transform="translate(33.210938 185.478) rotate(-90) scale(0.1 -0.1)">
      <defs>
       <path id="DejaVuSans-Oblique-6e" d="M 3566 2113 
L 3156 0 
L 2578 0 
L 2988 2091 
Q 3016 2238 3031 2350 
Q 3047 2463 3047 2528 
Q 3047 2791 2881 2937 
Q 2716 3084 2419 3084 
Q 1956 3084 1622 2776 
Q 1288 2469 1184 1941 
L 800 0 
L 225 0 
L 903 3500 
L 1478 3500 
L 1363 2950 
Q 1603 3253 1940 3418 
Q 2278 3584 2650 3584 
Q 3113 3584 3367 3334 
Q 3622 3084 3622 2631 
Q 3622 2519 3608 2391 
Q 3594 2263 3566 2113 
z
" transform="scale(0.015625)"/>
       <path id="DejaVuSans-Oblique-65" d="M 3078 2063 
Q 3088 2113 3092 2166 
Q 3097 2219 3097 2272 
Q 3097 2653 2873 2875 
Q 2650 3097 2266 3097 
Q 1838 3097 1509 2826 
Q 1181 2556 1013 2059 
L 3078 2063 
z
M 3578 1613 
L 903 1613 
Q 884 1494 878 1425 
Q 872 1356 872 1306 
Q 872 872 1139 634 
Q 1406 397 1894 397 
Q 2269 397 2603 481 
Q 2938 566 3225 728 
L 3116 159 
Q 2806 34 2476 -28 
Q 2147 -91 1806 -91 
Q 1078 -91 686 257 
Q 294 606 294 1247 
Q 294 1794 489 2264 
Q 684 2734 1063 3103 
Q 1306 3334 1642 3459 
Q 1978 3584 2356 3584 
Q 2950 3584 3301 3228 
Q 3653 2872 3653 2272 
Q 3653 2128 3634 1964 
Q 3616 1800 3578 1613 
z
" transform="scale(0.015625)"/>
       <path id="DejaVuSans-Oblique-74" d="M 2706 3500 
L 2619 3053 
L 1472 3053 
L 1100 1153 
Q 1081 1047 1072 975 
Q 1063 903 1063 863 
Q 1063 663 1183 572 
Q 1303 481 1569 481 
L 2150 481 
L 2053 0 
L 1503 0 
Q 991 0 739 200 
Q 488 400 488 806 
Q 488 878 497 964 
Q 506 1050 525 1153 
L 897 3053 
L 409 3053 
L 500 3500 
L 978 3500 
L 1172 4494 
L 1747 4494 
L 1556 3500 
L 2706 3500 
z
" transform="scale(0.015625)"/>
      </defs>
      <use xlink:href="#DejaVuSans-Oblique-78" transform="translate(0 0.3125)"/>
      <use xlink:href="#DejaVuSans-Oblique-6e" transform="translate(59.179688 -16.09375) scale(0.7)"/>
      <use xlink:href="#DejaVuSans-Oblique-65" transform="translate(103.544922 -16.09375) scale(0.7)"/>
      <use xlink:href="#DejaVuSans-Oblique-78" transform="translate(146.611328 -16.09375) scale(0.7)"/>
      <use xlink:href="#DejaVuSans-Oblique-74" transform="translate(188.037109 -16.09375) scale(0.7)"/>
     </g>
    </g>
   </g>
   <g id="FillBetweenPolyCollection_1">
    <defs>
     <path id="ma89a5829c1" d="M 73.832727 -221.463502 
L 73.832727 -129.15736 
L 77.112066 -128.859091 
L 80.391405 -129.247329 
L 83.670744 -129.005415 
L 86.950083 -129.110695 
L 90.229421 -128.894549 
L 93.50876 -128.972527 
L 96.788099 -128.970445 
L 100.067438 -128.930116 
L 103.346777 -129.092296 
L 106.626116 -128.774543 
L 109.905455 -128.559897 
L 113.184793 -128.592329 
L 116.464132 -128.436506 
L 119.743471 -128.066762 
L 123.02281 -128.171278 
L 126.302149 -127.720015 
L 129.581488 -127.318128 
L 132.860826 -126.940774 
L 136.140165 -126.293944 
L 139.419504 -125.869032 
L 142.698843 -125.168688 
L 145.978182 -124.578712 
L 149.257521 -123.888714 
L 152.53686 -123.290236 
L 155.816198 -122.618827 
L 159.095537 -121.913491 
L 162.374876 -121.215504 
L 165.654215 -120.947756 
L 168.933554 -120.87357 
L 172.212893 -120.797706 
L 175.492231 -120.831234 
L 178.77157 -121.020448 
L 182.050909 -121.398938 
L 185.330248 -122.167558 
L 188.609587 -122.836386 
L 191.888926 -123.544911 
L 195.168264 -124.245024 
L 198.447603 -124.705077 
L 201.726942 -125.230485 
L 205.006281 -125.617137 
L 208.28562 -125.970508 
L 211.564959 -126.543218 
L 214.844298 -127.117145 
L 218.123636 -127.406306 
L 221.402975 -127.757746 
L 224.682314 -128.13623 
L 227.961653 -128.481558 
L 231.240992 -128.590103 
L 234.520331 -128.796228 
L 237.799669 -129.168215 
L 241.079008 -128.948613 
L 244.358347 -129.000639 
L 247.637686 -128.839498 
L 250.917025 -128.280455 
L 254.196364 -127.673285 
L 257.475702 -127.32021 
L 260.755041 -127.392161 
L 264.03438 -127.613625 
L 267.313719 -127.42682 
L 270.593058 -127.34323 
L 273.872397 -127.29478 
L 277.151736 -127.311048 
L 280.431074 -127.349084 
L 283.710413 -127.319804 
L 286.989752 -127.357762 
L 290.269091 -127.357715 
L 293.54843 -127.578958 
L 296.827769 -127.658265 
L 300.107107 -127.522266 
L 303.386446 -127.666092 
L 306.665785 -127.874564 
L 309.945124 -127.737763 
L 313.224463 -127.563125 
L 316.503802 -127.414644 
L 319.78314 -127.569752 
L 323.062479 -127.300654 
L 326.341818 -127.517075 
L 329.621157 -127.696777 
L 332.900496 -127.650202 
L 336.179835 -128.048579 
L 339.459174 -127.856321 
L 342.738512 -127.879594 
L 346.017851 -127.936903 
L 349.29719 -127.850051 
L 352.576529 -127.928614 
L 355.855868 -128.006523 
L 359.135207 -128.018068 
L 362.414545 -128.081248 
L 365.693884 -128.23398 
L 368.973223 -128.433553 
L 372.252562 -128.203073 
L 375.531901 -128.245233 
L 378.81124 -128.203102 
L 382.090579 -128.30998 
L 385.369917 -128.326681 
L 388.649256 -128.485896 
L 391.928595 -128.441062 
L 395.207934 -128.613177 
L 398.487273 -128.401403 
L 398.487273 -221.390885 
L 398.487273 -221.390885 
L 395.207934 -221.40936 
L 391.928595 -221.428941 
L 388.649256 -221.428572 
L 385.369917 -221.369942 
L 382.090579 -221.393884 
L 378.81124 -221.334459 
L 375.531901 -221.393377 
L 372.252562 -221.369665 
L 368.973223 -221.361913 
L 365.693884 -221.338738 
L 362.414545 -221.363632 
L 359.135207 -221.281164 
L 355.855868 -221.284134 
L 352.576529 -221.282225 
L 349.29719 -221.288229 
L 346.017851 -221.244913 
L 342.738512 -221.257522 
L 339.459174 -221.27069 
L 336.179835 -221.2376 
L 332.900496 -221.247359 
L 329.621157 -221.217943 
L 326.341818 -221.148614 
L 323.062479 -221.165029 
L 319.78314 -221.206932 
L 316.503802 -221.139968 
L 313.224463 -221.144195 
L 309.945124 -221.218058 
L 306.665785 -221.170491 
L 303.386446 -221.188596 
L 300.107107 -221.16444 
L 296.827769 -221.200259 
L 293.54843 -221.180804 
L 290.269091 -221.171022 
L 286.989752 -221.157138 
L 283.710413 -221.204636 
L 280.431074 -221.19272 
L 277.151736 -221.199497 
L 273.872397 -221.198926 
L 270.593058 -221.185666 
L 267.313719 -221.22344 
L 264.03438 -221.233833 
L 260.755041 -221.216708 
L 257.475702 -221.160282 
L 254.196364 -221.248385 
L 250.917025 -221.341265 
L 247.637686 -221.389484 
L 244.358347 -221.413374 
L 241.079008 -221.430579 
L 237.799669 -221.439744 
L 234.520331 -221.406424 
L 231.240992 -221.326263 
L 227.961653 -221.373778 
L 224.682314 -221.299604 
L 221.402975 -221.354127 
L 218.123636 -221.238182 
L 214.844298 -221.160357 
L 211.564959 -221.10164 
L 208.28562 -220.95234 
L 205.006281 -220.899726 
L 201.726942 -220.779906 
L 198.447603 -220.601397 
L 195.168264 -220.462064 
L 191.888926 -220.126567 
L 188.609587 -219.591521 
L 185.330248 -218.838532 
L 182.050909 -217.102711 
L 178.77157 -215.243921 
L 175.492231 -213.658499 
L 172.212893 -212.952273 
L 168.933554 -213.38708 
L 165.654215 -214.492045 
L 162.374876 -216.419847 
L 159.095537 -218.413962 
L 155.816198 -219.391816 
L 152.53686 -219.903583 
L 149.257521 -220.274569 
L 145.978182 -220.593588 
L 142.698843 -220.74933 
L 139.419504 -220.953852 
L 136.140165 -221.02787 
L 132.860826 -221.177614 
L 129.581488 -221.190967 
L 126.302149 -221.238021 
L 123.02281 -221.300965 
L 119.743471 -221.316036 
L 116.464132 -221.369902 
L 113.184793 -221.339355 
L 109.905455 -221.360396 
L 106.626116 -221.367462 
L 103.346777 -221.439352 
L 100.067438 -221.416477 
L 96.788099 -221.434236 
L 93.50876 -221.438568 
L 90.229421 -221.431364 
L 86.950083 -221.447271 
L 83.670744 -221.40737 
L 80.391405 -221.458455 
L 77.112066 -221.436659 
L 73.832727 -221.463502 
z
" style="stroke: #0000ff; stroke-opacity: 0.5"/>
    </defs>
    <g clip-path="url(#pf8a6ebb223)">
     <use xlink:href="#ma89a5829c1" x="0" y="345.6" style="fill: #0000ff; fill-opacity: 0.5; stroke: #0000ff; stroke-opacity: 0.5"/>
    </g>
   </g>
   <g id="FillBetweenPolyCollection_2">
    <defs>
     <path id="mfe266fc185" d="M 73.832727 -227.556889 
L 73.832727 -117.40088 
L 77.112066 -117.421667 
L 80.391405 -117.415922 
L 83.670744 -117.393549 
L 86.950083 -117.397056 
L 90.229421 -117.354616 
L 93.50876 -117.375755 
L 96.788099 -117.430792 
L 100.067438 -117.397056 
L 103.346777 -117.45523 
L 106.626116 -117.326065 
L 109.905455 -117.328914 
L 113.184793 -117.431132 
L 116.464132 -117.37752 
L 119.743471 -117.328736 
L 123.02281 -117.35262 
L 126.302149 -117.342232 
L 129.581488 -117.381177 
L 132.860826 -117.293385 
L 136.140165 -117.126954 
L 139.419504 -117.149991 
L 142.698843 -117.048489 
L 145.978182 -116.869357 
L 149.257521 -116.783146 
L 152.53686 -116.647123 
L 155.816198 -116.461255 
L 159.095537 -116.243335 
L 162.374876 -116.013424 
L 165.654215 -116.00175 
L 168.933554 -115.927778 
L 172.212893 -115.885171 
L 175.492231 -115.880983 
L 178.77157 -115.991189 
L 182.050909 -116.090563 
L 185.330248 -116.328486 
L 188.609587 -116.504727 
L 191.888926 -116.732914 
L 195.168264 -116.808103 
L 198.447603 -116.933328 
L 201.726942 -116.998101 
L 205.006281 -117.06461 
L 208.28562 -117.136656 
L 211.564959 -117.140641 
L 214.844298 -117.203989 
L 218.123636 -117.280234 
L 221.402975 -117.308594 
L 224.682314 -117.289636 
L 227.961653 -117.320228 
L 231.240992 -117.274495 
L 234.520331 -117.338806 
L 237.799669 -117.547694 
L 241.079008 -117.362685 
L 244.358347 -117.308318 
L 247.637686 -117.462941 
L 250.917025 -117.293016 
L 254.196364 -117.350492 
L 257.475702 -117.279363 
L 260.755041 -117.322535 
L 264.03438 -117.355129 
L 267.313719 -117.35784 
L 270.593058 -117.303709 
L 273.872397 -117.310434 
L 277.151736 -117.322483 
L 280.431074 -117.366521 
L 283.710413 -117.325067 
L 286.989752 -117.398405 
L 290.269091 -117.312695 
L 293.54843 -117.424839 
L 296.827769 -117.458679 
L 300.107107 -117.469563 
L 303.386446 -117.406572 
L 306.665785 -117.423432 
L 309.945124 -117.519299 
L 313.224463 -117.386183 
L 316.503802 -117.394281 
L 319.78314 -117.341373 
L 323.062479 -117.273243 
L 326.341818 -117.437574 
L 329.621157 -117.33786 
L 332.900496 -117.374521 
L 336.179835 -117.417837 
L 339.459174 -117.347764 
L 342.738512 -117.434944 
L 346.017851 -117.353866 
L 349.29719 -117.363331 
L 352.576529 -117.325067 
L 355.855868 -117.360805 
L 359.135207 -117.238833 
L 362.414545 -117.36156 
L 365.693884 -117.418489 
L 368.973223 -117.396375 
L 372.252562 -117.278827 
L 375.531901 -117.326717 
L 378.81124 -117.274512 
L 382.090579 -117.389557 
L 385.369917 -117.301627 
L 388.649256 -117.345076 
L 391.928595 -117.23378 
L 395.207934 -117.314016 
L 398.487273 -117.253246 
L 398.487273 -227.476832 
L 398.487273 -227.476832 
L 395.207934 -227.418934 
L 391.928595 -227.466553 
L 388.649256 -227.471866 
L 385.369917 -227.382632 
L 382.090579 -227.452157 
L 378.81124 -227.356048 
L 375.531901 -227.422701 
L 372.252562 -227.372861 
L 368.973223 -227.262574 
L 365.693884 -227.269871 
L 362.414545 -227.200034 
L 359.135207 -227.088876 
L 355.855868 -227.049021 
L 352.576529 -227.053133 
L 349.29719 -226.954238 
L 346.017851 -226.833777 
L 342.738512 -226.831176 
L 339.459174 -226.890827 
L 336.179835 -226.756246 
L 332.900496 -226.757152 
L 329.621157 -226.696814 
L 326.341818 -226.663511 
L 323.062479 -226.615557 
L 319.78314 -226.636933 
L 316.503802 -226.532443 
L 313.224463 -226.577819 
L 309.945124 -226.520325 
L 306.665785 -226.483024 
L 303.386446 -226.506771 
L 300.107107 -226.459659 
L 296.827769 -226.527304 
L 293.54843 -226.534156 
L 290.269091 -226.554361 
L 286.989752 -226.595578 
L 283.710413 -226.653429 
L 280.431074 -226.649184 
L 277.151736 -226.690008 
L 273.872397 -226.684419 
L 270.593058 -226.71706 
L 267.313719 -226.759816 
L 264.03438 -226.840774 
L 260.755041 -226.911083 
L 257.475702 -226.926091 
L 254.196364 -227.018319 
L 250.917025 -227.110119 
L 247.637686 -227.213265 
L 244.358347 -227.246528 
L 241.079008 -227.23666 
L 237.799669 -227.3137 
L 234.520331 -227.28008 
L 231.240992 -227.162728 
L 227.961653 -227.240824 
L 224.682314 -227.120017 
L 221.402975 -227.107385 
L 218.123636 -226.919233 
L 214.844298 -226.891709 
L 211.564959 -226.756748 
L 208.28562 -226.649017 
L 205.006281 -226.542393 
L 201.726942 -226.46598 
L 198.447603 -226.364882 
L 195.168264 -226.235181 
L 191.888926 -226.102671 
L 188.609587 -225.746941 
L 185.330248 -225.334103 
L 182.050909 -224.774192 
L 178.77157 -224.248305 
L 175.492231 -223.916009 
L 172.212893 -223.832716 
L 168.933554 -223.872843 
L 165.654215 -224.080519 
L 162.374876 -224.555435 
L 159.095537 -225.235398 
L 155.816198 -225.658226 
L 152.53686 -225.949559 
L 149.257521 -226.158134 
L 145.978182 -226.316536 
L 142.698843 -226.404444 
L 139.419504 -226.571595 
L 136.140165 -226.694905 
L 132.860826 -226.800035 
L 129.581488 -226.857685 
L 126.302149 -226.869278 
L 123.02281 -227.044856 
L 119.743471 -226.991239 
L 116.464132 -227.073534 
L 113.184793 -227.142211 
L 109.905455 -227.215492 
L 106.626116 -227.176657 
L 103.346777 -227.3084 
L 100.067438 -227.390361 
L 96.788099 -227.38202 
L 93.50876 -227.299552 
L 90.229421 -227.434357 
L 86.950083 -227.45646 
L 83.670744 -227.364382 
L 80.391405 -227.449919 
L 77.112066 -227.525495 
L 73.832727 -227.556889 
z
" style="stroke: #0000ff; stroke-opacity: 0.3"/>
    </defs>
    <g clip-path="url(#pf8a6ebb223)">
     <use xlink:href="#mfe266fc185" x="0" y="345.6" style="fill: #0000ff; fill-opacity: 0.3; stroke: #0000ff; stroke-opacity: 0.3"/>
    </g>
   </g>
   <g id="line2d_11">
    <path d="M 73.832727 154.246184 
L 77.112066 154.485928 
L 80.391405 154.218602 
L 83.670744 154.386701 
L 86.950083 154.40286 
L 90.229421 154.534809 
L 93.50876 154.352524 
L 96.788099 154.380659 
L 100.067438 154.469377 
L 103.346777 154.330928 
L 106.626116 154.704393 
L 109.905455 154.801207 
L 113.184793 154.822493 
L 116.464132 154.925138 
L 119.743471 155.386164 
L 123.02281 155.265637 
L 126.302149 155.982574 
L 129.581488 156.602611 
L 132.860826 157.319733 
L 136.140165 158.7079 
L 139.419504 159.799427 
L 142.698843 161.680098 
L 145.978182 163.755386 
L 149.257521 166.919663 
L 152.53686 170.503722 
L 155.816198 175.040539 
L 159.095537 181.526169 
L 162.374876 189.969112 
L 165.654215 194.34943 
L 168.933554 195.863996 
L 172.212893 196.296652 
L 175.492231 195.628916 
L 178.77157 192.91392 
L 182.050909 187.563728 
L 185.330248 179.048892 
L 188.609587 173.527537 
L 191.888926 168.847853 
L 195.168264 165.462197 
L 198.447603 163.477884 
L 201.726942 161.695887 
L 205.006281 160.326976 
L 208.28562 159.514721 
L 211.564959 158.251945 
L 214.844298 156.991972 
L 218.123636 156.559469 
L 221.402975 155.875118 
L 224.682314 155.440161 
L 227.961653 154.923352 
L 231.240992 154.851069 
L 234.520331 154.590889 
L 237.799669 154.158151 
L 241.079008 154.41922 
L 244.358347 154.405327 
L 247.637686 154.412612 
L 250.917025 155.198959 
L 254.196364 156.118876 
L 257.475702 156.634385 
L 260.755041 156.50187 
L 264.03438 156.119731 
L 267.313719 156.317885 
L 270.593058 156.527505 
L 273.872397 156.573211 
L 277.151736 156.452282 
L 280.431074 156.353723 
L 283.710413 156.403517 
L 286.989752 156.470817 
L 290.269091 156.345321 
L 293.54843 156.036875 
L 296.827769 155.87737 
L 300.107107 156.020327 
L 303.386446 155.761459 
L 306.665785 155.462478 
L 309.945124 155.772669 
L 313.224463 155.915265 
L 316.503802 156.284101 
L 319.78314 156.064386 
L 323.062479 156.556823 
L 326.341818 156.28398 
L 329.621157 155.867927 
L 332.900496 155.847104 
L 336.179835 155.418243 
L 339.459174 155.66344 
L 342.738512 155.667805 
L 346.017851 155.749522 
L 349.29719 155.629599 
L 352.576529 155.577958 
L 355.855868 155.600449 
L 359.135207 155.504988 
L 362.414545 155.538845 
L 365.693884 155.285893 
L 368.973223 155.113352 
L 372.252562 155.277207 
L 375.531901 155.319694 
L 378.81124 155.410245 
L 382.090579 155.255097 
L 385.369917 155.218387 
L 388.649256 154.960709 
L 391.928595 155.0476 
L 395.207934 154.937003 
L 398.487273 155.15355 
" clip-path="url(#pf8a6ebb223)" style="fill: none; stroke: #0000ff; stroke-width: 1.5; stroke-linecap: round"/>
   </g>
   <g id="LineCollection_1">
    <path d="M 172.212986 295.488 
L 172.212986 53.568 
" clip-path="url(#pf8a6ebb223)" style="fill: none; stroke-dasharray: 5.55,2.4; stroke-dashoffset: 0; stroke: #008000; stroke-width: 1.5"/>
    <path d="M 303.386665 295.488 
L 303.386665 53.568 
" clip-path="url(#pf8a6ebb223)" style="fill: none; stroke-dasharray: 5.55,2.4; stroke-dashoffset: 0; stroke: #008000; stroke-width: 1.5"/>
   </g>
   <g id="patch_3">
    <path d="M 57.6 307.584 
L 57.6 41.472 
" style="fill: none; stroke: #ffffff; stroke-width: 0.8; stroke-linejoin: miter; stroke-linecap: square"/>
   </g>
   <g id="patch_4">
    <path d="M 414.72 307.584 
L 414.72 41.472 
" style="fill: none; stroke: #ffffff; stroke-width: 0.8; stroke-linejoin: miter; stroke-linecap: square"/>
   </g>
   <g id="patch_5">
    <path d="M 57.6 307.584 
L 414.72 307.584 
" style="fill: none; stroke: #ffffff; stroke-width: 0.8; stroke-linejoin: miter; stroke-linecap: square"/>
   </g>
   <g id="patch_6">
    <path d="M 57.6 41.472 
L 414.72 41.472 
" style="fill: none; stroke: #ffffff; stroke-width: 0.8; stroke-linejoin: miter; stroke-linecap: square"/>
   </g>
   <g id="text_13">
    <!-- $\mu=1, \sigma^2=1, n=5$ -->
    <g style="fill: #262626" transform="translate(181.92 35.472) scale(0.12 -0.12)">
     <defs>
      <path id="DejaVuSans-Oblique-3bc" d="M -84 -1331 
L 856 3500 
L 1434 3500 
L 1009 1322 
Q 997 1256 987 1175 
Q 978 1094 978 1013 
Q 978 722 1161 565 
Q 1344 409 1684 409 
Q 2147 409 2431 671 
Q 2716 934 2816 1459 
L 3213 3500 
L 3788 3500 
L 3266 809 
Q 3253 750 3248 706 
Q 3244 663 3244 628 
Q 3244 531 3283 486 
Q 3322 441 3406 441 
Q 3438 441 3492 456 
Q 3547 472 3647 513 
L 3559 50 
Q 3422 -19 3297 -55 
Q 3172 -91 3053 -91 
Q 2847 -91 2730 40 
Q 2613 172 2613 403 
Q 2438 153 2195 31 
Q 1953 -91 1625 -91 
Q 1334 -91 1117 43 
Q 900 178 831 397 
L 494 -1331 
L -84 -1331 
z
" transform="scale(0.015625)"/>
      <path id="DejaVuSans-3d" d="M 678 2906 
L 4684 2906 
L 4684 2381 
L 678 2381 
L 678 2906 
z
M 678 1631 
L 4684 1631 
L 4684 1100 
L 678 1100 
L 678 1631 
z
" transform="scale(0.015625)"/>
      <path id="DejaVuSans-31" d="M 794 531 
L 1825 531 
L 1825 4091 
L 703 3866 
L 703 4441 
L 1819 4666 
L 2450 4666 
L 2450 531 
L 3481 531 
L 3481 0 
L 794 0 
L 794 531 
z
" transform="scale(0.015625)"/>
      <path id="DejaVuSans-2c" d="M 750 794 
L 1409 794 
L 1409 256 
L 897 -744 
L 494 -744 
L 750 256 
L 750 794 
z
" transform="scale(0.015625)"/>
      <path id="DejaVuSans-Oblique-3c3" d="M 2219 3044 
Q 1744 3044 1422 2700 
Q 1081 2341 969 1747 
Q 844 1119 1044 756 
Q 1241 397 1706 397 
Q 2166 397 2503 759 
Q 2844 1122 2966 1747 
Q 3075 2319 2881 2700 
Q 2700 3044 2219 3044 
z
M 2309 3503 
L 4219 3500 
L 4106 2925 
L 3463 2925 
Q 3706 2438 3575 1747 
Q 3406 888 2884 400 
Q 2359 -91 1609 -91 
Q 856 -91 525 400 
Q 194 888 363 1747 
Q 528 2609 1050 3097 
Q 1484 3503 2309 3503 
z
" transform="scale(0.015625)"/>
      <path id="DejaVuSans-32" d="M 1228 531 
L 3431 531 
L 3431 0 
L 469 0 
L 469 531 
Q 828 903 1448 1529 
Q 2069 2156 2228 2338 
Q 2531 2678 2651 2914 
Q 2772 3150 2772 3378 
Q 2772 3750 2511 3984 
Q 2250 4219 1831 4219 
Q 1534 4219 1204 4116 
Q 875 4013 500 3803 
L 500 4441 
Q 881 4594 1212 4672 
Q 1544 4750 1819 4750 
Q 2544 4750 2975 4387 
Q 3406 4025 3406 3419 
Q 3406 3131 3298 2873 
Q 3191 2616 2906 2266 
Q 2828 2175 2409 1742 
Q 1991 1309 1228 531 
z
" transform="scale(0.015625)"/>
      <path id="DejaVuSans-35" d="M 691 4666 
L 3169 4666 
L 3169 4134 
L 1269 4134 
L 1269 2991 
Q 1406 3038 1543 3061 
Q 1681 3084 1819 3084 
Q 2600 3084 3056 2656 
Q 3513 2228 3513 1497 
Q 3513 744 3044 326 
Q 2575 -91 1722 -91 
Q 1428 -91 1123 -41 
Q 819 9 494 109 
L 494 744 
Q 775 591 1075 516 
Q 1375 441 1709 441 
Q 2250 441 2565 725 
Q 2881 1009 2881 1497 
Q 2881 1984 2565 2268 
Q 2250 2553 1709 2553 
Q 1456 2553 1204 2497 
Q 953 2441 691 2322 
L 691 4666 
z
" transform="scale(0.015625)"/>
     </defs>
     <use xlink:href="#DejaVuSans-Oblique-3bc" transform="translate(0 0.765625)"/>
     <use xlink:href="#DejaVuSans-3d" transform="translate(83.105469 0.765625)"/>
     <use xlink:href="#DejaVuSans-31" transform="translate(186.376953 0.765625)"/>
     <use xlink:href="#DejaVuSans-2c" transform="translate(250 0.765625)"/>
     <use xlink:href="#DejaVuSans-Oblique-3c3" transform="translate(301.269531 0.765625)"/>
     <use xlink:href="#DejaVuSans-32" transform="translate(369.121146 39.046875) scale(0.7)"/>
     <use xlink:href="#DejaVuSans-3d" transform="translate(435.874076 0.765625)"/>
     <use xlink:href="#DejaVuSans-31" transform="translate(539.14556 0.765625)"/>
     <use xlink:href="#DejaVuSans-2c" transform="translate(602.768607 0.765625)"/>
     <use xlink:href="#DejaVuSans-Oblique-6e" transform="translate(654.038138 0.765625)"/>
     <use xlink:href="#DejaVuSans-3d" transform="translate(736.899466 0.765625)"/>
     <use xlink:href="#DejaVuSans-35" transform="translate(840.170951 0.765625)"/>
    </g>
   </g>
   <g id="legend_1">
    <g id="patch_7">
     <path d="M 64.6 302.584 
L 174.9 302.584 
Q 176.9 302.584 176.9 300.584 
L 176.9 244.393375 
Q 176.9 242.393375 174.9 242.393375 
L 64.6 242.393375 
Q 62.6 242.393375 62.6 244.393375 
L 62.6 300.584 
Q 62.6 302.584 64.6 302.584 
z
" style="fill: #eaeaf2; opacity: 0.8; stroke: #cccccc; stroke-linejoin: miter"/>
    </g>
    <g id="line2d_12">
     <path d="M 66.6 250.305875 
L 76.6 250.305875 
L 86.6 250.305875 
" style="fill: none; stroke: #0000ff; stroke-width: 1.5; stroke-linecap: round"/>
    </g>
    <g id="text_14">
     <!-- $E[x_{next}]$ -->
     <g style="fill: #262626" transform="translate(94.6 253.805875) scale(0.1 -0.1)">
      <defs>
       <path id="DejaVuSans-Oblique-45" d="M 1081 4666 
L 4031 4666 
L 3928 4134 
L 1606 4134 
L 1338 2753 
L 3566 2753 
L 3463 2222 
L 1234 2222 
L 909 531 
L 3284 531 
L 3181 0 
L 172 0 
L 1081 4666 
z
" transform="scale(0.015625)"/>
       <path id="DejaVuSans-5b" d="M 550 4863 
L 1875 4863 
L 1875 4416 
L 1125 4416 
L 1125 -397 
L 1875 -397 
L 1875 -844 
L 550 -844 
L 550 4863 
z
" transform="scale(0.015625)"/>
       <path id="DejaVuSans-5d" d="M 1947 4863 
L 1947 -844 
L 622 -844 
L 622 -397 
L 1369 -397 
L 1369 4416 
L 622 4416 
L 622 4863 
L 1947 4863 
z
" transform="scale(0.015625)"/>
      </defs>
      <use xlink:href="#DejaVuSans-Oblique-45" transform="translate(0 0.015625)"/>
      <use xlink:href="#DejaVuSans-5b" transform="translate(63.183594 0.015625)"/>
      <use xlink:href="#DejaVuSans-Oblique-78" transform="translate(102.197266 0.015625)"/>
      <use xlink:href="#DejaVuSans-Oblique-6e" transform="translate(161.376953 -16.390625) scale(0.7)"/>
      <use xlink:href="#DejaVuSans-Oblique-65" transform="translate(205.742188 -16.390625) scale(0.7)"/>
      <use xlink:href="#DejaVuSans-Oblique-78" transform="translate(248.808594 -16.390625) scale(0.7)"/>
      <use xlink:href="#DejaVuSans-Oblique-74" transform="translate(290.234375 -16.390625) scale(0.7)"/>
      <use xlink:href="#DejaVuSans-5d" transform="translate(320.415039 0.015625)"/>
     </g>
    </g>
    <g id="patch_8">
     <path d="M 66.6 267.951187 
L 86.6 267.951187 
L 86.6 260.951187 
L 66.6 260.951187 
z
" style="fill: #0000ff; fill-opacity: 0.5; stroke: #0000ff; stroke-opacity: 0.5; stroke-linejoin: miter"/>
    </g>
    <g id="text_15">
     <!-- 50% CI -->
     <g style="fill: #262626" transform="translate(94.6 267.951187) scale(0.1 -0.1)">
      <defs>
       <path id="ArialMT-35" d="M 266 1200 
L 856 1250 
Q 922 819 1161 601 
Q 1400 384 1738 384 
Q 2144 384 2425 690 
Q 2706 997 2706 1503 
Q 2706 1984 2436 2262 
Q 2166 2541 1728 2541 
Q 1456 2541 1237 2417 
Q 1019 2294 894 2097 
L 366 2166 
L 809 4519 
L 3088 4519 
L 3088 3981 
L 1259 3981 
L 1013 2750 
Q 1425 3038 1878 3038 
Q 2478 3038 2890 2622 
Q 3303 2206 3303 1553 
Q 3303 931 2941 478 
Q 2500 -78 1738 -78 
Q 1113 -78 717 272 
Q 322 622 266 1200 
z
" transform="scale(0.015625)"/>
       <path id="ArialMT-25" d="M 372 3481 
Q 372 3972 619 4315 
Q 866 4659 1334 4659 
Q 1766 4659 2048 4351 
Q 2331 4044 2331 3447 
Q 2331 2866 2045 2552 
Q 1759 2238 1341 2238 
Q 925 2238 648 2547 
Q 372 2856 372 3481 
z
M 1350 4272 
Q 1141 4272 1002 4090 
Q 863 3909 863 3425 
Q 863 2984 1003 2804 
Q 1144 2625 1350 2625 
Q 1563 2625 1702 2806 
Q 1841 2988 1841 3469 
Q 1841 3913 1700 4092 
Q 1559 4272 1350 4272 
z
M 1353 -169 
L 3859 4659 
L 4316 4659 
L 1819 -169 
L 1353 -169 
z
M 3334 1075 
Q 3334 1569 3581 1911 
Q 3828 2253 4300 2253 
Q 4731 2253 5014 1945 
Q 5297 1638 5297 1041 
Q 5297 459 5011 145 
Q 4725 -169 4303 -169 
Q 3888 -169 3611 142 
Q 3334 453 3334 1075 
z
M 4316 1866 
Q 4103 1866 3964 1684 
Q 3825 1503 3825 1019 
Q 3825 581 3965 400 
Q 4106 219 4313 219 
Q 4528 219 4667 400 
Q 4806 581 4806 1063 
Q 4806 1506 4665 1686 
Q 4525 1866 4316 1866 
z
" transform="scale(0.015625)"/>
       <path id="ArialMT-20" transform="scale(0.015625)"/>
       <path id="ArialMT-43" d="M 3763 1606 
L 4369 1453 
Q 4178 706 3683 314 
Q 3188 -78 2472 -78 
Q 1731 -78 1267 223 
Q 803 525 561 1097 
Q 319 1669 319 2325 
Q 319 3041 592 3573 
Q 866 4106 1370 4382 
Q 1875 4659 2481 4659 
Q 3169 4659 3637 4309 
Q 4106 3959 4291 3325 
L 3694 3184 
Q 3534 3684 3231 3912 
Q 2928 4141 2469 4141 
Q 1941 4141 1586 3887 
Q 1231 3634 1087 3207 
Q 944 2781 944 2328 
Q 944 1744 1114 1308 
Q 1284 872 1643 656 
Q 2003 441 2422 441 
Q 2931 441 3284 734 
Q 3638 1028 3763 1606 
z
" transform="scale(0.015625)"/>
       <path id="ArialMT-49" d="M 597 0 
L 597 4581 
L 1203 4581 
L 1203 0 
L 597 0 
z
" transform="scale(0.015625)"/>
      </defs>
      <use xlink:href="#ArialMT-35"/>
      <use xlink:href="#ArialMT-30" transform="translate(55.615234 0)"/>
      <use xlink:href="#ArialMT-25" transform="translate(111.230469 0)"/>
      <use xlink:href="#ArialMT-20" transform="translate(200.146484 0)"/>
      <use xlink:href="#ArialMT-43" transform="translate(227.929688 0)"/>
      <use xlink:href="#ArialMT-49" transform="translate(300.146484 0)"/>
     </g>
    </g>
    <g id="patch_9">
     <path d="M 66.6 282.0965 
L 86.6 282.0965 
L 86.6 275.0965 
L 66.6 275.0965 
z
" style="fill: #0000ff; fill-opacity: 0.3; stroke: #0000ff; stroke-opacity: 0.3; stroke-linejoin: miter"/>
    </g>
    <g id="text_16">
     <!-- 90% CI -->
     <g style="fill: #262626" transform="translate(94.6 282.0965) scale(0.1 -0.1)">
      <defs>
       <path id="ArialMT-39" d="M 350 1059 
L 891 1109 
Q 959 728 1153 556 
Q 1347 384 1650 384 
Q 1909 384 2104 503 
Q 2300 622 2425 820 
Q 2550 1019 2634 1356 
Q 2719 1694 2719 2044 
Q 2719 2081 2716 2156 
Q 2547 1888 2255 1720 
Q 1963 1553 1622 1553 
Q 1053 1553 659 1965 
Q 266 2378 266 3053 
Q 266 3750 677 4175 
Q 1088 4600 1706 4600 
Q 2153 4600 2523 4359 
Q 2894 4119 3086 3673 
Q 3278 3228 3278 2384 
Q 3278 1506 3087 986 
Q 2897 466 2520 194 
Q 2144 -78 1638 -78 
Q 1100 -78 759 220 
Q 419 519 350 1059 
z
M 2653 3081 
Q 2653 3566 2395 3850 
Q 2138 4134 1775 4134 
Q 1400 4134 1122 3828 
Q 844 3522 844 3034 
Q 844 2597 1108 2323 
Q 1372 2050 1759 2050 
Q 2150 2050 2401 2323 
Q 2653 2597 2653 3081 
z
" transform="scale(0.015625)"/>
      </defs>
      <use xlink:href="#ArialMT-39"/>
      <use xlink:href="#ArialMT-30" transform="translate(55.615234 0)"/>
      <use xlink:href="#ArialMT-25" transform="translate(111.230469 0)"/>
      <use xlink:href="#ArialMT-20" transform="translate(200.146484 0)"/>
      <use xlink:href="#ArialMT-43" transform="translate(227.929688 0)"/>
      <use xlink:href="#ArialMT-49" transform="translate(300.146484 0)"/>
     </g>
    </g>
    <g id="line2d_13">
     <path d="M 66.6 292.884 
L 86.6 292.884 
" style="fill: none; stroke-dasharray: 5.55,2.4; stroke-dashoffset: 0; stroke: #008000; stroke-width: 1.5"/>
    </g>
    <g id="text_17">
     <!-- modes of target $\pi$ -->
     <g style="fill: #262626" transform="translate(94.6 296.384) scale(0.1 -0.1)">
      <defs>
       <path id="ArialMT-6d" d="M 422 0 
L 422 3319 
L 925 3319 
L 925 2853 
Q 1081 3097 1340 3245 
Q 1600 3394 1931 3394 
Q 2300 3394 2536 3241 
Q 2772 3088 2869 2813 
Q 3263 3394 3894 3394 
Q 4388 3394 4653 3120 
Q 4919 2847 4919 2278 
L 4919 0 
L 4359 0 
L 4359 2091 
Q 4359 2428 4304 2576 
Q 4250 2725 4106 2815 
Q 3963 2906 3769 2906 
Q 3419 2906 3187 2673 
Q 2956 2441 2956 1928 
L 2956 0 
L 2394 0 
L 2394 2156 
Q 2394 2531 2256 2718 
Q 2119 2906 1806 2906 
Q 1569 2906 1367 2781 
Q 1166 2656 1075 2415 
Q 984 2175 984 1722 
L 984 0 
L 422 0 
z
" transform="scale(0.015625)"/>
       <path id="ArialMT-6f" d="M 213 1659 
Q 213 2581 725 3025 
Q 1153 3394 1769 3394 
Q 2453 3394 2887 2945 
Q 3322 2497 3322 1706 
Q 3322 1066 3130 698 
Q 2938 331 2570 128 
Q 2203 -75 1769 -75 
Q 1072 -75 642 372 
Q 213 819 213 1659 
z
M 791 1659 
Q 791 1022 1069 705 
Q 1347 388 1769 388 
Q 2188 388 2466 706 
Q 2744 1025 2744 1678 
Q 2744 2294 2464 2611 
Q 2184 2928 1769 2928 
Q 1347 2928 1069 2612 
Q 791 2297 791 1659 
z
" transform="scale(0.015625)"/>
       <path id="ArialMT-64" d="M 2575 0 
L 2575 419 
Q 2259 -75 1647 -75 
Q 1250 -75 917 144 
Q 584 363 401 755 
Q 219 1147 219 1656 
Q 219 2153 384 2558 
Q 550 2963 881 3178 
Q 1213 3394 1622 3394 
Q 1922 3394 2156 3267 
Q 2391 3141 2538 2938 
L 2538 4581 
L 3097 4581 
L 3097 0 
L 2575 0 
z
M 797 1656 
Q 797 1019 1065 703 
Q 1334 388 1700 388 
Q 2069 388 2326 689 
Q 2584 991 2584 1609 
Q 2584 2291 2321 2609 
Q 2059 2928 1675 2928 
Q 1300 2928 1048 2622 
Q 797 2316 797 1656 
z
" transform="scale(0.015625)"/>
       <path id="ArialMT-65" d="M 2694 1069 
L 3275 997 
Q 3138 488 2766 206 
Q 2394 -75 1816 -75 
Q 1088 -75 661 373 
Q 234 822 234 1631 
Q 234 2469 665 2931 
Q 1097 3394 1784 3394 
Q 2450 3394 2872 2941 
Q 3294 2488 3294 1666 
Q 3294 1616 3291 1516 
L 816 1516 
Q 847 969 1125 678 
Q 1403 388 1819 388 
Q 2128 388 2347 550 
Q 2566 713 2694 1069 
z
M 847 1978 
L 2700 1978 
Q 2663 2397 2488 2606 
Q 2219 2931 1791 2931 
Q 1403 2931 1139 2672 
Q 875 2413 847 1978 
z
" transform="scale(0.015625)"/>
       <path id="ArialMT-73" d="M 197 991 
L 753 1078 
Q 800 744 1014 566 
Q 1228 388 1613 388 
Q 2000 388 2187 545 
Q 2375 703 2375 916 
Q 2375 1106 2209 1216 
Q 2094 1291 1634 1406 
Q 1016 1563 777 1677 
Q 538 1791 414 1992 
Q 291 2194 291 2438 
Q 291 2659 392 2848 
Q 494 3038 669 3163 
Q 800 3259 1026 3326 
Q 1253 3394 1513 3394 
Q 1903 3394 2198 3281 
Q 2494 3169 2634 2976 
Q 2775 2784 2828 2463 
L 2278 2388 
Q 2241 2644 2061 2787 
Q 1881 2931 1553 2931 
Q 1166 2931 1000 2803 
Q 834 2675 834 2503 
Q 834 2394 903 2306 
Q 972 2216 1119 2156 
Q 1203 2125 1616 2013 
Q 2213 1853 2448 1751 
Q 2684 1650 2818 1456 
Q 2953 1263 2953 975 
Q 2953 694 2789 445 
Q 2625 197 2315 61 
Q 2006 -75 1616 -75 
Q 969 -75 630 194 
Q 291 463 197 991 
z
" transform="scale(0.015625)"/>
       <path id="ArialMT-66" d="M 556 0 
L 556 2881 
L 59 2881 
L 59 3319 
L 556 3319 
L 556 3672 
Q 556 4006 616 4169 
Q 697 4388 901 4523 
Q 1106 4659 1475 4659 
Q 1713 4659 2000 4603 
L 1916 4113 
Q 1741 4144 1584 4144 
Q 1328 4144 1222 4034 
Q 1116 3925 1116 3625 
L 1116 3319 
L 1763 3319 
L 1763 2881 
L 1116 2881 
L 1116 0 
L 556 0 
z
" transform="scale(0.015625)"/>
       <path id="ArialMT-74" d="M 1650 503 
L 1731 6 
Q 1494 -44 1306 -44 
Q 1000 -44 831 53 
Q 663 150 594 308 
Q 525 466 525 972 
L 525 2881 
L 113 2881 
L 113 3319 
L 525 3319 
L 525 4141 
L 1084 4478 
L 1084 3319 
L 1650 3319 
L 1650 2881 
L 1084 2881 
L 1084 941 
Q 1084 700 1114 631 
Q 1144 563 1211 522 
Q 1278 481 1403 481 
Q 1497 481 1650 503 
z
" transform="scale(0.015625)"/>
       <path id="ArialMT-61" d="M 2588 409 
Q 2275 144 1986 34 
Q 1697 -75 1366 -75 
Q 819 -75 525 192 
Q 231 459 231 875 
Q 231 1119 342 1320 
Q 453 1522 633 1644 
Q 813 1766 1038 1828 
Q 1203 1872 1538 1913 
Q 2219 1994 2541 2106 
Q 2544 2222 2544 2253 
Q 2544 2597 2384 2738 
Q 2169 2928 1744 2928 
Q 1347 2928 1158 2789 
Q 969 2650 878 2297 
L 328 2372 
Q 403 2725 575 2942 
Q 747 3159 1072 3276 
Q 1397 3394 1825 3394 
Q 2250 3394 2515 3294 
Q 2781 3194 2906 3042 
Q 3031 2891 3081 2659 
Q 3109 2516 3109 2141 
L 3109 1391 
Q 3109 606 3145 398 
Q 3181 191 3288 0 
L 2700 0 
Q 2613 175 2588 409 
z
M 2541 1666 
Q 2234 1541 1622 1453 
Q 1275 1403 1131 1340 
Q 988 1278 909 1158 
Q 831 1038 831 891 
Q 831 666 1001 516 
Q 1172 366 1500 366 
Q 1825 366 2078 508 
Q 2331 650 2450 897 
Q 2541 1088 2541 1459 
L 2541 1666 
z
" transform="scale(0.015625)"/>
       <path id="ArialMT-72" d="M 416 0 
L 416 3319 
L 922 3319 
L 922 2816 
Q 1116 3169 1280 3281 
Q 1444 3394 1641 3394 
Q 1925 3394 2219 3213 
L 2025 2691 
Q 1819 2813 1613 2813 
Q 1428 2813 1281 2702 
Q 1134 2591 1072 2394 
Q 978 2094 978 1738 
L 978 0 
L 416 0 
z
" transform="scale(0.015625)"/>
       <path id="ArialMT-67" d="M 319 -275 
L 866 -356 
Q 900 -609 1056 -725 
Q 1266 -881 1628 -881 
Q 2019 -881 2231 -725 
Q 2444 -569 2519 -288 
Q 2563 -116 2559 434 
Q 2191 0 1641 0 
Q 956 0 581 494 
Q 206 988 206 1678 
Q 206 2153 378 2554 
Q 550 2956 876 3175 
Q 1203 3394 1644 3394 
Q 2231 3394 2613 2919 
L 2613 3319 
L 3131 3319 
L 3131 450 
Q 3131 -325 2973 -648 
Q 2816 -972 2473 -1159 
Q 2131 -1347 1631 -1347 
Q 1038 -1347 672 -1080 
Q 306 -813 319 -275 
z
M 784 1719 
Q 784 1066 1043 766 
Q 1303 466 1694 466 
Q 2081 466 2343 764 
Q 2606 1063 2606 1700 
Q 2606 2309 2336 2618 
Q 2066 2928 1684 2928 
Q 1309 2928 1046 2623 
Q 784 2319 784 1719 
z
" transform="scale(0.015625)"/>
       <path id="DejaVuSans-Oblique-3c0" d="M 584 3500 
L 3938 3500 
L 3825 2925 
L 3384 2925 
L 2966 775 
Q 2922 550 2981 450 
Q 3038 353 3209 353 
Q 3256 353 3325 363 
Q 3397 369 3419 372 
L 3338 -44 
Q 3222 -84 3103 -103 
Q 2981 -122 2866 -122 
Q 2491 -122 2388 81 
Q 2284 288 2391 838 
L 2797 2925 
L 1506 2925 
L 938 0 
L 350 0 
L 919 2925 
L 472 2925 
L 584 3500 
z
" transform="scale(0.015625)"/>
      </defs>
      <use xlink:href="#ArialMT-6d" transform="translate(0 0.203125)"/>
      <use xlink:href="#ArialMT-6f" transform="translate(83.300781 0.203125)"/>
      <use xlink:href="#ArialMT-64" transform="translate(138.916016 0.203125)"/>
      <use xlink:href="#ArialMT-65" transform="translate(194.53125 0.203125)"/>
      <use xlink:href="#ArialMT-73" transform="translate(250.146484 0.203125)"/>
      <use xlink:href="#ArialMT-20" transform="translate(300.146484 0.203125)"/>
      <use xlink:href="#ArialMT-6f" transform="translate(327.929688 0.203125)"/>
      <use xlink:href="#ArialMT-66" transform="translate(383.544922 0.203125)"/>
      <use xlink:href="#ArialMT-20" transform="translate(411.328125 0.203125)"/>
      <use xlink:href="#ArialMT-74" transform="translate(439.111328 0.203125)"/>
      <use xlink:href="#ArialMT-61" transform="translate(466.894531 0.203125)"/>
      <use xlink:href="#ArialMT-72" transform="translate(522.509766 0.203125)"/>
      <use xlink:href="#ArialMT-67" transform="translate(555.810547 0.203125)"/>
      <use xlink:href="#ArialMT-65" transform="translate(611.425781 0.203125)"/>
      <use xlink:href="#ArialMT-74" transform="translate(667.041016 0.203125)"/>
      <use xlink:href="#ArialMT-20" transform="translate(694.824219 0.203125)"/>
      <use xlink:href="#DejaVuSans-Oblique-3c0" transform="translate(722.607422 0.203125)"/>
     </g>
    </g>
   </g>
  </g>
 </g>
 <defs>
  <clipPath id="pf8a6ebb223">
   <rect x="57.6" y="41.472" width="357.12" height="266.112"/>
  </clipPath>
 </defs>
</svg>
