<?xml version="1.0" encoding="utf-8" standalone="no"?>
<!DOCTYPE svg PUBLIC "-//W3C//DTD SVG 1.1//EN"
  "http://www.w3.org/Graphics/SVG/1.1/DTD/svg11.dtd">
<svg xmlns:xlink="http://www.w3.org/1999/xlink" width="460.8pt" height="345.6pt" viewBox="0 0 460.8 345.6" xmlns="http://www.w3.org/2000/svg" version="1.1">
 <metadata>
  <rdf:RDF xmlns:dc="http://purl.org/dc/elements/1.1/" xmlns:cc="http://creativecommons.org/ns#" xmlns:rdf="http://www.w3.org/1999/02/22-rdf-syntax-ns#">
   <cc:Work>
    <dc:type rdf:resource="http://purl.org/dc/dcmitype/StillImage"/>
    <dc:date>2025-04-06T14:06:31.886500</dc:date>
    <dc:format>image/svg+xml</dc:format>
    <dc:creator>
     <cc:Agent>
      <dc:title>Matplotlib v3.10.1, https://matplotlib.org/</dc:title>
     </cc:Agent>
    </dc:creator>
   </cc:Work>
  </rdf:RDF>
 </metadata>
 <defs>
  <style type="text/css">*{stroke-linejoin: round; stroke-linecap: butt}</style>
 </defs>
 <g id="figure_1">
  <g id="patch_1">
   <path d="M 0 345.6 
L 460.8 345.6 
L 460.8 0 
L 0 0 
z
" style="fill: #ffffff"/>
  </g>
  <g id="axes_1">
   <g id="patch_2">
    <path d="M 57.6 307.584 
L 414.72 307.584 
L 414.72 41.472 
L 57.6 41.472 
z
" style="fill: #eaeaf2"/>
   </g>
   <g id="matplotlib.axis_1">
    <g id="xtick_1">
     <g id="line2d_1">
      <path d="M 106.626147 307.584 
L 106.626147 41.472 
" clip-path="url(#pa3b3a3032d)" style="fill: none; stroke: #ffffff; stroke-width: 0.8; stroke-linecap: round"/>
     </g>
     <g id="text_1">
      <!-- −2 -->
      <g style="fill: #262626" transform="translate(100.925366 321.741812) scale(0.1 -0.1)">
       <defs>
        <path id="ArialMT-2212" d="M 3381 1997 
L 356 1997 
L 356 2522 
L 3381 2522 
L 3381 1997 
z
" transform="scale(0.015625)"/>
        <path id="ArialMT-32" d="M 3222 541 
L 3222 0 
L 194 0 
Q 188 203 259 391 
Q 375 700 629 1000 
Q 884 1300 1366 1694 
Q 2113 2306 2375 2664 
Q 2638 3022 2638 3341 
Q 2638 3675 2398 3904 
Q 2159 4134 1775 4134 
Q 1369 4134 1125 3890 
Q 881 3647 878 3216 
L 300 3275 
Q 359 3922 746 4261 
Q 1134 4600 1788 4600 
Q 2447 4600 2831 4234 
Q 3216 3869 3216 3328 
Q 3216 3053 3103 2787 
Q 2991 2522 2730 2228 
Q 2469 1934 1863 1422 
Q 1356 997 1212 845 
Q 1069 694 975 541 
L 3222 541 
z
" transform="scale(0.015625)"/>
       </defs>
       <use xlink:href="#ArialMT-2212"/>
       <use xlink:href="#ArialMT-32" transform="translate(58.398438 0)"/>
      </g>
     </g>
    </g>
    <g id="xtick_2">
     <g id="line2d_2">
      <path d="M 172.212986 307.584 
L 172.212986 41.472 
" clip-path="url(#pa3b3a3032d)" style="fill: none; stroke: #ffffff; stroke-width: 0.8; stroke-linecap: round"/>
     </g>
     <g id="text_2">
      <!-- −1 -->
      <g style="fill: #262626" transform="translate(166.512205 321.741812) scale(0.1 -0.1)">
       <defs>
        <path id="ArialMT-31" d="M 2384 0 
L 1822 0 
L 1822 3584 
Q 1619 3391 1289 3197 
Q 959 3003 697 2906 
L 697 3450 
Q 1169 3672 1522 3987 
Q 1875 4303 2022 4600 
L 2384 4600 
L 2384 0 
z
" transform="scale(0.015625)"/>
       </defs>
       <use xlink:href="#ArialMT-2212"/>
       <use xlink:href="#ArialMT-31" transform="translate(58.398438 0)"/>
      </g>
     </g>
    </g>
    <g id="xtick_3">
     <g id="line2d_3">
      <path d="M 237.799826 307.584 
L 237.799826 41.472 
" clip-path="url(#pa3b3a3032d)" style="fill: none; stroke: #ffffff; stroke-width: 0.8; stroke-linecap: round"/>
     </g>
     <g id="text_3">
      <!-- 0 -->
      <g style="fill: #262626" transform="translate(235.019357 321.741812) scale(0.1 -0.1)">
       <defs>
        <path id="ArialMT-30" d="M 266 2259 
Q 266 3072 433 3567 
Q 600 4063 929 4331 
Q 1259 4600 1759 4600 
Q 2128 4600 2406 4451 
Q 2684 4303 2865 4023 
Q 3047 3744 3150 3342 
Q 3253 2941 3253 2259 
Q 3253 1453 3087 958 
Q 2922 463 2592 192 
Q 2263 -78 1759 -78 
Q 1097 -78 719 397 
Q 266 969 266 2259 
z
M 844 2259 
Q 844 1131 1108 757 
Q 1372 384 1759 384 
Q 2147 384 2411 759 
Q 2675 1134 2675 2259 
Q 2675 3391 2411 3762 
Q 2147 4134 1753 4134 
Q 1366 4134 1134 3806 
Q 844 3388 844 2259 
z
" transform="scale(0.015625)"/>
       </defs>
       <use xlink:href="#ArialMT-30"/>
      </g>
     </g>
    </g>
    <g id="xtick_4">
     <g id="line2d_4">
      <path d="M 303.386665 307.584 
L 303.386665 41.472 
" clip-path="url(#pa3b3a3032d)" style="fill: none; stroke: #ffffff; stroke-width: 0.8; stroke-linecap: round"/>
     </g>
     <g id="text_4">
      <!-- 1 -->
      <g style="fill: #262626" transform="translate(300.606196 321.741812) scale(0.1 -0.1)">
       <use xlink:href="#ArialMT-31"/>
      </g>
     </g>
    </g>
    <g id="xtick_5">
     <g id="line2d_5">
      <path d="M 368.973505 307.584 
L 368.973505 41.472 
" clip-path="url(#pa3b3a3032d)" style="fill: none; stroke: #ffffff; stroke-width: 0.8; stroke-linecap: round"/>
     </g>
     <g id="text_5">
      <!-- 2 -->
      <g style="fill: #262626" transform="translate(366.193036 321.741812) scale(0.1 -0.1)">
       <use xlink:href="#ArialMT-32"/>
      </g>
     </g>
    </g>
    <g id="text_6">
     <!-- $x$ -->
     <g style="fill: #262626" transform="translate(233.16 334.887125) scale(0.1 -0.1)">
      <defs>
       <path id="DejaVuSans-Oblique-78" d="M 3841 3500 
L 2234 1784 
L 3219 0 
L 2559 0 
L 1819 1388 
L 531 0 
L -166 0 
L 1556 1844 
L 641 3500 
L 1300 3500 
L 1972 2234 
L 3144 3500 
L 3841 3500 
z
" transform="scale(0.015625)"/>
      </defs>
      <use xlink:href="#DejaVuSans-Oblique-78" transform="translate(0 0.3125)"/>
     </g>
    </g>
   </g>
   <g id="matplotlib.axis_2">
    <g id="ytick_1">
     <g id="line2d_6">
      <path d="M 57.6 271.296 
L 414.72 271.296 
" clip-path="url(#pa3b3a3032d)" style="fill: none; stroke: #ffffff; stroke-width: 0.8; stroke-linecap: round"/>
     </g>
     <g id="text_7">
      <!-- −2 -->
      <g style="fill: #262626" transform="translate(39.198437 274.874906) scale(0.1 -0.1)">
       <use xlink:href="#ArialMT-2212"/>
       <use xlink:href="#ArialMT-32" transform="translate(58.398438 0)"/>
      </g>
     </g>
    </g>
    <g id="ytick_2">
     <g id="line2d_7">
      <path d="M 57.6 222.912 
L 414.72 222.912 
" clip-path="url(#pa3b3a3032d)" style="fill: none; stroke: #ffffff; stroke-width: 0.8; stroke-linecap: round"/>
     </g>
     <g id="text_8">
      <!-- −1 -->
      <g style="fill: #262626" transform="translate(39.198437 226.490906) scale(0.1 -0.1)">
       <use xlink:href="#ArialMT-2212"/>
       <use xlink:href="#ArialMT-31" transform="translate(58.398438 0)"/>
      </g>
     </g>
    </g>
    <g id="ytick_3">
     <g id="line2d_8">
      <path d="M 57.6 174.528 
L 414.72 174.528 
" clip-path="url(#pa3b3a3032d)" style="fill: none; stroke: #ffffff; stroke-width: 0.8; stroke-linecap: round"/>
     </g>
     <g id="text_9">
      <!-- 0 -->
      <g style="fill: #262626" transform="translate(45.039062 178.106906) scale(0.1 -0.1)">
       <use xlink:href="#ArialMT-30"/>
      </g>
     </g>
    </g>
    <g id="ytick_4">
     <g id="line2d_9">
      <path d="M 57.6 126.144 
L 414.72 126.144 
" clip-path="url(#pa3b3a3032d)" style="fill: none; stroke: #ffffff; stroke-width: 0.8; stroke-linecap: round"/>
     </g>
     <g id="text_10">
      <!-- 1 -->
      <g style="fill: #262626" transform="translate(45.039062 129.722906) scale(0.1 -0.1)">
       <use xlink:href="#ArialMT-31"/>
      </g>
     </g>
    </g>
    <g id="ytick_5">
     <g id="line2d_10">
      <path d="M 57.6 77.76 
L 414.72 77.76 
" clip-path="url(#pa3b3a3032d)" style="fill: none; stroke: #ffffff; stroke-width: 0.8; stroke-linecap: round"/>
     </g>
     <g id="text_11">
      <!-- 2 -->
      <g style="fill: #262626" transform="translate(45.039062 81.338906) scale(0.1 -0.1)">
       <use xlink:href="#ArialMT-32"/>
      </g>
     </g>
    </g>
    <g id="text_12">
     <!-- $x_{next}$ -->
     <g style="fill: #262626" transform="translate(33.210938 185.478) rotate(-90) scale(0.1 -0.1)">
      <defs>
       <path id="DejaVuSans-Oblique-6e" d="M 3566 2113 
L 3156 0 
L 2578 0 
L 2988 2091 
Q 3016 2238 3031 2350 
Q 3047 2463 3047 2528 
Q 3047 2791 2881 2937 
Q 2716 3084 2419 3084 
Q 1956 3084 1622 2776 
Q 1288 2469 1184 1941 
L 800 0 
L 225 0 
L 903 3500 
L 1478 3500 
L 1363 2950 
Q 1603 3253 1940 3418 
Q 2278 3584 2650 3584 
Q 3113 3584 3367 3334 
Q 3622 3084 3622 2631 
Q 3622 2519 3608 2391 
Q 3594 2263 3566 2113 
z
" transform="scale(0.015625)"/>
       <path id="DejaVuSans-Oblique-65" d="M 3078 2063 
Q 3088 2113 3092 2166 
Q 3097 2219 3097 2272 
Q 3097 2653 2873 2875 
Q 2650 3097 2266 3097 
Q 1838 3097 1509 2826 
Q 1181 2556 1013 2059 
L 3078 2063 
z
M 3578 1613 
L 903 1613 
Q 884 1494 878 1425 
Q 872 1356 872 1306 
Q 872 872 1139 634 
Q 1406 397 1894 397 
Q 2269 397 2603 481 
Q 2938 566 3225 728 
L 3116 159 
Q 2806 34 2476 -28 
Q 2147 -91 1806 -91 
Q 1078 -91 686 257 
Q 294 606 294 1247 
Q 294 1794 489 2264 
Q 684 2734 1063 3103 
Q 1306 3334 1642 3459 
Q 1978 3584 2356 3584 
Q 2950 3584 3301 3228 
Q 3653 2872 3653 2272 
Q 3653 2128 3634 1964 
Q 3616 1800 3578 1613 
z
" transform="scale(0.015625)"/>
       <path id="DejaVuSans-Oblique-74" d="M 2706 3500 
L 2619 3053 
L 1472 3053 
L 1100 1153 
Q 1081 1047 1072 975 
Q 1063 903 1063 863 
Q 1063 663 1183 572 
Q 1303 481 1569 481 
L 2150 481 
L 2053 0 
L 1503 0 
Q 991 0 739 200 
Q 488 400 488 806 
Q 488 878 497 964 
Q 506 1050 525 1153 
L 897 3053 
L 409 3053 
L 500 3500 
L 978 3500 
L 1172 4494 
L 1747 4494 
L 1556 3500 
L 2706 3500 
z
" transform="scale(0.015625)"/>
      </defs>
      <use xlink:href="#DejaVuSans-Oblique-78" transform="translate(0 0.3125)"/>
      <use xlink:href="#DejaVuSans-Oblique-6e" transform="translate(59.179688 -16.09375) scale(0.7)"/>
      <use xlink:href="#DejaVuSans-Oblique-65" transform="translate(103.544922 -16.09375) scale(0.7)"/>
      <use xlink:href="#DejaVuSans-Oblique-78" transform="translate(146.611328 -16.09375) scale(0.7)"/>
      <use xlink:href="#DejaVuSans-Oblique-74" transform="translate(188.037109 -16.09375) scale(0.7)"/>
     </g>
    </g>
   </g>
   <g id="FillBetweenPolyCollection_1">
    <defs>
     <path id="m4ea40c4142" d="M 73.832727 -246.681009 
L 73.832727 -183.964718 
L 77.112066 -183.540058 
L 80.391405 -184.122554 
L 83.670744 -184.309181 
L 86.950083 -184.16546 
L 90.229421 -184.291653 
L 93.50876 -184.030178 
L 96.788099 -183.927438 
L 100.067438 -183.922074 
L 103.346777 -184.202289 
L 106.626116 -184.446043 
L 109.905455 -187.331445 
L 113.184793 -189.587077 
L 116.464132 -191.750481 
L 119.743471 -192.311068 
L 123.02281 -192.059075 
L 126.302149 -191.96353 
L 129.581488 -191.954096 
L 132.860826 -192.080003 
L 136.140165 -146.486464 
L 139.419504 -141.242531 
L 142.698843 -135.829556 
L 145.978182 -130.649564 
L 149.257521 -126.650402 
L 152.53686 -123.667417 
L 155.816198 -121.403287 
L 159.095537 -119.859898 
L 162.374876 -119.077043 
L 165.654215 -119.478478 
L 168.933554 -120.144229 
L 172.212893 -120.358342 
L 175.492231 -119.906156 
L 178.77157 -119.345622 
L 182.050909 -119.222554 
L 185.330248 -120.373442 
L 188.609587 -122.284495 
L 191.888926 -124.646654 
L 195.168264 -128.053845 
L 198.447603 -131.433377 
L 201.726942 -135.028798 
L 205.006281 -138.794517 
L 208.28562 -143.422092 
L 211.564959 -148.851625 
L 214.844298 -153.694714 
L 218.123636 -186.361542 
L 221.402975 -185.904705 
L 224.682314 -185.117155 
L 227.961653 -184.263842 
L 231.240992 -183.044915 
L 234.520331 -183.237967 
L 237.799669 -184.181464 
L 241.079008 -184.032366 
L 244.358347 -184.781987 
L 247.637686 -185.248191 
L 250.917025 -185.626474 
L 254.196364 -186.249221 
L 257.475702 -187.903936 
L 260.755041 -190.760412 
L 264.03438 -193.956224 
L 267.313719 -196.820291 
L 270.593058 -199.477879 
L 273.872397 -201.670251 
L 277.151736 -203.926779 
L 280.431074 -206.158294 
L 283.710413 -208.052617 
L 286.989752 -209.957885 
L 290.269091 -211.641671 
L 293.54843 -213.161639 
L 296.827769 -214.610917 
L 300.107107 -215.577624 
L 303.386446 -215.998946 
L 306.665785 -215.673733 
L 309.945124 -214.619101 
L 313.224463 -213.266478 
L 316.503802 -211.641296 
L 319.78314 -210.07188 
L 323.062479 -208.197805 
L 326.341818 -206.514215 
L 329.621157 -205.41024 
L 332.900496 -203.441102 
L 336.179835 -201.206731 
L 339.459174 -198.937967 
L 342.738512 -196.536555 
L 346.017851 -193.973695 
L 349.29719 -190.916999 
L 352.576529 -188.03676 
L 355.855868 -184.903076 
L 359.135207 -181.411271 
L 362.414545 -177.2338 
L 365.693884 -170.908055 
L 368.973223 -169.157978 
L 372.252562 -168.572095 
L 375.531901 -168.761266 
L 378.81124 -168.357894 
L 382.090579 -167.91964 
L 385.369917 -167.700976 
L 388.649256 -167.532125 
L 391.928595 -167.259198 
L 395.207934 -167.255161 
L 398.487273 -166.758313 
L 398.487273 -234.892607 
L 398.487273 -234.892607 
L 395.207934 -234.337074 
L 391.928595 -233.823674 
L 388.649256 -232.786845 
L 385.369917 -232.077143 
L 382.090579 -231.059336 
L 378.81124 -230.636848 
L 375.531901 -229.718969 
L 372.252562 -228.813421 
L 368.973223 -227.810633 
L 365.693884 -227.710953 
L 362.414545 -228.203618 
L 359.135207 -228.286173 
L 355.855868 -228.53258 
L 352.576529 -228.109498 
L 349.29719 -228.240111 
L 346.017851 -228.051439 
L 342.738512 -227.858638 
L 339.459174 -228.118352 
L 336.179835 -228.184238 
L 332.900496 -228.072238 
L 329.621157 -227.889721 
L 326.341818 -226.893526 
L 323.062479 -226.043026 
L 319.78314 -225.319482 
L 316.503802 -224.400581 
L 313.224463 -223.600959 
L 309.945124 -222.748227 
L 306.665785 -221.937652 
L 303.386446 -221.530951 
L 300.107107 -221.895045 
L 296.827769 -222.748838 
L 293.54843 -223.587566 
L 290.269091 -224.398464 
L 286.989752 -225.322585 
L 283.710413 -225.991652 
L 280.431074 -226.83053 
L 277.151736 -227.40418 
L 273.872397 -228.027088 
L 270.593058 -228.65533 
L 267.313719 -229.150879 
L 264.03438 -229.61633 
L 260.755041 -229.840572 
L 257.475702 -230.326609 
L 254.196364 -231.020495 
L 250.917025 -232.01545 
L 247.637686 -232.770591 
L 244.358347 -233.657728 
L 241.079008 -234.353449 
L 237.799669 -235.004665 
L 234.520331 -234.119961 
L 231.240992 -233.097177 
L 227.961653 -231.924059 
L 224.682314 -230.84648 
L 221.402975 -229.979749 
L 218.123636 -228.37115 
L 214.844298 -227.149185 
L 211.564959 -225.742136 
L 208.28562 -224.321833 
L 205.006281 -222.829115 
L 201.726942 -222.581958 
L 198.447603 -222.129028 
L 195.168264 -221.373657 
L 191.888926 -219.590979 
L 188.609587 -217.514984 
L 185.330248 -215.177412 
L 182.050909 -130.264807 
L 178.77157 -127.414505 
L 175.492231 -125.949447 
L 172.212893 -125.299258 
L 168.933554 -125.650054 
L 165.654215 -126.829394 
L 162.374876 -129.007142 
L 159.095537 -213.703921 
L 155.816198 -216.690724 
L 152.53686 -218.885447 
L 149.257521 -220.708777 
L 145.978182 -222.509422 
L 142.698843 -223.985575 
L 139.419504 -224.535998 
L 136.140165 -225.115485 
L 132.860826 -225.930554 
L 129.581488 -226.975198 
L 126.302149 -228.509993 
L 123.02281 -229.854709 
L 119.743471 -231.302201 
L 116.464132 -232.259873 
L 113.184793 -234.204056 
L 109.905455 -235.580385 
L 106.626116 -236.542378 
L 103.346777 -237.751353 
L 100.067438 -238.73246 
L 96.788099 -239.961554 
L 93.50876 -241.08433 
L 90.229421 -242.157174 
L 86.950083 -243.518097 
L 83.670744 -244.416424 
L 80.391405 -245.025073 
L 77.112066 -245.994471 
L 73.832727 -246.681009 
z
" style="stroke: #0000ff; stroke-opacity: 0.5"/>
    </defs>
    <g clip-path="url(#pa3b3a3032d)">
     <use xlink:href="#m4ea40c4142" x="0" y="345.6" style="fill: #0000ff; fill-opacity: 0.5; stroke: #0000ff; stroke-opacity: 0.5"/>
    </g>
   </g>
   <g id="FillBetweenPolyCollection_2">
    <defs>
     <path id="md47df3df29" d="M 73.832727 -278.772134 
L 73.832727 -108.010553 
L 77.112066 -108.21519 
L 80.391405 -109.648586 
L 83.670744 -111.450212 
L 86.950083 -111.179591 
L 90.229421 -113.111264 
L 93.50876 -114.580974 
L 96.788099 -115.111181 
L 100.067438 -115.975149 
L 103.346777 -117.215709 
L 106.626116 -117.630047 
L 109.905455 -117.794597 
L 113.184793 -118.52553 
L 116.464132 -117.750375 
L 119.743471 -117.879401 
L 123.02281 -117.283677 
L 126.302149 -114.862155 
L 129.581488 -112.638366 
L 132.860826 -110.645808 
L 136.140165 -109.498115 
L 139.419504 -109.296138 
L 142.698843 -109.187264 
L 145.978182 -109.18877 
L 149.257521 -109.612647 
L 152.53686 -110.678339 
L 155.816198 -111.777864 
L 159.095537 -113.159004 
L 162.374876 -114.52603 
L 165.654215 -115.597507 
L 168.933554 -116.251318 
L 172.212893 -116.438426 
L 175.492231 -116.101764 
L 178.77157 -115.319209 
L 182.050909 -114.184471 
L 185.330248 -112.766694 
L 188.609587 -111.474217 
L 191.888926 -110.25002 
L 195.168264 -109.442329 
L 198.447603 -108.772673 
L 201.726942 -108.194172 
L 205.006281 -107.828873 
L 208.28562 -108.777166 
L 211.564959 -109.570236 
L 214.844298 -110.42734 
L 218.123636 -110.954819 
L 221.402975 -112.366021 
L 224.682314 -114.272269 
L 227.961653 -115.433718 
L 231.240992 -117.494168 
L 234.520331 -117.905616 
L 237.799669 -121.163599 
L 241.079008 -121.850085 
L 244.358347 -122.400163 
L 247.637686 -122.934716 
L 250.917025 -123.776656 
L 254.196364 -117.479922 
L 257.475702 -112.316729 
L 260.755041 -112.628947 
L 264.03438 -113.670598 
L 267.313719 -114.717458 
L 270.593058 -116.058604 
L 273.872397 -117.173362 
L 277.151736 -118.33916 
L 280.431074 -119.476402 
L 283.710413 -120.644363 
L 286.989752 -121.41165 
L 290.269091 -122.780545 
L 293.54843 -123.37115 
L 296.827769 -123.946452 
L 300.107107 -124.243414 
L 303.386446 -124.38898 
L 306.665785 -124.432642 
L 309.945124 -123.977186 
L 313.224463 -123.706499 
L 316.503802 -123.013308 
L 319.78314 -122.197308 
L 323.062479 -120.936445 
L 326.341818 -119.935578 
L 329.621157 -122.004611 
L 332.900496 -122.09873 
L 336.179835 -120.435337 
L 339.459174 -119.557491 
L 342.738512 -117.866948 
L 346.017851 -116.542778 
L 349.29719 -114.933353 
L 352.576529 -113.93999 
L 355.855868 -112.899792 
L 359.135207 -111.440562 
L 362.414545 -109.779129 
L 365.693884 -109.143048 
L 368.973223 -107.709975 
L 372.252562 -106.371661 
L 375.531901 -105.305964 
L 378.81124 -103.505757 
L 382.090579 -102.238077 
L 385.369917 -101.367499 
L 388.649256 -98.912708 
L 391.928595 -98.547668 
L 395.207934 -97.60276 
L 398.487273 -95.875211 
L 398.487273 -273.325441 
L 398.487273 -273.325441 
L 395.207934 -271.449249 
L 391.928595 -269.997442 
L 388.649256 -267.990425 
L 385.369917 -266.452989 
L 382.090579 -264.760935 
L 378.81124 -263.221682 
L 375.531901 -261.019671 
L 372.252562 -259.341829 
L 368.973223 -257.667817 
L 365.693884 -256.043212 
L 362.414545 -254.40902 
L 359.135207 -252.954768 
L 355.855868 -251.328865 
L 352.576529 -249.683657 
L 349.29719 -247.959113 
L 346.017851 -246.12885 
L 342.738512 -244.267643 
L 339.459174 -242.564999 
L 336.179835 -240.77991 
L 332.900496 -238.982437 
L 329.621157 -237.273397 
L 326.341818 -235.373551 
L 323.062479 -233.458588 
L 319.78314 -231.570763 
L 316.503802 -229.688763 
L 313.224463 -228.148933 
L 309.945124 -226.897264 
L 306.665785 -226.107118 
L 303.386446 -225.775388 
L 300.107107 -226.060889 
L 296.827769 -226.888445 
L 293.54843 -228.095656 
L 290.269091 -229.700344 
L 286.989752 -231.532384 
L 283.710413 -233.392754 
L 280.431074 -235.355273 
L 277.151736 -237.233553 
L 273.872397 -239.204216 
L 270.593058 -241.112823 
L 267.313719 -242.990255 
L 264.03438 -244.813723 
L 260.755041 -246.549595 
L 257.475702 -248.489602 
L 254.196364 -250.441393 
L 250.917025 -252.255783 
L 247.637686 -254.160144 
L 244.358347 -256.141772 
L 241.079008 -257.987394 
L 237.799669 -259.52137 
L 234.520331 -257.702735 
L 231.240992 -255.755939 
L 227.961653 -253.868506 
L 224.682314 -251.91596 
L 221.402975 -249.995292 
L 218.123636 -247.615091 
L 214.844298 -245.663981 
L 211.564959 -243.477186 
L 208.28562 -241.235989 
L 205.006281 -238.979559 
L 201.726942 -236.831916 
L 198.447603 -234.589191 
L 195.168264 -232.783084 
L 191.888926 -230.501622 
L 188.609587 -227.928758 
L 185.330248 -225.171623 
L 182.050909 -222.118242 
L 178.77157 -218.639914 
L 175.492231 -214.173805 
L 172.212893 -135.729418 
L 168.933554 -212.012239 
L 165.654215 -217.441176 
L 162.374876 -221.002238 
L 159.095537 -224.116729 
L 155.816198 -227.09555 
L 152.53686 -229.706366 
L 149.257521 -232.215392 
L 145.978182 -234.418117 
L 142.698843 -236.502147 
L 139.419504 -238.299545 
L 136.140165 -240.609788 
L 132.860826 -242.844802 
L 129.581488 -244.872786 
L 126.302149 -247.221224 
L 123.02281 -249.398438 
L 119.743471 -251.438073 
L 116.464132 -253.324433 
L 113.184793 -255.416959 
L 109.905455 -257.846002 
L 106.626116 -259.55991 
L 103.346777 -261.706648 
L 100.067438 -263.684907 
L 96.788099 -265.702543 
L 93.50876 -267.48431 
L 90.229421 -269.931724 
L 86.950083 -271.608799 
L 83.670744 -273.451468 
L 80.391405 -275.56316 
L 77.112066 -277.050405 
L 73.832727 -278.772134 
z
" style="stroke: #0000ff; stroke-opacity: 0.3"/>
    </defs>
    <g clip-path="url(#pa3b3a3032d)">
     <use xlink:href="#md47df3df29" x="0" y="345.6" style="fill: #0000ff; fill-opacity: 0.3; stroke: #0000ff; stroke-opacity: 0.3"/>
    </g>
   </g>
   <g id="line2d_11">
    <path d="M 73.832727 134.845596 
L 77.112066 135.317854 
L 80.391405 135.382915 
L 83.670744 135.725446 
L 86.950083 136.219082 
L 90.229421 136.705136 
L 93.50876 137.384998 
L 96.788099 137.983335 
L 100.067438 138.600573 
L 103.346777 139.045035 
L 106.626116 139.766255 
L 109.905455 139.937017 
L 113.184793 140.590428 
L 116.464132 141.484409 
L 119.743471 141.872505 
L 123.02281 142.750071 
L 126.302149 144.501343 
L 129.581488 146.80515 
L 132.860826 149.147829 
L 136.140165 152.212252 
L 139.419504 155.011871 
L 142.698843 158.382484 
L 145.978182 163.481204 
L 149.257521 169.400332 
L 152.53686 176.133862 
L 155.816198 184.588485 
L 159.095537 195.111198 
L 162.374876 209.861734 
L 165.654215 215.71195 
L 168.933554 217.88243 
L 172.212893 218.299556 
L 175.492231 217.452776 
L 178.77157 214.357183 
L 182.050909 205.94358 
L 185.330248 191.036535 
L 188.609587 181.157019 
L 191.888926 173.401385 
L 195.168264 167.129406 
L 198.447603 163.014283 
L 201.726942 160.265204 
L 205.006281 157.855774 
L 208.28562 155.302291 
L 211.564959 152.578994 
L 214.844298 150.582394 
L 218.123636 148.661486 
L 221.402975 146.616804 
L 224.682314 145.169984 
L 227.961653 143.860189 
L 231.240992 142.72563 
L 234.520331 141.687523 
L 237.799669 140.397843 
L 241.079008 140.869351 
L 244.358347 141.336392 
L 247.637686 142.202676 
L 250.917025 143.3984 
L 254.196364 145.179858 
L 257.475702 146.24084 
L 260.755041 145.751876 
L 264.03438 144.546577 
L 267.313719 143.638774 
L 270.593058 142.553103 
L 273.872397 141.788067 
L 277.151736 140.823725 
L 280.431074 139.698642 
L 283.710413 138.737221 
L 286.989752 137.71056 
L 290.269091 136.746751 
L 293.54843 136.074235 
L 296.827769 135.315936 
L 300.107107 135.028563 
L 303.386446 134.868065 
L 306.665785 134.848633 
L 309.945124 135.382283 
L 313.224463 135.817414 
L 316.503802 136.599825 
L 319.78314 137.095673 
L 323.062479 138.275804 
L 326.341818 138.695367 
L 329.621157 137.62988 
L 332.900496 138.451264 
L 336.179835 139.7129 
L 339.459174 140.823318 
L 342.738512 142.063339 
L 346.017851 143.190652 
L 349.29719 144.606292 
L 352.576529 145.584275 
L 355.855868 146.521488 
L 359.135207 147.738127 
L 362.414545 148.916859 
L 365.693884 149.92386 
L 368.973223 150.613318 
L 372.252562 150.417309 
L 375.531901 150.104658 
L 378.81124 149.865761 
L 382.090579 149.88739 
L 385.369917 149.514365 
L 388.649256 149.446752 
L 391.928595 148.894428 
L 395.207934 148.699329 
L 398.487273 148.663372 
" clip-path="url(#pa3b3a3032d)" style="fill: none; stroke: #0000ff; stroke-width: 1.5; stroke-linecap: round"/>
   </g>
   <g id="LineCollection_1">
    <path d="M 172.212986 295.488 
L 172.212986 53.568 
" clip-path="url(#pa3b3a3032d)" style="fill: none; stroke-dasharray: 5.55,2.4; stroke-dashoffset: 0; stroke: #008000; stroke-width: 1.5"/>
    <path d="M 303.386665 295.488 
L 303.386665 53.568 
" clip-path="url(#pa3b3a3032d)" style="fill: none; stroke-dasharray: 5.55,2.4; stroke-dashoffset: 0; stroke: #008000; stroke-width: 1.5"/>
   </g>
   <g id="patch_3">
    <path d="M 57.6 307.584 
L 57.6 41.472 
" style="fill: none; stroke: #ffffff; stroke-width: 0.8; stroke-linejoin: miter; stroke-linecap: square"/>
   </g>
   <g id="patch_4">
    <path d="M 414.72 307.584 
L 414.72 41.472 
" style="fill: none; stroke: #ffffff; stroke-width: 0.8; stroke-linejoin: miter; stroke-linecap: square"/>
   </g>
   <g id="patch_5">
    <path d="M 57.6 307.584 
L 414.72 307.584 
" style="fill: none; stroke: #ffffff; stroke-width: 0.8; stroke-linejoin: miter; stroke-linecap: square"/>
   </g>
   <g id="patch_6">
    <path d="M 57.6 41.472 
L 414.72 41.472 
" style="fill: none; stroke: #ffffff; stroke-width: 0.8; stroke-linejoin: miter; stroke-linecap: square"/>
   </g>
   <g id="text_13">
    <!-- $\mu=1, \sigma^2=1, n=1$ -->
    <g style="fill: #262626" transform="translate(181.92 35.472) scale(0.12 -0.12)">
     <defs>
      <path id="DejaVuSans-Oblique-3bc" d="M -84 -1331 
L 856 3500 
L 1434 3500 
L 1009 1322 
Q 997 1256 987 1175 
Q 978 1094 978 1013 
Q 978 722 1161 565 
Q 1344 409 1684 409 
Q 2147 409 2431 671 
Q 2716 934 2816 1459 
L 3213 3500 
L 3788 3500 
L 3266 809 
Q 3253 750 3248 706 
Q 3244 663 3244 628 
Q 3244 531 3283 486 
Q 3322 441 3406 441 
Q 3438 441 3492 456 
Q 3547 472 3647 513 
L 3559 50 
Q 3422 -19 3297 -55 
Q 3172 -91 3053 -91 
Q 2847 -91 2730 40 
Q 2613 172 2613 403 
Q 2438 153 2195 31 
Q 1953 -91 1625 -91 
Q 1334 -91 1117 43 
Q 900 178 831 397 
L 494 -1331 
L -84 -1331 
z
" transform="scale(0.015625)"/>
      <path id="DejaVuSans-3d" d="M 678 2906 
L 4684 2906 
L 4684 2381 
L 678 2381 
L 678 2906 
z
M 678 1631 
L 4684 1631 
L 4684 1100 
L 678 1100 
L 678 1631 
z
" transform="scale(0.015625)"/>
      <path id="DejaVuSans-31" d="M 794 531 
L 1825 531 
L 1825 4091 
L 703 3866 
L 703 4441 
L 1819 4666 
L 2450 4666 
L 2450 531 
L 3481 531 
L 3481 0 
L 794 0 
L 794 531 
z
" transform="scale(0.015625)"/>
      <path id="DejaVuSans-2c" d="M 750 794 
L 1409 794 
L 1409 256 
L 897 -744 
L 494 -744 
L 750 256 
L 750 794 
z
" transform="scale(0.015625)"/>
      <path id="DejaVuSans-Oblique-3c3" d="M 2219 3044 
Q 1744 3044 1422 2700 
Q 1081 2341 969 1747 
Q 844 1119 1044 756 
Q 1241 397 1706 397 
Q 2166 397 2503 759 
Q 2844 1122 2966 1747 
Q 3075 2319 2881 2700 
Q 2700 3044 2219 3044 
z
M 2309 3503 
L 4219 3500 
L 4106 2925 
L 3463 2925 
Q 3706 2438 3575 1747 
Q 3406 888 2884 400 
Q 2359 -91 1609 -91 
Q 856 -91 525 400 
Q 194 888 363 1747 
Q 528 2609 1050 3097 
Q 1484 3503 2309 3503 
z
" transform="scale(0.015625)"/>
      <path id="DejaVuSans-32" d="M 1228 531 
L 3431 531 
L 3431 0 
L 469 0 
L 469 531 
Q 828 903 1448 1529 
Q 2069 2156 2228 2338 
Q 2531 2678 2651 2914 
Q 2772 3150 2772 3378 
Q 2772 3750 2511 3984 
Q 2250 4219 1831 4219 
Q 1534 4219 1204 4116 
Q 875 4013 500 3803 
L 500 4441 
Q 881 4594 1212 4672 
Q 1544 4750 1819 4750 
Q 2544 4750 2975 4387 
Q 3406 4025 3406 3419 
Q 3406 3131 3298 2873 
Q 3191 2616 2906 2266 
Q 2828 2175 2409 1742 
Q 1991 1309 1228 531 
z
" transform="scale(0.015625)"/>
     </defs>
     <use xlink:href="#DejaVuSans-Oblique-3bc" transform="translate(0 0.765625)"/>
     <use xlink:href="#DejaVuSans-3d" transform="translate(83.105469 0.765625)"/>
     <use xlink:href="#DejaVuSans-31" transform="translate(186.376953 0.765625)"/>
     <use xlink:href="#DejaVuSans-2c" transform="translate(250 0.765625)"/>
     <use xlink:href="#DejaVuSans-Oblique-3c3" transform="translate(301.269531 0.765625)"/>
     <use xlink:href="#DejaVuSans-32" transform="translate(369.121146 39.046875) scale(0.7)"/>
     <use xlink:href="#DejaVuSans-3d" transform="translate(435.874076 0.765625)"/>
     <use xlink:href="#DejaVuSans-31" transform="translate(539.14556 0.765625)"/>
     <use xlink:href="#DejaVuSans-2c" transform="translate(602.768607 0.765625)"/>
     <use xlink:href="#DejaVuSans-Oblique-6e" transform="translate(654.038138 0.765625)"/>
     <use xlink:href="#DejaVuSans-3d" transform="translate(736.899466 0.765625)"/>
     <use xlink:href="#DejaVuSans-31" transform="translate(840.170951 0.765625)"/>
    </g>
   </g>
   <g id="legend_1">
    <g id="patch_7">
     <path d="M 64.6 302.584 
L 174.9 302.584 
Q 176.9 302.584 176.9 300.584 
L 176.9 244.393375 
Q 176.9 242.393375 174.9 242.393375 
L 64.6 242.393375 
Q 62.6 242.393375 62.6 244.393375 
L 62.6 300.584 
Q 62.6 302.584 64.6 302.584 
z
" style="fill: #eaeaf2; opacity: 0.8; stroke: #cccccc; stroke-linejoin: miter"/>
    </g>
    <g id="line2d_12">
     <path d="M 66.6 250.305875 
L 76.6 250.305875 
L 86.6 250.305875 
" style="fill: none; stroke: #0000ff; stroke-width: 1.5; stroke-linecap: round"/>
    </g>
    <g id="text_14">
     <!-- $E[x_{next}]$ -->
     <g style="fill: #262626" transform="translate(94.6 253.805875) scale(0.1 -0.1)">
      <defs>
       <path id="DejaVuSans-Oblique-45" d="M 1081 4666 
L 4031 4666 
L 3928 4134 
L 1606 4134 
L 1338 2753 
L 3566 2753 
L 3463 2222 
L 1234 2222 
L 909 531 
L 3284 531 
L 3181 0 
L 172 0 
L 1081 4666 
z
" transform="scale(0.015625)"/>
       <path id="DejaVuSans-5b" d="M 550 4863 
L 1875 4863 
L 1875 4416 
L 1125 4416 
L 1125 -397 
L 1875 -397 
L 1875 -844 
L 550 -844 
L 550 4863 
z
" transform="scale(0.015625)"/>
       <path id="DejaVuSans-5d" d="M 1947 4863 
L 1947 -844 
L 622 -844 
L 622 -397 
L 1369 -397 
L 1369 4416 
L 622 4416 
L 622 4863 
L 1947 4863 
z
" transform="scale(0.015625)"/>
      </defs>
      <use xlink:href="#DejaVuSans-Oblique-45" transform="translate(0 0.015625)"/>
      <use xlink:href="#DejaVuSans-5b" transform="translate(63.183594 0.015625)"/>
      <use xlink:href="#DejaVuSans-Oblique-78" transform="translate(102.197266 0.015625)"/>
      <use xlink:href="#DejaVuSans-Oblique-6e" transform="translate(161.376953 -16.390625) scale(0.7)"/>
      <use xlink:href="#DejaVuSans-Oblique-65" transform="translate(205.742188 -16.390625) scale(0.7)"/>
      <use xlink:href="#DejaVuSans-Oblique-78" transform="translate(248.808594 -16.390625) scale(0.7)"/>
      <use xlink:href="#DejaVuSans-Oblique-74" transform="translate(290.234375 -16.390625) scale(0.7)"/>
      <use xlink:href="#DejaVuSans-5d" transform="translate(320.415039 0.015625)"/>
     </g>
    </g>
    <g id="patch_8">
     <path d="M 66.6 267.951187 
L 86.6 267.951187 
L 86.6 260.951187 
L 66.6 260.951187 
z
" style="fill: #0000ff; fill-opacity: 0.5; stroke: #0000ff; stroke-opacity: 0.5; stroke-linejoin: miter"/>
    </g>
    <g id="text_15">
     <!-- 50% CI -->
     <g style="fill: #262626" transform="translate(94.6 267.951187) scale(0.1 -0.1)">
      <defs>
       <path id="ArialMT-35" d="M 266 1200 
L 856 1250 
Q 922 819 1161 601 
Q 1400 384 1738 384 
Q 2144 384 2425 690 
Q 2706 997 2706 1503 
Q 2706 1984 2436 2262 
Q 2166 2541 1728 2541 
Q 1456 2541 1237 2417 
Q 1019 2294 894 2097 
L 366 2166 
L 809 4519 
L 3088 4519 
L 3088 3981 
L 1259 3981 
L 1013 2750 
Q 1425 3038 1878 3038 
Q 2478 3038 2890 2622 
Q 3303 2206 3303 1553 
Q 3303 931 2941 478 
Q 2500 -78 1738 -78 
Q 1113 -78 717 272 
Q 322 622 266 1200 
z
" transform="scale(0.015625)"/>
       <path id="ArialMT-25" d="M 372 3481 
Q 372 3972 619 4315 
Q 866 4659 1334 4659 
Q 1766 4659 2048 4351 
Q 2331 4044 2331 3447 
Q 2331 2866 2045 2552 
Q 1759 2238 1341 2238 
Q 925 2238 648 2547 
Q 372 2856 372 3481 
z
M 1350 4272 
Q 1141 4272 1002 4090 
Q 863 3909 863 3425 
Q 863 2984 1003 2804 
Q 1144 2625 1350 2625 
Q 1563 2625 1702 2806 
Q 1841 2988 1841 3469 
Q 1841 3913 1700 4092 
Q 1559 4272 1350 4272 
z
M 1353 -169 
L 3859 4659 
L 4316 4659 
L 1819 -169 
L 1353 -169 
z
M 3334 1075 
Q 3334 1569 3581 1911 
Q 3828 2253 4300 2253 
Q 4731 2253 5014 1945 
Q 5297 1638 5297 1041 
Q 5297 459 5011 145 
Q 4725 -169 4303 -169 
Q 3888 -169 3611 142 
Q 3334 453 3334 1075 
z
M 4316 1866 
Q 4103 1866 3964 1684 
Q 3825 1503 3825 1019 
Q 3825 581 3965 400 
Q 4106 219 4313 219 
Q 4528 219 4667 400 
Q 4806 581 4806 1063 
Q 4806 1506 4665 1686 
Q 4525 1866 4316 1866 
z
" transform="scale(0.015625)"/>
       <path id="ArialMT-20" transform="scale(0.015625)"/>
       <path id="ArialMT-43" d="M 3763 1606 
L 4369 1453 
Q 4178 706 3683 314 
Q 3188 -78 2472 -78 
Q 1731 -78 1267 223 
Q 803 525 561 1097 
Q 319 1669 319 2325 
Q 319 3041 592 3573 
Q 866 4106 1370 4382 
Q 1875 4659 2481 4659 
Q 3169 4659 3637 4309 
Q 4106 3959 4291 3325 
L 3694 3184 
Q 3534 3684 3231 3912 
Q 2928 4141 2469 4141 
Q 1941 4141 1586 3887 
Q 1231 3634 1087 3207 
Q 944 2781 944 2328 
Q 944 1744 1114 1308 
Q 1284 872 1643 656 
Q 2003 441 2422 441 
Q 2931 441 3284 734 
Q 3638 1028 3763 1606 
z
" transform="scale(0.015625)"/>
       <path id="ArialMT-49" d="M 597 0 
L 597 4581 
L 1203 4581 
L 1203 0 
L 597 0 
z
" transform="scale(0.015625)"/>
      </defs>
      <use xlink:href="#ArialMT-35"/>
      <use xlink:href="#ArialMT-30" transform="translate(55.615234 0)"/>
      <use xlink:href="#ArialMT-25" transform="translate(111.230469 0)"/>
      <use xlink:href="#ArialMT-20" transform="translate(200.146484 0)"/>
      <use xlink:href="#ArialMT-43" transform="translate(227.929688 0)"/>
      <use xlink:href="#ArialMT-49" transform="translate(300.146484 0)"/>
     </g>
    </g>
    <g id="patch_9">
     <path d="M 66.6 282.0965 
L 86.6 282.0965 
L 86.6 275.0965 
L 66.6 275.0965 
z
" style="fill: #0000ff; fill-opacity: 0.3; stroke: #0000ff; stroke-opacity: 0.3; stroke-linejoin: miter"/>
    </g>
    <g id="text_16">
     <!-- 90% CI -->
     <g style="fill: #262626" transform="translate(94.6 282.0965) scale(0.1 -0.1)">
      <defs>
       <path id="ArialMT-39" d="M 350 1059 
L 891 1109 
Q 959 728 1153 556 
Q 1347 384 1650 384 
Q 1909 384 2104 503 
Q 2300 622 2425 820 
Q 2550 1019 2634 1356 
Q 2719 1694 2719 2044 
Q 2719 2081 2716 2156 
Q 2547 1888 2255 1720 
Q 1963 1553 1622 1553 
Q 1053 1553 659 1965 
Q 266 2378 266 3053 
Q 266 3750 677 4175 
Q 1088 4600 1706 4600 
Q 2153 4600 2523 4359 
Q 2894 4119 3086 3673 
Q 3278 3228 3278 2384 
Q 3278 1506 3087 986 
Q 2897 466 2520 194 
Q 2144 -78 1638 -78 
Q 1100 -78 759 220 
Q 419 519 350 1059 
z
M 2653 3081 
Q 2653 3566 2395 3850 
Q 2138 4134 1775 4134 
Q 1400 4134 1122 3828 
Q 844 3522 844 3034 
Q 844 2597 1108 2323 
Q 1372 2050 1759 2050 
Q 2150 2050 2401 2323 
Q 2653 2597 2653 3081 
z
" transform="scale(0.015625)"/>
      </defs>
      <use xlink:href="#ArialMT-39"/>
      <use xlink:href="#ArialMT-30" transform="translate(55.615234 0)"/>
      <use xlink:href="#ArialMT-25" transform="translate(111.230469 0)"/>
      <use xlink:href="#ArialMT-20" transform="translate(200.146484 0)"/>
      <use xlink:href="#ArialMT-43" transform="translate(227.929688 0)"/>
      <use xlink:href="#ArialMT-49" transform="translate(300.146484 0)"/>
     </g>
    </g>
    <g id="line2d_13">
     <path d="M 66.6 292.884 
L 86.6 292.884 
" style="fill: none; stroke-dasharray: 5.55,2.4; stroke-dashoffset: 0; stroke: #008000; stroke-width: 1.5"/>
    </g>
    <g id="text_17">
     <!-- modes of target $\pi$ -->
     <g style="fill: #262626" transform="translate(94.6 296.384) scale(0.1 -0.1)">
      <defs>
       <path id="ArialMT-6d" d="M 422 0 
L 422 3319 
L 925 3319 
L 925 2853 
Q 1081 3097 1340 3245 
Q 1600 3394 1931 3394 
Q 2300 3394 2536 3241 
Q 2772 3088 2869 2813 
Q 3263 3394 3894 3394 
Q 4388 3394 4653 3120 
Q 4919 2847 4919 2278 
L 4919 0 
L 4359 0 
L 4359 2091 
Q 4359 2428 4304 2576 
Q 4250 2725 4106 2815 
Q 3963 2906 3769 2906 
Q 3419 2906 3187 2673 
Q 2956 2441 2956 1928 
L 2956 0 
L 2394 0 
L 2394 2156 
Q 2394 2531 2256 2718 
Q 2119 2906 1806 2906 
Q 1569 2906 1367 2781 
Q 1166 2656 1075 2415 
Q 984 2175 984 1722 
L 984 0 
L 422 0 
z
" transform="scale(0.015625)"/>
       <path id="ArialMT-6f" d="M 213 1659 
Q 213 2581 725 3025 
Q 1153 3394 1769 3394 
Q 2453 3394 2887 2945 
Q 3322 2497 3322 1706 
Q 3322 1066 3130 698 
Q 2938 331 2570 128 
Q 2203 -75 1769 -75 
Q 1072 -75 642 372 
Q 213 819 213 1659 
z
M 791 1659 
Q 791 1022 1069 705 
Q 1347 388 1769 388 
Q 2188 388 2466 706 
Q 2744 1025 2744 1678 
Q 2744 2294 2464 2611 
Q 2184 2928 1769 2928 
Q 1347 2928 1069 2612 
Q 791 2297 791 1659 
z
" transform="scale(0.015625)"/>
       <path id="ArialMT-64" d="M 2575 0 
L 2575 419 
Q 2259 -75 1647 -75 
Q 1250 -75 917 144 
Q 584 363 401 755 
Q 219 1147 219 1656 
Q 219 2153 384 2558 
Q 550 2963 881 3178 
Q 1213 3394 1622 3394 
Q 1922 3394 2156 3267 
Q 2391 3141 2538 2938 
L 2538 4581 
L 3097 4581 
L 3097 0 
L 2575 0 
z
M 797 1656 
Q 797 1019 1065 703 
Q 1334 388 1700 388 
Q 2069 388 2326 689 
Q 2584 991 2584 1609 
Q 2584 2291 2321 2609 
Q 2059 2928 1675 2928 
Q 1300 2928 1048 2622 
Q 797 2316 797 1656 
z
" transform="scale(0.015625)"/>
       <path id="ArialMT-65" d="M 2694 1069 
L 3275 997 
Q 3138 488 2766 206 
Q 2394 -75 1816 -75 
Q 1088 -75 661 373 
Q 234 822 234 1631 
Q 234 2469 665 2931 
Q 1097 3394 1784 3394 
Q 2450 3394 2872 2941 
Q 3294 2488 3294 1666 
Q 3294 1616 3291 1516 
L 816 1516 
Q 847 969 1125 678 
Q 1403 388 1819 388 
Q 2128 388 2347 550 
Q 2566 713 2694 1069 
z
M 847 1978 
L 2700 1978 
Q 2663 2397 2488 2606 
Q 2219 2931 1791 2931 
Q 1403 2931 1139 2672 
Q 875 2413 847 1978 
z
" transform="scale(0.015625)"/>
       <path id="ArialMT-73" d="M 197 991 
L 753 1078 
Q 800 744 1014 566 
Q 1228 388 1613 388 
Q 2000 388 2187 545 
Q 2375 703 2375 916 
Q 2375 1106 2209 1216 
Q 2094 1291 1634 1406 
Q 1016 1563 777 1677 
Q 538 1791 414 1992 
Q 291 2194 291 2438 
Q 291 2659 392 2848 
Q 494 3038 669 3163 
Q 800 3259 1026 3326 
Q 1253 3394 1513 3394 
Q 1903 3394 2198 3281 
Q 2494 3169 2634 2976 
Q 2775 2784 2828 2463 
L 2278 2388 
Q 2241 2644 2061 2787 
Q 1881 2931 1553 2931 
Q 1166 2931 1000 2803 
Q 834 2675 834 2503 
Q 834 2394 903 2306 
Q 972 2216 1119 2156 
Q 1203 2125 1616 2013 
Q 2213 1853 2448 1751 
Q 2684 1650 2818 1456 
Q 2953 1263 2953 975 
Q 2953 694 2789 445 
Q 2625 197 2315 61 
Q 2006 -75 1616 -75 
Q 969 -75 630 194 
Q 291 463 197 991 
z
" transform="scale(0.015625)"/>
       <path id="ArialMT-66" d="M 556 0 
L 556 2881 
L 59 2881 
L 59 3319 
L 556 3319 
L 556 3672 
Q 556 4006 616 4169 
Q 697 4388 901 4523 
Q 1106 4659 1475 4659 
Q 1713 4659 2000 4603 
L 1916 4113 
Q 1741 4144 1584 4144 
Q 1328 4144 1222 4034 
Q 1116 3925 1116 3625 
L 1116 3319 
L 1763 3319 
L 1763 2881 
L 1116 2881 
L 1116 0 
L 556 0 
z
" transform="scale(0.015625)"/>
       <path id="ArialMT-74" d="M 1650 503 
L 1731 6 
Q 1494 -44 1306 -44 
Q 1000 -44 831 53 
Q 663 150 594 308 
Q 525 466 525 972 
L 525 2881 
L 113 2881 
L 113 3319 
L 525 3319 
L 525 4141 
L 1084 4478 
L 1084 3319 
L 1650 3319 
L 1650 2881 
L 1084 2881 
L 1084 941 
Q 1084 700 1114 631 
Q 1144 563 1211 522 
Q 1278 481 1403 481 
Q 1497 481 1650 503 
z
" transform="scale(0.015625)"/>
       <path id="ArialMT-61" d="M 2588 409 
Q 2275 144 1986 34 
Q 1697 -75 1366 -75 
Q 819 -75 525 192 
Q 231 459 231 875 
Q 231 1119 342 1320 
Q 453 1522 633 1644 
Q 813 1766 1038 1828 
Q 1203 1872 1538 1913 
Q 2219 1994 2541 2106 
Q 2544 2222 2544 2253 
Q 2544 2597 2384 2738 
Q 2169 2928 1744 2928 
Q 1347 2928 1158 2789 
Q 969 2650 878 2297 
L 328 2372 
Q 403 2725 575 2942 
Q 747 3159 1072 3276 
Q 1397 3394 1825 3394 
Q 2250 3394 2515 3294 
Q 2781 3194 2906 3042 
Q 3031 2891 3081 2659 
Q 3109 2516 3109 2141 
L 3109 1391 
Q 3109 606 3145 398 
Q 3181 191 3288 0 
L 2700 0 
Q 2613 175 2588 409 
z
M 2541 1666 
Q 2234 1541 1622 1453 
Q 1275 1403 1131 1340 
Q 988 1278 909 1158 
Q 831 1038 831 891 
Q 831 666 1001 516 
Q 1172 366 1500 366 
Q 1825 366 2078 508 
Q 2331 650 2450 897 
Q 2541 1088 2541 1459 
L 2541 1666 
z
" transform="scale(0.015625)"/>
       <path id="ArialMT-72" d="M 416 0 
L 416 3319 
L 922 3319 
L 922 2816 
Q 1116 3169 1280 3281 
Q 1444 3394 1641 3394 
Q 1925 3394 2219 3213 
L 2025 2691 
Q 1819 2813 1613 2813 
Q 1428 2813 1281 2702 
Q 1134 2591 1072 2394 
Q 978 2094 978 1738 
L 978 0 
L 416 0 
z
" transform="scale(0.015625)"/>
       <path id="ArialMT-67" d="M 319 -275 
L 866 -356 
Q 900 -609 1056 -725 
Q 1266 -881 1628 -881 
Q 2019 -881 2231 -725 
Q 2444 -569 2519 -288 
Q 2563 -116 2559 434 
Q 2191 0 1641 0 
Q 956 0 581 494 
Q 206 988 206 1678 
Q 206 2153 378 2554 
Q 550 2956 876 3175 
Q 1203 3394 1644 3394 
Q 2231 3394 2613 2919 
L 2613 3319 
L 3131 3319 
L 3131 450 
Q 3131 -325 2973 -648 
Q 2816 -972 2473 -1159 
Q 2131 -1347 1631 -1347 
Q 1038 -1347 672 -1080 
Q 306 -813 319 -275 
z
M 784 1719 
Q 784 1066 1043 766 
Q 1303 466 1694 466 
Q 2081 466 2343 764 
Q 2606 1063 2606 1700 
Q 2606 2309 2336 2618 
Q 2066 2928 1684 2928 
Q 1309 2928 1046 2623 
Q 784 2319 784 1719 
z
" transform="scale(0.015625)"/>
       <path id="DejaVuSans-Oblique-3c0" d="M 584 3500 
L 3938 3500 
L 3825 2925 
L 3384 2925 
L 2966 775 
Q 2922 550 2981 450 
Q 3038 353 3209 353 
Q 3256 353 3325 363 
Q 3397 369 3419 372 
L 3338 -44 
Q 3222 -84 3103 -103 
Q 2981 -122 2866 -122 
Q 2491 -122 2388 81 
Q 2284 288 2391 838 
L 2797 2925 
L 1506 2925 
L 938 0 
L 350 0 
L 919 2925 
L 472 2925 
L 584 3500 
z
" transform="scale(0.015625)"/>
      </defs>
      <use xlink:href="#ArialMT-6d" transform="translate(0 0.203125)"/>
      <use xlink:href="#ArialMT-6f" transform="translate(83.300781 0.203125)"/>
      <use xlink:href="#ArialMT-64" transform="translate(138.916016 0.203125)"/>
      <use xlink:href="#ArialMT-65" transform="translate(194.53125 0.203125)"/>
      <use xlink:href="#ArialMT-73" transform="translate(250.146484 0.203125)"/>
      <use xlink:href="#ArialMT-20" transform="translate(300.146484 0.203125)"/>
      <use xlink:href="#ArialMT-6f" transform="translate(327.929688 0.203125)"/>
      <use xlink:href="#ArialMT-66" transform="translate(383.544922 0.203125)"/>
      <use xlink:href="#ArialMT-20" transform="translate(411.328125 0.203125)"/>
      <use xlink:href="#ArialMT-74" transform="translate(439.111328 0.203125)"/>
      <use xlink:href="#ArialMT-61" transform="translate(466.894531 0.203125)"/>
      <use xlink:href="#ArialMT-72" transform="translate(522.509766 0.203125)"/>
      <use xlink:href="#ArialMT-67" transform="translate(555.810547 0.203125)"/>
      <use xlink:href="#ArialMT-65" transform="translate(611.425781 0.203125)"/>
      <use xlink:href="#ArialMT-74" transform="translate(667.041016 0.203125)"/>
      <use xlink:href="#ArialMT-20" transform="translate(694.824219 0.203125)"/>
      <use xlink:href="#DejaVuSans-Oblique-3c0" transform="translate(722.607422 0.203125)"/>
     </g>
    </g>
   </g>
  </g>
 </g>
 <defs>
  <clipPath id="pa3b3a3032d">
   <rect x="57.6" y="41.472" width="357.12" height="266.112"/>
  </clipPath>
 </defs>
</svg>
