<?xml version="1.0" encoding="utf-8" standalone="no"?>
<!DOCTYPE svg PUBLIC "-//W3C//DTD SVG 1.1//EN"
  "http://www.w3.org/Graphics/SVG/1.1/DTD/svg11.dtd">
<svg xmlns:xlink="http://www.w3.org/1999/xlink" width="460.8pt" height="345.6pt" viewBox="0 0 460.8 345.6" xmlns="http://www.w3.org/2000/svg" version="1.1">
 <metadata>
  <rdf:RDF xmlns:dc="http://purl.org/dc/elements/1.1/" xmlns:cc="http://creativecommons.org/ns#" xmlns:rdf="http://www.w3.org/1999/02/22-rdf-syntax-ns#">
   <cc:Work>
    <dc:type rdf:resource="http://purl.org/dc/dcmitype/StillImage"/>
    <dc:date>2025-04-11T13:55:46.875439</dc:date>
    <dc:format>image/svg+xml</dc:format>
    <dc:creator>
     <cc:Agent>
      <dc:title>Matplotlib v3.10.1, https://matplotlib.org/</dc:title>
     </cc:Agent>
    </dc:creator>
   </cc:Work>
  </rdf:RDF>
 </metadata>
 <defs>
  <style type="text/css">*{stroke-linejoin: round; stroke-linecap: butt}</style>
 </defs>
 <g id="figure_1">
  <g id="patch_1">
   <path d="M 0 345.6 
L 460.8 345.6 
L 460.8 0 
L 0 0 
z
" style="fill: #ffffff"/>
  </g>
  <g id="axes_1">
   <g id="patch_2">
    <path d="M 57.6 307.584 
L 414.72 307.584 
L 414.72 41.472 
L 57.6 41.472 
z
" style="fill: #eaeaf2"/>
   </g>
   <g id="matplotlib.axis_1">
    <g id="xtick_1">
     <g id="line2d_1">
      <path d="M 106.298182 307.584 
L 106.298182 41.472 
" clip-path="url(#p388255e750)" style="fill: none; stroke: #ffffff; stroke-width: 0.8; stroke-linecap: round"/>
     </g>
     <g id="text_1">
      <!-- −4 -->
      <g style="fill: #262626" transform="translate(100.597401 321.741812) scale(0.1 -0.1)">
       <defs>
        <path id="ArialMT-2212" d="M 3381 1997 
L 356 1997 
L 356 2522 
L 3381 2522 
L 3381 1997 
z
" transform="scale(0.015625)"/>
        <path id="ArialMT-34" d="M 2069 0 
L 2069 1097 
L 81 1097 
L 81 1613 
L 2172 4581 
L 2631 4581 
L 2631 1613 
L 3250 1613 
L 3250 1097 
L 2631 1097 
L 2631 0 
L 2069 0 
z
M 2069 1613 
L 2069 3678 
L 634 1613 
L 2069 1613 
z
" transform="scale(0.015625)"/>
       </defs>
       <use xlink:href="#ArialMT-2212"/>
       <use xlink:href="#ArialMT-34" transform="translate(58.398438 0)"/>
      </g>
     </g>
    </g>
    <g id="xtick_2">
     <g id="line2d_2">
      <path d="M 171.229091 307.584 
L 171.229091 41.472 
" clip-path="url(#p388255e750)" style="fill: none; stroke: #ffffff; stroke-width: 0.8; stroke-linecap: round"/>
     </g>
     <g id="text_2">
      <!-- −2 -->
      <g style="fill: #262626" transform="translate(165.52831 321.741812) scale(0.1 -0.1)">
       <defs>
        <path id="ArialMT-32" d="M 3222 541 
L 3222 0 
L 194 0 
Q 188 203 259 391 
Q 375 700 629 1000 
Q 884 1300 1366 1694 
Q 2113 2306 2375 2664 
Q 2638 3022 2638 3341 
Q 2638 3675 2398 3904 
Q 2159 4134 1775 4134 
Q 1369 4134 1125 3890 
Q 881 3647 878 3216 
L 300 3275 
Q 359 3922 746 4261 
Q 1134 4600 1788 4600 
Q 2447 4600 2831 4234 
Q 3216 3869 3216 3328 
Q 3216 3053 3103 2787 
Q 2991 2522 2730 2228 
Q 2469 1934 1863 1422 
Q 1356 997 1212 845 
Q 1069 694 975 541 
L 3222 541 
z
" transform="scale(0.015625)"/>
       </defs>
       <use xlink:href="#ArialMT-2212"/>
       <use xlink:href="#ArialMT-32" transform="translate(58.398438 0)"/>
      </g>
     </g>
    </g>
    <g id="xtick_3">
     <g id="line2d_3">
      <path d="M 236.16 307.584 
L 236.16 41.472 
" clip-path="url(#p388255e750)" style="fill: none; stroke: #ffffff; stroke-width: 0.8; stroke-linecap: round"/>
     </g>
     <g id="text_3">
      <!-- 0 -->
      <g style="fill: #262626" transform="translate(233.379531 321.741812) scale(0.1 -0.1)">
       <defs>
        <path id="ArialMT-30" d="M 266 2259 
Q 266 3072 433 3567 
Q 600 4063 929 4331 
Q 1259 4600 1759 4600 
Q 2128 4600 2406 4451 
Q 2684 4303 2865 4023 
Q 3047 3744 3150 3342 
Q 3253 2941 3253 2259 
Q 3253 1453 3087 958 
Q 2922 463 2592 192 
Q 2263 -78 1759 -78 
Q 1097 -78 719 397 
Q 266 969 266 2259 
z
M 844 2259 
Q 844 1131 1108 757 
Q 1372 384 1759 384 
Q 2147 384 2411 759 
Q 2675 1134 2675 2259 
Q 2675 3391 2411 3762 
Q 2147 4134 1753 4134 
Q 1366 4134 1134 3806 
Q 844 3388 844 2259 
z
" transform="scale(0.015625)"/>
       </defs>
       <use xlink:href="#ArialMT-30"/>
      </g>
     </g>
    </g>
    <g id="xtick_4">
     <g id="line2d_4">
      <path d="M 301.090909 307.584 
L 301.090909 41.472 
" clip-path="url(#p388255e750)" style="fill: none; stroke: #ffffff; stroke-width: 0.8; stroke-linecap: round"/>
     </g>
     <g id="text_4">
      <!-- 2 -->
      <g style="fill: #262626" transform="translate(298.31044 321.741812) scale(0.1 -0.1)">
       <use xlink:href="#ArialMT-32"/>
      </g>
     </g>
    </g>
    <g id="xtick_5">
     <g id="line2d_5">
      <path d="M 366.021818 307.584 
L 366.021818 41.472 
" clip-path="url(#p388255e750)" style="fill: none; stroke: #ffffff; stroke-width: 0.8; stroke-linecap: round"/>
     </g>
     <g id="text_5">
      <!-- 4 -->
      <g style="fill: #262626" transform="translate(363.241349 321.741812) scale(0.1 -0.1)">
       <use xlink:href="#ArialMT-34"/>
      </g>
     </g>
    </g>
    <g id="text_6">
     <!-- x -->
     <g style="fill: #262626" transform="translate(233.66 334.887125) scale(0.1 -0.1)">
      <defs>
       <path id="ArialMT-78" d="M 47 0 
L 1259 1725 
L 138 3319 
L 841 3319 
L 1350 2541 
Q 1494 2319 1581 2169 
Q 1719 2375 1834 2534 
L 2394 3319 
L 3066 3319 
L 1919 1756 
L 3153 0 
L 2463 0 
L 1781 1031 
L 1600 1309 
L 728 0 
L 47 0 
z
" transform="scale(0.015625)"/>
      </defs>
      <use xlink:href="#ArialMT-78"/>
     </g>
    </g>
   </g>
   <g id="matplotlib.axis_2">
    <g id="ytick_1">
     <g id="line2d_6">
      <path d="M 57.6 297.775222 
L 414.72 297.775222 
" clip-path="url(#p388255e750)" style="fill: none; stroke: #ffffff; stroke-width: 0.8; stroke-linecap: round"/>
     </g>
     <g id="text_7">
      <!-- 0 -->
      <g style="fill: #262626" transform="translate(45.039062 301.354129) scale(0.1 -0.1)">
       <use xlink:href="#ArialMT-30"/>
      </g>
     </g>
    </g>
    <g id="ytick_2">
     <g id="line2d_7">
      <path d="M 57.6 248.950587 
L 414.72 248.950587 
" clip-path="url(#p388255e750)" style="fill: none; stroke: #ffffff; stroke-width: 0.8; stroke-linecap: round"/>
     </g>
     <g id="text_8">
      <!-- 1 -->
      <g style="fill: #262626" transform="translate(45.039062 252.529493) scale(0.1 -0.1)">
       <defs>
        <path id="ArialMT-31" d="M 2384 0 
L 1822 0 
L 1822 3584 
Q 1619 3391 1289 3197 
Q 959 3003 697 2906 
L 697 3450 
Q 1169 3672 1522 3987 
Q 1875 4303 2022 4600 
L 2384 4600 
L 2384 0 
z
" transform="scale(0.015625)"/>
       </defs>
       <use xlink:href="#ArialMT-31"/>
      </g>
     </g>
    </g>
    <g id="ytick_3">
     <g id="line2d_8">
      <path d="M 57.6 200.125952 
L 414.72 200.125952 
" clip-path="url(#p388255e750)" style="fill: none; stroke: #ffffff; stroke-width: 0.8; stroke-linecap: round"/>
     </g>
     <g id="text_9">
      <!-- 2 -->
      <g style="fill: #262626" transform="translate(45.039062 203.704858) scale(0.1 -0.1)">
       <use xlink:href="#ArialMT-32"/>
      </g>
     </g>
    </g>
    <g id="ytick_4">
     <g id="line2d_9">
      <path d="M 57.6 151.301316 
L 414.72 151.301316 
" clip-path="url(#p388255e750)" style="fill: none; stroke: #ffffff; stroke-width: 0.8; stroke-linecap: round"/>
     </g>
     <g id="text_10">
      <!-- 3 -->
      <g style="fill: #262626" transform="translate(45.039062 154.880223) scale(0.1 -0.1)">
       <defs>
        <path id="ArialMT-33" d="M 269 1209 
L 831 1284 
Q 928 806 1161 595 
Q 1394 384 1728 384 
Q 2125 384 2398 659 
Q 2672 934 2672 1341 
Q 2672 1728 2419 1979 
Q 2166 2231 1775 2231 
Q 1616 2231 1378 2169 
L 1441 2663 
Q 1497 2656 1531 2656 
Q 1891 2656 2178 2843 
Q 2466 3031 2466 3422 
Q 2466 3731 2256 3934 
Q 2047 4138 1716 4138 
Q 1388 4138 1169 3931 
Q 950 3725 888 3313 
L 325 3413 
Q 428 3978 793 4289 
Q 1159 4600 1703 4600 
Q 2078 4600 2393 4439 
Q 2709 4278 2876 4000 
Q 3044 3722 3044 3409 
Q 3044 3113 2884 2869 
Q 2725 2625 2413 2481 
Q 2819 2388 3044 2092 
Q 3269 1797 3269 1353 
Q 3269 753 2831 336 
Q 2394 -81 1725 -81 
Q 1122 -81 723 278 
Q 325 638 269 1209 
z
" transform="scale(0.015625)"/>
       </defs>
       <use xlink:href="#ArialMT-33"/>
      </g>
     </g>
    </g>
    <g id="ytick_5">
     <g id="line2d_10">
      <path d="M 57.6 102.476681 
L 414.72 102.476681 
" clip-path="url(#p388255e750)" style="fill: none; stroke: #ffffff; stroke-width: 0.8; stroke-linecap: round"/>
     </g>
     <g id="text_11">
      <!-- 4 -->
      <g style="fill: #262626" transform="translate(45.039062 106.055587) scale(0.1 -0.1)">
       <use xlink:href="#ArialMT-34"/>
      </g>
     </g>
    </g>
    <g id="ytick_6">
     <g id="line2d_11">
      <path d="M 57.6 53.652046 
L 414.72 53.652046 
" clip-path="url(#p388255e750)" style="fill: none; stroke: #ffffff; stroke-width: 0.8; stroke-linecap: round"/>
     </g>
     <g id="text_12">
      <!-- 5 -->
      <g style="fill: #262626" transform="translate(45.039062 57.230952) scale(0.1 -0.1)">
       <defs>
        <path id="ArialMT-35" d="M 266 1200 
L 856 1250 
Q 922 819 1161 601 
Q 1400 384 1738 384 
Q 2144 384 2425 690 
Q 2706 997 2706 1503 
Q 2706 1984 2436 2262 
Q 2166 2541 1728 2541 
Q 1456 2541 1237 2417 
Q 1019 2294 894 2097 
L 366 2166 
L 809 4519 
L 3088 4519 
L 3088 3981 
L 1259 3981 
L 1013 2750 
Q 1425 3038 1878 3038 
Q 2478 3038 2890 2622 
Q 3303 2206 3303 1553 
Q 3303 931 2941 478 
Q 2500 -78 1738 -78 
Q 1113 -78 717 272 
Q 322 622 266 1200 
z
" transform="scale(0.015625)"/>
       </defs>
       <use xlink:href="#ArialMT-35"/>
      </g>
     </g>
    </g>
    <g id="text_13">
     <!-- $\mathcal{W}(\delta_x P_{\mu, \sigma}, \pi)$ -->
     <g style="fill: #262626" transform="translate(37.939062 203.478) rotate(-90) scale(0.1 -0.1)">
      <defs>
       <path id="STIXNonUnicode-Italic-e243" d="M 4634 736 
L 4672 717 
Q 4742 794 4931 1008 
Q 5120 1222 5248 1369 
Q 5376 1517 5545 1757 
Q 5715 1997 5837 2234 
Q 6131 2803 6131 3245 
Q 6131 3936 5741 3936 
Q 5696 3936 5661 3885 
Q 5626 3834 5606 3776 
Q 5587 3718 5529 3667 
Q 5472 3616 5382 3616 
Q 5229 3616 5145 3715 
Q 5062 3814 5062 3962 
Q 5062 4173 5209 4278 
Q 5357 4384 5594 4384 
Q 5965 4384 6176 4073 
Q 6387 3763 6387 3290 
Q 6387 2906 6236 2506 
Q 6086 2106 5814 1718 
Q 5542 1331 5289 1027 
Q 5037 723 4697 352 
Q 4358 -19 4211 -205 
L 4045 -205 
L 4045 230 
Q 4045 1306 3936 2099 
Q 3827 2893 3475 3373 
L 3430 3373 
L 1363 -205 
L 1171 -205 
Q 1459 1581 1459 2624 
Q 1459 4006 602 4006 
Q 448 4006 307 3891 
L 211 4013 
Q 486 4237 915 4237 
Q 1184 4237 1389 4157 
Q 1594 4077 1722 3923 
Q 1850 3770 1933 3590 
Q 2016 3411 2054 3155 
Q 2093 2899 2105 2684 
Q 2118 2470 2118 2182 
Q 2118 1920 2099 1658 
L 2138 1658 
L 3398 3846 
L 3686 4160 
Q 4077 3738 4365 2950 
Q 4653 2163 4653 1395 
Q 4653 966 4634 736 
z
" transform="scale(0.015625)"/>
       <path id="DejaVuSans-28" d="M 1984 4856 
Q 1566 4138 1362 3434 
Q 1159 2731 1159 2009 
Q 1159 1288 1364 580 
Q 1569 -128 1984 -844 
L 1484 -844 
Q 1016 -109 783 600 
Q 550 1309 550 2009 
Q 550 2706 781 3412 
Q 1013 4119 1484 4856 
L 1984 4856 
z
" transform="scale(0.015625)"/>
       <path id="DejaVuSans-Oblique-3b4" d="M 3472 4053 
Q 3197 4272 2450 4272 
Q 1659 4272 1588 3906 
Q 1531 3619 2328 3469 
Q 2953 3353 3253 3003 
Q 3616 2581 3447 1716 
Q 3284 888 2763 400 
Q 2238 -91 1488 -91 
Q 741 -91 406 400 
Q 72 888 241 1747 
Q 363 2384 891 2900 
Q 1097 3100 1353 3213 
Q 913 3459 1000 3900 
Q 1166 4750 2544 4750 
Q 3234 4750 3566 4531 
L 3472 4053 
z
M 1753 3056 
Q 1525 2966 1306 2738 
Q 969 2384 847 1747 
Q 722 1113 919 756 
Q 1119 397 1584 397 
Q 2044 397 2381 759 
Q 2722 1122 2838 1716 
Q 2956 2338 2731 2638 
Q 2491 2959 2103 2994 
Q 1906 3013 1753 3056 
z
" transform="scale(0.015625)"/>
       <path id="DejaVuSans-Oblique-78" d="M 3841 3500 
L 2234 1784 
L 3219 0 
L 2559 0 
L 1819 1388 
L 531 0 
L -166 0 
L 1556 1844 
L 641 3500 
L 1300 3500 
L 1972 2234 
L 3144 3500 
L 3841 3500 
z
" transform="scale(0.015625)"/>
       <path id="DejaVuSans-Oblique-50" d="M 1081 4666 
L 2541 4666 
Q 3178 4666 3512 4369 
Q 3847 4072 3847 3500 
Q 3847 2731 3353 2303 
Q 2859 1875 1966 1875 
L 1172 1875 
L 806 0 
L 172 0 
L 1081 4666 
z
M 1613 4147 
L 1275 2394 
L 2069 2394 
Q 2606 2394 2893 2669 
Q 3181 2944 3181 3456 
Q 3181 3784 2986 3965 
Q 2791 4147 2438 4147 
L 1613 4147 
z
" transform="scale(0.015625)"/>
       <path id="DejaVuSans-Oblique-3bc" d="M -84 -1331 
L 856 3500 
L 1434 3500 
L 1009 1322 
Q 997 1256 987 1175 
Q 978 1094 978 1013 
Q 978 722 1161 565 
Q 1344 409 1684 409 
Q 2147 409 2431 671 
Q 2716 934 2816 1459 
L 3213 3500 
L 3788 3500 
L 3266 809 
Q 3253 750 3248 706 
Q 3244 663 3244 628 
Q 3244 531 3283 486 
Q 3322 441 3406 441 
Q 3438 441 3492 456 
Q 3547 472 3647 513 
L 3559 50 
Q 3422 -19 3297 -55 
Q 3172 -91 3053 -91 
Q 2847 -91 2730 40 
Q 2613 172 2613 403 
Q 2438 153 2195 31 
Q 1953 -91 1625 -91 
Q 1334 -91 1117 43 
Q 900 178 831 397 
L 494 -1331 
L -84 -1331 
z
" transform="scale(0.015625)"/>
       <path id="DejaVuSans-2c" d="M 750 794 
L 1409 794 
L 1409 256 
L 897 -744 
L 494 -744 
L 750 256 
L 750 794 
z
" transform="scale(0.015625)"/>
       <path id="DejaVuSans-Oblique-3c3" d="M 2219 3044 
Q 1744 3044 1422 2700 
Q 1081 2341 969 1747 
Q 844 1119 1044 756 
Q 1241 397 1706 397 
Q 2166 397 2503 759 
Q 2844 1122 2966 1747 
Q 3075 2319 2881 2700 
Q 2700 3044 2219 3044 
z
M 2309 3503 
L 4219 3500 
L 4106 2925 
L 3463 2925 
Q 3706 2438 3575 1747 
Q 3406 888 2884 400 
Q 2359 -91 1609 -91 
Q 856 -91 525 400 
Q 194 888 363 1747 
Q 528 2609 1050 3097 
Q 1484 3503 2309 3503 
z
" transform="scale(0.015625)"/>
       <path id="DejaVuSans-Oblique-3c0" d="M 584 3500 
L 3938 3500 
L 3825 2925 
L 3384 2925 
L 2966 775 
Q 2922 550 2981 450 
Q 3038 353 3209 353 
Q 3256 353 3325 363 
Q 3397 369 3419 372 
L 3338 -44 
Q 3222 -84 3103 -103 
Q 2981 -122 2866 -122 
Q 2491 -122 2388 81 
Q 2284 288 2391 838 
L 2797 2925 
L 1506 2925 
L 938 0 
L 350 0 
L 919 2925 
L 472 2925 
L 584 3500 
z
" transform="scale(0.015625)"/>
       <path id="DejaVuSans-29" d="M 513 4856 
L 1013 4856 
Q 1481 4119 1714 3412 
Q 1947 2706 1947 2009 
Q 1947 1309 1714 600 
Q 1481 -109 1013 -844 
L 513 -844 
Q 928 -128 1133 580 
Q 1338 1288 1338 2009 
Q 1338 2731 1133 3434 
Q 928 4138 513 4856 
z
" transform="scale(0.015625)"/>
      </defs>
      <use xlink:href="#STIXNonUnicode-Italic-e243" transform="translate(0 0.125)"/>
      <use xlink:href="#DejaVuSans-28" transform="translate(95.599991 0.125)"/>
      <use xlink:href="#DejaVuSans-Oblique-3b4" transform="translate(134.613663 0.125)"/>
      <use xlink:href="#DejaVuSans-Oblique-78" transform="translate(195.795303 -16.28125) scale(0.7)"/>
      <use xlink:href="#DejaVuSans-Oblique-50" transform="translate(239.95546 0.125)"/>
      <use xlink:href="#DejaVuSans-Oblique-3bc" transform="translate(300.258194 -16.28125) scale(0.7)"/>
      <use xlink:href="#DejaVuSans-2c" transform="translate(344.794327 -16.28125) scale(0.7)"/>
      <use xlink:href="#DejaVuSans-Oblique-3c3" transform="translate(380.682999 -16.28125) scale(0.7)"/>
      <use xlink:href="#DejaVuSans-2c" transform="translate(427.782608 0.125)"/>
      <use xlink:href="#DejaVuSans-Oblique-3c0" transform="translate(479.052139 0.125)"/>
      <use xlink:href="#DejaVuSans-29" transform="translate(539.257217 0.125)"/>
     </g>
    </g>
   </g>
   <g id="line2d_12">
    <path d="M 73.832727 53.736115 
L 77.112073 58.667861 
L 80.391404 63.599676 
L 83.670734 68.531422 
L 86.95008 73.463237 
L 90.229426 78.395029 
L 93.508757 83.326798 
L 96.788103 88.258567 
L 100.067434 93.190243 
L 103.34678 98.121919 
L 106.62611 103.053524 
L 109.905456 107.985002 
L 113.184795 112.916399 
L 116.464133 117.847655 
L 119.743479 122.778609 
L 123.022809 127.709168 
L 126.302148 132.639097 
L 129.581486 137.567525 
L 132.860824 142.49444 
L 136.140163 147.419201 
L 139.419493 152.340633 
L 142.698847 157.257374 
L 145.978178 162.167759 
L 149.257516 167.069506 
L 152.536862 171.959299 
L 155.816192 176.834238 
L 159.095538 181.689143 
L 162.374869 186.52029 
L 165.654215 191.319948 
L 168.933553 196.083858 
L 172.212892 200.798103 
L 175.492234 205.452759 
L 178.771564 210.03664 
L 182.050914 214.534217 
L 185.330245 218.929926 
L 188.609583 223.210508 
L 191.888925 227.353253 
L 195.168256 231.339773 
L 198.447606 235.146084 
L 201.726936 238.751116 
L 205.006277 242.12948 
L 208.285621 245.253768 
L 211.564957 248.114342 
L 214.844301 250.678795 
L 218.123628 252.920648 
L 221.402982 254.825983 
L 224.682308 256.3744 
L 227.961652 257.540391 
L 231.240996 258.321985 
L 234.520323 258.710785 
L 237.799667 258.697927 
L 241.079004 258.290151 
L 244.358348 257.495609 
L 247.637684 256.314867 
L 250.917028 254.759582 
L 254.196364 252.852049 
L 257.475699 250.604041 
L 260.755035 248.039289 
L 264.034379 245.18134 
L 267.313716 242.044573 
L 270.59306 238.654417 
L 273.872394 235.03452 
L 277.151733 231.213035 
L 280.431067 227.216509 
L 283.710409 223.063532 
L 286.989755 218.773381 
L 290.269093 214.366061 
L 293.548424 209.859341 
L 296.827762 205.26886 
L 300.107108 200.606265 
L 303.386439 195.885943 
L 306.665785 191.120054 
L 309.945123 186.318033 
L 313.224462 181.487165 
L 316.503792 176.633517 
L 319.783138 171.76143 
L 323.062476 166.874152 
L 326.341815 161.976432 
L 329.621153 157.070785 
L 332.900491 152.158072 
L 336.179822 147.239993 
L 339.459168 142.318165 
L 342.738514 137.393788 
L 346.01786 132.46671 
L 349.297191 127.538201 
L 352.576521 122.608772 
L 355.855867 117.678341 
L 359.135213 112.747364 
L 362.414536 107.816282 
L 365.693882 102.885014 
L 368.97322 97.953524 
L 372.252566 93.021895 
L 375.531881 88.090289 
L 378.811227 83.15859 
L 382.090574 78.226891 
L 385.36992 73.295145 
L 388.649266 68.363307 
L 391.928581 63.431584 
L 395.207927 58.499815 
L 398.487273 53.568 
" clip-path="url(#p388255e750)" style="fill: none; stroke-dasharray: 5.55,2.4; stroke-dashoffset: 0; stroke: #808080; stroke-width: 1.5"/>
   </g>
   <g id="line2d_13">
    <path d="M 73.832727 248.396752 
L 77.112073 248.430411 
L 80.391404 248.421337 
L 83.670734 248.547231 
L 86.95008 248.561532 
L 90.229426 248.499306 
L 93.508757 248.571432 
L 96.788103 248.707069 
L 100.067434 248.632837 
L 103.34678 248.739541 
L 106.62611 249.206843 
L 109.905456 249.559268 
L 113.184795 250.070565 
L 116.464133 251.128827 
L 119.743479 252.004539 
L 123.022809 253.293398 
L 126.302148 255.205162 
L 129.581486 257.551985 
L 132.860824 261.136864 
L 136.140163 267.082441 
L 139.419493 275.01841 
L 142.698847 280.987098 
L 145.978178 284.69815 
L 149.257516 286.642822 
L 152.536862 287.554483 
L 155.816192 287.795954 
L 159.095538 287.525539 
L 162.374869 286.664074 
L 165.654215 284.445461 
L 168.933553 281.57189 
L 172.212892 279.078515 
L 175.492234 276.780914 
L 178.771564 274.516249 
L 182.050914 272.610342 
L 185.330245 271.292944 
L 188.609583 269.754163 
L 191.888925 268.67195 
L 195.168256 267.721205 
L 198.447606 266.958663 
L 201.726936 266.681219 
L 205.006277 266.680639 
L 208.285621 267.046416 
L 211.564957 267.726396 
L 214.844301 268.4458 
L 218.123628 269.755001 
L 221.402982 271.142249 
L 224.682308 273.213354 
L 227.961652 275.421596 
L 231.240996 278.13935 
L 234.520323 281.516809 
L 237.799667 285.295047 
L 241.079004 287.406516 
L 244.358348 287.634962 
L 247.637684 287.096358 
L 250.917028 283.612266 
L 254.196364 273.895685 
L 257.475699 261.057433 
L 260.755035 254.618124 
L 264.034379 251.013616 
L 267.313716 248.893815 
L 270.59306 249.368299 
L 273.872394 250.773934 
L 277.151733 251.703208 
L 280.431067 252.414432 
L 283.710409 253.379815 
L 286.989755 254.331978 
L 290.269093 255.375017 
L 293.548424 256.202755 
L 296.827762 256.50087 
L 300.107108 256.393889 
L 303.386439 256.624145 
L 306.665785 256.237491 
L 309.945123 255.746309 
L 313.224462 255.152746 
L 316.503792 254.591752 
L 319.783138 254.375695 
L 323.062476 253.835889 
L 326.341815 253.194231 
L 329.621153 252.861097 
L 332.900491 252.648579 
L 336.179822 252.436412 
L 339.459168 251.820523 
L 342.738514 251.607071 
L 346.01786 251.291855 
L 349.297191 251.064873 
L 352.576521 250.795658 
L 355.855867 250.651433 
L 359.135213 250.012574 
L 362.414536 250.034147 
L 365.693882 249.908151 
L 368.97322 249.961596 
L 372.252566 249.802617 
L 375.531881 249.691928 
L 378.811227 249.717951 
L 382.090574 249.752919 
L 385.36992 249.648441 
L 388.649266 249.613624 
L 391.928581 249.630136 
L 395.207927 249.523042 
L 398.487273 249.677729 
" clip-path="url(#p388255e750)" style="fill: none; stroke: #ffa500; stroke-width: 1.5; stroke-linecap: round"/>
   </g>
   <g id="line2d_14">
    <path d="M 73.832727 241.489137 
L 77.112073 242.163366 
L 80.391404 242.280943 
L 83.670734 242.890939 
L 86.95008 243.684753 
L 90.229426 243.76082 
L 93.508757 244.558662 
L 96.788103 245.461747 
L 100.067434 246.031763 
L 103.34678 246.787594 
L 106.62611 247.120582 
L 109.905456 248.064299 
L 113.184795 248.579365 
L 116.464133 249.499787 
L 119.743479 250.054789 
L 123.022809 250.944162 
L 126.302148 251.693835 
L 129.581486 252.601637 
L 132.860824 253.816208 
L 136.140163 254.791585 
L 139.419493 256.492323 
L 142.698847 257.645233 
L 145.978178 259.870844 
L 149.257516 262.867353 
L 152.536862 266.784885 
L 155.816192 271.8247 
L 159.095538 276.693685 
L 162.374869 281.443242 
L 165.654215 286.248612 
L 168.933553 290.252573 
L 172.212892 293.240579 
L 175.492234 294.033159 
L 178.771564 293.47132 
L 182.050914 291.124877 
L 185.330245 288.35326 
L 188.609583 286.389774 
L 191.888925 284.401286 
L 195.168256 282.796851 
L 198.447606 281.280216 
L 201.726936 280.38885 
L 205.006277 279.781897 
L 208.285621 279.563284 
L 211.564957 279.769927 
L 214.844301 280.050465 
L 218.123628 281.188294 
L 221.402982 282.084039 
L 224.682308 283.453291 
L 227.961652 285.393331 
L 231.240996 287.446272 
L 234.520323 289.919666 
L 237.799667 292.46292 
L 241.079004 293.644992 
L 244.358348 293.490294 
L 247.637684 292.254477 
L 250.917028 289.849255 
L 254.196364 286.716742 
L 257.475699 283.750993 
L 260.755035 281.299114 
L 264.034379 279.154868 
L 267.313716 277.76494 
L 270.59306 276.712772 
L 273.872394 275.454993 
L 277.151733 275.641448 
L 280.431067 274.978711 
L 283.710409 275.104946 
L 286.989755 274.46619 
L 290.269093 274.200616 
L 293.548424 273.563243 
L 296.827762 273.051758 
L 300.107108 272.275594 
L 303.386439 271.43327 
L 306.665785 270.836364 
L 309.945123 270.362247 
L 313.224462 269.429041 
L 316.503792 268.35335 
L 319.783138 267.841849 
L 323.062476 266.961314 
L 326.341815 266.137633 
L 329.621153 266.092834 
L 332.900491 265.318029 
L 336.179822 264.449106 
L 339.459168 263.345573 
L 342.738514 262.820522 
L 346.01786 261.979601 
L 349.297191 261.387817 
L 352.576521 260.450816 
L 355.855867 260.277506 
L 359.135213 259.354934 
L 362.414536 258.605652 
L 365.693882 257.605811 
L 368.97322 257.523125 
L 372.252566 256.861054 
L 375.531881 255.885479 
L 378.811227 255.190765 
L 382.090574 254.919132 
L 385.36992 253.836922 
L 388.649266 253.608191 
L 391.928581 252.782866 
L 395.207927 252.451071 
L 398.487273 251.384122 
" clip-path="url(#p388255e750)" style="fill: none; stroke: #0000ff; stroke-width: 1.5; stroke-linecap: round"/>
   </g>
   <g id="line2d_15">
    <path d="M 73.832727 215.396502 
L 77.112073 217.566136 
L 80.391404 219.147793 
L 83.670734 221.759407 
L 86.95008 223.774715 
L 90.229426 225.763622 
L 93.508757 228.153202 
L 96.788103 230.252136 
L 100.067434 232.52911 
L 103.34678 234.102484 
L 106.62611 236.793063 
L 109.905456 239.187753 
L 113.184795 240.924662 
L 116.464133 243.157924 
L 119.743479 245.270793 
L 123.022809 247.312776 
L 126.302148 249.535788 
L 129.581486 251.862345 
L 132.860824 253.678545 
L 136.140163 256.026576 
L 139.419493 258.030979 
L 142.698847 260.41269 
L 145.978178 262.310031 
L 149.257516 264.580485 
L 152.536862 266.457394 
L 155.816192 268.874617 
L 159.095538 270.721449 
L 162.374869 273.105226 
L 165.654215 274.967706 
L 168.933553 277.054511 
L 172.212892 278.972212 
L 175.492234 280.981973 
L 178.771564 283.140799 
L 182.050914 285.042878 
L 185.330245 286.883287 
L 188.609583 288.793748 
L 191.888925 290.533567 
L 195.168256 292.205557 
L 198.447606 293.626044 
L 201.726936 294.826669 
L 205.006277 295.20318 
L 208.285621 295.427661 
L 211.564957 295.015228 
L 214.844301 293.916768 
L 218.123628 292.830711 
L 221.402982 291.847191 
L 224.682308 290.961057 
L 227.961652 290.174448 
L 231.240996 289.555209 
L 234.520323 289.51181 
L 237.799667 289.568428 
L 241.079004 289.943096 
L 244.358348 290.450385 
L 247.637684 291.184265 
L 250.917028 292.187315 
L 254.196364 293.307822 
L 257.475699 294.532176 
L 260.755035 295.275601 
L 264.034379 295.488 
L 267.313716 295.172683 
L 270.59306 294.347221 
L 273.872394 293.22196 
L 277.151733 291.51534 
L 280.431067 289.815036 
L 283.710409 287.994196 
L 286.989755 286.047925 
L 290.269093 284.363233 
L 293.548424 282.158982 
L 296.827762 280.349724 
L 300.107108 278.247228 
L 303.386439 276.362287 
L 306.665785 274.25004 
L 309.945123 272.174581 
L 313.224462 269.947055 
L 316.503792 267.924815 
L 319.783138 265.859787 
L 323.062476 263.732842 
L 326.341815 261.641415 
L 329.621153 259.295357 
L 332.900491 257.307382 
L 336.179822 255.18415 
L 339.459168 253.157769 
L 342.738514 250.950075 
L 346.01786 248.841322 
L 349.297191 246.984182 
L 352.576521 244.641939 
L 355.855867 242.060241 
L 359.135213 240.237639 
L 362.414536 238.179919 
L 365.693882 236.01082 
L 368.97322 233.923892 
L 372.252566 231.475644 
L 375.531881 229.529225 
L 378.811227 227.025905 
L 382.090574 225.17061 
L 385.36992 223.027743 
L 388.649266 220.772375 
L 391.928581 218.956589 
L 395.207927 216.849488 
L 398.487273 214.258076 
" clip-path="url(#p388255e750)" style="fill: none; stroke: #ff0000; stroke-width: 1.5; stroke-linecap: round"/>
   </g>
   <g id="patch_3">
    <path d="M 57.6 307.584 
L 57.6 41.472 
" style="fill: none; stroke: #ffffff; stroke-width: 0.8; stroke-linejoin: miter; stroke-linecap: square"/>
   </g>
   <g id="patch_4">
    <path d="M 414.72 307.584 
L 414.72 41.472 
" style="fill: none; stroke: #ffffff; stroke-width: 0.8; stroke-linejoin: miter; stroke-linecap: square"/>
   </g>
   <g id="patch_5">
    <path d="M 57.6 307.584 
L 414.72 307.584 
" style="fill: none; stroke: #ffffff; stroke-width: 0.8; stroke-linejoin: miter; stroke-linecap: square"/>
   </g>
   <g id="patch_6">
    <path d="M 57.6 41.472 
L 414.72 41.472 
" style="fill: none; stroke: #ffffff; stroke-width: 0.8; stroke-linejoin: miter; stroke-linecap: square"/>
   </g>
   <g id="legend_1">
    <g id="patch_7">
     <path d="M 311.02 204.95925 
L 407.72 204.95925 
Q 409.72 204.95925 409.72 202.95925 
L 409.72 146.09675 
Q 409.72 144.09675 407.72 144.09675 
L 311.02 144.09675 
Q 309.02 144.09675 309.02 146.09675 
L 309.02 202.95925 
Q 309.02 204.95925 311.02 204.95925 
z
" style="fill: #eaeaf2; opacity: 0.8; stroke: #cccccc; stroke-linejoin: miter"/>
    </g>
    <g id="line2d_16">
     <path d="M 313.02 151.754562 
L 323.02 151.754562 
L 333.02 151.754562 
" style="fill: none; stroke-dasharray: 5.55,2.4; stroke-dashoffset: 0; stroke: #808080; stroke-width: 1.5"/>
    </g>
    <g id="text_14">
     <!-- eccentricity -->
     <g style="fill: #262626" transform="translate(341.02 155.254562) scale(0.1 -0.1)">
      <defs>
       <path id="ArialMT-65" d="M 2694 1069 
L 3275 997 
Q 3138 488 2766 206 
Q 2394 -75 1816 -75 
Q 1088 -75 661 373 
Q 234 822 234 1631 
Q 234 2469 665 2931 
Q 1097 3394 1784 3394 
Q 2450 3394 2872 2941 
Q 3294 2488 3294 1666 
Q 3294 1616 3291 1516 
L 816 1516 
Q 847 969 1125 678 
Q 1403 388 1819 388 
Q 2128 388 2347 550 
Q 2566 713 2694 1069 
z
M 847 1978 
L 2700 1978 
Q 2663 2397 2488 2606 
Q 2219 2931 1791 2931 
Q 1403 2931 1139 2672 
Q 875 2413 847 1978 
z
" transform="scale(0.015625)"/>
       <path id="ArialMT-63" d="M 2588 1216 
L 3141 1144 
Q 3050 572 2676 248 
Q 2303 -75 1759 -75 
Q 1078 -75 664 370 
Q 250 816 250 1647 
Q 250 2184 428 2587 
Q 606 2991 970 3192 
Q 1334 3394 1763 3394 
Q 2303 3394 2647 3120 
Q 2991 2847 3088 2344 
L 2541 2259 
Q 2463 2594 2264 2762 
Q 2066 2931 1784 2931 
Q 1359 2931 1093 2626 
Q 828 2322 828 1663 
Q 828 994 1084 691 
Q 1341 388 1753 388 
Q 2084 388 2306 591 
Q 2528 794 2588 1216 
z
" transform="scale(0.015625)"/>
       <path id="ArialMT-6e" d="M 422 0 
L 422 3319 
L 928 3319 
L 928 2847 
Q 1294 3394 1984 3394 
Q 2284 3394 2536 3286 
Q 2788 3178 2913 3003 
Q 3038 2828 3088 2588 
Q 3119 2431 3119 2041 
L 3119 0 
L 2556 0 
L 2556 2019 
Q 2556 2363 2490 2533 
Q 2425 2703 2258 2804 
Q 2091 2906 1866 2906 
Q 1506 2906 1245 2678 
Q 984 2450 984 1813 
L 984 0 
L 422 0 
z
" transform="scale(0.015625)"/>
       <path id="ArialMT-74" d="M 1650 503 
L 1731 6 
Q 1494 -44 1306 -44 
Q 1000 -44 831 53 
Q 663 150 594 308 
Q 525 466 525 972 
L 525 2881 
L 113 2881 
L 113 3319 
L 525 3319 
L 525 4141 
L 1084 4478 
L 1084 3319 
L 1650 3319 
L 1650 2881 
L 1084 2881 
L 1084 941 
Q 1084 700 1114 631 
Q 1144 563 1211 522 
Q 1278 481 1403 481 
Q 1497 481 1650 503 
z
" transform="scale(0.015625)"/>
       <path id="ArialMT-72" d="M 416 0 
L 416 3319 
L 922 3319 
L 922 2816 
Q 1116 3169 1280 3281 
Q 1444 3394 1641 3394 
Q 1925 3394 2219 3213 
L 2025 2691 
Q 1819 2813 1613 2813 
Q 1428 2813 1281 2702 
Q 1134 2591 1072 2394 
Q 978 2094 978 1738 
L 978 0 
L 416 0 
z
" transform="scale(0.015625)"/>
       <path id="ArialMT-69" d="M 425 3934 
L 425 4581 
L 988 4581 
L 988 3934 
L 425 3934 
z
M 425 0 
L 425 3319 
L 988 3319 
L 988 0 
L 425 0 
z
" transform="scale(0.015625)"/>
       <path id="ArialMT-79" d="M 397 -1278 
L 334 -750 
Q 519 -800 656 -800 
Q 844 -800 956 -737 
Q 1069 -675 1141 -563 
Q 1194 -478 1313 -144 
Q 1328 -97 1363 -6 
L 103 3319 
L 709 3319 
L 1400 1397 
Q 1534 1031 1641 628 
Q 1738 1016 1872 1384 
L 2581 3319 
L 3144 3319 
L 1881 -56 
Q 1678 -603 1566 -809 
Q 1416 -1088 1222 -1217 
Q 1028 -1347 759 -1347 
Q 597 -1347 397 -1278 
z
" transform="scale(0.015625)"/>
      </defs>
      <use xlink:href="#ArialMT-65"/>
      <use xlink:href="#ArialMT-63" transform="translate(55.615234 0)"/>
      <use xlink:href="#ArialMT-63" transform="translate(105.615234 0)"/>
      <use xlink:href="#ArialMT-65" transform="translate(155.615234 0)"/>
      <use xlink:href="#ArialMT-6e" transform="translate(211.230469 0)"/>
      <use xlink:href="#ArialMT-74" transform="translate(266.845703 0)"/>
      <use xlink:href="#ArialMT-72" transform="translate(294.628906 0)"/>
      <use xlink:href="#ArialMT-69" transform="translate(327.929688 0)"/>
      <use xlink:href="#ArialMT-63" transform="translate(350.146484 0)"/>
      <use xlink:href="#ArialMT-69" transform="translate(400.146484 0)"/>
      <use xlink:href="#ArialMT-74" transform="translate(422.363281 0)"/>
      <use xlink:href="#ArialMT-79" transform="translate(450.146484 0)"/>
     </g>
    </g>
    <g id="line2d_17">
     <path d="M 313.02 166.35925 
L 323.02 166.35925 
L 333.02 166.35925 
" style="fill: none; stroke: #ffa500; stroke-width: 1.5; stroke-linecap: round"/>
    </g>
    <g id="text_15">
     <!-- $\mu=1, \sigma = 0.1$ -->
     <g style="fill: #262626" transform="translate(341.02 169.85925) scale(0.1 -0.1)">
      <defs>
       <path id="DejaVuSans-3d" d="M 678 2906 
L 4684 2906 
L 4684 2381 
L 678 2381 
L 678 2906 
z
M 678 1631 
L 4684 1631 
L 4684 1100 
L 678 1100 
L 678 1631 
z
" transform="scale(0.015625)"/>
       <path id="DejaVuSans-31" d="M 794 531 
L 1825 531 
L 1825 4091 
L 703 3866 
L 703 4441 
L 1819 4666 
L 2450 4666 
L 2450 531 
L 3481 531 
L 3481 0 
L 794 0 
L 794 531 
z
" transform="scale(0.015625)"/>
       <path id="DejaVuSans-30" d="M 2034 4250 
Q 1547 4250 1301 3770 
Q 1056 3291 1056 2328 
Q 1056 1369 1301 889 
Q 1547 409 2034 409 
Q 2525 409 2770 889 
Q 3016 1369 3016 2328 
Q 3016 3291 2770 3770 
Q 2525 4250 2034 4250 
z
M 2034 4750 
Q 2819 4750 3233 4129 
Q 3647 3509 3647 2328 
Q 3647 1150 3233 529 
Q 2819 -91 2034 -91 
Q 1250 -91 836 529 
Q 422 1150 422 2328 
Q 422 3509 836 4129 
Q 1250 4750 2034 4750 
z
" transform="scale(0.015625)"/>
       <path id="DejaVuSans-2e" d="M 684 794 
L 1344 794 
L 1344 0 
L 684 0 
L 684 794 
z
" transform="scale(0.015625)"/>
      </defs>
      <use xlink:href="#DejaVuSans-Oblique-3bc" transform="translate(0 0.78125)"/>
      <use xlink:href="#DejaVuSans-3d" transform="translate(83.105469 0.78125)"/>
      <use xlink:href="#DejaVuSans-31" transform="translate(186.376953 0.78125)"/>
      <use xlink:href="#DejaVuSans-2c" transform="translate(250 0.78125)"/>
      <use xlink:href="#DejaVuSans-Oblique-3c3" transform="translate(301.269531 0.78125)"/>
      <use xlink:href="#DejaVuSans-3d" transform="translate(384.130859 0.78125)"/>
      <use xlink:href="#DejaVuSans-30" transform="translate(487.402344 0.78125)"/>
      <use xlink:href="#DejaVuSans-2e" transform="translate(551.025391 0.78125)"/>
      <use xlink:href="#DejaVuSans-31" transform="translate(582.8125 0.78125)"/>
     </g>
    </g>
    <g id="line2d_18">
     <path d="M 313.02 180.75925 
L 323.02 180.75925 
L 333.02 180.75925 
" style="fill: none; stroke: #0000ff; stroke-width: 1.5; stroke-linecap: round"/>
    </g>
    <g id="text_16">
     <!-- $\mu=1, \sigma = 1$ -->
     <g style="fill: #262626" transform="translate(341.02 184.25925) scale(0.1 -0.1)">
      <use xlink:href="#DejaVuSans-Oblique-3bc" transform="translate(0 0.09375)"/>
      <use xlink:href="#DejaVuSans-3d" transform="translate(83.105469 0.09375)"/>
      <use xlink:href="#DejaVuSans-31" transform="translate(186.376953 0.09375)"/>
      <use xlink:href="#DejaVuSans-2c" transform="translate(250 0.09375)"/>
      <use xlink:href="#DejaVuSans-Oblique-3c3" transform="translate(301.269531 0.09375)"/>
      <use xlink:href="#DejaVuSans-3d" transform="translate(384.130859 0.09375)"/>
      <use xlink:href="#DejaVuSans-31" transform="translate(487.402344 0.09375)"/>
     </g>
    </g>
    <g id="line2d_19">
     <path d="M 313.02 195.35925 
L 323.02 195.35925 
L 333.02 195.35925 
" style="fill: none; stroke: #ff0000; stroke-width: 1.5; stroke-linecap: round"/>
    </g>
    <g id="text_17">
     <!-- $\mu=1, \sigma = 10$ -->
     <g style="fill: #262626" transform="translate(341.02 198.85925) scale(0.1 -0.1)">
      <use xlink:href="#DejaVuSans-Oblique-3bc" transform="translate(0 0.78125)"/>
      <use xlink:href="#DejaVuSans-3d" transform="translate(83.105469 0.78125)"/>
      <use xlink:href="#DejaVuSans-31" transform="translate(186.376953 0.78125)"/>
      <use xlink:href="#DejaVuSans-2c" transform="translate(250 0.78125)"/>
      <use xlink:href="#DejaVuSans-Oblique-3c3" transform="translate(301.269531 0.78125)"/>
      <use xlink:href="#DejaVuSans-3d" transform="translate(384.130859 0.78125)"/>
      <use xlink:href="#DejaVuSans-31" transform="translate(487.402344 0.78125)"/>
      <use xlink:href="#DejaVuSans-30" transform="translate(551.025391 0.78125)"/>
     </g>
    </g>
   </g>
  </g>
 </g>
 <defs>
  <clipPath id="p388255e750">
   <rect x="57.6" y="41.472" width="357.12" height="266.112"/>
  </clipPath>
 </defs>
</svg>
