<?xml version="1.0" encoding="utf-8" standalone="no"?>
<!DOCTYPE svg PUBLIC "-//W3C//DTD SVG 1.1//EN"
  "http://www.w3.org/Graphics/SVG/1.1/DTD/svg11.dtd">
<svg xmlns:xlink="http://www.w3.org/1999/xlink" width="921.6pt" height="345.6pt" viewBox="0 0 921.6 345.6" xmlns="http://www.w3.org/2000/svg" version="1.1">
 <metadata>
  <rdf:RDF xmlns:dc="http://purl.org/dc/elements/1.1/" xmlns:cc="http://creativecommons.org/ns#" xmlns:rdf="http://www.w3.org/1999/02/22-rdf-syntax-ns#">
   <cc:Work>
    <dc:type rdf:resource="http://purl.org/dc/dcmitype/StillImage"/>
    <dc:date>2025-04-12T14:21:17.106735</dc:date>
    <dc:format>image/svg+xml</dc:format>
    <dc:creator>
     <cc:Agent>
      <dc:title>Matplotlib v3.10.1, https://matplotlib.org/</dc:title>
     </cc:Agent>
    </dc:creator>
   </cc:Work>
  </rdf:RDF>
 </metadata>
 <defs>
  <style type="text/css">*{stroke-linejoin: round; stroke-linecap: butt}</style>
 </defs>
 <g id="figure_1">
  <g id="patch_1">
   <path d="M 0 345.6 
L 921.6 345.6 
L 921.6 0 
L 0 0 
z
" style="fill: #ffffff"/>
  </g>
  <g id="axes_1">
   <g id="patch_2">
    <path d="M 115.2 307.584 
L 439.854545 307.584 
L 439.854545 41.472 
L 115.2 41.472 
z
" style="fill: #eaeaf2"/>
   </g>
   <g id="matplotlib.axis_1">
    <g id="xtick_1">
     <g id="line2d_1">
      <path d="M 159.471074 307.584 
L 159.471074 41.472 
" clip-path="url(#p60aa727660)" style="fill: none; stroke: #ffffff; stroke-width: 0.8; stroke-linecap: round"/>
     </g>
     <g id="text_1">
      <!-- −4 -->
      <g style="fill: #262626" transform="translate(153.770293 321.741812) scale(0.1 -0.1)">
       <defs>
        <path id="ArialMT-2212" d="M 3381 1997 
L 356 1997 
L 356 2522 
L 3381 2522 
L 3381 1997 
z
" transform="scale(0.015625)"/>
        <path id="ArialMT-34" d="M 2069 0 
L 2069 1097 
L 81 1097 
L 81 1613 
L 2172 4581 
L 2631 4581 
L 2631 1613 
L 3250 1613 
L 3250 1097 
L 2631 1097 
L 2631 0 
L 2069 0 
z
M 2069 1613 
L 2069 3678 
L 634 1613 
L 2069 1613 
z
" transform="scale(0.015625)"/>
       </defs>
       <use xlink:href="#ArialMT-2212"/>
       <use xlink:href="#ArialMT-34" transform="translate(58.398438 0)"/>
      </g>
     </g>
    </g>
    <g id="xtick_2">
     <g id="line2d_2">
      <path d="M 218.499174 307.584 
L 218.499174 41.472 
" clip-path="url(#p60aa727660)" style="fill: none; stroke: #ffffff; stroke-width: 0.8; stroke-linecap: round"/>
     </g>
     <g id="text_2">
      <!-- −2 -->
      <g style="fill: #262626" transform="translate(212.798392 321.741812) scale(0.1 -0.1)">
       <defs>
        <path id="ArialMT-32" d="M 3222 541 
L 3222 0 
L 194 0 
Q 188 203 259 391 
Q 375 700 629 1000 
Q 884 1300 1366 1694 
Q 2113 2306 2375 2664 
Q 2638 3022 2638 3341 
Q 2638 3675 2398 3904 
Q 2159 4134 1775 4134 
Q 1369 4134 1125 3890 
Q 881 3647 878 3216 
L 300 3275 
Q 359 3922 746 4261 
Q 1134 4600 1788 4600 
Q 2447 4600 2831 4234 
Q 3216 3869 3216 3328 
Q 3216 3053 3103 2787 
Q 2991 2522 2730 2228 
Q 2469 1934 1863 1422 
Q 1356 997 1212 845 
Q 1069 694 975 541 
L 3222 541 
z
" transform="scale(0.015625)"/>
       </defs>
       <use xlink:href="#ArialMT-2212"/>
       <use xlink:href="#ArialMT-32" transform="translate(58.398438 0)"/>
      </g>
     </g>
    </g>
    <g id="xtick_3">
     <g id="line2d_3">
      <path d="M 277.527273 307.584 
L 277.527273 41.472 
" clip-path="url(#p60aa727660)" style="fill: none; stroke: #ffffff; stroke-width: 0.8; stroke-linecap: round"/>
     </g>
     <g id="text_3">
      <!-- 0 -->
      <g style="fill: #262626" transform="translate(274.746804 321.741812) scale(0.1 -0.1)">
       <defs>
        <path id="ArialMT-30" d="M 266 2259 
Q 266 3072 433 3567 
Q 600 4063 929 4331 
Q 1259 4600 1759 4600 
Q 2128 4600 2406 4451 
Q 2684 4303 2865 4023 
Q 3047 3744 3150 3342 
Q 3253 2941 3253 2259 
Q 3253 1453 3087 958 
Q 2922 463 2592 192 
Q 2263 -78 1759 -78 
Q 1097 -78 719 397 
Q 266 969 266 2259 
z
M 844 2259 
Q 844 1131 1108 757 
Q 1372 384 1759 384 
Q 2147 384 2411 759 
Q 2675 1134 2675 2259 
Q 2675 3391 2411 3762 
Q 2147 4134 1753 4134 
Q 1366 4134 1134 3806 
Q 844 3388 844 2259 
z
" transform="scale(0.015625)"/>
       </defs>
       <use xlink:href="#ArialMT-30"/>
      </g>
     </g>
    </g>
    <g id="xtick_4">
     <g id="line2d_4">
      <path d="M 336.555372 307.584 
L 336.555372 41.472 
" clip-path="url(#p60aa727660)" style="fill: none; stroke: #ffffff; stroke-width: 0.8; stroke-linecap: round"/>
     </g>
     <g id="text_4">
      <!-- 2 -->
      <g style="fill: #262626" transform="translate(333.774903 321.741812) scale(0.1 -0.1)">
       <use xlink:href="#ArialMT-32"/>
      </g>
     </g>
    </g>
    <g id="xtick_5">
     <g id="line2d_5">
      <path d="M 395.583471 307.584 
L 395.583471 41.472 
" clip-path="url(#p60aa727660)" style="fill: none; stroke: #ffffff; stroke-width: 0.8; stroke-linecap: round"/>
     </g>
     <g id="text_5">
      <!-- 4 -->
      <g style="fill: #262626" transform="translate(392.803002 321.741812) scale(0.1 -0.1)">
       <use xlink:href="#ArialMT-34"/>
      </g>
     </g>
    </g>
    <g id="text_6">
     <!-- x -->
     <g style="fill: #262626" transform="translate(275.027273 334.887125) scale(0.1 -0.1)">
      <defs>
       <path id="ArialMT-78" d="M 47 0 
L 1259 1725 
L 138 3319 
L 841 3319 
L 1350 2541 
Q 1494 2319 1581 2169 
Q 1719 2375 1834 2534 
L 2394 3319 
L 3066 3319 
L 1919 1756 
L 3153 0 
L 2463 0 
L 1781 1031 
L 1600 1309 
L 728 0 
L 47 0 
z
" transform="scale(0.015625)"/>
      </defs>
      <use xlink:href="#ArialMT-78"/>
     </g>
    </g>
   </g>
   <g id="matplotlib.axis_2">
    <g id="ytick_1">
     <g id="line2d_6">
      <path d="M 115.2 285.583179 
L 439.854545 285.583179 
" clip-path="url(#p60aa727660)" style="fill: none; stroke: #ffffff; stroke-width: 0.8; stroke-linecap: round"/>
     </g>
     <g id="text_7">
      <!-- −6 -->
      <g style="fill: #262626" transform="translate(96.798438 289.162085) scale(0.1 -0.1)">
       <defs>
        <path id="ArialMT-36" d="M 3184 3459 
L 2625 3416 
Q 2550 3747 2413 3897 
Q 2184 4138 1850 4138 
Q 1581 4138 1378 3988 
Q 1113 3794 959 3422 
Q 806 3050 800 2363 
Q 1003 2672 1297 2822 
Q 1591 2972 1913 2972 
Q 2475 2972 2870 2558 
Q 3266 2144 3266 1488 
Q 3266 1056 3080 686 
Q 2894 316 2569 119 
Q 2244 -78 1831 -78 
Q 1128 -78 684 439 
Q 241 956 241 2144 
Q 241 3472 731 4075 
Q 1159 4600 1884 4600 
Q 2425 4600 2770 4297 
Q 3116 3994 3184 3459 
z
M 888 1484 
Q 888 1194 1011 928 
Q 1134 663 1356 523 
Q 1578 384 1822 384 
Q 2178 384 2434 671 
Q 2691 959 2691 1453 
Q 2691 1928 2437 2201 
Q 2184 2475 1800 2475 
Q 1419 2475 1153 2201 
Q 888 1928 888 1484 
z
" transform="scale(0.015625)"/>
       </defs>
       <use xlink:href="#ArialMT-2212"/>
       <use xlink:href="#ArialMT-36" transform="translate(58.398438 0)"/>
      </g>
     </g>
    </g>
    <g id="ytick_2">
     <g id="line2d_7">
      <path d="M 115.2 251.729818 
L 439.854545 251.729818 
" clip-path="url(#p60aa727660)" style="fill: none; stroke: #ffffff; stroke-width: 0.8; stroke-linecap: round"/>
     </g>
     <g id="text_8">
      <!-- −5 -->
      <g style="fill: #262626" transform="translate(96.798438 255.308724) scale(0.1 -0.1)">
       <defs>
        <path id="ArialMT-35" d="M 266 1200 
L 856 1250 
Q 922 819 1161 601 
Q 1400 384 1738 384 
Q 2144 384 2425 690 
Q 2706 997 2706 1503 
Q 2706 1984 2436 2262 
Q 2166 2541 1728 2541 
Q 1456 2541 1237 2417 
Q 1019 2294 894 2097 
L 366 2166 
L 809 4519 
L 3088 4519 
L 3088 3981 
L 1259 3981 
L 1013 2750 
Q 1425 3038 1878 3038 
Q 2478 3038 2890 2622 
Q 3303 2206 3303 1553 
Q 3303 931 2941 478 
Q 2500 -78 1738 -78 
Q 1113 -78 717 272 
Q 322 622 266 1200 
z
" transform="scale(0.015625)"/>
       </defs>
       <use xlink:href="#ArialMT-2212"/>
       <use xlink:href="#ArialMT-35" transform="translate(58.398438 0)"/>
      </g>
     </g>
    </g>
    <g id="ytick_3">
     <g id="line2d_8">
      <path d="M 115.2 217.876456 
L 439.854545 217.876456 
" clip-path="url(#p60aa727660)" style="fill: none; stroke: #ffffff; stroke-width: 0.8; stroke-linecap: round"/>
     </g>
     <g id="text_9">
      <!-- −4 -->
      <g style="fill: #262626" transform="translate(96.798438 221.455363) scale(0.1 -0.1)">
       <use xlink:href="#ArialMT-2212"/>
       <use xlink:href="#ArialMT-34" transform="translate(58.398438 0)"/>
      </g>
     </g>
    </g>
    <g id="ytick_4">
     <g id="line2d_9">
      <path d="M 115.2 184.023095 
L 439.854545 184.023095 
" clip-path="url(#p60aa727660)" style="fill: none; stroke: #ffffff; stroke-width: 0.8; stroke-linecap: round"/>
     </g>
     <g id="text_10">
      <!-- −3 -->
      <g style="fill: #262626" transform="translate(96.798438 187.602001) scale(0.1 -0.1)">
       <defs>
        <path id="ArialMT-33" d="M 269 1209 
L 831 1284 
Q 928 806 1161 595 
Q 1394 384 1728 384 
Q 2125 384 2398 659 
Q 2672 934 2672 1341 
Q 2672 1728 2419 1979 
Q 2166 2231 1775 2231 
Q 1616 2231 1378 2169 
L 1441 2663 
Q 1497 2656 1531 2656 
Q 1891 2656 2178 2843 
Q 2466 3031 2466 3422 
Q 2466 3731 2256 3934 
Q 2047 4138 1716 4138 
Q 1388 4138 1169 3931 
Q 950 3725 888 3313 
L 325 3413 
Q 428 3978 793 4289 
Q 1159 4600 1703 4600 
Q 2078 4600 2393 4439 
Q 2709 4278 2876 4000 
Q 3044 3722 3044 3409 
Q 3044 3113 2884 2869 
Q 2725 2625 2413 2481 
Q 2819 2388 3044 2092 
Q 3269 1797 3269 1353 
Q 3269 753 2831 336 
Q 2394 -81 1725 -81 
Q 1122 -81 723 278 
Q 325 638 269 1209 
z
" transform="scale(0.015625)"/>
       </defs>
       <use xlink:href="#ArialMT-2212"/>
       <use xlink:href="#ArialMT-33" transform="translate(58.398438 0)"/>
      </g>
     </g>
    </g>
    <g id="ytick_5">
     <g id="line2d_10">
      <path d="M 115.2 150.169733 
L 439.854545 150.169733 
" clip-path="url(#p60aa727660)" style="fill: none; stroke: #ffffff; stroke-width: 0.8; stroke-linecap: round"/>
     </g>
     <g id="text_11">
      <!-- −2 -->
      <g style="fill: #262626" transform="translate(96.798438 153.74864) scale(0.1 -0.1)">
       <use xlink:href="#ArialMT-2212"/>
       <use xlink:href="#ArialMT-32" transform="translate(58.398438 0)"/>
      </g>
     </g>
    </g>
    <g id="ytick_6">
     <g id="line2d_11">
      <path d="M 115.2 116.316372 
L 439.854545 116.316372 
" clip-path="url(#p60aa727660)" style="fill: none; stroke: #ffffff; stroke-width: 0.8; stroke-linecap: round"/>
     </g>
     <g id="text_12">
      <!-- −1 -->
      <g style="fill: #262626" transform="translate(96.798438 119.895278) scale(0.1 -0.1)">
       <defs>
        <path id="ArialMT-31" d="M 2384 0 
L 1822 0 
L 1822 3584 
Q 1619 3391 1289 3197 
Q 959 3003 697 2906 
L 697 3450 
Q 1169 3672 1522 3987 
Q 1875 4303 2022 4600 
L 2384 4600 
L 2384 0 
z
" transform="scale(0.015625)"/>
       </defs>
       <use xlink:href="#ArialMT-2212"/>
       <use xlink:href="#ArialMT-31" transform="translate(58.398438 0)"/>
      </g>
     </g>
    </g>
    <g id="ytick_7">
     <g id="line2d_12">
      <path d="M 115.2 82.463011 
L 439.854545 82.463011 
" clip-path="url(#p60aa727660)" style="fill: none; stroke: #ffffff; stroke-width: 0.8; stroke-linecap: round"/>
     </g>
     <g id="text_13">
      <!-- 0 -->
      <g style="fill: #262626" transform="translate(102.639063 86.041917) scale(0.1 -0.1)">
       <use xlink:href="#ArialMT-30"/>
      </g>
     </g>
    </g>
    <g id="ytick_8">
     <g id="line2d_13">
      <path d="M 115.2 48.609649 
L 439.854545 48.609649 
" clip-path="url(#p60aa727660)" style="fill: none; stroke: #ffffff; stroke-width: 0.8; stroke-linecap: round"/>
     </g>
     <g id="text_14">
      <!-- 1 -->
      <g style="fill: #262626" transform="translate(102.639063 52.188555) scale(0.1 -0.1)">
       <use xlink:href="#ArialMT-31"/>
      </g>
     </g>
    </g>
    <g id="text_15">
     <!-- f(x) -->
     <g style="fill: #262626" transform="translate(90.69375 181.74675) rotate(-90) scale(0.1 -0.1)">
      <defs>
       <path id="ArialMT-66" d="M 556 0 
L 556 2881 
L 59 2881 
L 59 3319 
L 556 3319 
L 556 3672 
Q 556 4006 616 4169 
Q 697 4388 901 4523 
Q 1106 4659 1475 4659 
Q 1713 4659 2000 4603 
L 1916 4113 
Q 1741 4144 1584 4144 
Q 1328 4144 1222 4034 
Q 1116 3925 1116 3625 
L 1116 3319 
L 1763 3319 
L 1763 2881 
L 1116 2881 
L 1116 0 
L 556 0 
z
" transform="scale(0.015625)"/>
       <path id="ArialMT-28" d="M 1497 -1347 
Q 1031 -759 709 28 
Q 388 816 388 1659 
Q 388 2403 628 3084 
Q 909 3875 1497 4659 
L 1900 4659 
Q 1522 4009 1400 3731 
Q 1209 3300 1100 2831 
Q 966 2247 966 1656 
Q 966 153 1900 -1347 
L 1497 -1347 
z
" transform="scale(0.015625)"/>
       <path id="ArialMT-29" d="M 791 -1347 
L 388 -1347 
Q 1322 153 1322 1656 
Q 1322 2244 1188 2822 
Q 1081 3291 891 3722 
Q 769 4003 388 4659 
L 791 4659 
Q 1378 3875 1659 3084 
Q 1900 2403 1900 1659 
Q 1900 816 1576 28 
Q 1253 -759 791 -1347 
z
" transform="scale(0.015625)"/>
      </defs>
      <use xlink:href="#ArialMT-66"/>
      <use xlink:href="#ArialMT-28" transform="translate(27.783203 0)"/>
      <use xlink:href="#ArialMT-78" transform="translate(61.083984 0)"/>
      <use xlink:href="#ArialMT-29" transform="translate(111.083984 0)"/>
     </g>
    </g>
   </g>
   <g id="line2d_14">
    <path d="M 129.957025 92.745514 
L 132.938248 92.537789 
L 135.919458 92.33006 
L 138.900668 92.122334 
L 141.881891 91.914605 
L 144.863115 91.706877 
L 147.844325 91.499152 
L 150.825548 91.291425 
L 153.806758 91.083696 
L 156.787982 90.87597 
L 159.769191 90.668242 
L 162.750415 90.460514 
L 165.731631 90.252787 
L 168.712848 90.04506 
L 171.694072 89.837332 
L 174.675281 89.629605 
L 177.656498 89.42188 
L 180.637715 89.214151 
L 183.618931 89.006423 
L 186.600148 88.798695 
L 189.581357 88.590969 
L 192.562588 88.383241 
L 195.543798 88.175513 
L 198.525014 87.967787 
L 201.506238 87.760059 
L 204.487448 87.552331 
L 207.468671 87.344604 
L 210.449881 87.136877 
L 213.431105 86.929149 
L 216.412321 86.721421 
L 219.393538 86.513695 
L 222.374758 86.305967 
L 225.355968 86.09824 
L 228.337195 85.890512 
L 231.318404 85.682785 
L 234.299621 85.475058 
L 237.280841 85.267331 
L 240.262051 85.059603 
L 243.243278 84.851875 
L 246.224488 84.644148 
L 249.205706 84.436421 
L 252.186928 84.228693 
L 255.168143 84.020966 
L 258.149365 83.813238 
L 261.130571 83.605512 
L 264.111801 83.397783 
L 267.093007 83.190057 
L 270.074229 82.982329 
L 273.055451 82.774601 
L 276.036657 82.566875 
L 279.017879 82.503444 
L 281.999094 82.584309 
L 284.980316 82.665176 
L 287.961531 82.746042 
L 290.942753 82.826908 
L 293.923968 82.907774 
L 296.905181 82.98864 
L 299.886396 83.069505 
L 302.867618 83.150372 
L 305.848832 83.231238 
L 308.830054 83.312104 
L 311.811268 83.39297 
L 314.792484 83.473836 
L 317.773697 83.554701 
L 320.754917 83.635568 
L 323.736141 83.716434 
L 326.717358 83.7973 
L 329.698567 83.878166 
L 332.679784 83.959031 
L 335.661008 84.039898 
L 338.642217 84.120764 
L 341.623441 84.20163 
L 344.604658 84.282496 
L 347.585874 84.363362 
L 350.567084 84.444227 
L 353.548307 84.525094 
L 356.529524 84.60596 
L 359.510741 84.686826 
L 362.491957 84.767692 
L 365.473174 84.848558 
L 368.454384 84.929424 
L 371.435607 85.01029 
L 374.416831 85.091155 
L 377.398055 85.172022 
L 380.379264 85.252888 
L 383.360474 85.333753 
L 386.341697 85.414619 
L 389.322921 85.495486 
L 392.304124 85.576351 
L 395.285347 85.657218 
L 398.266564 85.738084 
L 401.247788 85.818949 
L 404.228983 85.899814 
L 407.210207 85.980681 
L 410.19143 86.061547 
L 413.172654 86.142414 
L 416.153878 86.22328 
L 419.135073 86.304146 
L 422.116297 86.385013 
L 425.097521 86.465879 
" clip-path="url(#p60aa727660)" style="fill: none; stroke: #4169e1; stroke-width: 1.5; stroke-linecap: round"/>
   </g>
   <g id="line2d_15">
    <path d="M 129.957025 69.207942 
L 132.938248 69.231721 
L 135.919458 69.255498 
L 138.900668 69.279277 
L 141.881891 69.307962 
L 144.863115 69.347599 
L 147.844325 69.387236 
L 150.825548 69.426874 
L 153.806758 69.46651 
L 156.787982 69.506148 
L 159.769191 69.545784 
L 162.750415 69.585421 
L 165.731631 69.625058 
L 168.712848 69.664694 
L 171.694072 69.716835 
L 174.675281 69.776174 
L 177.656498 69.883468 
L 180.637715 70.062242 
L 183.618931 70.259187 
L 186.600148 70.457438 
L 189.581357 70.734345 
L 192.562588 71.021238 
L 195.543798 71.308131 
L 198.525014 71.59637 
L 201.506238 71.942256 
L 204.487448 72.288141 
L 207.468671 72.634028 
L 210.449881 72.979914 
L 213.431105 73.322211 
L 216.412321 73.659648 
L 219.393538 74.036037 
L 222.374758 74.501736 
L 225.355968 75.095159 
L 228.337195 75.792059 
L 231.318404 76.849933 
L 234.299621 78.151297 
L 237.280841 79.444767 
L 240.262051 80.725549 
L 243.243278 82.115366 
L 246.224488 83.922237 
L 249.205706 85.831907 
L 252.186928 88.296175 
L 255.168143 90.788426 
L 258.149365 93.276861 
L 261.130571 96.066805 
L 264.111801 98.922525 
L 267.093007 101.779538 
L 270.074229 104.636566 
L 273.055451 107.493598 
L 276.036657 110.35061 
L 279.017879 113.207637 
L 281.999094 116.064661 
L 284.980316 118.921689 
L 287.961531 121.764718 
L 290.942753 124.594436 
L 293.923968 127.414817 
L 296.905181 130.187564 
L 299.886396 132.9603 
L 302.867618 135.733048 
L 305.848832 138.505791 
L 308.830054 141.278539 
L 311.811268 144.051279 
L 314.792484 146.824018 
L 317.773697 149.596758 
L 320.754917 152.369502 
L 323.736141 155.086469 
L 326.717358 157.645869 
L 329.698567 160.205268 
L 332.679784 162.764668 
L 335.661008 165.324084 
L 338.642217 167.883476 
L 341.623441 170.442884 
L 344.604658 173.002284 
L 347.585874 175.5617 
L 350.567084 178.121091 
L 353.548307 180.680499 
L 356.529524 183.239899 
L 359.510741 185.799291 
L 362.491957 188.358707 
L 365.473174 190.872092 
L 368.454384 193.327316 
L 371.435607 195.74149 
L 374.416831 198.149352 
L 377.398055 200.555018 
L 380.379264 202.960692 
L 383.360474 205.366351 
L 386.341697 207.772009 
L 389.322921 210.177683 
L 392.304124 212.583341 
L 395.285347 214.989 
L 398.266564 217.394674 
L 401.247788 219.800357 
L 404.228983 222.206015 
L 407.210207 224.611641 
L 410.19143 226.997411 
L 413.172654 229.383021 
L 416.153878 231.768662 
L 419.135073 234.154271 
L 422.116297 236.539881 
L 425.097521 238.925554 
" clip-path="url(#p60aa727660)" style="fill: none; stroke: #0000ff; stroke-width: 1.5; stroke-linecap: round"/>
   </g>
   <g id="line2d_16">
    <path d="M 129.957025 65.58167 
L 132.938248 65.713838 
L 135.919458 65.846005 
L 138.900668 66.002048 
L 141.881891 66.162786 
L 144.863115 66.323522 
L 147.844325 66.484257 
L 150.825548 66.644993 
L 153.806758 66.805729 
L 156.787982 66.998184 
L 159.769191 67.224528 
L 162.750415 67.477184 
L 165.731631 67.734471 
L 168.712848 68.010388 
L 171.694072 68.286306 
L 174.675281 68.562223 
L 177.656498 68.838141 
L 180.637715 69.114059 
L 183.618931 69.389976 
L 186.600148 69.665894 
L 189.581357 69.967364 
L 192.562588 70.275196 
L 195.543798 70.604731 
L 198.525014 71.021077 
L 201.506238 71.46919 
L 204.487448 72.139644 
L 207.468671 72.937742 
L 210.449881 73.892998 
L 213.431105 74.98862 
L 216.412321 76.233086 
L 219.393538 77.47755 
L 222.374758 79.877245 
L 225.355968 83.066634 
L 228.337195 86.355899 
L 231.318404 89.645142 
L 234.299621 92.934394 
L 237.280841 96.223651 
L 240.262051 99.512893 
L 243.243278 102.802156 
L 246.224488 106.091398 
L 249.205706 109.380651 
L 252.186928 112.669903 
L 255.168143 115.95916 
L 258.149365 119.248414 
L 261.130571 122.537651 
L 264.111801 125.826927 
L 267.093007 129.116156 
L 270.074229 132.405424 
L 273.055451 135.692046 
L 276.036657 138.969563 
L 279.017879 142.247096 
L 281.999094 145.524621 
L 284.980316 148.802145 
L 287.961531 152.079662 
L 290.942753 155.357195 
L 293.923968 158.634728 
L 296.905181 161.912245 
L 299.886396 165.189762 
L 302.867618 168.467295 
L 305.848832 171.74482 
L 308.830054 175.020812 
L 311.811268 178.287828 
L 314.792484 181.554852 
L 317.773697 184.821884 
L 320.754917 188.088909 
L 323.736141 191.322978 
L 326.717358 194.554835 
L 329.698567 197.786661 
L 332.679784 201.018519 
L 335.661008 204.250368 
L 338.642217 207.482218 
L 341.623441 210.714051 
L 344.604658 213.945901 
L 347.585874 217.177751 
L 350.567084 220.409576 
L 353.548307 223.641442 
L 356.529524 226.873292 
L 359.510741 230.105141 
L 362.491957 233.336975 
L 365.473174 236.568808 
L 368.454384 239.800674 
L 371.435607 243.032524 
L 374.416831 246.264373 
L 377.398055 249.496239 
L 380.379264 252.728056 
L 383.360474 255.950075 
L 386.341697 258.984566 
L 389.322921 261.926463 
L 392.304124 264.868377 
L 395.285347 267.786028 
L 398.266564 270.602869 
L 401.247788 273.419678 
L 404.228983 276.236471 
L 407.210207 279.052149 
L 410.19143 281.818093 
L 413.172654 284.570671 
L 416.153878 287.314386 
L 419.135073 290.058069 
L 422.116297 292.791001 
L 425.097521 295.488 
" clip-path="url(#p60aa727660)" style="fill: none; stroke: #0000cd; stroke-width: 1.5; stroke-linecap: round"/>
   </g>
   <g id="line2d_17">
    <path d="M 129.957025 53.748141 
L 132.938248 53.732186 
L 135.919458 53.716233 
L 138.900668 53.700276 
L 141.881891 53.684321 
L 144.863115 53.668366 
L 147.844325 53.652413 
L 150.825548 53.636458 
L 153.806758 53.620504 
L 156.787982 53.604549 
L 159.769191 53.589056 
L 162.750415 53.582036 
L 165.731631 53.575018 
L 168.712848 53.568 
L 171.694072 53.595511 
L 174.675281 53.658277 
L 177.656498 53.727303 
L 180.637715 53.796326 
L 183.618931 53.858293 
L 186.600148 53.912276 
L 189.581357 53.966261 
L 192.562588 54.020245 
L 195.543798 54.07423 
L 198.525014 54.128213 
L 201.506238 54.182199 
L 204.487448 54.236182 
L 207.468671 54.290167 
L 210.449881 54.344152 
L 213.431105 54.398136 
L 216.412321 54.452119 
L 219.393538 54.539153 
L 222.374758 57.033747 
L 225.355968 60.428907 
L 228.337195 63.848425 
L 231.318404 67.267924 
L 234.299621 70.687429 
L 237.280841 74.106941 
L 240.262051 77.52644 
L 243.243278 80.945963 
L 246.224488 84.365457 
L 249.205706 87.784972 
L 252.186928 91.204483 
L 255.168143 94.62399 
L 258.149365 98.043504 
L 261.130571 101.462995 
L 264.111801 104.882518 
L 267.093007 108.302016 
L 270.074229 111.721531 
L 273.055451 115.141046 
L 276.036657 118.560536 
L 279.017879 121.980043 
L 281.999094 125.399558 
L 284.980316 128.819072 
L 287.961531 132.238563 
L 290.942753 135.658094 
L 293.923968 139.077584 
L 296.905181 142.497099 
L 299.886396 145.916606 
L 302.867618 149.336112 
L 305.848832 152.755607 
L 308.830054 156.17513 
L 311.811268 159.594637 
L 314.792484 163.014143 
L 317.773697 166.433634 
L 320.754917 169.853157 
L 323.736141 173.272679 
L 326.717358 176.69217 
L 329.698567 180.111677 
L 332.679784 183.531183 
L 335.661008 186.950706 
L 338.642217 190.370197 
L 341.623441 193.789736 
L 344.604658 197.209226 
L 347.585874 200.628749 
L 350.567084 204.048239 
L 353.548307 207.467762 
L 356.529524 210.887253 
L 359.510741 214.306776 
L 362.491957 217.726266 
L 365.473174 221.145789 
L 368.454384 224.565279 
L 371.435607 227.984786 
L 374.416831 231.404309 
L 377.398055 234.823816 
L 380.379264 238.243306 
L 383.360474 241.662829 
L 386.341697 245.082336 
L 389.322921 248.501858 
L 392.304124 251.921349 
L 395.285347 255.340872 
L 398.266564 258.760362 
L 401.247788 262.179869 
L 404.228983 265.59936 
L 407.210207 269.018882 
L 410.19143 272.438389 
L 413.172654 275.85788 
L 416.153878 279.277435 
L 419.135073 282.690839 
L 422.116297 285.951504 
L 425.097521 289.212168 
" clip-path="url(#p60aa727660)" style="fill: none; stroke: #191970; stroke-width: 1.5; stroke-linecap: round"/>
   </g>
   <g id="patch_3">
    <path d="M 115.2 307.584 
L 115.2 41.472 
" style="fill: none; stroke: #ffffff; stroke-width: 0.8; stroke-linejoin: miter; stroke-linecap: square"/>
   </g>
   <g id="patch_4">
    <path d="M 439.854545 307.584 
L 439.854545 41.472 
" style="fill: none; stroke: #ffffff; stroke-width: 0.8; stroke-linejoin: miter; stroke-linecap: square"/>
   </g>
   <g id="patch_5">
    <path d="M 115.2 307.584 
L 439.854545 307.584 
" style="fill: none; stroke: #ffffff; stroke-width: 0.8; stroke-linejoin: miter; stroke-linecap: square"/>
   </g>
   <g id="patch_6">
    <path d="M 115.2 41.472 
L 439.854545 41.472 
" style="fill: none; stroke: #ffffff; stroke-width: 0.8; stroke-linejoin: miter; stroke-linecap: square"/>
   </g>
   <g id="legend_1">
    <g id="patch_7">
     <path d="M 354.431108 302.584 
L 432.854545 302.584 
Q 434.854545 302.584 434.854545 300.584 
L 434.854545 244.913687 
Q 434.854545 242.913687 432.854545 242.913687 
L 354.431108 242.913687 
Q 352.431108 242.913687 352.431108 244.913687 
L 352.431108 300.584 
Q 352.431108 302.584 354.431108 302.584 
z
" style="fill: #eaeaf2; opacity: 0.8; stroke: #cccccc; stroke-linejoin: miter"/>
    </g>
    <g id="line2d_18">
     <path d="M 356.431108 250.601187 
L 366.431108 250.601187 
L 376.431108 250.601187 
" style="fill: none; stroke: #4169e1; stroke-width: 1.5; stroke-linecap: round"/>
    </g>
    <g id="text_16">
     <!-- steps=0 -->
     <g style="fill: #262626" transform="translate(384.431108 254.101187) scale(0.1 -0.1)">
      <defs>
       <path id="ArialMT-73" d="M 197 991 
L 753 1078 
Q 800 744 1014 566 
Q 1228 388 1613 388 
Q 2000 388 2187 545 
Q 2375 703 2375 916 
Q 2375 1106 2209 1216 
Q 2094 1291 1634 1406 
Q 1016 1563 777 1677 
Q 538 1791 414 1992 
Q 291 2194 291 2438 
Q 291 2659 392 2848 
Q 494 3038 669 3163 
Q 800 3259 1026 3326 
Q 1253 3394 1513 3394 
Q 1903 3394 2198 3281 
Q 2494 3169 2634 2976 
Q 2775 2784 2828 2463 
L 2278 2388 
Q 2241 2644 2061 2787 
Q 1881 2931 1553 2931 
Q 1166 2931 1000 2803 
Q 834 2675 834 2503 
Q 834 2394 903 2306 
Q 972 2216 1119 2156 
Q 1203 2125 1616 2013 
Q 2213 1853 2448 1751 
Q 2684 1650 2818 1456 
Q 2953 1263 2953 975 
Q 2953 694 2789 445 
Q 2625 197 2315 61 
Q 2006 -75 1616 -75 
Q 969 -75 630 194 
Q 291 463 197 991 
z
" transform="scale(0.015625)"/>
       <path id="ArialMT-74" d="M 1650 503 
L 1731 6 
Q 1494 -44 1306 -44 
Q 1000 -44 831 53 
Q 663 150 594 308 
Q 525 466 525 972 
L 525 2881 
L 113 2881 
L 113 3319 
L 525 3319 
L 525 4141 
L 1084 4478 
L 1084 3319 
L 1650 3319 
L 1650 2881 
L 1084 2881 
L 1084 941 
Q 1084 700 1114 631 
Q 1144 563 1211 522 
Q 1278 481 1403 481 
Q 1497 481 1650 503 
z
" transform="scale(0.015625)"/>
       <path id="ArialMT-65" d="M 2694 1069 
L 3275 997 
Q 3138 488 2766 206 
Q 2394 -75 1816 -75 
Q 1088 -75 661 373 
Q 234 822 234 1631 
Q 234 2469 665 2931 
Q 1097 3394 1784 3394 
Q 2450 3394 2872 2941 
Q 3294 2488 3294 1666 
Q 3294 1616 3291 1516 
L 816 1516 
Q 847 969 1125 678 
Q 1403 388 1819 388 
Q 2128 388 2347 550 
Q 2566 713 2694 1069 
z
M 847 1978 
L 2700 1978 
Q 2663 2397 2488 2606 
Q 2219 2931 1791 2931 
Q 1403 2931 1139 2672 
Q 875 2413 847 1978 
z
" transform="scale(0.015625)"/>
       <path id="ArialMT-70" d="M 422 -1272 
L 422 3319 
L 934 3319 
L 934 2888 
Q 1116 3141 1344 3267 
Q 1572 3394 1897 3394 
Q 2322 3394 2647 3175 
Q 2972 2956 3137 2557 
Q 3303 2159 3303 1684 
Q 3303 1175 3120 767 
Q 2938 359 2589 142 
Q 2241 -75 1856 -75 
Q 1575 -75 1351 44 
Q 1128 163 984 344 
L 984 -1272 
L 422 -1272 
z
M 931 1641 
Q 931 1000 1190 694 
Q 1450 388 1819 388 
Q 2194 388 2461 705 
Q 2728 1022 2728 1688 
Q 2728 2322 2467 2637 
Q 2206 2953 1844 2953 
Q 1484 2953 1207 2617 
Q 931 2281 931 1641 
z
" transform="scale(0.015625)"/>
       <path id="ArialMT-3d" d="M 3381 2694 
L 356 2694 
L 356 3219 
L 3381 3219 
L 3381 2694 
z
M 3381 1303 
L 356 1303 
L 356 1828 
L 3381 1828 
L 3381 1303 
z
" transform="scale(0.015625)"/>
      </defs>
      <use xlink:href="#ArialMT-73"/>
      <use xlink:href="#ArialMT-74" transform="translate(50 0)"/>
      <use xlink:href="#ArialMT-65" transform="translate(77.783203 0)"/>
      <use xlink:href="#ArialMT-70" transform="translate(133.398438 0)"/>
      <use xlink:href="#ArialMT-73" transform="translate(189.013672 0)"/>
      <use xlink:href="#ArialMT-3d" transform="translate(239.013672 0)"/>
      <use xlink:href="#ArialMT-30" transform="translate(297.412109 0)"/>
     </g>
    </g>
    <g id="line2d_19">
     <path d="M 356.431108 264.7465 
L 366.431108 264.7465 
L 376.431108 264.7465 
" style="fill: none; stroke: #0000ff; stroke-width: 1.5; stroke-linecap: round"/>
    </g>
    <g id="text_17">
     <!-- steps=5 -->
     <g style="fill: #262626" transform="translate(384.431108 268.2465) scale(0.1 -0.1)">
      <use xlink:href="#ArialMT-73"/>
      <use xlink:href="#ArialMT-74" transform="translate(50 0)"/>
      <use xlink:href="#ArialMT-65" transform="translate(77.783203 0)"/>
      <use xlink:href="#ArialMT-70" transform="translate(133.398438 0)"/>
      <use xlink:href="#ArialMT-73" transform="translate(189.013672 0)"/>
      <use xlink:href="#ArialMT-3d" transform="translate(239.013672 0)"/>
      <use xlink:href="#ArialMT-35" transform="translate(297.412109 0)"/>
     </g>
    </g>
    <g id="line2d_20">
     <path d="M 356.431108 278.9215 
L 366.431108 278.9215 
L 376.431108 278.9215 
" style="fill: none; stroke: #0000cd; stroke-width: 1.5; stroke-linecap: round"/>
    </g>
    <g id="text_18">
     <!-- steps=10 -->
     <g style="fill: #262626" transform="translate(384.431108 282.4215) scale(0.1 -0.1)">
      <use xlink:href="#ArialMT-73"/>
      <use xlink:href="#ArialMT-74" transform="translate(50 0)"/>
      <use xlink:href="#ArialMT-65" transform="translate(77.783203 0)"/>
      <use xlink:href="#ArialMT-70" transform="translate(133.398438 0)"/>
      <use xlink:href="#ArialMT-73" transform="translate(189.013672 0)"/>
      <use xlink:href="#ArialMT-3d" transform="translate(239.013672 0)"/>
      <use xlink:href="#ArialMT-31" transform="translate(297.412109 0)"/>
      <use xlink:href="#ArialMT-30" transform="translate(353.027344 0)"/>
     </g>
    </g>
    <g id="line2d_21">
     <path d="M 356.431108 293.0965 
L 366.431108 293.0965 
L 376.431108 293.0965 
" style="fill: none; stroke: #191970; stroke-width: 1.5; stroke-linecap: round"/>
    </g>
    <g id="text_19">
     <!-- steps=100 -->
     <g style="fill: #262626" transform="translate(384.431108 296.5965) scale(0.1 -0.1)">
      <use xlink:href="#ArialMT-73"/>
      <use xlink:href="#ArialMT-74" transform="translate(50 0)"/>
      <use xlink:href="#ArialMT-65" transform="translate(77.783203 0)"/>
      <use xlink:href="#ArialMT-70" transform="translate(133.398438 0)"/>
      <use xlink:href="#ArialMT-73" transform="translate(189.013672 0)"/>
      <use xlink:href="#ArialMT-3d" transform="translate(239.013672 0)"/>
      <use xlink:href="#ArialMT-31" transform="translate(297.412109 0)"/>
      <use xlink:href="#ArialMT-30" transform="translate(353.027344 0)"/>
      <use xlink:href="#ArialMT-30" transform="translate(408.642578 0)"/>
     </g>
    </g>
   </g>
  </g>
  <g id="axes_2">
   <g id="patch_8">
    <path d="M 504.785455 307.584 
L 829.44 307.584 
L 829.44 41.472 
L 504.785455 41.472 
z
" style="fill: #eaeaf2"/>
   </g>
   <g id="matplotlib.axis_3">
    <g id="xtick_6">
     <g id="line2d_22">
      <path d="M 549.056529 307.584 
L 549.056529 41.472 
" clip-path="url(#p2e239b5c3b)" style="fill: none; stroke: #ffffff; stroke-width: 0.8; stroke-linecap: round"/>
     </g>
     <g id="text_20">
      <!-- −4 -->
      <g style="fill: #262626" transform="translate(543.355748 321.741812) scale(0.1 -0.1)">
       <use xlink:href="#ArialMT-2212"/>
       <use xlink:href="#ArialMT-34" transform="translate(58.398438 0)"/>
      </g>
     </g>
    </g>
    <g id="xtick_7">
     <g id="line2d_23">
      <path d="M 608.084628 307.584 
L 608.084628 41.472 
" clip-path="url(#p2e239b5c3b)" style="fill: none; stroke: #ffffff; stroke-width: 0.8; stroke-linecap: round"/>
     </g>
     <g id="text_21">
      <!-- −2 -->
      <g style="fill: #262626" transform="translate(602.383847 321.741812) scale(0.1 -0.1)">
       <use xlink:href="#ArialMT-2212"/>
       <use xlink:href="#ArialMT-32" transform="translate(58.398438 0)"/>
      </g>
     </g>
    </g>
    <g id="xtick_8">
     <g id="line2d_24">
      <path d="M 667.112727 307.584 
L 667.112727 41.472 
" clip-path="url(#p2e239b5c3b)" style="fill: none; stroke: #ffffff; stroke-width: 0.8; stroke-linecap: round"/>
     </g>
     <g id="text_22">
      <!-- 0 -->
      <g style="fill: #262626" transform="translate(664.332259 321.741812) scale(0.1 -0.1)">
       <use xlink:href="#ArialMT-30"/>
      </g>
     </g>
    </g>
    <g id="xtick_9">
     <g id="line2d_25">
      <path d="M 726.140826 307.584 
L 726.140826 41.472 
" clip-path="url(#p2e239b5c3b)" style="fill: none; stroke: #ffffff; stroke-width: 0.8; stroke-linecap: round"/>
     </g>
     <g id="text_23">
      <!-- 2 -->
      <g style="fill: #262626" transform="translate(723.360358 321.741812) scale(0.1 -0.1)">
       <use xlink:href="#ArialMT-32"/>
      </g>
     </g>
    </g>
    <g id="xtick_10">
     <g id="line2d_26">
      <path d="M 785.168926 307.584 
L 785.168926 41.472 
" clip-path="url(#p2e239b5c3b)" style="fill: none; stroke: #ffffff; stroke-width: 0.8; stroke-linecap: round"/>
     </g>
     <g id="text_24">
      <!-- 4 -->
      <g style="fill: #262626" transform="translate(782.388457 321.741812) scale(0.1 -0.1)">
       <use xlink:href="#ArialMT-34"/>
      </g>
     </g>
    </g>
    <g id="text_25">
     <!-- x -->
     <g style="fill: #262626" transform="translate(664.612727 334.887125) scale(0.1 -0.1)">
      <use xlink:href="#ArialMT-78"/>
     </g>
    </g>
   </g>
   <g id="matplotlib.axis_4">
    <g id="ytick_9">
     <g id="line2d_27">
      <path d="M 504.785455 285.583179 
L 829.44 285.583179 
" clip-path="url(#p2e239b5c3b)" style="fill: none; stroke: #ffffff; stroke-width: 0.8; stroke-linecap: round"/>
     </g>
    </g>
    <g id="ytick_10">
     <g id="line2d_28">
      <path d="M 504.785455 251.729818 
L 829.44 251.729818 
" clip-path="url(#p2e239b5c3b)" style="fill: none; stroke: #ffffff; stroke-width: 0.8; stroke-linecap: round"/>
     </g>
    </g>
    <g id="ytick_11">
     <g id="line2d_29">
      <path d="M 504.785455 217.876456 
L 829.44 217.876456 
" clip-path="url(#p2e239b5c3b)" style="fill: none; stroke: #ffffff; stroke-width: 0.8; stroke-linecap: round"/>
     </g>
    </g>
    <g id="ytick_12">
     <g id="line2d_30">
      <path d="M 504.785455 184.023095 
L 829.44 184.023095 
" clip-path="url(#p2e239b5c3b)" style="fill: none; stroke: #ffffff; stroke-width: 0.8; stroke-linecap: round"/>
     </g>
    </g>
    <g id="ytick_13">
     <g id="line2d_31">
      <path d="M 504.785455 150.169733 
L 829.44 150.169733 
" clip-path="url(#p2e239b5c3b)" style="fill: none; stroke: #ffffff; stroke-width: 0.8; stroke-linecap: round"/>
     </g>
    </g>
    <g id="ytick_14">
     <g id="line2d_32">
      <path d="M 504.785455 116.316372 
L 829.44 116.316372 
" clip-path="url(#p2e239b5c3b)" style="fill: none; stroke: #ffffff; stroke-width: 0.8; stroke-linecap: round"/>
     </g>
    </g>
    <g id="ytick_15">
     <g id="line2d_33">
      <path d="M 504.785455 82.463011 
L 829.44 82.463011 
" clip-path="url(#p2e239b5c3b)" style="fill: none; stroke: #ffffff; stroke-width: 0.8; stroke-linecap: round"/>
     </g>
    </g>
    <g id="ytick_16">
     <g id="line2d_34">
      <path d="M 504.785455 48.609649 
L 829.44 48.609649 
" clip-path="url(#p2e239b5c3b)" style="fill: none; stroke: #ffffff; stroke-width: 0.8; stroke-linecap: round"/>
     </g>
    </g>
    <g id="text_26">
     <!-- Pf(x) -->
     <g style="fill: #262626" transform="translate(498.680767 185.081906) rotate(-90) scale(0.1 -0.1)">
      <defs>
       <path id="ArialMT-50" d="M 494 0 
L 494 4581 
L 2222 4581 
Q 2678 4581 2919 4538 
Q 3256 4481 3484 4323 
Q 3713 4166 3852 3881 
Q 3991 3597 3991 3256 
Q 3991 2672 3619 2267 
Q 3247 1863 2275 1863 
L 1100 1863 
L 1100 0 
L 494 0 
z
M 1100 2403 
L 2284 2403 
Q 2872 2403 3119 2622 
Q 3366 2841 3366 3238 
Q 3366 3525 3220 3729 
Q 3075 3934 2838 4000 
Q 2684 4041 2272 4041 
L 1100 4041 
L 1100 2403 
z
" transform="scale(0.015625)"/>
      </defs>
      <use xlink:href="#ArialMT-50"/>
      <use xlink:href="#ArialMT-66" transform="translate(66.699219 0)"/>
      <use xlink:href="#ArialMT-28" transform="translate(94.482422 0)"/>
      <use xlink:href="#ArialMT-78" transform="translate(127.783203 0)"/>
      <use xlink:href="#ArialMT-29" transform="translate(177.783203 0)"/>
     </g>
    </g>
   </g>
   <g id="line2d_35">
    <path d="M 519.542479 84.11754 
L 522.523703 84.10509 
L 525.504913 84.085365 
L 528.486122 84.069618 
L 531.467346 84.058287 
L 534.44857 84.044135 
L 537.429779 84.019644 
L 540.411003 84.011612 
L 543.392212 83.980299 
L 546.373436 83.965191 
L 549.354646 83.95598 
L 552.335869 83.932414 
L 555.317086 83.916946 
L 558.298303 83.897072 
L 561.279526 83.874978 
L 564.260736 83.856697 
L 567.241952 83.831371 
L 570.223169 83.813569 
L 573.204386 83.788805 
L 576.185602 83.756712 
L 579.166812 83.73542 
L 582.148043 83.700406 
L 585.129252 83.664629 
L 588.110469 83.615437 
L 591.091693 83.57489 
L 594.072902 83.54779 
L 597.054126 83.528749 
L 600.035335 83.505848 
L 603.016559 83.509308 
L 605.997776 83.504408 
L 608.978992 83.510738 
L 611.960213 83.525663 
L 614.941422 83.5401 
L 617.922649 83.558444 
L 620.903859 83.589867 
L 623.885076 83.608341 
L 626.866296 83.638752 
L 629.847505 83.664101 
L 632.828732 83.684401 
L 635.809942 83.701773 
L 638.79116 83.712945 
L 641.772382 83.719467 
L 644.753597 83.712791 
L 647.734819 83.703774 
L 650.716025 83.685249 
L 653.697256 83.673329 
L 656.678462 83.651792 
L 659.659684 83.623655 
L 662.640906 83.598568 
L 665.622112 83.5714 
L 668.603334 83.543378 
L 671.584549 83.524072 
L 674.565771 83.507041 
L 677.546985 83.496881 
L 680.528207 83.489392 
L 683.509422 83.485288 
L 686.490635 83.487663 
L 689.47185 83.489769 
L 692.453072 83.504268 
L 695.434287 83.514484 
L 698.415509 83.519132 
L 701.396722 83.534653 
L 704.377939 83.559663 
L 707.359152 83.566446 
L 710.340372 83.594491 
L 713.321596 83.613623 
L 716.302812 83.628229 
L 719.284022 83.644688 
L 722.265238 83.661137 
L 725.246462 83.671417 
L 728.227672 83.69421 
L 731.208895 83.709504 
L 734.190112 83.723734 
L 737.171329 83.744993 
L 740.152538 83.767705 
L 743.133762 83.791831 
L 746.114979 83.813696 
L 749.096195 83.827173 
L 752.077412 83.851575 
L 755.058628 83.877311 
L 758.039838 83.885693 
L 761.021062 83.921475 
L 764.002285 83.926816 
L 766.983509 83.944596 
L 769.964719 83.969796 
L 772.945928 83.992995 
L 775.927152 84.01355 
L 778.908376 84.026119 
L 781.889578 84.044854 
L 784.870802 84.071484 
L 787.852018 84.089907 
L 790.833242 84.101301 
L 793.814438 84.114674 
L 796.795661 84.1352 
L 799.776885 84.161958 
L 802.758109 84.175035 
L 805.739332 84.183239 
L 808.720528 84.218449 
L 811.701752 84.213868 
L 814.682975 84.233209 
" clip-path="url(#p2e239b5c3b)" style="fill: none; stroke: #4169e1; stroke-width: 1.5; stroke-linecap: round"/>
   </g>
   <g id="line2d_36">
    <path d="M 519.542479 141.674665 
L 522.523703 141.394422 
L 525.504913 141.485273 
L 528.486122 141.266222 
L 531.467346 140.886082 
L 534.44857 140.951733 
L 537.429779 140.711633 
L 540.411003 140.219669 
L 543.392212 140.138395 
L 546.373436 139.794789 
L 549.354646 139.684863 
L 552.335869 139.258829 
L 555.317086 139.109656 
L 558.298303 138.687036 
L 561.279526 138.486594 
L 564.260736 138.104944 
L 567.241952 137.836227 
L 570.223169 137.402138 
L 573.204386 136.822052 
L 576.185602 136.398956 
L 579.166812 135.523449 
L 582.148043 134.979264 
L 585.129252 133.8237 
L 588.110469 132.279262 
L 591.091693 130.138318 
L 594.072902 127.388948 
L 597.054126 124.727245 
L 600.035335 122.150536 
L 603.016559 119.470972 
L 605.997776 117.260311 
L 608.978992 115.120367 
L 611.960213 113.052153 
L 614.941422 111.233316 
L 617.922649 109.649698 
L 620.903859 108.139404 
L 623.885076 107.104052 
L 626.866296 106.000344 
L 629.847505 105.160855 
L 632.828732 104.353276 
L 635.809942 103.878387 
L 638.79116 103.578388 
L 641.772382 103.44388 
L 644.753597 103.564013 
L 647.734819 103.736401 
L 650.716025 104.331409 
L 653.697256 104.755625 
L 656.678462 105.507751 
L 659.659684 106.56024 
L 662.640906 107.644646 
L 665.622112 109.011765 
L 668.603334 110.408987 
L 671.584549 112.134169 
L 674.565771 113.75082 
L 677.546985 115.524169 
L 680.528207 117.345834 
L 683.509422 119.123992 
L 686.490635 120.813567 
L 689.47185 122.212879 
L 692.453072 123.34506 
L 695.434287 124.09696 
L 698.415509 124.654592 
L 701.396722 125.321843 
L 704.377939 125.152601 
L 707.359152 125.483241 
L 710.340372 125.318357 
L 713.321596 125.601138 
L 716.302812 125.694022 
L 719.284022 125.968437 
L 722.265238 126.174541 
L 725.246462 126.589485 
L 728.227672 126.970166 
L 731.208895 127.242071 
L 734.190112 127.447828 
L 737.171329 127.854495 
L 740.152538 128.350136 
L 743.133762 128.497953 
L 746.114979 128.871354 
L 749.096195 129.295124 
L 752.077412 129.16125 
L 755.058628 129.430762 
L 758.039838 129.883972 
L 761.021062 130.255597 
L 764.002285 130.542482 
L 766.983509 130.902651 
L 769.964719 131.053208 
L 772.945928 131.367838 
L 775.927152 131.306226 
L 778.908376 131.801677 
L 781.889578 132.036119 
L 784.870802 132.381416 
L 787.852018 132.259879 
L 790.833242 132.528636 
L 793.814438 132.974744 
L 796.795661 133.194246 
L 799.776885 133.072906 
L 802.758109 133.588669 
L 805.739332 133.626943 
L 808.720528 133.760147 
L 811.701752 133.988535 
L 814.682975 134.412172 
" clip-path="url(#p2e239b5c3b)" style="fill: none; stroke: #0000ff; stroke-width: 1.5; stroke-linecap: round"/>
   </g>
   <g id="line2d_37">
    <path d="M 519.542479 174.826512 
L 522.523703 174.477559 
L 525.504913 174.634722 
L 528.486122 174.374513 
L 531.467346 173.902045 
L 534.44857 174.002677 
L 537.429779 173.746721 
L 540.411003 173.11826 
L 543.392212 173.070026 
L 546.373436 172.653694 
L 549.354646 172.495166 
L 552.335869 171.995385 
L 555.317086 171.815347 
L 558.298303 171.298834 
L 561.279526 171.073864 
L 564.260736 170.595512 
L 567.241952 170.277843 
L 570.223169 169.751265 
L 573.204386 169.036255 
L 576.185602 168.550841 
L 579.166812 167.470364 
L 582.148043 166.846003 
L 585.129252 165.447542 
L 588.110469 163.618245 
L 591.091693 161.048353 
L 594.072902 157.737857 
L 597.054126 154.501738 
L 600.035335 151.42932 
L 603.016559 148.166666 
L 605.997776 145.564259 
L 608.978992 142.985601 
L 611.960213 140.524937 
L 614.941422 138.410873 
L 617.922649 136.577851 
L 620.903859 134.817649 
L 623.885076 133.671904 
L 626.866296 132.389629 
L 629.847505 131.442385 
L 632.828732 130.531695 
L 635.809942 130.004524 
L 638.79116 129.684724 
L 641.772382 129.520781 
L 644.753597 129.668703 
L 647.734819 129.869581 
L 650.716025 130.545671 
L 653.697256 130.966212 
L 656.678462 131.810887 
L 659.659684 133.020722 
L 662.640906 134.221456 
L 665.622112 135.81255 
L 668.603334 137.444718 
L 671.584549 139.454694 
L 674.565771 141.383514 
L 677.546985 143.471269 
L 680.528207 145.655613 
L 683.509422 147.770052 
L 686.490635 149.79015 
L 689.47185 151.47807 
L 692.453072 152.808764 
L 695.434287 153.705539 
L 698.415509 154.39146 
L 701.396722 155.165543 
L 704.377939 154.907085 
L 707.359152 155.291826 
L 710.340372 155.020042 
L 713.321596 155.332812 
L 716.302812 155.424542 
L 719.284022 155.736634 
L 722.265238 155.957415 
L 725.246462 156.468125 
L 728.227672 156.89562 
L 731.208895 157.221409 
L 734.190112 157.445887 
L 737.171329 157.908653 
L 740.152538 158.482496 
L 743.133762 158.629022 
L 746.114979 159.051311 
L 749.096195 159.579269 
L 752.077412 159.366736 
L 755.058628 159.650191 
L 758.039838 160.228506 
L 761.021062 160.596055 
L 764.002285 160.982185 
L 766.983509 161.400034 
L 769.964719 161.556698 
L 772.945928 161.88854 
L 775.927152 161.78735 
L 778.908376 162.398055 
L 781.889578 162.657958 
L 784.870802 163.045686 
L 787.852018 162.850765 
L 790.833242 163.171137 
L 793.814438 163.707554 
L 796.795661 163.937343 
L 799.776885 163.730517 
L 802.758109 164.359156 
L 805.739332 164.40337 
L 808.720528 164.498329 
L 811.701752 164.792131 
L 814.682975 165.277013 
" clip-path="url(#p2e239b5c3b)" style="fill: none; stroke: #0000cd; stroke-width: 1.5; stroke-linecap: round"/>
   </g>
   <g id="line2d_38">
    <path d="M 519.542479 156.749901 
L 522.523703 156.361818 
L 525.504913 156.488037 
L 528.486122 156.188746 
L 531.467346 155.671111 
L 534.44857 155.748216 
L 537.429779 155.440426 
L 540.411003 154.770624 
L 543.392212 154.676037 
L 546.373436 154.221221 
L 549.354646 154.038794 
L 552.335869 153.494669 
L 555.317086 153.28438 
L 558.298303 152.730053 
L 561.279526 152.473669 
L 564.260736 151.954275 
L 567.241952 151.597323 
L 570.223169 151.033271 
L 573.204386 150.266823 
L 576.185602 149.734866 
L 579.166812 148.592849 
L 582.148043 147.914221 
L 585.129252 146.433538 
L 588.110469 144.492253 
L 591.091693 141.796711 
L 594.072902 138.327699 
L 597.054126 134.941196 
L 600.035335 131.716465 
L 603.016559 128.302987 
L 605.997776 125.572981 
L 608.978992 122.875474 
L 611.960213 120.298765 
L 614.941422 118.086075 
L 617.922649 116.166079 
L 620.903859 114.326719 
L 623.885076 113.125587 
L 626.866296 111.791473 
L 629.847505 110.800115 
L 632.828732 109.850215 
L 635.809942 109.297176 
L 638.79116 108.965374 
L 641.772382 108.793214 
L 644.753597 108.948923 
L 647.734819 109.155484 
L 650.716025 109.863997 
L 653.697256 110.303909 
L 656.678462 111.183865 
L 659.659684 112.446795 
L 662.640906 113.704555 
L 665.622112 115.364725 
L 668.603334 117.070406 
L 671.584549 119.176608 
L 674.565771 121.192146 
L 677.546985 123.378988 
L 680.528207 125.668666 
L 683.509422 127.885695 
L 686.490635 130.001227 
L 689.47185 131.767996 
L 692.453072 133.17301 
L 695.434287 134.114827 
L 698.415509 134.836132 
L 701.396722 135.654308 
L 704.377939 135.402182 
L 707.359152 135.810221 
L 710.340372 135.546779 
L 713.321596 135.888278 
L 716.302812 135.993705 
L 719.284022 136.334192 
L 722.265238 136.578554 
L 725.246462 137.117226 
L 728.227672 137.577636 
L 731.208895 137.929951 
L 734.190112 138.172969 
L 737.171329 138.674182 
L 740.152538 139.292341 
L 743.133762 139.462483 
L 746.114979 139.922893 
L 749.096195 140.481893 
L 752.077412 140.27823 
L 755.058628 140.596053 
L 758.039838 141.210958 
L 761.021062 141.621261 
L 764.002285 142.02995 
L 766.983509 142.480993 
L 769.964719 142.66984 
L 772.945928 143.045651 
L 775.927152 142.958828 
L 778.908376 143.601431 
L 781.889578 143.903829 
L 784.870802 144.341203 
L 787.852018 144.159365 
L 790.833242 144.51191 
L 793.814438 145.09305 
L 796.795661 145.362279 
L 799.776885 145.177673 
L 802.758109 145.856547 
L 805.739332 145.927712 
L 808.720528 146.07134 
L 811.701752 146.379832 
L 814.682975 146.920527 
" clip-path="url(#p2e239b5c3b)" style="fill: none; stroke: #191970; stroke-width: 1.5; stroke-linecap: round"/>
   </g>
   <g id="patch_9">
    <path d="M 504.785455 307.584 
L 504.785455 41.472 
" style="fill: none; stroke: #ffffff; stroke-width: 0.8; stroke-linejoin: miter; stroke-linecap: square"/>
   </g>
   <g id="patch_10">
    <path d="M 829.44 307.584 
L 829.44 41.472 
" style="fill: none; stroke: #ffffff; stroke-width: 0.8; stroke-linejoin: miter; stroke-linecap: square"/>
   </g>
   <g id="patch_11">
    <path d="M 504.785455 307.584 
L 829.44 307.584 
" style="fill: none; stroke: #ffffff; stroke-width: 0.8; stroke-linejoin: miter; stroke-linecap: square"/>
   </g>
   <g id="patch_12">
    <path d="M 504.785455 41.472 
L 829.44 41.472 
" style="fill: none; stroke: #ffffff; stroke-width: 0.8; stroke-linejoin: miter; stroke-linecap: square"/>
   </g>
  </g>
  <g id="text_27">
   <!-- $\mu=1, \sigma=1$ -->
   <g style="fill: #262626" transform="translate(427.68 15.672) scale(0.12 -0.12)">
    <defs>
     <path id="DejaVuSans-Oblique-3bc" d="M -84 -1331 
L 856 3500 
L 1434 3500 
L 1009 1322 
Q 997 1256 987 1175 
Q 978 1094 978 1013 
Q 978 722 1161 565 
Q 1344 409 1684 409 
Q 2147 409 2431 671 
Q 2716 934 2816 1459 
L 3213 3500 
L 3788 3500 
L 3266 809 
Q 3253 750 3248 706 
Q 3244 663 3244 628 
Q 3244 531 3283 486 
Q 3322 441 3406 441 
Q 3438 441 3492 456 
Q 3547 472 3647 513 
L 3559 50 
Q 3422 -19 3297 -55 
Q 3172 -91 3053 -91 
Q 2847 -91 2730 40 
Q 2613 172 2613 403 
Q 2438 153 2195 31 
Q 1953 -91 1625 -91 
Q 1334 -91 1117 43 
Q 900 178 831 397 
L 494 -1331 
L -84 -1331 
z
" transform="scale(0.015625)"/>
     <path id="DejaVuSans-3d" d="M 678 2906 
L 4684 2906 
L 4684 2381 
L 678 2381 
L 678 2906 
z
M 678 1631 
L 4684 1631 
L 4684 1100 
L 678 1100 
L 678 1631 
z
" transform="scale(0.015625)"/>
     <path id="DejaVuSans-31" d="M 794 531 
L 1825 531 
L 1825 4091 
L 703 3866 
L 703 4441 
L 1819 4666 
L 2450 4666 
L 2450 531 
L 3481 531 
L 3481 0 
L 794 0 
L 794 531 
z
" transform="scale(0.015625)"/>
     <path id="DejaVuSans-2c" d="M 750 794 
L 1409 794 
L 1409 256 
L 897 -744 
L 494 -744 
L 750 256 
L 750 794 
z
" transform="scale(0.015625)"/>
     <path id="DejaVuSans-Oblique-3c3" d="M 2219 3044 
Q 1744 3044 1422 2700 
Q 1081 2341 969 1747 
Q 844 1119 1044 756 
Q 1241 397 1706 397 
Q 2166 397 2503 759 
Q 2844 1122 2966 1747 
Q 3075 2319 2881 2700 
Q 2700 3044 2219 3044 
z
M 2309 3503 
L 4219 3500 
L 4106 2925 
L 3463 2925 
Q 3706 2438 3575 1747 
Q 3406 888 2884 400 
Q 2359 -91 1609 -91 
Q 856 -91 525 400 
Q 194 888 363 1747 
Q 528 2609 1050 3097 
Q 1484 3503 2309 3503 
z
" transform="scale(0.015625)"/>
    </defs>
    <use xlink:href="#DejaVuSans-Oblique-3bc" transform="translate(0 0.09375)"/>
    <use xlink:href="#DejaVuSans-3d" transform="translate(83.105469 0.09375)"/>
    <use xlink:href="#DejaVuSans-31" transform="translate(186.376953 0.09375)"/>
    <use xlink:href="#DejaVuSans-2c" transform="translate(250 0.09375)"/>
    <use xlink:href="#DejaVuSans-Oblique-3c3" transform="translate(301.269531 0.09375)"/>
    <use xlink:href="#DejaVuSans-3d" transform="translate(384.130859 0.09375)"/>
    <use xlink:href="#DejaVuSans-31" transform="translate(487.402344 0.09375)"/>
   </g>
  </g>
 </g>
 <defs>
  <clipPath id="p60aa727660">
   <rect x="115.2" y="41.472" width="324.654545" height="266.112"/>
  </clipPath>
  <clipPath id="p2e239b5c3b">
   <rect x="504.785455" y="41.472" width="324.654545" height="266.112"/>
  </clipPath>
 </defs>
</svg>
