<?xml version="1.0" encoding="utf-8" standalone="no"?>
<!DOCTYPE svg PUBLIC "-//W3C//DTD SVG 1.1//EN"
  "http://www.w3.org/Graphics/SVG/1.1/DTD/svg11.dtd">
<svg xmlns:xlink="http://www.w3.org/1999/xlink" width="460.8pt" height="345.6pt" viewBox="0 0 460.8 345.6" xmlns="http://www.w3.org/2000/svg" version="1.1">
 <metadata>
  <rdf:RDF xmlns:dc="http://purl.org/dc/elements/1.1/" xmlns:cc="http://creativecommons.org/ns#" xmlns:rdf="http://www.w3.org/1999/02/22-rdf-syntax-ns#">
   <cc:Work>
    <dc:type rdf:resource="http://purl.org/dc/dcmitype/StillImage"/>
    <dc:date>2025-03-31T15:11:14.805921</dc:date>
    <dc:format>image/svg+xml</dc:format>
    <dc:creator>
     <cc:Agent>
      <dc:title>Matplotlib v3.9.4, https://matplotlib.org/</dc:title>
     </cc:Agent>
    </dc:creator>
   </cc:Work>
  </rdf:RDF>
 </metadata>
 <defs>
  <style type="text/css">*{stroke-linejoin: round; stroke-linecap: butt}</style>
 </defs>
 <g id="figure_1">
  <g id="patch_1">
   <path d="M 0 345.6 
L 460.8 345.6 
L 460.8 0 
L 0 0 
z
" style="fill: #ffffff"/>
  </g>
  <g id="axes_1">
   <g id="patch_2">
    <path d="M 57.6 307.584 
L 414.72 307.584 
L 414.72 41.472 
L 57.6 41.472 
z
" style="fill: #eaeaf2"/>
   </g>
   <g id="matplotlib.axis_1">
    <g id="xtick_1">
     <g id="line2d_1">
      <path d="M 106.363274 307.584 
L 106.363274 41.472 
" clip-path="url(#pd48171fa45)" style="fill: none; stroke: #ffffff; stroke-width: 0.8; stroke-linecap: round"/>
     </g>
     <g id="text_1">
      <!-- −2 -->
      <g style="fill: #262626" transform="translate(100.662493 321.741812) scale(0.1 -0.1)">
       <defs>
        <path id="ArialMT-2212" d="M 3381 1997 
L 356 1997 
L 356 2522 
L 3381 2522 
L 3381 1997 
z
" transform="scale(0.015625)"/>
        <path id="ArialMT-32" d="M 3222 541 
L 3222 0 
L 194 0 
Q 188 203 259 391 
Q 375 700 629 1000 
Q 884 1300 1366 1694 
Q 2113 2306 2375 2664 
Q 2638 3022 2638 3341 
Q 2638 3675 2398 3904 
Q 2159 4134 1775 4134 
Q 1369 4134 1125 3890 
Q 881 3647 878 3216 
L 300 3275 
Q 359 3922 746 4261 
Q 1134 4600 1788 4600 
Q 2447 4600 2831 4234 
Q 3216 3869 3216 3328 
Q 3216 3053 3103 2787 
Q 2991 2522 2730 2228 
Q 2469 1934 1863 1422 
Q 1356 997 1212 845 
Q 1069 694 975 541 
L 3222 541 
z
" transform="scale(0.015625)"/>
       </defs>
       <use xlink:href="#ArialMT-2212"/>
       <use xlink:href="#ArialMT-32" x="58.398438"/>
      </g>
     </g>
    </g>
    <g id="xtick_2">
     <g id="line2d_2">
      <path d="M 171.424367 307.584 
L 171.424367 41.472 
" clip-path="url(#pd48171fa45)" style="fill: none; stroke: #ffffff; stroke-width: 0.8; stroke-linecap: round"/>
     </g>
     <g id="text_2">
      <!-- −1 -->
      <g style="fill: #262626" transform="translate(165.723586 321.741812) scale(0.1 -0.1)">
       <defs>
        <path id="ArialMT-31" d="M 2384 0 
L 1822 0 
L 1822 3584 
Q 1619 3391 1289 3197 
Q 959 3003 697 2906 
L 697 3450 
Q 1169 3672 1522 3987 
Q 1875 4303 2022 4600 
L 2384 4600 
L 2384 0 
z
" transform="scale(0.015625)"/>
       </defs>
       <use xlink:href="#ArialMT-2212"/>
       <use xlink:href="#ArialMT-31" x="58.398438"/>
      </g>
     </g>
    </g>
    <g id="xtick_3">
     <g id="line2d_3">
      <path d="M 236.48546 307.584 
L 236.48546 41.472 
" clip-path="url(#pd48171fa45)" style="fill: none; stroke: #ffffff; stroke-width: 0.8; stroke-linecap: round"/>
     </g>
     <g id="text_3">
      <!-- 0 -->
      <g style="fill: #262626" transform="translate(233.704992 321.741812) scale(0.1 -0.1)">
       <defs>
        <path id="ArialMT-30" d="M 266 2259 
Q 266 3072 433 3567 
Q 600 4063 929 4331 
Q 1259 4600 1759 4600 
Q 2128 4600 2406 4451 
Q 2684 4303 2865 4023 
Q 3047 3744 3150 3342 
Q 3253 2941 3253 2259 
Q 3253 1453 3087 958 
Q 2922 463 2592 192 
Q 2263 -78 1759 -78 
Q 1097 -78 719 397 
Q 266 969 266 2259 
z
M 844 2259 
Q 844 1131 1108 757 
Q 1372 384 1759 384 
Q 2147 384 2411 759 
Q 2675 1134 2675 2259 
Q 2675 3391 2411 3762 
Q 2147 4134 1753 4134 
Q 1366 4134 1134 3806 
Q 844 3388 844 2259 
z
" transform="scale(0.015625)"/>
       </defs>
       <use xlink:href="#ArialMT-30"/>
      </g>
     </g>
    </g>
    <g id="xtick_4">
     <g id="line2d_4">
      <path d="M 301.546553 307.584 
L 301.546553 41.472 
" clip-path="url(#pd48171fa45)" style="fill: none; stroke: #ffffff; stroke-width: 0.8; stroke-linecap: round"/>
     </g>
     <g id="text_4">
      <!-- 1 -->
      <g style="fill: #262626" transform="translate(298.766085 321.741812) scale(0.1 -0.1)">
       <use xlink:href="#ArialMT-31"/>
      </g>
     </g>
    </g>
    <g id="xtick_5">
     <g id="line2d_5">
      <path d="M 366.607647 307.584 
L 366.607647 41.472 
" clip-path="url(#pd48171fa45)" style="fill: none; stroke: #ffffff; stroke-width: 0.8; stroke-linecap: round"/>
     </g>
     <g id="text_5">
      <!-- 2 -->
      <g style="fill: #262626" transform="translate(363.827178 321.741812) scale(0.1 -0.1)">
       <use xlink:href="#ArialMT-32"/>
      </g>
     </g>
    </g>
    <g id="text_6">
     <!-- x -->
     <g style="fill: #262626" transform="translate(233.66 334.887125) scale(0.1 -0.1)">
      <defs>
       <path id="ArialMT-78" d="M 47 0 
L 1259 1725 
L 138 3319 
L 841 3319 
L 1350 2541 
Q 1494 2319 1581 2169 
Q 1719 2375 1834 2534 
L 2394 3319 
L 3066 3319 
L 1919 1756 
L 3153 0 
L 2463 0 
L 1781 1031 
L 1600 1309 
L 728 0 
L 47 0 
z
" transform="scale(0.015625)"/>
      </defs>
      <use xlink:href="#ArialMT-78"/>
     </g>
    </g>
   </g>
   <g id="matplotlib.axis_2">
    <g id="ytick_1">
     <g id="line2d_6">
      <path d="M 57.6 307.584 
L 414.72 307.584 
" clip-path="url(#pd48171fa45)" style="fill: none; stroke: #ffffff; stroke-width: 0.8; stroke-linecap: round"/>
     </g>
     <g id="text_7">
      <!-- 0.00 -->
      <g style="fill: #262626" transform="translate(31.139063 311.162906) scale(0.1 -0.1)">
       <defs>
        <path id="ArialMT-2e" d="M 581 0 
L 581 641 
L 1222 641 
L 1222 0 
L 581 0 
z
" transform="scale(0.015625)"/>
       </defs>
       <use xlink:href="#ArialMT-30"/>
       <use xlink:href="#ArialMT-2e" x="55.615234"/>
       <use xlink:href="#ArialMT-30" x="83.398438"/>
       <use xlink:href="#ArialMT-30" x="139.013672"/>
      </g>
     </g>
    </g>
    <g id="ytick_2">
     <g id="line2d_7">
      <path d="M 57.6 276.26176 
L 414.72 276.26176 
" clip-path="url(#pd48171fa45)" style="fill: none; stroke: #ffffff; stroke-width: 0.8; stroke-linecap: round"/>
     </g>
     <g id="text_8">
      <!-- 0.25 -->
      <g style="fill: #262626" transform="translate(31.139063 279.840666) scale(0.1 -0.1)">
       <defs>
        <path id="ArialMT-35" d="M 266 1200 
L 856 1250 
Q 922 819 1161 601 
Q 1400 384 1738 384 
Q 2144 384 2425 690 
Q 2706 997 2706 1503 
Q 2706 1984 2436 2262 
Q 2166 2541 1728 2541 
Q 1456 2541 1237 2417 
Q 1019 2294 894 2097 
L 366 2166 
L 809 4519 
L 3088 4519 
L 3088 3981 
L 1259 3981 
L 1013 2750 
Q 1425 3038 1878 3038 
Q 2478 3038 2890 2622 
Q 3303 2206 3303 1553 
Q 3303 931 2941 478 
Q 2500 -78 1738 -78 
Q 1113 -78 717 272 
Q 322 622 266 1200 
z
" transform="scale(0.015625)"/>
       </defs>
       <use xlink:href="#ArialMT-30"/>
       <use xlink:href="#ArialMT-2e" x="55.615234"/>
       <use xlink:href="#ArialMT-32" x="83.398438"/>
       <use xlink:href="#ArialMT-35" x="139.013672"/>
      </g>
     </g>
    </g>
    <g id="ytick_3">
     <g id="line2d_8">
      <path d="M 57.6 244.939519 
L 414.72 244.939519 
" clip-path="url(#pd48171fa45)" style="fill: none; stroke: #ffffff; stroke-width: 0.8; stroke-linecap: round"/>
     </g>
     <g id="text_9">
      <!-- 0.50 -->
      <g style="fill: #262626" transform="translate(31.139063 248.518426) scale(0.1 -0.1)">
       <use xlink:href="#ArialMT-30"/>
       <use xlink:href="#ArialMT-2e" x="55.615234"/>
       <use xlink:href="#ArialMT-35" x="83.398438"/>
       <use xlink:href="#ArialMT-30" x="139.013672"/>
      </g>
     </g>
    </g>
    <g id="ytick_4">
     <g id="line2d_9">
      <path d="M 57.6 213.617279 
L 414.72 213.617279 
" clip-path="url(#pd48171fa45)" style="fill: none; stroke: #ffffff; stroke-width: 0.8; stroke-linecap: round"/>
     </g>
     <g id="text_10">
      <!-- 0.75 -->
      <g style="fill: #262626" transform="translate(31.139063 217.196185) scale(0.1 -0.1)">
       <defs>
        <path id="ArialMT-37" d="M 303 3981 
L 303 4522 
L 3269 4522 
L 3269 4084 
Q 2831 3619 2401 2847 
Q 1972 2075 1738 1259 
Q 1569 684 1522 0 
L 944 0 
Q 953 541 1156 1306 
Q 1359 2072 1739 2783 
Q 2119 3494 2547 3981 
L 303 3981 
z
" transform="scale(0.015625)"/>
       </defs>
       <use xlink:href="#ArialMT-30"/>
       <use xlink:href="#ArialMT-2e" x="55.615234"/>
       <use xlink:href="#ArialMT-37" x="83.398438"/>
       <use xlink:href="#ArialMT-35" x="139.013672"/>
      </g>
     </g>
    </g>
    <g id="ytick_5">
     <g id="line2d_10">
      <path d="M 57.6 182.295039 
L 414.72 182.295039 
" clip-path="url(#pd48171fa45)" style="fill: none; stroke: #ffffff; stroke-width: 0.8; stroke-linecap: round"/>
     </g>
     <g id="text_11">
      <!-- 1.00 -->
      <g style="fill: #262626" transform="translate(31.139063 185.873945) scale(0.1 -0.1)">
       <use xlink:href="#ArialMT-31"/>
       <use xlink:href="#ArialMT-2e" x="55.615234"/>
       <use xlink:href="#ArialMT-30" x="83.398438"/>
       <use xlink:href="#ArialMT-30" x="139.013672"/>
      </g>
     </g>
    </g>
    <g id="ytick_6">
     <g id="line2d_11">
      <path d="M 57.6 150.972798 
L 414.72 150.972798 
" clip-path="url(#pd48171fa45)" style="fill: none; stroke: #ffffff; stroke-width: 0.8; stroke-linecap: round"/>
     </g>
     <g id="text_12">
      <!-- 1.25 -->
      <g style="fill: #262626" transform="translate(31.139063 154.551705) scale(0.1 -0.1)">
       <use xlink:href="#ArialMT-31"/>
       <use xlink:href="#ArialMT-2e" x="55.615234"/>
       <use xlink:href="#ArialMT-32" x="83.398438"/>
       <use xlink:href="#ArialMT-35" x="139.013672"/>
      </g>
     </g>
    </g>
    <g id="ytick_7">
     <g id="line2d_12">
      <path d="M 57.6 119.650558 
L 414.72 119.650558 
" clip-path="url(#pd48171fa45)" style="fill: none; stroke: #ffffff; stroke-width: 0.8; stroke-linecap: round"/>
     </g>
     <g id="text_13">
      <!-- 1.50 -->
      <g style="fill: #262626" transform="translate(31.139063 123.229464) scale(0.1 -0.1)">
       <use xlink:href="#ArialMT-31"/>
       <use xlink:href="#ArialMT-2e" x="55.615234"/>
       <use xlink:href="#ArialMT-35" x="83.398438"/>
       <use xlink:href="#ArialMT-30" x="139.013672"/>
      </g>
     </g>
    </g>
    <g id="ytick_8">
     <g id="line2d_13">
      <path d="M 57.6 88.328318 
L 414.72 88.328318 
" clip-path="url(#pd48171fa45)" style="fill: none; stroke: #ffffff; stroke-width: 0.8; stroke-linecap: round"/>
     </g>
     <g id="text_14">
      <!-- 1.75 -->
      <g style="fill: #262626" transform="translate(31.139063 91.907224) scale(0.1 -0.1)">
       <use xlink:href="#ArialMT-31"/>
       <use xlink:href="#ArialMT-2e" x="55.615234"/>
       <use xlink:href="#ArialMT-37" x="83.398438"/>
       <use xlink:href="#ArialMT-35" x="139.013672"/>
      </g>
     </g>
    </g>
    <g id="ytick_9">
     <g id="line2d_14">
      <path d="M 57.6 57.006077 
L 414.72 57.006077 
" clip-path="url(#pd48171fa45)" style="fill: none; stroke: #ffffff; stroke-width: 0.8; stroke-linecap: round"/>
     </g>
     <g id="text_15">
      <!-- 2.00 -->
      <g style="fill: #262626" transform="translate(31.139063 60.584984) scale(0.1 -0.1)">
       <use xlink:href="#ArialMT-32"/>
       <use xlink:href="#ArialMT-2e" x="55.615234"/>
       <use xlink:href="#ArialMT-30" x="83.398438"/>
       <use xlink:href="#ArialMT-30" x="139.013672"/>
      </g>
     </g>
    </g>
    <g id="text_16">
     <!-- density -->
     <g style="fill: #262626" transform="translate(25.034375 190.369406) rotate(-90) scale(0.1 -0.1)">
      <defs>
       <path id="ArialMT-64" d="M 2575 0 
L 2575 419 
Q 2259 -75 1647 -75 
Q 1250 -75 917 144 
Q 584 363 401 755 
Q 219 1147 219 1656 
Q 219 2153 384 2558 
Q 550 2963 881 3178 
Q 1213 3394 1622 3394 
Q 1922 3394 2156 3267 
Q 2391 3141 2538 2938 
L 2538 4581 
L 3097 4581 
L 3097 0 
L 2575 0 
z
M 797 1656 
Q 797 1019 1065 703 
Q 1334 388 1700 388 
Q 2069 388 2326 689 
Q 2584 991 2584 1609 
Q 2584 2291 2321 2609 
Q 2059 2928 1675 2928 
Q 1300 2928 1048 2622 
Q 797 2316 797 1656 
z
" transform="scale(0.015625)"/>
       <path id="ArialMT-65" d="M 2694 1069 
L 3275 997 
Q 3138 488 2766 206 
Q 2394 -75 1816 -75 
Q 1088 -75 661 373 
Q 234 822 234 1631 
Q 234 2469 665 2931 
Q 1097 3394 1784 3394 
Q 2450 3394 2872 2941 
Q 3294 2488 3294 1666 
Q 3294 1616 3291 1516 
L 816 1516 
Q 847 969 1125 678 
Q 1403 388 1819 388 
Q 2128 388 2347 550 
Q 2566 713 2694 1069 
z
M 847 1978 
L 2700 1978 
Q 2663 2397 2488 2606 
Q 2219 2931 1791 2931 
Q 1403 2931 1139 2672 
Q 875 2413 847 1978 
z
" transform="scale(0.015625)"/>
       <path id="ArialMT-6e" d="M 422 0 
L 422 3319 
L 928 3319 
L 928 2847 
Q 1294 3394 1984 3394 
Q 2284 3394 2536 3286 
Q 2788 3178 2913 3003 
Q 3038 2828 3088 2588 
Q 3119 2431 3119 2041 
L 3119 0 
L 2556 0 
L 2556 2019 
Q 2556 2363 2490 2533 
Q 2425 2703 2258 2804 
Q 2091 2906 1866 2906 
Q 1506 2906 1245 2678 
Q 984 2450 984 1813 
L 984 0 
L 422 0 
z
" transform="scale(0.015625)"/>
       <path id="ArialMT-73" d="M 197 991 
L 753 1078 
Q 800 744 1014 566 
Q 1228 388 1613 388 
Q 2000 388 2187 545 
Q 2375 703 2375 916 
Q 2375 1106 2209 1216 
Q 2094 1291 1634 1406 
Q 1016 1563 777 1677 
Q 538 1791 414 1992 
Q 291 2194 291 2438 
Q 291 2659 392 2848 
Q 494 3038 669 3163 
Q 800 3259 1026 3326 
Q 1253 3394 1513 3394 
Q 1903 3394 2198 3281 
Q 2494 3169 2634 2976 
Q 2775 2784 2828 2463 
L 2278 2388 
Q 2241 2644 2061 2787 
Q 1881 2931 1553 2931 
Q 1166 2931 1000 2803 
Q 834 2675 834 2503 
Q 834 2394 903 2306 
Q 972 2216 1119 2156 
Q 1203 2125 1616 2013 
Q 2213 1853 2448 1751 
Q 2684 1650 2818 1456 
Q 2953 1263 2953 975 
Q 2953 694 2789 445 
Q 2625 197 2315 61 
Q 2006 -75 1616 -75 
Q 969 -75 630 194 
Q 291 463 197 991 
z
" transform="scale(0.015625)"/>
       <path id="ArialMT-69" d="M 425 3934 
L 425 4581 
L 988 4581 
L 988 3934 
L 425 3934 
z
M 425 0 
L 425 3319 
L 988 3319 
L 988 0 
L 425 0 
z
" transform="scale(0.015625)"/>
       <path id="ArialMT-74" d="M 1650 503 
L 1731 6 
Q 1494 -44 1306 -44 
Q 1000 -44 831 53 
Q 663 150 594 308 
Q 525 466 525 972 
L 525 2881 
L 113 2881 
L 113 3319 
L 525 3319 
L 525 4141 
L 1084 4478 
L 1084 3319 
L 1650 3319 
L 1650 2881 
L 1084 2881 
L 1084 941 
Q 1084 700 1114 631 
Q 1144 563 1211 522 
Q 1278 481 1403 481 
Q 1497 481 1650 503 
z
" transform="scale(0.015625)"/>
       <path id="ArialMT-79" d="M 397 -1278 
L 334 -750 
Q 519 -800 656 -800 
Q 844 -800 956 -737 
Q 1069 -675 1141 -563 
Q 1194 -478 1313 -144 
Q 1328 -97 1363 -6 
L 103 3319 
L 709 3319 
L 1400 1397 
Q 1534 1031 1641 628 
Q 1738 1016 1872 1384 
L 2581 3319 
L 3144 3319 
L 1881 -56 
Q 1678 -603 1566 -809 
Q 1416 -1088 1222 -1217 
Q 1028 -1347 759 -1347 
Q 597 -1347 397 -1278 
z
" transform="scale(0.015625)"/>
      </defs>
      <use xlink:href="#ArialMT-64"/>
      <use xlink:href="#ArialMT-65" x="55.615234"/>
      <use xlink:href="#ArialMT-6e" x="111.230469"/>
      <use xlink:href="#ArialMT-73" x="166.845703"/>
      <use xlink:href="#ArialMT-69" x="216.845703"/>
      <use xlink:href="#ArialMT-74" x="239.0625"/>
      <use xlink:href="#ArialMT-79" x="266.845703"/>
     </g>
    </g>
   </g>
   <g id="patch_3">
    <path d="M 144.458584 307.584 
L 146.307324 307.584 
L 146.307324 307.407633 
L 144.458584 307.407633 
z
" clip-path="url(#pd48171fa45)" style="fill: #0000ff; opacity: 0.5; stroke: #ffffff; stroke-linejoin: miter"/>
   </g>
   <g id="patch_4">
    <path d="M 146.307324 307.584 
L 148.156055 307.584 
L 148.156055 307.319448 
L 146.307324 307.319448 
z
" clip-path="url(#pd48171fa45)" style="fill: #0000ff; opacity: 0.5; stroke: #ffffff; stroke-linejoin: miter"/>
   </g>
   <g id="patch_5">
    <path d="M 148.156055 307.584 
L 150.004795 307.584 
L 150.004795 307.054898 
L 148.156055 307.054898 
z
" clip-path="url(#pd48171fa45)" style="fill: #0000ff; opacity: 0.5; stroke: #ffffff; stroke-linejoin: miter"/>
   </g>
   <g id="patch_6">
    <path d="M 150.004795 307.584 
L 151.853527 307.584 
L 151.853527 305.952594 
L 150.004795 305.952594 
z
" clip-path="url(#pd48171fa45)" style="fill: #0000ff; opacity: 0.5; stroke: #ffffff; stroke-linejoin: miter"/>
   </g>
   <g id="patch_7">
    <path d="M 151.853527 307.584 
L 153.702267 307.584 
L 153.702267 302.954355 
L 151.853527 302.954355 
z
" clip-path="url(#pd48171fa45)" style="fill: #0000ff; opacity: 0.5; stroke: #ffffff; stroke-linejoin: miter"/>
   </g>
   <g id="patch_8">
    <path d="M 153.702267 307.584 
L 155.550999 307.584 
L 155.550999 298.501039 
L 153.702267 298.501039 
z
" clip-path="url(#pd48171fa45)" style="fill: #0000ff; opacity: 0.5; stroke: #ffffff; stroke-linejoin: miter"/>
   </g>
   <g id="patch_9">
    <path d="M 155.550999 307.584 
L 157.399738 307.584 
L 157.399738 287.786756 
L 155.550999 287.786756 
z
" clip-path="url(#pd48171fa45)" style="fill: #0000ff; opacity: 0.5; stroke: #ffffff; stroke-linejoin: miter"/>
   </g>
   <g id="patch_10">
    <path d="M 157.399738 307.584 
L 159.24847 307.584 
L 159.24847 273.853587 
L 157.399738 273.853587 
z
" clip-path="url(#pd48171fa45)" style="fill: #0000ff; opacity: 0.5; stroke: #ffffff; stroke-linejoin: miter"/>
   </g>
   <g id="patch_11">
    <path d="M 159.24847 307.584 
L 161.09721 307.584 
L 161.09721 250.881871 
L 159.24847 250.881871 
z
" clip-path="url(#pd48171fa45)" style="fill: #0000ff; opacity: 0.5; stroke: #ffffff; stroke-linejoin: miter"/>
   </g>
   <g id="patch_12">
    <path d="M 161.09721 307.584 
L 162.945942 307.584 
L 162.945942 220.281755 
L 161.09721 220.281755 
z
" clip-path="url(#pd48171fa45)" style="fill: #0000ff; opacity: 0.5; stroke: #ffffff; stroke-linejoin: miter"/>
   </g>
   <g id="patch_13">
    <path d="M 162.945942 307.584 
L 164.794682 307.584 
L 164.794682 177.953937 
L 162.945942 177.953937 
z
" clip-path="url(#pd48171fa45)" style="fill: #0000ff; opacity: 0.5; stroke: #ffffff; stroke-linejoin: miter"/>
   </g>
   <g id="patch_14">
    <path d="M 164.794682 307.584 
L 166.643414 307.584 
L 166.643414 142.282931 
L 164.794682 142.282931 
z
" clip-path="url(#pd48171fa45)" style="fill: #0000ff; opacity: 0.5; stroke: #ffffff; stroke-linejoin: miter"/>
   </g>
   <g id="patch_15">
    <path d="M 166.643414 307.584 
L 168.492153 307.584 
L 168.492153 98.720868 
L 166.643414 98.720868 
z
" clip-path="url(#pd48171fa45)" style="fill: #0000ff; opacity: 0.5; stroke: #ffffff; stroke-linejoin: miter"/>
   </g>
   <g id="patch_16">
    <path d="M 168.492153 307.584 
L 170.340885 307.584 
L 170.340885 69.398784 
L 168.492153 69.398784 
z
" clip-path="url(#pd48171fa45)" style="fill: #0000ff; opacity: 0.5; stroke: #ffffff; stroke-linejoin: miter"/>
   </g>
   <g id="patch_17">
    <path d="M 170.340885 307.584 
L 172.189625 307.584 
L 172.189625 54.144 
L 170.340885 54.144 
z
" clip-path="url(#pd48171fa45)" style="fill: #0000ff; opacity: 0.5; stroke: #ffffff; stroke-linejoin: miter"/>
   </g>
   <g id="patch_18">
    <path d="M 172.189625 307.584 
L 174.038357 307.584 
L 174.038357 66.885537 
L 172.189625 66.885537 
z
" clip-path="url(#pd48171fa45)" style="fill: #0000ff; opacity: 0.5; stroke: #ffffff; stroke-linejoin: miter"/>
   </g>
   <g id="patch_19">
    <path d="M 174.038357 307.584 
L 175.887097 307.584 
L 175.887097 91.666171 
L 174.038357 91.666171 
z
" clip-path="url(#pd48171fa45)" style="fill: #0000ff; opacity: 0.5; stroke: #ffffff; stroke-linejoin: miter"/>
   </g>
   <g id="patch_20">
    <path d="M 175.887097 307.584 
L 177.735832 307.584 
L 177.735832 130.687094 
L 175.887097 130.687094 
z
" clip-path="url(#pd48171fa45)" style="fill: #0000ff; opacity: 0.5; stroke: #ffffff; stroke-linejoin: miter"/>
   </g>
   <g id="patch_21">
    <path d="M 177.735832 307.584 
L 179.584568 307.584 
L 179.584568 173.76493 
L 177.735832 173.76493 
z
" clip-path="url(#pd48171fa45)" style="fill: #0000ff; opacity: 0.5; stroke: #ffffff; stroke-linejoin: miter"/>
   </g>
   <g id="patch_22">
    <path d="M 179.584568 307.584 
L 181.433304 307.584 
L 181.433304 214.858628 
L 179.584568 214.858628 
z
" clip-path="url(#pd48171fa45)" style="fill: #0000ff; opacity: 0.5; stroke: #ffffff; stroke-linejoin: miter"/>
   </g>
   <g id="patch_23">
    <path d="M 181.433304 307.584 
L 183.28204 307.584 
L 183.28204 243.738856 
L 181.433304 243.738856 
z
" clip-path="url(#pd48171fa45)" style="fill: #0000ff; opacity: 0.5; stroke: #ffffff; stroke-linejoin: miter"/>
   </g>
   <g id="patch_24">
    <path d="M 183.28204 307.584 
L 185.130776 307.584 
L 185.130776 269.797198 
L 183.28204 269.797198 
z
" clip-path="url(#pd48171fa45)" style="fill: #0000ff; opacity: 0.5; stroke: #ffffff; stroke-linejoin: miter"/>
   </g>
   <g id="patch_25">
    <path d="M 185.130776 307.584 
L 186.979511 307.584 
L 186.979511 287.301703 
L 185.130776 287.301703 
z
" clip-path="url(#pd48171fa45)" style="fill: #0000ff; opacity: 0.5; stroke: #ffffff; stroke-linejoin: miter"/>
   </g>
   <g id="patch_26">
    <path d="M 186.979511 307.584 
L 188.828247 307.584 
L 188.828247 296.95784 
L 186.979511 296.95784 
z
" clip-path="url(#pd48171fa45)" style="fill: #0000ff; opacity: 0.5; stroke: #ffffff; stroke-linejoin: miter"/>
   </g>
   <g id="patch_27">
    <path d="M 188.828247 307.584 
L 190.676983 307.584 
L 190.676983 303.571633 
L 188.828247 303.571633 
z
" clip-path="url(#pd48171fa45)" style="fill: #0000ff; opacity: 0.5; stroke: #ffffff; stroke-linejoin: miter"/>
   </g>
   <g id="patch_28">
    <path d="M 190.676983 307.584 
L 192.525719 307.584 
L 192.525719 304.938483 
L 190.676983 304.938483 
z
" clip-path="url(#pd48171fa45)" style="fill: #0000ff; opacity: 0.5; stroke: #ffffff; stroke-linejoin: miter"/>
   </g>
   <g id="patch_29">
    <path d="M 192.525719 307.584 
L 194.374455 307.584 
L 194.374455 306.658069 
L 192.525719 306.658069 
z
" clip-path="url(#pd48171fa45)" style="fill: #0000ff; opacity: 0.5; stroke: #ffffff; stroke-linejoin: miter"/>
   </g>
   <g id="patch_30">
    <path d="M 194.374455 307.584 
L 196.22319 307.584 
L 196.22319 307.275356 
L 194.374455 307.275356 
z
" clip-path="url(#pd48171fa45)" style="fill: #0000ff; opacity: 0.5; stroke: #ffffff; stroke-linejoin: miter"/>
   </g>
   <g id="patch_31">
    <path d="M 196.22319 307.584 
L 198.071926 307.584 
L 198.071926 307.451724 
L 196.22319 307.451724 
z
" clip-path="url(#pd48171fa45)" style="fill: #0000ff; opacity: 0.5; stroke: #ffffff; stroke-linejoin: miter"/>
   </g>
   <g id="patch_32">
    <path d="M 198.071926 307.584 
L 199.920662 307.584 
L 199.920662 307.584 
L 198.071926 307.584 
z
" clip-path="url(#pd48171fa45)" style="fill: #0000ff; opacity: 0.5; stroke: #ffffff; stroke-linejoin: miter"/>
   </g>
   <g id="patch_33">
    <path d="M 199.920662 307.584 
L 201.769398 307.584 
L 201.769398 307.584 
L 199.920662 307.584 
z
" clip-path="url(#pd48171fa45)" style="fill: #0000ff; opacity: 0.5; stroke: #ffffff; stroke-linejoin: miter"/>
   </g>
   <g id="patch_34">
    <path d="M 201.769398 307.584 
L 203.618134 307.584 
L 203.618134 307.584 
L 201.769398 307.584 
z
" clip-path="url(#pd48171fa45)" style="fill: #0000ff; opacity: 0.5; stroke: #ffffff; stroke-linejoin: miter"/>
   </g>
   <g id="patch_35">
    <path d="M 203.618134 307.584 
L 205.466869 307.584 
L 205.466869 307.584 
L 203.618134 307.584 
z
" clip-path="url(#pd48171fa45)" style="fill: #0000ff; opacity: 0.5; stroke: #ffffff; stroke-linejoin: miter"/>
   </g>
   <g id="patch_36">
    <path d="M 205.466869 307.584 
L 207.315605 307.584 
L 207.315605 307.584 
L 205.466869 307.584 
z
" clip-path="url(#pd48171fa45)" style="fill: #0000ff; opacity: 0.5; stroke: #ffffff; stroke-linejoin: miter"/>
   </g>
   <g id="patch_37">
    <path d="M 207.315605 307.584 
L 209.164341 307.584 
L 209.164341 307.584 
L 207.315605 307.584 
z
" clip-path="url(#pd48171fa45)" style="fill: #0000ff; opacity: 0.5; stroke: #ffffff; stroke-linejoin: miter"/>
   </g>
   <g id="patch_38">
    <path d="M 209.164341 307.584 
L 211.013081 307.584 
L 211.013081 307.584 
L 209.164341 307.584 
z
" clip-path="url(#pd48171fa45)" style="fill: #0000ff; opacity: 0.5; stroke: #ffffff; stroke-linejoin: miter"/>
   </g>
   <g id="patch_39">
    <path d="M 211.013081 307.584 
L 212.861813 307.584 
L 212.861813 307.584 
L 211.013081 307.584 
z
" clip-path="url(#pd48171fa45)" style="fill: #0000ff; opacity: 0.5; stroke: #ffffff; stroke-linejoin: miter"/>
   </g>
   <g id="patch_40">
    <path d="M 212.861813 307.584 
L 214.710552 307.584 
L 214.710552 307.584 
L 212.861813 307.584 
z
" clip-path="url(#pd48171fa45)" style="fill: #0000ff; opacity: 0.5; stroke: #ffffff; stroke-linejoin: miter"/>
   </g>
   <g id="patch_41">
    <path d="M 214.710552 307.584 
L 216.559284 307.584 
L 216.559284 307.584 
L 214.710552 307.584 
z
" clip-path="url(#pd48171fa45)" style="fill: #0000ff; opacity: 0.5; stroke: #ffffff; stroke-linejoin: miter"/>
   </g>
   <g id="patch_42">
    <path d="M 216.559284 307.584 
L 218.408024 307.584 
L 218.408024 307.584 
L 216.559284 307.584 
z
" clip-path="url(#pd48171fa45)" style="fill: #0000ff; opacity: 0.5; stroke: #ffffff; stroke-linejoin: miter"/>
   </g>
   <g id="patch_43">
    <path d="M 218.408024 307.584 
L 220.256756 307.584 
L 220.256756 307.584 
L 218.408024 307.584 
z
" clip-path="url(#pd48171fa45)" style="fill: #0000ff; opacity: 0.5; stroke: #ffffff; stroke-linejoin: miter"/>
   </g>
   <g id="patch_44">
    <path d="M 220.256756 307.584 
L 222.105496 307.584 
L 222.105496 307.584 
L 220.256756 307.584 
z
" clip-path="url(#pd48171fa45)" style="fill: #0000ff; opacity: 0.5; stroke: #ffffff; stroke-linejoin: miter"/>
   </g>
   <g id="patch_45">
    <path d="M 222.105496 307.584 
L 223.954228 307.584 
L 223.954228 307.584 
L 222.105496 307.584 
z
" clip-path="url(#pd48171fa45)" style="fill: #0000ff; opacity: 0.5; stroke: #ffffff; stroke-linejoin: miter"/>
   </g>
   <g id="patch_46">
    <path d="M 223.954228 307.584 
L 225.802967 307.584 
L 225.802967 307.584 
L 223.954228 307.584 
z
" clip-path="url(#pd48171fa45)" style="fill: #0000ff; opacity: 0.5; stroke: #ffffff; stroke-linejoin: miter"/>
   </g>
   <g id="patch_47">
    <path d="M 225.802967 307.584 
L 227.651699 307.584 
L 227.651699 307.584 
L 225.802967 307.584 
z
" clip-path="url(#pd48171fa45)" style="fill: #0000ff; opacity: 0.5; stroke: #ffffff; stroke-linejoin: miter"/>
   </g>
   <g id="patch_48">
    <path d="M 227.651699 307.584 
L 229.500439 307.584 
L 229.500439 307.584 
L 227.651699 307.584 
z
" clip-path="url(#pd48171fa45)" style="fill: #0000ff; opacity: 0.5; stroke: #ffffff; stroke-linejoin: miter"/>
   </g>
   <g id="patch_49">
    <path d="M 229.500439 307.584 
L 231.349171 307.584 
L 231.349171 307.584 
L 229.500439 307.584 
z
" clip-path="url(#pd48171fa45)" style="fill: #0000ff; opacity: 0.5; stroke: #ffffff; stroke-linejoin: miter"/>
   </g>
   <g id="patch_50">
    <path d="M 231.349171 307.584 
L 233.197911 307.584 
L 233.197911 307.584 
L 231.349171 307.584 
z
" clip-path="url(#pd48171fa45)" style="fill: #0000ff; opacity: 0.5; stroke: #ffffff; stroke-linejoin: miter"/>
   </g>
   <g id="patch_51">
    <path d="M 233.197911 307.584 
L 235.046642 307.584 
L 235.046642 307.584 
L 233.197911 307.584 
z
" clip-path="url(#pd48171fa45)" style="fill: #0000ff; opacity: 0.5; stroke: #ffffff; stroke-linejoin: miter"/>
   </g>
   <g id="patch_52">
    <path d="M 235.046642 307.584 
L 236.895382 307.584 
L 236.895382 307.584 
L 235.046642 307.584 
z
" clip-path="url(#pd48171fa45)" style="fill: #0000ff; opacity: 0.5; stroke: #ffffff; stroke-linejoin: miter"/>
   </g>
   <g id="patch_53">
    <path d="M 236.895382 307.584 
L 238.744114 307.584 
L 238.744114 307.584 
L 236.895382 307.584 
z
" clip-path="url(#pd48171fa45)" style="fill: #0000ff; opacity: 0.5; stroke: #ffffff; stroke-linejoin: miter"/>
   </g>
   <g id="patch_54">
    <path d="M 238.744114 307.584 
L 240.592854 307.584 
L 240.592854 307.584 
L 238.744114 307.584 
z
" clip-path="url(#pd48171fa45)" style="fill: #0000ff; opacity: 0.5; stroke: #ffffff; stroke-linejoin: miter"/>
   </g>
   <g id="patch_55">
    <path d="M 240.592854 307.584 
L 242.441586 307.584 
L 242.441586 307.584 
L 240.592854 307.584 
z
" clip-path="url(#pd48171fa45)" style="fill: #0000ff; opacity: 0.5; stroke: #ffffff; stroke-linejoin: miter"/>
   </g>
   <g id="patch_56">
    <path d="M 242.441586 307.584 
L 244.290325 307.584 
L 244.290325 307.584 
L 242.441586 307.584 
z
" clip-path="url(#pd48171fa45)" style="fill: #0000ff; opacity: 0.5; stroke: #ffffff; stroke-linejoin: miter"/>
   </g>
   <g id="patch_57">
    <path d="M 244.290325 307.584 
L 246.139057 307.584 
L 246.139057 307.584 
L 244.290325 307.584 
z
" clip-path="url(#pd48171fa45)" style="fill: #0000ff; opacity: 0.5; stroke: #ffffff; stroke-linejoin: miter"/>
   </g>
   <g id="patch_58">
    <path d="M 246.139057 307.584 
L 247.987797 307.584 
L 247.987797 307.584 
L 246.139057 307.584 
z
" clip-path="url(#pd48171fa45)" style="fill: #0000ff; opacity: 0.5; stroke: #ffffff; stroke-linejoin: miter"/>
   </g>
   <g id="patch_59">
    <path d="M 247.987797 307.584 
L 249.836529 307.584 
L 249.836529 307.584 
L 247.987797 307.584 
z
" clip-path="url(#pd48171fa45)" style="fill: #0000ff; opacity: 0.5; stroke: #ffffff; stroke-linejoin: miter"/>
   </g>
   <g id="patch_60">
    <path d="M 249.836529 307.584 
L 251.685269 307.584 
L 251.685269 307.584 
L 249.836529 307.584 
z
" clip-path="url(#pd48171fa45)" style="fill: #0000ff; opacity: 0.5; stroke: #ffffff; stroke-linejoin: miter"/>
   </g>
   <g id="patch_61">
    <path d="M 251.685269 307.584 
L 253.534001 307.584 
L 253.534001 307.584 
L 251.685269 307.584 
z
" clip-path="url(#pd48171fa45)" style="fill: #0000ff; opacity: 0.5; stroke: #ffffff; stroke-linejoin: miter"/>
   </g>
   <g id="patch_62">
    <path d="M 253.534001 307.584 
L 255.38274 307.584 
L 255.38274 307.584 
L 253.534001 307.584 
z
" clip-path="url(#pd48171fa45)" style="fill: #0000ff; opacity: 0.5; stroke: #ffffff; stroke-linejoin: miter"/>
   </g>
   <g id="patch_63">
    <path d="M 255.38274 307.584 
L 257.231472 307.584 
L 257.231472 307.584 
L 255.38274 307.584 
z
" clip-path="url(#pd48171fa45)" style="fill: #0000ff; opacity: 0.5; stroke: #ffffff; stroke-linejoin: miter"/>
   </g>
   <g id="patch_64">
    <path d="M 257.231472 307.584 
L 259.080212 307.584 
L 259.080212 307.584 
L 257.231472 307.584 
z
" clip-path="url(#pd48171fa45)" style="fill: #0000ff; opacity: 0.5; stroke: #ffffff; stroke-linejoin: miter"/>
   </g>
   <g id="patch_65">
    <path d="M 259.080212 307.584 
L 260.928944 307.584 
L 260.928944 307.584 
L 259.080212 307.584 
z
" clip-path="url(#pd48171fa45)" style="fill: #0000ff; opacity: 0.5; stroke: #ffffff; stroke-linejoin: miter"/>
   </g>
   <g id="patch_66">
    <path d="M 260.928944 307.584 
L 262.777684 307.584 
L 262.777684 307.584 
L 260.928944 307.584 
z
" clip-path="url(#pd48171fa45)" style="fill: #0000ff; opacity: 0.5; stroke: #ffffff; stroke-linejoin: miter"/>
   </g>
   <g id="patch_67">
    <path d="M 262.777684 307.584 
L 264.626423 307.584 
L 264.626423 307.584 
L 262.777684 307.584 
z
" clip-path="url(#pd48171fa45)" style="fill: #0000ff; opacity: 0.5; stroke: #ffffff; stroke-linejoin: miter"/>
   </g>
   <g id="patch_68">
    <path d="M 264.626423 307.584 
L 266.475155 307.584 
L 266.475155 307.584 
L 264.626423 307.584 
z
" clip-path="url(#pd48171fa45)" style="fill: #0000ff; opacity: 0.5; stroke: #ffffff; stroke-linejoin: miter"/>
   </g>
   <g id="patch_69">
    <path d="M 266.475155 307.584 
L 268.323895 307.584 
L 268.323895 307.584 
L 266.475155 307.584 
z
" clip-path="url(#pd48171fa45)" style="fill: #0000ff; opacity: 0.5; stroke: #ffffff; stroke-linejoin: miter"/>
   </g>
   <g id="patch_70">
    <path d="M 268.323895 307.584 
L 270.172627 307.584 
L 270.172627 307.584 
L 268.323895 307.584 
z
" clip-path="url(#pd48171fa45)" style="fill: #0000ff; opacity: 0.5; stroke: #ffffff; stroke-linejoin: miter"/>
   </g>
   <g id="patch_71">
    <path d="M 270.172627 307.584 
L 272.021366 307.584 
L 272.021366 307.584 
L 270.172627 307.584 
z
" clip-path="url(#pd48171fa45)" style="fill: #0000ff; opacity: 0.5; stroke: #ffffff; stroke-linejoin: miter"/>
   </g>
   <g id="patch_72">
    <path d="M 272.021366 307.584 
L 273.870098 307.584 
L 273.870098 307.539908 
L 272.021366 307.539908 
z
" clip-path="url(#pd48171fa45)" style="fill: #0000ff; opacity: 0.5; stroke: #ffffff; stroke-linejoin: miter"/>
   </g>
   <g id="patch_73">
    <path d="M 273.870098 307.584 
L 275.718838 307.584 
L 275.718838 307.539908 
L 273.870098 307.539908 
z
" clip-path="url(#pd48171fa45)" style="fill: #0000ff; opacity: 0.5; stroke: #ffffff; stroke-linejoin: miter"/>
   </g>
   <g id="patch_74">
    <path d="M 275.718838 307.584 
L 277.567578 307.584 
L 277.567578 307.407633 
L 275.718838 307.407633 
z
" clip-path="url(#pd48171fa45)" style="fill: #0000ff; opacity: 0.5; stroke: #ffffff; stroke-linejoin: miter"/>
   </g>
   <g id="patch_75">
    <path d="M 277.567578 307.584 
L 279.416302 307.584 
L 279.416302 307.363539 
L 277.567578 307.363539 
z
" clip-path="url(#pd48171fa45)" style="fill: #0000ff; opacity: 0.5; stroke: #ffffff; stroke-linejoin: miter"/>
   </g>
   <g id="patch_76">
    <path d="M 279.416302 307.584 
L 281.265042 307.584 
L 281.265042 305.864418 
L 279.416302 305.864418 
z
" clip-path="url(#pd48171fa45)" style="fill: #0000ff; opacity: 0.5; stroke: #ffffff; stroke-linejoin: miter"/>
   </g>
   <g id="patch_77">
    <path d="M 281.265042 307.584 
L 283.113781 307.584 
L 283.113781 304.762121 
L 281.265042 304.762121 
z
" clip-path="url(#pd48171fa45)" style="fill: #0000ff; opacity: 0.5; stroke: #ffffff; stroke-linejoin: miter"/>
   </g>
   <g id="patch_78">
    <path d="M 283.113781 307.584 
L 284.962521 307.584 
L 284.962521 301.543415 
L 283.113781 301.543415 
z
" clip-path="url(#pd48171fa45)" style="fill: #0000ff; opacity: 0.5; stroke: #ffffff; stroke-linejoin: miter"/>
   </g>
   <g id="patch_79">
    <path d="M 284.962521 307.584 
L 286.811245 307.584 
L 286.811245 293.386303 
L 284.962521 293.386303 
z
" clip-path="url(#pd48171fa45)" style="fill: #0000ff; opacity: 0.5; stroke: #ffffff; stroke-linejoin: miter"/>
   </g>
   <g id="patch_80">
    <path d="M 286.811245 307.584 
L 288.659985 307.584 
L 288.659985 279.321119 
L 286.811245 279.321119 
z
" clip-path="url(#pd48171fa45)" style="fill: #0000ff; opacity: 0.5; stroke: #ffffff; stroke-linejoin: miter"/>
   </g>
   <g id="patch_81">
    <path d="M 288.659985 307.584 
L 290.508725 307.584 
L 290.508725 261.993019 
L 288.659985 261.993019 
z
" clip-path="url(#pd48171fa45)" style="fill: #0000ff; opacity: 0.5; stroke: #ffffff; stroke-linejoin: miter"/>
   </g>
   <g id="patch_82">
    <path d="M 290.508725 307.584 
L 292.357464 307.584 
L 292.357464 232.627841 
L 290.508725 232.627841 
z
" clip-path="url(#pd48171fa45)" style="fill: #0000ff; opacity: 0.5; stroke: #ffffff; stroke-linejoin: miter"/>
   </g>
   <g id="patch_83">
    <path d="M 292.357464 307.584 
L 294.206188 307.584 
L 294.206188 193.826052 
L 292.357464 193.826052 
z
" clip-path="url(#pd48171fa45)" style="fill: #0000ff; opacity: 0.5; stroke: #ffffff; stroke-linejoin: miter"/>
   </g>
   <g id="patch_84">
    <path d="M 294.206188 307.584 
L 296.054928 307.584 
L 296.054928 155.555273 
L 294.206188 155.555273 
z
" clip-path="url(#pd48171fa45)" style="fill: #0000ff; opacity: 0.5; stroke: #ffffff; stroke-linejoin: miter"/>
   </g>
   <g id="patch_85">
    <path d="M 296.054928 307.584 
L 297.903668 307.584 
L 297.903668 113.623916 
L 296.054928 113.623916 
z
" clip-path="url(#pd48171fa45)" style="fill: #0000ff; opacity: 0.5; stroke: #ffffff; stroke-linejoin: miter"/>
   </g>
   <g id="patch_86">
    <path d="M 297.903668 307.584 
L 299.752407 307.584 
L 299.752407 79.364543 
L 297.903668 79.364543 
z
" clip-path="url(#pd48171fa45)" style="fill: #0000ff; opacity: 0.5; stroke: #ffffff; stroke-linejoin: miter"/>
   </g>
   <g id="patch_87">
    <path d="M 299.752407 307.584 
L 301.601132 307.584 
L 301.601132 62.078475 
L 299.752407 62.078475 
z
" clip-path="url(#pd48171fa45)" style="fill: #0000ff; opacity: 0.5; stroke: #ffffff; stroke-linejoin: miter"/>
   </g>
   <g id="patch_88">
    <path d="M 301.601132 307.584 
L 303.449871 307.584 
L 303.449871 67.812476 
L 301.601132 67.812476 
z
" clip-path="url(#pd48171fa45)" style="fill: #0000ff; opacity: 0.5; stroke: #ffffff; stroke-linejoin: miter"/>
   </g>
   <g id="patch_89">
    <path d="M 303.449871 307.584 
L 305.298611 307.584 
L 305.298611 85.052392 
L 303.449871 85.052392 
z
" clip-path="url(#pd48171fa45)" style="fill: #0000ff; opacity: 0.5; stroke: #ffffff; stroke-linejoin: miter"/>
   </g>
   <g id="patch_90">
    <path d="M 305.298611 307.584 
L 307.147351 307.584 
L 307.147351 111.287048 
L 305.298611 111.287048 
z
" clip-path="url(#pd48171fa45)" style="fill: #0000ff; opacity: 0.5; stroke: #ffffff; stroke-linejoin: miter"/>
   </g>
   <g id="patch_91">
    <path d="M 307.147351 307.584 
L 308.996075 307.584 
L 308.996075 153.349386 
L 307.147351 153.349386 
z
" clip-path="url(#pd48171fa45)" style="fill: #0000ff; opacity: 0.5; stroke: #ffffff; stroke-linejoin: miter"/>
   </g>
   <g id="patch_92">
    <path d="M 308.996075 307.584 
L 310.844815 307.584 
L 310.844815 198.89757 
L 308.996075 198.89757 
z
" clip-path="url(#pd48171fa45)" style="fill: #0000ff; opacity: 0.5; stroke: #ffffff; stroke-linejoin: miter"/>
   </g>
   <g id="patch_93">
    <path d="M 310.844815 307.584 
L 312.693554 307.584 
L 312.693554 234.215148 
L 310.844815 234.215148 
z
" clip-path="url(#pd48171fa45)" style="fill: #0000ff; opacity: 0.5; stroke: #ffffff; stroke-linejoin: miter"/>
   </g>
   <g id="patch_94">
    <path d="M 312.693554 307.584 
L 314.542294 307.584 
L 314.542294 263.977152 
L 312.693554 263.977152 
z
" clip-path="url(#pd48171fa45)" style="fill: #0000ff; opacity: 0.5; stroke: #ffffff; stroke-linejoin: miter"/>
   </g>
   <g id="patch_95">
    <path d="M 314.542294 307.584 
L 316.391018 307.584 
L 316.391018 280.07045 
L 314.542294 280.07045 
z
" clip-path="url(#pd48171fa45)" style="fill: #0000ff; opacity: 0.5; stroke: #ffffff; stroke-linejoin: miter"/>
   </g>
   <g id="patch_96">
    <path d="M 316.391018 307.584 
L 318.239758 307.584 
L 318.239758 292.769136 
L 316.391018 292.769136 
z
" clip-path="url(#pd48171fa45)" style="fill: #0000ff; opacity: 0.5; stroke: #ffffff; stroke-linejoin: miter"/>
   </g>
   <g id="patch_97">
    <path d="M 318.239758 307.584 
L 320.088498 307.584 
L 320.088498 301.631599 
L 318.239758 301.631599 
z
" clip-path="url(#pd48171fa45)" style="fill: #0000ff; opacity: 0.5; stroke: #ffffff; stroke-linejoin: miter"/>
   </g>
   <g id="patch_98">
    <path d="M 320.088498 307.584 
L 321.937237 307.584 
L 321.937237 304.365294 
L 320.088498 304.365294 
z
" clip-path="url(#pd48171fa45)" style="fill: #0000ff; opacity: 0.5; stroke: #ffffff; stroke-linejoin: miter"/>
   </g>
   <g id="patch_99">
    <path d="M 321.937237 307.584 
L 323.785977 307.584 
L 323.785977 306.569887 
L 321.937237 306.569887 
z
" clip-path="url(#pd48171fa45)" style="fill: #0000ff; opacity: 0.5; stroke: #ffffff; stroke-linejoin: miter"/>
   </g>
   <g id="patch_100">
    <path d="M 323.785977 307.584 
L 325.634701 307.584 
L 325.634701 307.010801 
L 323.785977 307.010801 
z
" clip-path="url(#pd48171fa45)" style="fill: #0000ff; opacity: 0.5; stroke: #ffffff; stroke-linejoin: miter"/>
   </g>
   <g id="patch_101">
    <path d="M 325.634701 307.584 
L 327.483441 307.584 
L 327.483441 307.451724 
L 325.634701 307.451724 
z
" clip-path="url(#pd48171fa45)" style="fill: #0000ff; opacity: 0.5; stroke: #ffffff; stroke-linejoin: miter"/>
   </g>
   <g id="patch_102">
    <path d="M 327.483441 307.584 
L 329.332188 307.584 
L 329.332188 307.539908 
L 327.483441 307.539908 
z
" clip-path="url(#pd48171fa45)" style="fill: #0000ff; opacity: 0.5; stroke: #ffffff; stroke-linejoin: miter"/>
   </g>
   <g id="line2d_15">
    <path d="M 73.832727 307.584 
L 145.399862 307.500166 
L 147.351692 307.317909 
L 148.652913 307.037334 
L 149.954134 306.504945 
L 150.604744 306.090554 
L 151.255354 305.53759 
L 151.905965 304.807787 
L 152.556575 303.855191 
L 153.207185 302.625568 
L 153.857796 301.056067 
L 154.508406 299.075281 
L 155.159016 296.603815 
L 155.809627 293.555467 
L 156.460237 289.83917 
L 157.110847 285.361723 
L 157.761457 280.031421 
L 159.062678 266.480296 
L 160.363899 248.668717 
L 161.665119 226.449946 
L 162.96634 200.232868 
L 165.568781 140.898313 
L 167.520612 98.838893 
L 168.821833 76.884371 
L 169.472443 68.66662 
L 170.123053 62.618042 
L 170.773664 58.915505 
L 171.424274 57.668696 
L 172.074884 58.914803 
L 172.725495 62.616653 
L 173.376105 68.664559 
L 174.026715 76.881727 
L 175.327936 98.835309 
L 176.629156 126.106071 
L 180.532818 213.785962 
L 181.834039 238.096464 
L 183.13526 258.124659 
L 184.43648 273.760546 
L 185.737701 285.360323 
L 187.038921 293.554504 
L 187.689532 296.603029 
L 188.340142 299.074648 
L 188.990752 301.055563 
L 189.641363 302.625171 
L 190.291973 303.854882 
L 190.942583 304.807549 
L 191.593194 305.537409 
L 192.894414 306.504844 
L 194.195635 307.037279 
L 195.496856 307.317881 
L 197.448686 307.500157 
L 201.352348 307.577647 
L 233.232254 307.584 
L 275.521924 307.500173 
L 277.473755 307.317928 
L 278.774975 307.03737 
L 280.076196 306.505013 
L 280.726806 306.090645 
L 281.377417 305.537711 
L 282.028027 304.807946 
L 282.678637 303.855398 
L 283.329248 302.625833 
L 283.979858 301.056403 
L 284.630468 299.075703 
L 285.281079 296.604339 
L 285.931689 293.556109 
L 286.582299 289.839949 
L 287.232909 285.362655 
L 287.88352 280.032525 
L 289.18474 266.481782 
L 290.485961 248.670625 
L 291.787182 226.452268 
L 293.088402 200.235527 
L 295.690844 140.90118 
L 297.642674 98.841313 
L 298.943895 76.886133 
L 299.594505 68.667979 
L 300.245116 62.618983 
L 300.895726 58.915983 
L 301.546336 57.668696 
L 302.196947 58.914325 
L 302.847557 62.615713 
L 303.498167 68.6632 
L 304.148778 76.87998 
L 305.449998 98.832949 
L 306.751219 126.103308 
L 310.654881 213.783453 
L 311.956101 238.094343 
L 313.257322 258.122964 
L 314.558543 273.759254 
L 315.859763 285.35939 
L 317.160984 293.553861 
L 317.811594 296.602506 
L 318.462204 299.074225 
L 319.112815 301.055227 
L 319.763425 302.624906 
L 320.414035 303.854676 
L 321.064646 304.80739 
L 321.715256 305.537288 
L 323.016477 306.504776 
L 324.317697 307.037242 
L 325.618918 307.317862 
L 327.570749 307.50015 
L 331.474411 307.577646 
L 363.354316 307.584 
L 398.487273 307.584 
L 398.487273 307.584 
" clip-path="url(#pd48171fa45)" style="fill: none; stroke: #008000; stroke-width: 1.5; stroke-linecap: round"/>
   </g>
   <g id="patch_103">
    <path d="M 57.6 307.584 
L 57.6 41.472 
" style="fill: none; stroke: #ffffff; stroke-width: 0.8; stroke-linejoin: miter; stroke-linecap: square"/>
   </g>
   <g id="patch_104">
    <path d="M 414.72 307.584 
L 414.72 41.472 
" style="fill: none; stroke: #ffffff; stroke-width: 0.8; stroke-linejoin: miter; stroke-linecap: square"/>
   </g>
   <g id="patch_105">
    <path d="M 57.6 307.584 
L 414.72 307.584 
" style="fill: none; stroke: #ffffff; stroke-width: 0.8; stroke-linejoin: miter; stroke-linecap: square"/>
   </g>
   <g id="patch_106">
    <path d="M 57.6 41.472 
L 414.72 41.472 
" style="fill: none; stroke: #ffffff; stroke-width: 0.8; stroke-linejoin: miter; stroke-linecap: square"/>
   </g>
   <g id="legend_1">
    <g id="patch_107">
     <path d="M 182.71 78.129813 
L 289.61 78.129813 
Q 291.61 78.129813 291.61 76.129813 
L 291.61 48.472 
Q 291.61 46.472 289.61 46.472 
L 182.71 46.472 
Q 180.71 46.472 180.71 48.472 
L 180.71 76.129813 
Q 180.71 78.129813 182.71 78.129813 
z
" style="fill: #eaeaf2; opacity: 0.8; stroke: #cccccc; stroke-linejoin: miter"/>
    </g>
    <g id="patch_108">
     <path d="M 184.71 57.772 
L 204.71 57.772 
L 204.71 50.772 
L 184.71 50.772 
z
" style="fill: #0000ff; opacity: 0.5; stroke: #ffffff; stroke-linejoin: miter"/>
    </g>
    <g id="text_17">
     <!-- samples from $\pi P$ -->
     <g style="fill: #262626" transform="translate(212.71 57.772) scale(0.1 -0.1)">
      <defs>
       <path id="ArialMT-61" d="M 2588 409 
Q 2275 144 1986 34 
Q 1697 -75 1366 -75 
Q 819 -75 525 192 
Q 231 459 231 875 
Q 231 1119 342 1320 
Q 453 1522 633 1644 
Q 813 1766 1038 1828 
Q 1203 1872 1538 1913 
Q 2219 1994 2541 2106 
Q 2544 2222 2544 2253 
Q 2544 2597 2384 2738 
Q 2169 2928 1744 2928 
Q 1347 2928 1158 2789 
Q 969 2650 878 2297 
L 328 2372 
Q 403 2725 575 2942 
Q 747 3159 1072 3276 
Q 1397 3394 1825 3394 
Q 2250 3394 2515 3294 
Q 2781 3194 2906 3042 
Q 3031 2891 3081 2659 
Q 3109 2516 3109 2141 
L 3109 1391 
Q 3109 606 3145 398 
Q 3181 191 3288 0 
L 2700 0 
Q 2613 175 2588 409 
z
M 2541 1666 
Q 2234 1541 1622 1453 
Q 1275 1403 1131 1340 
Q 988 1278 909 1158 
Q 831 1038 831 891 
Q 831 666 1001 516 
Q 1172 366 1500 366 
Q 1825 366 2078 508 
Q 2331 650 2450 897 
Q 2541 1088 2541 1459 
L 2541 1666 
z
" transform="scale(0.015625)"/>
       <path id="ArialMT-6d" d="M 422 0 
L 422 3319 
L 925 3319 
L 925 2853 
Q 1081 3097 1340 3245 
Q 1600 3394 1931 3394 
Q 2300 3394 2536 3241 
Q 2772 3088 2869 2813 
Q 3263 3394 3894 3394 
Q 4388 3394 4653 3120 
Q 4919 2847 4919 2278 
L 4919 0 
L 4359 0 
L 4359 2091 
Q 4359 2428 4304 2576 
Q 4250 2725 4106 2815 
Q 3963 2906 3769 2906 
Q 3419 2906 3187 2673 
Q 2956 2441 2956 1928 
L 2956 0 
L 2394 0 
L 2394 2156 
Q 2394 2531 2256 2718 
Q 2119 2906 1806 2906 
Q 1569 2906 1367 2781 
Q 1166 2656 1075 2415 
Q 984 2175 984 1722 
L 984 0 
L 422 0 
z
" transform="scale(0.015625)"/>
       <path id="ArialMT-70" d="M 422 -1272 
L 422 3319 
L 934 3319 
L 934 2888 
Q 1116 3141 1344 3267 
Q 1572 3394 1897 3394 
Q 2322 3394 2647 3175 
Q 2972 2956 3137 2557 
Q 3303 2159 3303 1684 
Q 3303 1175 3120 767 
Q 2938 359 2589 142 
Q 2241 -75 1856 -75 
Q 1575 -75 1351 44 
Q 1128 163 984 344 
L 984 -1272 
L 422 -1272 
z
M 931 1641 
Q 931 1000 1190 694 
Q 1450 388 1819 388 
Q 2194 388 2461 705 
Q 2728 1022 2728 1688 
Q 2728 2322 2467 2637 
Q 2206 2953 1844 2953 
Q 1484 2953 1207 2617 
Q 931 2281 931 1641 
z
" transform="scale(0.015625)"/>
       <path id="ArialMT-6c" d="M 409 0 
L 409 4581 
L 972 4581 
L 972 0 
L 409 0 
z
" transform="scale(0.015625)"/>
       <path id="ArialMT-20" transform="scale(0.015625)"/>
       <path id="ArialMT-66" d="M 556 0 
L 556 2881 
L 59 2881 
L 59 3319 
L 556 3319 
L 556 3672 
Q 556 4006 616 4169 
Q 697 4388 901 4523 
Q 1106 4659 1475 4659 
Q 1713 4659 2000 4603 
L 1916 4113 
Q 1741 4144 1584 4144 
Q 1328 4144 1222 4034 
Q 1116 3925 1116 3625 
L 1116 3319 
L 1763 3319 
L 1763 2881 
L 1116 2881 
L 1116 0 
L 556 0 
z
" transform="scale(0.015625)"/>
       <path id="ArialMT-72" d="M 416 0 
L 416 3319 
L 922 3319 
L 922 2816 
Q 1116 3169 1280 3281 
Q 1444 3394 1641 3394 
Q 1925 3394 2219 3213 
L 2025 2691 
Q 1819 2813 1613 2813 
Q 1428 2813 1281 2702 
Q 1134 2591 1072 2394 
Q 978 2094 978 1738 
L 978 0 
L 416 0 
z
" transform="scale(0.015625)"/>
       <path id="ArialMT-6f" d="M 213 1659 
Q 213 2581 725 3025 
Q 1153 3394 1769 3394 
Q 2453 3394 2887 2945 
Q 3322 2497 3322 1706 
Q 3322 1066 3130 698 
Q 2938 331 2570 128 
Q 2203 -75 1769 -75 
Q 1072 -75 642 372 
Q 213 819 213 1659 
z
M 791 1659 
Q 791 1022 1069 705 
Q 1347 388 1769 388 
Q 2188 388 2466 706 
Q 2744 1025 2744 1678 
Q 2744 2294 2464 2611 
Q 2184 2928 1769 2928 
Q 1347 2928 1069 2612 
Q 791 2297 791 1659 
z
" transform="scale(0.015625)"/>
       <path id="DejaVuSans-Oblique-3c0" d="M 584 3500 
L 3938 3500 
L 3825 2925 
L 3384 2925 
L 2966 775 
Q 2922 550 2981 450 
Q 3038 353 3209 353 
Q 3256 353 3325 363 
Q 3397 369 3419 372 
L 3338 -44 
Q 3222 -84 3103 -103 
Q 2981 -122 2866 -122 
Q 2491 -122 2388 81 
Q 2284 288 2391 838 
L 2797 2925 
L 1506 2925 
L 938 0 
L 350 0 
L 919 2925 
L 472 2925 
L 584 3500 
z
" transform="scale(0.015625)"/>
       <path id="DejaVuSans-Oblique-50" d="M 1081 4666 
L 2541 4666 
Q 3178 4666 3512 4369 
Q 3847 4072 3847 3500 
Q 3847 2731 3353 2303 
Q 2859 1875 1966 1875 
L 1172 1875 
L 806 0 
L 172 0 
L 1081 4666 
z
M 1613 4147 
L 1275 2394 
L 2069 2394 
Q 2606 2394 2893 2669 
Q 3181 2944 3181 3456 
Q 3181 3784 2986 3965 
Q 2791 4147 2438 4147 
L 1613 4147 
z
" transform="scale(0.015625)"/>
      </defs>
      <use xlink:href="#ArialMT-73" transform="translate(0 0.09375)"/>
      <use xlink:href="#ArialMT-61" transform="translate(50 0.09375)"/>
      <use xlink:href="#ArialMT-6d" transform="translate(105.615234 0.09375)"/>
      <use xlink:href="#ArialMT-70" transform="translate(188.916016 0.09375)"/>
      <use xlink:href="#ArialMT-6c" transform="translate(244.53125 0.09375)"/>
      <use xlink:href="#ArialMT-65" transform="translate(266.748047 0.09375)"/>
      <use xlink:href="#ArialMT-73" transform="translate(322.363281 0.09375)"/>
      <use xlink:href="#ArialMT-20" transform="translate(372.363281 0.09375)"/>
      <use xlink:href="#ArialMT-66" transform="translate(400.146484 0.09375)"/>
      <use xlink:href="#ArialMT-72" transform="translate(427.929688 0.09375)"/>
      <use xlink:href="#ArialMT-6f" transform="translate(461.230469 0.09375)"/>
      <use xlink:href="#ArialMT-6d" transform="translate(516.845703 0.09375)"/>
      <use xlink:href="#ArialMT-20" transform="translate(600.146484 0.09375)"/>
      <use xlink:href="#DejaVuSans-Oblique-3c0" transform="translate(627.929688 0.09375)"/>
      <use xlink:href="#DejaVuSans-Oblique-50" transform="translate(688.134766 0.09375)"/>
     </g>
    </g>
    <g id="line2d_16">
     <path d="M 184.71 68.429812 
L 194.71 68.429812 
L 204.71 68.429812 
" style="fill: none; stroke: #008000; stroke-width: 1.5; stroke-linecap: round"/>
    </g>
    <g id="text_18">
     <!-- target $\pi$ -->
     <g style="fill: #262626" transform="translate(212.71 71.929812) scale(0.1 -0.1)">
      <defs>
       <path id="ArialMT-67" d="M 319 -275 
L 866 -356 
Q 900 -609 1056 -725 
Q 1266 -881 1628 -881 
Q 2019 -881 2231 -725 
Q 2444 -569 2519 -288 
Q 2563 -116 2559 434 
Q 2191 0 1641 0 
Q 956 0 581 494 
Q 206 988 206 1678 
Q 206 2153 378 2554 
Q 550 2956 876 3175 
Q 1203 3394 1644 3394 
Q 2231 3394 2613 2919 
L 2613 3319 
L 3131 3319 
L 3131 450 
Q 3131 -325 2973 -648 
Q 2816 -972 2473 -1159 
Q 2131 -1347 1631 -1347 
Q 1038 -1347 672 -1080 
Q 306 -813 319 -275 
z
M 784 1719 
Q 784 1066 1043 766 
Q 1303 466 1694 466 
Q 2081 466 2343 764 
Q 2606 1063 2606 1700 
Q 2606 2309 2336 2618 
Q 2066 2928 1684 2928 
Q 1309 2928 1046 2623 
Q 784 2319 784 1719 
z
" transform="scale(0.015625)"/>
      </defs>
      <use xlink:href="#ArialMT-74" transform="translate(0 0.03125)"/>
      <use xlink:href="#ArialMT-61" transform="translate(27.783203 0.03125)"/>
      <use xlink:href="#ArialMT-72" transform="translate(83.398438 0.03125)"/>
      <use xlink:href="#ArialMT-67" transform="translate(116.699219 0.03125)"/>
      <use xlink:href="#ArialMT-65" transform="translate(172.314453 0.03125)"/>
      <use xlink:href="#ArialMT-74" transform="translate(227.929688 0.03125)"/>
      <use xlink:href="#ArialMT-20" transform="translate(255.712891 0.03125)"/>
      <use xlink:href="#DejaVuSans-Oblique-3c0" transform="translate(283.496094 0.03125)"/>
     </g>
    </g>
   </g>
  </g>
 </g>
 <defs>
  <clipPath id="pd48171fa45">
   <rect x="57.6" y="41.472" width="357.12" height="266.112"/>
  </clipPath>
 </defs>
</svg>
