<?xml version="1.0" encoding="utf-8" standalone="no"?>
<!DOCTYPE svg PUBLIC "-//W3C//DTD SVG 1.1//EN"
  "http://www.w3.org/Graphics/SVG/1.1/DTD/svg11.dtd">
<svg xmlns:xlink="http://www.w3.org/1999/xlink" width="460.8pt" height="345.6pt" viewBox="0 0 460.8 345.6" xmlns="http://www.w3.org/2000/svg" version="1.1">
 <metadata>
  <rdf:RDF xmlns:dc="http://purl.org/dc/elements/1.1/" xmlns:cc="http://creativecommons.org/ns#" xmlns:rdf="http://www.w3.org/1999/02/22-rdf-syntax-ns#">
   <cc:Work>
    <dc:type rdf:resource="http://purl.org/dc/dcmitype/StillImage"/>
    <dc:date>2025-04-11T13:25:14.148223</dc:date>
    <dc:format>image/svg+xml</dc:format>
    <dc:creator>
     <cc:Agent>
      <dc:title>Matplotlib v3.10.1, https://matplotlib.org/</dc:title>
     </cc:Agent>
    </dc:creator>
   </cc:Work>
  </rdf:RDF>
 </metadata>
 <defs>
  <style type="text/css">*{stroke-linejoin: round; stroke-linecap: butt}</style>
 </defs>
 <g id="figure_1">
  <g id="patch_1">
   <path d="M 0 345.6 
L 460.8 345.6 
L 460.8 0 
L 0 0 
z
" style="fill: #ffffff"/>
  </g>
  <g id="axes_1">
   <g id="patch_2">
    <path d="M 57.6 307.584 
L 414.72 307.584 
L 414.72 41.472 
L 57.6 41.472 
z
" style="fill: #eaeaf2"/>
   </g>
   <g id="matplotlib.axis_1">
    <g id="xtick_1">
     <g id="line2d_1">
      <path d="M 106.298182 307.584 
L 106.298182 41.472 
" clip-path="url(#pda4d42a949)" style="fill: none; stroke: #ffffff; stroke-width: 0.8; stroke-linecap: round"/>
     </g>
     <g id="text_1">
      <!-- −4 -->
      <g style="fill: #262626" transform="translate(100.597401 321.741812) scale(0.1 -0.1)">
       <defs>
        <path id="ArialMT-2212" d="M 3381 1997 
L 356 1997 
L 356 2522 
L 3381 2522 
L 3381 1997 
z
" transform="scale(0.015625)"/>
        <path id="ArialMT-34" d="M 2069 0 
L 2069 1097 
L 81 1097 
L 81 1613 
L 2172 4581 
L 2631 4581 
L 2631 1613 
L 3250 1613 
L 3250 1097 
L 2631 1097 
L 2631 0 
L 2069 0 
z
M 2069 1613 
L 2069 3678 
L 634 1613 
L 2069 1613 
z
" transform="scale(0.015625)"/>
       </defs>
       <use xlink:href="#ArialMT-2212"/>
       <use xlink:href="#ArialMT-34" transform="translate(58.398438 0)"/>
      </g>
     </g>
    </g>
    <g id="xtick_2">
     <g id="line2d_2">
      <path d="M 171.229091 307.584 
L 171.229091 41.472 
" clip-path="url(#pda4d42a949)" style="fill: none; stroke: #ffffff; stroke-width: 0.8; stroke-linecap: round"/>
     </g>
     <g id="text_2">
      <!-- −2 -->
      <g style="fill: #262626" transform="translate(165.52831 321.741812) scale(0.1 -0.1)">
       <defs>
        <path id="ArialMT-32" d="M 3222 541 
L 3222 0 
L 194 0 
Q 188 203 259 391 
Q 375 700 629 1000 
Q 884 1300 1366 1694 
Q 2113 2306 2375 2664 
Q 2638 3022 2638 3341 
Q 2638 3675 2398 3904 
Q 2159 4134 1775 4134 
Q 1369 4134 1125 3890 
Q 881 3647 878 3216 
L 300 3275 
Q 359 3922 746 4261 
Q 1134 4600 1788 4600 
Q 2447 4600 2831 4234 
Q 3216 3869 3216 3328 
Q 3216 3053 3103 2787 
Q 2991 2522 2730 2228 
Q 2469 1934 1863 1422 
Q 1356 997 1212 845 
Q 1069 694 975 541 
L 3222 541 
z
" transform="scale(0.015625)"/>
       </defs>
       <use xlink:href="#ArialMT-2212"/>
       <use xlink:href="#ArialMT-32" transform="translate(58.398438 0)"/>
      </g>
     </g>
    </g>
    <g id="xtick_3">
     <g id="line2d_3">
      <path d="M 236.16 307.584 
L 236.16 41.472 
" clip-path="url(#pda4d42a949)" style="fill: none; stroke: #ffffff; stroke-width: 0.8; stroke-linecap: round"/>
     </g>
     <g id="text_3">
      <!-- 0 -->
      <g style="fill: #262626" transform="translate(233.379531 321.741812) scale(0.1 -0.1)">
       <defs>
        <path id="ArialMT-30" d="M 266 2259 
Q 266 3072 433 3567 
Q 600 4063 929 4331 
Q 1259 4600 1759 4600 
Q 2128 4600 2406 4451 
Q 2684 4303 2865 4023 
Q 3047 3744 3150 3342 
Q 3253 2941 3253 2259 
Q 3253 1453 3087 958 
Q 2922 463 2592 192 
Q 2263 -78 1759 -78 
Q 1097 -78 719 397 
Q 266 969 266 2259 
z
M 844 2259 
Q 844 1131 1108 757 
Q 1372 384 1759 384 
Q 2147 384 2411 759 
Q 2675 1134 2675 2259 
Q 2675 3391 2411 3762 
Q 2147 4134 1753 4134 
Q 1366 4134 1134 3806 
Q 844 3388 844 2259 
z
" transform="scale(0.015625)"/>
       </defs>
       <use xlink:href="#ArialMT-30"/>
      </g>
     </g>
    </g>
    <g id="xtick_4">
     <g id="line2d_4">
      <path d="M 301.090909 307.584 
L 301.090909 41.472 
" clip-path="url(#pda4d42a949)" style="fill: none; stroke: #ffffff; stroke-width: 0.8; stroke-linecap: round"/>
     </g>
     <g id="text_4">
      <!-- 2 -->
      <g style="fill: #262626" transform="translate(298.31044 321.741812) scale(0.1 -0.1)">
       <use xlink:href="#ArialMT-32"/>
      </g>
     </g>
    </g>
    <g id="xtick_5">
     <g id="line2d_5">
      <path d="M 366.021818 307.584 
L 366.021818 41.472 
" clip-path="url(#pda4d42a949)" style="fill: none; stroke: #ffffff; stroke-width: 0.8; stroke-linecap: round"/>
     </g>
     <g id="text_5">
      <!-- 4 -->
      <g style="fill: #262626" transform="translate(363.241349 321.741812) scale(0.1 -0.1)">
       <use xlink:href="#ArialMT-34"/>
      </g>
     </g>
    </g>
    <g id="text_6">
     <!-- $x$ -->
     <g style="fill: #262626" transform="translate(233.16 334.887125) scale(0.1 -0.1)">
      <defs>
       <path id="DejaVuSans-Oblique-78" d="M 3841 3500 
L 2234 1784 
L 3219 0 
L 2559 0 
L 1819 1388 
L 531 0 
L -166 0 
L 1556 1844 
L 641 3500 
L 1300 3500 
L 1972 2234 
L 3144 3500 
L 3841 3500 
z
" transform="scale(0.015625)"/>
      </defs>
      <use xlink:href="#DejaVuSans-Oblique-78" transform="translate(0 0.3125)"/>
     </g>
    </g>
   </g>
   <g id="matplotlib.axis_2">
    <g id="ytick_1">
     <g id="line2d_6">
      <path d="M 57.6 271.296 
L 414.72 271.296 
" clip-path="url(#pda4d42a949)" style="fill: none; stroke: #ffffff; stroke-width: 0.8; stroke-linecap: round"/>
     </g>
     <g id="text_7">
      <!-- −4 -->
      <g style="fill: #262626" transform="translate(39.198437 274.874906) scale(0.1 -0.1)">
       <use xlink:href="#ArialMT-2212"/>
       <use xlink:href="#ArialMT-34" transform="translate(58.398438 0)"/>
      </g>
     </g>
    </g>
    <g id="ytick_2">
     <g id="line2d_7">
      <path d="M 57.6 222.912 
L 414.72 222.912 
" clip-path="url(#pda4d42a949)" style="fill: none; stroke: #ffffff; stroke-width: 0.8; stroke-linecap: round"/>
     </g>
     <g id="text_8">
      <!-- −2 -->
      <g style="fill: #262626" transform="translate(39.198437 226.490906) scale(0.1 -0.1)">
       <use xlink:href="#ArialMT-2212"/>
       <use xlink:href="#ArialMT-32" transform="translate(58.398438 0)"/>
      </g>
     </g>
    </g>
    <g id="ytick_3">
     <g id="line2d_8">
      <path d="M 57.6 174.528 
L 414.72 174.528 
" clip-path="url(#pda4d42a949)" style="fill: none; stroke: #ffffff; stroke-width: 0.8; stroke-linecap: round"/>
     </g>
     <g id="text_9">
      <!-- 0 -->
      <g style="fill: #262626" transform="translate(45.039062 178.106906) scale(0.1 -0.1)">
       <use xlink:href="#ArialMT-30"/>
      </g>
     </g>
    </g>
    <g id="ytick_4">
     <g id="line2d_9">
      <path d="M 57.6 126.144 
L 414.72 126.144 
" clip-path="url(#pda4d42a949)" style="fill: none; stroke: #ffffff; stroke-width: 0.8; stroke-linecap: round"/>
     </g>
     <g id="text_10">
      <!-- 2 -->
      <g style="fill: #262626" transform="translate(45.039062 129.722906) scale(0.1 -0.1)">
       <use xlink:href="#ArialMT-32"/>
      </g>
     </g>
    </g>
    <g id="ytick_5">
     <g id="line2d_10">
      <path d="M 57.6 77.76 
L 414.72 77.76 
" clip-path="url(#pda4d42a949)" style="fill: none; stroke: #ffffff; stroke-width: 0.8; stroke-linecap: round"/>
     </g>
     <g id="text_11">
      <!-- 4 -->
      <g style="fill: #262626" transform="translate(45.039062 81.338906) scale(0.1 -0.1)">
       <use xlink:href="#ArialMT-34"/>
      </g>
     </g>
    </g>
    <g id="text_12">
     <!-- $x_{next}$ -->
     <g style="fill: #262626" transform="translate(33.210938 185.478) rotate(-90) scale(0.1 -0.1)">
      <defs>
       <path id="DejaVuSans-Oblique-6e" d="M 3566 2113 
L 3156 0 
L 2578 0 
L 2988 2091 
Q 3016 2238 3031 2350 
Q 3047 2463 3047 2528 
Q 3047 2791 2881 2937 
Q 2716 3084 2419 3084 
Q 1956 3084 1622 2776 
Q 1288 2469 1184 1941 
L 800 0 
L 225 0 
L 903 3500 
L 1478 3500 
L 1363 2950 
Q 1603 3253 1940 3418 
Q 2278 3584 2650 3584 
Q 3113 3584 3367 3334 
Q 3622 3084 3622 2631 
Q 3622 2519 3608 2391 
Q 3594 2263 3566 2113 
z
" transform="scale(0.015625)"/>
       <path id="DejaVuSans-Oblique-65" d="M 3078 2063 
Q 3088 2113 3092 2166 
Q 3097 2219 3097 2272 
Q 3097 2653 2873 2875 
Q 2650 3097 2266 3097 
Q 1838 3097 1509 2826 
Q 1181 2556 1013 2059 
L 3078 2063 
z
M 3578 1613 
L 903 1613 
Q 884 1494 878 1425 
Q 872 1356 872 1306 
Q 872 872 1139 634 
Q 1406 397 1894 397 
Q 2269 397 2603 481 
Q 2938 566 3225 728 
L 3116 159 
Q 2806 34 2476 -28 
Q 2147 -91 1806 -91 
Q 1078 -91 686 257 
Q 294 606 294 1247 
Q 294 1794 489 2264 
Q 684 2734 1063 3103 
Q 1306 3334 1642 3459 
Q 1978 3584 2356 3584 
Q 2950 3584 3301 3228 
Q 3653 2872 3653 2272 
Q 3653 2128 3634 1964 
Q 3616 1800 3578 1613 
z
" transform="scale(0.015625)"/>
       <path id="DejaVuSans-Oblique-74" d="M 2706 3500 
L 2619 3053 
L 1472 3053 
L 1100 1153 
Q 1081 1047 1072 975 
Q 1063 903 1063 863 
Q 1063 663 1183 572 
Q 1303 481 1569 481 
L 2150 481 
L 2053 0 
L 1503 0 
Q 991 0 739 200 
Q 488 400 488 806 
Q 488 878 497 964 
Q 506 1050 525 1153 
L 897 3053 
L 409 3053 
L 500 3500 
L 978 3500 
L 1172 4494 
L 1747 4494 
L 1556 3500 
L 2706 3500 
z
" transform="scale(0.015625)"/>
      </defs>
      <use xlink:href="#DejaVuSans-Oblique-78" transform="translate(0 0.3125)"/>
      <use xlink:href="#DejaVuSans-Oblique-6e" transform="translate(59.179688 -16.09375) scale(0.7)"/>
      <use xlink:href="#DejaVuSans-Oblique-65" transform="translate(103.544922 -16.09375) scale(0.7)"/>
      <use xlink:href="#DejaVuSans-Oblique-78" transform="translate(146.611328 -16.09375) scale(0.7)"/>
      <use xlink:href="#DejaVuSans-Oblique-74" transform="translate(188.037109 -16.09375) scale(0.7)"/>
     </g>
    </g>
   </g>
   <g id="FillBetweenPolyCollection_1">
    <defs>
     <path id="mdcb24174eb" d="M 73.832727 -188.035911 
L 73.832727 -155.302935 
L 77.112073 -155.25157 
L 80.391404 -155.316618 
L 83.670734 -155.349825 
L 86.95008 -155.280451 
L 90.229426 -155.3908 
L 93.508757 -155.448659 
L 96.788103 -155.561798 
L 100.067434 -155.261149 
L 103.34678 -155.329456 
L 106.62611 -155.331378 
L 109.905456 -155.149359 
L 113.184795 -155.368839 
L 116.464133 -155.417323 
L 119.743479 -155.558694 
L 123.022809 -155.582317 
L 126.302148 -155.474054 
L 129.581486 -155.32708 
L 132.860824 -155.402436 
L 136.140163 -155.360255 
L 139.419493 -155.302687 
L 142.698847 -155.361809 
L 145.978178 -155.149364 
L 149.257516 -155.134172 
L 152.536862 -155.414797 
L 155.816192 -155.078889 
L 159.095538 -155.174203 
L 162.374869 -155.208311 
L 165.654215 -155.198709 
L 168.933553 -155.068899 
L 172.212892 -155.169171 
L 175.492234 -154.924503 
L 178.771564 -155.070348 
L 182.050914 -154.950601 
L 185.330245 -154.880327 
L 188.609583 -154.689422 
L 191.888925 -154.768751 
L 195.168256 -154.920099 
L 198.447606 -154.956416 
L 201.726936 -154.878448 
L 205.006277 -154.927819 
L 208.285621 -154.581998 
L 211.564957 -154.901618 
L 214.844301 -154.666742 
L 218.123628 -154.911225 
L 221.402982 -154.893734 
L 224.682308 -155.003568 
L 227.961652 -154.823394 
L 231.240996 -154.850095 
L 234.520323 -154.838206 
L 237.799667 -154.792544 
L 241.079004 -154.940393 
L 244.358348 -155.210962 
L 247.637684 -154.951741 
L 250.917028 -155.134123 
L 254.196364 -154.919877 
L 257.475699 -155.171366 
L 260.755035 -154.998697 
L 264.034379 -155.253967 
L 267.313716 -155.177332 
L 270.59306 -155.182202 
L 273.872394 -155.099294 
L 277.151733 -155.184385 
L 280.431067 -155.287753 
L 283.710409 -155.413353 
L 286.989755 -155.189707 
L 290.269093 -155.297139 
L 293.548424 -155.11212 
L 296.827762 -155.435019 
L 300.107108 -155.336634 
L 303.386439 -155.272807 
L 306.665785 -155.050863 
L 309.945123 -155.253355 
L 313.224462 -155.290336 
L 316.503792 -155.196647 
L 319.783138 -155.118553 
L 323.062476 -155.154975 
L 326.341815 -155.266189 
L 329.621153 -155.340337 
L 332.900491 -155.176185 
L 336.179822 -155.303619 
L 339.459168 -155.33191 
L 342.738514 -155.416174 
L 346.01786 -155.263524 
L 349.297191 -155.230826 
L 352.576521 -155.415094 
L 355.855867 -155.191637 
L 359.135213 -155.453773 
L 362.414536 -155.452687 
L 365.693882 -155.236295 
L 368.97322 -155.300535 
L 372.252566 -155.178855 
L 375.531881 -155.44688 
L 378.811227 -155.369476 
L 382.090574 -155.186888 
L 385.36992 -155.372389 
L 388.649266 -155.261883 
L 391.928581 -155.359456 
L 395.207927 -155.444188 
L 398.487273 -155.367443 
L 398.487273 -188.108627 
L 398.487273 -188.108627 
L 395.207927 -188.078981 
L 391.928581 -187.885068 
L 388.649266 -187.908126 
L 385.36992 -188.038348 
L 382.090574 -187.983549 
L 378.811227 -187.879209 
L 375.531881 -188.011549 
L 372.252566 -187.91316 
L 368.97322 -188.06134 
L 365.693882 -187.96166 
L 362.414536 -188.075229 
L 359.135213 -188.036241 
L 355.855867 -187.675197 
L 352.576521 -188.051283 
L 349.297191 -187.836628 
L 346.01786 -187.979229 
L 342.738514 -187.964628 
L 339.459168 -188.197609 
L 336.179822 -187.893107 
L 332.900491 -188.157616 
L 329.621153 -188.041732 
L 326.341815 -187.710705 
L 323.062476 -187.987685 
L 319.783138 -187.787566 
L 316.503792 -187.768473 
L 313.224462 -187.914825 
L 309.945123 -187.774933 
L 306.665785 -187.827025 
L 303.386439 -187.93794 
L 300.107108 -187.817119 
L 296.827762 -187.918404 
L 293.548424 -187.942626 
L 290.269093 -187.913473 
L 286.989755 -187.943457 
L 283.710409 -187.985194 
L 280.431067 -187.899203 
L 277.151733 -187.840527 
L 273.872394 -187.676803 
L 270.59306 -187.888765 
L 267.313716 -187.874266 
L 264.034379 -187.758473 
L 260.755035 -187.505244 
L 257.475699 -187.647986 
L 254.196364 -187.599954 
L 250.917028 -187.550433 
L 247.637684 -187.533986 
L 244.358348 -187.462847 
L 241.079004 -187.510888 
L 237.799667 -187.328469 
L 234.520323 -187.270671 
L 231.240996 -187.115498 
L 227.961652 -187.266391 
L 224.682308 -187.282387 
L 221.402982 -187.327921 
L 218.123628 -187.063701 
L 214.844301 -186.857773 
L 211.564957 -187.136054 
L 208.285621 -186.896568 
L 205.006277 -187.08471 
L 201.726936 -187.265484 
L 198.447606 -187.108063 
L 195.168256 -187.194217 
L 191.888925 -187.080447 
L 188.609583 -187.108661 
L 185.330245 -187.205086 
L 182.050914 -187.500113 
L 178.771564 -187.4876 
L 175.492234 -187.31718 
L 172.212892 -187.605809 
L 168.933553 -187.429218 
L 165.654215 -187.785844 
L 162.374869 -187.609079 
L 159.095538 -187.787385 
L 155.816192 -187.79777 
L 152.536862 -188.013604 
L 149.257516 -187.783737 
L 145.978178 -187.830953 
L 142.698847 -187.972737 
L 139.419493 -188.042268 
L 136.140163 -188.089572 
L 132.860824 -188.060322 
L 129.581486 -187.975262 
L 126.302148 -188.005383 
L 123.022809 -188.131175 
L 119.743479 -188.200013 
L 116.464133 -188.068734 
L 113.184795 -188.01274 
L 109.905456 -188.148793 
L 106.62611 -187.993072 
L 103.34678 -187.99719 
L 100.067434 -188.053028 
L 96.788103 -188.099041 
L 93.508757 -188.006162 
L 90.229426 -188.115923 
L 86.95008 -187.847811 
L 83.670734 -188.251309 
L 80.391404 -188.051232 
L 77.112073 -188.376442 
L 73.832727 -188.035911 
z
" style="stroke: #0000ff; stroke-opacity: 0.5"/>
    </defs>
    <g clip-path="url(#pda4d42a949)">
     <use xlink:href="#mdcb24174eb" x="0" y="345.6" style="fill: #0000ff; fill-opacity: 0.5; stroke: #0000ff; stroke-opacity: 0.5"/>
    </g>
   </g>
   <g id="FillBetweenPolyCollection_2">
    <defs>
     <path id="mb4d51277b0" d="M 73.832727 -210.523939 
L 73.832727 -131.467796 
L 77.112073 -131.250283 
L 80.391404 -131.130255 
L 83.670734 -131.419897 
L 86.95008 -131.260556 
L 90.229426 -131.241406 
L 93.508757 -131.774405 
L 96.788103 -131.569356 
L 100.067434 -131.381472 
L 103.34678 -131.484535 
L 106.62611 -131.517896 
L 109.905456 -131.417985 
L 113.184795 -131.764407 
L 116.464133 -131.544857 
L 119.743479 -131.595009 
L 123.022809 -131.584217 
L 126.302148 -131.497628 
L 129.581486 -131.563859 
L 132.860824 -131.722071 
L 136.140163 -131.494637 
L 139.419493 -131.654209 
L 142.698847 -130.880756 
L 145.978178 -131.375938 
L 149.257516 -131.684052 
L 152.536862 -131.582265 
L 155.816192 -131.504087 
L 159.095538 -131.4497 
L 162.374869 -131.659654 
L 165.654215 -131.514063 
L 168.933553 -131.376019 
L 172.212892 -131.627926 
L 175.492234 -131.463626 
L 178.771564 -131.72308 
L 182.050914 -131.587234 
L 185.330245 -131.749485 
L 188.609583 -131.47079 
L 191.888925 -131.688473 
L 195.168256 -131.657737 
L 198.447606 -132.067811 
L 201.726936 -132.010733 
L 205.006277 -131.554622 
L 208.285621 -131.475367 
L 211.564957 -131.583496 
L 214.844301 -131.643536 
L 218.123628 -131.699152 
L 221.402982 -131.70351 
L 224.682308 -131.683836 
L 227.961652 -131.431104 
L 231.240996 -131.637783 
L 234.520323 -131.537423 
L 237.799667 -131.873473 
L 241.079004 -131.374375 
L 244.358348 -131.568329 
L 247.637684 -131.560024 
L 250.917028 -131.339459 
L 254.196364 -131.4907 
L 257.475699 -131.648044 
L 260.755035 -131.440578 
L 264.034379 -131.677656 
L 267.313716 -131.687951 
L 270.59306 -131.341046 
L 273.872394 -131.304778 
L 277.151733 -131.615536 
L 280.431067 -131.610452 
L 283.710409 -131.346894 
L 286.989755 -131.581371 
L 290.269093 -131.731919 
L 293.548424 -131.345268 
L 296.827762 -131.412454 
L 300.107108 -131.448572 
L 303.386439 -131.467791 
L 306.665785 -131.784888 
L 309.945123 -131.505411 
L 313.224462 -131.647196 
L 316.503792 -131.391283 
L 319.783138 -131.504206 
L 323.062476 -131.600044 
L 326.341815 -131.381371 
L 329.621153 -131.487949 
L 332.900491 -131.58582 
L 336.179822 -131.428685 
L 339.459168 -131.64764 
L 342.738514 -131.648124 
L 346.01786 -131.600525 
L 349.297191 -131.496425 
L 352.576521 -131.577125 
L 355.855867 -131.472209 
L 359.135213 -131.552503 
L 362.414536 -131.674783 
L 365.693882 -131.473195 
L 368.97322 -131.705912 
L 372.252566 -130.975536 
L 375.531881 -131.640892 
L 378.811227 -131.490798 
L 382.090574 -131.486631 
L 385.36992 -131.321233 
L 388.649266 -131.43956 
L 391.928581 -131.321464 
L 395.207927 -131.718547 
L 398.487273 -131.454406 
L 398.487273 -210.337119 
L 398.487273 -210.337119 
L 395.207927 -210.762689 
L 391.928581 -210.776099 
L 388.649266 -210.604887 
L 385.36992 -210.653986 
L 382.090574 -210.769242 
L 378.811227 -210.507688 
L 375.531881 -210.499256 
L 372.252566 -210.469361 
L 368.97322 -210.524925 
L 365.693882 -210.715961 
L 362.414536 -210.512631 
L 359.135213 -210.702361 
L 355.855867 -210.483633 
L 352.576521 -210.795087 
L 349.297191 -210.609669 
L 346.01786 -210.534595 
L 342.738514 -210.621545 
L 339.459168 -210.948716 
L 336.179822 -210.399772 
L 332.900491 -210.814 
L 329.621153 -210.427394 
L 326.341815 -210.582978 
L 323.062476 -210.34152 
L 319.783138 -210.662424 
L 316.503792 -210.264929 
L 313.224462 -210.449883 
L 309.945123 -210.666127 
L 306.665785 -210.472542 
L 303.386439 -210.513531 
L 300.107108 -210.469866 
L 296.827762 -210.726871 
L 293.548424 -210.643241 
L 290.269093 -210.631019 
L 286.989755 -210.448591 
L 283.710409 -210.563575 
L 280.431067 -210.443354 
L 277.151733 -210.336958 
L 273.872394 -210.636016 
L 270.59306 -210.394024 
L 267.313716 -210.40186 
L 264.034379 -210.262856 
L 260.755035 -210.274682 
L 257.475699 -210.445897 
L 254.196364 -210.213209 
L 250.917028 -210.248848 
L 247.637684 -210.144119 
L 244.358348 -210.347069 
L 241.079004 -210.186588 
L 237.799667 -210.119214 
L 234.520323 -210.247738 
L 231.240996 -210.177945 
L 227.961652 -210.034989 
L 224.682308 -210.151245 
L 221.402982 -210.288456 
L 218.123628 -210.143286 
L 214.844301 -209.7899 
L 211.564957 -210.316909 
L 208.285621 -209.890372 
L 205.006277 -210.171343 
L 201.726936 -210.065331 
L 198.447606 -209.994329 
L 195.168256 -210.272396 
L 191.888925 -210.106017 
L 188.609583 -209.956498 
L 185.330245 -210.181913 
L 182.050914 -210.365004 
L 178.771564 -210.299253 
L 175.492234 -210.080145 
L 172.212892 -210.172208 
L 168.933553 -210.15316 
L 165.654215 -210.592639 
L 162.374869 -210.509606 
L 159.095538 -210.599105 
L 155.816192 -210.428058 
L 152.536862 -210.748694 
L 149.257516 -210.440594 
L 145.978178 -210.34924 
L 142.698847 -210.729296 
L 139.419493 -210.520317 
L 136.140163 -210.669819 
L 132.860824 -210.468023 
L 129.581486 -210.497606 
L 126.302148 -210.627171 
L 123.022809 -210.586194 
L 119.743479 -210.639739 
L 116.464133 -210.999285 
L 113.184795 -210.710652 
L 109.905456 -210.766534 
L 106.62611 -210.844212 
L 103.34678 -210.751148 
L 100.067434 -210.534064 
L 96.788103 -210.684703 
L 93.508757 -210.590687 
L 90.229426 -210.648732 
L 86.95008 -210.498226 
L 83.670734 -210.899865 
L 80.391404 -210.71263 
L 77.112073 -210.630658 
L 73.832727 -210.523939 
z
" style="stroke: #0000ff; stroke-opacity: 0.3"/>
    </defs>
    <g clip-path="url(#pda4d42a949)">
     <use xlink:href="#mb4d51277b0" x="0" y="345.6" style="fill: #0000ff; fill-opacity: 0.3; stroke: #0000ff; stroke-opacity: 0.3"/>
    </g>
   </g>
   <g id="line2d_11">
    <path d="M 73.832727 174.063699 
L 77.112073 173.940058 
L 80.391404 174.07464 
L 83.670734 173.904505 
L 86.95008 174.144815 
L 90.229426 174.019157 
L 93.508757 173.903727 
L 96.788103 173.9259 
L 100.067434 174.058117 
L 103.34678 174.053416 
L 106.62611 173.999028 
L 109.905456 174.03091 
L 113.184795 173.942055 
L 116.464133 173.92716 
L 119.743479 173.901068 
L 123.022809 173.919182 
L 126.302148 173.959283 
L 129.581486 174.054672 
L 132.860824 173.981274 
L 136.140163 174.010509 
L 139.419493 174.059171 
L 142.698847 174.117264 
L 145.978178 174.240243 
L 149.257516 174.223261 
L 152.536862 174.000175 
L 155.816192 174.247328 
L 159.095538 174.190312 
L 162.374869 174.246943 
L 165.654215 174.231797 
L 168.933553 174.426356 
L 172.212892 174.275796 
L 175.492234 174.540059 
L 178.771564 174.325668 
L 182.050914 174.472668 
L 185.330245 174.56079 
L 188.609583 174.691939 
L 191.888925 174.642243 
L 195.168256 174.544738 
L 198.447606 174.594554 
L 201.726936 174.502928 
L 205.006277 174.648499 
L 208.285621 174.868698 
L 211.564957 174.594883 
L 214.844301 174.815973 
L 218.123628 174.66007 
L 221.402982 174.550709 
L 224.682308 174.530443 
L 227.961652 174.628234 
L 231.240996 174.638035 
L 234.520323 174.535456 
L 237.799667 174.529923 
L 241.079004 174.469902 
L 244.358348 174.312943 
L 247.637684 174.389088 
L 250.917028 174.33283 
L 254.196364 174.387752 
L 257.475699 174.259009 
L 260.755035 174.402232 
L 264.034379 174.248913 
L 267.313716 174.157261 
L 270.59306 174.213702 
L 273.872394 174.238497 
L 277.151733 174.131688 
L 280.431067 174.086898 
L 283.710409 174.058837 
L 286.989755 174.103836 
L 290.269093 174.050808 
L 293.548424 174.150524 
L 296.827762 174.071975 
L 300.107108 174.152139 
L 303.386439 174.124988 
L 306.665785 174.255247 
L 309.945123 174.154709 
L 313.224462 174.118555 
L 316.503792 174.218415 
L 319.783138 174.154418 
L 323.062476 174.156001 
L 326.341815 174.164492 
L 329.621153 174.029932 
L 332.900491 173.973051 
L 336.179822 174.132062 
L 339.459168 173.949754 
L 342.738514 173.995645 
L 346.01786 174.101139 
L 349.297191 174.132366 
L 352.576521 173.952812 
L 355.855867 174.151892 
L 359.135213 173.974857 
L 362.414536 173.954042 
L 365.693882 174.072426 
L 368.97322 174.017736 
L 372.252566 174.204253 
L 375.531881 173.979277 
L 378.811227 174.048054 
L 382.090574 174.086741 
L 385.36992 174.039669 
L 388.649266 174.069428 
L 391.928581 174.058862 
L 395.207927 173.911796 
L 398.487273 174.007698 
" clip-path="url(#pda4d42a949)" style="fill: none; stroke: #0000ff; stroke-width: 1.5; stroke-linecap: round"/>
   </g>
   <g id="LineCollection_1">
    <path d="M 236.16 295.488 
L 236.16 53.568 
" clip-path="url(#pda4d42a949)" style="fill: none; stroke-dasharray: 5.55,2.4; stroke-dashoffset: 0; stroke: #008000; stroke-width: 1.5"/>
   </g>
   <g id="patch_3">
    <path d="M 57.6 307.584 
L 57.6 41.472 
" style="fill: none; stroke: #ffffff; stroke-width: 0.8; stroke-linejoin: miter; stroke-linecap: square"/>
   </g>
   <g id="patch_4">
    <path d="M 414.72 307.584 
L 414.72 41.472 
" style="fill: none; stroke: #ffffff; stroke-width: 0.8; stroke-linejoin: miter; stroke-linecap: square"/>
   </g>
   <g id="patch_5">
    <path d="M 57.6 307.584 
L 414.72 307.584 
" style="fill: none; stroke: #ffffff; stroke-width: 0.8; stroke-linejoin: miter; stroke-linecap: square"/>
   </g>
   <g id="patch_6">
    <path d="M 57.6 41.472 
L 414.72 41.472 
" style="fill: none; stroke: #ffffff; stroke-width: 0.8; stroke-linejoin: miter; stroke-linecap: square"/>
   </g>
   <g id="text_13">
    <!-- $\mu=1, \sigma=1, n=5$ -->
    <g style="fill: #262626" transform="translate(184.98 35.472) scale(0.12 -0.12)">
     <defs>
      <path id="DejaVuSans-Oblique-3bc" d="M -84 -1331 
L 856 3500 
L 1434 3500 
L 1009 1322 
Q 997 1256 987 1175 
Q 978 1094 978 1013 
Q 978 722 1161 565 
Q 1344 409 1684 409 
Q 2147 409 2431 671 
Q 2716 934 2816 1459 
L 3213 3500 
L 3788 3500 
L 3266 809 
Q 3253 750 3248 706 
Q 3244 663 3244 628 
Q 3244 531 3283 486 
Q 3322 441 3406 441 
Q 3438 441 3492 456 
Q 3547 472 3647 513 
L 3559 50 
Q 3422 -19 3297 -55 
Q 3172 -91 3053 -91 
Q 2847 -91 2730 40 
Q 2613 172 2613 403 
Q 2438 153 2195 31 
Q 1953 -91 1625 -91 
Q 1334 -91 1117 43 
Q 900 178 831 397 
L 494 -1331 
L -84 -1331 
z
" transform="scale(0.015625)"/>
      <path id="DejaVuSans-3d" d="M 678 2906 
L 4684 2906 
L 4684 2381 
L 678 2381 
L 678 2906 
z
M 678 1631 
L 4684 1631 
L 4684 1100 
L 678 1100 
L 678 1631 
z
" transform="scale(0.015625)"/>
      <path id="DejaVuSans-31" d="M 794 531 
L 1825 531 
L 1825 4091 
L 703 3866 
L 703 4441 
L 1819 4666 
L 2450 4666 
L 2450 531 
L 3481 531 
L 3481 0 
L 794 0 
L 794 531 
z
" transform="scale(0.015625)"/>
      <path id="DejaVuSans-2c" d="M 750 794 
L 1409 794 
L 1409 256 
L 897 -744 
L 494 -744 
L 750 256 
L 750 794 
z
" transform="scale(0.015625)"/>
      <path id="DejaVuSans-Oblique-3c3" d="M 2219 3044 
Q 1744 3044 1422 2700 
Q 1081 2341 969 1747 
Q 844 1119 1044 756 
Q 1241 397 1706 397 
Q 2166 397 2503 759 
Q 2844 1122 2966 1747 
Q 3075 2319 2881 2700 
Q 2700 3044 2219 3044 
z
M 2309 3503 
L 4219 3500 
L 4106 2925 
L 3463 2925 
Q 3706 2438 3575 1747 
Q 3406 888 2884 400 
Q 2359 -91 1609 -91 
Q 856 -91 525 400 
Q 194 888 363 1747 
Q 528 2609 1050 3097 
Q 1484 3503 2309 3503 
z
" transform="scale(0.015625)"/>
      <path id="DejaVuSans-35" d="M 691 4666 
L 3169 4666 
L 3169 4134 
L 1269 4134 
L 1269 2991 
Q 1406 3038 1543 3061 
Q 1681 3084 1819 3084 
Q 2600 3084 3056 2656 
Q 3513 2228 3513 1497 
Q 3513 744 3044 326 
Q 2575 -91 1722 -91 
Q 1428 -91 1123 -41 
Q 819 9 494 109 
L 494 744 
Q 775 591 1075 516 
Q 1375 441 1709 441 
Q 2250 441 2565 725 
Q 2881 1009 2881 1497 
Q 2881 1984 2565 2268 
Q 2250 2553 1709 2553 
Q 1456 2553 1204 2497 
Q 953 2441 691 2322 
L 691 4666 
z
" transform="scale(0.015625)"/>
     </defs>
     <use xlink:href="#DejaVuSans-Oblique-3bc" transform="translate(0 0.09375)"/>
     <use xlink:href="#DejaVuSans-3d" transform="translate(83.105469 0.09375)"/>
     <use xlink:href="#DejaVuSans-31" transform="translate(186.376953 0.09375)"/>
     <use xlink:href="#DejaVuSans-2c" transform="translate(250 0.09375)"/>
     <use xlink:href="#DejaVuSans-Oblique-3c3" transform="translate(301.269531 0.09375)"/>
     <use xlink:href="#DejaVuSans-3d" transform="translate(384.130859 0.09375)"/>
     <use xlink:href="#DejaVuSans-31" transform="translate(487.402344 0.09375)"/>
     <use xlink:href="#DejaVuSans-2c" transform="translate(551.025391 0.09375)"/>
     <use xlink:href="#DejaVuSans-Oblique-6e" transform="translate(602.294922 0.09375)"/>
     <use xlink:href="#DejaVuSans-3d" transform="translate(685.15625 0.09375)"/>
     <use xlink:href="#DejaVuSans-35" transform="translate(788.427734 0.09375)"/>
    </g>
   </g>
   <g id="legend_1">
    <g id="patch_7">
     <path d="M 302.42 302.584 
L 407.72 302.584 
Q 409.72 302.584 409.72 300.584 
L 409.72 244.393375 
Q 409.72 242.393375 407.72 242.393375 
L 302.42 242.393375 
Q 300.42 242.393375 300.42 244.393375 
L 300.42 300.584 
Q 300.42 302.584 302.42 302.584 
z
" style="fill: #eaeaf2; opacity: 0.8; stroke: #cccccc; stroke-linejoin: miter"/>
    </g>
    <g id="line2d_12">
     <path d="M 304.42 250.305875 
L 314.42 250.305875 
L 324.42 250.305875 
" style="fill: none; stroke: #0000ff; stroke-width: 1.5; stroke-linecap: round"/>
    </g>
    <g id="text_14">
     <!-- $E[x_{next}]$ -->
     <g style="fill: #262626" transform="translate(332.42 253.805875) scale(0.1 -0.1)">
      <defs>
       <path id="DejaVuSans-Oblique-45" d="M 1081 4666 
L 4031 4666 
L 3928 4134 
L 1606 4134 
L 1338 2753 
L 3566 2753 
L 3463 2222 
L 1234 2222 
L 909 531 
L 3284 531 
L 3181 0 
L 172 0 
L 1081 4666 
z
" transform="scale(0.015625)"/>
       <path id="DejaVuSans-5b" d="M 550 4863 
L 1875 4863 
L 1875 4416 
L 1125 4416 
L 1125 -397 
L 1875 -397 
L 1875 -844 
L 550 -844 
L 550 4863 
z
" transform="scale(0.015625)"/>
       <path id="DejaVuSans-5d" d="M 1947 4863 
L 1947 -844 
L 622 -844 
L 622 -397 
L 1369 -397 
L 1369 4416 
L 622 4416 
L 622 4863 
L 1947 4863 
z
" transform="scale(0.015625)"/>
      </defs>
      <use xlink:href="#DejaVuSans-Oblique-45" transform="translate(0 0.015625)"/>
      <use xlink:href="#DejaVuSans-5b" transform="translate(63.183594 0.015625)"/>
      <use xlink:href="#DejaVuSans-Oblique-78" transform="translate(102.197266 0.015625)"/>
      <use xlink:href="#DejaVuSans-Oblique-6e" transform="translate(161.376953 -16.390625) scale(0.7)"/>
      <use xlink:href="#DejaVuSans-Oblique-65" transform="translate(205.742188 -16.390625) scale(0.7)"/>
      <use xlink:href="#DejaVuSans-Oblique-78" transform="translate(248.808594 -16.390625) scale(0.7)"/>
      <use xlink:href="#DejaVuSans-Oblique-74" transform="translate(290.234375 -16.390625) scale(0.7)"/>
      <use xlink:href="#DejaVuSans-5d" transform="translate(320.415039 0.015625)"/>
     </g>
    </g>
    <g id="patch_8">
     <path d="M 304.42 267.951187 
L 324.42 267.951187 
L 324.42 260.951187 
L 304.42 260.951187 
z
" style="fill: #0000ff; fill-opacity: 0.5; stroke: #0000ff; stroke-opacity: 0.5; stroke-linejoin: miter"/>
    </g>
    <g id="text_15">
     <!-- 50% CI -->
     <g style="fill: #262626" transform="translate(332.42 267.951187) scale(0.1 -0.1)">
      <defs>
       <path id="ArialMT-35" d="M 266 1200 
L 856 1250 
Q 922 819 1161 601 
Q 1400 384 1738 384 
Q 2144 384 2425 690 
Q 2706 997 2706 1503 
Q 2706 1984 2436 2262 
Q 2166 2541 1728 2541 
Q 1456 2541 1237 2417 
Q 1019 2294 894 2097 
L 366 2166 
L 809 4519 
L 3088 4519 
L 3088 3981 
L 1259 3981 
L 1013 2750 
Q 1425 3038 1878 3038 
Q 2478 3038 2890 2622 
Q 3303 2206 3303 1553 
Q 3303 931 2941 478 
Q 2500 -78 1738 -78 
Q 1113 -78 717 272 
Q 322 622 266 1200 
z
" transform="scale(0.015625)"/>
       <path id="ArialMT-25" d="M 372 3481 
Q 372 3972 619 4315 
Q 866 4659 1334 4659 
Q 1766 4659 2048 4351 
Q 2331 4044 2331 3447 
Q 2331 2866 2045 2552 
Q 1759 2238 1341 2238 
Q 925 2238 648 2547 
Q 372 2856 372 3481 
z
M 1350 4272 
Q 1141 4272 1002 4090 
Q 863 3909 863 3425 
Q 863 2984 1003 2804 
Q 1144 2625 1350 2625 
Q 1563 2625 1702 2806 
Q 1841 2988 1841 3469 
Q 1841 3913 1700 4092 
Q 1559 4272 1350 4272 
z
M 1353 -169 
L 3859 4659 
L 4316 4659 
L 1819 -169 
L 1353 -169 
z
M 3334 1075 
Q 3334 1569 3581 1911 
Q 3828 2253 4300 2253 
Q 4731 2253 5014 1945 
Q 5297 1638 5297 1041 
Q 5297 459 5011 145 
Q 4725 -169 4303 -169 
Q 3888 -169 3611 142 
Q 3334 453 3334 1075 
z
M 4316 1866 
Q 4103 1866 3964 1684 
Q 3825 1503 3825 1019 
Q 3825 581 3965 400 
Q 4106 219 4313 219 
Q 4528 219 4667 400 
Q 4806 581 4806 1063 
Q 4806 1506 4665 1686 
Q 4525 1866 4316 1866 
z
" transform="scale(0.015625)"/>
       <path id="ArialMT-20" transform="scale(0.015625)"/>
       <path id="ArialMT-43" d="M 3763 1606 
L 4369 1453 
Q 4178 706 3683 314 
Q 3188 -78 2472 -78 
Q 1731 -78 1267 223 
Q 803 525 561 1097 
Q 319 1669 319 2325 
Q 319 3041 592 3573 
Q 866 4106 1370 4382 
Q 1875 4659 2481 4659 
Q 3169 4659 3637 4309 
Q 4106 3959 4291 3325 
L 3694 3184 
Q 3534 3684 3231 3912 
Q 2928 4141 2469 4141 
Q 1941 4141 1586 3887 
Q 1231 3634 1087 3207 
Q 944 2781 944 2328 
Q 944 1744 1114 1308 
Q 1284 872 1643 656 
Q 2003 441 2422 441 
Q 2931 441 3284 734 
Q 3638 1028 3763 1606 
z
" transform="scale(0.015625)"/>
       <path id="ArialMT-49" d="M 597 0 
L 597 4581 
L 1203 4581 
L 1203 0 
L 597 0 
z
" transform="scale(0.015625)"/>
      </defs>
      <use xlink:href="#ArialMT-35"/>
      <use xlink:href="#ArialMT-30" transform="translate(55.615234 0)"/>
      <use xlink:href="#ArialMT-25" transform="translate(111.230469 0)"/>
      <use xlink:href="#ArialMT-20" transform="translate(200.146484 0)"/>
      <use xlink:href="#ArialMT-43" transform="translate(227.929688 0)"/>
      <use xlink:href="#ArialMT-49" transform="translate(300.146484 0)"/>
     </g>
    </g>
    <g id="patch_9">
     <path d="M 304.42 282.0965 
L 324.42 282.0965 
L 324.42 275.0965 
L 304.42 275.0965 
z
" style="fill: #0000ff; fill-opacity: 0.3; stroke: #0000ff; stroke-opacity: 0.3; stroke-linejoin: miter"/>
    </g>
    <g id="text_16">
     <!-- 90% CI -->
     <g style="fill: #262626" transform="translate(332.42 282.0965) scale(0.1 -0.1)">
      <defs>
       <path id="ArialMT-39" d="M 350 1059 
L 891 1109 
Q 959 728 1153 556 
Q 1347 384 1650 384 
Q 1909 384 2104 503 
Q 2300 622 2425 820 
Q 2550 1019 2634 1356 
Q 2719 1694 2719 2044 
Q 2719 2081 2716 2156 
Q 2547 1888 2255 1720 
Q 1963 1553 1622 1553 
Q 1053 1553 659 1965 
Q 266 2378 266 3053 
Q 266 3750 677 4175 
Q 1088 4600 1706 4600 
Q 2153 4600 2523 4359 
Q 2894 4119 3086 3673 
Q 3278 3228 3278 2384 
Q 3278 1506 3087 986 
Q 2897 466 2520 194 
Q 2144 -78 1638 -78 
Q 1100 -78 759 220 
Q 419 519 350 1059 
z
M 2653 3081 
Q 2653 3566 2395 3850 
Q 2138 4134 1775 4134 
Q 1400 4134 1122 3828 
Q 844 3522 844 3034 
Q 844 2597 1108 2323 
Q 1372 2050 1759 2050 
Q 2150 2050 2401 2323 
Q 2653 2597 2653 3081 
z
" transform="scale(0.015625)"/>
      </defs>
      <use xlink:href="#ArialMT-39"/>
      <use xlink:href="#ArialMT-30" transform="translate(55.615234 0)"/>
      <use xlink:href="#ArialMT-25" transform="translate(111.230469 0)"/>
      <use xlink:href="#ArialMT-20" transform="translate(200.146484 0)"/>
      <use xlink:href="#ArialMT-43" transform="translate(227.929688 0)"/>
      <use xlink:href="#ArialMT-49" transform="translate(300.146484 0)"/>
     </g>
    </g>
    <g id="line2d_13">
     <path d="M 304.42 292.884 
L 324.42 292.884 
" style="fill: none; stroke-dasharray: 5.55,2.4; stroke-dashoffset: 0; stroke: #008000; stroke-width: 1.5"/>
    </g>
    <g id="text_17">
     <!-- mode of target $\pi$ -->
     <g style="fill: #262626" transform="translate(332.42 296.384) scale(0.1 -0.1)">
      <defs>
       <path id="ArialMT-6d" d="M 422 0 
L 422 3319 
L 925 3319 
L 925 2853 
Q 1081 3097 1340 3245 
Q 1600 3394 1931 3394 
Q 2300 3394 2536 3241 
Q 2772 3088 2869 2813 
Q 3263 3394 3894 3394 
Q 4388 3394 4653 3120 
Q 4919 2847 4919 2278 
L 4919 0 
L 4359 0 
L 4359 2091 
Q 4359 2428 4304 2576 
Q 4250 2725 4106 2815 
Q 3963 2906 3769 2906 
Q 3419 2906 3187 2673 
Q 2956 2441 2956 1928 
L 2956 0 
L 2394 0 
L 2394 2156 
Q 2394 2531 2256 2718 
Q 2119 2906 1806 2906 
Q 1569 2906 1367 2781 
Q 1166 2656 1075 2415 
Q 984 2175 984 1722 
L 984 0 
L 422 0 
z
" transform="scale(0.015625)"/>
       <path id="ArialMT-6f" d="M 213 1659 
Q 213 2581 725 3025 
Q 1153 3394 1769 3394 
Q 2453 3394 2887 2945 
Q 3322 2497 3322 1706 
Q 3322 1066 3130 698 
Q 2938 331 2570 128 
Q 2203 -75 1769 -75 
Q 1072 -75 642 372 
Q 213 819 213 1659 
z
M 791 1659 
Q 791 1022 1069 705 
Q 1347 388 1769 388 
Q 2188 388 2466 706 
Q 2744 1025 2744 1678 
Q 2744 2294 2464 2611 
Q 2184 2928 1769 2928 
Q 1347 2928 1069 2612 
Q 791 2297 791 1659 
z
" transform="scale(0.015625)"/>
       <path id="ArialMT-64" d="M 2575 0 
L 2575 419 
Q 2259 -75 1647 -75 
Q 1250 -75 917 144 
Q 584 363 401 755 
Q 219 1147 219 1656 
Q 219 2153 384 2558 
Q 550 2963 881 3178 
Q 1213 3394 1622 3394 
Q 1922 3394 2156 3267 
Q 2391 3141 2538 2938 
L 2538 4581 
L 3097 4581 
L 3097 0 
L 2575 0 
z
M 797 1656 
Q 797 1019 1065 703 
Q 1334 388 1700 388 
Q 2069 388 2326 689 
Q 2584 991 2584 1609 
Q 2584 2291 2321 2609 
Q 2059 2928 1675 2928 
Q 1300 2928 1048 2622 
Q 797 2316 797 1656 
z
" transform="scale(0.015625)"/>
       <path id="ArialMT-65" d="M 2694 1069 
L 3275 997 
Q 3138 488 2766 206 
Q 2394 -75 1816 -75 
Q 1088 -75 661 373 
Q 234 822 234 1631 
Q 234 2469 665 2931 
Q 1097 3394 1784 3394 
Q 2450 3394 2872 2941 
Q 3294 2488 3294 1666 
Q 3294 1616 3291 1516 
L 816 1516 
Q 847 969 1125 678 
Q 1403 388 1819 388 
Q 2128 388 2347 550 
Q 2566 713 2694 1069 
z
M 847 1978 
L 2700 1978 
Q 2663 2397 2488 2606 
Q 2219 2931 1791 2931 
Q 1403 2931 1139 2672 
Q 875 2413 847 1978 
z
" transform="scale(0.015625)"/>
       <path id="ArialMT-66" d="M 556 0 
L 556 2881 
L 59 2881 
L 59 3319 
L 556 3319 
L 556 3672 
Q 556 4006 616 4169 
Q 697 4388 901 4523 
Q 1106 4659 1475 4659 
Q 1713 4659 2000 4603 
L 1916 4113 
Q 1741 4144 1584 4144 
Q 1328 4144 1222 4034 
Q 1116 3925 1116 3625 
L 1116 3319 
L 1763 3319 
L 1763 2881 
L 1116 2881 
L 1116 0 
L 556 0 
z
" transform="scale(0.015625)"/>
       <path id="ArialMT-74" d="M 1650 503 
L 1731 6 
Q 1494 -44 1306 -44 
Q 1000 -44 831 53 
Q 663 150 594 308 
Q 525 466 525 972 
L 525 2881 
L 113 2881 
L 113 3319 
L 525 3319 
L 525 4141 
L 1084 4478 
L 1084 3319 
L 1650 3319 
L 1650 2881 
L 1084 2881 
L 1084 941 
Q 1084 700 1114 631 
Q 1144 563 1211 522 
Q 1278 481 1403 481 
Q 1497 481 1650 503 
z
" transform="scale(0.015625)"/>
       <path id="ArialMT-61" d="M 2588 409 
Q 2275 144 1986 34 
Q 1697 -75 1366 -75 
Q 819 -75 525 192 
Q 231 459 231 875 
Q 231 1119 342 1320 
Q 453 1522 633 1644 
Q 813 1766 1038 1828 
Q 1203 1872 1538 1913 
Q 2219 1994 2541 2106 
Q 2544 2222 2544 2253 
Q 2544 2597 2384 2738 
Q 2169 2928 1744 2928 
Q 1347 2928 1158 2789 
Q 969 2650 878 2297 
L 328 2372 
Q 403 2725 575 2942 
Q 747 3159 1072 3276 
Q 1397 3394 1825 3394 
Q 2250 3394 2515 3294 
Q 2781 3194 2906 3042 
Q 3031 2891 3081 2659 
Q 3109 2516 3109 2141 
L 3109 1391 
Q 3109 606 3145 398 
Q 3181 191 3288 0 
L 2700 0 
Q 2613 175 2588 409 
z
M 2541 1666 
Q 2234 1541 1622 1453 
Q 1275 1403 1131 1340 
Q 988 1278 909 1158 
Q 831 1038 831 891 
Q 831 666 1001 516 
Q 1172 366 1500 366 
Q 1825 366 2078 508 
Q 2331 650 2450 897 
Q 2541 1088 2541 1459 
L 2541 1666 
z
" transform="scale(0.015625)"/>
       <path id="ArialMT-72" d="M 416 0 
L 416 3319 
L 922 3319 
L 922 2816 
Q 1116 3169 1280 3281 
Q 1444 3394 1641 3394 
Q 1925 3394 2219 3213 
L 2025 2691 
Q 1819 2813 1613 2813 
Q 1428 2813 1281 2702 
Q 1134 2591 1072 2394 
Q 978 2094 978 1738 
L 978 0 
L 416 0 
z
" transform="scale(0.015625)"/>
       <path id="ArialMT-67" d="M 319 -275 
L 866 -356 
Q 900 -609 1056 -725 
Q 1266 -881 1628 -881 
Q 2019 -881 2231 -725 
Q 2444 -569 2519 -288 
Q 2563 -116 2559 434 
Q 2191 0 1641 0 
Q 956 0 581 494 
Q 206 988 206 1678 
Q 206 2153 378 2554 
Q 550 2956 876 3175 
Q 1203 3394 1644 3394 
Q 2231 3394 2613 2919 
L 2613 3319 
L 3131 3319 
L 3131 450 
Q 3131 -325 2973 -648 
Q 2816 -972 2473 -1159 
Q 2131 -1347 1631 -1347 
Q 1038 -1347 672 -1080 
Q 306 -813 319 -275 
z
M 784 1719 
Q 784 1066 1043 766 
Q 1303 466 1694 466 
Q 2081 466 2343 764 
Q 2606 1063 2606 1700 
Q 2606 2309 2336 2618 
Q 2066 2928 1684 2928 
Q 1309 2928 1046 2623 
Q 784 2319 784 1719 
z
" transform="scale(0.015625)"/>
       <path id="DejaVuSans-Oblique-3c0" d="M 584 3500 
L 3938 3500 
L 3825 2925 
L 3384 2925 
L 2966 775 
Q 2922 550 2981 450 
Q 3038 353 3209 353 
Q 3256 353 3325 363 
Q 3397 369 3419 372 
L 3338 -44 
Q 3222 -84 3103 -103 
Q 2981 -122 2866 -122 
Q 2491 -122 2388 81 
Q 2284 288 2391 838 
L 2797 2925 
L 1506 2925 
L 938 0 
L 350 0 
L 919 2925 
L 472 2925 
L 584 3500 
z
" transform="scale(0.015625)"/>
      </defs>
      <use xlink:href="#ArialMT-6d" transform="translate(0 0.203125)"/>
      <use xlink:href="#ArialMT-6f" transform="translate(83.300781 0.203125)"/>
      <use xlink:href="#ArialMT-64" transform="translate(138.916016 0.203125)"/>
      <use xlink:href="#ArialMT-65" transform="translate(194.53125 0.203125)"/>
      <use xlink:href="#ArialMT-20" transform="translate(250.146484 0.203125)"/>
      <use xlink:href="#ArialMT-6f" transform="translate(277.929688 0.203125)"/>
      <use xlink:href="#ArialMT-66" transform="translate(333.544922 0.203125)"/>
      <use xlink:href="#ArialMT-20" transform="translate(361.328125 0.203125)"/>
      <use xlink:href="#ArialMT-74" transform="translate(389.111328 0.203125)"/>
      <use xlink:href="#ArialMT-61" transform="translate(416.894531 0.203125)"/>
      <use xlink:href="#ArialMT-72" transform="translate(472.509766 0.203125)"/>
      <use xlink:href="#ArialMT-67" transform="translate(505.810547 0.203125)"/>
      <use xlink:href="#ArialMT-65" transform="translate(561.425781 0.203125)"/>
      <use xlink:href="#ArialMT-74" transform="translate(617.041016 0.203125)"/>
      <use xlink:href="#ArialMT-20" transform="translate(644.824219 0.203125)"/>
      <use xlink:href="#DejaVuSans-Oblique-3c0" transform="translate(672.607422 0.203125)"/>
     </g>
    </g>
   </g>
  </g>
 </g>
 <defs>
  <clipPath id="pda4d42a949">
   <rect x="57.6" y="41.472" width="357.12" height="266.112"/>
  </clipPath>
 </defs>
</svg>
