<?xml version="1.0" encoding="utf-8" standalone="no"?>
<!DOCTYPE svg PUBLIC "-//W3C//DTD SVG 1.1//EN"
  "http://www.w3.org/Graphics/SVG/1.1/DTD/svg11.dtd">
<svg xmlns:xlink="http://www.w3.org/1999/xlink" width="460.8pt" height="345.6pt" viewBox="0 0 460.8 345.6" xmlns="http://www.w3.org/2000/svg" version="1.1">
 <metadata>
  <rdf:RDF xmlns:dc="http://purl.org/dc/elements/1.1/" xmlns:cc="http://creativecommons.org/ns#" xmlns:rdf="http://www.w3.org/1999/02/22-rdf-syntax-ns#">
   <cc:Work>
    <dc:type rdf:resource="http://purl.org/dc/dcmitype/StillImage"/>
    <dc:date>2025-04-06T14:00:35.373136</dc:date>
    <dc:format>image/svg+xml</dc:format>
    <dc:creator>
     <cc:Agent>
      <dc:title>Matplotlib v3.10.1, https://matplotlib.org/</dc:title>
     </cc:Agent>
    </dc:creator>
   </cc:Work>
  </rdf:RDF>
 </metadata>
 <defs>
  <style type="text/css">*{stroke-linejoin: round; stroke-linecap: butt}</style>
 </defs>
 <g id="figure_1">
  <g id="patch_1">
   <path d="M 0 345.6 
L 460.8 345.6 
L 460.8 0 
L 0 0 
z
" style="fill: #ffffff"/>
  </g>
  <g id="axes_1">
   <g id="patch_2">
    <path d="M 57.6 307.584 
L 414.72 307.584 
L 414.72 41.472 
L 57.6 41.472 
z
" style="fill: #eaeaf2"/>
   </g>
   <g id="matplotlib.axis_1">
    <g id="xtick_1">
     <g id="line2d_1">
      <path d="M 106.626147 307.584 
L 106.626147 41.472 
" clip-path="url(#pb1a31f2aa5)" style="fill: none; stroke: #ffffff; stroke-width: 0.8; stroke-linecap: round"/>
     </g>
     <g id="text_1">
      <!-- −2 -->
      <g style="fill: #262626" transform="translate(100.925366 321.741812) scale(0.1 -0.1)">
       <defs>
        <path id="ArialMT-2212" d="M 3381 1997 
L 356 1997 
L 356 2522 
L 3381 2522 
L 3381 1997 
z
" transform="scale(0.015625)"/>
        <path id="ArialMT-32" d="M 3222 541 
L 3222 0 
L 194 0 
Q 188 203 259 391 
Q 375 700 629 1000 
Q 884 1300 1366 1694 
Q 2113 2306 2375 2664 
Q 2638 3022 2638 3341 
Q 2638 3675 2398 3904 
Q 2159 4134 1775 4134 
Q 1369 4134 1125 3890 
Q 881 3647 878 3216 
L 300 3275 
Q 359 3922 746 4261 
Q 1134 4600 1788 4600 
Q 2447 4600 2831 4234 
Q 3216 3869 3216 3328 
Q 3216 3053 3103 2787 
Q 2991 2522 2730 2228 
Q 2469 1934 1863 1422 
Q 1356 997 1212 845 
Q 1069 694 975 541 
L 3222 541 
z
" transform="scale(0.015625)"/>
       </defs>
       <use xlink:href="#ArialMT-2212"/>
       <use xlink:href="#ArialMT-32" transform="translate(58.398438 0)"/>
      </g>
     </g>
    </g>
    <g id="xtick_2">
     <g id="line2d_2">
      <path d="M 172.212986 307.584 
L 172.212986 41.472 
" clip-path="url(#pb1a31f2aa5)" style="fill: none; stroke: #ffffff; stroke-width: 0.8; stroke-linecap: round"/>
     </g>
     <g id="text_2">
      <!-- −1 -->
      <g style="fill: #262626" transform="translate(166.512205 321.741812) scale(0.1 -0.1)">
       <defs>
        <path id="ArialMT-31" d="M 2384 0 
L 1822 0 
L 1822 3584 
Q 1619 3391 1289 3197 
Q 959 3003 697 2906 
L 697 3450 
Q 1169 3672 1522 3987 
Q 1875 4303 2022 4600 
L 2384 4600 
L 2384 0 
z
" transform="scale(0.015625)"/>
       </defs>
       <use xlink:href="#ArialMT-2212"/>
       <use xlink:href="#ArialMT-31" transform="translate(58.398438 0)"/>
      </g>
     </g>
    </g>
    <g id="xtick_3">
     <g id="line2d_3">
      <path d="M 237.799826 307.584 
L 237.799826 41.472 
" clip-path="url(#pb1a31f2aa5)" style="fill: none; stroke: #ffffff; stroke-width: 0.8; stroke-linecap: round"/>
     </g>
     <g id="text_3">
      <!-- 0 -->
      <g style="fill: #262626" transform="translate(235.019357 321.741812) scale(0.1 -0.1)">
       <defs>
        <path id="ArialMT-30" d="M 266 2259 
Q 266 3072 433 3567 
Q 600 4063 929 4331 
Q 1259 4600 1759 4600 
Q 2128 4600 2406 4451 
Q 2684 4303 2865 4023 
Q 3047 3744 3150 3342 
Q 3253 2941 3253 2259 
Q 3253 1453 3087 958 
Q 2922 463 2592 192 
Q 2263 -78 1759 -78 
Q 1097 -78 719 397 
Q 266 969 266 2259 
z
M 844 2259 
Q 844 1131 1108 757 
Q 1372 384 1759 384 
Q 2147 384 2411 759 
Q 2675 1134 2675 2259 
Q 2675 3391 2411 3762 
Q 2147 4134 1753 4134 
Q 1366 4134 1134 3806 
Q 844 3388 844 2259 
z
" transform="scale(0.015625)"/>
       </defs>
       <use xlink:href="#ArialMT-30"/>
      </g>
     </g>
    </g>
    <g id="xtick_4">
     <g id="line2d_4">
      <path d="M 303.386665 307.584 
L 303.386665 41.472 
" clip-path="url(#pb1a31f2aa5)" style="fill: none; stroke: #ffffff; stroke-width: 0.8; stroke-linecap: round"/>
     </g>
     <g id="text_4">
      <!-- 1 -->
      <g style="fill: #262626" transform="translate(300.606196 321.741812) scale(0.1 -0.1)">
       <use xlink:href="#ArialMT-31"/>
      </g>
     </g>
    </g>
    <g id="xtick_5">
     <g id="line2d_5">
      <path d="M 368.973505 307.584 
L 368.973505 41.472 
" clip-path="url(#pb1a31f2aa5)" style="fill: none; stroke: #ffffff; stroke-width: 0.8; stroke-linecap: round"/>
     </g>
     <g id="text_5">
      <!-- 2 -->
      <g style="fill: #262626" transform="translate(366.193036 321.741812) scale(0.1 -0.1)">
       <use xlink:href="#ArialMT-32"/>
      </g>
     </g>
    </g>
    <g id="text_6">
     <!-- $x$ -->
     <g style="fill: #262626" transform="translate(233.16 334.887125) scale(0.1 -0.1)">
      <defs>
       <path id="DejaVuSans-Oblique-78" d="M 3841 3500 
L 2234 1784 
L 3219 0 
L 2559 0 
L 1819 1388 
L 531 0 
L -166 0 
L 1556 1844 
L 641 3500 
L 1300 3500 
L 1972 2234 
L 3144 3500 
L 3841 3500 
z
" transform="scale(0.015625)"/>
      </defs>
      <use xlink:href="#DejaVuSans-Oblique-78" transform="translate(0 0.3125)"/>
     </g>
    </g>
   </g>
   <g id="matplotlib.axis_2">
    <g id="ytick_1">
     <g id="line2d_6">
      <path d="M 57.6 271.296 
L 414.72 271.296 
" clip-path="url(#pb1a31f2aa5)" style="fill: none; stroke: #ffffff; stroke-width: 0.8; stroke-linecap: round"/>
     </g>
     <g id="text_7">
      <!-- −2 -->
      <g style="fill: #262626" transform="translate(39.198437 274.874906) scale(0.1 -0.1)">
       <use xlink:href="#ArialMT-2212"/>
       <use xlink:href="#ArialMT-32" transform="translate(58.398438 0)"/>
      </g>
     </g>
    </g>
    <g id="ytick_2">
     <g id="line2d_7">
      <path d="M 57.6 222.912 
L 414.72 222.912 
" clip-path="url(#pb1a31f2aa5)" style="fill: none; stroke: #ffffff; stroke-width: 0.8; stroke-linecap: round"/>
     </g>
     <g id="text_8">
      <!-- −1 -->
      <g style="fill: #262626" transform="translate(39.198437 226.490906) scale(0.1 -0.1)">
       <use xlink:href="#ArialMT-2212"/>
       <use xlink:href="#ArialMT-31" transform="translate(58.398438 0)"/>
      </g>
     </g>
    </g>
    <g id="ytick_3">
     <g id="line2d_8">
      <path d="M 57.6 174.528 
L 414.72 174.528 
" clip-path="url(#pb1a31f2aa5)" style="fill: none; stroke: #ffffff; stroke-width: 0.8; stroke-linecap: round"/>
     </g>
     <g id="text_9">
      <!-- 0 -->
      <g style="fill: #262626" transform="translate(45.039062 178.106906) scale(0.1 -0.1)">
       <use xlink:href="#ArialMT-30"/>
      </g>
     </g>
    </g>
    <g id="ytick_4">
     <g id="line2d_9">
      <path d="M 57.6 126.144 
L 414.72 126.144 
" clip-path="url(#pb1a31f2aa5)" style="fill: none; stroke: #ffffff; stroke-width: 0.8; stroke-linecap: round"/>
     </g>
     <g id="text_10">
      <!-- 1 -->
      <g style="fill: #262626" transform="translate(45.039062 129.722906) scale(0.1 -0.1)">
       <use xlink:href="#ArialMT-31"/>
      </g>
     </g>
    </g>
    <g id="ytick_5">
     <g id="line2d_10">
      <path d="M 57.6 77.76 
L 414.72 77.76 
" clip-path="url(#pb1a31f2aa5)" style="fill: none; stroke: #ffffff; stroke-width: 0.8; stroke-linecap: round"/>
     </g>
     <g id="text_11">
      <!-- 2 -->
      <g style="fill: #262626" transform="translate(45.039062 81.338906) scale(0.1 -0.1)">
       <use xlink:href="#ArialMT-32"/>
      </g>
     </g>
    </g>
    <g id="text_12">
     <!-- $x_{next}$ -->
     <g style="fill: #262626" transform="translate(33.210938 185.478) rotate(-90) scale(0.1 -0.1)">
      <defs>
       <path id="DejaVuSans-Oblique-6e" d="M 3566 2113 
L 3156 0 
L 2578 0 
L 2988 2091 
Q 3016 2238 3031 2350 
Q 3047 2463 3047 2528 
Q 3047 2791 2881 2937 
Q 2716 3084 2419 3084 
Q 1956 3084 1622 2776 
Q 1288 2469 1184 1941 
L 800 0 
L 225 0 
L 903 3500 
L 1478 3500 
L 1363 2950 
Q 1603 3253 1940 3418 
Q 2278 3584 2650 3584 
Q 3113 3584 3367 3334 
Q 3622 3084 3622 2631 
Q 3622 2519 3608 2391 
Q 3594 2263 3566 2113 
z
" transform="scale(0.015625)"/>
       <path id="DejaVuSans-Oblique-65" d="M 3078 2063 
Q 3088 2113 3092 2166 
Q 3097 2219 3097 2272 
Q 3097 2653 2873 2875 
Q 2650 3097 2266 3097 
Q 1838 3097 1509 2826 
Q 1181 2556 1013 2059 
L 3078 2063 
z
M 3578 1613 
L 903 1613 
Q 884 1494 878 1425 
Q 872 1356 872 1306 
Q 872 872 1139 634 
Q 1406 397 1894 397 
Q 2269 397 2603 481 
Q 2938 566 3225 728 
L 3116 159 
Q 2806 34 2476 -28 
Q 2147 -91 1806 -91 
Q 1078 -91 686 257 
Q 294 606 294 1247 
Q 294 1794 489 2264 
Q 684 2734 1063 3103 
Q 1306 3334 1642 3459 
Q 1978 3584 2356 3584 
Q 2950 3584 3301 3228 
Q 3653 2872 3653 2272 
Q 3653 2128 3634 1964 
Q 3616 1800 3578 1613 
z
" transform="scale(0.015625)"/>
       <path id="DejaVuSans-Oblique-74" d="M 2706 3500 
L 2619 3053 
L 1472 3053 
L 1100 1153 
Q 1081 1047 1072 975 
Q 1063 903 1063 863 
Q 1063 663 1183 572 
Q 1303 481 1569 481 
L 2150 481 
L 2053 0 
L 1503 0 
Q 991 0 739 200 
Q 488 400 488 806 
Q 488 878 497 964 
Q 506 1050 525 1153 
L 897 3053 
L 409 3053 
L 500 3500 
L 978 3500 
L 1172 4494 
L 1747 4494 
L 1556 3500 
L 2706 3500 
z
" transform="scale(0.015625)"/>
      </defs>
      <use xlink:href="#DejaVuSans-Oblique-78" transform="translate(0 0.3125)"/>
      <use xlink:href="#DejaVuSans-Oblique-6e" transform="translate(59.179688 -16.09375) scale(0.7)"/>
      <use xlink:href="#DejaVuSans-Oblique-65" transform="translate(103.544922 -16.09375) scale(0.7)"/>
      <use xlink:href="#DejaVuSans-Oblique-78" transform="translate(146.611328 -16.09375) scale(0.7)"/>
      <use xlink:href="#DejaVuSans-Oblique-74" transform="translate(188.037109 -16.09375) scale(0.7)"/>
     </g>
    </g>
   </g>
   <g id="FillBetweenPolyCollection_1">
    <defs>
     <path id="m9c8b53ee69" d="M 73.832727 -213.013008 
L 73.832727 -143.801041 
L 77.112066 -143.601953 
L 80.391405 -144.547054 
L 83.670744 -144.945752 
L 86.950083 -145.088794 
L 90.229421 -145.537355 
L 93.50876 -145.607572 
L 96.788099 -146.055798 
L 100.067438 -146.307348 
L 103.346777 -147.050477 
L 106.626116 -146.852637 
L 109.905455 -145.392574 
L 113.184793 -143.37993 
L 116.464132 -140.856559 
L 119.743471 -138.506772 
L 123.02281 -135.646526 
L 126.302149 -133.497066 
L 129.581488 -131.224475 
L 132.860826 -128.660142 
L 136.140165 -126.128725 
L 139.419504 -124.093569 
L 142.698843 -122.302248 
L 145.978182 -121.239261 
L 149.257521 -120.138888 
L 152.53686 -119.697073 
L 155.816198 -119.324604 
L 159.095537 -119.244772 
L 162.374876 -119.412534 
L 165.654215 -119.755858 
L 168.933554 -120.300935 
L 172.212893 -120.521842 
L 175.492231 -120.084601 
L 178.77157 -119.567695 
L 182.050909 -119.25539 
L 185.330248 -119.181037 
L 188.609587 -119.402527 
L 191.888926 -119.927601 
L 195.168264 -120.90741 
L 198.447603 -122.047691 
L 201.726942 -124.098778 
L 205.006281 -126.317829 
L 208.28562 -128.92562 
L 211.564959 -131.682977 
L 214.844298 -134.124144 
L 218.123636 -135.738875 
L 221.402975 -137.555364 
L 224.682314 -138.860382 
L 227.961653 -140.389611 
L 231.240992 -141.715625 
L 234.520331 -142.960032 
L 237.799669 -143.265981 
L 241.079008 -141.669727 
L 244.358347 -140.506753 
L 247.637686 -139.429871 
L 250.917025 -139.37067 
L 254.196364 -137.286918 
L 257.475702 -135.031944 
L 260.755041 -132.948564 
L 264.03438 -132.748195 
L 267.313719 -132.95669 
L 270.593058 -133.406226 
L 273.872397 -133.9692 
L 277.151736 -134.719631 
L 280.431074 -135.25203 
L 283.710413 -136.371717 
L 286.989752 -204.199649 
L 290.269091 -208.612552 
L 293.54843 -211.46722 
L 296.827769 -213.610151 
L 300.107107 -215.203004 
L 303.386446 -215.965625 
L 306.665785 -215.626411 
L 309.945124 -214.304677 
L 313.224463 -212.403574 
L 316.503802 -209.962848 
L 319.78314 -206.682001 
L 323.062479 -136.201186 
L 326.341818 -135.343508 
L 329.621157 -135.122848 
L 332.900496 -134.075039 
L 336.179835 -133.974676 
L 339.459174 -132.750592 
L 342.738512 -132.294847 
L 346.017851 -131.624093 
L 349.29719 -130.764808 
L 352.576529 -129.951081 
L 355.855868 -129.2153 
L 359.135207 -129.030153 
L 362.414545 -130.747511 
L 365.693884 -132.068867 
L 368.973223 -134.234208 
L 372.252562 -133.668526 
L 375.531901 -133.047839 
L 378.81124 -132.627656 
L 382.090579 -131.719472 
L 385.369917 -131.301513 
L 388.649256 -130.795759 
L 391.928595 -130.300764 
L 395.207934 -129.817934 
L 398.487273 -129.386489 
L 398.487273 -197.968915 
L 398.487273 -197.968915 
L 395.207934 -197.756616 
L 391.928595 -197.371923 
L 388.649256 -197.176007 
L 385.369917 -196.657408 
L 382.090579 -196.131002 
L 378.81124 -196.193231 
L 375.531901 -195.732592 
L 372.252562 -195.49533 
L 368.973223 -195.248908 
L 365.693884 -196.631343 
L 362.414545 -198.76482 
L 359.135207 -201.167251 
L 355.855868 -203.619299 
L 352.576529 -206.169392 
L 349.29719 -208.659689 
L 346.017851 -210.737224 
L 342.738512 -213.627232 
L 339.459174 -216.077997 
L 336.179835 -218.215774 
L 332.900496 -219.719947 
L 329.621157 -220.991717 
L 326.341818 -221.750445 
L 323.062479 -222.580758 
L 319.78314 -222.873481 
L 316.503802 -222.958527 
L 313.224463 -222.714572 
L 309.945124 -222.360721 
L 306.665785 -221.853493 
L 303.386446 -221.610847 
L 300.107107 -222.067105 
L 296.827769 -222.531535 
L 293.54843 -222.801585 
L 290.269091 -222.882427 
L 286.989752 -222.633095 
L 283.710413 -222.214438 
L 280.431074 -221.11933 
L 277.151736 -219.865706 
L 273.872397 -218.153283 
L 270.593058 -215.850044 
L 267.313719 -213.200618 
L 264.03438 -210.745443 
L 260.755041 -208.036133 
L 257.475702 -206.548162 
L 254.196364 -204.523111 
L 250.917025 -203.107298 
L 247.637686 -201.846383 
L 244.358347 -200.383934 
L 241.079008 -199.330176 
L 237.799669 -199.251036 
L 234.520331 -200.365639 
L 231.240992 -201.705083 
L 227.961653 -202.590963 
L 224.682314 -202.7554 
L 221.402975 -205.07525 
L 218.123636 -207.21412 
L 214.844298 -209.242709 
L 211.564959 -209.974603 
L 208.28562 -209.236001 
L 205.006281 -208.675508 
L 201.726942 -208.279702 
L 198.447603 -207.502852 
L 195.168264 -206.756784 
L 191.888926 -205.787449 
L 188.609587 -137.599903 
L 185.330248 -133.449352 
L 182.050909 -130.654124 
L 178.77157 -128.471488 
L 175.492231 -126.915122 
L 172.212893 -126.181065 
L 168.933554 -126.525672 
L 165.654215 -127.80501 
L 162.374876 -129.742272 
L 159.095537 -132.201207 
L 155.816198 -135.633649 
L 152.53686 -205.623118 
L 149.257521 -206.31393 
L 145.978182 -207.228321 
L 142.698843 -207.90668 
L 139.419504 -208.303013 
L 136.140165 -209.490391 
L 132.860826 -209.734958 
L 129.581488 -210.363674 
L 126.302149 -211.213427 
L 123.02281 -212.518746 
L 119.743471 -213.217745 
L 116.464132 -212.854162 
L 113.184793 -211.393375 
L 109.905455 -209.879134 
L 106.626116 -207.901137 
L 103.346777 -208.532982 
L 100.067438 -209.080083 
L 96.788099 -209.332791 
L 93.50876 -210.095744 
L 90.229421 -210.929645 
L 86.950083 -211.686781 
L 83.670744 -211.958809 
L 80.391405 -212.263696 
L 77.112066 -212.619077 
L 73.832727 -213.013008 
z
" style="stroke: #0000ff; stroke-opacity: 0.5"/>
    </defs>
    <g clip-path="url(#pb1a31f2aa5)">
     <use xlink:href="#m9c8b53ee69" x="0" y="345.6" style="fill: #0000ff; fill-opacity: 0.5; stroke: #0000ff; stroke-opacity: 0.5"/>
    </g>
   </g>
   <g id="FillBetweenPolyCollection_2">
    <defs>
     <path id="mcaed03caa4" d="M 73.832727 -265.274467 
L 73.832727 -85.281458 
L 77.112066 -86.265356 
L 80.391405 -87.806259 
L 83.670744 -89.920806 
L 86.950083 -90.188906 
L 90.229421 -92.520923 
L 93.50876 -93.937667 
L 96.788099 -94.909459 
L 100.067438 -96.207824 
L 103.346777 -97.820011 
L 106.626116 -99.021103 
L 109.905455 -99.316104 
L 113.184793 -99.940609 
L 116.464132 -99.968513 
L 119.743471 -100.249631 
L 123.02281 -100.513313 
L 126.302149 -100.882402 
L 129.581488 -101.832997 
L 132.860826 -102.505109 
L 136.140165 -103.091535 
L 139.419504 -103.968839 
L 142.698843 -105.173027 
L 145.978182 -106.684595 
L 149.257521 -108.114582 
L 152.53686 -109.686313 
L 155.816198 -111.255588 
L 159.095537 -112.964536 
L 162.374876 -114.413776 
L 165.654215 -115.560656 
L 168.933554 -116.282926 
L 172.212893 -116.467496 
L 175.492231 -116.029943 
L 178.77157 -115.142166 
L 182.050909 -113.856674 
L 185.330248 -112.312241 
L 188.609587 -110.631533 
L 191.888926 -109.024958 
L 195.168264 -107.60075 
L 198.447603 -106.235598 
L 201.726942 -105.15145 
L 205.006281 -104.35515 
L 208.28562 -103.462049 
L 211.564959 -103.039821 
L 214.844298 -102.813509 
L 218.123636 -102.380651 
L 221.402975 -102.426465 
L 224.682314 -102.470018 
L 227.961653 -102.693579 
L 231.240992 -102.775061 
L 234.520331 -102.898002 
L 237.799669 -102.682487 
L 241.079008 -101.931182 
L 244.358347 -99.412374 
L 247.637686 -99.047162 
L 250.917025 -100.085202 
L 254.196364 -101.513367 
L 257.475702 -103.004926 
L 260.755041 -102.965312 
L 264.03438 -103.474046 
L 267.313719 -104.820896 
L 270.593058 -106.572947 
L 273.872397 -108.282777 
L 277.151736 -110.126635 
L 280.431074 -111.82621 
L 283.710413 -113.719861 
L 286.989752 -115.282999 
L 290.269091 -117.027234 
L 293.54843 -118.580647 
L 296.827769 -120.256102 
L 300.107107 -121.317012 
L 303.386446 -122.127714 
L 306.665785 -121.897566 
L 309.945124 -120.587359 
L 313.224463 -119.377599 
L 316.503802 -117.555896 
L 319.78314 -116.150352 
L 323.062479 -114.266783 
L 326.341818 -112.501161 
L 329.621157 -110.684101 
L 332.900496 -108.895851 
L 336.179835 -107.281333 
L 339.459174 -105.309061 
L 342.738512 -103.563857 
L 346.017851 -101.731304 
L 349.29719 -100.000335 
L 352.576529 -98.219987 
L 355.855868 -96.608324 
L 359.135207 -94.651919 
L 362.414545 -92.608622 
L 365.693884 -90.670951 
L 368.973223 -92.392975 
L 372.252562 -90.953494 
L 375.531901 -89.356713 
L 378.81124 -87.86126 
L 382.090579 -85.957643 
L 385.369917 -84.692811 
L 388.649256 -82.999955 
L 391.928595 -81.375489 
L 395.207934 -80.163559 
L 398.487273 -78.763686 
L 398.487273 -255.554054 
L 398.487273 -255.554054 
L 395.207934 -253.661395 
L 391.928595 -253.008962 
L 388.649256 -251.107859 
L 385.369917 -249.92943 
L 382.090579 -248.723182 
L 378.81124 -247.795895 
L 375.531901 -246.050736 
L 372.252562 -244.513294 
L 368.973223 -243.443531 
L 365.693884 -242.884133 
L 362.414545 -242.453311 
L 359.135207 -242.407624 
L 355.855868 -241.864168 
L 352.576529 -241.62962 
L 349.29719 -240.916902 
L 346.017851 -240.236691 
L 342.738512 -239.618917 
L 339.459174 -238.942357 
L 336.179835 -237.995004 
L 332.900496 -236.928418 
L 329.621157 -235.553773 
L 326.341818 -233.958093 
L 323.062479 -232.512954 
L 319.78314 -230.892796 
L 316.503802 -229.211948 
L 313.224463 -227.741748 
L 309.945124 -226.619918 
L 306.665785 -225.897262 
L 303.386446 -225.687405 
L 300.107107 -226.107649 
L 296.827769 -226.943441 
L 293.54843 -228.2528 
L 290.269091 -229.87106 
L 286.989752 -231.492049 
L 283.710413 -233.118431 
L 280.431074 -234.456168 
L 277.151736 -235.842297 
L 273.872397 -237.068645 
L 270.593058 -237.919116 
L 267.313719 -238.871857 
L 264.03438 -239.219674 
L 260.755041 -239.226301 
L 257.475702 -239.81955 
L 254.196364 -239.649359 
L 250.917025 -240.025813 
L 247.637686 -240.0662 
L 244.358347 -239.444498 
L 241.079008 -239.720834 
L 237.799669 -239.620272 
L 234.520331 -240.41573 
L 231.240992 -243.134566 
L 227.961653 -243.113357 
L 224.682314 -242.105581 
L 221.402975 -240.627357 
L 218.123636 -239.141514 
L 214.844298 -238.904941 
L 211.564959 -239.249609 
L 208.28562 -237.258372 
L 205.006281 -235.490131 
L 201.726942 -233.866241 
L 198.447603 -232.343166 
L 195.168264 -230.407797 
L 191.888926 -228.556833 
L 188.609587 -226.727303 
L 185.330248 -225.065224 
L 182.050909 -223.572962 
L 178.77157 -221.838387 
L 175.492231 -220.725544 
L 172.212893 -220.061523 
L 168.933554 -220.366139 
L 165.654215 -221.516618 
L 162.374876 -222.953325 
L 159.095537 -224.491591 
L 155.816198 -226.271351 
L 152.53686 -227.914356 
L 149.257521 -229.654577 
L 145.978182 -231.300719 
L 142.698843 -233.199463 
L 139.419504 -234.96016 
L 136.140165 -236.938408 
L 132.860826 -238.498661 
L 129.581488 -240.458337 
L 126.302149 -242.231907 
L 123.02281 -244.109939 
L 119.743471 -245.824338 
L 116.464132 -247.627538 
L 113.184793 -249.67219 
L 109.905455 -251.180003 
L 106.626116 -250.060982 
L 103.346777 -250.85092 
L 100.067438 -252.75294 
L 96.788099 -254.185586 
L 93.50876 -255.530198 
L 90.229421 -257.38562 
L 86.950083 -259.014338 
L 83.670744 -260.74029 
L 80.391405 -262.203932 
L 77.112066 -263.829281 
L 73.832727 -265.274467 
z
" style="stroke: #0000ff; stroke-opacity: 0.3"/>
    </defs>
    <g clip-path="url(#pb1a31f2aa5)">
     <use xlink:href="#mcaed03caa4" x="0" y="345.6" style="fill: #0000ff; fill-opacity: 0.3; stroke: #0000ff; stroke-opacity: 0.3"/>
    </g>
   </g>
   <g id="line2d_11">
    <path d="M 73.832727 167.85085 
L 77.112066 167.980598 
L 80.391405 167.734785 
L 83.670744 167.599667 
L 86.950083 167.72366 
L 90.229421 167.84456 
L 93.50876 168.083912 
L 96.788099 168.193084 
L 100.067438 168.259426 
L 103.346777 168.19214 
L 106.626116 168.42507 
L 109.905455 167.826319 
L 113.184793 167.94083 
L 116.464132 168.94997 
L 119.743471 169.810109 
L 123.02281 171.336399 
L 126.302149 173.037691 
L 129.581488 174.873884 
L 132.860826 177.58362 
L 136.140165 180.394879 
L 139.419504 183.879775 
L 142.698843 186.835843 
L 145.978182 189.926309 
L 149.257521 193.535149 
L 152.53686 196.762687 
L 155.816198 199.995061 
L 159.095537 203.482153 
L 162.374876 206.656942 
L 165.654215 209.517089 
L 168.933554 211.645932 
L 172.212893 212.387734 
L 175.492231 210.951792 
L 178.77157 208.701871 
L 182.050909 205.52156 
L 185.330248 202.098361 
L 188.609587 198.922964 
L 191.888926 195.48732 
L 195.168264 191.824176 
L 198.447603 188.513148 
L 201.726942 185.223831 
L 205.006281 182.108245 
L 208.28562 179.062088 
L 211.564959 176.013492 
L 214.844298 174.611843 
L 218.123636 174.332079 
L 221.402975 174.006963 
L 224.682314 173.768615 
L 227.961653 173.460684 
L 231.240992 173.463542 
L 234.520331 173.893456 
L 237.799669 174.413563 
L 241.079008 175.070424 
L 244.358347 175.533229 
L 247.637686 175.590124 
L 250.917025 175.26923 
L 254.196364 174.95591 
L 257.475702 174.646872 
L 260.755041 174.43287 
L 264.03438 172.430632 
L 267.313719 169.947234 
L 270.593058 166.991838 
L 273.872397 163.849871 
L 277.151736 160.547151 
L 280.431074 157.455847 
L 283.710413 153.517756 
L 286.989752 150.333505 
L 290.269091 147.131672 
L 293.54843 143.712588 
L 296.827769 140.664743 
L 300.107107 138.099764 
L 303.386446 136.580782 
L 306.665785 137.274071 
L 309.945124 139.597353 
L 313.224463 142.365138 
L 316.503802 145.511909 
L 319.78314 148.754478 
L 323.062479 152.599759 
L 326.341818 156.033116 
L 329.621157 158.95319 
L 332.900496 162.291193 
L 336.179835 165.018031 
L 339.459174 168.560209 
L 342.738512 171.483185 
L 346.017851 174.296686 
L 349.29719 176.080008 
L 352.576529 177.775305 
L 355.855868 179.125363 
L 359.135207 180.197723 
L 362.414545 181.119116 
L 365.693884 181.316788 
L 368.973223 180.628747 
L 372.252562 180.705816 
L 375.531901 180.772872 
L 378.81124 180.897094 
L 382.090579 181.299899 
L 385.369917 181.186562 
L 388.649256 181.288792 
L 391.928595 181.231096 
L 395.207934 181.315942 
L 398.487273 181.378425 
" clip-path="url(#pb1a31f2aa5)" style="fill: none; stroke: #0000ff; stroke-width: 1.5; stroke-linecap: round"/>
   </g>
   <g id="LineCollection_1">
    <path d="M 172.212986 295.488 
L 172.212986 53.568 
" clip-path="url(#pb1a31f2aa5)" style="fill: none; stroke-dasharray: 5.55,2.4; stroke-dashoffset: 0; stroke: #008000; stroke-width: 1.5"/>
    <path d="M 303.386665 295.488 
L 303.386665 53.568 
" clip-path="url(#pb1a31f2aa5)" style="fill: none; stroke-dasharray: 5.55,2.4; stroke-dashoffset: 0; stroke: #008000; stroke-width: 1.5"/>
   </g>
   <g id="patch_3">
    <path d="M 57.6 307.584 
L 57.6 41.472 
" style="fill: none; stroke: #ffffff; stroke-width: 0.8; stroke-linejoin: miter; stroke-linecap: square"/>
   </g>
   <g id="patch_4">
    <path d="M 414.72 307.584 
L 414.72 41.472 
" style="fill: none; stroke: #ffffff; stroke-width: 0.8; stroke-linejoin: miter; stroke-linecap: square"/>
   </g>
   <g id="patch_5">
    <path d="M 57.6 307.584 
L 414.72 307.584 
" style="fill: none; stroke: #ffffff; stroke-width: 0.8; stroke-linejoin: miter; stroke-linecap: square"/>
   </g>
   <g id="patch_6">
    <path d="M 57.6 41.472 
L 414.72 41.472 
" style="fill: none; stroke: #ffffff; stroke-width: 0.8; stroke-linejoin: miter; stroke-linecap: square"/>
   </g>
   <g id="text_13">
    <!-- $\mu=0, \sigma^2=1, n=1$ -->
    <g style="fill: #262626" transform="translate(181.92 35.472) scale(0.12 -0.12)">
     <defs>
      <path id="DejaVuSans-Oblique-3bc" d="M -84 -1331 
L 856 3500 
L 1434 3500 
L 1009 1322 
Q 997 1256 987 1175 
Q 978 1094 978 1013 
Q 978 722 1161 565 
Q 1344 409 1684 409 
Q 2147 409 2431 671 
Q 2716 934 2816 1459 
L 3213 3500 
L 3788 3500 
L 3266 809 
Q 3253 750 3248 706 
Q 3244 663 3244 628 
Q 3244 531 3283 486 
Q 3322 441 3406 441 
Q 3438 441 3492 456 
Q 3547 472 3647 513 
L 3559 50 
Q 3422 -19 3297 -55 
Q 3172 -91 3053 -91 
Q 2847 -91 2730 40 
Q 2613 172 2613 403 
Q 2438 153 2195 31 
Q 1953 -91 1625 -91 
Q 1334 -91 1117 43 
Q 900 178 831 397 
L 494 -1331 
L -84 -1331 
z
" transform="scale(0.015625)"/>
      <path id="DejaVuSans-3d" d="M 678 2906 
L 4684 2906 
L 4684 2381 
L 678 2381 
L 678 2906 
z
M 678 1631 
L 4684 1631 
L 4684 1100 
L 678 1100 
L 678 1631 
z
" transform="scale(0.015625)"/>
      <path id="DejaVuSans-30" d="M 2034 4250 
Q 1547 4250 1301 3770 
Q 1056 3291 1056 2328 
Q 1056 1369 1301 889 
Q 1547 409 2034 409 
Q 2525 409 2770 889 
Q 3016 1369 3016 2328 
Q 3016 3291 2770 3770 
Q 2525 4250 2034 4250 
z
M 2034 4750 
Q 2819 4750 3233 4129 
Q 3647 3509 3647 2328 
Q 3647 1150 3233 529 
Q 2819 -91 2034 -91 
Q 1250 -91 836 529 
Q 422 1150 422 2328 
Q 422 3509 836 4129 
Q 1250 4750 2034 4750 
z
" transform="scale(0.015625)"/>
      <path id="DejaVuSans-2c" d="M 750 794 
L 1409 794 
L 1409 256 
L 897 -744 
L 494 -744 
L 750 256 
L 750 794 
z
" transform="scale(0.015625)"/>
      <path id="DejaVuSans-Oblique-3c3" d="M 2219 3044 
Q 1744 3044 1422 2700 
Q 1081 2341 969 1747 
Q 844 1119 1044 756 
Q 1241 397 1706 397 
Q 2166 397 2503 759 
Q 2844 1122 2966 1747 
Q 3075 2319 2881 2700 
Q 2700 3044 2219 3044 
z
M 2309 3503 
L 4219 3500 
L 4106 2925 
L 3463 2925 
Q 3706 2438 3575 1747 
Q 3406 888 2884 400 
Q 2359 -91 1609 -91 
Q 856 -91 525 400 
Q 194 888 363 1747 
Q 528 2609 1050 3097 
Q 1484 3503 2309 3503 
z
" transform="scale(0.015625)"/>
      <path id="DejaVuSans-32" d="M 1228 531 
L 3431 531 
L 3431 0 
L 469 0 
L 469 531 
Q 828 903 1448 1529 
Q 2069 2156 2228 2338 
Q 2531 2678 2651 2914 
Q 2772 3150 2772 3378 
Q 2772 3750 2511 3984 
Q 2250 4219 1831 4219 
Q 1534 4219 1204 4116 
Q 875 4013 500 3803 
L 500 4441 
Q 881 4594 1212 4672 
Q 1544 4750 1819 4750 
Q 2544 4750 2975 4387 
Q 3406 4025 3406 3419 
Q 3406 3131 3298 2873 
Q 3191 2616 2906 2266 
Q 2828 2175 2409 1742 
Q 1991 1309 1228 531 
z
" transform="scale(0.015625)"/>
      <path id="DejaVuSans-31" d="M 794 531 
L 1825 531 
L 1825 4091 
L 703 3866 
L 703 4441 
L 1819 4666 
L 2450 4666 
L 2450 531 
L 3481 531 
L 3481 0 
L 794 0 
L 794 531 
z
" transform="scale(0.015625)"/>
     </defs>
     <use xlink:href="#DejaVuSans-Oblique-3bc" transform="translate(0 0.765625)"/>
     <use xlink:href="#DejaVuSans-3d" transform="translate(83.105469 0.765625)"/>
     <use xlink:href="#DejaVuSans-30" transform="translate(186.376953 0.765625)"/>
     <use xlink:href="#DejaVuSans-2c" transform="translate(250 0.765625)"/>
     <use xlink:href="#DejaVuSans-Oblique-3c3" transform="translate(301.269531 0.765625)"/>
     <use xlink:href="#DejaVuSans-32" transform="translate(369.121146 39.046875) scale(0.7)"/>
     <use xlink:href="#DejaVuSans-3d" transform="translate(435.874076 0.765625)"/>
     <use xlink:href="#DejaVuSans-31" transform="translate(539.14556 0.765625)"/>
     <use xlink:href="#DejaVuSans-2c" transform="translate(602.768607 0.765625)"/>
     <use xlink:href="#DejaVuSans-Oblique-6e" transform="translate(654.038138 0.765625)"/>
     <use xlink:href="#DejaVuSans-3d" transform="translate(736.899466 0.765625)"/>
     <use xlink:href="#DejaVuSans-31" transform="translate(840.170951 0.765625)"/>
    </g>
   </g>
   <g id="legend_1">
    <g id="patch_7">
     <path d="M 64.6 302.584 
L 174.9 302.584 
Q 176.9 302.584 176.9 300.584 
L 176.9 244.393375 
Q 176.9 242.393375 174.9 242.393375 
L 64.6 242.393375 
Q 62.6 242.393375 62.6 244.393375 
L 62.6 300.584 
Q 62.6 302.584 64.6 302.584 
z
" style="fill: #eaeaf2; opacity: 0.8; stroke: #cccccc; stroke-linejoin: miter"/>
    </g>
    <g id="line2d_12">
     <path d="M 66.6 250.305875 
L 76.6 250.305875 
L 86.6 250.305875 
" style="fill: none; stroke: #0000ff; stroke-width: 1.5; stroke-linecap: round"/>
    </g>
    <g id="text_14">
     <!-- $E[x_{next}]$ -->
     <g style="fill: #262626" transform="translate(94.6 253.805875) scale(0.1 -0.1)">
      <defs>
       <path id="DejaVuSans-Oblique-45" d="M 1081 4666 
L 4031 4666 
L 3928 4134 
L 1606 4134 
L 1338 2753 
L 3566 2753 
L 3463 2222 
L 1234 2222 
L 909 531 
L 3284 531 
L 3181 0 
L 172 0 
L 1081 4666 
z
" transform="scale(0.015625)"/>
       <path id="DejaVuSans-5b" d="M 550 4863 
L 1875 4863 
L 1875 4416 
L 1125 4416 
L 1125 -397 
L 1875 -397 
L 1875 -844 
L 550 -844 
L 550 4863 
z
" transform="scale(0.015625)"/>
       <path id="DejaVuSans-5d" d="M 1947 4863 
L 1947 -844 
L 622 -844 
L 622 -397 
L 1369 -397 
L 1369 4416 
L 622 4416 
L 622 4863 
L 1947 4863 
z
" transform="scale(0.015625)"/>
      </defs>
      <use xlink:href="#DejaVuSans-Oblique-45" transform="translate(0 0.015625)"/>
      <use xlink:href="#DejaVuSans-5b" transform="translate(63.183594 0.015625)"/>
      <use xlink:href="#DejaVuSans-Oblique-78" transform="translate(102.197266 0.015625)"/>
      <use xlink:href="#DejaVuSans-Oblique-6e" transform="translate(161.376953 -16.390625) scale(0.7)"/>
      <use xlink:href="#DejaVuSans-Oblique-65" transform="translate(205.742188 -16.390625) scale(0.7)"/>
      <use xlink:href="#DejaVuSans-Oblique-78" transform="translate(248.808594 -16.390625) scale(0.7)"/>
      <use xlink:href="#DejaVuSans-Oblique-74" transform="translate(290.234375 -16.390625) scale(0.7)"/>
      <use xlink:href="#DejaVuSans-5d" transform="translate(320.415039 0.015625)"/>
     </g>
    </g>
    <g id="patch_8">
     <path d="M 66.6 267.951187 
L 86.6 267.951187 
L 86.6 260.951187 
L 66.6 260.951187 
z
" style="fill: #0000ff; fill-opacity: 0.5; stroke: #0000ff; stroke-opacity: 0.5; stroke-linejoin: miter"/>
    </g>
    <g id="text_15">
     <!-- 50% CI -->
     <g style="fill: #262626" transform="translate(94.6 267.951187) scale(0.1 -0.1)">
      <defs>
       <path id="ArialMT-35" d="M 266 1200 
L 856 1250 
Q 922 819 1161 601 
Q 1400 384 1738 384 
Q 2144 384 2425 690 
Q 2706 997 2706 1503 
Q 2706 1984 2436 2262 
Q 2166 2541 1728 2541 
Q 1456 2541 1237 2417 
Q 1019 2294 894 2097 
L 366 2166 
L 809 4519 
L 3088 4519 
L 3088 3981 
L 1259 3981 
L 1013 2750 
Q 1425 3038 1878 3038 
Q 2478 3038 2890 2622 
Q 3303 2206 3303 1553 
Q 3303 931 2941 478 
Q 2500 -78 1738 -78 
Q 1113 -78 717 272 
Q 322 622 266 1200 
z
" transform="scale(0.015625)"/>
       <path id="ArialMT-25" d="M 372 3481 
Q 372 3972 619 4315 
Q 866 4659 1334 4659 
Q 1766 4659 2048 4351 
Q 2331 4044 2331 3447 
Q 2331 2866 2045 2552 
Q 1759 2238 1341 2238 
Q 925 2238 648 2547 
Q 372 2856 372 3481 
z
M 1350 4272 
Q 1141 4272 1002 4090 
Q 863 3909 863 3425 
Q 863 2984 1003 2804 
Q 1144 2625 1350 2625 
Q 1563 2625 1702 2806 
Q 1841 2988 1841 3469 
Q 1841 3913 1700 4092 
Q 1559 4272 1350 4272 
z
M 1353 -169 
L 3859 4659 
L 4316 4659 
L 1819 -169 
L 1353 -169 
z
M 3334 1075 
Q 3334 1569 3581 1911 
Q 3828 2253 4300 2253 
Q 4731 2253 5014 1945 
Q 5297 1638 5297 1041 
Q 5297 459 5011 145 
Q 4725 -169 4303 -169 
Q 3888 -169 3611 142 
Q 3334 453 3334 1075 
z
M 4316 1866 
Q 4103 1866 3964 1684 
Q 3825 1503 3825 1019 
Q 3825 581 3965 400 
Q 4106 219 4313 219 
Q 4528 219 4667 400 
Q 4806 581 4806 1063 
Q 4806 1506 4665 1686 
Q 4525 1866 4316 1866 
z
" transform="scale(0.015625)"/>
       <path id="ArialMT-20" transform="scale(0.015625)"/>
       <path id="ArialMT-43" d="M 3763 1606 
L 4369 1453 
Q 4178 706 3683 314 
Q 3188 -78 2472 -78 
Q 1731 -78 1267 223 
Q 803 525 561 1097 
Q 319 1669 319 2325 
Q 319 3041 592 3573 
Q 866 4106 1370 4382 
Q 1875 4659 2481 4659 
Q 3169 4659 3637 4309 
Q 4106 3959 4291 3325 
L 3694 3184 
Q 3534 3684 3231 3912 
Q 2928 4141 2469 4141 
Q 1941 4141 1586 3887 
Q 1231 3634 1087 3207 
Q 944 2781 944 2328 
Q 944 1744 1114 1308 
Q 1284 872 1643 656 
Q 2003 441 2422 441 
Q 2931 441 3284 734 
Q 3638 1028 3763 1606 
z
" transform="scale(0.015625)"/>
       <path id="ArialMT-49" d="M 597 0 
L 597 4581 
L 1203 4581 
L 1203 0 
L 597 0 
z
" transform="scale(0.015625)"/>
      </defs>
      <use xlink:href="#ArialMT-35"/>
      <use xlink:href="#ArialMT-30" transform="translate(55.615234 0)"/>
      <use xlink:href="#ArialMT-25" transform="translate(111.230469 0)"/>
      <use xlink:href="#ArialMT-20" transform="translate(200.146484 0)"/>
      <use xlink:href="#ArialMT-43" transform="translate(227.929688 0)"/>
      <use xlink:href="#ArialMT-49" transform="translate(300.146484 0)"/>
     </g>
    </g>
    <g id="patch_9">
     <path d="M 66.6 282.0965 
L 86.6 282.0965 
L 86.6 275.0965 
L 66.6 275.0965 
z
" style="fill: #0000ff; fill-opacity: 0.3; stroke: #0000ff; stroke-opacity: 0.3; stroke-linejoin: miter"/>
    </g>
    <g id="text_16">
     <!-- 90% CI -->
     <g style="fill: #262626" transform="translate(94.6 282.0965) scale(0.1 -0.1)">
      <defs>
       <path id="ArialMT-39" d="M 350 1059 
L 891 1109 
Q 959 728 1153 556 
Q 1347 384 1650 384 
Q 1909 384 2104 503 
Q 2300 622 2425 820 
Q 2550 1019 2634 1356 
Q 2719 1694 2719 2044 
Q 2719 2081 2716 2156 
Q 2547 1888 2255 1720 
Q 1963 1553 1622 1553 
Q 1053 1553 659 1965 
Q 266 2378 266 3053 
Q 266 3750 677 4175 
Q 1088 4600 1706 4600 
Q 2153 4600 2523 4359 
Q 2894 4119 3086 3673 
Q 3278 3228 3278 2384 
Q 3278 1506 3087 986 
Q 2897 466 2520 194 
Q 2144 -78 1638 -78 
Q 1100 -78 759 220 
Q 419 519 350 1059 
z
M 2653 3081 
Q 2653 3566 2395 3850 
Q 2138 4134 1775 4134 
Q 1400 4134 1122 3828 
Q 844 3522 844 3034 
Q 844 2597 1108 2323 
Q 1372 2050 1759 2050 
Q 2150 2050 2401 2323 
Q 2653 2597 2653 3081 
z
" transform="scale(0.015625)"/>
      </defs>
      <use xlink:href="#ArialMT-39"/>
      <use xlink:href="#ArialMT-30" transform="translate(55.615234 0)"/>
      <use xlink:href="#ArialMT-25" transform="translate(111.230469 0)"/>
      <use xlink:href="#ArialMT-20" transform="translate(200.146484 0)"/>
      <use xlink:href="#ArialMT-43" transform="translate(227.929688 0)"/>
      <use xlink:href="#ArialMT-49" transform="translate(300.146484 0)"/>
     </g>
    </g>
    <g id="line2d_13">
     <path d="M 66.6 292.884 
L 86.6 292.884 
" style="fill: none; stroke-dasharray: 5.55,2.4; stroke-dashoffset: 0; stroke: #008000; stroke-width: 1.5"/>
    </g>
    <g id="text_17">
     <!-- modes of target $\pi$ -->
     <g style="fill: #262626" transform="translate(94.6 296.384) scale(0.1 -0.1)">
      <defs>
       <path id="ArialMT-6d" d="M 422 0 
L 422 3319 
L 925 3319 
L 925 2853 
Q 1081 3097 1340 3245 
Q 1600 3394 1931 3394 
Q 2300 3394 2536 3241 
Q 2772 3088 2869 2813 
Q 3263 3394 3894 3394 
Q 4388 3394 4653 3120 
Q 4919 2847 4919 2278 
L 4919 0 
L 4359 0 
L 4359 2091 
Q 4359 2428 4304 2576 
Q 4250 2725 4106 2815 
Q 3963 2906 3769 2906 
Q 3419 2906 3187 2673 
Q 2956 2441 2956 1928 
L 2956 0 
L 2394 0 
L 2394 2156 
Q 2394 2531 2256 2718 
Q 2119 2906 1806 2906 
Q 1569 2906 1367 2781 
Q 1166 2656 1075 2415 
Q 984 2175 984 1722 
L 984 0 
L 422 0 
z
" transform="scale(0.015625)"/>
       <path id="ArialMT-6f" d="M 213 1659 
Q 213 2581 725 3025 
Q 1153 3394 1769 3394 
Q 2453 3394 2887 2945 
Q 3322 2497 3322 1706 
Q 3322 1066 3130 698 
Q 2938 331 2570 128 
Q 2203 -75 1769 -75 
Q 1072 -75 642 372 
Q 213 819 213 1659 
z
M 791 1659 
Q 791 1022 1069 705 
Q 1347 388 1769 388 
Q 2188 388 2466 706 
Q 2744 1025 2744 1678 
Q 2744 2294 2464 2611 
Q 2184 2928 1769 2928 
Q 1347 2928 1069 2612 
Q 791 2297 791 1659 
z
" transform="scale(0.015625)"/>
       <path id="ArialMT-64" d="M 2575 0 
L 2575 419 
Q 2259 -75 1647 -75 
Q 1250 -75 917 144 
Q 584 363 401 755 
Q 219 1147 219 1656 
Q 219 2153 384 2558 
Q 550 2963 881 3178 
Q 1213 3394 1622 3394 
Q 1922 3394 2156 3267 
Q 2391 3141 2538 2938 
L 2538 4581 
L 3097 4581 
L 3097 0 
L 2575 0 
z
M 797 1656 
Q 797 1019 1065 703 
Q 1334 388 1700 388 
Q 2069 388 2326 689 
Q 2584 991 2584 1609 
Q 2584 2291 2321 2609 
Q 2059 2928 1675 2928 
Q 1300 2928 1048 2622 
Q 797 2316 797 1656 
z
" transform="scale(0.015625)"/>
       <path id="ArialMT-65" d="M 2694 1069 
L 3275 997 
Q 3138 488 2766 206 
Q 2394 -75 1816 -75 
Q 1088 -75 661 373 
Q 234 822 234 1631 
Q 234 2469 665 2931 
Q 1097 3394 1784 3394 
Q 2450 3394 2872 2941 
Q 3294 2488 3294 1666 
Q 3294 1616 3291 1516 
L 816 1516 
Q 847 969 1125 678 
Q 1403 388 1819 388 
Q 2128 388 2347 550 
Q 2566 713 2694 1069 
z
M 847 1978 
L 2700 1978 
Q 2663 2397 2488 2606 
Q 2219 2931 1791 2931 
Q 1403 2931 1139 2672 
Q 875 2413 847 1978 
z
" transform="scale(0.015625)"/>
       <path id="ArialMT-73" d="M 197 991 
L 753 1078 
Q 800 744 1014 566 
Q 1228 388 1613 388 
Q 2000 388 2187 545 
Q 2375 703 2375 916 
Q 2375 1106 2209 1216 
Q 2094 1291 1634 1406 
Q 1016 1563 777 1677 
Q 538 1791 414 1992 
Q 291 2194 291 2438 
Q 291 2659 392 2848 
Q 494 3038 669 3163 
Q 800 3259 1026 3326 
Q 1253 3394 1513 3394 
Q 1903 3394 2198 3281 
Q 2494 3169 2634 2976 
Q 2775 2784 2828 2463 
L 2278 2388 
Q 2241 2644 2061 2787 
Q 1881 2931 1553 2931 
Q 1166 2931 1000 2803 
Q 834 2675 834 2503 
Q 834 2394 903 2306 
Q 972 2216 1119 2156 
Q 1203 2125 1616 2013 
Q 2213 1853 2448 1751 
Q 2684 1650 2818 1456 
Q 2953 1263 2953 975 
Q 2953 694 2789 445 
Q 2625 197 2315 61 
Q 2006 -75 1616 -75 
Q 969 -75 630 194 
Q 291 463 197 991 
z
" transform="scale(0.015625)"/>
       <path id="ArialMT-66" d="M 556 0 
L 556 2881 
L 59 2881 
L 59 3319 
L 556 3319 
L 556 3672 
Q 556 4006 616 4169 
Q 697 4388 901 4523 
Q 1106 4659 1475 4659 
Q 1713 4659 2000 4603 
L 1916 4113 
Q 1741 4144 1584 4144 
Q 1328 4144 1222 4034 
Q 1116 3925 1116 3625 
L 1116 3319 
L 1763 3319 
L 1763 2881 
L 1116 2881 
L 1116 0 
L 556 0 
z
" transform="scale(0.015625)"/>
       <path id="ArialMT-74" d="M 1650 503 
L 1731 6 
Q 1494 -44 1306 -44 
Q 1000 -44 831 53 
Q 663 150 594 308 
Q 525 466 525 972 
L 525 2881 
L 113 2881 
L 113 3319 
L 525 3319 
L 525 4141 
L 1084 4478 
L 1084 3319 
L 1650 3319 
L 1650 2881 
L 1084 2881 
L 1084 941 
Q 1084 700 1114 631 
Q 1144 563 1211 522 
Q 1278 481 1403 481 
Q 1497 481 1650 503 
z
" transform="scale(0.015625)"/>
       <path id="ArialMT-61" d="M 2588 409 
Q 2275 144 1986 34 
Q 1697 -75 1366 -75 
Q 819 -75 525 192 
Q 231 459 231 875 
Q 231 1119 342 1320 
Q 453 1522 633 1644 
Q 813 1766 1038 1828 
Q 1203 1872 1538 1913 
Q 2219 1994 2541 2106 
Q 2544 2222 2544 2253 
Q 2544 2597 2384 2738 
Q 2169 2928 1744 2928 
Q 1347 2928 1158 2789 
Q 969 2650 878 2297 
L 328 2372 
Q 403 2725 575 2942 
Q 747 3159 1072 3276 
Q 1397 3394 1825 3394 
Q 2250 3394 2515 3294 
Q 2781 3194 2906 3042 
Q 3031 2891 3081 2659 
Q 3109 2516 3109 2141 
L 3109 1391 
Q 3109 606 3145 398 
Q 3181 191 3288 0 
L 2700 0 
Q 2613 175 2588 409 
z
M 2541 1666 
Q 2234 1541 1622 1453 
Q 1275 1403 1131 1340 
Q 988 1278 909 1158 
Q 831 1038 831 891 
Q 831 666 1001 516 
Q 1172 366 1500 366 
Q 1825 366 2078 508 
Q 2331 650 2450 897 
Q 2541 1088 2541 1459 
L 2541 1666 
z
" transform="scale(0.015625)"/>
       <path id="ArialMT-72" d="M 416 0 
L 416 3319 
L 922 3319 
L 922 2816 
Q 1116 3169 1280 3281 
Q 1444 3394 1641 3394 
Q 1925 3394 2219 3213 
L 2025 2691 
Q 1819 2813 1613 2813 
Q 1428 2813 1281 2702 
Q 1134 2591 1072 2394 
Q 978 2094 978 1738 
L 978 0 
L 416 0 
z
" transform="scale(0.015625)"/>
       <path id="ArialMT-67" d="M 319 -275 
L 866 -356 
Q 900 -609 1056 -725 
Q 1266 -881 1628 -881 
Q 2019 -881 2231 -725 
Q 2444 -569 2519 -288 
Q 2563 -116 2559 434 
Q 2191 0 1641 0 
Q 956 0 581 494 
Q 206 988 206 1678 
Q 206 2153 378 2554 
Q 550 2956 876 3175 
Q 1203 3394 1644 3394 
Q 2231 3394 2613 2919 
L 2613 3319 
L 3131 3319 
L 3131 450 
Q 3131 -325 2973 -648 
Q 2816 -972 2473 -1159 
Q 2131 -1347 1631 -1347 
Q 1038 -1347 672 -1080 
Q 306 -813 319 -275 
z
M 784 1719 
Q 784 1066 1043 766 
Q 1303 466 1694 466 
Q 2081 466 2343 764 
Q 2606 1063 2606 1700 
Q 2606 2309 2336 2618 
Q 2066 2928 1684 2928 
Q 1309 2928 1046 2623 
Q 784 2319 784 1719 
z
" transform="scale(0.015625)"/>
       <path id="DejaVuSans-Oblique-3c0" d="M 584 3500 
L 3938 3500 
L 3825 2925 
L 3384 2925 
L 2966 775 
Q 2922 550 2981 450 
Q 3038 353 3209 353 
Q 3256 353 3325 363 
Q 3397 369 3419 372 
L 3338 -44 
Q 3222 -84 3103 -103 
Q 2981 -122 2866 -122 
Q 2491 -122 2388 81 
Q 2284 288 2391 838 
L 2797 2925 
L 1506 2925 
L 938 0 
L 350 0 
L 919 2925 
L 472 2925 
L 584 3500 
z
" transform="scale(0.015625)"/>
      </defs>
      <use xlink:href="#ArialMT-6d" transform="translate(0 0.203125)"/>
      <use xlink:href="#ArialMT-6f" transform="translate(83.300781 0.203125)"/>
      <use xlink:href="#ArialMT-64" transform="translate(138.916016 0.203125)"/>
      <use xlink:href="#ArialMT-65" transform="translate(194.53125 0.203125)"/>
      <use xlink:href="#ArialMT-73" transform="translate(250.146484 0.203125)"/>
      <use xlink:href="#ArialMT-20" transform="translate(300.146484 0.203125)"/>
      <use xlink:href="#ArialMT-6f" transform="translate(327.929688 0.203125)"/>
      <use xlink:href="#ArialMT-66" transform="translate(383.544922 0.203125)"/>
      <use xlink:href="#ArialMT-20" transform="translate(411.328125 0.203125)"/>
      <use xlink:href="#ArialMT-74" transform="translate(439.111328 0.203125)"/>
      <use xlink:href="#ArialMT-61" transform="translate(466.894531 0.203125)"/>
      <use xlink:href="#ArialMT-72" transform="translate(522.509766 0.203125)"/>
      <use xlink:href="#ArialMT-67" transform="translate(555.810547 0.203125)"/>
      <use xlink:href="#ArialMT-65" transform="translate(611.425781 0.203125)"/>
      <use xlink:href="#ArialMT-74" transform="translate(667.041016 0.203125)"/>
      <use xlink:href="#ArialMT-20" transform="translate(694.824219 0.203125)"/>
      <use xlink:href="#DejaVuSans-Oblique-3c0" transform="translate(722.607422 0.203125)"/>
     </g>
    </g>
   </g>
  </g>
 </g>
 <defs>
  <clipPath id="pb1a31f2aa5">
   <rect x="57.6" y="41.472" width="357.12" height="266.112"/>
  </clipPath>
 </defs>
</svg>
