<?xml version="1.0" encoding="utf-8" standalone="no"?>
<!DOCTYPE svg PUBLIC "-//W3C//DTD SVG 1.1//EN"
  "http://www.w3.org/Graphics/SVG/1.1/DTD/svg11.dtd">
<svg xmlns:xlink="http://www.w3.org/1999/xlink" width="460.8pt" height="345.6pt" viewBox="0 0 460.8 345.6" xmlns="http://www.w3.org/2000/svg" version="1.1">
 <metadata>
  <rdf:RDF xmlns:dc="http://purl.org/dc/elements/1.1/" xmlns:cc="http://creativecommons.org/ns#" xmlns:rdf="http://www.w3.org/1999/02/22-rdf-syntax-ns#">
   <cc:Work>
    <dc:type rdf:resource="http://purl.org/dc/dcmitype/StillImage"/>
    <dc:date>2025-04-11T13:54:54.253804</dc:date>
    <dc:format>image/svg+xml</dc:format>
    <dc:creator>
     <cc:Agent>
      <dc:title>Matplotlib v3.10.1, https://matplotlib.org/</dc:title>
     </cc:Agent>
    </dc:creator>
   </cc:Work>
  </rdf:RDF>
 </metadata>
 <defs>
  <style type="text/css">*{stroke-linejoin: round; stroke-linecap: butt}</style>
 </defs>
 <g id="figure_1">
  <g id="patch_1">
   <path d="M 0 345.6 
L 460.8 345.6 
L 460.8 0 
L 0 0 
z
" style="fill: #ffffff"/>
  </g>
  <g id="axes_1">
   <g id="patch_2">
    <path d="M 57.6 307.584 
L 414.72 307.584 
L 414.72 41.472 
L 57.6 41.472 
z
" style="fill: #eaeaf2"/>
   </g>
   <g id="matplotlib.axis_1">
    <g id="xtick_1">
     <g id="line2d_1">
      <path d="M 106.298182 307.584 
L 106.298182 41.472 
" clip-path="url(#p5592e8d148)" style="fill: none; stroke: #ffffff; stroke-width: 0.8; stroke-linecap: round"/>
     </g>
     <g id="text_1">
      <!-- −4 -->
      <g style="fill: #262626" transform="translate(100.597401 321.741812) scale(0.1 -0.1)">
       <defs>
        <path id="ArialMT-2212" d="M 3381 1997 
L 356 1997 
L 356 2522 
L 3381 2522 
L 3381 1997 
z
" transform="scale(0.015625)"/>
        <path id="ArialMT-34" d="M 2069 0 
L 2069 1097 
L 81 1097 
L 81 1613 
L 2172 4581 
L 2631 4581 
L 2631 1613 
L 3250 1613 
L 3250 1097 
L 2631 1097 
L 2631 0 
L 2069 0 
z
M 2069 1613 
L 2069 3678 
L 634 1613 
L 2069 1613 
z
" transform="scale(0.015625)"/>
       </defs>
       <use xlink:href="#ArialMT-2212"/>
       <use xlink:href="#ArialMT-34" transform="translate(58.398438 0)"/>
      </g>
     </g>
    </g>
    <g id="xtick_2">
     <g id="line2d_2">
      <path d="M 171.229091 307.584 
L 171.229091 41.472 
" clip-path="url(#p5592e8d148)" style="fill: none; stroke: #ffffff; stroke-width: 0.8; stroke-linecap: round"/>
     </g>
     <g id="text_2">
      <!-- −2 -->
      <g style="fill: #262626" transform="translate(165.52831 321.741812) scale(0.1 -0.1)">
       <defs>
        <path id="ArialMT-32" d="M 3222 541 
L 3222 0 
L 194 0 
Q 188 203 259 391 
Q 375 700 629 1000 
Q 884 1300 1366 1694 
Q 2113 2306 2375 2664 
Q 2638 3022 2638 3341 
Q 2638 3675 2398 3904 
Q 2159 4134 1775 4134 
Q 1369 4134 1125 3890 
Q 881 3647 878 3216 
L 300 3275 
Q 359 3922 746 4261 
Q 1134 4600 1788 4600 
Q 2447 4600 2831 4234 
Q 3216 3869 3216 3328 
Q 3216 3053 3103 2787 
Q 2991 2522 2730 2228 
Q 2469 1934 1863 1422 
Q 1356 997 1212 845 
Q 1069 694 975 541 
L 3222 541 
z
" transform="scale(0.015625)"/>
       </defs>
       <use xlink:href="#ArialMT-2212"/>
       <use xlink:href="#ArialMT-32" transform="translate(58.398438 0)"/>
      </g>
     </g>
    </g>
    <g id="xtick_3">
     <g id="line2d_3">
      <path d="M 236.16 307.584 
L 236.16 41.472 
" clip-path="url(#p5592e8d148)" style="fill: none; stroke: #ffffff; stroke-width: 0.8; stroke-linecap: round"/>
     </g>
     <g id="text_3">
      <!-- 0 -->
      <g style="fill: #262626" transform="translate(233.379531 321.741812) scale(0.1 -0.1)">
       <defs>
        <path id="ArialMT-30" d="M 266 2259 
Q 266 3072 433 3567 
Q 600 4063 929 4331 
Q 1259 4600 1759 4600 
Q 2128 4600 2406 4451 
Q 2684 4303 2865 4023 
Q 3047 3744 3150 3342 
Q 3253 2941 3253 2259 
Q 3253 1453 3087 958 
Q 2922 463 2592 192 
Q 2263 -78 1759 -78 
Q 1097 -78 719 397 
Q 266 969 266 2259 
z
M 844 2259 
Q 844 1131 1108 757 
Q 1372 384 1759 384 
Q 2147 384 2411 759 
Q 2675 1134 2675 2259 
Q 2675 3391 2411 3762 
Q 2147 4134 1753 4134 
Q 1366 4134 1134 3806 
Q 844 3388 844 2259 
z
" transform="scale(0.015625)"/>
       </defs>
       <use xlink:href="#ArialMT-30"/>
      </g>
     </g>
    </g>
    <g id="xtick_4">
     <g id="line2d_4">
      <path d="M 301.090909 307.584 
L 301.090909 41.472 
" clip-path="url(#p5592e8d148)" style="fill: none; stroke: #ffffff; stroke-width: 0.8; stroke-linecap: round"/>
     </g>
     <g id="text_4">
      <!-- 2 -->
      <g style="fill: #262626" transform="translate(298.31044 321.741812) scale(0.1 -0.1)">
       <use xlink:href="#ArialMT-32"/>
      </g>
     </g>
    </g>
    <g id="xtick_5">
     <g id="line2d_5">
      <path d="M 366.021818 307.584 
L 366.021818 41.472 
" clip-path="url(#p5592e8d148)" style="fill: none; stroke: #ffffff; stroke-width: 0.8; stroke-linecap: round"/>
     </g>
     <g id="text_5">
      <!-- 4 -->
      <g style="fill: #262626" transform="translate(363.241349 321.741812) scale(0.1 -0.1)">
       <use xlink:href="#ArialMT-34"/>
      </g>
     </g>
    </g>
    <g id="text_6">
     <!-- x -->
     <g style="fill: #262626" transform="translate(233.66 334.887125) scale(0.1 -0.1)">
      <defs>
       <path id="ArialMT-78" d="M 47 0 
L 1259 1725 
L 138 3319 
L 841 3319 
L 1350 2541 
Q 1494 2319 1581 2169 
Q 1719 2375 1834 2534 
L 2394 3319 
L 3066 3319 
L 1919 1756 
L 3153 0 
L 2463 0 
L 1781 1031 
L 1600 1309 
L 728 0 
L 47 0 
z
" transform="scale(0.015625)"/>
      </defs>
      <use xlink:href="#ArialMT-78"/>
     </g>
    </g>
   </g>
   <g id="matplotlib.axis_2">
    <g id="ytick_1">
     <g id="line2d_6">
      <path d="M 57.6 297.76496 
L 414.72 297.76496 
" clip-path="url(#p5592e8d148)" style="fill: none; stroke: #ffffff; stroke-width: 0.8; stroke-linecap: round"/>
     </g>
     <g id="text_7">
      <!-- 0 -->
      <g style="fill: #262626" transform="translate(45.039062 301.343867) scale(0.1 -0.1)">
       <use xlink:href="#ArialMT-30"/>
      </g>
     </g>
    </g>
    <g id="ytick_2">
     <g id="line2d_7">
      <path d="M 57.6 248.942377 
L 414.72 248.942377 
" clip-path="url(#p5592e8d148)" style="fill: none; stroke: #ffffff; stroke-width: 0.8; stroke-linecap: round"/>
     </g>
     <g id="text_8">
      <!-- 1 -->
      <g style="fill: #262626" transform="translate(45.039062 252.521283) scale(0.1 -0.1)">
       <defs>
        <path id="ArialMT-31" d="M 2384 0 
L 1822 0 
L 1822 3584 
Q 1619 3391 1289 3197 
Q 959 3003 697 2906 
L 697 3450 
Q 1169 3672 1522 3987 
Q 1875 4303 2022 4600 
L 2384 4600 
L 2384 0 
z
" transform="scale(0.015625)"/>
       </defs>
       <use xlink:href="#ArialMT-31"/>
      </g>
     </g>
    </g>
    <g id="ytick_3">
     <g id="line2d_8">
      <path d="M 57.6 200.119793 
L 414.72 200.119793 
" clip-path="url(#p5592e8d148)" style="fill: none; stroke: #ffffff; stroke-width: 0.8; stroke-linecap: round"/>
     </g>
     <g id="text_9">
      <!-- 2 -->
      <g style="fill: #262626" transform="translate(45.039062 203.698699) scale(0.1 -0.1)">
       <use xlink:href="#ArialMT-32"/>
      </g>
     </g>
    </g>
    <g id="ytick_4">
     <g id="line2d_9">
      <path d="M 57.6 151.29721 
L 414.72 151.29721 
" clip-path="url(#p5592e8d148)" style="fill: none; stroke: #ffffff; stroke-width: 0.8; stroke-linecap: round"/>
     </g>
     <g id="text_10">
      <!-- 3 -->
      <g style="fill: #262626" transform="translate(45.039062 154.876116) scale(0.1 -0.1)">
       <defs>
        <path id="ArialMT-33" d="M 269 1209 
L 831 1284 
Q 928 806 1161 595 
Q 1394 384 1728 384 
Q 2125 384 2398 659 
Q 2672 934 2672 1341 
Q 2672 1728 2419 1979 
Q 2166 2231 1775 2231 
Q 1616 2231 1378 2169 
L 1441 2663 
Q 1497 2656 1531 2656 
Q 1891 2656 2178 2843 
Q 2466 3031 2466 3422 
Q 2466 3731 2256 3934 
Q 2047 4138 1716 4138 
Q 1388 4138 1169 3931 
Q 950 3725 888 3313 
L 325 3413 
Q 428 3978 793 4289 
Q 1159 4600 1703 4600 
Q 2078 4600 2393 4439 
Q 2709 4278 2876 4000 
Q 3044 3722 3044 3409 
Q 3044 3113 2884 2869 
Q 2725 2625 2413 2481 
Q 2819 2388 3044 2092 
Q 3269 1797 3269 1353 
Q 3269 753 2831 336 
Q 2394 -81 1725 -81 
Q 1122 -81 723 278 
Q 325 638 269 1209 
z
" transform="scale(0.015625)"/>
       </defs>
       <use xlink:href="#ArialMT-33"/>
      </g>
     </g>
    </g>
    <g id="ytick_5">
     <g id="line2d_10">
      <path d="M 57.6 102.474626 
L 414.72 102.474626 
" clip-path="url(#p5592e8d148)" style="fill: none; stroke: #ffffff; stroke-width: 0.8; stroke-linecap: round"/>
     </g>
     <g id="text_11">
      <!-- 4 -->
      <g style="fill: #262626" transform="translate(45.039062 106.053532) scale(0.1 -0.1)">
       <use xlink:href="#ArialMT-34"/>
      </g>
     </g>
    </g>
    <g id="ytick_6">
     <g id="line2d_11">
      <path d="M 57.6 53.652042 
L 414.72 53.652042 
" clip-path="url(#p5592e8d148)" style="fill: none; stroke: #ffffff; stroke-width: 0.8; stroke-linecap: round"/>
     </g>
     <g id="text_12">
      <!-- 5 -->
      <g style="fill: #262626" transform="translate(45.039062 57.230949) scale(0.1 -0.1)">
       <defs>
        <path id="ArialMT-35" d="M 266 1200 
L 856 1250 
Q 922 819 1161 601 
Q 1400 384 1738 384 
Q 2144 384 2425 690 
Q 2706 997 2706 1503 
Q 2706 1984 2436 2262 
Q 2166 2541 1728 2541 
Q 1456 2541 1237 2417 
Q 1019 2294 894 2097 
L 366 2166 
L 809 4519 
L 3088 4519 
L 3088 3981 
L 1259 3981 
L 1013 2750 
Q 1425 3038 1878 3038 
Q 2478 3038 2890 2622 
Q 3303 2206 3303 1553 
Q 3303 931 2941 478 
Q 2500 -78 1738 -78 
Q 1113 -78 717 272 
Q 322 622 266 1200 
z
" transform="scale(0.015625)"/>
       </defs>
       <use xlink:href="#ArialMT-35"/>
      </g>
     </g>
    </g>
    <g id="text_13">
     <!-- $\mathcal{W}(\delta_x P_{\mu, \sigma}, \pi)$ -->
     <g style="fill: #262626" transform="translate(37.939062 203.478) rotate(-90) scale(0.1 -0.1)">
      <defs>
       <path id="STIXNonUnicode-Italic-e243" d="M 4634 736 
L 4672 717 
Q 4742 794 4931 1008 
Q 5120 1222 5248 1369 
Q 5376 1517 5545 1757 
Q 5715 1997 5837 2234 
Q 6131 2803 6131 3245 
Q 6131 3936 5741 3936 
Q 5696 3936 5661 3885 
Q 5626 3834 5606 3776 
Q 5587 3718 5529 3667 
Q 5472 3616 5382 3616 
Q 5229 3616 5145 3715 
Q 5062 3814 5062 3962 
Q 5062 4173 5209 4278 
Q 5357 4384 5594 4384 
Q 5965 4384 6176 4073 
Q 6387 3763 6387 3290 
Q 6387 2906 6236 2506 
Q 6086 2106 5814 1718 
Q 5542 1331 5289 1027 
Q 5037 723 4697 352 
Q 4358 -19 4211 -205 
L 4045 -205 
L 4045 230 
Q 4045 1306 3936 2099 
Q 3827 2893 3475 3373 
L 3430 3373 
L 1363 -205 
L 1171 -205 
Q 1459 1581 1459 2624 
Q 1459 4006 602 4006 
Q 448 4006 307 3891 
L 211 4013 
Q 486 4237 915 4237 
Q 1184 4237 1389 4157 
Q 1594 4077 1722 3923 
Q 1850 3770 1933 3590 
Q 2016 3411 2054 3155 
Q 2093 2899 2105 2684 
Q 2118 2470 2118 2182 
Q 2118 1920 2099 1658 
L 2138 1658 
L 3398 3846 
L 3686 4160 
Q 4077 3738 4365 2950 
Q 4653 2163 4653 1395 
Q 4653 966 4634 736 
z
" transform="scale(0.015625)"/>
       <path id="DejaVuSans-28" d="M 1984 4856 
Q 1566 4138 1362 3434 
Q 1159 2731 1159 2009 
Q 1159 1288 1364 580 
Q 1569 -128 1984 -844 
L 1484 -844 
Q 1016 -109 783 600 
Q 550 1309 550 2009 
Q 550 2706 781 3412 
Q 1013 4119 1484 4856 
L 1984 4856 
z
" transform="scale(0.015625)"/>
       <path id="DejaVuSans-Oblique-3b4" d="M 3472 4053 
Q 3197 4272 2450 4272 
Q 1659 4272 1588 3906 
Q 1531 3619 2328 3469 
Q 2953 3353 3253 3003 
Q 3616 2581 3447 1716 
Q 3284 888 2763 400 
Q 2238 -91 1488 -91 
Q 741 -91 406 400 
Q 72 888 241 1747 
Q 363 2384 891 2900 
Q 1097 3100 1353 3213 
Q 913 3459 1000 3900 
Q 1166 4750 2544 4750 
Q 3234 4750 3566 4531 
L 3472 4053 
z
M 1753 3056 
Q 1525 2966 1306 2738 
Q 969 2384 847 1747 
Q 722 1113 919 756 
Q 1119 397 1584 397 
Q 2044 397 2381 759 
Q 2722 1122 2838 1716 
Q 2956 2338 2731 2638 
Q 2491 2959 2103 2994 
Q 1906 3013 1753 3056 
z
" transform="scale(0.015625)"/>
       <path id="DejaVuSans-Oblique-78" d="M 3841 3500 
L 2234 1784 
L 3219 0 
L 2559 0 
L 1819 1388 
L 531 0 
L -166 0 
L 1556 1844 
L 641 3500 
L 1300 3500 
L 1972 2234 
L 3144 3500 
L 3841 3500 
z
" transform="scale(0.015625)"/>
       <path id="DejaVuSans-Oblique-50" d="M 1081 4666 
L 2541 4666 
Q 3178 4666 3512 4369 
Q 3847 4072 3847 3500 
Q 3847 2731 3353 2303 
Q 2859 1875 1966 1875 
L 1172 1875 
L 806 0 
L 172 0 
L 1081 4666 
z
M 1613 4147 
L 1275 2394 
L 2069 2394 
Q 2606 2394 2893 2669 
Q 3181 2944 3181 3456 
Q 3181 3784 2986 3965 
Q 2791 4147 2438 4147 
L 1613 4147 
z
" transform="scale(0.015625)"/>
       <path id="DejaVuSans-Oblique-3bc" d="M -84 -1331 
L 856 3500 
L 1434 3500 
L 1009 1322 
Q 997 1256 987 1175 
Q 978 1094 978 1013 
Q 978 722 1161 565 
Q 1344 409 1684 409 
Q 2147 409 2431 671 
Q 2716 934 2816 1459 
L 3213 3500 
L 3788 3500 
L 3266 809 
Q 3253 750 3248 706 
Q 3244 663 3244 628 
Q 3244 531 3283 486 
Q 3322 441 3406 441 
Q 3438 441 3492 456 
Q 3547 472 3647 513 
L 3559 50 
Q 3422 -19 3297 -55 
Q 3172 -91 3053 -91 
Q 2847 -91 2730 40 
Q 2613 172 2613 403 
Q 2438 153 2195 31 
Q 1953 -91 1625 -91 
Q 1334 -91 1117 43 
Q 900 178 831 397 
L 494 -1331 
L -84 -1331 
z
" transform="scale(0.015625)"/>
       <path id="DejaVuSans-2c" d="M 750 794 
L 1409 794 
L 1409 256 
L 897 -744 
L 494 -744 
L 750 256 
L 750 794 
z
" transform="scale(0.015625)"/>
       <path id="DejaVuSans-Oblique-3c3" d="M 2219 3044 
Q 1744 3044 1422 2700 
Q 1081 2341 969 1747 
Q 844 1119 1044 756 
Q 1241 397 1706 397 
Q 2166 397 2503 759 
Q 2844 1122 2966 1747 
Q 3075 2319 2881 2700 
Q 2700 3044 2219 3044 
z
M 2309 3503 
L 4219 3500 
L 4106 2925 
L 3463 2925 
Q 3706 2438 3575 1747 
Q 3406 888 2884 400 
Q 2359 -91 1609 -91 
Q 856 -91 525 400 
Q 194 888 363 1747 
Q 528 2609 1050 3097 
Q 1484 3503 2309 3503 
z
" transform="scale(0.015625)"/>
       <path id="DejaVuSans-Oblique-3c0" d="M 584 3500 
L 3938 3500 
L 3825 2925 
L 3384 2925 
L 2966 775 
Q 2922 550 2981 450 
Q 3038 353 3209 353 
Q 3256 353 3325 363 
Q 3397 369 3419 372 
L 3338 -44 
Q 3222 -84 3103 -103 
Q 2981 -122 2866 -122 
Q 2491 -122 2388 81 
Q 2284 288 2391 838 
L 2797 2925 
L 1506 2925 
L 938 0 
L 350 0 
L 919 2925 
L 472 2925 
L 584 3500 
z
" transform="scale(0.015625)"/>
       <path id="DejaVuSans-29" d="M 513 4856 
L 1013 4856 
Q 1481 4119 1714 3412 
Q 1947 2706 1947 2009 
Q 1947 1309 1714 600 
Q 1481 -109 1013 -844 
L 513 -844 
Q 928 -128 1133 580 
Q 1338 1288 1338 2009 
Q 1338 2731 1133 3434 
Q 928 4138 513 4856 
z
" transform="scale(0.015625)"/>
      </defs>
      <use xlink:href="#STIXNonUnicode-Italic-e243" transform="translate(0 0.125)"/>
      <use xlink:href="#DejaVuSans-28" transform="translate(95.599991 0.125)"/>
      <use xlink:href="#DejaVuSans-Oblique-3b4" transform="translate(134.613663 0.125)"/>
      <use xlink:href="#DejaVuSans-Oblique-78" transform="translate(195.795303 -16.28125) scale(0.7)"/>
      <use xlink:href="#DejaVuSans-Oblique-50" transform="translate(239.95546 0.125)"/>
      <use xlink:href="#DejaVuSans-Oblique-3bc" transform="translate(300.258194 -16.28125) scale(0.7)"/>
      <use xlink:href="#DejaVuSans-2c" transform="translate(344.794327 -16.28125) scale(0.7)"/>
      <use xlink:href="#DejaVuSans-Oblique-3c3" transform="translate(380.682999 -16.28125) scale(0.7)"/>
      <use xlink:href="#DejaVuSans-2c" transform="translate(427.782608 0.125)"/>
      <use xlink:href="#DejaVuSans-Oblique-3c0" transform="translate(479.052139 0.125)"/>
      <use xlink:href="#DejaVuSans-29" transform="translate(539.257217 0.125)"/>
     </g>
    </g>
   </g>
   <g id="line2d_12">
    <path d="M 73.832727 53.736108 
L 77.112073 58.667646 
L 80.391404 63.599254 
L 83.670734 68.530793 
L 86.95008 73.462401 
L 90.229426 78.393986 
L 93.508757 83.325548 
L 96.788103 88.257109 
L 100.067434 93.188578 
L 103.34678 98.120046 
L 106.62611 103.051445 
L 109.905456 107.982716 
L 113.184795 112.913905 
L 116.464133 117.844954 
L 119.743479 122.775701 
L 123.022809 127.706052 
L 126.302148 132.635775 
L 129.581486 137.563995 
L 132.860824 142.490703 
L 136.140163 147.415257 
L 139.419493 152.336483 
L 142.698847 157.253017 
L 145.978178 162.163195 
L 149.257516 167.064737 
L 152.536862 171.954324 
L 155.816192 176.829058 
L 159.095538 181.683759 
L 162.374869 186.514703 
L 165.654215 191.31416 
L 168.933553 196.07787 
L 172.212892 200.791916 
L 175.492234 205.446377 
L 178.771564 210.030065 
L 182.050914 214.527453 
L 185.330245 218.922977 
L 188.609583 223.203379 
L 191.888925 227.34595 
L 195.168256 231.332303 
L 198.447606 235.138454 
L 201.726936 238.743334 
L 205.006277 242.121557 
L 208.285621 245.245713 
L 211.564957 248.106167 
L 214.844301 250.670512 
L 218.123628 252.912271 
L 221.402982 254.817526 
L 224.682308 256.365878 
L 227.961652 257.531819 
L 231.240996 258.313381 
L 234.520323 258.702164 
L 237.799667 258.689307 
L 241.079004 258.281548 
L 244.358348 257.48704 
L 247.637684 256.306347 
L 250.917028 254.751127 
L 254.196364 252.843675 
L 257.475699 250.595761 
L 260.755035 248.031117 
L 264.034379 245.173288 
L 267.313716 242.036653 
L 270.59306 238.646639 
L 273.872394 235.026894 
L 277.151733 231.20557 
L 280.431067 227.209212 
L 283.710409 223.05641 
L 286.989755 218.766439 
L 290.269093 214.359304 
L 293.548424 209.852773 
L 296.827762 205.262485 
L 300.107108 200.600086 
L 303.386439 195.879963 
L 306.665785 191.114274 
L 309.945123 186.312454 
L 313.224462 181.48179 
L 316.503792 176.628346 
L 319.783138 171.756463 
L 323.062476 166.869391 
L 326.341815 161.971877 
L 329.621153 157.066436 
L 332.900491 152.153929 
L 336.179822 147.236056 
L 339.459168 142.314435 
L 342.738514 137.390265 
L 346.01786 132.463395 
L 349.297191 127.535092 
L 352.576521 122.60587 
L 355.855867 117.675647 
L 359.135213 112.744877 
L 362.414536 107.814002 
L 365.693882 102.882941 
L 368.97322 97.951659 
L 372.252566 93.020237 
L 375.531881 88.088838 
L 378.811227 83.157347 
L 382.090574 78.225855 
L 385.36992 73.294316 
L 388.649266 68.362685 
L 391.928581 63.43117 
L 395.207927 58.499608 
L 398.487273 53.568 
" clip-path="url(#p5592e8d148)" style="fill: none; stroke-dasharray: 5.55,2.4; stroke-dashoffset: 0; stroke: #808080; stroke-width: 1.5"/>
   </g>
   <g id="line2d_13">
    <path d="M 73.832727 270.678969 
L 77.112073 270.701374 
L 80.391404 270.670091 
L 83.670734 270.695376 
L 86.95008 270.828916 
L 90.229426 270.767752 
L 93.508757 270.739082 
L 96.788103 270.855534 
L 100.067434 270.701577 
L 103.34678 270.751374 
L 106.62611 270.713416 
L 109.905456 270.819854 
L 113.184795 271.163775 
L 116.464133 272.365028 
L 119.743479 274.12915 
L 123.022809 276.111808 
L 126.302148 278.29715 
L 129.581486 280.503904 
L 132.860824 282.835176 
L 136.140163 285.004947 
L 139.419493 287.064654 
L 142.698847 288.85984 
L 145.978178 290.458828 
L 149.257516 291.84496 
L 152.536862 292.784041 
L 155.816192 292.723573 
L 159.095538 291.737002 
L 162.374869 290.230045 
L 165.654215 288.535716 
L 168.933553 286.860422 
L 172.212892 284.89904 
L 175.492234 283.098882 
L 178.771564 281.565285 
L 182.050914 280.260215 
L 185.330245 279.252219 
L 188.609583 278.427194 
L 191.888925 278.622404 
L 195.168256 279.230901 
L 198.447606 280.320255 
L 201.726936 281.972887 
L 205.006277 284.160225 
L 208.285621 286.518039 
L 211.564957 288.920337 
L 214.844301 291.218805 
L 218.123628 292.770673 
L 221.402982 291.491081 
L 224.682308 288.127958 
L 227.961652 283.09744 
L 231.240996 276.44712 
L 234.520323 270.264589 
L 237.799667 270.339107 
L 241.079004 276.465846 
L 244.358348 283.112938 
L 247.637684 288.063925 
L 250.917028 291.449808 
L 254.196364 292.520069 
L 257.475699 290.978049 
L 260.755035 289.021369 
L 264.034379 286.430109 
L 267.313716 284.21449 
L 270.59306 282.135147 
L 273.872394 280.356289 
L 277.151733 279.046468 
L 280.431067 278.622041 
L 283.710409 278.279826 
L 286.989755 278.976084 
L 290.269093 280.247115 
L 293.548424 281.614492 
L 296.827762 283.111103 
L 300.107108 284.615545 
L 303.386439 286.931398 
L 306.665785 288.550115 
L 309.945123 289.939656 
L 313.224462 291.421563 
L 316.503792 292.553578 
L 319.783138 292.542143 
L 323.062476 291.762601 
L 326.341815 290.534483 
L 329.621153 288.912614 
L 332.900491 287.093384 
L 336.179822 285.024085 
L 339.459168 282.812297 
L 342.738514 280.361889 
L 346.01786 278.180045 
L 349.297191 276.189898 
L 352.576521 274.070444 
L 355.855867 272.491842 
L 359.135213 271.121684 
L 362.414536 270.86175 
L 365.693882 270.900485 
L 368.97322 270.84362 
L 372.252566 270.694829 
L 375.531881 270.721273 
L 378.811227 270.755347 
L 382.090574 270.746843 
L 385.36992 270.782166 
L 388.649266 270.686058 
L 391.928581 270.733326 
L 395.207927 270.629923 
L 398.487273 270.703146 
" clip-path="url(#p5592e8d148)" style="fill: none; stroke: #ffa500; stroke-width: 1.5; stroke-linecap: round"/>
   </g>
   <g id="line2d_14">
    <path d="M 73.832727 272.306684 
L 77.112073 272.811907 
L 80.391404 273.308993 
L 83.670734 273.754322 
L 86.95008 274.304828 
L 90.229426 274.844131 
L 93.508757 275.467476 
L 96.788103 276.089128 
L 100.067434 276.832273 
L 103.34678 277.485701 
L 106.62611 277.574732 
L 109.905456 278.726965 
L 113.184795 278.953636 
L 116.464133 279.60312 
L 119.743479 280.389463 
L 123.022809 280.808829 
L 126.302148 281.484353 
L 129.581486 281.854878 
L 132.860824 282.693339 
L 136.140163 283.299455 
L 139.419493 284.083956 
L 142.698847 284.451607 
L 145.978178 284.932977 
L 149.257516 286.111706 
L 152.536862 286.465666 
L 155.816192 287.154496 
L 159.095538 287.578086 
L 162.374869 288.146957 
L 165.654215 288.856936 
L 168.933553 289.396384 
L 172.212892 289.661046 
L 175.492234 290.430392 
L 178.771564 290.7597 
L 182.050914 290.585437 
L 185.330245 291.051968 
L 188.609583 290.995727 
L 191.888925 291.996061 
L 195.168256 292.798676 
L 198.447606 293.571413 
L 201.726936 293.931971 
L 205.006277 294.3513 
L 208.285621 293.625615 
L 211.564957 293.161102 
L 214.844301 292.694809 
L 218.123628 292.236139 
L 221.402982 292.378488 
L 224.682308 292.7803 
L 227.961652 293.219708 
L 231.240996 293.601048 
L 234.520323 293.819041 
L 237.799667 293.760159 
L 241.079004 293.768532 
L 244.358348 293.338244 
L 247.637684 292.92384 
L 250.917028 292.701944 
L 254.196364 292.920145 
L 257.475699 292.994108 
L 260.755035 293.628212 
L 264.034379 294.026705 
L 267.313716 294.168663 
L 270.59306 294.167103 
L 273.872394 293.656277 
L 277.151733 292.749395 
L 280.431067 292.210033 
L 283.710409 291.363236 
L 286.989755 290.980807 
L 290.269093 290.823286 
L 293.548424 290.455348 
L 296.827762 290.337965 
L 300.107108 289.823816 
L 303.386439 289.287602 
L 306.665785 288.887422 
L 309.945123 288.380923 
L 313.224462 287.666563 
L 316.503792 287.205009 
L 319.783138 286.593693 
L 323.062476 285.892743 
L 326.341815 285.164547 
L 329.621153 284.512017 
L 332.900491 283.782799 
L 336.179822 283.382412 
L 339.459168 282.487179 
L 342.738514 282.374097 
L 346.01786 281.684671 
L 349.297191 280.877309 
L 352.576521 280.595541 
L 355.855867 279.556139 
L 359.135213 279.045425 
L 362.414536 278.581958 
L 365.693882 277.850233 
L 368.97322 277.160517 
L 372.252566 276.955374 
L 375.531881 276.463098 
L 378.811227 275.866492 
L 382.090574 274.962437 
L 385.36992 274.506374 
L 388.649266 273.972126 
L 391.928581 272.935386 
L 395.207927 273.058022 
L 398.487273 272.523815 
" clip-path="url(#p5592e8d148)" style="fill: none; stroke: #0000ff; stroke-width: 1.5; stroke-linecap: round"/>
   </g>
   <g id="line2d_15">
    <path d="M 73.832727 215.273707 
L 77.112073 217.505804 
L 80.391404 219.164697 
L 83.670734 221.724141 
L 86.95008 223.695458 
L 90.229426 225.695979 
L 93.508757 227.846834 
L 96.788103 230.054586 
L 100.067434 232.210458 
L 103.34678 233.920847 
L 106.62611 236.507733 
L 109.905456 238.83471 
L 113.184795 240.640456 
L 116.464133 242.927013 
L 119.743479 245.066798 
L 123.022809 247.097089 
L 126.302148 249.219484 
L 129.581486 251.491711 
L 132.860824 253.386851 
L 136.140163 255.720454 
L 139.419493 257.678995 
L 142.698847 260.137964 
L 145.978178 261.944492 
L 149.257516 264.169225 
L 152.536862 266.149193 
L 155.816192 268.41897 
L 159.095538 270.314712 
L 162.374869 272.737456 
L 165.654215 274.714788 
L 168.933553 276.805655 
L 172.212892 278.595711 
L 175.492234 280.620582 
L 178.771564 282.718568 
L 182.050914 284.694982 
L 185.330245 286.533826 
L 188.609583 288.35506 
L 191.888925 290.188753 
L 195.168256 291.851118 
L 198.447606 293.37449 
L 201.726936 294.705038 
L 205.006277 295.141424 
L 208.285621 295.443248 
L 211.564957 295.129965 
L 214.844301 294.126259 
L 218.123628 293.065804 
L 221.402982 292.056266 
L 224.682308 291.119289 
L 227.961652 290.351701 
L 231.240996 289.65725 
L 234.520323 289.524589 
L 237.799667 289.534636 
L 241.079004 289.861184 
L 244.358348 290.302343 
L 247.637684 291.013653 
L 250.917028 291.959109 
L 254.196364 293.051216 
L 257.475699 294.290445 
L 260.755035 295.189807 
L 264.034379 295.488 
L 267.313716 295.249074 
L 270.59306 294.551191 
L 273.872394 293.488288 
L 277.151733 291.826064 
L 280.431067 290.158747 
L 283.710409 288.346909 
L 286.989755 286.459787 
L 290.269093 284.741929 
L 293.548424 282.60836 
L 296.827762 280.719572 
L 300.107108 278.655198 
L 303.386439 276.795232 
L 306.665785 274.74037 
L 309.945123 272.60032 
L 313.224462 270.391305 
L 316.503792 268.398611 
L 319.783138 266.391644 
L 323.062476 264.180266 
L 326.341815 262.086288 
L 329.621153 259.745823 
L 332.900491 257.813789 
L 336.179822 255.591728 
L 339.459168 253.60807 
L 342.738514 251.504373 
L 346.01786 249.360615 
L 349.297191 247.538829 
L 352.576521 245.143361 
L 355.855867 242.561853 
L 359.135213 240.714569 
L 362.414536 238.683463 
L 365.693882 236.471695 
L 368.97322 234.536469 
L 372.252566 232.125211 
L 375.531881 229.978861 
L 378.811227 227.480627 
L 382.090574 225.656274 
L 385.36992 223.484333 
L 388.649266 221.350508 
L 391.928581 219.596398 
L 395.207927 217.520576 
L 398.487273 215.017541 
" clip-path="url(#p5592e8d148)" style="fill: none; stroke: #ff0000; stroke-width: 1.5; stroke-linecap: round"/>
   </g>
   <g id="patch_3">
    <path d="M 57.6 307.584 
L 57.6 41.472 
" style="fill: none; stroke: #ffffff; stroke-width: 0.8; stroke-linejoin: miter; stroke-linecap: square"/>
   </g>
   <g id="patch_4">
    <path d="M 414.72 307.584 
L 414.72 41.472 
" style="fill: none; stroke: #ffffff; stroke-width: 0.8; stroke-linejoin: miter; stroke-linecap: square"/>
   </g>
   <g id="patch_5">
    <path d="M 57.6 307.584 
L 414.72 307.584 
" style="fill: none; stroke: #ffffff; stroke-width: 0.8; stroke-linejoin: miter; stroke-linecap: square"/>
   </g>
   <g id="patch_6">
    <path d="M 57.6 41.472 
L 414.72 41.472 
" style="fill: none; stroke: #ffffff; stroke-width: 0.8; stroke-linejoin: miter; stroke-linecap: square"/>
   </g>
   <g id="legend_1">
    <g id="patch_7">
     <path d="M 311.02 205.05925 
L 407.72 205.05925 
Q 409.72 205.05925 409.72 203.05925 
L 409.72 145.99675 
Q 409.72 143.99675 407.72 143.99675 
L 311.02 143.99675 
Q 309.02 143.99675 309.02 145.99675 
L 309.02 203.05925 
Q 309.02 205.05925 311.02 205.05925 
z
" style="fill: #eaeaf2; opacity: 0.8; stroke: #cccccc; stroke-linejoin: miter"/>
    </g>
    <g id="line2d_16">
     <path d="M 313.02 151.654562 
L 323.02 151.654562 
L 333.02 151.654562 
" style="fill: none; stroke-dasharray: 5.55,2.4; stroke-dashoffset: 0; stroke: #808080; stroke-width: 1.5"/>
    </g>
    <g id="text_14">
     <!-- eccentricity -->
     <g style="fill: #262626" transform="translate(341.02 155.154562) scale(0.1 -0.1)">
      <defs>
       <path id="ArialMT-65" d="M 2694 1069 
L 3275 997 
Q 3138 488 2766 206 
Q 2394 -75 1816 -75 
Q 1088 -75 661 373 
Q 234 822 234 1631 
Q 234 2469 665 2931 
Q 1097 3394 1784 3394 
Q 2450 3394 2872 2941 
Q 3294 2488 3294 1666 
Q 3294 1616 3291 1516 
L 816 1516 
Q 847 969 1125 678 
Q 1403 388 1819 388 
Q 2128 388 2347 550 
Q 2566 713 2694 1069 
z
M 847 1978 
L 2700 1978 
Q 2663 2397 2488 2606 
Q 2219 2931 1791 2931 
Q 1403 2931 1139 2672 
Q 875 2413 847 1978 
z
" transform="scale(0.015625)"/>
       <path id="ArialMT-63" d="M 2588 1216 
L 3141 1144 
Q 3050 572 2676 248 
Q 2303 -75 1759 -75 
Q 1078 -75 664 370 
Q 250 816 250 1647 
Q 250 2184 428 2587 
Q 606 2991 970 3192 
Q 1334 3394 1763 3394 
Q 2303 3394 2647 3120 
Q 2991 2847 3088 2344 
L 2541 2259 
Q 2463 2594 2264 2762 
Q 2066 2931 1784 2931 
Q 1359 2931 1093 2626 
Q 828 2322 828 1663 
Q 828 994 1084 691 
Q 1341 388 1753 388 
Q 2084 388 2306 591 
Q 2528 794 2588 1216 
z
" transform="scale(0.015625)"/>
       <path id="ArialMT-6e" d="M 422 0 
L 422 3319 
L 928 3319 
L 928 2847 
Q 1294 3394 1984 3394 
Q 2284 3394 2536 3286 
Q 2788 3178 2913 3003 
Q 3038 2828 3088 2588 
Q 3119 2431 3119 2041 
L 3119 0 
L 2556 0 
L 2556 2019 
Q 2556 2363 2490 2533 
Q 2425 2703 2258 2804 
Q 2091 2906 1866 2906 
Q 1506 2906 1245 2678 
Q 984 2450 984 1813 
L 984 0 
L 422 0 
z
" transform="scale(0.015625)"/>
       <path id="ArialMT-74" d="M 1650 503 
L 1731 6 
Q 1494 -44 1306 -44 
Q 1000 -44 831 53 
Q 663 150 594 308 
Q 525 466 525 972 
L 525 2881 
L 113 2881 
L 113 3319 
L 525 3319 
L 525 4141 
L 1084 4478 
L 1084 3319 
L 1650 3319 
L 1650 2881 
L 1084 2881 
L 1084 941 
Q 1084 700 1114 631 
Q 1144 563 1211 522 
Q 1278 481 1403 481 
Q 1497 481 1650 503 
z
" transform="scale(0.015625)"/>
       <path id="ArialMT-72" d="M 416 0 
L 416 3319 
L 922 3319 
L 922 2816 
Q 1116 3169 1280 3281 
Q 1444 3394 1641 3394 
Q 1925 3394 2219 3213 
L 2025 2691 
Q 1819 2813 1613 2813 
Q 1428 2813 1281 2702 
Q 1134 2591 1072 2394 
Q 978 2094 978 1738 
L 978 0 
L 416 0 
z
" transform="scale(0.015625)"/>
       <path id="ArialMT-69" d="M 425 3934 
L 425 4581 
L 988 4581 
L 988 3934 
L 425 3934 
z
M 425 0 
L 425 3319 
L 988 3319 
L 988 0 
L 425 0 
z
" transform="scale(0.015625)"/>
       <path id="ArialMT-79" d="M 397 -1278 
L 334 -750 
Q 519 -800 656 -800 
Q 844 -800 956 -737 
Q 1069 -675 1141 -563 
Q 1194 -478 1313 -144 
Q 1328 -97 1363 -6 
L 103 3319 
L 709 3319 
L 1400 1397 
Q 1534 1031 1641 628 
Q 1738 1016 1872 1384 
L 2581 3319 
L 3144 3319 
L 1881 -56 
Q 1678 -603 1566 -809 
Q 1416 -1088 1222 -1217 
Q 1028 -1347 759 -1347 
Q 597 -1347 397 -1278 
z
" transform="scale(0.015625)"/>
      </defs>
      <use xlink:href="#ArialMT-65"/>
      <use xlink:href="#ArialMT-63" transform="translate(55.615234 0)"/>
      <use xlink:href="#ArialMT-63" transform="translate(105.615234 0)"/>
      <use xlink:href="#ArialMT-65" transform="translate(155.615234 0)"/>
      <use xlink:href="#ArialMT-6e" transform="translate(211.230469 0)"/>
      <use xlink:href="#ArialMT-74" transform="translate(266.845703 0)"/>
      <use xlink:href="#ArialMT-72" transform="translate(294.628906 0)"/>
      <use xlink:href="#ArialMT-69" transform="translate(327.929688 0)"/>
      <use xlink:href="#ArialMT-63" transform="translate(350.146484 0)"/>
      <use xlink:href="#ArialMT-69" transform="translate(400.146484 0)"/>
      <use xlink:href="#ArialMT-74" transform="translate(422.363281 0)"/>
      <use xlink:href="#ArialMT-79" transform="translate(450.146484 0)"/>
     </g>
    </g>
    <g id="line2d_17">
     <path d="M 313.02 166.25925 
L 323.02 166.25925 
L 333.02 166.25925 
" style="fill: none; stroke: #ffa500; stroke-width: 1.5; stroke-linecap: round"/>
    </g>
    <g id="text_15">
     <!-- $\mu=0, \sigma = 0.1$ -->
     <g style="fill: #262626" transform="translate(341.02 169.75925) scale(0.1 -0.1)">
      <defs>
       <path id="DejaVuSans-3d" d="M 678 2906 
L 4684 2906 
L 4684 2381 
L 678 2381 
L 678 2906 
z
M 678 1631 
L 4684 1631 
L 4684 1100 
L 678 1100 
L 678 1631 
z
" transform="scale(0.015625)"/>
       <path id="DejaVuSans-30" d="M 2034 4250 
Q 1547 4250 1301 3770 
Q 1056 3291 1056 2328 
Q 1056 1369 1301 889 
Q 1547 409 2034 409 
Q 2525 409 2770 889 
Q 3016 1369 3016 2328 
Q 3016 3291 2770 3770 
Q 2525 4250 2034 4250 
z
M 2034 4750 
Q 2819 4750 3233 4129 
Q 3647 3509 3647 2328 
Q 3647 1150 3233 529 
Q 2819 -91 2034 -91 
Q 1250 -91 836 529 
Q 422 1150 422 2328 
Q 422 3509 836 4129 
Q 1250 4750 2034 4750 
z
" transform="scale(0.015625)"/>
       <path id="DejaVuSans-2e" d="M 684 794 
L 1344 794 
L 1344 0 
L 684 0 
L 684 794 
z
" transform="scale(0.015625)"/>
       <path id="DejaVuSans-31" d="M 794 531 
L 1825 531 
L 1825 4091 
L 703 3866 
L 703 4441 
L 1819 4666 
L 2450 4666 
L 2450 531 
L 3481 531 
L 3481 0 
L 794 0 
L 794 531 
z
" transform="scale(0.015625)"/>
      </defs>
      <use xlink:href="#DejaVuSans-Oblique-3bc" transform="translate(0 0.78125)"/>
      <use xlink:href="#DejaVuSans-3d" transform="translate(83.105469 0.78125)"/>
      <use xlink:href="#DejaVuSans-30" transform="translate(186.376953 0.78125)"/>
      <use xlink:href="#DejaVuSans-2c" transform="translate(250 0.78125)"/>
      <use xlink:href="#DejaVuSans-Oblique-3c3" transform="translate(301.269531 0.78125)"/>
      <use xlink:href="#DejaVuSans-3d" transform="translate(384.130859 0.78125)"/>
      <use xlink:href="#DejaVuSans-30" transform="translate(487.402344 0.78125)"/>
      <use xlink:href="#DejaVuSans-2e" transform="translate(551.025391 0.78125)"/>
      <use xlink:href="#DejaVuSans-31" transform="translate(582.8125 0.78125)"/>
     </g>
    </g>
    <g id="line2d_18">
     <path d="M 313.02 180.85925 
L 323.02 180.85925 
L 333.02 180.85925 
" style="fill: none; stroke: #0000ff; stroke-width: 1.5; stroke-linecap: round"/>
    </g>
    <g id="text_16">
     <!-- $\mu=0, \sigma = 1$ -->
     <g style="fill: #262626" transform="translate(341.02 184.35925) scale(0.1 -0.1)">
      <use xlink:href="#DejaVuSans-Oblique-3bc" transform="translate(0 0.78125)"/>
      <use xlink:href="#DejaVuSans-3d" transform="translate(83.105469 0.78125)"/>
      <use xlink:href="#DejaVuSans-30" transform="translate(186.376953 0.78125)"/>
      <use xlink:href="#DejaVuSans-2c" transform="translate(250 0.78125)"/>
      <use xlink:href="#DejaVuSans-Oblique-3c3" transform="translate(301.269531 0.78125)"/>
      <use xlink:href="#DejaVuSans-3d" transform="translate(384.130859 0.78125)"/>
      <use xlink:href="#DejaVuSans-31" transform="translate(487.402344 0.78125)"/>
     </g>
    </g>
    <g id="line2d_19">
     <path d="M 313.02 195.45925 
L 323.02 195.45925 
L 333.02 195.45925 
" style="fill: none; stroke: #ff0000; stroke-width: 1.5; stroke-linecap: round"/>
    </g>
    <g id="text_17">
     <!-- $\mu=0, \sigma = 10$ -->
     <g style="fill: #262626" transform="translate(341.02 198.95925) scale(0.1 -0.1)">
      <use xlink:href="#DejaVuSans-Oblique-3bc" transform="translate(0 0.78125)"/>
      <use xlink:href="#DejaVuSans-3d" transform="translate(83.105469 0.78125)"/>
      <use xlink:href="#DejaVuSans-30" transform="translate(186.376953 0.78125)"/>
      <use xlink:href="#DejaVuSans-2c" transform="translate(250 0.78125)"/>
      <use xlink:href="#DejaVuSans-Oblique-3c3" transform="translate(301.269531 0.78125)"/>
      <use xlink:href="#DejaVuSans-3d" transform="translate(384.130859 0.78125)"/>
      <use xlink:href="#DejaVuSans-31" transform="translate(487.402344 0.78125)"/>
      <use xlink:href="#DejaVuSans-30" transform="translate(551.025391 0.78125)"/>
     </g>
    </g>
   </g>
  </g>
 </g>
 <defs>
  <clipPath id="p5592e8d148">
   <rect x="57.6" y="41.472" width="357.12" height="266.112"/>
  </clipPath>
 </defs>
</svg>
