<?xml version="1.0" encoding="utf-8" standalone="no"?>
<!DOCTYPE svg PUBLIC "-//W3C//DTD SVG 1.1//EN"
  "http://www.w3.org/Graphics/SVG/1.1/DTD/svg11.dtd">
<svg xmlns:xlink="http://www.w3.org/1999/xlink" width="921.6pt" height="345.6pt" viewBox="0 0 921.6 345.6" xmlns="http://www.w3.org/2000/svg" version="1.1">
 <metadata>
  <rdf:RDF xmlns:dc="http://purl.org/dc/elements/1.1/" xmlns:cc="http://creativecommons.org/ns#" xmlns:rdf="http://www.w3.org/1999/02/22-rdf-syntax-ns#">
   <cc:Work>
    <dc:type rdf:resource="http://purl.org/dc/dcmitype/StillImage"/>
    <dc:date>2025-04-12T16:08:13.901298</dc:date>
    <dc:format>image/svg+xml</dc:format>
    <dc:creator>
     <cc:Agent>
      <dc:title>Matplotlib v3.10.1, https://matplotlib.org/</dc:title>
     </cc:Agent>
    </dc:creator>
   </cc:Work>
  </rdf:RDF>
 </metadata>
 <defs>
  <style type="text/css">*{stroke-linejoin: round; stroke-linecap: butt}</style>
 </defs>
 <g id="figure_1">
  <g id="patch_1">
   <path d="M 0 345.6 
L 921.6 345.6 
L 921.6 0 
L 0 0 
z
" style="fill: #ffffff"/>
  </g>
  <g id="axes_1">
   <g id="patch_2">
    <path d="M 115.2 307.584 
L 439.854545 307.584 
L 439.854545 41.472 
L 115.2 41.472 
z
" style="fill: #eaeaf2"/>
   </g>
   <g id="matplotlib.axis_1">
    <g id="xtick_1">
     <g id="line2d_1">
      <path d="M 159.471074 307.584 
L 159.471074 41.472 
" clip-path="url(#p11717aa263)" style="fill: none; stroke: #ffffff; stroke-width: 0.8; stroke-linecap: round"/>
     </g>
     <g id="text_1">
      <!-- −2 -->
      <g style="fill: #262626" transform="translate(153.770293 321.741812) scale(0.1 -0.1)">
       <defs>
        <path id="ArialMT-2212" d="M 3381 1997 
L 356 1997 
L 356 2522 
L 3381 2522 
L 3381 1997 
z
" transform="scale(0.015625)"/>
        <path id="ArialMT-32" d="M 3222 541 
L 3222 0 
L 194 0 
Q 188 203 259 391 
Q 375 700 629 1000 
Q 884 1300 1366 1694 
Q 2113 2306 2375 2664 
Q 2638 3022 2638 3341 
Q 2638 3675 2398 3904 
Q 2159 4134 1775 4134 
Q 1369 4134 1125 3890 
Q 881 3647 878 3216 
L 300 3275 
Q 359 3922 746 4261 
Q 1134 4600 1788 4600 
Q 2447 4600 2831 4234 
Q 3216 3869 3216 3328 
Q 3216 3053 3103 2787 
Q 2991 2522 2730 2228 
Q 2469 1934 1863 1422 
Q 1356 997 1212 845 
Q 1069 694 975 541 
L 3222 541 
z
" transform="scale(0.015625)"/>
       </defs>
       <use xlink:href="#ArialMT-2212"/>
       <use xlink:href="#ArialMT-32" transform="translate(58.398438 0)"/>
      </g>
     </g>
    </g>
    <g id="xtick_2">
     <g id="line2d_2">
      <path d="M 218.499174 307.584 
L 218.499174 41.472 
" clip-path="url(#p11717aa263)" style="fill: none; stroke: #ffffff; stroke-width: 0.8; stroke-linecap: round"/>
     </g>
     <g id="text_2">
      <!-- −1 -->
      <g style="fill: #262626" transform="translate(212.798392 321.741812) scale(0.1 -0.1)">
       <defs>
        <path id="ArialMT-31" d="M 2384 0 
L 1822 0 
L 1822 3584 
Q 1619 3391 1289 3197 
Q 959 3003 697 2906 
L 697 3450 
Q 1169 3672 1522 3987 
Q 1875 4303 2022 4600 
L 2384 4600 
L 2384 0 
z
" transform="scale(0.015625)"/>
       </defs>
       <use xlink:href="#ArialMT-2212"/>
       <use xlink:href="#ArialMT-31" transform="translate(58.398438 0)"/>
      </g>
     </g>
    </g>
    <g id="xtick_3">
     <g id="line2d_3">
      <path d="M 277.527273 307.584 
L 277.527273 41.472 
" clip-path="url(#p11717aa263)" style="fill: none; stroke: #ffffff; stroke-width: 0.8; stroke-linecap: round"/>
     </g>
     <g id="text_3">
      <!-- 0 -->
      <g style="fill: #262626" transform="translate(274.746804 321.741812) scale(0.1 -0.1)">
       <defs>
        <path id="ArialMT-30" d="M 266 2259 
Q 266 3072 433 3567 
Q 600 4063 929 4331 
Q 1259 4600 1759 4600 
Q 2128 4600 2406 4451 
Q 2684 4303 2865 4023 
Q 3047 3744 3150 3342 
Q 3253 2941 3253 2259 
Q 3253 1453 3087 958 
Q 2922 463 2592 192 
Q 2263 -78 1759 -78 
Q 1097 -78 719 397 
Q 266 969 266 2259 
z
M 844 2259 
Q 844 1131 1108 757 
Q 1372 384 1759 384 
Q 2147 384 2411 759 
Q 2675 1134 2675 2259 
Q 2675 3391 2411 3762 
Q 2147 4134 1753 4134 
Q 1366 4134 1134 3806 
Q 844 3388 844 2259 
z
" transform="scale(0.015625)"/>
       </defs>
       <use xlink:href="#ArialMT-30"/>
      </g>
     </g>
    </g>
    <g id="xtick_4">
     <g id="line2d_4">
      <path d="M 336.555372 307.584 
L 336.555372 41.472 
" clip-path="url(#p11717aa263)" style="fill: none; stroke: #ffffff; stroke-width: 0.8; stroke-linecap: round"/>
     </g>
     <g id="text_4">
      <!-- 1 -->
      <g style="fill: #262626" transform="translate(333.774903 321.741812) scale(0.1 -0.1)">
       <use xlink:href="#ArialMT-31"/>
      </g>
     </g>
    </g>
    <g id="xtick_5">
     <g id="line2d_5">
      <path d="M 395.583471 307.584 
L 395.583471 41.472 
" clip-path="url(#p11717aa263)" style="fill: none; stroke: #ffffff; stroke-width: 0.8; stroke-linecap: round"/>
     </g>
     <g id="text_5">
      <!-- 2 -->
      <g style="fill: #262626" transform="translate(392.803002 321.741812) scale(0.1 -0.1)">
       <use xlink:href="#ArialMT-32"/>
      </g>
     </g>
    </g>
    <g id="text_6">
     <!-- x -->
     <g style="fill: #262626" transform="translate(275.027273 334.887125) scale(0.1 -0.1)">
      <defs>
       <path id="ArialMT-78" d="M 47 0 
L 1259 1725 
L 138 3319 
L 841 3319 
L 1350 2541 
Q 1494 2319 1581 2169 
Q 1719 2375 1834 2534 
L 2394 3319 
L 3066 3319 
L 1919 1756 
L 3153 0 
L 2463 0 
L 1781 1031 
L 1600 1309 
L 728 0 
L 47 0 
z
" transform="scale(0.015625)"/>
      </defs>
      <use xlink:href="#ArialMT-78"/>
     </g>
    </g>
   </g>
   <g id="matplotlib.axis_2">
    <g id="ytick_1">
     <g id="line2d_6">
      <path d="M 115.2 276.738062 
L 439.854545 276.738062 
" clip-path="url(#p11717aa263)" style="fill: none; stroke: #ffffff; stroke-width: 0.8; stroke-linecap: round"/>
     </g>
     <g id="text_7">
      <!-- −3 -->
      <g style="fill: #262626" transform="translate(96.798438 280.316968) scale(0.1 -0.1)">
       <defs>
        <path id="ArialMT-33" d="M 269 1209 
L 831 1284 
Q 928 806 1161 595 
Q 1394 384 1728 384 
Q 2125 384 2398 659 
Q 2672 934 2672 1341 
Q 2672 1728 2419 1979 
Q 2166 2231 1775 2231 
Q 1616 2231 1378 2169 
L 1441 2663 
Q 1497 2656 1531 2656 
Q 1891 2656 2178 2843 
Q 2466 3031 2466 3422 
Q 2466 3731 2256 3934 
Q 2047 4138 1716 4138 
Q 1388 4138 1169 3931 
Q 950 3725 888 3313 
L 325 3413 
Q 428 3978 793 4289 
Q 1159 4600 1703 4600 
Q 2078 4600 2393 4439 
Q 2709 4278 2876 4000 
Q 3044 3722 3044 3409 
Q 3044 3113 2884 2869 
Q 2725 2625 2413 2481 
Q 2819 2388 3044 2092 
Q 3269 1797 3269 1353 
Q 3269 753 2831 336 
Q 2394 -81 1725 -81 
Q 1122 -81 723 278 
Q 325 638 269 1209 
z
" transform="scale(0.015625)"/>
       </defs>
       <use xlink:href="#ArialMT-2212"/>
       <use xlink:href="#ArialMT-33" transform="translate(58.398438 0)"/>
      </g>
     </g>
    </g>
    <g id="ytick_2">
     <g id="line2d_7">
      <path d="M 115.2 224.746612 
L 439.854545 224.746612 
" clip-path="url(#p11717aa263)" style="fill: none; stroke: #ffffff; stroke-width: 0.8; stroke-linecap: round"/>
     </g>
     <g id="text_8">
      <!-- −2 -->
      <g style="fill: #262626" transform="translate(96.798438 228.325519) scale(0.1 -0.1)">
       <use xlink:href="#ArialMT-2212"/>
       <use xlink:href="#ArialMT-32" transform="translate(58.398438 0)"/>
      </g>
     </g>
    </g>
    <g id="ytick_3">
     <g id="line2d_8">
      <path d="M 115.2 172.755163 
L 439.854545 172.755163 
" clip-path="url(#p11717aa263)" style="fill: none; stroke: #ffffff; stroke-width: 0.8; stroke-linecap: round"/>
     </g>
     <g id="text_9">
      <!-- −1 -->
      <g style="fill: #262626" transform="translate(96.798438 176.334069) scale(0.1 -0.1)">
       <use xlink:href="#ArialMT-2212"/>
       <use xlink:href="#ArialMT-31" transform="translate(58.398438 0)"/>
      </g>
     </g>
    </g>
    <g id="ytick_4">
     <g id="line2d_9">
      <path d="M 115.2 120.763714 
L 439.854545 120.763714 
" clip-path="url(#p11717aa263)" style="fill: none; stroke: #ffffff; stroke-width: 0.8; stroke-linecap: round"/>
     </g>
     <g id="text_10">
      <!-- 0 -->
      <g style="fill: #262626" transform="translate(102.639063 124.34262) scale(0.1 -0.1)">
       <use xlink:href="#ArialMT-30"/>
      </g>
     </g>
    </g>
    <g id="ytick_5">
     <g id="line2d_10">
      <path d="M 115.2 68.772265 
L 439.854545 68.772265 
" clip-path="url(#p11717aa263)" style="fill: none; stroke: #ffffff; stroke-width: 0.8; stroke-linecap: round"/>
     </g>
     <g id="text_11">
      <!-- 1 -->
      <g style="fill: #262626" transform="translate(102.639063 72.351171) scale(0.1 -0.1)">
       <use xlink:href="#ArialMT-31"/>
      </g>
     </g>
    </g>
    <g id="text_12">
     <!-- f(x) -->
     <g style="fill: #262626" transform="translate(90.69375 181.74675) rotate(-90) scale(0.1 -0.1)">
      <defs>
       <path id="ArialMT-66" d="M 556 0 
L 556 2881 
L 59 2881 
L 59 3319 
L 556 3319 
L 556 3672 
Q 556 4006 616 4169 
Q 697 4388 901 4523 
Q 1106 4659 1475 4659 
Q 1713 4659 2000 4603 
L 1916 4113 
Q 1741 4144 1584 4144 
Q 1328 4144 1222 4034 
Q 1116 3925 1116 3625 
L 1116 3319 
L 1763 3319 
L 1763 2881 
L 1116 2881 
L 1116 0 
L 556 0 
z
" transform="scale(0.015625)"/>
       <path id="ArialMT-28" d="M 1497 -1347 
Q 1031 -759 709 28 
Q 388 816 388 1659 
Q 388 2403 628 3084 
Q 909 3875 1497 4659 
L 1900 4659 
Q 1522 4009 1400 3731 
Q 1209 3300 1100 2831 
Q 966 2247 966 1656 
Q 966 153 1900 -1347 
L 1497 -1347 
z
" transform="scale(0.015625)"/>
       <path id="ArialMT-29" d="M 791 -1347 
L 388 -1347 
Q 1322 153 1322 1656 
Q 1322 2244 1188 2822 
Q 1081 3291 891 3722 
Q 769 4003 388 4659 
L 791 4659 
Q 1378 3875 1659 3084 
Q 1900 2403 1900 1659 
Q 1900 816 1576 28 
Q 1253 -759 791 -1347 
z
" transform="scale(0.015625)"/>
      </defs>
      <use xlink:href="#ArialMT-66"/>
      <use xlink:href="#ArialMT-28" transform="translate(27.783203 0)"/>
      <use xlink:href="#ArialMT-78" transform="translate(61.083984 0)"/>
      <use xlink:href="#ArialMT-29" transform="translate(111.083984 0)"/>
     </g>
    </g>
   </g>
   <g id="line2d_11">
    <path d="M 129.957025 128.659566 
L 132.938248 128.500055 
L 135.919458 128.340542 
L 138.900668 128.18103 
L 141.881891 128.021518 
L 144.863115 127.862005 
L 147.844325 127.702494 
L 150.825548 127.542982 
L 153.806758 127.383469 
L 156.787982 127.223958 
L 159.769191 127.064445 
L 162.750415 126.904933 
L 165.731631 126.745421 
L 168.712848 126.585909 
L 171.694072 126.426396 
L 174.675281 126.266884 
L 177.656498 126.107374 
L 180.637715 125.94786 
L 183.618931 125.788348 
L 186.600148 125.628835 
L 189.581357 125.469324 
L 192.562588 125.309811 
L 195.543798 125.150299 
L 198.525014 124.990787 
L 201.506238 124.831275 
L 204.487448 124.671762 
L 207.468671 124.51225 
L 210.449881 124.352739 
L 213.431105 124.193225 
L 216.412321 124.033713 
L 219.393538 123.874202 
L 222.374758 123.714689 
L 225.355968 123.555177 
L 228.337195 123.395665 
L 231.318404 123.236153 
L 234.299621 123.076641 
L 237.280841 122.917129 
L 240.262051 122.757616 
L 243.243278 122.598104 
L 246.224488 122.438592 
L 249.205706 122.27908 
L 252.186928 122.119567 
L 255.168143 121.960055 
L 258.149365 121.800543 
L 261.130571 121.641031 
L 264.111801 121.481518 
L 267.093007 121.322007 
L 270.074229 121.162494 
L 273.055451 121.002982 
L 276.036657 120.84347 
L 279.017879 120.794762 
L 281.999094 120.856858 
L 284.980316 120.918955 
L 287.961531 120.981051 
L 290.942753 121.043148 
L 293.923968 121.105244 
L 296.905181 121.16734 
L 299.886396 121.229436 
L 302.867618 121.291533 
L 305.848832 121.353629 
L 308.830054 121.415726 
L 311.811268 121.477822 
L 314.792484 121.539918 
L 317.773697 121.602015 
L 320.754917 121.664111 
L 323.736141 121.726207 
L 326.717358 121.788304 
L 329.698567 121.8504 
L 332.679784 121.912496 
L 335.661008 121.974593 
L 338.642217 122.036689 
L 341.623441 122.098786 
L 344.604658 122.160882 
L 347.585874 122.222978 
L 350.567084 122.285074 
L 353.548307 122.347171 
L 356.529524 122.409267 
L 359.510741 122.471364 
L 362.491957 122.533461 
L 365.473174 122.595556 
L 368.454384 122.657653 
L 371.435607 122.719749 
L 374.416831 122.781845 
L 377.398055 122.843942 
L 380.379264 122.906038 
L 383.360474 122.968134 
L 386.341697 123.03023 
L 389.322921 123.092327 
L 392.304124 123.154423 
L 395.285347 123.21652 
L 398.266564 123.278616 
L 401.247788 123.340712 
L 404.228983 123.402808 
L 407.210207 123.464905 
L 410.19143 123.527001 
L 413.172654 123.589099 
L 416.153878 123.651195 
L 419.135073 123.713291 
L 422.116297 123.775388 
L 425.097521 123.837484 
" clip-path="url(#p11717aa263)" style="fill: none; stroke: #4169e1; stroke-width: 1.5; stroke-linecap: round"/>
   </g>
   <g id="line2d_12">
    <path d="M 129.957025 260.750486 
L 132.938248 259.178311 
L 135.919458 257.606136 
L 138.900668 256.033961 
L 141.881891 254.461774 
L 144.863115 252.889599 
L 147.844325 251.283311 
L 150.825548 249.673317 
L 153.806758 248.06331 
L 156.787982 246.453304 
L 159.769191 244.827988 
L 162.750415 243.190711 
L 165.731631 241.553446 
L 168.712848 239.908397 
L 171.694072 238.225875 
L 174.675281 236.518066 
L 177.656498 234.770405 
L 180.637715 233.022731 
L 183.618931 231.188151 
L 186.600148 229.311091 
L 189.581357 227.434056 
L 192.562588 225.557008 
L 195.543798 223.679948 
L 198.525014 221.8029 
L 201.506238 219.925852 
L 204.487448 218.048816 
L 207.468671 216.169004 
L 210.449881 213.936881 
L 213.431105 211.588579 
L 216.412321 209.240289 
L 219.393538 206.891992 
L 222.374758 204.54369 
L 225.355968 202.195412 
L 228.337195 199.752865 
L 231.318404 197.263413 
L 234.299621 194.773966 
L 237.280841 192.28452 
L 240.262051 189.795074 
L 243.243278 187.305615 
L 246.224488 184.816181 
L 249.205706 182.326722 
L 252.186928 179.837276 
L 255.168143 177.34783 
L 258.149365 174.858371 
L 261.130571 172.368934 
L 264.111801 169.879469 
L 267.093007 167.390035 
L 270.074229 164.900582 
L 273.055451 162.41113 
L 276.036657 159.92169 
L 279.017879 157.432237 
L 281.999094 154.942794 
L 284.980316 152.453338 
L 287.961531 149.963892 
L 290.942753 147.47444 
L 293.923968 144.984993 
L 296.905181 142.495547 
L 299.886396 140.0061 
L 302.867618 137.516651 
L 305.848832 135.027205 
L 308.830054 132.537753 
L 311.811268 130.048307 
L 314.792484 127.558859 
L 317.773697 125.069412 
L 320.754917 122.579962 
L 323.736141 120.09051 
L 326.717358 117.601061 
L 329.698567 115.111618 
L 332.679784 112.622176 
L 335.661008 110.197298 
L 338.642217 107.849685 
L 341.623441 105.502057 
L 344.604658 103.15443 
L 347.585874 100.80681 
L 350.567084 98.459189 
L 353.548307 96.205227 
L 356.529524 94.033356 
L 359.510741 91.861482 
L 362.491957 89.811616 
L 365.473174 88.178628 
L 368.454384 86.918314 
L 371.435607 86.0436 
L 374.416831 85.269199 
L 377.398055 84.539385 
L 380.379264 83.809571 
L 383.360474 83.081669 
L 386.341697 82.496963 
L 389.322921 81.942833 
L 392.304124 81.388701 
L 395.285347 80.834572 
L 398.266564 80.280433 
L 401.247788 79.726298 
L 404.228983 79.172168 
L 407.210207 78.618036 
L 410.19143 78.063904 
L 413.172654 77.509768 
L 416.153878 76.954861 
L 419.135073 76.396508 
L 422.116297 75.838148 
L 425.097521 75.279795 
" clip-path="url(#p11717aa263)" style="fill: none; stroke: #0000ff; stroke-width: 1.5; stroke-linecap: round"/>
   </g>
   <g id="line2d_13">
    <path d="M 129.957025 285.019325 
L 132.938248 283.043371 
L 135.919458 280.974661 
L 138.900668 278.862193 
L 141.881891 276.737181 
L 144.863115 274.612132 
L 147.844325 272.487133 
L 150.825548 270.362096 
L 153.806758 268.237084 
L 156.787982 266.112047 
L 159.769191 263.987023 
L 162.750415 261.861999 
L 165.731631 259.736974 
L 168.712848 257.607165 
L 171.694072 255.439797 
L 174.675281 253.272429 
L 177.656498 251.105061 
L 180.637715 248.937693 
L 183.618931 246.770324 
L 186.600148 244.602956 
L 189.581357 242.435588 
L 192.562588 240.268208 
L 195.543798 238.100852 
L 198.525014 235.933484 
L 201.506238 233.766103 
L 204.487448 231.598747 
L 207.468671 229.431354 
L 210.449881 227.135319 
L 213.431105 224.558017 
L 216.412321 221.980735 
L 219.393538 219.403465 
L 222.374758 216.826182 
L 225.355968 214.2489 
L 228.337195 211.671605 
L 231.318404 209.094335 
L 234.299621 206.517053 
L 237.280841 203.939758 
L 240.262051 201.362482 
L 243.243278 198.785193 
L 246.224488 196.207917 
L 249.205706 193.63064 
L 252.186928 191.053345 
L 255.168143 188.476069 
L 258.149365 185.898793 
L 261.130571 183.32151 
L 264.111801 180.744216 
L 267.093007 178.166946 
L 270.074229 175.589657 
L 273.055451 173.012374 
L 276.036657 170.435098 
L 279.017879 167.857809 
L 281.999094 165.280527 
L 284.980316 162.703245 
L 287.961531 160.125962 
L 290.942753 157.54868 
L 293.923968 154.971397 
L 296.905181 152.394121 
L 299.886396 149.816838 
L 302.867618 147.23955 
L 305.848832 144.662275 
L 308.830054 142.084983 
L 311.811268 139.507704 
L 314.792484 136.930421 
L 317.773697 134.353145 
L 320.754917 131.77586 
L 323.736141 129.198562 
L 326.717358 126.621288 
L 329.698567 124.044011 
L 332.679784 121.46673 
L 335.661008 118.889449 
L 338.642217 116.312165 
L 341.623441 113.734875 
L 344.604658 111.157598 
L 347.585874 108.580321 
L 350.567084 106.003043 
L 353.548307 103.425751 
L 356.529524 100.848473 
L 359.510741 98.271191 
L 362.491957 95.693907 
L 365.473174 93.11663 
L 368.454384 90.539345 
L 371.435607 87.962059 
L 374.416831 85.384771 
L 377.398055 82.807488 
L 380.379264 80.230206 
L 383.360474 77.652929 
L 386.341697 75.075641 
L 389.322921 72.498352 
L 392.304124 69.921082 
L 395.285347 67.343793 
L 398.266564 64.766511 
L 401.247788 62.982016 
L 404.228983 61.317226 
L 407.210207 59.809621 
L 410.19143 58.596494 
L 413.172654 57.505769 
L 416.153878 56.500742 
L 419.135073 55.523166 
L 422.116297 54.545589 
L 425.097521 53.568 
" clip-path="url(#p11717aa263)" style="fill: none; stroke: #0000cd; stroke-width: 1.5; stroke-linecap: round"/>
   </g>
   <g id="line2d_14">
    <path d="M 129.957025 295.488 
L 132.938248 293.787331 
L 135.919458 292.086674 
L 138.900668 290.386018 
L 141.881891 288.685374 
L 144.863115 286.984705 
L 147.844325 285.284035 
L 150.825548 283.583391 
L 153.806758 281.882735 
L 156.787982 280.182066 
L 159.769191 278.481409 
L 162.750415 276.78074 
L 165.731631 275.080096 
L 168.712848 273.379427 
L 171.694072 271.678783 
L 174.675281 269.978114 
L 177.656498 268.277457 
L 180.637715 266.5768 
L 183.618931 264.876156 
L 186.600148 263.175487 
L 189.581357 261.47483 
L 192.562588 259.774174 
L 195.543798 258.073505 
L 198.525014 256.372885 
L 201.506238 254.672192 
L 204.487448 252.971547 
L 207.468671 251.270878 
L 210.449881 249.570222 
L 213.431105 247.869565 
L 216.412321 245.315016 
L 219.393538 242.689192 
L 222.374758 240.063393 
L 225.355968 237.437569 
L 228.337195 234.811757 
L 231.318404 232.185945 
L 234.299621 229.560121 
L 237.280841 226.934309 
L 240.262051 224.308516 
L 243.243278 221.68268 
L 246.224488 219.056868 
L 249.205706 216.431069 
L 252.186928 213.805245 
L 255.168143 211.17942 
L 258.149365 208.553609 
L 261.130571 205.927809 
L 264.111801 203.301979 
L 267.093007 200.676167 
L 270.074229 198.050356 
L 273.055451 195.424531 
L 276.036657 192.798726 
L 279.017879 190.172902 
L 281.999094 187.54709 
L 284.980316 184.921272 
L 287.961531 182.295454 
L 290.942753 179.66963 
L 293.923968 177.043818 
L 296.905181 174.418007 
L 299.886396 171.792195 
L 302.867618 169.166377 
L 305.848832 166.540571 
L 308.830054 163.914747 
L 311.811268 161.288935 
L 314.792484 158.663111 
L 317.773697 156.037312 
L 320.754917 153.411488 
L 323.736141 150.785664 
L 326.717358 148.159846 
L 329.698567 145.534042 
L 332.679784 142.908221 
L 335.661008 140.282403 
L 338.642217 137.656588 
L 341.623441 135.030776 
L 344.604658 132.404961 
L 347.585874 129.779134 
L 350.567084 127.153341 
L 353.548307 124.52752 
L 356.529524 121.901696 
L 359.510741 119.27589 
L 362.491957 116.650075 
L 365.473174 114.024251 
L 368.454384 111.398449 
L 371.435607 108.772622 
L 374.416831 106.14681 
L 377.398055 103.520986 
L 380.379264 100.895177 
L 383.360474 98.269369 
L 386.341697 95.643554 
L 389.322921 93.017725 
L 392.304124 90.391919 
L 395.285347 87.766101 
L 398.266564 85.14029 
L 401.247788 82.514472 
L 404.228983 79.888666 
L 407.210207 77.262854 
L 410.19143 74.637024 
L 413.172654 72.0112 
L 416.153878 69.385382 
L 419.135073 66.759583 
L 422.116297 64.133759 
L 425.097521 61.507934 
" clip-path="url(#p11717aa263)" style="fill: none; stroke: #191970; stroke-width: 1.5; stroke-linecap: round"/>
   </g>
   <g id="patch_3">
    <path d="M 115.2 307.584 
L 115.2 41.472 
" style="fill: none; stroke: #ffffff; stroke-width: 0.8; stroke-linejoin: miter; stroke-linecap: square"/>
   </g>
   <g id="patch_4">
    <path d="M 439.854545 307.584 
L 439.854545 41.472 
" style="fill: none; stroke: #ffffff; stroke-width: 0.8; stroke-linejoin: miter; stroke-linecap: square"/>
   </g>
   <g id="patch_5">
    <path d="M 115.2 307.584 
L 439.854545 307.584 
" style="fill: none; stroke: #ffffff; stroke-width: 0.8; stroke-linejoin: miter; stroke-linecap: square"/>
   </g>
   <g id="patch_6">
    <path d="M 115.2 41.472 
L 439.854545 41.472 
" style="fill: none; stroke: #ffffff; stroke-width: 0.8; stroke-linejoin: miter; stroke-linecap: square"/>
   </g>
   <g id="legend_1">
    <g id="patch_7">
     <path d="M 354.431108 302.584 
L 432.854545 302.584 
Q 434.854545 302.584 434.854545 300.584 
L 434.854545 244.913687 
Q 434.854545 242.913687 432.854545 242.913687 
L 354.431108 242.913687 
Q 352.431108 242.913687 352.431108 244.913687 
L 352.431108 300.584 
Q 352.431108 302.584 354.431108 302.584 
z
" style="fill: #eaeaf2; opacity: 0.8; stroke: #cccccc; stroke-linejoin: miter"/>
    </g>
    <g id="line2d_15">
     <path d="M 356.431108 250.601187 
L 366.431108 250.601187 
L 376.431108 250.601187 
" style="fill: none; stroke: #4169e1; stroke-width: 1.5; stroke-linecap: round"/>
    </g>
    <g id="text_13">
     <!-- steps=0 -->
     <g style="fill: #262626" transform="translate(384.431108 254.101187) scale(0.1 -0.1)">
      <defs>
       <path id="ArialMT-73" d="M 197 991 
L 753 1078 
Q 800 744 1014 566 
Q 1228 388 1613 388 
Q 2000 388 2187 545 
Q 2375 703 2375 916 
Q 2375 1106 2209 1216 
Q 2094 1291 1634 1406 
Q 1016 1563 777 1677 
Q 538 1791 414 1992 
Q 291 2194 291 2438 
Q 291 2659 392 2848 
Q 494 3038 669 3163 
Q 800 3259 1026 3326 
Q 1253 3394 1513 3394 
Q 1903 3394 2198 3281 
Q 2494 3169 2634 2976 
Q 2775 2784 2828 2463 
L 2278 2388 
Q 2241 2644 2061 2787 
Q 1881 2931 1553 2931 
Q 1166 2931 1000 2803 
Q 834 2675 834 2503 
Q 834 2394 903 2306 
Q 972 2216 1119 2156 
Q 1203 2125 1616 2013 
Q 2213 1853 2448 1751 
Q 2684 1650 2818 1456 
Q 2953 1263 2953 975 
Q 2953 694 2789 445 
Q 2625 197 2315 61 
Q 2006 -75 1616 -75 
Q 969 -75 630 194 
Q 291 463 197 991 
z
" transform="scale(0.015625)"/>
       <path id="ArialMT-74" d="M 1650 503 
L 1731 6 
Q 1494 -44 1306 -44 
Q 1000 -44 831 53 
Q 663 150 594 308 
Q 525 466 525 972 
L 525 2881 
L 113 2881 
L 113 3319 
L 525 3319 
L 525 4141 
L 1084 4478 
L 1084 3319 
L 1650 3319 
L 1650 2881 
L 1084 2881 
L 1084 941 
Q 1084 700 1114 631 
Q 1144 563 1211 522 
Q 1278 481 1403 481 
Q 1497 481 1650 503 
z
" transform="scale(0.015625)"/>
       <path id="ArialMT-65" d="M 2694 1069 
L 3275 997 
Q 3138 488 2766 206 
Q 2394 -75 1816 -75 
Q 1088 -75 661 373 
Q 234 822 234 1631 
Q 234 2469 665 2931 
Q 1097 3394 1784 3394 
Q 2450 3394 2872 2941 
Q 3294 2488 3294 1666 
Q 3294 1616 3291 1516 
L 816 1516 
Q 847 969 1125 678 
Q 1403 388 1819 388 
Q 2128 388 2347 550 
Q 2566 713 2694 1069 
z
M 847 1978 
L 2700 1978 
Q 2663 2397 2488 2606 
Q 2219 2931 1791 2931 
Q 1403 2931 1139 2672 
Q 875 2413 847 1978 
z
" transform="scale(0.015625)"/>
       <path id="ArialMT-70" d="M 422 -1272 
L 422 3319 
L 934 3319 
L 934 2888 
Q 1116 3141 1344 3267 
Q 1572 3394 1897 3394 
Q 2322 3394 2647 3175 
Q 2972 2956 3137 2557 
Q 3303 2159 3303 1684 
Q 3303 1175 3120 767 
Q 2938 359 2589 142 
Q 2241 -75 1856 -75 
Q 1575 -75 1351 44 
Q 1128 163 984 344 
L 984 -1272 
L 422 -1272 
z
M 931 1641 
Q 931 1000 1190 694 
Q 1450 388 1819 388 
Q 2194 388 2461 705 
Q 2728 1022 2728 1688 
Q 2728 2322 2467 2637 
Q 2206 2953 1844 2953 
Q 1484 2953 1207 2617 
Q 931 2281 931 1641 
z
" transform="scale(0.015625)"/>
       <path id="ArialMT-3d" d="M 3381 2694 
L 356 2694 
L 356 3219 
L 3381 3219 
L 3381 2694 
z
M 3381 1303 
L 356 1303 
L 356 1828 
L 3381 1828 
L 3381 1303 
z
" transform="scale(0.015625)"/>
      </defs>
      <use xlink:href="#ArialMT-73"/>
      <use xlink:href="#ArialMT-74" transform="translate(50 0)"/>
      <use xlink:href="#ArialMT-65" transform="translate(77.783203 0)"/>
      <use xlink:href="#ArialMT-70" transform="translate(133.398438 0)"/>
      <use xlink:href="#ArialMT-73" transform="translate(189.013672 0)"/>
      <use xlink:href="#ArialMT-3d" transform="translate(239.013672 0)"/>
      <use xlink:href="#ArialMT-30" transform="translate(297.412109 0)"/>
     </g>
    </g>
    <g id="line2d_16">
     <path d="M 356.431108 264.7465 
L 366.431108 264.7465 
L 376.431108 264.7465 
" style="fill: none; stroke: #0000ff; stroke-width: 1.5; stroke-linecap: round"/>
    </g>
    <g id="text_14">
     <!-- steps=5 -->
     <g style="fill: #262626" transform="translate(384.431108 268.2465) scale(0.1 -0.1)">
      <defs>
       <path id="ArialMT-35" d="M 266 1200 
L 856 1250 
Q 922 819 1161 601 
Q 1400 384 1738 384 
Q 2144 384 2425 690 
Q 2706 997 2706 1503 
Q 2706 1984 2436 2262 
Q 2166 2541 1728 2541 
Q 1456 2541 1237 2417 
Q 1019 2294 894 2097 
L 366 2166 
L 809 4519 
L 3088 4519 
L 3088 3981 
L 1259 3981 
L 1013 2750 
Q 1425 3038 1878 3038 
Q 2478 3038 2890 2622 
Q 3303 2206 3303 1553 
Q 3303 931 2941 478 
Q 2500 -78 1738 -78 
Q 1113 -78 717 272 
Q 322 622 266 1200 
z
" transform="scale(0.015625)"/>
      </defs>
      <use xlink:href="#ArialMT-73"/>
      <use xlink:href="#ArialMT-74" transform="translate(50 0)"/>
      <use xlink:href="#ArialMT-65" transform="translate(77.783203 0)"/>
      <use xlink:href="#ArialMT-70" transform="translate(133.398438 0)"/>
      <use xlink:href="#ArialMT-73" transform="translate(189.013672 0)"/>
      <use xlink:href="#ArialMT-3d" transform="translate(239.013672 0)"/>
      <use xlink:href="#ArialMT-35" transform="translate(297.412109 0)"/>
     </g>
    </g>
    <g id="line2d_17">
     <path d="M 356.431108 278.9215 
L 366.431108 278.9215 
L 376.431108 278.9215 
" style="fill: none; stroke: #0000cd; stroke-width: 1.5; stroke-linecap: round"/>
    </g>
    <g id="text_15">
     <!-- steps=10 -->
     <g style="fill: #262626" transform="translate(384.431108 282.4215) scale(0.1 -0.1)">
      <use xlink:href="#ArialMT-73"/>
      <use xlink:href="#ArialMT-74" transform="translate(50 0)"/>
      <use xlink:href="#ArialMT-65" transform="translate(77.783203 0)"/>
      <use xlink:href="#ArialMT-70" transform="translate(133.398438 0)"/>
      <use xlink:href="#ArialMT-73" transform="translate(189.013672 0)"/>
      <use xlink:href="#ArialMT-3d" transform="translate(239.013672 0)"/>
      <use xlink:href="#ArialMT-31" transform="translate(297.412109 0)"/>
      <use xlink:href="#ArialMT-30" transform="translate(353.027344 0)"/>
     </g>
    </g>
    <g id="line2d_18">
     <path d="M 356.431108 293.0965 
L 366.431108 293.0965 
L 376.431108 293.0965 
" style="fill: none; stroke: #191970; stroke-width: 1.5; stroke-linecap: round"/>
    </g>
    <g id="text_16">
     <!-- steps=100 -->
     <g style="fill: #262626" transform="translate(384.431108 296.5965) scale(0.1 -0.1)">
      <use xlink:href="#ArialMT-73"/>
      <use xlink:href="#ArialMT-74" transform="translate(50 0)"/>
      <use xlink:href="#ArialMT-65" transform="translate(77.783203 0)"/>
      <use xlink:href="#ArialMT-70" transform="translate(133.398438 0)"/>
      <use xlink:href="#ArialMT-73" transform="translate(189.013672 0)"/>
      <use xlink:href="#ArialMT-3d" transform="translate(239.013672 0)"/>
      <use xlink:href="#ArialMT-31" transform="translate(297.412109 0)"/>
      <use xlink:href="#ArialMT-30" transform="translate(353.027344 0)"/>
      <use xlink:href="#ArialMT-30" transform="translate(408.642578 0)"/>
     </g>
    </g>
   </g>
  </g>
  <g id="axes_2">
   <g id="patch_8">
    <path d="M 504.785455 307.584 
L 829.44 307.584 
L 829.44 41.472 
L 504.785455 41.472 
z
" style="fill: #eaeaf2"/>
   </g>
   <g id="matplotlib.axis_3">
    <g id="xtick_6">
     <g id="line2d_19">
      <path d="M 549.056529 307.584 
L 549.056529 41.472 
" clip-path="url(#pd65d9a6f8e)" style="fill: none; stroke: #ffffff; stroke-width: 0.8; stroke-linecap: round"/>
     </g>
     <g id="text_17">
      <!-- −2 -->
      <g style="fill: #262626" transform="translate(543.355748 321.741812) scale(0.1 -0.1)">
       <use xlink:href="#ArialMT-2212"/>
       <use xlink:href="#ArialMT-32" transform="translate(58.398438 0)"/>
      </g>
     </g>
    </g>
    <g id="xtick_7">
     <g id="line2d_20">
      <path d="M 608.084628 307.584 
L 608.084628 41.472 
" clip-path="url(#pd65d9a6f8e)" style="fill: none; stroke: #ffffff; stroke-width: 0.8; stroke-linecap: round"/>
     </g>
     <g id="text_18">
      <!-- −1 -->
      <g style="fill: #262626" transform="translate(602.383847 321.741812) scale(0.1 -0.1)">
       <use xlink:href="#ArialMT-2212"/>
       <use xlink:href="#ArialMT-31" transform="translate(58.398438 0)"/>
      </g>
     </g>
    </g>
    <g id="xtick_8">
     <g id="line2d_21">
      <path d="M 667.112727 307.584 
L 667.112727 41.472 
" clip-path="url(#pd65d9a6f8e)" style="fill: none; stroke: #ffffff; stroke-width: 0.8; stroke-linecap: round"/>
     </g>
     <g id="text_19">
      <!-- 0 -->
      <g style="fill: #262626" transform="translate(664.332259 321.741812) scale(0.1 -0.1)">
       <use xlink:href="#ArialMT-30"/>
      </g>
     </g>
    </g>
    <g id="xtick_9">
     <g id="line2d_22">
      <path d="M 726.140826 307.584 
L 726.140826 41.472 
" clip-path="url(#pd65d9a6f8e)" style="fill: none; stroke: #ffffff; stroke-width: 0.8; stroke-linecap: round"/>
     </g>
     <g id="text_20">
      <!-- 1 -->
      <g style="fill: #262626" transform="translate(723.360358 321.741812) scale(0.1 -0.1)">
       <use xlink:href="#ArialMT-31"/>
      </g>
     </g>
    </g>
    <g id="xtick_10">
     <g id="line2d_23">
      <path d="M 785.168926 307.584 
L 785.168926 41.472 
" clip-path="url(#pd65d9a6f8e)" style="fill: none; stroke: #ffffff; stroke-width: 0.8; stroke-linecap: round"/>
     </g>
     <g id="text_21">
      <!-- 2 -->
      <g style="fill: #262626" transform="translate(782.388457 321.741812) scale(0.1 -0.1)">
       <use xlink:href="#ArialMT-32"/>
      </g>
     </g>
    </g>
    <g id="text_22">
     <!-- x -->
     <g style="fill: #262626" transform="translate(664.612727 334.887125) scale(0.1 -0.1)">
      <use xlink:href="#ArialMT-78"/>
     </g>
    </g>
   </g>
   <g id="matplotlib.axis_4">
    <g id="ytick_6">
     <g id="line2d_24">
      <path d="M 504.785455 276.738062 
L 829.44 276.738062 
" clip-path="url(#pd65d9a6f8e)" style="fill: none; stroke: #ffffff; stroke-width: 0.8; stroke-linecap: round"/>
     </g>
    </g>
    <g id="ytick_7">
     <g id="line2d_25">
      <path d="M 504.785455 224.746612 
L 829.44 224.746612 
" clip-path="url(#pd65d9a6f8e)" style="fill: none; stroke: #ffffff; stroke-width: 0.8; stroke-linecap: round"/>
     </g>
    </g>
    <g id="ytick_8">
     <g id="line2d_26">
      <path d="M 504.785455 172.755163 
L 829.44 172.755163 
" clip-path="url(#pd65d9a6f8e)" style="fill: none; stroke: #ffffff; stroke-width: 0.8; stroke-linecap: round"/>
     </g>
    </g>
    <g id="ytick_9">
     <g id="line2d_27">
      <path d="M 504.785455 120.763714 
L 829.44 120.763714 
" clip-path="url(#pd65d9a6f8e)" style="fill: none; stroke: #ffffff; stroke-width: 0.8; stroke-linecap: round"/>
     </g>
    </g>
    <g id="ytick_10">
     <g id="line2d_28">
      <path d="M 504.785455 68.772265 
L 829.44 68.772265 
" clip-path="url(#pd65d9a6f8e)" style="fill: none; stroke: #ffffff; stroke-width: 0.8; stroke-linecap: round"/>
     </g>
    </g>
    <g id="text_23">
     <!-- Pf(x) -->
     <g style="fill: #262626" transform="translate(498.680767 185.081906) rotate(-90) scale(0.1 -0.1)">
      <defs>
       <path id="ArialMT-50" d="M 494 0 
L 494 4581 
L 2222 4581 
Q 2678 4581 2919 4538 
Q 3256 4481 3484 4323 
Q 3713 4166 3852 3881 
Q 3991 3597 3991 3256 
Q 3991 2672 3619 2267 
Q 3247 1863 2275 1863 
L 1100 1863 
L 1100 0 
L 494 0 
z
M 1100 2403 
L 2284 2403 
Q 2872 2403 3119 2622 
Q 3366 2841 3366 3238 
Q 3366 3525 3220 3729 
Q 3075 3934 2838 4000 
Q 2684 4041 2272 4041 
L 1100 4041 
L 1100 2403 
z
" transform="scale(0.015625)"/>
      </defs>
      <use xlink:href="#ArialMT-50"/>
      <use xlink:href="#ArialMT-66" transform="translate(66.699219 0)"/>
      <use xlink:href="#ArialMT-28" transform="translate(94.482422 0)"/>
      <use xlink:href="#ArialMT-78" transform="translate(127.783203 0)"/>
      <use xlink:href="#ArialMT-29" transform="translate(177.783203 0)"/>
     </g>
    </g>
   </g>
   <g id="line2d_29">
    <path d="M 519.542479 122.509357 
L 522.523703 122.491706 
L 525.504913 122.461177 
L 528.486122 122.441221 
L 531.467346 122.424973 
L 534.44857 122.392304 
L 537.429779 122.362494 
L 540.411003 122.341872 
L 543.392212 122.304364 
L 546.373436 122.274855 
L 549.354646 122.259435 
L 552.335869 122.245895 
L 555.317086 122.238258 
L 558.298303 122.227355 
L 561.279526 122.214076 
L 564.260736 122.218011 
L 567.241952 122.250744 
L 570.223169 122.311205 
L 573.204386 122.371104 
L 576.185602 122.440347 
L 579.166812 122.519443 
L 582.148043 122.617397 
L 585.129252 122.733722 
L 588.110469 122.862905 
L 591.091693 123.011704 
L 594.072902 123.191613 
L 597.054126 123.443968 
L 600.035335 123.701279 
L 603.016559 123.796808 
L 605.997776 123.832141 
L 608.978992 123.834657 
L 611.960213 123.803484 
L 614.941422 123.714355 
L 617.922649 123.470356 
L 620.903859 123.204362 
L 623.885076 123.019037 
L 626.866296 122.865554 
L 629.847505 122.73618 
L 632.828732 122.645551 
L 635.809942 122.579173 
L 638.79116 122.509703 
L 641.772382 122.435212 
L 644.753597 122.376793 
L 647.734819 122.328949 
L 650.716025 122.287112 
L 653.697256 122.253596 
L 656.678462 122.240807 
L 659.659684 122.216256 
L 662.640906 122.19842 
L 665.622112 122.188924 
L 668.603334 122.178044 
L 671.584549 122.165862 
L 674.565771 122.172619 
L 677.546985 122.192192 
L 680.528207 122.23731 
L 683.509422 122.298122 
L 686.490635 122.325749 
L 689.47185 122.319772 
L 692.453072 122.308649 
L 695.434287 122.300047 
L 698.415509 122.286472 
L 701.396722 122.276468 
L 704.377939 122.256924 
L 707.359152 122.238887 
L 710.340372 122.224329 
L 713.321596 122.205567 
L 716.302812 122.191549 
L 719.284022 122.179104 
L 722.265238 122.166751 
L 725.246462 122.162312 
L 728.227672 122.165009 
L 731.208895 122.173862 
L 734.190112 122.18206 
L 737.171329 122.193034 
L 740.152538 122.208738 
L 743.133762 122.224292 
L 746.114979 122.232913 
L 749.096195 122.21305 
L 752.077412 122.209457 
L 755.058628 122.21403 
L 758.039838 122.221193 
L 761.021062 122.225986 
L 764.002285 122.227438 
L 766.983509 122.233301 
L 769.964719 122.2354 
L 772.945928 122.23386 
L 775.927152 122.231089 
L 778.908376 122.224809 
L 781.889578 122.223221 
L 784.870802 122.222141 
L 787.852018 122.247947 
L 790.833242 122.271747 
L 793.814438 122.294437 
L 796.795661 122.322598 
L 799.776885 122.352426 
L 802.758109 122.37459 
L 805.739332 122.404331 
L 808.720528 122.421007 
L 811.701752 122.44434 
L 814.682975 122.466405 
" clip-path="url(#pd65d9a6f8e)" style="fill: none; stroke: #4169e1; stroke-width: 1.5; stroke-linecap: round"/>
   </g>
   <g id="line2d_30">
    <path d="M 519.542479 122.8105 
L 522.523703 122.924516 
L 525.504913 122.843461 
L 528.486122 123.085251 
L 531.467346 123.296138 
L 534.44857 123.59448 
L 537.429779 123.621221 
L 540.411003 124.252912 
L 543.392212 124.581823 
L 546.373436 124.918517 
L 549.354646 125.163588 
L 552.335869 125.545222 
L 555.317086 125.68448 
L 558.298303 126.01649 
L 561.279526 126.317467 
L 564.260736 127.332221 
L 567.241952 129.007181 
L 570.223169 131.463817 
L 573.204386 133.702125 
L 576.185602 136.454223 
L 579.166812 139.775377 
L 582.148043 143.410531 
L 585.129252 148.750694 
L 588.110469 155.07431 
L 591.091693 162.360267 
L 594.072902 171.042969 
L 597.054126 183.636852 
L 600.035335 196.485215 
L 603.016559 201.106448 
L 605.997776 202.702051 
L 608.978992 202.785474 
L 611.960213 201.37246 
L 614.941422 197.119263 
L 617.922649 185.006703 
L 620.903859 171.822911 
L 623.885076 162.595275 
L 626.866296 155.216628 
L 629.847505 149.077647 
L 632.828732 145.620345 
L 635.809942 143.230449 
L 638.79116 140.743101 
L 641.772382 138.066543 
L 644.753597 135.866168 
L 647.734819 133.736926 
L 650.716025 131.84469 
L 653.697256 130.57339 
L 656.678462 129.320362 
L 659.659684 128.151645 
L 662.640906 127.102278 
L 665.622112 126.278082 
L 668.603334 126.039885 
L 671.584549 126.259642 
L 674.565771 126.827219 
L 677.546985 127.564736 
L 680.528207 129.041742 
L 683.509422 130.06279 
L 686.490635 130.152674 
L 689.47185 129.227365 
L 692.453072 127.803439 
L 695.434287 126.923175 
L 698.415509 125.845909 
L 701.396722 124.924757 
L 704.377939 123.810013 
L 707.359152 122.613125 
L 710.340372 121.664359 
L 713.321596 120.661153 
L 716.302812 119.860448 
L 719.284022 119.105932 
L 722.265238 118.459298 
L 725.246462 118.192168 
L 728.227672 118.378134 
L 731.208895 118.833796 
L 734.190112 119.303287 
L 737.171329 119.93912 
L 740.152538 120.81683 
L 743.133762 121.746664 
L 746.114979 122.243032 
L 749.096195 121.204537 
L 752.077412 122.053372 
L 755.058628 123.183339 
L 758.039838 124.448347 
L 761.021062 125.779125 
L 764.002285 127.059977 
L 766.983509 128.490025 
L 769.964719 129.588878 
L 772.945928 130.991116 
L 775.927152 132.252806 
L 778.908376 133.200484 
L 781.889578 134.606749 
L 784.870802 135.749885 
L 787.852018 135.768052 
L 790.833242 135.710329 
L 793.814438 135.383023 
L 796.795661 135.384203 
L 799.776885 135.345183 
L 802.758109 134.820631 
L 805.739332 135.396751 
L 808.720528 134.812557 
L 811.701752 135.088638 
L 814.682975 134.69803 
" clip-path="url(#pd65d9a6f8e)" style="fill: none; stroke: #0000ff; stroke-width: 1.5; stroke-linecap: round"/>
   </g>
   <g id="line2d_31">
    <path d="M 519.542479 127.283959 
L 522.523703 127.623609 
L 525.504913 127.802265 
L 528.486122 128.236497 
L 531.467346 128.681906 
L 534.44857 129.283128 
L 537.429779 129.574346 
L 540.411003 130.544874 
L 543.392212 131.203962 
L 546.373436 131.843224 
L 549.354646 132.313902 
L 552.335869 133.032838 
L 555.317086 133.44589 
L 558.298303 134.028016 
L 561.279526 134.561976 
L 564.260736 135.834594 
L 567.241952 137.764984 
L 570.223169 140.487798 
L 573.204386 142.944395 
L 576.185602 145.903241 
L 579.166812 149.422512 
L 582.148043 153.23986 
L 585.129252 158.844448 
L 588.110469 165.457699 
L 591.091693 173.064381 
L 594.072902 182.115952 
L 597.054126 195.2358 
L 600.035335 208.611373 
L 603.016559 213.425892 
L 605.997776 215.091159 
L 608.978992 215.17897 
L 611.960213 213.70479 
L 614.941422 209.272158 
L 617.922649 196.660398 
L 620.903859 182.927432 
L 623.885076 173.309686 
L 626.866296 165.609813 
L 629.847505 159.189886 
L 632.828732 155.568031 
L 635.809942 153.044298 
L 638.79116 150.392924 
L 641.772382 147.499872 
L 644.753597 145.087864 
L 647.734819 142.713487 
L 650.716025 140.554563 
L 653.697256 139.05984 
L 656.678462 137.532401 
L 659.659684 136.096655 
L 662.640906 134.762271 
L 665.622112 133.67953 
L 668.603334 133.374999 
L 671.584549 133.865356 
L 674.565771 134.650912 
L 677.546985 135.61863 
L 680.528207 137.357134 
L 683.509422 138.620368 
L 686.490635 138.879704 
L 689.47185 138.058245 
L 692.453072 136.685178 
L 695.434287 135.862556 
L 698.415509 134.814805 
L 701.396722 133.911881 
L 704.377939 132.79449 
L 707.359152 131.586236 
L 710.340372 130.632266 
L 713.321596 129.616445 
L 716.302812 128.809316 
L 719.284022 128.044709 
L 722.265238 127.391376 
L 725.246462 127.122321 
L 728.227672 127.313877 
L 731.208895 127.77458 
L 734.190112 128.242647 
L 737.171329 128.879083 
L 740.152538 129.768179 
L 743.133762 130.704344 
L 746.114979 131.186349 
L 749.096195 130.05823 
L 752.077412 130.906209 
L 755.058628 132.030383 
L 758.039838 133.284059 
L 761.021062 134.570831 
L 764.002285 135.805864 
L 766.983509 137.165801 
L 769.964719 138.167972 
L 772.945928 139.497927 
L 775.927152 140.68205 
L 778.908376 141.534288 
L 781.889578 142.866092 
L 784.870802 143.904845 
L 787.852018 143.748997 
L 790.833242 143.526496 
L 793.814438 142.976295 
L 796.795661 142.797076 
L 799.776885 142.599291 
L 802.758109 141.824194 
L 805.739332 142.33974 
L 808.720528 141.532159 
L 811.701752 141.706018 
L 814.682975 141.120608 
" clip-path="url(#pd65d9a6f8e)" style="fill: none; stroke: #0000cd; stroke-width: 1.5; stroke-linecap: round"/>
   </g>
   <g id="line2d_32">
    <path d="M 519.542479 147.954724 
L 522.523703 148.419016 
L 525.504913 148.716045 
L 528.486122 149.23939 
L 531.467346 149.768529 
L 534.44857 150.457034 
L 537.429779 150.819798 
L 540.411003 151.841575 
L 543.392212 152.554023 
L 546.373436 153.228762 
L 549.354646 153.719379 
L 552.335869 154.46171 
L 555.317086 154.894466 
L 558.298303 155.495625 
L 561.279526 156.051861 
L 564.260736 157.34733 
L 567.241952 159.309115 
L 570.223169 162.061081 
L 573.204386 164.554283 
L 576.185602 167.555261 
L 579.166812 171.132888 
L 582.148043 175.012735 
L 585.129252 180.702095 
L 588.110469 187.438317 
L 591.091693 195.188449 
L 594.072902 204.423024 
L 597.054126 217.812269 
L 600.035335 231.49202 
L 603.016559 236.463599 
L 605.997776 238.190448 
L 608.978992 238.279325 
L 611.960213 236.748205 
L 614.941422 232.169521 
L 617.922649 219.268475 
L 620.903859 205.256258 
L 623.885076 195.442096 
L 626.866296 187.593803 
L 629.847505 181.058125 
L 632.828732 177.3669 
L 635.809942 174.792066 
L 638.79116 172.097647 
L 641.772382 169.174332 
L 644.753597 166.716042 
L 647.734819 164.305566 
L 650.716025 162.113552 
L 653.697256 160.594068 
L 656.678462 159.036523 
L 659.659684 157.578073 
L 662.640906 156.224565 
L 665.622112 155.121345 
L 668.603334 154.821393 
L 671.584549 155.338989 
L 674.565771 156.151145 
L 677.546985 157.151524 
L 680.528207 158.934361 
L 683.509422 160.171371 
L 686.490635 160.414838 
L 689.47185 159.595124 
L 692.453072 158.222893 
L 695.434287 157.406978 
L 698.415509 156.360785 
L 701.396722 155.457598 
L 704.377939 154.34051 
L 707.359152 153.127914 
L 710.340372 152.171106 
L 713.321596 151.151679 
L 716.302812 150.338215 
L 719.284022 149.569575 
L 722.265238 148.910416 
L 725.246462 148.638504 
L 728.227672 148.832661 
L 731.208895 149.297482 
L 734.190112 149.767482 
L 737.171329 150.408741 
L 740.152538 151.300148 
L 743.133762 152.241443 
L 746.114979 152.715176 
L 749.096195 151.560341 
L 752.077412 152.418407 
L 755.058628 153.547655 
L 758.039838 154.804727 
L 761.021062 156.099182 
L 764.002285 157.336167 
L 766.983509 158.698594 
L 769.964719 159.7005 
L 772.945928 161.0324 
L 775.927152 162.215739 
L 778.908376 163.067899 
L 781.889578 164.39109 
L 784.870802 165.42539 
L 787.852018 165.240569 
L 790.833242 164.981375 
L 793.814438 164.388301 
L 796.795661 164.156061 
L 799.776885 163.896002 
L 802.758109 163.052262 
L 805.739332 163.490029 
L 808.720528 162.603409 
L 811.701752 162.687607 
L 814.682975 161.99825 
" clip-path="url(#pd65d9a6f8e)" style="fill: none; stroke: #191970; stroke-width: 1.5; stroke-linecap: round"/>
   </g>
   <g id="patch_9">
    <path d="M 504.785455 307.584 
L 504.785455 41.472 
" style="fill: none; stroke: #ffffff; stroke-width: 0.8; stroke-linejoin: miter; stroke-linecap: square"/>
   </g>
   <g id="patch_10">
    <path d="M 829.44 307.584 
L 829.44 41.472 
" style="fill: none; stroke: #ffffff; stroke-width: 0.8; stroke-linejoin: miter; stroke-linecap: square"/>
   </g>
   <g id="patch_11">
    <path d="M 504.785455 307.584 
L 829.44 307.584 
" style="fill: none; stroke: #ffffff; stroke-width: 0.8; stroke-linejoin: miter; stroke-linecap: square"/>
   </g>
   <g id="patch_12">
    <path d="M 504.785455 41.472 
L 829.44 41.472 
" style="fill: none; stroke: #ffffff; stroke-width: 0.8; stroke-linejoin: miter; stroke-linecap: square"/>
   </g>
  </g>
  <g id="text_24">
   <!-- $\mu=1, \sigma=1$ -->
   <g style="fill: #262626" transform="translate(427.68 15.672) scale(0.12 -0.12)">
    <defs>
     <path id="DejaVuSans-Oblique-3bc" d="M -84 -1331 
L 856 3500 
L 1434 3500 
L 1009 1322 
Q 997 1256 987 1175 
Q 978 1094 978 1013 
Q 978 722 1161 565 
Q 1344 409 1684 409 
Q 2147 409 2431 671 
Q 2716 934 2816 1459 
L 3213 3500 
L 3788 3500 
L 3266 809 
Q 3253 750 3248 706 
Q 3244 663 3244 628 
Q 3244 531 3283 486 
Q 3322 441 3406 441 
Q 3438 441 3492 456 
Q 3547 472 3647 513 
L 3559 50 
Q 3422 -19 3297 -55 
Q 3172 -91 3053 -91 
Q 2847 -91 2730 40 
Q 2613 172 2613 403 
Q 2438 153 2195 31 
Q 1953 -91 1625 -91 
Q 1334 -91 1117 43 
Q 900 178 831 397 
L 494 -1331 
L -84 -1331 
z
" transform="scale(0.015625)"/>
     <path id="DejaVuSans-3d" d="M 678 2906 
L 4684 2906 
L 4684 2381 
L 678 2381 
L 678 2906 
z
M 678 1631 
L 4684 1631 
L 4684 1100 
L 678 1100 
L 678 1631 
z
" transform="scale(0.015625)"/>
     <path id="DejaVuSans-31" d="M 794 531 
L 1825 531 
L 1825 4091 
L 703 3866 
L 703 4441 
L 1819 4666 
L 2450 4666 
L 2450 531 
L 3481 531 
L 3481 0 
L 794 0 
L 794 531 
z
" transform="scale(0.015625)"/>
     <path id="DejaVuSans-2c" d="M 750 794 
L 1409 794 
L 1409 256 
L 897 -744 
L 494 -744 
L 750 256 
L 750 794 
z
" transform="scale(0.015625)"/>
     <path id="DejaVuSans-Oblique-3c3" d="M 2219 3044 
Q 1744 3044 1422 2700 
Q 1081 2341 969 1747 
Q 844 1119 1044 756 
Q 1241 397 1706 397 
Q 2166 397 2503 759 
Q 2844 1122 2966 1747 
Q 3075 2319 2881 2700 
Q 2700 3044 2219 3044 
z
M 2309 3503 
L 4219 3500 
L 4106 2925 
L 3463 2925 
Q 3706 2438 3575 1747 
Q 3406 888 2884 400 
Q 2359 -91 1609 -91 
Q 856 -91 525 400 
Q 194 888 363 1747 
Q 528 2609 1050 3097 
Q 1484 3503 2309 3503 
z
" transform="scale(0.015625)"/>
    </defs>
    <use xlink:href="#DejaVuSans-Oblique-3bc" transform="translate(0 0.09375)"/>
    <use xlink:href="#DejaVuSans-3d" transform="translate(83.105469 0.09375)"/>
    <use xlink:href="#DejaVuSans-31" transform="translate(186.376953 0.09375)"/>
    <use xlink:href="#DejaVuSans-2c" transform="translate(250 0.09375)"/>
    <use xlink:href="#DejaVuSans-Oblique-3c3" transform="translate(301.269531 0.09375)"/>
    <use xlink:href="#DejaVuSans-3d" transform="translate(384.130859 0.09375)"/>
    <use xlink:href="#DejaVuSans-31" transform="translate(487.402344 0.09375)"/>
   </g>
  </g>
 </g>
 <defs>
  <clipPath id="p11717aa263">
   <rect x="115.2" y="41.472" width="324.654545" height="266.112"/>
  </clipPath>
  <clipPath id="pd65d9a6f8e">
   <rect x="504.785455" y="41.472" width="324.654545" height="266.112"/>
  </clipPath>
 </defs>
</svg>
