<?xml version="1.0" encoding="utf-8" standalone="no"?>
<!DOCTYPE svg PUBLIC "-//W3C//DTD SVG 1.1//EN"
  "http://www.w3.org/Graphics/SVG/1.1/DTD/svg11.dtd">
<svg xmlns:xlink="http://www.w3.org/1999/xlink" width="460.8pt" height="345.6pt" viewBox="0 0 460.8 345.6" xmlns="http://www.w3.org/2000/svg" version="1.1">
 <metadata>
  <rdf:RDF xmlns:dc="http://purl.org/dc/elements/1.1/" xmlns:cc="http://creativecommons.org/ns#" xmlns:rdf="http://www.w3.org/1999/02/22-rdf-syntax-ns#">
   <cc:Work>
    <dc:type rdf:resource="http://purl.org/dc/dcmitype/StillImage"/>
    <dc:date>2025-04-11T14:13:48.443195</dc:date>
    <dc:format>image/svg+xml</dc:format>
    <dc:creator>
     <cc:Agent>
      <dc:title>Matplotlib v3.10.1, https://matplotlib.org/</dc:title>
     </cc:Agent>
    </dc:creator>
   </cc:Work>
  </rdf:RDF>
 </metadata>
 <defs>
  <style type="text/css">*{stroke-linejoin: round; stroke-linecap: butt}</style>
 </defs>
 <g id="figure_1">
  <g id="patch_1">
   <path d="M 0 345.6 
L 460.8 345.6 
L 460.8 0 
L 0 0 
z
" style="fill: #ffffff"/>
  </g>
  <g id="axes_1">
   <g id="patch_2">
    <path d="M 57.6 307.584 
L 414.72 307.584 
L 414.72 41.472 
L 57.6 41.472 
z
" style="fill: #eaeaf2"/>
   </g>
   <g id="matplotlib.axis_1">
    <g id="xtick_1">
     <g id="line2d_1">
      <path d="M 106.298182 307.584 
L 106.298182 41.472 
" clip-path="url(#pc8829b2fcd)" style="fill: none; stroke: #ffffff; stroke-width: 0.8; stroke-linecap: round"/>
     </g>
     <g id="text_1">
      <!-- −2 -->
      <g style="fill: #262626" transform="translate(100.597401 321.741812) scale(0.1 -0.1)">
       <defs>
        <path id="ArialMT-2212" d="M 3381 1997 
L 356 1997 
L 356 2522 
L 3381 2522 
L 3381 1997 
z
" transform="scale(0.015625)"/>
        <path id="ArialMT-32" d="M 3222 541 
L 3222 0 
L 194 0 
Q 188 203 259 391 
Q 375 700 629 1000 
Q 884 1300 1366 1694 
Q 2113 2306 2375 2664 
Q 2638 3022 2638 3341 
Q 2638 3675 2398 3904 
Q 2159 4134 1775 4134 
Q 1369 4134 1125 3890 
Q 881 3647 878 3216 
L 300 3275 
Q 359 3922 746 4261 
Q 1134 4600 1788 4600 
Q 2447 4600 2831 4234 
Q 3216 3869 3216 3328 
Q 3216 3053 3103 2787 
Q 2991 2522 2730 2228 
Q 2469 1934 1863 1422 
Q 1356 997 1212 845 
Q 1069 694 975 541 
L 3222 541 
z
" transform="scale(0.015625)"/>
       </defs>
       <use xlink:href="#ArialMT-2212"/>
       <use xlink:href="#ArialMT-32" transform="translate(58.398438 0)"/>
      </g>
     </g>
    </g>
    <g id="xtick_2">
     <g id="line2d_2">
      <path d="M 171.229091 307.584 
L 171.229091 41.472 
" clip-path="url(#pc8829b2fcd)" style="fill: none; stroke: #ffffff; stroke-width: 0.8; stroke-linecap: round"/>
     </g>
     <g id="text_2">
      <!-- −1 -->
      <g style="fill: #262626" transform="translate(165.52831 321.741812) scale(0.1 -0.1)">
       <defs>
        <path id="ArialMT-31" d="M 2384 0 
L 1822 0 
L 1822 3584 
Q 1619 3391 1289 3197 
Q 959 3003 697 2906 
L 697 3450 
Q 1169 3672 1522 3987 
Q 1875 4303 2022 4600 
L 2384 4600 
L 2384 0 
z
" transform="scale(0.015625)"/>
       </defs>
       <use xlink:href="#ArialMT-2212"/>
       <use xlink:href="#ArialMT-31" transform="translate(58.398438 0)"/>
      </g>
     </g>
    </g>
    <g id="xtick_3">
     <g id="line2d_3">
      <path d="M 236.16 307.584 
L 236.16 41.472 
" clip-path="url(#pc8829b2fcd)" style="fill: none; stroke: #ffffff; stroke-width: 0.8; stroke-linecap: round"/>
     </g>
     <g id="text_3">
      <!-- 0 -->
      <g style="fill: #262626" transform="translate(233.379531 321.741812) scale(0.1 -0.1)">
       <defs>
        <path id="ArialMT-30" d="M 266 2259 
Q 266 3072 433 3567 
Q 600 4063 929 4331 
Q 1259 4600 1759 4600 
Q 2128 4600 2406 4451 
Q 2684 4303 2865 4023 
Q 3047 3744 3150 3342 
Q 3253 2941 3253 2259 
Q 3253 1453 3087 958 
Q 2922 463 2592 192 
Q 2263 -78 1759 -78 
Q 1097 -78 719 397 
Q 266 969 266 2259 
z
M 844 2259 
Q 844 1131 1108 757 
Q 1372 384 1759 384 
Q 2147 384 2411 759 
Q 2675 1134 2675 2259 
Q 2675 3391 2411 3762 
Q 2147 4134 1753 4134 
Q 1366 4134 1134 3806 
Q 844 3388 844 2259 
z
" transform="scale(0.015625)"/>
       </defs>
       <use xlink:href="#ArialMT-30"/>
      </g>
     </g>
    </g>
    <g id="xtick_4">
     <g id="line2d_4">
      <path d="M 301.090909 307.584 
L 301.090909 41.472 
" clip-path="url(#pc8829b2fcd)" style="fill: none; stroke: #ffffff; stroke-width: 0.8; stroke-linecap: round"/>
     </g>
     <g id="text_4">
      <!-- 1 -->
      <g style="fill: #262626" transform="translate(298.31044 321.741812) scale(0.1 -0.1)">
       <use xlink:href="#ArialMT-31"/>
      </g>
     </g>
    </g>
    <g id="xtick_5">
     <g id="line2d_5">
      <path d="M 366.021818 307.584 
L 366.021818 41.472 
" clip-path="url(#pc8829b2fcd)" style="fill: none; stroke: #ffffff; stroke-width: 0.8; stroke-linecap: round"/>
     </g>
     <g id="text_5">
      <!-- 2 -->
      <g style="fill: #262626" transform="translate(363.241349 321.741812) scale(0.1 -0.1)">
       <use xlink:href="#ArialMT-32"/>
      </g>
     </g>
    </g>
    <g id="text_6">
     <!-- x -->
     <g style="fill: #262626" transform="translate(233.66 334.887125) scale(0.1 -0.1)">
      <defs>
       <path id="ArialMT-78" d="M 47 0 
L 1259 1725 
L 138 3319 
L 841 3319 
L 1350 2541 
Q 1494 2319 1581 2169 
Q 1719 2375 1834 2534 
L 2394 3319 
L 3066 3319 
L 1919 1756 
L 3153 0 
L 2463 0 
L 1781 1031 
L 1600 1309 
L 728 0 
L 47 0 
z
" transform="scale(0.015625)"/>
      </defs>
      <use xlink:href="#ArialMT-78"/>
     </g>
    </g>
   </g>
   <g id="matplotlib.axis_2">
    <g id="ytick_1">
     <g id="line2d_6">
      <path d="M 57.6 307.584 
L 414.72 307.584 
" clip-path="url(#pc8829b2fcd)" style="fill: none; stroke: #ffffff; stroke-width: 0.8; stroke-linecap: round"/>
     </g>
     <g id="text_7">
      <!-- 0.0 -->
      <g style="fill: #262626" transform="translate(36.7 311.162906) scale(0.1 -0.1)">
       <defs>
        <path id="ArialMT-2e" d="M 581 0 
L 581 641 
L 1222 641 
L 1222 0 
L 581 0 
z
" transform="scale(0.015625)"/>
       </defs>
       <use xlink:href="#ArialMT-30"/>
       <use xlink:href="#ArialMT-2e" transform="translate(55.615234 0)"/>
       <use xlink:href="#ArialMT-30" transform="translate(83.398438 0)"/>
      </g>
     </g>
    </g>
    <g id="ytick_2">
     <g id="line2d_7">
      <path d="M 57.6 256.408615 
L 414.72 256.408615 
" clip-path="url(#pc8829b2fcd)" style="fill: none; stroke: #ffffff; stroke-width: 0.8; stroke-linecap: round"/>
     </g>
     <g id="text_8">
      <!-- 0.5 -->
      <g style="fill: #262626" transform="translate(36.7 259.987522) scale(0.1 -0.1)">
       <defs>
        <path id="ArialMT-35" d="M 266 1200 
L 856 1250 
Q 922 819 1161 601 
Q 1400 384 1738 384 
Q 2144 384 2425 690 
Q 2706 997 2706 1503 
Q 2706 1984 2436 2262 
Q 2166 2541 1728 2541 
Q 1456 2541 1237 2417 
Q 1019 2294 894 2097 
L 366 2166 
L 809 4519 
L 3088 4519 
L 3088 3981 
L 1259 3981 
L 1013 2750 
Q 1425 3038 1878 3038 
Q 2478 3038 2890 2622 
Q 3303 2206 3303 1553 
Q 3303 931 2941 478 
Q 2500 -78 1738 -78 
Q 1113 -78 717 272 
Q 322 622 266 1200 
z
" transform="scale(0.015625)"/>
       </defs>
       <use xlink:href="#ArialMT-30"/>
       <use xlink:href="#ArialMT-2e" transform="translate(55.615234 0)"/>
       <use xlink:href="#ArialMT-35" transform="translate(83.398438 0)"/>
      </g>
     </g>
    </g>
    <g id="ytick_3">
     <g id="line2d_8">
      <path d="M 57.6 205.233231 
L 414.72 205.233231 
" clip-path="url(#pc8829b2fcd)" style="fill: none; stroke: #ffffff; stroke-width: 0.8; stroke-linecap: round"/>
     </g>
     <g id="text_9">
      <!-- 1.0 -->
      <g style="fill: #262626" transform="translate(36.7 208.812137) scale(0.1 -0.1)">
       <use xlink:href="#ArialMT-31"/>
       <use xlink:href="#ArialMT-2e" transform="translate(55.615234 0)"/>
       <use xlink:href="#ArialMT-30" transform="translate(83.398438 0)"/>
      </g>
     </g>
    </g>
    <g id="ytick_4">
     <g id="line2d_9">
      <path d="M 57.6 154.057846 
L 414.72 154.057846 
" clip-path="url(#pc8829b2fcd)" style="fill: none; stroke: #ffffff; stroke-width: 0.8; stroke-linecap: round"/>
     </g>
     <g id="text_10">
      <!-- 1.5 -->
      <g style="fill: #262626" transform="translate(36.7 157.636752) scale(0.1 -0.1)">
       <use xlink:href="#ArialMT-31"/>
       <use xlink:href="#ArialMT-2e" transform="translate(55.615234 0)"/>
       <use xlink:href="#ArialMT-35" transform="translate(83.398438 0)"/>
      </g>
     </g>
    </g>
    <g id="ytick_5">
     <g id="line2d_10">
      <path d="M 57.6 102.882462 
L 414.72 102.882462 
" clip-path="url(#pc8829b2fcd)" style="fill: none; stroke: #ffffff; stroke-width: 0.8; stroke-linecap: round"/>
     </g>
     <g id="text_11">
      <!-- 2.0 -->
      <g style="fill: #262626" transform="translate(36.7 106.461368) scale(0.1 -0.1)">
       <use xlink:href="#ArialMT-32"/>
       <use xlink:href="#ArialMT-2e" transform="translate(55.615234 0)"/>
       <use xlink:href="#ArialMT-30" transform="translate(83.398438 0)"/>
      </g>
     </g>
    </g>
    <g id="ytick_6">
     <g id="line2d_11">
      <path d="M 57.6 51.707077 
L 414.72 51.707077 
" clip-path="url(#pc8829b2fcd)" style="fill: none; stroke: #ffffff; stroke-width: 0.8; stroke-linecap: round"/>
     </g>
     <g id="text_12">
      <!-- 2.5 -->
      <g style="fill: #262626" transform="translate(36.7 55.285983) scale(0.1 -0.1)">
       <use xlink:href="#ArialMT-32"/>
       <use xlink:href="#ArialMT-2e" transform="translate(55.615234 0)"/>
       <use xlink:href="#ArialMT-35" transform="translate(83.398438 0)"/>
      </g>
     </g>
    </g>
    <g id="text_13">
     <!-- $\mathcal{W}(\delta_x P_{\mu,\sigma}, \pi)$ -->
     <g style="fill: #262626" transform="translate(29.6 203.478) rotate(-90) scale(0.1 -0.1)">
      <defs>
       <path id="STIXNonUnicode-Italic-e243" d="M 4634 736 
L 4672 717 
Q 4742 794 4931 1008 
Q 5120 1222 5248 1369 
Q 5376 1517 5545 1757 
Q 5715 1997 5837 2234 
Q 6131 2803 6131 3245 
Q 6131 3936 5741 3936 
Q 5696 3936 5661 3885 
Q 5626 3834 5606 3776 
Q 5587 3718 5529 3667 
Q 5472 3616 5382 3616 
Q 5229 3616 5145 3715 
Q 5062 3814 5062 3962 
Q 5062 4173 5209 4278 
Q 5357 4384 5594 4384 
Q 5965 4384 6176 4073 
Q 6387 3763 6387 3290 
Q 6387 2906 6236 2506 
Q 6086 2106 5814 1718 
Q 5542 1331 5289 1027 
Q 5037 723 4697 352 
Q 4358 -19 4211 -205 
L 4045 -205 
L 4045 230 
Q 4045 1306 3936 2099 
Q 3827 2893 3475 3373 
L 3430 3373 
L 1363 -205 
L 1171 -205 
Q 1459 1581 1459 2624 
Q 1459 4006 602 4006 
Q 448 4006 307 3891 
L 211 4013 
Q 486 4237 915 4237 
Q 1184 4237 1389 4157 
Q 1594 4077 1722 3923 
Q 1850 3770 1933 3590 
Q 2016 3411 2054 3155 
Q 2093 2899 2105 2684 
Q 2118 2470 2118 2182 
Q 2118 1920 2099 1658 
L 2138 1658 
L 3398 3846 
L 3686 4160 
Q 4077 3738 4365 2950 
Q 4653 2163 4653 1395 
Q 4653 966 4634 736 
z
" transform="scale(0.015625)"/>
       <path id="DejaVuSans-28" d="M 1984 4856 
Q 1566 4138 1362 3434 
Q 1159 2731 1159 2009 
Q 1159 1288 1364 580 
Q 1569 -128 1984 -844 
L 1484 -844 
Q 1016 -109 783 600 
Q 550 1309 550 2009 
Q 550 2706 781 3412 
Q 1013 4119 1484 4856 
L 1984 4856 
z
" transform="scale(0.015625)"/>
       <path id="DejaVuSans-Oblique-3b4" d="M 3472 4053 
Q 3197 4272 2450 4272 
Q 1659 4272 1588 3906 
Q 1531 3619 2328 3469 
Q 2953 3353 3253 3003 
Q 3616 2581 3447 1716 
Q 3284 888 2763 400 
Q 2238 -91 1488 -91 
Q 741 -91 406 400 
Q 72 888 241 1747 
Q 363 2384 891 2900 
Q 1097 3100 1353 3213 
Q 913 3459 1000 3900 
Q 1166 4750 2544 4750 
Q 3234 4750 3566 4531 
L 3472 4053 
z
M 1753 3056 
Q 1525 2966 1306 2738 
Q 969 2384 847 1747 
Q 722 1113 919 756 
Q 1119 397 1584 397 
Q 2044 397 2381 759 
Q 2722 1122 2838 1716 
Q 2956 2338 2731 2638 
Q 2491 2959 2103 2994 
Q 1906 3013 1753 3056 
z
" transform="scale(0.015625)"/>
       <path id="DejaVuSans-Oblique-78" d="M 3841 3500 
L 2234 1784 
L 3219 0 
L 2559 0 
L 1819 1388 
L 531 0 
L -166 0 
L 1556 1844 
L 641 3500 
L 1300 3500 
L 1972 2234 
L 3144 3500 
L 3841 3500 
z
" transform="scale(0.015625)"/>
       <path id="DejaVuSans-Oblique-50" d="M 1081 4666 
L 2541 4666 
Q 3178 4666 3512 4369 
Q 3847 4072 3847 3500 
Q 3847 2731 3353 2303 
Q 2859 1875 1966 1875 
L 1172 1875 
L 806 0 
L 172 0 
L 1081 4666 
z
M 1613 4147 
L 1275 2394 
L 2069 2394 
Q 2606 2394 2893 2669 
Q 3181 2944 3181 3456 
Q 3181 3784 2986 3965 
Q 2791 4147 2438 4147 
L 1613 4147 
z
" transform="scale(0.015625)"/>
       <path id="DejaVuSans-Oblique-3bc" d="M -84 -1331 
L 856 3500 
L 1434 3500 
L 1009 1322 
Q 997 1256 987 1175 
Q 978 1094 978 1013 
Q 978 722 1161 565 
Q 1344 409 1684 409 
Q 2147 409 2431 671 
Q 2716 934 2816 1459 
L 3213 3500 
L 3788 3500 
L 3266 809 
Q 3253 750 3248 706 
Q 3244 663 3244 628 
Q 3244 531 3283 486 
Q 3322 441 3406 441 
Q 3438 441 3492 456 
Q 3547 472 3647 513 
L 3559 50 
Q 3422 -19 3297 -55 
Q 3172 -91 3053 -91 
Q 2847 -91 2730 40 
Q 2613 172 2613 403 
Q 2438 153 2195 31 
Q 1953 -91 1625 -91 
Q 1334 -91 1117 43 
Q 900 178 831 397 
L 494 -1331 
L -84 -1331 
z
" transform="scale(0.015625)"/>
       <path id="DejaVuSans-2c" d="M 750 794 
L 1409 794 
L 1409 256 
L 897 -744 
L 494 -744 
L 750 256 
L 750 794 
z
" transform="scale(0.015625)"/>
       <path id="DejaVuSans-Oblique-3c3" d="M 2219 3044 
Q 1744 3044 1422 2700 
Q 1081 2341 969 1747 
Q 844 1119 1044 756 
Q 1241 397 1706 397 
Q 2166 397 2503 759 
Q 2844 1122 2966 1747 
Q 3075 2319 2881 2700 
Q 2700 3044 2219 3044 
z
M 2309 3503 
L 4219 3500 
L 4106 2925 
L 3463 2925 
Q 3706 2438 3575 1747 
Q 3406 888 2884 400 
Q 2359 -91 1609 -91 
Q 856 -91 525 400 
Q 194 888 363 1747 
Q 528 2609 1050 3097 
Q 1484 3503 2309 3503 
z
" transform="scale(0.015625)"/>
       <path id="DejaVuSans-Oblique-3c0" d="M 584 3500 
L 3938 3500 
L 3825 2925 
L 3384 2925 
L 2966 775 
Q 2922 550 2981 450 
Q 3038 353 3209 353 
Q 3256 353 3325 363 
Q 3397 369 3419 372 
L 3338 -44 
Q 3222 -84 3103 -103 
Q 2981 -122 2866 -122 
Q 2491 -122 2388 81 
Q 2284 288 2391 838 
L 2797 2925 
L 1506 2925 
L 938 0 
L 350 0 
L 919 2925 
L 472 2925 
L 584 3500 
z
" transform="scale(0.015625)"/>
       <path id="DejaVuSans-29" d="M 513 4856 
L 1013 4856 
Q 1481 4119 1714 3412 
Q 1947 2706 1947 2009 
Q 1947 1309 1714 600 
Q 1481 -109 1013 -844 
L 513 -844 
Q 928 -128 1133 580 
Q 1338 1288 1338 2009 
Q 1338 2731 1133 3434 
Q 928 4138 513 4856 
z
" transform="scale(0.015625)"/>
      </defs>
      <use xlink:href="#STIXNonUnicode-Italic-e243" transform="translate(0 0.125)"/>
      <use xlink:href="#DejaVuSans-28" transform="translate(95.599991 0.125)"/>
      <use xlink:href="#DejaVuSans-Oblique-3b4" transform="translate(134.613663 0.125)"/>
      <use xlink:href="#DejaVuSans-Oblique-78" transform="translate(195.795303 -16.28125) scale(0.7)"/>
      <use xlink:href="#DejaVuSans-Oblique-50" transform="translate(239.95546 0.125)"/>
      <use xlink:href="#DejaVuSans-Oblique-3bc" transform="translate(300.258194 -16.28125) scale(0.7)"/>
      <use xlink:href="#DejaVuSans-2c" transform="translate(344.794327 -16.28125) scale(0.7)"/>
      <use xlink:href="#DejaVuSans-Oblique-3c3" transform="translate(380.682999 -16.28125) scale(0.7)"/>
      <use xlink:href="#DejaVuSans-2c" transform="translate(427.782608 0.125)"/>
      <use xlink:href="#DejaVuSans-Oblique-3c0" transform="translate(479.052139 0.125)"/>
      <use xlink:href="#DejaVuSans-29" transform="translate(539.257217 0.125)"/>
     </g>
    </g>
   </g>
   <g id="line2d_12">
    <path d="M 73.832727 51.726379 
L 77.112073 56.895597 
L 80.391404 62.064863 
L 83.670734 67.234057 
L 86.95008 72.403348 
L 90.229426 77.572541 
L 93.508757 82.741759 
L 96.788103 87.911001 
L 100.067434 93.080218 
L 103.34678 98.249461 
L 106.62611 103.41869 
L 109.905456 108.587933 
L 113.184795 113.75715 
L 116.464133 118.926392 
L 119.743479 124.095622 
L 123.022809 129.264852 
L 126.302148 134.43407 
L 129.581486 139.603312 
L 132.860824 144.772542 
L 136.140163 149.941772 
L 139.419493 155.110989 
L 142.698847 160.280244 
L 145.978178 165.449315 
L 149.257516 170.61763 
L 152.536862 175.781626 
L 155.816192 180.926002 
L 159.095538 186.0021 
L 162.374869 190.887738 
L 165.654215 195.355011 
L 168.933553 199.103635 
L 172.212892 201.88877 
L 175.492234 203.669103 
L 178.771564 204.631494 
L 182.050914 205.051336 
L 185.330245 205.203558 
L 188.609583 205.244291 
L 191.888925 205.25393 
L 195.168256 205.256175 
L 198.447606 205.25684 
L 201.726936 205.257255 
L 205.006277 205.25767 
L 208.285621 205.258072 
L 211.564957 205.258499 
L 214.844301 205.258908 
L 218.123628 205.259323 
L 221.402982 205.259732 
L 224.682308 205.260147 
L 227.961652 205.260549 
L 231.240996 205.26097 
L 234.520323 205.261379 
L 237.799667 205.261806 
L 241.079004 205.262209 
L 244.358348 205.262629 
L 247.637684 205.263044 
L 250.917028 205.263441 
L 254.196364 205.26388 
L 257.475699 205.264283 
L 260.755035 205.264698 
L 264.034379 205.265106 
L 267.313716 205.265527 
L 270.59306 205.265948 
L 273.872394 205.266351 
L 277.151733 205.266607 
L 280.431067 205.265741 
L 283.710409 205.256565 
L 286.989755 205.213233 
L 290.269093 205.061487 
L 293.548424 204.639522 
L 296.827762 203.684061 
L 300.107108 201.896689 
L 303.386439 199.0974 
L 306.665785 195.334598 
L 309.945123 190.860749 
L 313.224462 185.969303 
L 316.503792 180.891106 
L 319.783138 175.744119 
L 323.062476 170.579452 
L 326.341815 165.410869 
L 329.621153 160.241627 
L 332.900491 155.072397 
L 336.179822 149.90318 
L 339.459168 144.733937 
L 342.738514 139.564695 
L 346.01786 134.395441 
L 349.297191 129.226248 
L 352.576521 124.057018 
L 355.855867 118.887776 
L 359.135213 113.718534 
L 362.414536 108.54934 
L 365.693882 103.38011 
L 368.97322 98.210856 
L 372.252566 93.04159 
L 375.531881 87.872421 
L 378.811227 82.703179 
L 382.090574 77.533961 
L 385.36992 72.364694 
L 388.649266 67.195452 
L 391.928581 62.026259 
L 395.207927 56.857017 
L 398.487273 51.687775 
" clip-path="url(#pc8829b2fcd)" style="fill: none; stroke-dasharray: 5.55,2.4; stroke-dashoffset: 0; stroke: #808080; stroke-width: 1.5"/>
   </g>
   <g id="line2d_13">
    <path d="M 73.832727 224.930348 
L 77.112073 225.017483 
L 80.391404 225.044569 
L 83.670734 225.078226 
L 86.95008 225.195473 
L 90.229426 225.204069 
L 93.508757 225.157028 
L 96.788103 225.280772 
L 100.067434 225.134413 
L 103.34678 226.870888 
L 106.62611 233.44316 
L 109.905456 240.007819 
L 113.184795 246.544079 
L 116.464133 252.373282 
L 119.743479 257.202155 
L 123.022809 261.350471 
L 126.302148 264.42531 
L 129.581486 266.704664 
L 132.860824 268.238277 
L 136.140163 268.936311 
L 139.419493 267.681251 
L 142.698847 266.302401 
L 145.978178 263.941836 
L 149.257516 260.163843 
L 152.536862 255.682408 
L 155.816192 249.224608 
L 159.095538 242.671943 
L 162.374869 236.436606 
L 165.654215 230.644995 
L 168.933553 227.354286 
L 172.212892 228.081061 
L 175.492234 232.608979 
L 178.771564 239.278976 
L 182.050914 244.9698 
L 185.330245 251.443633 
L 188.609583 258.091311 
L 191.888925 262.286968 
L 195.168256 264.608843 
L 198.447606 267.233914 
L 201.726936 268.680657 
L 205.006277 268.3195 
L 208.285621 266.747627 
L 211.564957 265.221979 
L 214.844301 262.265112 
L 218.123628 258.294342 
L 221.402982 253.688647 
L 224.682308 247.712237 
L 227.961652 241.047285 
L 231.240996 233.596645 
L 234.520323 224.617614 
L 237.799667 224.662575 
L 241.079004 233.611341 
L 244.358348 240.926981 
L 247.637684 247.553384 
L 250.917028 253.445984 
L 254.196364 258.384344 
L 257.475699 262.21205 
L 260.755035 265.147286 
L 264.034379 267.313752 
L 267.313716 268.686874 
L 270.59306 268.350457 
L 273.872394 266.950453 
L 277.151733 265.210574 
L 280.431067 261.946128 
L 283.710409 257.108078 
L 286.989755 251.266295 
L 290.269093 245.411952 
L 293.548424 238.723787 
L 296.827762 232.511858 
L 300.107108 228.242342 
L 303.386439 227.030046 
L 306.665785 230.539052 
L 309.945123 236.278564 
L 313.224462 242.512614 
L 316.503792 249.041023 
L 319.783138 254.898294 
L 323.062476 260.449695 
L 326.341815 264.090821 
L 329.621153 266.177147 
L 332.900491 267.921648 
L 336.179822 268.945685 
L 339.459168 268.071722 
L 342.738514 267.015736 
L 346.01786 264.60262 
L 349.297191 261.30485 
L 352.576521 257.407689 
L 355.855867 252.459508 
L 359.135213 246.692793 
L 362.414536 240.07645 
L 365.693882 233.688513 
L 368.97322 227.025239 
L 372.252566 225.18725 
L 375.531881 225.116501 
L 378.811227 225.107332 
L 382.090574 225.073114 
L 385.36992 225.158656 
L 388.649266 224.989707 
L 391.928581 225.151751 
L 395.207927 224.842768 
L 398.487273 225.034144 
" clip-path="url(#pc8829b2fcd)" style="fill: none; stroke: #ffa500; stroke-width: 1.5; stroke-linecap: round"/>
   </g>
   <g id="line2d_14">
    <path d="M 73.832727 257.344234 
L 77.112073 257.860862 
L 80.391404 258.050767 
L 83.670734 258.636304 
L 86.95008 258.993602 
L 90.229426 259.482119 
L 93.508757 259.842016 
L 96.788103 260.372529 
L 100.067434 260.537925 
L 103.34678 260.728135 
L 106.62611 261.358185 
L 109.905456 262.803022 
L 113.184795 264.897586 
L 116.464133 268.460707 
L 119.743479 271.902057 
L 123.022809 275.363994 
L 126.302148 278.551456 
L 129.581486 280.601825 
L 132.860824 280.207321 
L 136.140163 279.323308 
L 139.419493 276.671675 
L 142.698847 274.09787 
L 145.978178 269.439933 
L 149.257516 264.501387 
L 152.536862 258.623459 
L 155.816192 251.518804 
L 159.095538 244.474591 
L 162.374869 237.782711 
L 165.654215 232.169798 
L 168.933553 228.125278 
L 172.212892 228.077315 
L 175.492234 232.106328 
L 178.771564 238.127211 
L 182.050914 244.431625 
L 185.330245 251.476149 
L 188.609583 258.05756 
L 191.888925 264.427552 
L 195.168256 269.207717 
L 198.447606 273.40438 
L 201.726936 276.350052 
L 205.006277 278.311303 
L 208.285621 279.372762 
L 211.564957 279.684111 
L 214.844301 277.989961 
L 218.123628 274.406544 
L 221.402982 270.811066 
L 224.682308 267.948914 
L 227.961652 265.442283 
L 231.240996 263.693899 
L 234.520323 261.812626 
L 237.799667 261.609684 
L 241.079004 263.679959 
L 244.358348 265.461701 
L 247.637684 267.949079 
L 250.917028 271.161331 
L 254.196364 274.626836 
L 257.475699 277.771762 
L 260.755035 279.610132 
L 264.034379 279.259322 
L 267.313716 278.120767 
L 270.59306 276.362235 
L 273.872394 272.909111 
L 277.151733 269.599921 
L 280.431067 264.45717 
L 283.710409 258.412129 
L 286.989755 251.316857 
L 290.269093 244.453105 
L 293.548424 237.784981 
L 296.827762 232.109634 
L 300.107108 227.988399 
L 303.386439 228.116352 
L 306.665785 231.904972 
L 309.945123 238.119177 
L 313.224462 244.57741 
L 316.503792 251.599472 
L 319.783138 257.992308 
L 323.062476 264.698951 
L 326.341815 269.384658 
L 329.621153 273.73383 
L 332.900491 276.695873 
L 336.179822 278.991021 
L 339.459168 280.111234 
L 342.738514 280.456506 
L 346.01786 278.60663 
L 349.297191 275.385843 
L 352.576521 272.004022 
L 355.855867 268.157545 
L 359.135213 264.910224 
L 362.414536 262.569785 
L 365.693882 261.129144 
L 368.97322 260.574806 
L 372.252566 260.403114 
L 375.531881 260.11837 
L 378.811227 259.987479 
L 382.090574 259.496446 
L 385.36992 259.121672 
L 388.649266 258.619289 
L 391.928581 258.11144 
L 395.207927 257.564282 
L 398.487273 257.228686 
" clip-path="url(#pc8829b2fcd)" style="fill: none; stroke: #0000ff; stroke-width: 1.5; stroke-linecap: round"/>
   </g>
   <g id="line2d_15">
    <path d="M 73.832727 249.084581 
L 77.112073 251.003317 
L 80.391404 252.61833 
L 83.670734 254.264218 
L 86.95008 256.01755 
L 90.229426 257.439839 
L 93.508757 259.036404 
L 96.788103 260.531529 
L 100.067434 261.898763 
L 103.34678 263.370535 
L 106.62611 264.680717 
L 109.905456 266.742765 
L 113.184795 268.772541 
L 116.464133 270.424051 
L 119.743479 271.774357 
L 123.022809 272.807228 
L 126.302148 273.167839 
L 129.581486 273.39102 
L 132.860824 273.342407 
L 136.140163 271.861998 
L 139.419493 270.447947 
L 142.698847 268.381125 
L 145.978178 264.509891 
L 149.257516 259.939498 
L 152.536862 255.646512 
L 155.816192 250.085784 
L 159.095538 244.376482 
L 162.374869 239.260266 
L 165.654215 233.345984 
L 168.933553 229.372456 
L 172.212892 228.238748 
L 175.492234 231.768703 
L 178.771564 237.014148 
L 182.050914 242.876574 
L 185.330245 248.751166 
L 188.609583 253.650829 
L 191.888925 258.614674 
L 195.168256 262.826036 
L 198.447606 267.011029 
L 201.726936 269.993545 
L 205.006277 271.264803 
L 208.285621 272.7599 
L 211.564957 273.31239 
L 214.844301 273.453151 
L 218.123628 272.882997 
L 221.402982 272.295331 
L 224.682308 271.251494 
L 227.961652 269.54126 
L 231.240996 267.607855 
L 234.520323 265.486289 
L 237.799667 265.519635 
L 241.079004 267.736413 
L 244.358348 269.340527 
L 247.637684 270.972707 
L 250.917028 272.43382 
L 254.196364 272.666756 
L 257.475699 273.484697 
L 260.755035 273.581456 
L 264.034379 272.667165 
L 267.313716 271.745416 
L 270.59306 269.975384 
L 273.872394 267.070009 
L 277.151733 262.524744 
L 280.431067 258.610608 
L 283.710409 253.327163 
L 286.989755 248.381568 
L 290.269093 242.595063 
L 293.548424 236.772327 
L 296.827762 231.337197 
L 300.107108 228.438109 
L 303.386439 229.31813 
L 306.665785 233.309631 
L 309.945123 238.725556 
L 313.224462 244.548158 
L 316.503792 250.433938 
L 319.783138 255.609256 
L 323.062476 259.791909 
L 326.341815 264.627916 
L 329.621153 267.875936 
L 332.900491 270.685589 
L 336.179822 272.551775 
L 339.459168 272.769844 
L 342.738514 273.493943 
L 346.01786 273.383184 
L 349.297191 272.826448 
L 352.576521 271.934296 
L 355.855867 270.333314 
L 359.135213 268.811067 
L 362.414536 266.761958 
L 365.693882 264.493313 
L 368.97322 263.144441 
L 372.252566 261.764648 
L 375.531881 260.455418 
L 378.811227 259.121901 
L 382.090574 257.457461 
L 385.36992 256.139635 
L 388.649266 254.293641 
L 391.928581 252.753836 
L 395.207927 250.821605 
L 398.487273 249.472017 
" clip-path="url(#pc8829b2fcd)" style="fill: none; stroke: #ff0000; stroke-width: 1.5; stroke-linecap: round"/>
   </g>
   <g id="patch_3">
    <path d="M 57.6 307.584 
L 57.6 41.472 
" style="fill: none; stroke: #ffffff; stroke-width: 0.8; stroke-linejoin: miter; stroke-linecap: square"/>
   </g>
   <g id="patch_4">
    <path d="M 414.72 307.584 
L 414.72 41.472 
" style="fill: none; stroke: #ffffff; stroke-width: 0.8; stroke-linejoin: miter; stroke-linecap: square"/>
   </g>
   <g id="patch_5">
    <path d="M 57.6 307.584 
L 414.72 307.584 
" style="fill: none; stroke: #ffffff; stroke-width: 0.8; stroke-linejoin: miter; stroke-linecap: square"/>
   </g>
   <g id="patch_6">
    <path d="M 57.6 41.472 
L 414.72 41.472 
" style="fill: none; stroke: #ffffff; stroke-width: 0.8; stroke-linejoin: miter; stroke-linecap: square"/>
   </g>
   <g id="legend_1">
    <g id="patch_7">
     <path d="M 311.02 205.05925 
L 407.72 205.05925 
Q 409.72 205.05925 409.72 203.05925 
L 409.72 145.99675 
Q 409.72 143.99675 407.72 143.99675 
L 311.02 143.99675 
Q 309.02 143.99675 309.02 145.99675 
L 309.02 203.05925 
Q 309.02 205.05925 311.02 205.05925 
z
" style="fill: #eaeaf2; opacity: 0.8; stroke: #cccccc; stroke-linejoin: miter"/>
    </g>
    <g id="line2d_16">
     <path d="M 313.02 151.654562 
L 323.02 151.654562 
L 333.02 151.654562 
" style="fill: none; stroke-dasharray: 5.55,2.4; stroke-dashoffset: 0; stroke: #808080; stroke-width: 1.5"/>
    </g>
    <g id="text_14">
     <!-- eccentricity -->
     <g style="fill: #262626" transform="translate(341.02 155.154562) scale(0.1 -0.1)">
      <defs>
       <path id="ArialMT-65" d="M 2694 1069 
L 3275 997 
Q 3138 488 2766 206 
Q 2394 -75 1816 -75 
Q 1088 -75 661 373 
Q 234 822 234 1631 
Q 234 2469 665 2931 
Q 1097 3394 1784 3394 
Q 2450 3394 2872 2941 
Q 3294 2488 3294 1666 
Q 3294 1616 3291 1516 
L 816 1516 
Q 847 969 1125 678 
Q 1403 388 1819 388 
Q 2128 388 2347 550 
Q 2566 713 2694 1069 
z
M 847 1978 
L 2700 1978 
Q 2663 2397 2488 2606 
Q 2219 2931 1791 2931 
Q 1403 2931 1139 2672 
Q 875 2413 847 1978 
z
" transform="scale(0.015625)"/>
       <path id="ArialMT-63" d="M 2588 1216 
L 3141 1144 
Q 3050 572 2676 248 
Q 2303 -75 1759 -75 
Q 1078 -75 664 370 
Q 250 816 250 1647 
Q 250 2184 428 2587 
Q 606 2991 970 3192 
Q 1334 3394 1763 3394 
Q 2303 3394 2647 3120 
Q 2991 2847 3088 2344 
L 2541 2259 
Q 2463 2594 2264 2762 
Q 2066 2931 1784 2931 
Q 1359 2931 1093 2626 
Q 828 2322 828 1663 
Q 828 994 1084 691 
Q 1341 388 1753 388 
Q 2084 388 2306 591 
Q 2528 794 2588 1216 
z
" transform="scale(0.015625)"/>
       <path id="ArialMT-6e" d="M 422 0 
L 422 3319 
L 928 3319 
L 928 2847 
Q 1294 3394 1984 3394 
Q 2284 3394 2536 3286 
Q 2788 3178 2913 3003 
Q 3038 2828 3088 2588 
Q 3119 2431 3119 2041 
L 3119 0 
L 2556 0 
L 2556 2019 
Q 2556 2363 2490 2533 
Q 2425 2703 2258 2804 
Q 2091 2906 1866 2906 
Q 1506 2906 1245 2678 
Q 984 2450 984 1813 
L 984 0 
L 422 0 
z
" transform="scale(0.015625)"/>
       <path id="ArialMT-74" d="M 1650 503 
L 1731 6 
Q 1494 -44 1306 -44 
Q 1000 -44 831 53 
Q 663 150 594 308 
Q 525 466 525 972 
L 525 2881 
L 113 2881 
L 113 3319 
L 525 3319 
L 525 4141 
L 1084 4478 
L 1084 3319 
L 1650 3319 
L 1650 2881 
L 1084 2881 
L 1084 941 
Q 1084 700 1114 631 
Q 1144 563 1211 522 
Q 1278 481 1403 481 
Q 1497 481 1650 503 
z
" transform="scale(0.015625)"/>
       <path id="ArialMT-72" d="M 416 0 
L 416 3319 
L 922 3319 
L 922 2816 
Q 1116 3169 1280 3281 
Q 1444 3394 1641 3394 
Q 1925 3394 2219 3213 
L 2025 2691 
Q 1819 2813 1613 2813 
Q 1428 2813 1281 2702 
Q 1134 2591 1072 2394 
Q 978 2094 978 1738 
L 978 0 
L 416 0 
z
" transform="scale(0.015625)"/>
       <path id="ArialMT-69" d="M 425 3934 
L 425 4581 
L 988 4581 
L 988 3934 
L 425 3934 
z
M 425 0 
L 425 3319 
L 988 3319 
L 988 0 
L 425 0 
z
" transform="scale(0.015625)"/>
       <path id="ArialMT-79" d="M 397 -1278 
L 334 -750 
Q 519 -800 656 -800 
Q 844 -800 956 -737 
Q 1069 -675 1141 -563 
Q 1194 -478 1313 -144 
Q 1328 -97 1363 -6 
L 103 3319 
L 709 3319 
L 1400 1397 
Q 1534 1031 1641 628 
Q 1738 1016 1872 1384 
L 2581 3319 
L 3144 3319 
L 1881 -56 
Q 1678 -603 1566 -809 
Q 1416 -1088 1222 -1217 
Q 1028 -1347 759 -1347 
Q 597 -1347 397 -1278 
z
" transform="scale(0.015625)"/>
      </defs>
      <use xlink:href="#ArialMT-65"/>
      <use xlink:href="#ArialMT-63" transform="translate(55.615234 0)"/>
      <use xlink:href="#ArialMT-63" transform="translate(105.615234 0)"/>
      <use xlink:href="#ArialMT-65" transform="translate(155.615234 0)"/>
      <use xlink:href="#ArialMT-6e" transform="translate(211.230469 0)"/>
      <use xlink:href="#ArialMT-74" transform="translate(266.845703 0)"/>
      <use xlink:href="#ArialMT-72" transform="translate(294.628906 0)"/>
      <use xlink:href="#ArialMT-69" transform="translate(327.929688 0)"/>
      <use xlink:href="#ArialMT-63" transform="translate(350.146484 0)"/>
      <use xlink:href="#ArialMT-69" transform="translate(400.146484 0)"/>
      <use xlink:href="#ArialMT-74" transform="translate(422.363281 0)"/>
      <use xlink:href="#ArialMT-79" transform="translate(450.146484 0)"/>
     </g>
    </g>
    <g id="line2d_17">
     <path d="M 313.02 166.25925 
L 323.02 166.25925 
L 333.02 166.25925 
" style="fill: none; stroke: #ffa500; stroke-width: 1.5; stroke-linecap: round"/>
    </g>
    <g id="text_15">
     <!-- $\mu=0, \sigma = 0.1$ -->
     <g style="fill: #262626" transform="translate(341.02 169.75925) scale(0.1 -0.1)">
      <defs>
       <path id="DejaVuSans-3d" d="M 678 2906 
L 4684 2906 
L 4684 2381 
L 678 2381 
L 678 2906 
z
M 678 1631 
L 4684 1631 
L 4684 1100 
L 678 1100 
L 678 1631 
z
" transform="scale(0.015625)"/>
       <path id="DejaVuSans-30" d="M 2034 4250 
Q 1547 4250 1301 3770 
Q 1056 3291 1056 2328 
Q 1056 1369 1301 889 
Q 1547 409 2034 409 
Q 2525 409 2770 889 
Q 3016 1369 3016 2328 
Q 3016 3291 2770 3770 
Q 2525 4250 2034 4250 
z
M 2034 4750 
Q 2819 4750 3233 4129 
Q 3647 3509 3647 2328 
Q 3647 1150 3233 529 
Q 2819 -91 2034 -91 
Q 1250 -91 836 529 
Q 422 1150 422 2328 
Q 422 3509 836 4129 
Q 1250 4750 2034 4750 
z
" transform="scale(0.015625)"/>
       <path id="DejaVuSans-2e" d="M 684 794 
L 1344 794 
L 1344 0 
L 684 0 
L 684 794 
z
" transform="scale(0.015625)"/>
       <path id="DejaVuSans-31" d="M 794 531 
L 1825 531 
L 1825 4091 
L 703 3866 
L 703 4441 
L 1819 4666 
L 2450 4666 
L 2450 531 
L 3481 531 
L 3481 0 
L 794 0 
L 794 531 
z
" transform="scale(0.015625)"/>
      </defs>
      <use xlink:href="#DejaVuSans-Oblique-3bc" transform="translate(0 0.78125)"/>
      <use xlink:href="#DejaVuSans-3d" transform="translate(83.105469 0.78125)"/>
      <use xlink:href="#DejaVuSans-30" transform="translate(186.376953 0.78125)"/>
      <use xlink:href="#DejaVuSans-2c" transform="translate(250 0.78125)"/>
      <use xlink:href="#DejaVuSans-Oblique-3c3" transform="translate(301.269531 0.78125)"/>
      <use xlink:href="#DejaVuSans-3d" transform="translate(384.130859 0.78125)"/>
      <use xlink:href="#DejaVuSans-30" transform="translate(487.402344 0.78125)"/>
      <use xlink:href="#DejaVuSans-2e" transform="translate(551.025391 0.78125)"/>
      <use xlink:href="#DejaVuSans-31" transform="translate(582.8125 0.78125)"/>
     </g>
    </g>
    <g id="line2d_18">
     <path d="M 313.02 180.85925 
L 323.02 180.85925 
L 333.02 180.85925 
" style="fill: none; stroke: #0000ff; stroke-width: 1.5; stroke-linecap: round"/>
    </g>
    <g id="text_16">
     <!-- $\mu=0, \sigma = 1$ -->
     <g style="fill: #262626" transform="translate(341.02 184.35925) scale(0.1 -0.1)">
      <use xlink:href="#DejaVuSans-Oblique-3bc" transform="translate(0 0.78125)"/>
      <use xlink:href="#DejaVuSans-3d" transform="translate(83.105469 0.78125)"/>
      <use xlink:href="#DejaVuSans-30" transform="translate(186.376953 0.78125)"/>
      <use xlink:href="#DejaVuSans-2c" transform="translate(250 0.78125)"/>
      <use xlink:href="#DejaVuSans-Oblique-3c3" transform="translate(301.269531 0.78125)"/>
      <use xlink:href="#DejaVuSans-3d" transform="translate(384.130859 0.78125)"/>
      <use xlink:href="#DejaVuSans-31" transform="translate(487.402344 0.78125)"/>
     </g>
    </g>
    <g id="line2d_19">
     <path d="M 313.02 195.45925 
L 323.02 195.45925 
L 333.02 195.45925 
" style="fill: none; stroke: #ff0000; stroke-width: 1.5; stroke-linecap: round"/>
    </g>
    <g id="text_17">
     <!-- $\mu=0, \sigma = 10$ -->
     <g style="fill: #262626" transform="translate(341.02 198.95925) scale(0.1 -0.1)">
      <use xlink:href="#DejaVuSans-Oblique-3bc" transform="translate(0 0.78125)"/>
      <use xlink:href="#DejaVuSans-3d" transform="translate(83.105469 0.78125)"/>
      <use xlink:href="#DejaVuSans-30" transform="translate(186.376953 0.78125)"/>
      <use xlink:href="#DejaVuSans-2c" transform="translate(250 0.78125)"/>
      <use xlink:href="#DejaVuSans-Oblique-3c3" transform="translate(301.269531 0.78125)"/>
      <use xlink:href="#DejaVuSans-3d" transform="translate(384.130859 0.78125)"/>
      <use xlink:href="#DejaVuSans-31" transform="translate(487.402344 0.78125)"/>
      <use xlink:href="#DejaVuSans-30" transform="translate(551.025391 0.78125)"/>
     </g>
    </g>
   </g>
  </g>
 </g>
 <defs>
  <clipPath id="pc8829b2fcd">
   <rect x="57.6" y="41.472" width="357.12" height="266.112"/>
  </clipPath>
 </defs>
</svg>
