<?xml version="1.0" encoding="utf-8" standalone="no"?>
<!DOCTYPE svg PUBLIC "-//W3C//DTD SVG 1.1//EN"
  "http://www.w3.org/Graphics/SVG/1.1/DTD/svg11.dtd">
<svg xmlns:xlink="http://www.w3.org/1999/xlink" width="460.8pt" height="345.6pt" viewBox="0 0 460.8 345.6" xmlns="http://www.w3.org/2000/svg" version="1.1">
 <metadata>
  <rdf:RDF xmlns:dc="http://purl.org/dc/elements/1.1/" xmlns:cc="http://creativecommons.org/ns#" xmlns:rdf="http://www.w3.org/1999/02/22-rdf-syntax-ns#">
   <cc:Work>
    <dc:type rdf:resource="http://purl.org/dc/dcmitype/StillImage"/>
    <dc:date>2025-03-23T21:07:18.147443</dc:date>
    <dc:format>image/svg+xml</dc:format>
    <dc:creator>
     <cc:Agent>
      <dc:title>Matplotlib v3.9.4, https://matplotlib.org/</dc:title>
     </cc:Agent>
    </dc:creator>
   </cc:Work>
  </rdf:RDF>
 </metadata>
 <defs>
  <style type="text/css">*{stroke-linejoin: round; stroke-linecap: butt}</style>
 </defs>
 <g id="figure_1">
  <g id="patch_1">
   <path d="M 0 345.6 
L 460.8 345.6 
L 460.8 0 
L 0 0 
z
" style="fill: #ffffff"/>
  </g>
  <g id="axes_1">
   <g id="patch_2">
    <path d="M 57.6 307.584 
L 414.72 307.584 
L 414.72 41.472 
L 57.6 41.472 
z
" style="fill: #eaeaf2"/>
   </g>
   <g id="matplotlib.axis_1">
    <g id="xtick_1">
     <g id="line2d_1">
      <path d="M 73.832727 307.584 
L 73.832727 41.472 
" clip-path="url(#peea37bd460)" style="fill: none; stroke: #ffffff; stroke-width: 0.8; stroke-linecap: round"/>
     </g>
     <g id="text_1">
      <!-- −10.0 -->
      <g style="fill: #262626" transform="translate(61.181946 321.741812) scale(0.1 -0.1)">
       <defs>
        <path id="ArialMT-2212" d="M 3381 1997 
L 356 1997 
L 356 2522 
L 3381 2522 
L 3381 1997 
z
" transform="scale(0.015625)"/>
        <path id="ArialMT-31" d="M 2384 0 
L 1822 0 
L 1822 3584 
Q 1619 3391 1289 3197 
Q 959 3003 697 2906 
L 697 3450 
Q 1169 3672 1522 3987 
Q 1875 4303 2022 4600 
L 2384 4600 
L 2384 0 
z
" transform="scale(0.015625)"/>
        <path id="ArialMT-30" d="M 266 2259 
Q 266 3072 433 3567 
Q 600 4063 929 4331 
Q 1259 4600 1759 4600 
Q 2128 4600 2406 4451 
Q 2684 4303 2865 4023 
Q 3047 3744 3150 3342 
Q 3253 2941 3253 2259 
Q 3253 1453 3087 958 
Q 2922 463 2592 192 
Q 2263 -78 1759 -78 
Q 1097 -78 719 397 
Q 266 969 266 2259 
z
M 844 2259 
Q 844 1131 1108 757 
Q 1372 384 1759 384 
Q 2147 384 2411 759 
Q 2675 1134 2675 2259 
Q 2675 3391 2411 3762 
Q 2147 4134 1753 4134 
Q 1366 4134 1134 3806 
Q 844 3388 844 2259 
z
" transform="scale(0.015625)"/>
        <path id="ArialMT-2e" d="M 581 0 
L 581 641 
L 1222 641 
L 1222 0 
L 581 0 
z
" transform="scale(0.015625)"/>
       </defs>
       <use xlink:href="#ArialMT-2212"/>
       <use xlink:href="#ArialMT-31" x="58.398438"/>
       <use xlink:href="#ArialMT-30" x="114.013672"/>
       <use xlink:href="#ArialMT-2e" x="169.628906"/>
       <use xlink:href="#ArialMT-30" x="197.412109"/>
      </g>
     </g>
    </g>
    <g id="xtick_2">
     <g id="line2d_2">
      <path d="M 114.618319 307.584 
L 114.618319 41.472 
" clip-path="url(#peea37bd460)" style="fill: none; stroke: #ffffff; stroke-width: 0.8; stroke-linecap: round"/>
     </g>
     <g id="text_2">
      <!-- −7.5 -->
      <g style="fill: #262626" transform="translate(104.748006 321.741812) scale(0.1 -0.1)">
       <defs>
        <path id="ArialMT-37" d="M 303 3981 
L 303 4522 
L 3269 4522 
L 3269 4084 
Q 2831 3619 2401 2847 
Q 1972 2075 1738 1259 
Q 1569 684 1522 0 
L 944 0 
Q 953 541 1156 1306 
Q 1359 2072 1739 2783 
Q 2119 3494 2547 3981 
L 303 3981 
z
" transform="scale(0.015625)"/>
        <path id="ArialMT-35" d="M 266 1200 
L 856 1250 
Q 922 819 1161 601 
Q 1400 384 1738 384 
Q 2144 384 2425 690 
Q 2706 997 2706 1503 
Q 2706 1984 2436 2262 
Q 2166 2541 1728 2541 
Q 1456 2541 1237 2417 
Q 1019 2294 894 2097 
L 366 2166 
L 809 4519 
L 3088 4519 
L 3088 3981 
L 1259 3981 
L 1013 2750 
Q 1425 3038 1878 3038 
Q 2478 3038 2890 2622 
Q 3303 2206 3303 1553 
Q 3303 931 2941 478 
Q 2500 -78 1738 -78 
Q 1113 -78 717 272 
Q 322 622 266 1200 
z
" transform="scale(0.015625)"/>
       </defs>
       <use xlink:href="#ArialMT-2212"/>
       <use xlink:href="#ArialMT-37" x="58.398438"/>
       <use xlink:href="#ArialMT-2e" x="114.013672"/>
       <use xlink:href="#ArialMT-35" x="141.796875"/>
      </g>
     </g>
    </g>
    <g id="xtick_3">
     <g id="line2d_3">
      <path d="M 155.40391 307.584 
L 155.40391 41.472 
" clip-path="url(#peea37bd460)" style="fill: none; stroke: #ffffff; stroke-width: 0.8; stroke-linecap: round"/>
     </g>
     <g id="text_3">
      <!-- −5.0 -->
      <g style="fill: #262626" transform="translate(145.533597 321.741812) scale(0.1 -0.1)">
       <use xlink:href="#ArialMT-2212"/>
       <use xlink:href="#ArialMT-35" x="58.398438"/>
       <use xlink:href="#ArialMT-2e" x="114.013672"/>
       <use xlink:href="#ArialMT-30" x="141.796875"/>
      </g>
     </g>
    </g>
    <g id="xtick_4">
     <g id="line2d_4">
      <path d="M 196.189501 307.584 
L 196.189501 41.472 
" clip-path="url(#peea37bd460)" style="fill: none; stroke: #ffffff; stroke-width: 0.8; stroke-linecap: round"/>
     </g>
     <g id="text_4">
      <!-- −2.5 -->
      <g style="fill: #262626" transform="translate(186.319189 321.741812) scale(0.1 -0.1)">
       <defs>
        <path id="ArialMT-32" d="M 3222 541 
L 3222 0 
L 194 0 
Q 188 203 259 391 
Q 375 700 629 1000 
Q 884 1300 1366 1694 
Q 2113 2306 2375 2664 
Q 2638 3022 2638 3341 
Q 2638 3675 2398 3904 
Q 2159 4134 1775 4134 
Q 1369 4134 1125 3890 
Q 881 3647 878 3216 
L 300 3275 
Q 359 3922 746 4261 
Q 1134 4600 1788 4600 
Q 2447 4600 2831 4234 
Q 3216 3869 3216 3328 
Q 3216 3053 3103 2787 
Q 2991 2522 2730 2228 
Q 2469 1934 1863 1422 
Q 1356 997 1212 845 
Q 1069 694 975 541 
L 3222 541 
z
" transform="scale(0.015625)"/>
       </defs>
       <use xlink:href="#ArialMT-2212"/>
       <use xlink:href="#ArialMT-32" x="58.398438"/>
       <use xlink:href="#ArialMT-2e" x="114.013672"/>
       <use xlink:href="#ArialMT-35" x="141.796875"/>
      </g>
     </g>
    </g>
    <g id="xtick_5">
     <g id="line2d_5">
      <path d="M 236.975093 307.584 
L 236.975093 41.472 
" clip-path="url(#peea37bd460)" style="fill: none; stroke: #ffffff; stroke-width: 0.8; stroke-linecap: round"/>
     </g>
     <g id="text_5">
      <!-- 0.0 -->
      <g style="fill: #262626" transform="translate(230.025093 321.741812) scale(0.1 -0.1)">
       <use xlink:href="#ArialMT-30"/>
       <use xlink:href="#ArialMT-2e" x="55.615234"/>
       <use xlink:href="#ArialMT-30" x="83.398438"/>
      </g>
     </g>
    </g>
    <g id="xtick_6">
     <g id="line2d_6">
      <path d="M 277.760684 307.584 
L 277.760684 41.472 
" clip-path="url(#peea37bd460)" style="fill: none; stroke: #ffffff; stroke-width: 0.8; stroke-linecap: round"/>
     </g>
     <g id="text_6">
      <!-- 2.5 -->
      <g style="fill: #262626" transform="translate(270.810684 321.741812) scale(0.1 -0.1)">
       <use xlink:href="#ArialMT-32"/>
       <use xlink:href="#ArialMT-2e" x="55.615234"/>
       <use xlink:href="#ArialMT-35" x="83.398438"/>
      </g>
     </g>
    </g>
    <g id="xtick_7">
     <g id="line2d_7">
      <path d="M 318.546275 307.584 
L 318.546275 41.472 
" clip-path="url(#peea37bd460)" style="fill: none; stroke: #ffffff; stroke-width: 0.8; stroke-linecap: round"/>
     </g>
     <g id="text_7">
      <!-- 5.0 -->
      <g style="fill: #262626" transform="translate(311.596275 321.741812) scale(0.1 -0.1)">
       <use xlink:href="#ArialMT-35"/>
       <use xlink:href="#ArialMT-2e" x="55.615234"/>
       <use xlink:href="#ArialMT-30" x="83.398438"/>
      </g>
     </g>
    </g>
    <g id="xtick_8">
     <g id="line2d_8">
      <path d="M 359.331867 307.584 
L 359.331867 41.472 
" clip-path="url(#peea37bd460)" style="fill: none; stroke: #ffffff; stroke-width: 0.8; stroke-linecap: round"/>
     </g>
     <g id="text_8">
      <!-- 7.5 -->
      <g style="fill: #262626" transform="translate(352.381867 321.741812) scale(0.1 -0.1)">
       <use xlink:href="#ArialMT-37"/>
       <use xlink:href="#ArialMT-2e" x="55.615234"/>
       <use xlink:href="#ArialMT-35" x="83.398438"/>
      </g>
     </g>
    </g>
    <g id="xtick_9">
     <g id="line2d_9">
      <path d="M 400.117458 307.584 
L 400.117458 41.472 
" clip-path="url(#peea37bd460)" style="fill: none; stroke: #ffffff; stroke-width: 0.8; stroke-linecap: round"/>
     </g>
     <g id="text_9">
      <!-- 10.0 -->
      <g style="fill: #262626" transform="translate(390.386989 321.741812) scale(0.1 -0.1)">
       <use xlink:href="#ArialMT-31"/>
       <use xlink:href="#ArialMT-30" x="55.615234"/>
       <use xlink:href="#ArialMT-2e" x="111.230469"/>
       <use xlink:href="#ArialMT-30" x="139.013672"/>
      </g>
     </g>
    </g>
    <g id="text_10">
     <!-- $x$ -->
     <g style="fill: #262626" transform="translate(233.16 334.887125) scale(0.1 -0.1)">
      <defs>
       <path id="DejaVuSans-Oblique-78" d="M 3841 3500 
L 2234 1784 
L 3219 0 
L 2559 0 
L 1819 1388 
L 531 0 
L -166 0 
L 1556 1844 
L 641 3500 
L 1300 3500 
L 1972 2234 
L 3144 3500 
L 3841 3500 
z
" transform="scale(0.015625)"/>
      </defs>
      <use xlink:href="#DejaVuSans-Oblique-78" transform="translate(0 0.3125)"/>
     </g>
    </g>
   </g>
   <g id="matplotlib.axis_2">
    <g id="ytick_1">
     <g id="line2d_10">
      <path d="M 57.6 296.980263 
L 414.72 296.980263 
" clip-path="url(#peea37bd460)" style="fill: none; stroke: #ffffff; stroke-width: 0.8; stroke-linecap: round"/>
     </g>
     <g id="text_11">
      <!-- 0.0 -->
      <g style="fill: #262626" transform="translate(36.7 300.55917) scale(0.1 -0.1)">
       <use xlink:href="#ArialMT-30"/>
       <use xlink:href="#ArialMT-2e" x="55.615234"/>
       <use xlink:href="#ArialMT-30" x="83.398438"/>
      </g>
     </g>
    </g>
    <g id="ytick_2">
     <g id="line2d_11">
      <path d="M 57.6 248.264624 
L 414.72 248.264624 
" clip-path="url(#peea37bd460)" style="fill: none; stroke: #ffffff; stroke-width: 0.8; stroke-linecap: round"/>
     </g>
     <g id="text_12">
      <!-- 0.2 -->
      <g style="fill: #262626" transform="translate(36.7 251.843531) scale(0.1 -0.1)">
       <use xlink:href="#ArialMT-30"/>
       <use xlink:href="#ArialMT-2e" x="55.615234"/>
       <use xlink:href="#ArialMT-32" x="83.398438"/>
      </g>
     </g>
    </g>
    <g id="ytick_3">
     <g id="line2d_12">
      <path d="M 57.6 199.548986 
L 414.72 199.548986 
" clip-path="url(#peea37bd460)" style="fill: none; stroke: #ffffff; stroke-width: 0.8; stroke-linecap: round"/>
     </g>
     <g id="text_13">
      <!-- 0.4 -->
      <g style="fill: #262626" transform="translate(36.7 203.127892) scale(0.1 -0.1)">
       <defs>
        <path id="ArialMT-34" d="M 2069 0 
L 2069 1097 
L 81 1097 
L 81 1613 
L 2172 4581 
L 2631 4581 
L 2631 1613 
L 3250 1613 
L 3250 1097 
L 2631 1097 
L 2631 0 
L 2069 0 
z
M 2069 1613 
L 2069 3678 
L 634 1613 
L 2069 1613 
z
" transform="scale(0.015625)"/>
       </defs>
       <use xlink:href="#ArialMT-30"/>
       <use xlink:href="#ArialMT-2e" x="55.615234"/>
       <use xlink:href="#ArialMT-34" x="83.398438"/>
      </g>
     </g>
    </g>
    <g id="ytick_4">
     <g id="line2d_13">
      <path d="M 57.6 150.833347 
L 414.72 150.833347 
" clip-path="url(#peea37bd460)" style="fill: none; stroke: #ffffff; stroke-width: 0.8; stroke-linecap: round"/>
     </g>
     <g id="text_14">
      <!-- 0.6 -->
      <g style="fill: #262626" transform="translate(36.7 154.412253) scale(0.1 -0.1)">
       <defs>
        <path id="ArialMT-36" d="M 3184 3459 
L 2625 3416 
Q 2550 3747 2413 3897 
Q 2184 4138 1850 4138 
Q 1581 4138 1378 3988 
Q 1113 3794 959 3422 
Q 806 3050 800 2363 
Q 1003 2672 1297 2822 
Q 1591 2972 1913 2972 
Q 2475 2972 2870 2558 
Q 3266 2144 3266 1488 
Q 3266 1056 3080 686 
Q 2894 316 2569 119 
Q 2244 -78 1831 -78 
Q 1128 -78 684 439 
Q 241 956 241 2144 
Q 241 3472 731 4075 
Q 1159 4600 1884 4600 
Q 2425 4600 2770 4297 
Q 3116 3994 3184 3459 
z
M 888 1484 
Q 888 1194 1011 928 
Q 1134 663 1356 523 
Q 1578 384 1822 384 
Q 2178 384 2434 671 
Q 2691 959 2691 1453 
Q 2691 1928 2437 2201 
Q 2184 2475 1800 2475 
Q 1419 2475 1153 2201 
Q 888 1928 888 1484 
z
" transform="scale(0.015625)"/>
       </defs>
       <use xlink:href="#ArialMT-30"/>
       <use xlink:href="#ArialMT-2e" x="55.615234"/>
       <use xlink:href="#ArialMT-36" x="83.398438"/>
      </g>
     </g>
    </g>
    <g id="ytick_5">
     <g id="line2d_14">
      <path d="M 57.6 102.117708 
L 414.72 102.117708 
" clip-path="url(#peea37bd460)" style="fill: none; stroke: #ffffff; stroke-width: 0.8; stroke-linecap: round"/>
     </g>
     <g id="text_15">
      <!-- 0.8 -->
      <g style="fill: #262626" transform="translate(36.7 105.696614) scale(0.1 -0.1)">
       <defs>
        <path id="ArialMT-38" d="M 1131 2484 
Q 781 2613 612 2850 
Q 444 3088 444 3419 
Q 444 3919 803 4259 
Q 1163 4600 1759 4600 
Q 2359 4600 2725 4251 
Q 3091 3903 3091 3403 
Q 3091 3084 2923 2848 
Q 2756 2613 2416 2484 
Q 2838 2347 3058 2040 
Q 3278 1734 3278 1309 
Q 3278 722 2862 322 
Q 2447 -78 1769 -78 
Q 1091 -78 675 323 
Q 259 725 259 1325 
Q 259 1772 486 2073 
Q 713 2375 1131 2484 
z
M 1019 3438 
Q 1019 3113 1228 2906 
Q 1438 2700 1772 2700 
Q 2097 2700 2305 2904 
Q 2513 3109 2513 3406 
Q 2513 3716 2298 3927 
Q 2084 4138 1766 4138 
Q 1444 4138 1231 3931 
Q 1019 3725 1019 3438 
z
M 838 1322 
Q 838 1081 952 856 
Q 1066 631 1291 507 
Q 1516 384 1775 384 
Q 2178 384 2440 643 
Q 2703 903 2703 1303 
Q 2703 1709 2433 1975 
Q 2163 2241 1756 2241 
Q 1359 2241 1098 1978 
Q 838 1716 838 1322 
z
" transform="scale(0.015625)"/>
       </defs>
       <use xlink:href="#ArialMT-30"/>
       <use xlink:href="#ArialMT-2e" x="55.615234"/>
       <use xlink:href="#ArialMT-38" x="83.398438"/>
      </g>
     </g>
    </g>
    <g id="ytick_6">
     <g id="line2d_15">
      <path d="M 57.6 53.402069 
L 414.72 53.402069 
" clip-path="url(#peea37bd460)" style="fill: none; stroke: #ffffff; stroke-width: 0.8; stroke-linecap: round"/>
     </g>
     <g id="text_16">
      <!-- 1.0 -->
      <g style="fill: #262626" transform="translate(36.7 56.980976) scale(0.1 -0.1)">
       <use xlink:href="#ArialMT-31"/>
       <use xlink:href="#ArialMT-2e" x="55.615234"/>
       <use xlink:href="#ArialMT-30" x="83.398438"/>
      </g>
     </g>
    </g>
    <g id="text_17">
     <!-- contraction estimate $\tau_x(P^n)$ -->
     <g style="fill: #262626" transform="translate(30.7125 235.528) rotate(-90) scale(0.1 -0.1)">
      <defs>
       <path id="ArialMT-63" d="M 2588 1216 
L 3141 1144 
Q 3050 572 2676 248 
Q 2303 -75 1759 -75 
Q 1078 -75 664 370 
Q 250 816 250 1647 
Q 250 2184 428 2587 
Q 606 2991 970 3192 
Q 1334 3394 1763 3394 
Q 2303 3394 2647 3120 
Q 2991 2847 3088 2344 
L 2541 2259 
Q 2463 2594 2264 2762 
Q 2066 2931 1784 2931 
Q 1359 2931 1093 2626 
Q 828 2322 828 1663 
Q 828 994 1084 691 
Q 1341 388 1753 388 
Q 2084 388 2306 591 
Q 2528 794 2588 1216 
z
" transform="scale(0.015625)"/>
       <path id="ArialMT-6f" d="M 213 1659 
Q 213 2581 725 3025 
Q 1153 3394 1769 3394 
Q 2453 3394 2887 2945 
Q 3322 2497 3322 1706 
Q 3322 1066 3130 698 
Q 2938 331 2570 128 
Q 2203 -75 1769 -75 
Q 1072 -75 642 372 
Q 213 819 213 1659 
z
M 791 1659 
Q 791 1022 1069 705 
Q 1347 388 1769 388 
Q 2188 388 2466 706 
Q 2744 1025 2744 1678 
Q 2744 2294 2464 2611 
Q 2184 2928 1769 2928 
Q 1347 2928 1069 2612 
Q 791 2297 791 1659 
z
" transform="scale(0.015625)"/>
       <path id="ArialMT-6e" d="M 422 0 
L 422 3319 
L 928 3319 
L 928 2847 
Q 1294 3394 1984 3394 
Q 2284 3394 2536 3286 
Q 2788 3178 2913 3003 
Q 3038 2828 3088 2588 
Q 3119 2431 3119 2041 
L 3119 0 
L 2556 0 
L 2556 2019 
Q 2556 2363 2490 2533 
Q 2425 2703 2258 2804 
Q 2091 2906 1866 2906 
Q 1506 2906 1245 2678 
Q 984 2450 984 1813 
L 984 0 
L 422 0 
z
" transform="scale(0.015625)"/>
       <path id="ArialMT-74" d="M 1650 503 
L 1731 6 
Q 1494 -44 1306 -44 
Q 1000 -44 831 53 
Q 663 150 594 308 
Q 525 466 525 972 
L 525 2881 
L 113 2881 
L 113 3319 
L 525 3319 
L 525 4141 
L 1084 4478 
L 1084 3319 
L 1650 3319 
L 1650 2881 
L 1084 2881 
L 1084 941 
Q 1084 700 1114 631 
Q 1144 563 1211 522 
Q 1278 481 1403 481 
Q 1497 481 1650 503 
z
" transform="scale(0.015625)"/>
       <path id="ArialMT-72" d="M 416 0 
L 416 3319 
L 922 3319 
L 922 2816 
Q 1116 3169 1280 3281 
Q 1444 3394 1641 3394 
Q 1925 3394 2219 3213 
L 2025 2691 
Q 1819 2813 1613 2813 
Q 1428 2813 1281 2702 
Q 1134 2591 1072 2394 
Q 978 2094 978 1738 
L 978 0 
L 416 0 
z
" transform="scale(0.015625)"/>
       <path id="ArialMT-61" d="M 2588 409 
Q 2275 144 1986 34 
Q 1697 -75 1366 -75 
Q 819 -75 525 192 
Q 231 459 231 875 
Q 231 1119 342 1320 
Q 453 1522 633 1644 
Q 813 1766 1038 1828 
Q 1203 1872 1538 1913 
Q 2219 1994 2541 2106 
Q 2544 2222 2544 2253 
Q 2544 2597 2384 2738 
Q 2169 2928 1744 2928 
Q 1347 2928 1158 2789 
Q 969 2650 878 2297 
L 328 2372 
Q 403 2725 575 2942 
Q 747 3159 1072 3276 
Q 1397 3394 1825 3394 
Q 2250 3394 2515 3294 
Q 2781 3194 2906 3042 
Q 3031 2891 3081 2659 
Q 3109 2516 3109 2141 
L 3109 1391 
Q 3109 606 3145 398 
Q 3181 191 3288 0 
L 2700 0 
Q 2613 175 2588 409 
z
M 2541 1666 
Q 2234 1541 1622 1453 
Q 1275 1403 1131 1340 
Q 988 1278 909 1158 
Q 831 1038 831 891 
Q 831 666 1001 516 
Q 1172 366 1500 366 
Q 1825 366 2078 508 
Q 2331 650 2450 897 
Q 2541 1088 2541 1459 
L 2541 1666 
z
" transform="scale(0.015625)"/>
       <path id="ArialMT-69" d="M 425 3934 
L 425 4581 
L 988 4581 
L 988 3934 
L 425 3934 
z
M 425 0 
L 425 3319 
L 988 3319 
L 988 0 
L 425 0 
z
" transform="scale(0.015625)"/>
       <path id="ArialMT-20" transform="scale(0.015625)"/>
       <path id="ArialMT-65" d="M 2694 1069 
L 3275 997 
Q 3138 488 2766 206 
Q 2394 -75 1816 -75 
Q 1088 -75 661 373 
Q 234 822 234 1631 
Q 234 2469 665 2931 
Q 1097 3394 1784 3394 
Q 2450 3394 2872 2941 
Q 3294 2488 3294 1666 
Q 3294 1616 3291 1516 
L 816 1516 
Q 847 969 1125 678 
Q 1403 388 1819 388 
Q 2128 388 2347 550 
Q 2566 713 2694 1069 
z
M 847 1978 
L 2700 1978 
Q 2663 2397 2488 2606 
Q 2219 2931 1791 2931 
Q 1403 2931 1139 2672 
Q 875 2413 847 1978 
z
" transform="scale(0.015625)"/>
       <path id="ArialMT-73" d="M 197 991 
L 753 1078 
Q 800 744 1014 566 
Q 1228 388 1613 388 
Q 2000 388 2187 545 
Q 2375 703 2375 916 
Q 2375 1106 2209 1216 
Q 2094 1291 1634 1406 
Q 1016 1563 777 1677 
Q 538 1791 414 1992 
Q 291 2194 291 2438 
Q 291 2659 392 2848 
Q 494 3038 669 3163 
Q 800 3259 1026 3326 
Q 1253 3394 1513 3394 
Q 1903 3394 2198 3281 
Q 2494 3169 2634 2976 
Q 2775 2784 2828 2463 
L 2278 2388 
Q 2241 2644 2061 2787 
Q 1881 2931 1553 2931 
Q 1166 2931 1000 2803 
Q 834 2675 834 2503 
Q 834 2394 903 2306 
Q 972 2216 1119 2156 
Q 1203 2125 1616 2013 
Q 2213 1853 2448 1751 
Q 2684 1650 2818 1456 
Q 2953 1263 2953 975 
Q 2953 694 2789 445 
Q 2625 197 2315 61 
Q 2006 -75 1616 -75 
Q 969 -75 630 194 
Q 291 463 197 991 
z
" transform="scale(0.015625)"/>
       <path id="ArialMT-6d" d="M 422 0 
L 422 3319 
L 925 3319 
L 925 2853 
Q 1081 3097 1340 3245 
Q 1600 3394 1931 3394 
Q 2300 3394 2536 3241 
Q 2772 3088 2869 2813 
Q 3263 3394 3894 3394 
Q 4388 3394 4653 3120 
Q 4919 2847 4919 2278 
L 4919 0 
L 4359 0 
L 4359 2091 
Q 4359 2428 4304 2576 
Q 4250 2725 4106 2815 
Q 3963 2906 3769 2906 
Q 3419 2906 3187 2673 
Q 2956 2441 2956 1928 
L 2956 0 
L 2394 0 
L 2394 2156 
Q 2394 2531 2256 2718 
Q 2119 2906 1806 2906 
Q 1569 2906 1367 2781 
Q 1166 2656 1075 2415 
Q 984 2175 984 1722 
L 984 0 
L 422 0 
z
" transform="scale(0.015625)"/>
       <path id="DejaVuSans-Oblique-3c4" d="M 2103 638 
Q 2188 488 2525 488 
L 2800 488 
L 2706 0 
L 2363 0 
Q 1800 0 1600 300 
Q 1403 606 1534 1269 
L 1856 2925 
L 541 2925 
L 653 3500 
L 3881 3500 
L 3769 2925 
L 2444 2925 
L 2113 1234 
Q 2025 781 2103 638 
z
" transform="scale(0.015625)"/>
       <path id="DejaVuSans-28" d="M 1984 4856 
Q 1566 4138 1362 3434 
Q 1159 2731 1159 2009 
Q 1159 1288 1364 580 
Q 1569 -128 1984 -844 
L 1484 -844 
Q 1016 -109 783 600 
Q 550 1309 550 2009 
Q 550 2706 781 3412 
Q 1013 4119 1484 4856 
L 1984 4856 
z
" transform="scale(0.015625)"/>
       <path id="DejaVuSans-Oblique-50" d="M 1081 4666 
L 2541 4666 
Q 3178 4666 3512 4369 
Q 3847 4072 3847 3500 
Q 3847 2731 3353 2303 
Q 2859 1875 1966 1875 
L 1172 1875 
L 806 0 
L 172 0 
L 1081 4666 
z
M 1613 4147 
L 1275 2394 
L 2069 2394 
Q 2606 2394 2893 2669 
Q 3181 2944 3181 3456 
Q 3181 3784 2986 3965 
Q 2791 4147 2438 4147 
L 1613 4147 
z
" transform="scale(0.015625)"/>
       <path id="DejaVuSans-Oblique-6e" d="M 3566 2113 
L 3156 0 
L 2578 0 
L 2988 2091 
Q 3016 2238 3031 2350 
Q 3047 2463 3047 2528 
Q 3047 2791 2881 2937 
Q 2716 3084 2419 3084 
Q 1956 3084 1622 2776 
Q 1288 2469 1184 1941 
L 800 0 
L 225 0 
L 903 3500 
L 1478 3500 
L 1363 2950 
Q 1603 3253 1940 3418 
Q 2278 3584 2650 3584 
Q 3113 3584 3367 3334 
Q 3622 3084 3622 2631 
Q 3622 2519 3608 2391 
Q 3594 2263 3566 2113 
z
" transform="scale(0.015625)"/>
       <path id="DejaVuSans-29" d="M 513 4856 
L 1013 4856 
Q 1481 4119 1714 3412 
Q 1947 2706 1947 2009 
Q 1947 1309 1714 600 
Q 1481 -109 1013 -844 
L 513 -844 
Q 928 -128 1133 580 
Q 1338 1288 1338 2009 
Q 1338 2731 1133 3434 
Q 928 4138 513 4856 
z
" transform="scale(0.015625)"/>
      </defs>
      <use xlink:href="#ArialMT-63" transform="translate(0 0.51875)"/>
      <use xlink:href="#ArialMT-6f" transform="translate(50 0.51875)"/>
      <use xlink:href="#ArialMT-6e" transform="translate(105.615234 0.51875)"/>
      <use xlink:href="#ArialMT-74" transform="translate(161.230469 0.51875)"/>
      <use xlink:href="#ArialMT-72" transform="translate(189.013672 0.51875)"/>
      <use xlink:href="#ArialMT-61" transform="translate(222.314453 0.51875)"/>
      <use xlink:href="#ArialMT-63" transform="translate(277.929688 0.51875)"/>
      <use xlink:href="#ArialMT-74" transform="translate(327.929688 0.51875)"/>
      <use xlink:href="#ArialMT-69" transform="translate(355.712891 0.51875)"/>
      <use xlink:href="#ArialMT-6f" transform="translate(377.929688 0.51875)"/>
      <use xlink:href="#ArialMT-6e" transform="translate(433.544922 0.51875)"/>
      <use xlink:href="#ArialMT-20" transform="translate(489.160156 0.51875)"/>
      <use xlink:href="#ArialMT-65" transform="translate(516.943359 0.51875)"/>
      <use xlink:href="#ArialMT-73" transform="translate(572.558594 0.51875)"/>
      <use xlink:href="#ArialMT-74" transform="translate(622.558594 0.51875)"/>
      <use xlink:href="#ArialMT-69" transform="translate(650.341797 0.51875)"/>
      <use xlink:href="#ArialMT-6d" transform="translate(672.558594 0.51875)"/>
      <use xlink:href="#ArialMT-61" transform="translate(755.859375 0.51875)"/>
      <use xlink:href="#ArialMT-74" transform="translate(811.474609 0.51875)"/>
      <use xlink:href="#ArialMT-65" transform="translate(839.257812 0.51875)"/>
      <use xlink:href="#ArialMT-20" transform="translate(894.873047 0.51875)"/>
      <use xlink:href="#DejaVuSans-Oblique-3c4" transform="translate(922.65625 0.51875)"/>
      <use xlink:href="#DejaVuSans-Oblique-78" transform="translate(982.861328 -15.8875) scale(0.7)"/>
      <use xlink:href="#DejaVuSans-28" transform="translate(1027.021484 0.51875)"/>
      <use xlink:href="#DejaVuSans-Oblique-50" transform="translate(1066.035156 0.51875)"/>
      <use xlink:href="#DejaVuSans-Oblique-6e" transform="translate(1133.354661 38.8) scale(0.7)"/>
      <use xlink:href="#DejaVuSans-29" transform="translate(1180.454271 0.51875)"/>
     </g>
    </g>
   </g>
   <g id="line2d_16">
    <path d="M 73.832727 53.568 
L 117.881334 53.814842 
L 152.141361 54.367963 
L 165.1928 54.849146 
L 168.45566 55.019229 
L 170.08709 55.06595 
L 171.71852 55.253019 
L 173.34995 55.246965 
L 188.032819 56.583601 
L 189.664249 56.94357 
L 192.927108 57.390504 
L 194.558538 57.878438 
L 196.189968 57.911337 
L 202.715688 59.440689 
L 205.978547 60.846781 
L 207.609977 61.474469 
L 209.241407 62.805167 
L 210.872837 63.730482 
L 212.504267 65.218821 
L 215.767127 71.199193 
L 217.398556 75.074079 
L 220.661416 87.654396 
L 225.555706 114.749621 
L 227.187136 122.414838 
L 228.818566 130.664275 
L 230.449995 135.742068 
L 232.081425 139.440091 
L 233.712855 140.600416 
L 235.344285 140.650591 
L 236.975715 139.562365 
L 238.607145 139.746313 
L 240.238575 139.426154 
L 241.870005 138.584987 
L 243.501434 136.061052 
L 245.132864 130.426711 
L 250.027154 105.777966 
L 251.658584 96.283896 
L 253.290014 88.146236 
L 254.921444 81.117636 
L 256.552873 76.041396 
L 258.184303 71.518961 
L 259.815733 67.897566 
L 261.447163 65.540505 
L 264.710023 62.558732 
L 271.235742 59.436421 
L 272.867172 59.207306 
L 274.498602 58.584148 
L 276.130032 58.40139 
L 277.761462 57.981156 
L 281.024322 57.584078 
L 282.655751 57.121594 
L 284.287181 56.7752 
L 287.550041 56.396618 
L 289.181471 56.327641 
L 292.444331 55.992049 
L 294.075761 55.896866 
L 295.70719 55.616923 
L 303.86434 55.05146 
L 308.75863 54.864797 
L 310.390059 54.715026 
L 313.652919 54.625505 
L 318.547209 54.47643 
L 323.441498 54.313636 
L 328.335788 54.168437 
L 333.230078 54.11395 
L 349.544376 53.864582 
L 359.332956 53.774829 
L 364.227245 53.746968 
L 398.487273 53.604775 
L 398.487273 53.604775 
" clip-path="url(#peea37bd460)" style="fill: none; stroke: #0000ff; stroke-width: 1.5; stroke-linecap: round"/>
   </g>
   <g id="line2d_17">
    <path d="M 73.832727 58.031244 
L 75.464157 58.023114 
L 77.095587 58.446339 
L 78.727017 58.61484 
L 88.515596 60.471132 
L 95.041316 62.340956 
L 96.672746 62.47753 
L 98.304175 63.403267 
L 101.567035 64.417333 
L 103.198465 65.103036 
L 104.829895 65.909765 
L 106.461325 66.523618 
L 108.092755 67.382032 
L 109.724185 68.449903 
L 111.355614 69.035183 
L 112.987044 70.005621 
L 116.249904 72.49056 
L 117.881334 73.171778 
L 121.144194 75.835438 
L 122.775624 77.261028 
L 126.038483 79.879783 
L 127.669913 81.831969 
L 129.301343 84.079779 
L 130.932773 85.692148 
L 134.195633 89.377526 
L 135.827063 90.732731 
L 137.458492 93.759801 
L 139.089922 95.796136 
L 142.352782 101.079872 
L 143.984212 103.408652 
L 145.615642 106.005527 
L 147.247072 108.958452 
L 148.878502 112.164795 
L 150.509931 115.066005 
L 152.141361 118.510813 
L 153.772791 122.285334 
L 157.035651 128.439927 
L 160.298511 135.843058 
L 161.929941 139.121964 
L 163.56137 142.848008 
L 165.1928 147.327382 
L 166.82423 151.000695 
L 168.45566 155.969193 
L 170.08709 159.831652 
L 171.71852 164.574752 
L 173.34995 168.500264 
L 174.98138 173.477531 
L 176.61281 177.058834 
L 178.244239 181.880835 
L 179.875669 186.320051 
L 181.507099 191.401306 
L 183.138529 195.664363 
L 184.769959 198.931517 
L 186.401389 204.360641 
L 188.032819 208.210649 
L 189.664249 212.440503 
L 191.295678 216.33713 
L 192.927108 219.42096 
L 194.558538 224.983537 
L 196.189968 227.904579 
L 197.821398 232.407792 
L 199.452828 236.54254 
L 201.084258 239.174837 
L 202.715688 243.710941 
L 205.978547 250.434426 
L 207.609977 251.992453 
L 209.241407 255.127816 
L 210.872837 259.695088 
L 212.504267 260.780889 
L 214.135697 265.047707 
L 215.767127 265.039159 
L 217.398556 269.136434 
L 219.029986 269.464368 
L 220.661416 273.325678 
L 222.292846 274.897481 
L 223.924276 277.414074 
L 225.555706 279.405175 
L 228.818566 282.791046 
L 230.449995 283.993379 
L 232.081425 282.559822 
L 233.712855 283.752199 
L 235.344285 285.995115 
L 236.975715 283.686209 
L 238.607145 283.954703 
L 240.238575 283.372755 
L 241.870005 283.841304 
L 243.501434 285.38946 
L 245.132864 282.161422 
L 246.764294 280.817976 
L 248.395724 278.42132 
L 250.027154 277.472062 
L 251.658584 275.801311 
L 253.290014 273.678845 
L 254.921444 270.931893 
L 256.552873 267.720298 
L 258.184303 266.719519 
L 259.815733 264.071929 
L 261.447163 260.767242 
L 263.078593 257.807915 
L 266.341453 252.672538 
L 267.972883 249.540925 
L 271.235742 243.88567 
L 272.867172 240.308306 
L 274.498602 236.156191 
L 276.130032 233.507212 
L 277.761462 227.942676 
L 279.392892 222.918688 
L 281.024322 220.482443 
L 287.550041 204.17331 
L 290.812901 195.051767 
L 292.444331 189.54505 
L 294.075761 185.586828 
L 295.70719 182.494672 
L 297.33862 177.562034 
L 302.23291 164.449763 
L 303.86434 159.74955 
L 305.49577 155.957636 
L 307.1272 151.757262 
L 308.75863 148.744188 
L 310.390059 143.972994 
L 312.021489 140.064237 
L 313.652919 135.54517 
L 316.915779 128.186189 
L 318.547209 124.322525 
L 320.178639 121.79483 
L 321.810069 118.233338 
L 323.441498 116.244681 
L 325.072928 112.333513 
L 326.704358 108.93801 
L 328.335788 105.942459 
L 331.598648 100.421376 
L 334.861508 95.630539 
L 339.755797 89.292027 
L 343.018657 85.417693 
L 344.650087 83.889864 
L 346.281517 81.656747 
L 349.544376 78.562442 
L 351.175806 76.95665 
L 352.807236 75.571799 
L 354.438666 74.848521 
L 356.070096 72.879973 
L 357.701526 72.536279 
L 359.332956 71.054677 
L 362.595815 69.092603 
L 367.490105 66.481369 
L 369.121535 65.878696 
L 370.752965 65.014736 
L 372.384395 64.65661 
L 374.015825 63.462749 
L 375.647254 63.445588 
L 377.278684 62.68314 
L 378.910114 62.364737 
L 382.172974 61.417659 
L 383.804404 61.06341 
L 385.435834 60.453594 
L 388.698693 59.778213 
L 391.961553 59.257787 
L 395.224413 58.758906 
L 396.855843 58.308763 
L 398.487273 58.243503 
L 398.487273 58.243503 
" clip-path="url(#peea37bd460)" style="fill: none; stroke: #00008b; stroke-width: 1.5; stroke-linecap: round"/>
   </g>
   <g id="line2d_18">
    <path d="M 73.832727 167.147251 
L 75.464157 170.11648 
L 77.095587 173.325277 
L 78.727017 177.717933 
L 80.358447 178.895701 
L 81.989877 181.610669 
L 83.621307 184.611519 
L 85.252736 188.962187 
L 86.884166 190.522421 
L 88.515596 194.145123 
L 90.147026 197.092037 
L 91.778456 198.942928 
L 93.409886 203.538769 
L 95.041316 206.893933 
L 96.672746 209.023912 
L 98.304175 212.430507 
L 99.935605 214.171712 
L 103.198465 219.613554 
L 104.829895 222.617351 
L 106.461325 225.993081 
L 108.092755 226.79197 
L 109.724185 231.325693 
L 111.355614 232.223481 
L 112.987044 235.916067 
L 116.249904 240.463046 
L 117.881334 241.774474 
L 119.512764 244.301139 
L 121.144194 245.827646 
L 122.775624 249.713164 
L 126.038483 254.264251 
L 127.669913 255.698429 
L 129.301343 257.894604 
L 130.932773 258.816722 
L 132.564203 261.849773 
L 134.195633 263.528854 
L 135.827063 264.86929 
L 137.458492 264.113198 
L 139.089922 268.413368 
L 140.721352 270.481197 
L 142.352782 270.621296 
L 143.984212 274.156544 
L 145.615642 272.483043 
L 147.247072 274.717193 
L 148.878502 276.544462 
L 150.509931 276.281566 
L 152.141361 279.447857 
L 153.772791 280.486447 
L 157.035651 282.270943 
L 160.298511 281.678 
L 161.929941 284.390352 
L 163.56137 285.901401 
L 165.1928 286.550105 
L 166.82423 287.638577 
L 168.45566 288.573977 
L 170.08709 286.321708 
L 171.71852 288.47909 
L 173.34995 289.168209 
L 174.98138 289.12553 
L 176.61281 289.622664 
L 178.244239 290.300335 
L 179.875669 291.190478 
L 181.507099 291.452126 
L 183.138529 293.239831 
L 184.769959 292.375144 
L 186.401389 291.308139 
L 188.032819 292.603796 
L 189.664249 294.552595 
L 191.295678 293.348554 
L 192.927108 294.195462 
L 194.558538 293.564121 
L 196.189968 293.190658 
L 197.821398 293.314837 
L 199.452828 294.745017 
L 201.084258 294.173173 
L 202.715688 294.411185 
L 204.347117 294.401276 
L 205.978547 295.092445 
L 207.609977 293.746616 
L 209.241407 294.989819 
L 210.872837 294.330624 
L 212.504267 295.488 
L 214.135697 295.140639 
L 215.767127 293.996836 
L 217.398556 294.469372 
L 219.029986 293.568433 
L 220.661416 295.352103 
L 222.292846 294.793519 
L 223.924276 295.034336 
L 225.555706 294.057249 
L 227.187136 295.127468 
L 228.818566 295.319513 
L 230.449995 294.17813 
L 232.081425 295.100055 
L 233.712855 295.101918 
L 235.344285 294.205098 
L 236.975715 294.746777 
L 238.607145 294.880569 
L 240.238575 295.391266 
L 241.870005 294.772105 
L 243.501434 294.803211 
L 245.132864 295.010768 
L 246.764294 294.523676 
L 248.395724 294.992842 
L 250.027154 294.632023 
L 251.658584 294.126977 
L 253.290014 295.244792 
L 254.921444 295.46234 
L 256.552873 294.138147 
L 258.184303 293.66969 
L 259.815733 294.884268 
L 263.078593 295.433036 
L 264.710023 294.934161 
L 266.341453 295.029197 
L 267.972883 293.817724 
L 269.604312 294.481039 
L 271.235742 293.965245 
L 272.867172 294.794338 
L 276.130032 293.799138 
L 277.761462 293.379747 
L 279.392892 294.524256 
L 281.024322 293.116178 
L 282.655751 293.429193 
L 284.287181 292.657551 
L 285.918611 292.788849 
L 289.181471 291.972946 
L 290.812901 293.14447 
L 292.444331 290.421021 
L 294.075761 290.856466 
L 295.70719 291.570998 
L 297.33862 289.647894 
L 298.97005 289.506852 
L 300.60148 289.609128 
L 302.23291 289.31856 
L 303.86434 287.850747 
L 305.49577 286.846606 
L 308.75863 286.114223 
L 310.390059 283.718187 
L 312.021489 285.6393 
L 313.652919 283.233245 
L 315.284349 282.788845 
L 316.915779 281.765814 
L 318.547209 279.218327 
L 320.178639 281.157782 
L 321.810069 278.192675 
L 323.441498 278.537634 
L 325.072928 275.752578 
L 326.704358 275.720601 
L 328.335788 273.754395 
L 329.967218 273.190336 
L 333.230078 268.269628 
L 334.861508 268.599012 
L 336.492937 266.426932 
L 338.124367 265.627796 
L 339.755797 262.446189 
L 341.387227 262.129452 
L 344.650087 255.990056 
L 347.912947 254.480866 
L 349.544376 251.06708 
L 351.175806 249.805729 
L 352.807236 245.856019 
L 354.438666 244.838955 
L 356.070096 243.536862 
L 359.332956 237.309597 
L 360.964386 236.350327 
L 362.595815 232.985813 
L 364.227245 230.006886 
L 365.858675 227.292578 
L 367.490105 225.345923 
L 370.752965 219.851561 
L 372.384395 214.978173 
L 374.015825 214.792548 
L 375.647254 212.428649 
L 377.278684 208.018143 
L 378.910114 204.941783 
L 380.541544 203.914258 
L 382.172974 198.635712 
L 383.804404 195.951407 
L 385.435834 194.282133 
L 387.067264 191.960453 
L 388.698693 188.9447 
L 390.330123 185.388798 
L 391.961553 181.088682 
L 395.224413 176.570392 
L 396.855843 174.760391 
L 398.487273 171.057272 
L 398.487273 171.057272 
" clip-path="url(#peea37bd460)" style="fill: none; stroke: #191970; stroke-width: 1.5; stroke-linecap: round"/>
   </g>
   <g id="patch_3">
    <path d="M 57.6 307.584 
L 57.6 41.472 
" style="fill: none; stroke: #ffffff; stroke-width: 0.8; stroke-linejoin: miter; stroke-linecap: square"/>
   </g>
   <g id="patch_4">
    <path d="M 414.72 307.584 
L 414.72 41.472 
" style="fill: none; stroke: #ffffff; stroke-width: 0.8; stroke-linejoin: miter; stroke-linecap: square"/>
   </g>
   <g id="patch_5">
    <path d="M 57.6 307.584 
L 414.72 307.584 
" style="fill: none; stroke: #ffffff; stroke-width: 0.8; stroke-linejoin: miter; stroke-linecap: square"/>
   </g>
   <g id="patch_6">
    <path d="M 57.6 41.472 
L 414.72 41.472 
" style="fill: none; stroke: #ffffff; stroke-width: 0.8; stroke-linejoin: miter; stroke-linecap: square"/>
   </g>
   <g id="text_18">
    <!-- $\sigma^2 = 1$ -->
    <g style="fill: #262626" transform="translate(218.04 35.472) scale(0.12 -0.12)">
     <defs>
      <path id="DejaVuSans-Oblique-3c3" d="M 2219 3044 
Q 1744 3044 1422 2700 
Q 1081 2341 969 1747 
Q 844 1119 1044 756 
Q 1241 397 1706 397 
Q 2166 397 2503 759 
Q 2844 1122 2966 1747 
Q 3075 2319 2881 2700 
Q 2700 3044 2219 3044 
z
M 2309 3503 
L 4219 3500 
L 4106 2925 
L 3463 2925 
Q 3706 2438 3575 1747 
Q 3406 888 2884 400 
Q 2359 -91 1609 -91 
Q 856 -91 525 400 
Q 194 888 363 1747 
Q 528 2609 1050 3097 
Q 1484 3503 2309 3503 
z
" transform="scale(0.015625)"/>
      <path id="DejaVuSans-32" d="M 1228 531 
L 3431 531 
L 3431 0 
L 469 0 
L 469 531 
Q 828 903 1448 1529 
Q 2069 2156 2228 2338 
Q 2531 2678 2651 2914 
Q 2772 3150 2772 3378 
Q 2772 3750 2511 3984 
Q 2250 4219 1831 4219 
Q 1534 4219 1204 4116 
Q 875 4013 500 3803 
L 500 4441 
Q 881 4594 1212 4672 
Q 1544 4750 1819 4750 
Q 2544 4750 2975 4387 
Q 3406 4025 3406 3419 
Q 3406 3131 3298 2873 
Q 3191 2616 2906 2266 
Q 2828 2175 2409 1742 
Q 1991 1309 1228 531 
z
" transform="scale(0.015625)"/>
      <path id="DejaVuSans-3d" d="M 678 2906 
L 4684 2906 
L 4684 2381 
L 678 2381 
L 678 2906 
z
M 678 1631 
L 4684 1631 
L 4684 1100 
L 678 1100 
L 678 1631 
z
" transform="scale(0.015625)"/>
      <path id="DejaVuSans-31" d="M 794 531 
L 1825 531 
L 1825 4091 
L 703 3866 
L 703 4441 
L 1819 4666 
L 2450 4666 
L 2450 531 
L 3481 531 
L 3481 0 
L 794 0 
L 794 531 
z
" transform="scale(0.015625)"/>
     </defs>
     <use xlink:href="#DejaVuSans-Oblique-3c3" transform="translate(0 0.765625)"/>
     <use xlink:href="#DejaVuSans-32" transform="translate(67.851615 39.046875) scale(0.7)"/>
     <use xlink:href="#DejaVuSans-3d" transform="translate(134.604544 0.765625)"/>
     <use xlink:href="#DejaVuSans-31" transform="translate(237.876029 0.765625)"/>
    </g>
   </g>
   <g id="legend_1">
    <g id="patch_7">
     <path d="M 64.6 302.584 
L 125.5 302.584 
Q 127.5 302.584 127.5 300.584 
L 127.5 259.148062 
Q 127.5 257.148062 125.5 257.148062 
L 64.6 257.148062 
Q 62.6 257.148062 62.6 259.148062 
L 62.6 300.584 
Q 62.6 302.584 64.6 302.584 
z
" style="fill: #eaeaf2; opacity: 0.8; stroke: #cccccc; stroke-linejoin: miter"/>
    </g>
    <g id="line2d_19">
     <path d="M 66.6 264.805875 
L 76.6 264.805875 
L 86.6 264.805875 
" style="fill: none; stroke: #0000ff; stroke-width: 1.5; stroke-linecap: round"/>
    </g>
    <g id="text_19">
     <!-- $n$ = 1 -->
     <g style="fill: #262626" transform="translate(94.6 268.305875) scale(0.1 -0.1)">
      <defs>
       <path id="ArialMT-3d" d="M 3381 2694 
L 356 2694 
L 356 3219 
L 3381 3219 
L 3381 2694 
z
M 3381 1303 
L 356 1303 
L 356 1828 
L 3381 1828 
L 3381 1303 
z
" transform="scale(0.015625)"/>
      </defs>
      <use xlink:href="#DejaVuSans-Oblique-6e" transform="translate(0 0.125)"/>
      <use xlink:href="#ArialMT-20" transform="translate(63.378906 0.125)"/>
      <use xlink:href="#ArialMT-3d" transform="translate(91.162109 0.125)"/>
      <use xlink:href="#ArialMT-20" transform="translate(149.560547 0.125)"/>
      <use xlink:href="#ArialMT-31" transform="translate(177.34375 0.125)"/>
     </g>
    </g>
    <g id="line2d_20">
     <path d="M 66.6 278.951187 
L 76.6 278.951187 
L 86.6 278.951187 
" style="fill: none; stroke: #00008b; stroke-width: 1.5; stroke-linecap: round"/>
    </g>
    <g id="text_20">
     <!-- $n$ = 10 -->
     <g style="fill: #262626" transform="translate(94.6 282.451187) scale(0.1 -0.1)">
      <use xlink:href="#DejaVuSans-Oblique-6e" transform="translate(0 0.125)"/>
      <use xlink:href="#ArialMT-20" transform="translate(63.378906 0.125)"/>
      <use xlink:href="#ArialMT-3d" transform="translate(91.162109 0.125)"/>
      <use xlink:href="#ArialMT-20" transform="translate(149.560547 0.125)"/>
      <use xlink:href="#ArialMT-31" transform="translate(177.34375 0.125)"/>
      <use xlink:href="#ArialMT-30" transform="translate(232.958984 0.125)"/>
     </g>
    </g>
    <g id="line2d_21">
     <path d="M 66.6 293.0965 
L 76.6 293.0965 
L 86.6 293.0965 
" style="fill: none; stroke: #191970; stroke-width: 1.5; stroke-linecap: round"/>
    </g>
    <g id="text_21">
     <!-- $n$ = 25 -->
     <g style="fill: #262626" transform="translate(94.6 296.5965) scale(0.1 -0.1)">
      <use xlink:href="#DejaVuSans-Oblique-6e" transform="translate(0 0.125)"/>
      <use xlink:href="#ArialMT-20" transform="translate(63.378906 0.125)"/>
      <use xlink:href="#ArialMT-3d" transform="translate(91.162109 0.125)"/>
      <use xlink:href="#ArialMT-20" transform="translate(149.560547 0.125)"/>
      <use xlink:href="#ArialMT-32" transform="translate(177.34375 0.125)"/>
      <use xlink:href="#ArialMT-35" transform="translate(232.958984 0.125)"/>
     </g>
    </g>
   </g>
  </g>
 </g>
 <defs>
  <clipPath id="peea37bd460">
   <rect x="57.6" y="41.472" width="357.12" height="266.112"/>
  </clipPath>
 </defs>
</svg>
