<?xml version="1.0" encoding="utf-8" standalone="no"?>
<!DOCTYPE svg PUBLIC "-//W3C//DTD SVG 1.1//EN"
  "http://www.w3.org/Graphics/SVG/1.1/DTD/svg11.dtd">
<svg xmlns:xlink="http://www.w3.org/1999/xlink" width="792pt" height="360pt" viewBox="0 0 792 360" xmlns="http://www.w3.org/2000/svg" version="1.1">
 <metadata>
  <rdf:RDF xmlns:dc="http://purl.org/dc/elements/1.1/" xmlns:cc="http://creativecommons.org/ns#" xmlns:rdf="http://www.w3.org/1999/02/22-rdf-syntax-ns#">
   <cc:Work>
    <dc:type rdf:resource="http://purl.org/dc/dcmitype/StillImage"/>
    <dc:date>2025-03-10T00:10:56.691593</dc:date>
    <dc:format>image/svg+xml</dc:format>
    <dc:creator>
     <cc:Agent>
      <dc:title>Matplotlib v3.9.4, https://matplotlib.org/</dc:title>
     </cc:Agent>
    </dc:creator>
   </cc:Work>
  </rdf:RDF>
 </metadata>
 <defs>
  <style type="text/css">*{stroke-linejoin: round; stroke-linecap: butt}</style>
 </defs>
 <g id="figure_1">
  <g id="patch_1">
   <path d="M 0 360 
L 792 360 
L 792 0 
L 0 0 
z
" style="fill: #ffffff"/>
  </g>
  <g id="axes_1">
   <g id="patch_2">
    <path d="M 99 320.4 
L 378 320.4 
L 378 43.2 
L 99 43.2 
z
" style="fill: #eaeaf2"/>
   </g>
   <g id="matplotlib.axis_1">
    <g id="xtick_1">
     <g id="line2d_1">
      <path d="M 111.681818 320.4 
L 111.681818 43.2 
" clip-path="url(#pec06c8264a)" style="fill: none; stroke: #ffffff; stroke-width: 0.8; stroke-linecap: round"/>
     </g>
     <g id="text_1">
      <!-- −10.0 -->
      <g style="fill: #262626" transform="translate(99.031037 334.557813) scale(0.1 -0.1)">
       <defs>
        <path id="ArialMT-2212" d="M 3381 1997 
L 356 1997 
L 356 2522 
L 3381 2522 
L 3381 1997 
z
" transform="scale(0.015625)"/>
        <path id="ArialMT-31" d="M 2384 0 
L 1822 0 
L 1822 3584 
Q 1619 3391 1289 3197 
Q 959 3003 697 2906 
L 697 3450 
Q 1169 3672 1522 3987 
Q 1875 4303 2022 4600 
L 2384 4600 
L 2384 0 
z
" transform="scale(0.015625)"/>
        <path id="ArialMT-30" d="M 266 2259 
Q 266 3072 433 3567 
Q 600 4063 929 4331 
Q 1259 4600 1759 4600 
Q 2128 4600 2406 4451 
Q 2684 4303 2865 4023 
Q 3047 3744 3150 3342 
Q 3253 2941 3253 2259 
Q 3253 1453 3087 958 
Q 2922 463 2592 192 
Q 2263 -78 1759 -78 
Q 1097 -78 719 397 
Q 266 969 266 2259 
z
M 844 2259 
Q 844 1131 1108 757 
Q 1372 384 1759 384 
Q 2147 384 2411 759 
Q 2675 1134 2675 2259 
Q 2675 3391 2411 3762 
Q 2147 4134 1753 4134 
Q 1366 4134 1134 3806 
Q 844 3388 844 2259 
z
" transform="scale(0.015625)"/>
        <path id="ArialMT-2e" d="M 581 0 
L 581 641 
L 1222 641 
L 1222 0 
L 581 0 
z
" transform="scale(0.015625)"/>
       </defs>
       <use xlink:href="#ArialMT-2212"/>
       <use xlink:href="#ArialMT-31" x="58.398438"/>
       <use xlink:href="#ArialMT-30" x="114.013672"/>
       <use xlink:href="#ArialMT-2e" x="169.628906"/>
       <use xlink:href="#ArialMT-30" x="197.412109"/>
      </g>
     </g>
    </g>
    <g id="xtick_2">
     <g id="line2d_2">
      <path d="M 143.545561 320.4 
L 143.545561 43.2 
" clip-path="url(#pec06c8264a)" style="fill: none; stroke: #ffffff; stroke-width: 0.8; stroke-linecap: round"/>
     </g>
     <g id="text_2">
      <!-- −7.5 -->
      <g style="fill: #262626" transform="translate(133.675249 334.557813) scale(0.1 -0.1)">
       <defs>
        <path id="ArialMT-37" d="M 303 3981 
L 303 4522 
L 3269 4522 
L 3269 4084 
Q 2831 3619 2401 2847 
Q 1972 2075 1738 1259 
Q 1569 684 1522 0 
L 944 0 
Q 953 541 1156 1306 
Q 1359 2072 1739 2783 
Q 2119 3494 2547 3981 
L 303 3981 
z
" transform="scale(0.015625)"/>
        <path id="ArialMT-35" d="M 266 1200 
L 856 1250 
Q 922 819 1161 601 
Q 1400 384 1738 384 
Q 2144 384 2425 690 
Q 2706 997 2706 1503 
Q 2706 1984 2436 2262 
Q 2166 2541 1728 2541 
Q 1456 2541 1237 2417 
Q 1019 2294 894 2097 
L 366 2166 
L 809 4519 
L 3088 4519 
L 3088 3981 
L 1259 3981 
L 1013 2750 
Q 1425 3038 1878 3038 
Q 2478 3038 2890 2622 
Q 3303 2206 3303 1553 
Q 3303 931 2941 478 
Q 2500 -78 1738 -78 
Q 1113 -78 717 272 
Q 322 622 266 1200 
z
" transform="scale(0.015625)"/>
       </defs>
       <use xlink:href="#ArialMT-2212"/>
       <use xlink:href="#ArialMT-37" x="58.398438"/>
       <use xlink:href="#ArialMT-2e" x="114.013672"/>
       <use xlink:href="#ArialMT-35" x="141.796875"/>
      </g>
     </g>
    </g>
    <g id="xtick_3">
     <g id="line2d_3">
      <path d="M 175.409305 320.4 
L 175.409305 43.2 
" clip-path="url(#pec06c8264a)" style="fill: none; stroke: #ffffff; stroke-width: 0.8; stroke-linecap: round"/>
     </g>
     <g id="text_3">
      <!-- −5.0 -->
      <g style="fill: #262626" transform="translate(165.538992 334.557813) scale(0.1 -0.1)">
       <use xlink:href="#ArialMT-2212"/>
       <use xlink:href="#ArialMT-35" x="58.398438"/>
       <use xlink:href="#ArialMT-2e" x="114.013672"/>
       <use xlink:href="#ArialMT-30" x="141.796875"/>
      </g>
     </g>
    </g>
    <g id="xtick_4">
     <g id="line2d_4">
      <path d="M 207.273048 320.4 
L 207.273048 43.2 
" clip-path="url(#pec06c8264a)" style="fill: none; stroke: #ffffff; stroke-width: 0.8; stroke-linecap: round"/>
     </g>
     <g id="text_4">
      <!-- −2.5 -->
      <g style="fill: #262626" transform="translate(197.402735 334.557813) scale(0.1 -0.1)">
       <defs>
        <path id="ArialMT-32" d="M 3222 541 
L 3222 0 
L 194 0 
Q 188 203 259 391 
Q 375 700 629 1000 
Q 884 1300 1366 1694 
Q 2113 2306 2375 2664 
Q 2638 3022 2638 3341 
Q 2638 3675 2398 3904 
Q 2159 4134 1775 4134 
Q 1369 4134 1125 3890 
Q 881 3647 878 3216 
L 300 3275 
Q 359 3922 746 4261 
Q 1134 4600 1788 4600 
Q 2447 4600 2831 4234 
Q 3216 3869 3216 3328 
Q 3216 3053 3103 2787 
Q 2991 2522 2730 2228 
Q 2469 1934 1863 1422 
Q 1356 997 1212 845 
Q 1069 694 975 541 
L 3222 541 
z
" transform="scale(0.015625)"/>
       </defs>
       <use xlink:href="#ArialMT-2212"/>
       <use xlink:href="#ArialMT-32" x="58.398438"/>
       <use xlink:href="#ArialMT-2e" x="114.013672"/>
       <use xlink:href="#ArialMT-35" x="141.796875"/>
      </g>
     </g>
    </g>
    <g id="xtick_5">
     <g id="line2d_5">
      <path d="M 239.136791 320.4 
L 239.136791 43.2 
" clip-path="url(#pec06c8264a)" style="fill: none; stroke: #ffffff; stroke-width: 0.8; stroke-linecap: round"/>
     </g>
     <g id="text_5">
      <!-- 0.0 -->
      <g style="fill: #262626" transform="translate(232.186791 334.557813) scale(0.1 -0.1)">
       <use xlink:href="#ArialMT-30"/>
       <use xlink:href="#ArialMT-2e" x="55.615234"/>
       <use xlink:href="#ArialMT-30" x="83.398438"/>
      </g>
     </g>
    </g>
    <g id="xtick_6">
     <g id="line2d_6">
      <path d="M 271.000534 320.4 
L 271.000534 43.2 
" clip-path="url(#pec06c8264a)" style="fill: none; stroke: #ffffff; stroke-width: 0.8; stroke-linecap: round"/>
     </g>
     <g id="text_6">
      <!-- 2.5 -->
      <g style="fill: #262626" transform="translate(264.050534 334.557813) scale(0.1 -0.1)">
       <use xlink:href="#ArialMT-32"/>
       <use xlink:href="#ArialMT-2e" x="55.615234"/>
       <use xlink:href="#ArialMT-35" x="83.398438"/>
      </g>
     </g>
    </g>
    <g id="xtick_7">
     <g id="line2d_7">
      <path d="M 302.864278 320.4 
L 302.864278 43.2 
" clip-path="url(#pec06c8264a)" style="fill: none; stroke: #ffffff; stroke-width: 0.8; stroke-linecap: round"/>
     </g>
     <g id="text_7">
      <!-- 5.0 -->
      <g style="fill: #262626" transform="translate(295.914278 334.557813) scale(0.1 -0.1)">
       <use xlink:href="#ArialMT-35"/>
       <use xlink:href="#ArialMT-2e" x="55.615234"/>
       <use xlink:href="#ArialMT-30" x="83.398438"/>
      </g>
     </g>
    </g>
    <g id="xtick_8">
     <g id="line2d_8">
      <path d="M 334.728021 320.4 
L 334.728021 43.2 
" clip-path="url(#pec06c8264a)" style="fill: none; stroke: #ffffff; stroke-width: 0.8; stroke-linecap: round"/>
     </g>
     <g id="text_8">
      <!-- 7.5 -->
      <g style="fill: #262626" transform="translate(327.778021 334.557813) scale(0.1 -0.1)">
       <use xlink:href="#ArialMT-37"/>
       <use xlink:href="#ArialMT-2e" x="55.615234"/>
       <use xlink:href="#ArialMT-35" x="83.398438"/>
      </g>
     </g>
    </g>
    <g id="xtick_9">
     <g id="line2d_9">
      <path d="M 366.591764 320.4 
L 366.591764 43.2 
" clip-path="url(#pec06c8264a)" style="fill: none; stroke: #ffffff; stroke-width: 0.8; stroke-linecap: round"/>
     </g>
     <g id="text_9">
      <!-- 10.0 -->
      <g style="fill: #262626" transform="translate(356.861295 334.557813) scale(0.1 -0.1)">
       <use xlink:href="#ArialMT-31"/>
       <use xlink:href="#ArialMT-30" x="55.615234"/>
       <use xlink:href="#ArialMT-2e" x="111.230469"/>
       <use xlink:href="#ArialMT-30" x="139.013672"/>
      </g>
     </g>
    </g>
    <g id="text_10">
     <!-- $x$ -->
     <g style="fill: #262626" transform="translate(235.5 347.703125) scale(0.1 -0.1)">
      <defs>
       <path id="DejaVuSans-Oblique-78" d="M 3841 3500 
L 2234 1784 
L 3219 0 
L 2559 0 
L 1819 1388 
L 531 0 
L -166 0 
L 1556 1844 
L 641 3500 
L 1300 3500 
L 1972 2234 
L 3144 3500 
L 3841 3500 
z
" transform="scale(0.015625)"/>
      </defs>
      <use xlink:href="#DejaVuSans-Oblique-78" transform="translate(0 0.3125)"/>
     </g>
    </g>
   </g>
   <g id="matplotlib.axis_2">
    <g id="ytick_1">
     <g id="line2d_10">
      <path d="M 99 298.454523 
L 378 298.454523 
" clip-path="url(#pec06c8264a)" style="fill: none; stroke: #ffffff; stroke-width: 0.8; stroke-linecap: round"/>
     </g>
     <g id="text_11">
      <!-- −10 -->
      <g style="fill: #262626" transform="translate(75.0375 302.03343) scale(0.1 -0.1)">
       <use xlink:href="#ArialMT-2212"/>
       <use xlink:href="#ArialMT-31" x="58.398438"/>
       <use xlink:href="#ArialMT-30" x="114.013672"/>
      </g>
     </g>
    </g>
    <g id="ytick_2">
     <g id="line2d_11">
      <path d="M 99 240.192135 
L 378 240.192135 
" clip-path="url(#pec06c8264a)" style="fill: none; stroke: #ffffff; stroke-width: 0.8; stroke-linecap: round"/>
     </g>
     <g id="text_12">
      <!-- −5 -->
      <g style="fill: #262626" transform="translate(80.598438 243.771041) scale(0.1 -0.1)">
       <use xlink:href="#ArialMT-2212"/>
       <use xlink:href="#ArialMT-35" x="58.398438"/>
      </g>
     </g>
    </g>
    <g id="ytick_3">
     <g id="line2d_12">
      <path d="M 99 181.929746 
L 378 181.929746 
" clip-path="url(#pec06c8264a)" style="fill: none; stroke: #ffffff; stroke-width: 0.8; stroke-linecap: round"/>
     </g>
     <g id="text_13">
      <!-- 0 -->
      <g style="fill: #262626" transform="translate(86.439063 185.508652) scale(0.1 -0.1)">
       <use xlink:href="#ArialMT-30"/>
      </g>
     </g>
    </g>
    <g id="ytick_4">
     <g id="line2d_13">
      <path d="M 99 123.667357 
L 378 123.667357 
" clip-path="url(#pec06c8264a)" style="fill: none; stroke: #ffffff; stroke-width: 0.8; stroke-linecap: round"/>
     </g>
     <g id="text_14">
      <!-- 5 -->
      <g style="fill: #262626" transform="translate(86.439063 127.246263) scale(0.1 -0.1)">
       <use xlink:href="#ArialMT-35"/>
      </g>
     </g>
    </g>
    <g id="ytick_5">
     <g id="line2d_14">
      <path d="M 99 65.404969 
L 378 65.404969 
" clip-path="url(#pec06c8264a)" style="fill: none; stroke: #ffffff; stroke-width: 0.8; stroke-linecap: round"/>
     </g>
     <g id="text_15">
      <!-- 10 -->
      <g style="fill: #262626" transform="translate(80.878125 68.983875) scale(0.1 -0.1)">
       <use xlink:href="#ArialMT-31"/>
       <use xlink:href="#ArialMT-30" x="55.615234"/>
      </g>
     </g>
    </g>
    <g id="text_16">
     <!-- $x_{step}$ -->
     <g style="fill: #262626" transform="translate(67.9375 192.5) rotate(-90) scale(0.1 -0.1)">
      <defs>
       <path id="DejaVuSans-Oblique-73" d="M 3200 3397 
L 3091 2853 
Q 2863 2978 2609 3040 
Q 2356 3103 2088 3103 
Q 1634 3103 1373 2948 
Q 1113 2794 1113 2528 
Q 1113 2219 1719 2053 
Q 1766 2041 1788 2034 
L 1972 1978 
Q 2547 1819 2739 1644 
Q 2931 1469 2931 1166 
Q 2931 609 2489 259 
Q 2047 -91 1331 -91 
Q 1053 -91 747 -37 
Q 441 16 72 128 
L 184 722 
Q 500 559 806 475 
Q 1113 391 1394 391 
Q 1816 391 2080 572 
Q 2344 753 2344 1031 
Q 2344 1331 1650 1516 
L 1591 1531 
L 1394 1581 
Q 956 1697 753 1886 
Q 550 2075 550 2369 
Q 550 2928 970 3256 
Q 1391 3584 2113 3584 
Q 2397 3584 2667 3537 
Q 2938 3491 3200 3397 
z
" transform="scale(0.015625)"/>
       <path id="DejaVuSans-Oblique-74" d="M 2706 3500 
L 2619 3053 
L 1472 3053 
L 1100 1153 
Q 1081 1047 1072 975 
Q 1063 903 1063 863 
Q 1063 663 1183 572 
Q 1303 481 1569 481 
L 2150 481 
L 2053 0 
L 1503 0 
Q 991 0 739 200 
Q 488 400 488 806 
Q 488 878 497 964 
Q 506 1050 525 1153 
L 897 3053 
L 409 3053 
L 500 3500 
L 978 3500 
L 1172 4494 
L 1747 4494 
L 1556 3500 
L 2706 3500 
z
" transform="scale(0.015625)"/>
       <path id="DejaVuSans-Oblique-65" d="M 3078 2063 
Q 3088 2113 3092 2166 
Q 3097 2219 3097 2272 
Q 3097 2653 2873 2875 
Q 2650 3097 2266 3097 
Q 1838 3097 1509 2826 
Q 1181 2556 1013 2059 
L 3078 2063 
z
M 3578 1613 
L 903 1613 
Q 884 1494 878 1425 
Q 872 1356 872 1306 
Q 872 872 1139 634 
Q 1406 397 1894 397 
Q 2269 397 2603 481 
Q 2938 566 3225 728 
L 3116 159 
Q 2806 34 2476 -28 
Q 2147 -91 1806 -91 
Q 1078 -91 686 257 
Q 294 606 294 1247 
Q 294 1794 489 2264 
Q 684 2734 1063 3103 
Q 1306 3334 1642 3459 
Q 1978 3584 2356 3584 
Q 2950 3584 3301 3228 
Q 3653 2872 3653 2272 
Q 3653 2128 3634 1964 
Q 3616 1800 3578 1613 
z
" transform="scale(0.015625)"/>
       <path id="DejaVuSans-Oblique-70" d="M 3175 2156 
Q 3175 2616 2975 2859 
Q 2775 3103 2400 3103 
Q 2144 3103 1911 2972 
Q 1678 2841 1497 2591 
Q 1319 2344 1212 1994 
Q 1106 1644 1106 1300 
Q 1106 863 1306 627 
Q 1506 391 1875 391 
Q 2147 391 2380 519 
Q 2613 647 2778 891 
Q 2956 1147 3065 1494 
Q 3175 1841 3175 2156 
z
M 1394 2969 
Q 1625 3272 1939 3428 
Q 2253 3584 2638 3584 
Q 3175 3584 3472 3232 
Q 3769 2881 3769 2247 
Q 3769 1728 3584 1258 
Q 3400 788 3053 416 
Q 2822 169 2531 39 
Q 2241 -91 1919 -91 
Q 1547 -91 1294 64 
Q 1041 219 916 525 
L 556 -1331 
L -19 -1331 
L 922 3500 
L 1497 3500 
L 1394 2969 
z
" transform="scale(0.015625)"/>
      </defs>
      <use xlink:href="#DejaVuSans-Oblique-78" transform="translate(0 0.3125)"/>
      <use xlink:href="#DejaVuSans-Oblique-73" transform="translate(59.179688 -16.09375) scale(0.7)"/>
      <use xlink:href="#DejaVuSans-Oblique-74" transform="translate(95.649414 -16.09375) scale(0.7)"/>
      <use xlink:href="#DejaVuSans-Oblique-65" transform="translate(123.095703 -16.09375) scale(0.7)"/>
      <use xlink:href="#DejaVuSans-Oblique-70" transform="translate(166.162109 -16.09375) scale(0.7)"/>
     </g>
    </g>
   </g>
   <g id="PolyCollection_1">
    <defs>
     <path id="m995b813e59" d="M 111.681818 -296.050191 
L 111.681818 -182.011005 
L 112.956373 -182.007696 
L 114.230927 -182.007696 
L 115.505482 -182.007696 
L 116.780037 -182.007696 
L 118.054591 -182.007696 
L 119.329146 -182.007696 
L 120.6037 -182.007696 
L 121.878255 -182.007696 
L 123.15281 -182.007696 
L 124.427364 -182.007696 
L 125.701919 -182.007696 
L 126.976473 -182.007696 
L 128.251028 -182.007696 
L 129.525582 -182.007696 
L 130.800137 -181.988446 
L 132.074692 -181.988446 
L 133.349246 -181.966501 
L 134.623801 -181.873502 
L 135.898355 -181.840438 
L 137.17291 -181.8157 
L 138.447465 -181.798347 
L 139.722019 -181.798347 
L 140.996574 -181.798347 
L 142.271128 -181.798347 
L 143.545683 -181.798347 
L 144.820238 -181.798347 
L 146.094792 -181.783591 
L 147.369347 -181.564917 
L 148.643901 -181.504222 
L 149.918456 -181.504222 
L 151.193011 -181.504222 
L 152.467565 -181.504222 
L 153.74212 -181.504222 
L 155.016674 -181.493931 
L 156.291229 -181.493931 
L 157.565783 -181.493931 
L 158.840338 -181.493931 
L 160.114893 -181.493931 
L 161.389447 -181.485633 
L 162.664002 -181.480069 
L 163.938556 -181.455691 
L 165.213111 -181.439392 
L 166.487666 -181.439392 
L 167.76222 -181.439392 
L 169.036775 -181.439392 
L 170.311329 -181.410776 
L 171.585884 -181.410776 
L 172.860439 -181.410776 
L 174.134993 -181.410776 
L 175.409548 -181.305184 
L 176.684102 -181.2673 
L 177.958657 -181.2673 
L 179.233212 -181.240877 
L 180.507766 -181.175202 
L 181.782321 -181.168789 
L 183.056875 -181.129579 
L 184.33143 -181.123754 
L 185.605984 -181.111059 
L 186.880539 -180.972798 
L 188.155094 -180.841129 
L 189.429648 -180.782768 
L 190.704203 -180.566572 
L 191.978757 -180.4311 
L 193.253312 -180.402645 
L 194.527867 -180.391482 
L 195.802421 -180.286042 
L 197.076976 -180.221423 
L 198.35153 -180.115867 
L 199.626085 -179.888135 
L 200.90064 -179.819173 
L 202.175194 -179.554335 
L 203.449749 -179.216853 
L 204.724303 -178.770171 
L 205.998858 -178.398157 
L 207.273413 -178.070254 
L 208.547967 -178.070254 
L 209.822522 -178.070254 
L 211.097076 -178.070254 
L 212.371631 -178.070254 
L 213.646185 -178.070254 
L 214.92074 -177.74938 
L 216.195295 -177.067858 
L 217.469849 -176.402544 
L 218.744404 -175.623179 
L 220.018958 -174.891449 
L 221.293513 -173.626956 
L 222.568068 -172.966534 
L 223.842622 -172.043449 
L 225.117177 -171.228953 
L 226.391731 -170.307957 
L 227.666286 -169.34172 
L 228.940841 -168.414142 
L 230.215395 -167.61313 
L 231.48995 -166.715105 
L 232.764504 -165.378879 
L 234.039059 -164.515858 
L 235.313614 -163.097943 
L 236.588168 -162.120853 
L 237.862723 -161.199105 
L 239.137277 -159.940998 
L 240.411832 -158.867974 
L 241.686386 -157.710392 
L 242.960941 -156.438401 
L 244.235496 -155.455359 
L 245.51005 -154.48624 
L 246.784605 -153.26823 
L 248.059159 -152.257411 
L 249.333714 -151.130464 
L 250.608269 -149.446406 
L 251.882823 -148.120962 
L 253.157378 -146.899891 
L 254.431932 -145.592288 
L 255.706487 -144.192486 
L 256.981042 -143.102811 
L 258.255596 -141.737934 
L 259.530151 -140.741222 
L 260.804705 -139.551333 
L 262.07926 -138.287419 
L 263.353815 -136.902592 
L 264.628369 -135.450255 
L 265.902924 -134.275213 
L 267.177478 -132.832102 
L 268.452033 -131.678832 
L 269.726587 -130.346298 
L 271.001142 -129.404172 
L 272.275697 -128.403515 
L 273.550251 -127.583661 
L 274.824806 -126.189688 
L 276.09936 -125.054884 
L 277.373915 -123.834252 
L 278.64847 -123.138704 
L 279.923024 -122.164557 
L 281.197579 -121.076454 
L 282.472133 -119.962715 
L 283.746688 -118.91289 
L 285.021243 -117.848718 
L 286.295797 -116.542091 
L 287.570352 -115.4202 
L 288.844906 -114.616143 
L 290.119461 -113.722723 
L 291.394016 -112.377279 
L 292.66857 -111.180262 
L 293.943125 -110.422383 
L 295.217679 -109.36948 
L 296.492234 -108.213718 
L 297.766788 -106.992319 
L 299.041343 -105.897627 
L 300.315898 -104.781681 
L 301.590452 -103.851368 
L 302.865007 -102.604382 
L 304.139561 -101.664989 
L 305.414116 -100.46227 
L 306.688671 -99.438071 
L 307.963225 -98.308002 
L 309.23778 -97.003397 
L 310.512334 -96.044885 
L 311.786889 -95.225609 
L 313.061444 -94.168044 
L 314.335998 -92.968059 
L 315.610553 -92.051264 
L 316.885107 -91.185153 
L 318.159662 -90.118559 
L 319.434217 -89.24507 
L 320.708771 -88.359585 
L 321.983326 -87.623337 
L 323.25788 -86.581397 
L 324.532435 -85.692722 
L 325.806989 -84.752318 
L 327.081544 -84.109951 
L 328.356099 -83.215236 
L 329.630653 -82.484145 
L 330.905208 -81.530533 
L 332.179762 -80.682292 
L 333.454317 -79.893726 
L 334.728872 -78.73163 
L 336.003426 -77.846839 
L 337.277981 -77.223908 
L 338.552535 -76.291088 
L 339.82709 -75.247875 
L 341.101645 -74.461987 
L 342.376199 -73.590909 
L 343.650754 -72.590636 
L 344.925308 -72.123004 
L 346.199863 -71.141522 
L 347.474418 -70.252508 
L 348.748972 -69.395455 
L 350.023527 -68.567328 
L 351.298081 -68.308736 
L 352.572636 -67.688627 
L 353.84719 -66.475545 
L 355.121745 -65.652063 
L 356.3963 -65.018041 
L 357.670854 -64.316932 
L 358.945409 -63.586829 
L 360.219963 -63.01915 
L 361.494518 -62.182944 
L 362.769073 -61.987594 
L 364.043627 -61.081412 
L 365.318182 -60.50542 
L 365.318182 -174.235425 
L 365.318182 -174.235425 
L 364.043627 -174.235425 
L 362.769073 -174.235425 
L 361.494518 -174.235425 
L 360.219963 -174.241802 
L 358.945409 -174.256357 
L 357.670854 -174.256357 
L 356.3963 -174.256357 
L 355.121745 -174.256357 
L 353.84719 -174.270295 
L 352.572636 -174.270295 
L 351.298081 -174.270295 
L 350.023527 -174.270295 
L 348.748972 -174.270295 
L 347.474418 -174.276972 
L 346.199863 -174.276972 
L 344.925308 -174.276972 
L 343.650754 -174.276972 
L 342.376199 -174.276972 
L 341.101645 -174.276972 
L 339.82709 -174.276972 
L 338.552535 -174.276972 
L 337.277981 -174.276972 
L 336.003426 -174.276972 
L 334.728872 -174.280491 
L 333.454317 -174.281801 
L 332.179762 -174.281801 
L 330.905208 -174.281801 
L 329.630653 -174.281801 
L 328.356099 -174.281801 
L 327.081544 -174.281801 
L 325.806989 -174.281801 
L 324.532435 -174.281801 
L 323.25788 -174.281801 
L 321.983326 -174.296404 
L 320.708771 -174.296404 
L 319.434217 -174.359101 
L 318.159662 -174.372069 
L 316.885107 -174.395816 
L 315.610553 -174.41351 
L 314.335998 -174.440258 
L 313.061444 -174.445064 
L 311.786889 -174.445064 
L 310.512334 -174.498347 
L 309.23778 -174.506958 
L 307.963225 -174.506958 
L 306.688671 -174.506958 
L 305.414116 -174.506958 
L 304.139561 -174.550249 
L 302.865007 -174.568966 
L 301.590452 -174.658096 
L 300.315898 -174.73632 
L 299.041343 -174.763067 
L 297.766788 -174.780957 
L 296.492234 -174.791135 
L 295.217679 -174.791135 
L 293.943125 -174.817499 
L 292.66857 -174.896126 
L 291.394016 -175.010154 
L 290.119461 -175.121687 
L 288.844906 -175.189013 
L 287.570352 -175.210009 
L 286.295797 -175.325659 
L 285.021243 -175.402899 
L 283.746688 -175.51747 
L 282.472133 -175.596175 
L 281.197579 -175.728924 
L 279.923024 -175.918718 
L 278.64847 -176.288986 
L 277.373915 -176.483206 
L 276.09936 -176.730034 
L 274.824806 -177.036786 
L 273.550251 -177.302002 
L 272.275697 -177.651505 
L 271.001142 -178.070254 
L 269.726587 -178.070254 
L 268.452033 -178.070254 
L 267.177478 -178.070254 
L 265.902924 -178.070254 
L 264.628369 -178.070254 
L 263.353815 -178.618605 
L 262.07926 -179.391536 
L 260.804705 -180.020764 
L 259.530151 -180.872047 
L 258.255596 -181.654836 
L 256.981042 -182.608292 
L 255.706487 -183.342577 
L 254.431932 -184.279791 
L 253.157378 -184.97104 
L 251.882823 -186.224594 
L 250.608269 -187.072242 
L 249.333714 -187.543063 
L 248.059159 -188.504184 
L 246.784605 -189.564903 
L 245.51005 -190.779442 
L 244.235496 -191.50631 
L 242.960941 -192.786401 
L 241.686386 -194.167902 
L 240.411832 -195.158817 
L 239.137277 -196.350971 
L 237.862723 -197.174485 
L 236.588168 -198.217011 
L 235.313614 -199.578879 
L 234.039059 -200.824352 
L 232.764504 -202.142475 
L 231.48995 -203.297646 
L 230.215395 -204.723168 
L 228.940841 -205.810109 
L 227.666286 -207.230533 
L 226.391731 -208.746884 
L 225.117177 -209.903419 
L 223.842622 -211.23066 
L 222.568068 -212.335979 
L 221.293513 -213.392541 
L 220.018958 -214.818688 
L 218.744404 -216.17919 
L 217.469849 -217.444406 
L 216.195295 -218.659029 
L 214.92074 -219.827285 
L 213.646185 -221.016824 
L 212.371631 -221.989874 
L 211.097076 -223.309387 
L 209.822522 -224.261956 
L 208.547967 -225.680077 
L 207.273413 -226.746916 
L 205.998858 -228.093077 
L 204.724303 -229.154098 
L 203.449749 -230.12959 
L 202.175194 -231.595845 
L 200.90064 -233.029924 
L 199.626085 -234.00061 
L 198.35153 -235.162857 
L 197.076976 -236.061349 
L 195.802421 -237.27957 
L 194.527867 -238.33654 
L 193.253312 -239.07386 
L 191.978757 -240.508645 
L 190.704203 -241.144506 
L 189.429648 -242.137084 
L 188.155094 -242.984247 
L 186.880539 -244.125868 
L 185.605984 -245.157535 
L 184.33143 -246.513814 
L 183.056875 -247.759961 
L 181.782321 -248.693725 
L 180.507766 -249.759486 
L 179.233212 -250.766927 
L 177.958657 -251.851696 
L 176.684102 -252.640167 
L 175.409548 -253.936094 
L 174.134993 -254.820151 
L 172.860439 -255.845778 
L 171.585884 -256.955772 
L 170.311329 -257.961891 
L 169.036775 -258.958698 
L 167.76222 -259.845333 
L 166.487666 -260.97178 
L 165.213111 -262.249237 
L 163.938556 -263.247093 
L 162.664002 -264.219135 
L 161.389447 -265.163589 
L 160.114893 -266.245497 
L 158.840338 -267.343267 
L 157.565783 -268.128349 
L 156.291229 -269.083256 
L 155.016674 -269.946827 
L 153.74212 -270.729275 
L 152.467565 -271.448765 
L 151.193011 -272.273514 
L 149.918456 -272.79032 
L 148.643901 -273.702681 
L 147.369347 -274.470222 
L 146.094792 -275.064194 
L 144.820238 -276.160436 
L 143.545683 -277.177023 
L 142.271128 -277.831982 
L 140.996574 -278.46866 
L 139.722019 -279.402669 
L 138.447465 -280.529816 
L 137.17291 -281.407483 
L 135.898355 -281.999199 
L 134.623801 -282.595316 
L 133.349246 -283.423266 
L 132.074692 -284.095004 
L 130.800137 -285.20746 
L 129.525582 -285.969356 
L 128.251028 -286.617636 
L 126.976473 -287.447763 
L 125.701919 -288.525514 
L 124.427364 -289.405626 
L 123.15281 -290.159121 
L 121.878255 -290.834049 
L 120.6037 -291.271655 
L 119.329146 -292.002868 
L 118.054591 -292.759085 
L 116.780037 -293.193813 
L 115.505482 -293.696417 
L 114.230927 -294.734273 
L 112.956373 -295.332768 
L 111.681818 -296.050191 
z
" style="stroke: #0000ff; stroke-opacity: 0.3"/>
    </defs>
    <g clip-path="url(#pec06c8264a)">
     <use xlink:href="#m995b813e59" x="0" y="360" style="fill: #0000ff; fill-opacity: 0.3; stroke: #0000ff; stroke-opacity: 0.3"/>
    </g>
   </g>
   <g id="line2d_15">
    <path d="M 111.681818 125.670532 
L 123.15281 126.574081 
L 138.447465 128.457029 
L 147.369347 130.067332 
L 155.016674 131.7012 
L 157.565783 132.335967 
L 165.213111 134.762035 
L 172.860439 137.518221 
L 176.684102 139.144321 
L 177.958657 139.560582 
L 183.056875 141.846561 
L 188.155094 144.531479 
L 193.253312 147.292305 
L 195.802421 148.56652 
L 200.90064 151.656283 
L 213.646185 160.71149 
L 223.842622 168.946037 
L 228.940841 173.563077 
L 231.48995 175.613938 
L 236.588168 179.906637 
L 251.882823 192.328251 
L 254.431932 194.448635 
L 269.726587 206.81127 
L 272.275697 208.67175 
L 273.550251 209.470654 
L 274.824806 210.431149 
L 278.64847 212.758242 
L 282.472133 215.001604 
L 286.295797 217.181132 
L 288.844906 218.521417 
L 292.66857 220.428595 
L 295.217679 221.567199 
L 299.041343 223.473013 
L 302.865007 225.126659 
L 306.688671 226.718096 
L 310.512334 228.165721 
L 320.708771 231.288537 
L 327.081544 232.784763 
L 341.101645 235.387739 
L 350.023527 236.588885 
L 352.572636 236.812172 
L 358.945409 237.459224 
L 365.318182 237.973679 
L 365.318182 237.973679 
" clip-path="url(#pec06c8264a)" style="fill: none; stroke: #0000ff; stroke-width: 1.5; stroke-linecap: round"/>
   </g>
   <g id="line2d_16">
    <path d="M 111.681818 124.049894 
L 123.15281 124.991187 
L 139.722019 127.184311 
L 149.918456 129.195215 
L 156.291229 130.646924 
L 160.114893 131.799247 
L 163.938556 133.057757 
L 175.409548 137.522435 
L 176.684102 138.092218 
L 177.958657 138.523165 
L 183.056875 140.902945 
L 189.429648 144.393851 
L 193.253312 146.531234 
L 195.802421 147.854342 
L 200.90064 151.016377 
L 216.195295 162.11537 
L 218.744404 164.16717 
L 222.568068 167.313925 
L 225.117177 169.530754 
L 230.215395 174.00061 
L 235.313614 178.526572 
L 239.137277 181.907609 
L 244.235496 186.42448 
L 250.608269 191.799315 
L 258.255596 198.135273 
L 271.001142 208.322918 
L 274.824806 211.015778 
L 278.64847 213.380977 
L 282.472133 215.673095 
L 286.295797 217.896876 
L 288.844906 219.283435 
L 292.66857 221.270485 
L 295.217679 222.438132 
L 299.041343 224.407525 
L 301.590452 225.515728 
L 304.139561 226.69876 
L 306.688671 227.763098 
L 310.512334 229.26872 
L 313.061444 230.170035 
L 315.610553 231.01432 
L 318.159662 231.815661 
L 320.708771 232.528205 
L 327.081544 234.099442 
L 339.82709 236.63767 
L 350.023527 238.071015 
L 352.572636 238.306148 
L 358.945409 238.97667 
L 365.318182 239.5111 
L 365.318182 239.5111 
" clip-path="url(#pec06c8264a)" style="fill: none; stroke-dasharray: 5.55,2.4; stroke-dashoffset: 0; stroke: #0000ff; stroke-width: 1.5"/>
   </g>
   <g id="LineCollection_1">
    <path d="M 111.681818 181.929746 
L 365.318182 181.929746 
" clip-path="url(#pec06c8264a)" style="fill: none; stroke-dasharray: 5.55,2.4; stroke-dashoffset: 0; stroke: #808080; stroke-width: 1.5"/>
   </g>
   <g id="LineCollection_2">
    <path d="M 239.136791 298.454523 
L 239.136791 65.404969 
" clip-path="url(#pec06c8264a)" style="fill: none; stroke-dasharray: 5.55,2.4; stroke-dashoffset: 0; stroke: #008000; stroke-width: 1.5"/>
   </g>
   <g id="patch_3">
    <path d="M 99 320.4 
L 99 43.2 
" style="fill: none; stroke: #ffffff; stroke-width: 0.8; stroke-linejoin: miter; stroke-linecap: square"/>
   </g>
   <g id="patch_4">
    <path d="M 378 320.4 
L 378 43.2 
" style="fill: none; stroke: #ffffff; stroke-width: 0.8; stroke-linejoin: miter; stroke-linecap: square"/>
   </g>
   <g id="patch_5">
    <path d="M 99 320.4 
L 378 320.4 
" style="fill: none; stroke: #ffffff; stroke-width: 0.8; stroke-linejoin: miter; stroke-linecap: square"/>
   </g>
   <g id="patch_6">
    <path d="M 99 43.2 
L 378 43.2 
" style="fill: none; stroke: #ffffff; stroke-width: 0.8; stroke-linejoin: miter; stroke-linecap: square"/>
   </g>
   <g id="legend_1">
    <g id="patch_7">
     <path d="M 106 315.4 
L 245.5 315.4 
Q 247.5 315.4 247.5 313.4 
L 247.5 237.409375 
Q 247.5 235.409375 245.5 235.409375 
L 106 235.409375 
Q 104 235.409375 104 237.409375 
L 104 313.4 
Q 104 315.4 106 315.4 
z
" style="fill: #eaeaf2; opacity: 0.8; stroke: #cccccc; stroke-linejoin: miter"/>
    </g>
    <g id="line2d_17">
     <path d="M 108 244.909375 
L 118 244.909375 
L 128 244.909375 
" style="fill: none; stroke: #0000ff; stroke-width: 1.5; stroke-linecap: round"/>
    </g>
    <g id="text_17">
     <!-- $E[x_{step}]$ for $P_1^5$ -->
     <g style="fill: #262626" transform="translate(136 248.409375) scale(0.1 -0.1)">
      <defs>
       <path id="DejaVuSans-Oblique-45" d="M 1081 4666 
L 4031 4666 
L 3928 4134 
L 1606 4134 
L 1338 2753 
L 3566 2753 
L 3463 2222 
L 1234 2222 
L 909 531 
L 3284 531 
L 3181 0 
L 172 0 
L 1081 4666 
z
" transform="scale(0.015625)"/>
       <path id="DejaVuSans-5b" d="M 550 4863 
L 1875 4863 
L 1875 4416 
L 1125 4416 
L 1125 -397 
L 1875 -397 
L 1875 -844 
L 550 -844 
L 550 4863 
z
" transform="scale(0.015625)"/>
       <path id="DejaVuSans-5d" d="M 1947 4863 
L 1947 -844 
L 622 -844 
L 622 -397 
L 1369 -397 
L 1369 4416 
L 622 4416 
L 622 4863 
L 1947 4863 
z
" transform="scale(0.015625)"/>
       <path id="ArialMT-20" transform="scale(0.015625)"/>
       <path id="ArialMT-66" d="M 556 0 
L 556 2881 
L 59 2881 
L 59 3319 
L 556 3319 
L 556 3672 
Q 556 4006 616 4169 
Q 697 4388 901 4523 
Q 1106 4659 1475 4659 
Q 1713 4659 2000 4603 
L 1916 4113 
Q 1741 4144 1584 4144 
Q 1328 4144 1222 4034 
Q 1116 3925 1116 3625 
L 1116 3319 
L 1763 3319 
L 1763 2881 
L 1116 2881 
L 1116 0 
L 556 0 
z
" transform="scale(0.015625)"/>
       <path id="ArialMT-6f" d="M 213 1659 
Q 213 2581 725 3025 
Q 1153 3394 1769 3394 
Q 2453 3394 2887 2945 
Q 3322 2497 3322 1706 
Q 3322 1066 3130 698 
Q 2938 331 2570 128 
Q 2203 -75 1769 -75 
Q 1072 -75 642 372 
Q 213 819 213 1659 
z
M 791 1659 
Q 791 1022 1069 705 
Q 1347 388 1769 388 
Q 2188 388 2466 706 
Q 2744 1025 2744 1678 
Q 2744 2294 2464 2611 
Q 2184 2928 1769 2928 
Q 1347 2928 1069 2612 
Q 791 2297 791 1659 
z
" transform="scale(0.015625)"/>
       <path id="ArialMT-72" d="M 416 0 
L 416 3319 
L 922 3319 
L 922 2816 
Q 1116 3169 1280 3281 
Q 1444 3394 1641 3394 
Q 1925 3394 2219 3213 
L 2025 2691 
Q 1819 2813 1613 2813 
Q 1428 2813 1281 2702 
Q 1134 2591 1072 2394 
Q 978 2094 978 1738 
L 978 0 
L 416 0 
z
" transform="scale(0.015625)"/>
       <path id="DejaVuSans-Oblique-50" d="M 1081 4666 
L 2541 4666 
Q 3178 4666 3512 4369 
Q 3847 4072 3847 3500 
Q 3847 2731 3353 2303 
Q 2859 1875 1966 1875 
L 1172 1875 
L 806 0 
L 172 0 
L 1081 4666 
z
M 1613 4147 
L 1275 2394 
L 2069 2394 
Q 2606 2394 2893 2669 
Q 3181 2944 3181 3456 
Q 3181 3784 2986 3965 
Q 2791 4147 2438 4147 
L 1613 4147 
z
" transform="scale(0.015625)"/>
       <path id="DejaVuSans-35" d="M 691 4666 
L 3169 4666 
L 3169 4134 
L 1269 4134 
L 1269 2991 
Q 1406 3038 1543 3061 
Q 1681 3084 1819 3084 
Q 2600 3084 3056 2656 
Q 3513 2228 3513 1497 
Q 3513 744 3044 326 
Q 2575 -91 1722 -91 
Q 1428 -91 1123 -41 
Q 819 9 494 109 
L 494 744 
Q 775 591 1075 516 
Q 1375 441 1709 441 
Q 2250 441 2565 725 
Q 2881 1009 2881 1497 
Q 2881 1984 2565 2268 
Q 2250 2553 1709 2553 
Q 1456 2553 1204 2497 
Q 953 2441 691 2322 
L 691 4666 
z
" transform="scale(0.015625)"/>
       <path id="DejaVuSans-31" d="M 794 531 
L 1825 531 
L 1825 4091 
L 703 3866 
L 703 4441 
L 1819 4666 
L 2450 4666 
L 2450 531 
L 3481 531 
L 3481 0 
L 794 0 
L 794 531 
z
" transform="scale(0.015625)"/>
      </defs>
      <use xlink:href="#DejaVuSans-Oblique-45" transform="translate(0 0.684375)"/>
      <use xlink:href="#DejaVuSans-5b" transform="translate(63.183594 0.684375)"/>
      <use xlink:href="#DejaVuSans-Oblique-78" transform="translate(102.197266 0.684375)"/>
      <use xlink:href="#DejaVuSans-Oblique-73" transform="translate(161.376953 -15.721875) scale(0.7)"/>
      <use xlink:href="#DejaVuSans-Oblique-74" transform="translate(197.84668 -15.721875) scale(0.7)"/>
      <use xlink:href="#DejaVuSans-Oblique-65" transform="translate(225.292969 -15.721875) scale(0.7)"/>
      <use xlink:href="#DejaVuSans-Oblique-70" transform="translate(268.359375 -15.721875) scale(0.7)"/>
      <use xlink:href="#DejaVuSans-5d" transform="translate(315.527344 0.684375)"/>
      <use xlink:href="#ArialMT-20" transform="translate(354.541016 0.684375)"/>
      <use xlink:href="#ArialMT-66" transform="translate(382.324219 0.684375)"/>
      <use xlink:href="#ArialMT-6f" transform="translate(410.107422 0.684375)"/>
      <use xlink:href="#ArialMT-72" transform="translate(465.722656 0.684375)"/>
      <use xlink:href="#ArialMT-20" transform="translate(499.023438 0.684375)"/>
      <use xlink:href="#DejaVuSans-Oblique-50" transform="translate(526.806641 0.684375)"/>
      <use xlink:href="#DejaVuSans-35" transform="translate(594.126146 38.965625) scale(0.7)"/>
      <use xlink:href="#DejaVuSans-31" transform="translate(587.109375 -26.659375) scale(0.7)"/>
     </g>
    </g>
    <g id="line2d_18">
     <path d="M 108 262.009375 
L 118 262.009375 
L 128 262.009375 
" style="fill: none; stroke-dasharray: 5.55,2.4; stroke-dashoffset: 0; stroke: #0000ff; stroke-width: 1.5"/>
    </g>
    <g id="text_18">
     <!-- $E[x_{step} | x_{step} \ne 0]$ for $P_1^5$ -->
     <g style="fill: #262626" transform="translate(136 265.509375) scale(0.1 -0.1)">
      <defs>
       <path id="DejaVuSans-7c" d="M 1344 4891 
L 1344 -1509 
L 813 -1509 
L 813 4891 
L 1344 4891 
z
" transform="scale(0.015625)"/>
       <path id="DejaVuSans-2260" d="M 678 2906 
L 3091 2906 
L 3891 3891 
L 4281 3572 
L 3738 2906 
L 4684 2906 
L 4684 2381 
L 3309 2381 
L 2700 1631 
L 4684 1631 
L 4684 1100 
L 2266 1100 
L 1459 122 
L 1069 441 
L 1613 1100 
L 678 1100 
L 678 1631 
L 2047 1631 
L 2656 2381 
L 678 2381 
L 678 2906 
z
" transform="scale(0.015625)"/>
       <path id="DejaVuSans-30" d="M 2034 4250 
Q 1547 4250 1301 3770 
Q 1056 3291 1056 2328 
Q 1056 1369 1301 889 
Q 1547 409 2034 409 
Q 2525 409 2770 889 
Q 3016 1369 3016 2328 
Q 3016 3291 2770 3770 
Q 2525 4250 2034 4250 
z
M 2034 4750 
Q 2819 4750 3233 4129 
Q 3647 3509 3647 2328 
Q 3647 1150 3233 529 
Q 2819 -91 2034 -91 
Q 1250 -91 836 529 
Q 422 1150 422 2328 
Q 422 3509 836 4129 
Q 1250 4750 2034 4750 
z
" transform="scale(0.015625)"/>
      </defs>
      <use xlink:href="#DejaVuSans-Oblique-45" transform="translate(0 0.684375)"/>
      <use xlink:href="#DejaVuSans-5b" transform="translate(63.183594 0.684375)"/>
      <use xlink:href="#DejaVuSans-Oblique-78" transform="translate(102.197266 0.684375)"/>
      <use xlink:href="#DejaVuSans-Oblique-73" transform="translate(161.376953 -15.721875) scale(0.7)"/>
      <use xlink:href="#DejaVuSans-Oblique-74" transform="translate(197.84668 -15.721875) scale(0.7)"/>
      <use xlink:href="#DejaVuSans-Oblique-65" transform="translate(225.292969 -15.721875) scale(0.7)"/>
      <use xlink:href="#DejaVuSans-Oblique-70" transform="translate(268.359375 -15.721875) scale(0.7)"/>
      <use xlink:href="#DejaVuSans-7c" transform="translate(315.527344 0.684375)"/>
      <use xlink:href="#DejaVuSans-Oblique-78" transform="translate(349.21875 0.684375)"/>
      <use xlink:href="#DejaVuSans-Oblique-73" transform="translate(408.398438 -15.721875) scale(0.7)"/>
      <use xlink:href="#DejaVuSans-Oblique-74" transform="translate(444.868164 -15.721875) scale(0.7)"/>
      <use xlink:href="#DejaVuSans-Oblique-65" transform="translate(472.314453 -15.721875) scale(0.7)"/>
      <use xlink:href="#DejaVuSans-Oblique-70" transform="translate(515.380859 -15.721875) scale(0.7)"/>
      <use xlink:href="#DejaVuSans-2260" transform="translate(582.03125 0.684375)"/>
      <use xlink:href="#DejaVuSans-30" transform="translate(685.302734 0.684375)"/>
      <use xlink:href="#DejaVuSans-5d" transform="translate(748.925781 0.684375)"/>
      <use xlink:href="#ArialMT-20" transform="translate(787.939453 0.684375)"/>
      <use xlink:href="#ArialMT-66" transform="translate(815.722656 0.684375)"/>
      <use xlink:href="#ArialMT-6f" transform="translate(843.505859 0.684375)"/>
      <use xlink:href="#ArialMT-72" transform="translate(899.121094 0.684375)"/>
      <use xlink:href="#ArialMT-20" transform="translate(932.421875 0.684375)"/>
      <use xlink:href="#DejaVuSans-Oblique-50" transform="translate(960.205078 0.684375)"/>
      <use xlink:href="#DejaVuSans-35" transform="translate(1027.524583 38.965625) scale(0.7)"/>
      <use xlink:href="#DejaVuSans-31" transform="translate(1020.507812 -26.659375) scale(0.7)"/>
     </g>
    </g>
    <g id="patch_8">
     <path d="M 108 280.767187 
L 128 280.767187 
L 128 273.767187 
L 108 273.767187 
z
" style="fill: #0000ff; fill-opacity: 0.3; stroke: #0000ff; stroke-opacity: 0.3; stroke-linejoin: miter"/>
    </g>
    <g id="text_19">
     <!-- 90% CI -->
     <g style="fill: #262626" transform="translate(136 280.767187) scale(0.1 -0.1)">
      <defs>
       <path id="ArialMT-39" d="M 350 1059 
L 891 1109 
Q 959 728 1153 556 
Q 1347 384 1650 384 
Q 1909 384 2104 503 
Q 2300 622 2425 820 
Q 2550 1019 2634 1356 
Q 2719 1694 2719 2044 
Q 2719 2081 2716 2156 
Q 2547 1888 2255 1720 
Q 1963 1553 1622 1553 
Q 1053 1553 659 1965 
Q 266 2378 266 3053 
Q 266 3750 677 4175 
Q 1088 4600 1706 4600 
Q 2153 4600 2523 4359 
Q 2894 4119 3086 3673 
Q 3278 3228 3278 2384 
Q 3278 1506 3087 986 
Q 2897 466 2520 194 
Q 2144 -78 1638 -78 
Q 1100 -78 759 220 
Q 419 519 350 1059 
z
M 2653 3081 
Q 2653 3566 2395 3850 
Q 2138 4134 1775 4134 
Q 1400 4134 1122 3828 
Q 844 3522 844 3034 
Q 844 2597 1108 2323 
Q 1372 2050 1759 2050 
Q 2150 2050 2401 2323 
Q 2653 2597 2653 3081 
z
" transform="scale(0.015625)"/>
       <path id="ArialMT-25" d="M 372 3481 
Q 372 3972 619 4315 
Q 866 4659 1334 4659 
Q 1766 4659 2048 4351 
Q 2331 4044 2331 3447 
Q 2331 2866 2045 2552 
Q 1759 2238 1341 2238 
Q 925 2238 648 2547 
Q 372 2856 372 3481 
z
M 1350 4272 
Q 1141 4272 1002 4090 
Q 863 3909 863 3425 
Q 863 2984 1003 2804 
Q 1144 2625 1350 2625 
Q 1563 2625 1702 2806 
Q 1841 2988 1841 3469 
Q 1841 3913 1700 4092 
Q 1559 4272 1350 4272 
z
M 1353 -169 
L 3859 4659 
L 4316 4659 
L 1819 -169 
L 1353 -169 
z
M 3334 1075 
Q 3334 1569 3581 1911 
Q 3828 2253 4300 2253 
Q 4731 2253 5014 1945 
Q 5297 1638 5297 1041 
Q 5297 459 5011 145 
Q 4725 -169 4303 -169 
Q 3888 -169 3611 142 
Q 3334 453 3334 1075 
z
M 4316 1866 
Q 4103 1866 3964 1684 
Q 3825 1503 3825 1019 
Q 3825 581 3965 400 
Q 4106 219 4313 219 
Q 4528 219 4667 400 
Q 4806 581 4806 1063 
Q 4806 1506 4665 1686 
Q 4525 1866 4316 1866 
z
" transform="scale(0.015625)"/>
       <path id="ArialMT-43" d="M 3763 1606 
L 4369 1453 
Q 4178 706 3683 314 
Q 3188 -78 2472 -78 
Q 1731 -78 1267 223 
Q 803 525 561 1097 
Q 319 1669 319 2325 
Q 319 3041 592 3573 
Q 866 4106 1370 4382 
Q 1875 4659 2481 4659 
Q 3169 4659 3637 4309 
Q 4106 3959 4291 3325 
L 3694 3184 
Q 3534 3684 3231 3912 
Q 2928 4141 2469 4141 
Q 1941 4141 1586 3887 
Q 1231 3634 1087 3207 
Q 944 2781 944 2328 
Q 944 1744 1114 1308 
Q 1284 872 1643 656 
Q 2003 441 2422 441 
Q 2931 441 3284 734 
Q 3638 1028 3763 1606 
z
" transform="scale(0.015625)"/>
       <path id="ArialMT-49" d="M 597 0 
L 597 4581 
L 1203 4581 
L 1203 0 
L 597 0 
z
" transform="scale(0.015625)"/>
      </defs>
      <use xlink:href="#ArialMT-39"/>
      <use xlink:href="#ArialMT-30" x="55.615234"/>
      <use xlink:href="#ArialMT-25" x="111.230469"/>
      <use xlink:href="#ArialMT-20" x="200.146484"/>
      <use xlink:href="#ArialMT-43" x="227.929688"/>
      <use xlink:href="#ArialMT-49" x="300.146484"/>
     </g>
    </g>
    <g id="line2d_19">
     <path d="M 108 291.4125 
L 128 291.4125 
" style="fill: none; stroke-dasharray: 5.55,2.4; stroke-dashoffset: 0; stroke: #808080; stroke-width: 1.5"/>
    </g>
    <g id="text_20">
     <!-- $x_{next} = x$ -->
     <g style="fill: #262626" transform="translate(136 294.9125) scale(0.1 -0.1)">
      <defs>
       <path id="DejaVuSans-Oblique-6e" d="M 3566 2113 
L 3156 0 
L 2578 0 
L 2988 2091 
Q 3016 2238 3031 2350 
Q 3047 2463 3047 2528 
Q 3047 2791 2881 2937 
Q 2716 3084 2419 3084 
Q 1956 3084 1622 2776 
Q 1288 2469 1184 1941 
L 800 0 
L 225 0 
L 903 3500 
L 1478 3500 
L 1363 2950 
Q 1603 3253 1940 3418 
Q 2278 3584 2650 3584 
Q 3113 3584 3367 3334 
Q 3622 3084 3622 2631 
Q 3622 2519 3608 2391 
Q 3594 2263 3566 2113 
z
" transform="scale(0.015625)"/>
       <path id="DejaVuSans-3d" d="M 678 2906 
L 4684 2906 
L 4684 2381 
L 678 2381 
L 678 2906 
z
M 678 1631 
L 4684 1631 
L 4684 1100 
L 678 1100 
L 678 1631 
z
" transform="scale(0.015625)"/>
      </defs>
      <use xlink:href="#DejaVuSans-Oblique-78" transform="translate(0 0.3125)"/>
      <use xlink:href="#DejaVuSans-Oblique-6e" transform="translate(59.179688 -16.09375) scale(0.7)"/>
      <use xlink:href="#DejaVuSans-Oblique-65" transform="translate(103.544922 -16.09375) scale(0.7)"/>
      <use xlink:href="#DejaVuSans-Oblique-78" transform="translate(146.611328 -16.09375) scale(0.7)"/>
      <use xlink:href="#DejaVuSans-Oblique-74" transform="translate(188.037109 -16.09375) scale(0.7)"/>
      <use xlink:href="#DejaVuSans-3d" transform="translate(237.700195 0.3125)"/>
      <use xlink:href="#DejaVuSans-Oblique-78" transform="translate(340.97168 0.3125)"/>
     </g>
    </g>
    <g id="line2d_20">
     <path d="M 108 305.7 
L 128 305.7 
" style="fill: none; stroke-dasharray: 5.55,2.4; stroke-dashoffset: 0; stroke: #008000; stroke-width: 1.5"/>
    </g>
    <g id="text_21">
     <!-- mode of target $\pi$ -->
     <g style="fill: #262626" transform="translate(136 309.2) scale(0.1 -0.1)">
      <defs>
       <path id="ArialMT-6d" d="M 422 0 
L 422 3319 
L 925 3319 
L 925 2853 
Q 1081 3097 1340 3245 
Q 1600 3394 1931 3394 
Q 2300 3394 2536 3241 
Q 2772 3088 2869 2813 
Q 3263 3394 3894 3394 
Q 4388 3394 4653 3120 
Q 4919 2847 4919 2278 
L 4919 0 
L 4359 0 
L 4359 2091 
Q 4359 2428 4304 2576 
Q 4250 2725 4106 2815 
Q 3963 2906 3769 2906 
Q 3419 2906 3187 2673 
Q 2956 2441 2956 1928 
L 2956 0 
L 2394 0 
L 2394 2156 
Q 2394 2531 2256 2718 
Q 2119 2906 1806 2906 
Q 1569 2906 1367 2781 
Q 1166 2656 1075 2415 
Q 984 2175 984 1722 
L 984 0 
L 422 0 
z
" transform="scale(0.015625)"/>
       <path id="ArialMT-64" d="M 2575 0 
L 2575 419 
Q 2259 -75 1647 -75 
Q 1250 -75 917 144 
Q 584 363 401 755 
Q 219 1147 219 1656 
Q 219 2153 384 2558 
Q 550 2963 881 3178 
Q 1213 3394 1622 3394 
Q 1922 3394 2156 3267 
Q 2391 3141 2538 2938 
L 2538 4581 
L 3097 4581 
L 3097 0 
L 2575 0 
z
M 797 1656 
Q 797 1019 1065 703 
Q 1334 388 1700 388 
Q 2069 388 2326 689 
Q 2584 991 2584 1609 
Q 2584 2291 2321 2609 
Q 2059 2928 1675 2928 
Q 1300 2928 1048 2622 
Q 797 2316 797 1656 
z
" transform="scale(0.015625)"/>
       <path id="ArialMT-65" d="M 2694 1069 
L 3275 997 
Q 3138 488 2766 206 
Q 2394 -75 1816 -75 
Q 1088 -75 661 373 
Q 234 822 234 1631 
Q 234 2469 665 2931 
Q 1097 3394 1784 3394 
Q 2450 3394 2872 2941 
Q 3294 2488 3294 1666 
Q 3294 1616 3291 1516 
L 816 1516 
Q 847 969 1125 678 
Q 1403 388 1819 388 
Q 2128 388 2347 550 
Q 2566 713 2694 1069 
z
M 847 1978 
L 2700 1978 
Q 2663 2397 2488 2606 
Q 2219 2931 1791 2931 
Q 1403 2931 1139 2672 
Q 875 2413 847 1978 
z
" transform="scale(0.015625)"/>
       <path id="ArialMT-74" d="M 1650 503 
L 1731 6 
Q 1494 -44 1306 -44 
Q 1000 -44 831 53 
Q 663 150 594 308 
Q 525 466 525 972 
L 525 2881 
L 113 2881 
L 113 3319 
L 525 3319 
L 525 4141 
L 1084 4478 
L 1084 3319 
L 1650 3319 
L 1650 2881 
L 1084 2881 
L 1084 941 
Q 1084 700 1114 631 
Q 1144 563 1211 522 
Q 1278 481 1403 481 
Q 1497 481 1650 503 
z
" transform="scale(0.015625)"/>
       <path id="ArialMT-61" d="M 2588 409 
Q 2275 144 1986 34 
Q 1697 -75 1366 -75 
Q 819 -75 525 192 
Q 231 459 231 875 
Q 231 1119 342 1320 
Q 453 1522 633 1644 
Q 813 1766 1038 1828 
Q 1203 1872 1538 1913 
Q 2219 1994 2541 2106 
Q 2544 2222 2544 2253 
Q 2544 2597 2384 2738 
Q 2169 2928 1744 2928 
Q 1347 2928 1158 2789 
Q 969 2650 878 2297 
L 328 2372 
Q 403 2725 575 2942 
Q 747 3159 1072 3276 
Q 1397 3394 1825 3394 
Q 2250 3394 2515 3294 
Q 2781 3194 2906 3042 
Q 3031 2891 3081 2659 
Q 3109 2516 3109 2141 
L 3109 1391 
Q 3109 606 3145 398 
Q 3181 191 3288 0 
L 2700 0 
Q 2613 175 2588 409 
z
M 2541 1666 
Q 2234 1541 1622 1453 
Q 1275 1403 1131 1340 
Q 988 1278 909 1158 
Q 831 1038 831 891 
Q 831 666 1001 516 
Q 1172 366 1500 366 
Q 1825 366 2078 508 
Q 2331 650 2450 897 
Q 2541 1088 2541 1459 
L 2541 1666 
z
" transform="scale(0.015625)"/>
       <path id="ArialMT-67" d="M 319 -275 
L 866 -356 
Q 900 -609 1056 -725 
Q 1266 -881 1628 -881 
Q 2019 -881 2231 -725 
Q 2444 -569 2519 -288 
Q 2563 -116 2559 434 
Q 2191 0 1641 0 
Q 956 0 581 494 
Q 206 988 206 1678 
Q 206 2153 378 2554 
Q 550 2956 876 3175 
Q 1203 3394 1644 3394 
Q 2231 3394 2613 2919 
L 2613 3319 
L 3131 3319 
L 3131 450 
Q 3131 -325 2973 -648 
Q 2816 -972 2473 -1159 
Q 2131 -1347 1631 -1347 
Q 1038 -1347 672 -1080 
Q 306 -813 319 -275 
z
M 784 1719 
Q 784 1066 1043 766 
Q 1303 466 1694 466 
Q 2081 466 2343 764 
Q 2606 1063 2606 1700 
Q 2606 2309 2336 2618 
Q 2066 2928 1684 2928 
Q 1309 2928 1046 2623 
Q 784 2319 784 1719 
z
" transform="scale(0.015625)"/>
       <path id="DejaVuSans-Oblique-3c0" d="M 584 3500 
L 3938 3500 
L 3825 2925 
L 3384 2925 
L 2966 775 
Q 2922 550 2981 450 
Q 3038 353 3209 353 
Q 3256 353 3325 363 
Q 3397 369 3419 372 
L 3338 -44 
Q 3222 -84 3103 -103 
Q 2981 -122 2866 -122 
Q 2491 -122 2388 81 
Q 2284 288 2391 838 
L 2797 2925 
L 1506 2925 
L 938 0 
L 350 0 
L 919 2925 
L 472 2925 
L 584 3500 
z
" transform="scale(0.015625)"/>
      </defs>
      <use xlink:href="#ArialMT-6d" transform="translate(0 0.203125)"/>
      <use xlink:href="#ArialMT-6f" transform="translate(83.300781 0.203125)"/>
      <use xlink:href="#ArialMT-64" transform="translate(138.916016 0.203125)"/>
      <use xlink:href="#ArialMT-65" transform="translate(194.53125 0.203125)"/>
      <use xlink:href="#ArialMT-20" transform="translate(250.146484 0.203125)"/>
      <use xlink:href="#ArialMT-6f" transform="translate(277.929688 0.203125)"/>
      <use xlink:href="#ArialMT-66" transform="translate(333.544922 0.203125)"/>
      <use xlink:href="#ArialMT-20" transform="translate(361.328125 0.203125)"/>
      <use xlink:href="#ArialMT-74" transform="translate(389.111328 0.203125)"/>
      <use xlink:href="#ArialMT-61" transform="translate(416.894531 0.203125)"/>
      <use xlink:href="#ArialMT-72" transform="translate(472.509766 0.203125)"/>
      <use xlink:href="#ArialMT-67" transform="translate(505.810547 0.203125)"/>
      <use xlink:href="#ArialMT-65" transform="translate(561.425781 0.203125)"/>
      <use xlink:href="#ArialMT-74" transform="translate(617.041016 0.203125)"/>
      <use xlink:href="#ArialMT-20" transform="translate(644.824219 0.203125)"/>
      <use xlink:href="#DejaVuSans-Oblique-3c0" transform="translate(672.607422 0.203125)"/>
     </g>
    </g>
   </g>
  </g>
  <g id="axes_2">
   <g id="patch_9">
    <path d="M 433.8 320.4 
L 712.8 320.4 
L 712.8 43.2 
L 433.8 43.2 
z
" style="fill: #eaeaf2"/>
   </g>
   <g id="matplotlib.axis_3">
    <g id="xtick_10">
     <g id="line2d_21">
      <path d="M 446.481818 320.4 
L 446.481818 43.2 
" clip-path="url(#pde98e0e3b3)" style="fill: none; stroke: #ffffff; stroke-width: 0.8; stroke-linecap: round"/>
     </g>
     <g id="text_22">
      <!-- −10.0 -->
      <g style="fill: #262626" transform="translate(433.831037 334.557813) scale(0.1 -0.1)">
       <use xlink:href="#ArialMT-2212"/>
       <use xlink:href="#ArialMT-31" x="58.398438"/>
       <use xlink:href="#ArialMT-30" x="114.013672"/>
       <use xlink:href="#ArialMT-2e" x="169.628906"/>
       <use xlink:href="#ArialMT-30" x="197.412109"/>
      </g>
     </g>
    </g>
    <g id="xtick_11">
     <g id="line2d_22">
      <path d="M 478.345561 320.4 
L 478.345561 43.2 
" clip-path="url(#pde98e0e3b3)" style="fill: none; stroke: #ffffff; stroke-width: 0.8; stroke-linecap: round"/>
     </g>
     <g id="text_23">
      <!-- −7.5 -->
      <g style="fill: #262626" transform="translate(468.475249 334.557813) scale(0.1 -0.1)">
       <use xlink:href="#ArialMT-2212"/>
       <use xlink:href="#ArialMT-37" x="58.398438"/>
       <use xlink:href="#ArialMT-2e" x="114.013672"/>
       <use xlink:href="#ArialMT-35" x="141.796875"/>
      </g>
     </g>
    </g>
    <g id="xtick_12">
     <g id="line2d_23">
      <path d="M 510.209305 320.4 
L 510.209305 43.2 
" clip-path="url(#pde98e0e3b3)" style="fill: none; stroke: #ffffff; stroke-width: 0.8; stroke-linecap: round"/>
     </g>
     <g id="text_24">
      <!-- −5.0 -->
      <g style="fill: #262626" transform="translate(500.338992 334.557813) scale(0.1 -0.1)">
       <use xlink:href="#ArialMT-2212"/>
       <use xlink:href="#ArialMT-35" x="58.398438"/>
       <use xlink:href="#ArialMT-2e" x="114.013672"/>
       <use xlink:href="#ArialMT-30" x="141.796875"/>
      </g>
     </g>
    </g>
    <g id="xtick_13">
     <g id="line2d_24">
      <path d="M 542.073048 320.4 
L 542.073048 43.2 
" clip-path="url(#pde98e0e3b3)" style="fill: none; stroke: #ffffff; stroke-width: 0.8; stroke-linecap: round"/>
     </g>
     <g id="text_25">
      <!-- −2.5 -->
      <g style="fill: #262626" transform="translate(532.202735 334.557813) scale(0.1 -0.1)">
       <use xlink:href="#ArialMT-2212"/>
       <use xlink:href="#ArialMT-32" x="58.398438"/>
       <use xlink:href="#ArialMT-2e" x="114.013672"/>
       <use xlink:href="#ArialMT-35" x="141.796875"/>
      </g>
     </g>
    </g>
    <g id="xtick_14">
     <g id="line2d_25">
      <path d="M 573.936791 320.4 
L 573.936791 43.2 
" clip-path="url(#pde98e0e3b3)" style="fill: none; stroke: #ffffff; stroke-width: 0.8; stroke-linecap: round"/>
     </g>
     <g id="text_26">
      <!-- 0.0 -->
      <g style="fill: #262626" transform="translate(566.986791 334.557813) scale(0.1 -0.1)">
       <use xlink:href="#ArialMT-30"/>
       <use xlink:href="#ArialMT-2e" x="55.615234"/>
       <use xlink:href="#ArialMT-30" x="83.398438"/>
      </g>
     </g>
    </g>
    <g id="xtick_15">
     <g id="line2d_26">
      <path d="M 605.800534 320.4 
L 605.800534 43.2 
" clip-path="url(#pde98e0e3b3)" style="fill: none; stroke: #ffffff; stroke-width: 0.8; stroke-linecap: round"/>
     </g>
     <g id="text_27">
      <!-- 2.5 -->
      <g style="fill: #262626" transform="translate(598.850534 334.557813) scale(0.1 -0.1)">
       <use xlink:href="#ArialMT-32"/>
       <use xlink:href="#ArialMT-2e" x="55.615234"/>
       <use xlink:href="#ArialMT-35" x="83.398438"/>
      </g>
     </g>
    </g>
    <g id="xtick_16">
     <g id="line2d_27">
      <path d="M 637.664278 320.4 
L 637.664278 43.2 
" clip-path="url(#pde98e0e3b3)" style="fill: none; stroke: #ffffff; stroke-width: 0.8; stroke-linecap: round"/>
     </g>
     <g id="text_28">
      <!-- 5.0 -->
      <g style="fill: #262626" transform="translate(630.714278 334.557813) scale(0.1 -0.1)">
       <use xlink:href="#ArialMT-35"/>
       <use xlink:href="#ArialMT-2e" x="55.615234"/>
       <use xlink:href="#ArialMT-30" x="83.398438"/>
      </g>
     </g>
    </g>
    <g id="xtick_17">
     <g id="line2d_28">
      <path d="M 669.528021 320.4 
L 669.528021 43.2 
" clip-path="url(#pde98e0e3b3)" style="fill: none; stroke: #ffffff; stroke-width: 0.8; stroke-linecap: round"/>
     </g>
     <g id="text_29">
      <!-- 7.5 -->
      <g style="fill: #262626" transform="translate(662.578021 334.557813) scale(0.1 -0.1)">
       <use xlink:href="#ArialMT-37"/>
       <use xlink:href="#ArialMT-2e" x="55.615234"/>
       <use xlink:href="#ArialMT-35" x="83.398438"/>
      </g>
     </g>
    </g>
    <g id="xtick_18">
     <g id="line2d_29">
      <path d="M 701.391764 320.4 
L 701.391764 43.2 
" clip-path="url(#pde98e0e3b3)" style="fill: none; stroke: #ffffff; stroke-width: 0.8; stroke-linecap: round"/>
     </g>
     <g id="text_30">
      <!-- 10.0 -->
      <g style="fill: #262626" transform="translate(691.661295 334.557813) scale(0.1 -0.1)">
       <use xlink:href="#ArialMT-31"/>
       <use xlink:href="#ArialMT-30" x="55.615234"/>
       <use xlink:href="#ArialMT-2e" x="111.230469"/>
       <use xlink:href="#ArialMT-30" x="139.013672"/>
      </g>
     </g>
    </g>
    <g id="text_31">
     <!-- $x$ -->
     <g style="fill: #262626" transform="translate(570.3 347.703125) scale(0.1 -0.1)">
      <use xlink:href="#DejaVuSans-Oblique-78" transform="translate(0 0.3125)"/>
     </g>
    </g>
   </g>
   <g id="matplotlib.axis_4">
    <g id="ytick_6">
     <g id="line2d_30">
      <path d="M 433.8 298.454523 
L 712.8 298.454523 
" clip-path="url(#pde98e0e3b3)" style="fill: none; stroke: #ffffff; stroke-width: 0.8; stroke-linecap: round"/>
     </g>
    </g>
    <g id="ytick_7">
     <g id="line2d_31">
      <path d="M 433.8 240.192135 
L 712.8 240.192135 
" clip-path="url(#pde98e0e3b3)" style="fill: none; stroke: #ffffff; stroke-width: 0.8; stroke-linecap: round"/>
     </g>
    </g>
    <g id="ytick_8">
     <g id="line2d_32">
      <path d="M 433.8 181.929746 
L 712.8 181.929746 
" clip-path="url(#pde98e0e3b3)" style="fill: none; stroke: #ffffff; stroke-width: 0.8; stroke-linecap: round"/>
     </g>
    </g>
    <g id="ytick_9">
     <g id="line2d_33">
      <path d="M 433.8 123.667357 
L 712.8 123.667357 
" clip-path="url(#pde98e0e3b3)" style="fill: none; stroke: #ffffff; stroke-width: 0.8; stroke-linecap: round"/>
     </g>
    </g>
    <g id="ytick_10">
     <g id="line2d_34">
      <path d="M 433.8 65.404969 
L 712.8 65.404969 
" clip-path="url(#pde98e0e3b3)" style="fill: none; stroke: #ffffff; stroke-width: 0.8; stroke-linecap: round"/>
     </g>
    </g>
   </g>
   <g id="PolyCollection_2">
    <defs>
     <path id="m830898eeef" d="M 446.481818 -304.2 
L 446.481818 -182.883825 
L 447.756373 -182.883825 
L 449.030927 -182.883825 
L 450.305482 -182.8747 
L 451.580037 -182.8747 
L 452.854591 -182.8747 
L 454.129146 -182.8747 
L 455.4037 -182.859482 
L 456.678255 -182.859482 
L 457.95281 -182.859482 
L 459.227364 -182.859482 
L 460.501919 -182.859482 
L 461.776473 -182.859482 
L 463.051028 -182.859482 
L 464.325582 -182.788824 
L 465.600137 -182.788824 
L 466.874692 -182.788823 
L 468.149246 -182.788823 
L 469.423801 -182.784865 
L 470.698355 -182.784865 
L 471.97291 -182.784865 
L 473.247465 -182.784865 
L 474.522019 -182.784865 
L 475.796574 -182.784865 
L 477.071128 -182.784865 
L 478.345683 -182.784865 
L 479.620238 -182.784865 
L 480.894792 -182.784865 
L 482.169347 -182.761815 
L 483.443901 -182.761815 
L 484.718456 -182.761815 
L 485.993011 -182.735543 
L 487.267565 -182.534193 
L 488.54212 -182.534193 
L 489.816674 -182.534193 
L 491.091229 -182.534193 
L 492.365783 -182.534193 
L 493.640338 -182.534193 
L 494.914893 -182.534193 
L 496.189447 -182.516528 
L 497.464002 -182.445358 
L 498.738556 -182.182014 
L 500.013111 -182.182014 
L 501.287666 -182.182014 
L 502.56222 -182.182014 
L 503.836775 -182.169693 
L 505.111329 -182.169693 
L 506.385884 -182.153091 
L 507.660439 -182.104383 
L 508.934993 -182.104383 
L 510.209548 -181.898326 
L 511.484102 -181.889876 
L 512.758657 -181.889876 
L 514.033212 -181.86669 
L 515.307766 -181.795836 
L 516.582321 -181.795836 
L 517.856875 -181.795836 
L 519.13143 -181.78805 
L 520.405984 -181.765836 
L 521.680539 -181.759812 
L 522.955094 -181.562403 
L 524.229648 -181.395947 
L 525.504203 -181.31816 
L 526.778757 -181.200383 
L 528.053312 -181.047272 
L 529.327867 -180.703528 
L 530.602421 -180.600712 
L 531.876976 -180.270905 
L 533.15153 -180.109698 
L 534.426085 -179.823379 
L 535.70064 -179.244741 
L 536.975194 -178.965644 
L 538.249749 -178.462877 
L 539.524303 -178.070254 
L 540.798858 -178.070254 
L 542.073413 -178.070254 
L 543.347967 -178.070254 
L 544.622522 -178.070254 
L 545.897076 -178.070254 
L 547.171631 -178.070254 
L 548.446185 -178.070254 
L 549.72074 -177.991861 
L 550.995295 -177.023656 
L 552.269849 -176.405219 
L 553.544404 -175.522696 
L 554.818958 -174.762194 
L 556.093513 -173.834887 
L 557.368068 -172.778603 
L 558.642622 -172.191203 
L 559.917177 -171.324172 
L 561.191731 -170.106729 
L 562.466286 -169.21046 
L 563.740841 -168.4717 
L 565.015395 -167.634118 
L 566.28995 -166.887648 
L 567.564504 -165.726045 
L 568.839059 -164.875439 
L 570.113614 -163.612905 
L 571.388168 -162.368396 
L 572.662723 -161.314953 
L 573.937277 -160.2623 
L 575.211832 -159.186102 
L 576.486386 -157.887904 
L 577.760941 -156.52549 
L 579.035496 -155.205103 
L 580.31005 -154.269596 
L 581.584605 -153.05782 
L 582.859159 -151.940003 
L 584.133714 -150.790897 
L 585.408269 -149.46887 
L 586.682823 -148.177106 
L 587.957378 -146.968033 
L 589.231932 -145.44247 
L 590.506487 -144.072872 
L 591.781042 -142.792601 
L 593.055596 -141.44859 
L 594.330151 -139.966019 
L 595.604705 -138.473512 
L 596.87926 -137.194194 
L 598.153815 -135.922085 
L 599.428369 -134.475138 
L 600.702924 -133.481985 
L 601.977478 -132.349157 
L 603.252033 -130.78496 
L 604.526587 -129.62782 
L 605.801142 -128.250921 
L 607.075697 -127.025188 
L 608.350251 -125.798277 
L 609.624806 -124.41405 
L 610.89936 -123.142666 
L 612.173915 -122.066754 
L 613.44847 -120.833931 
L 614.723024 -119.871324 
L 615.997579 -118.916985 
L 617.272133 -117.949833 
L 618.546688 -116.877899 
L 619.821243 -115.795175 
L 621.095797 -114.418171 
L 622.370352 -113.240189 
L 623.644906 -112.247094 
L 624.919461 -111.248716 
L 626.194016 -110.553085 
L 627.46857 -109.189216 
L 628.743125 -107.960377 
L 630.017679 -106.563492 
L 631.292234 -105.554551 
L 632.566788 -104.581364 
L 633.841343 -103.556565 
L 635.115898 -102.58544 
L 636.390452 -101.717335 
L 637.665007 -100.519139 
L 638.939561 -99.164338 
L 640.214116 -98.20232 
L 641.488671 -97.128503 
L 642.763225 -95.92669 
L 644.03778 -94.811956 
L 645.312334 -93.665979 
L 646.586889 -92.671934 
L 647.861444 -91.55241 
L 649.135998 -90.330639 
L 650.410553 -89.359903 
L 651.685107 -88.069367 
L 652.959662 -87.231071 
L 654.234217 -86.471248 
L 655.508771 -84.937433 
L 656.783326 -84.021383 
L 658.05788 -82.784165 
L 659.332435 -81.637071 
L 660.606989 -80.954619 
L 661.881544 -79.726769 
L 663.156099 -78.622804 
L 664.430653 -77.510659 
L 665.705208 -76.444721 
L 666.979762 -75.392929 
L 668.254317 -74.227721 
L 669.528872 -73.269676 
L 670.803426 -72.259678 
L 672.077981 -71.162969 
L 673.352535 -70.521079 
L 674.62709 -69.77103 
L 675.901645 -68.85119 
L 677.176199 -68.044921 
L 678.450754 -66.633368 
L 679.725308 -66.161801 
L 680.999863 -65.582631 
L 682.274418 -64.940452 
L 683.548972 -64.082654 
L 684.823527 -62.831479 
L 686.098081 -61.883146 
L 687.372636 -61.113561 
L 688.64719 -60.143124 
L 689.921745 -59.137528 
L 691.1963 -58.175626 
L 692.470854 -57.756301 
L 693.745409 -56.771852 
L 695.019963 -55.681677 
L 696.294518 -54.701273 
L 697.569073 -53.782055 
L 698.843627 -52.984488 
L 700.118182 -52.2 
L 700.118182 -173.465613 
L 700.118182 -173.465613 
L 698.843627 -173.465613 
L 697.569073 -173.465613 
L 696.294518 -173.465613 
L 695.019963 -173.465613 
L 693.745409 -173.465613 
L 692.470854 -173.467909 
L 691.1963 -173.467909 
L 689.921745 -173.467909 
L 688.64719 -173.467909 
L 687.372636 -173.467909 
L 686.098081 -173.467909 
L 684.823527 -173.467909 
L 683.548972 -173.467909 
L 682.274418 -173.467909 
L 680.999863 -173.470024 
L 679.725308 -173.470024 
L 678.450754 -173.478505 
L 677.176199 -173.478505 
L 675.901645 -173.478505 
L 674.62709 -173.486136 
L 673.352535 -173.503579 
L 672.077981 -173.503579 
L 670.803426 -173.503579 
L 669.528872 -173.520268 
L 668.254317 -173.520268 
L 666.979762 -173.520268 
L 665.705208 -173.528259 
L 664.430653 -173.528259 
L 663.156099 -173.528259 
L 661.881544 -173.528259 
L 660.606989 -173.528259 
L 659.332435 -173.528259 
L 658.05788 -173.528259 
L 656.783326 -173.528259 
L 655.508771 -173.528259 
L 654.234217 -173.53247 
L 652.959662 -173.534039 
L 651.685107 -173.534039 
L 650.410553 -173.551528 
L 649.135998 -173.551528 
L 647.861444 -173.551528 
L 646.586889 -173.551528 
L 645.312334 -173.551528 
L 644.03778 -173.551528 
L 642.763225 -173.55952 
L 641.488671 -173.590089 
L 640.214116 -173.67056 
L 638.939561 -173.691744 
L 637.665007 -173.729527 
L 636.390452 -173.729527 
L 635.115898 -173.793328 
L 633.841343 -173.823636 
L 632.566788 -173.863205 
L 631.292234 -173.927632 
L 630.017679 -173.946255 
L 628.743125 -174.078276 
L 627.46857 -174.17857 
L 626.194016 -174.400668 
L 624.919461 -174.552703 
L 623.644906 -174.783936 
L 622.370352 -174.847428 
L 621.095797 -174.939391 
L 619.821243 -175.059636 
L 618.546688 -175.196228 
L 617.272133 -175.404851 
L 615.997579 -175.823445 
L 614.723024 -176.055293 
L 613.44847 -176.350786 
L 612.173915 -176.801499 
L 610.89936 -177.218231 
L 609.624806 -177.702686 
L 608.350251 -178.070254 
L 607.075697 -178.070254 
L 605.801142 -178.070254 
L 604.526587 -178.070254 
L 603.252033 -178.070254 
L 601.977478 -178.070254 
L 600.702924 -178.070254 
L 599.428369 -178.070254 
L 598.153815 -178.516143 
L 596.87926 -179.348822 
L 595.604705 -180.177552 
L 594.330151 -180.799618 
L 593.055596 -181.592559 
L 591.781042 -182.228818 
L 590.506487 -183.012512 
L 589.231932 -183.771049 
L 587.957378 -184.931676 
L 586.682823 -185.747759 
L 585.408269 -186.568328 
L 584.133714 -187.568796 
L 582.859159 -188.506804 
L 581.584605 -189.549121 
L 580.31005 -190.560651 
L 579.035496 -191.241606 
L 577.760941 -192.497353 
L 576.486386 -193.474897 
L 575.211832 -194.3819 
L 573.937277 -195.909543 
L 572.662723 -197.164636 
L 571.388168 -198.235856 
L 570.113614 -199.34052 
L 568.839059 -200.481154 
L 567.564504 -201.648809 
L 566.28995 -202.789369 
L 565.015395 -204.054777 
L 563.740841 -205.258443 
L 562.466286 -206.847968 
L 561.191731 -208.186925 
L 559.917177 -209.611581 
L 558.642622 -211.208121 
L 557.368068 -212.344125 
L 556.093513 -214.035417 
L 554.818958 -215.385693 
L 553.544404 -216.63122 
L 552.269849 -217.784971 
L 550.995295 -219.148945 
L 549.72074 -220.401863 
L 548.446185 -221.785748 
L 547.171631 -223.318094 
L 545.897076 -224.639543 
L 544.622522 -225.977769 
L 543.347967 -227.099915 
L 542.073413 -228.367521 
L 540.798858 -229.499796 
L 539.524303 -230.590527 
L 538.249749 -231.718968 
L 536.975194 -232.923226 
L 535.70064 -234.340797 
L 534.426085 -235.567924 
L 533.15153 -236.643253 
L 531.876976 -237.777129 
L 530.602421 -238.939408 
L 529.327867 -240.182944 
L 528.053312 -241.55558 
L 526.778757 -242.743891 
L 525.504203 -243.840134 
L 524.229648 -244.653481 
L 522.955094 -245.794058 
L 521.680539 -246.883766 
L 520.405984 -247.713071 
L 519.13143 -248.896087 
L 517.856875 -250.200842 
L 516.582321 -251.264158 
L 515.307766 -252.170846 
L 514.033212 -253.298676 
L 512.758657 -254.246748 
L 511.484102 -255.120743 
L 510.209548 -255.989454 
L 508.934993 -257.178287 
L 507.660439 -258.196135 
L 506.385884 -259.353547 
L 505.111329 -260.730307 
L 503.836775 -261.777765 
L 502.56222 -262.817511 
L 501.287666 -263.614011 
L 500.013111 -264.71506 
L 498.738556 -265.704721 
L 497.464002 -267.070379 
L 496.189447 -267.992325 
L 494.914893 -268.910537 
L 493.640338 -270.248591 
L 492.365783 -271.402525 
L 491.091229 -272.539662 
L 489.816674 -273.577308 
L 488.54212 -274.405268 
L 487.267565 -275.311995 
L 485.993011 -276.381134 
L 484.718456 -277.709865 
L 483.443901 -279.12443 
L 482.169347 -279.854743 
L 480.894792 -280.865196 
L 479.620238 -281.862202 
L 478.345683 -282.876089 
L 477.071128 -283.83879 
L 475.796574 -284.842698 
L 474.522019 -285.862841 
L 473.247465 -286.476638 
L 471.97291 -287.51894 
L 470.698355 -288.474674 
L 469.423801 -289.334139 
L 468.149246 -290.048616 
L 466.874692 -290.987926 
L 465.600137 -291.466604 
L 464.325582 -292.278596 
L 463.051028 -293.131649 
L 461.776473 -293.956909 
L 460.501919 -294.807072 
L 459.227364 -296.024832 
L 457.95281 -296.786516 
L 456.678255 -297.481314 
L 455.4037 -298.191891 
L 454.129146 -299.117854 
L 452.854591 -300.034705 
L 451.580037 -301.150539 
L 450.305482 -301.72183 
L 449.030927 -302.592564 
L 447.756373 -303.223519 
L 446.481818 -304.2 
z
" style="stroke: #ffa500; stroke-opacity: 0.3"/>
    </defs>
    <g clip-path="url(#pde98e0e3b3)">
     <use xlink:href="#m830898eeef" x="0" y="360" style="fill: #ffa500; fill-opacity: 0.3; stroke: #ffa500; stroke-opacity: 0.3"/>
    </g>
   </g>
   <g id="line2d_35">
    <path d="M 446.481818 116.819536 
L 451.580037 117.495631 
L 470.698355 121.171696 
L 474.522019 122.018787 
L 479.620238 123.488793 
L 484.718456 125.124445 
L 487.267565 126.040951 
L 492.365783 127.860512 
L 494.914893 128.975323 
L 498.738556 130.386066 
L 505.111329 133.173206 
L 506.385884 133.861675 
L 508.934993 134.98466 
L 520.405984 141.072719 
L 528.053312 145.579934 
L 531.876976 148.32882 
L 535.70064 150.988634 
L 538.249749 152.864561 
L 540.798858 154.622357 
L 542.073413 155.510832 
L 544.622522 157.559141 
L 547.171631 159.451045 
L 552.269849 163.690298 
L 553.544404 164.746023 
L 556.093513 167.05963 
L 563.740841 173.87983 
L 566.28995 175.974869 
L 572.662723 180.965264 
L 580.31005 186.779306 
L 587.957378 193.235224 
L 589.231932 194.430006 
L 591.781042 196.449267 
L 595.604705 199.637 
L 598.153815 201.789537 
L 600.702924 203.893786 
L 603.252033 205.996044 
L 605.801142 208.051649 
L 608.350251 210.046943 
L 610.89936 211.95761 
L 617.272133 216.481064 
L 624.919461 221.132363 
L 626.194016 221.744477 
L 631.292234 224.741402 
L 645.312334 231.585556 
L 647.861444 232.686149 
L 649.135998 233.339719 
L 654.234217 235.388034 
L 658.05788 236.979073 
L 672.077981 241.311664 
L 675.901645 242.219858 
L 680.999863 243.295759 
L 697.569073 246.259507 
L 700.118182 246.568567 
L 700.118182 246.568567 
" clip-path="url(#pde98e0e3b3)" style="fill: none; stroke: #ffa500; stroke-width: 1.5; stroke-linecap: round"/>
   </g>
   <g id="line2d_36">
    <path d="M 446.481818 124.019295 
L 459.227364 125.117238 
L 469.423801 126.32189 
L 480.894792 128.321237 
L 491.091229 130.596028 
L 494.914893 131.732799 
L 500.013111 133.461447 
L 506.385884 135.786503 
L 515.307766 139.61824 
L 522.955094 143.60688 
L 525.504203 145.078647 
L 526.778757 145.666813 
L 528.053312 146.471876 
L 530.602421 147.785766 
L 536.975194 151.865029 
L 548.446185 160.124879 
L 550.995295 162.086478 
L 554.818958 165.14487 
L 558.642622 168.319558 
L 563.740841 172.983916 
L 565.015395 173.987222 
L 572.662723 180.848831 
L 575.211832 183.030788 
L 577.760941 185.326546 
L 584.133714 190.76352 
L 586.682823 192.909502 
L 589.231932 195.08924 
L 593.055596 198.21544 
L 598.153815 202.400579 
L 600.702924 204.487304 
L 603.252033 206.455153 
L 607.075697 209.274787 
L 608.350251 210.0816 
L 609.624806 211.072403 
L 614.723024 214.190843 
L 618.546688 216.433127 
L 626.194016 220.663222 
L 633.841343 224.481266 
L 645.312334 229.34847 
L 655.508771 232.605699 
L 661.881544 234.161189 
L 675.901645 236.849616 
L 684.823527 238.101564 
L 687.372636 238.330635 
L 693.745409 239.001301 
L 700.118182 239.541738 
L 700.118182 239.541738 
" clip-path="url(#pde98e0e3b3)" style="fill: none; stroke-dasharray: 5.55,2.4; stroke-dashoffset: 0; stroke: #ffa500; stroke-width: 1.5"/>
   </g>
   <g id="LineCollection_3">
    <path d="M 446.481818 181.929746 
L 700.118182 181.929746 
" clip-path="url(#pde98e0e3b3)" style="fill: none; stroke-dasharray: 5.55,2.4; stroke-dashoffset: 0; stroke: #808080; stroke-width: 1.5"/>
   </g>
   <g id="LineCollection_4">
    <path d="M 573.936791 298.454523 
L 573.936791 65.404969 
" clip-path="url(#pde98e0e3b3)" style="fill: none; stroke-dasharray: 5.55,2.4; stroke-dashoffset: 0; stroke: #008000; stroke-width: 1.5"/>
   </g>
   <g id="patch_10">
    <path d="M 433.8 320.4 
L 433.8 43.2 
" style="fill: none; stroke: #ffffff; stroke-width: 0.8; stroke-linejoin: miter; stroke-linecap: square"/>
   </g>
   <g id="patch_11">
    <path d="M 712.8 320.4 
L 712.8 43.2 
" style="fill: none; stroke: #ffffff; stroke-width: 0.8; stroke-linejoin: miter; stroke-linecap: square"/>
   </g>
   <g id="patch_12">
    <path d="M 433.8 320.4 
L 712.8 320.4 
" style="fill: none; stroke: #ffffff; stroke-width: 0.8; stroke-linejoin: miter; stroke-linecap: square"/>
   </g>
   <g id="patch_13">
    <path d="M 433.8 43.2 
L 712.8 43.2 
" style="fill: none; stroke: #ffffff; stroke-width: 0.8; stroke-linejoin: miter; stroke-linecap: square"/>
   </g>
   <g id="legend_2">
    <g id="patch_14">
     <path d="M 440.8 315.4 
L 580.3 315.4 
Q 582.3 315.4 582.3 313.4 
L 582.3 237.409375 
Q 582.3 235.409375 580.3 235.409375 
L 440.8 235.409375 
Q 438.8 235.409375 438.8 237.409375 
L 438.8 313.4 
Q 438.8 315.4 440.8 315.4 
z
" style="fill: #eaeaf2; opacity: 0.8; stroke: #cccccc; stroke-linejoin: miter"/>
    </g>
    <g id="line2d_37">
     <path d="M 442.8 244.909375 
L 452.8 244.909375 
L 462.8 244.909375 
" style="fill: none; stroke: #ffa500; stroke-width: 1.5; stroke-linecap: round"/>
    </g>
    <g id="text_32">
     <!-- $E[x_{step}]$ for $P_2^5$ -->
     <g style="fill: #262626" transform="translate(470.8 248.409375) scale(0.1 -0.1)">
      <defs>
       <path id="DejaVuSans-32" d="M 1228 531 
L 3431 531 
L 3431 0 
L 469 0 
L 469 531 
Q 828 903 1448 1529 
Q 2069 2156 2228 2338 
Q 2531 2678 2651 2914 
Q 2772 3150 2772 3378 
Q 2772 3750 2511 3984 
Q 2250 4219 1831 4219 
Q 1534 4219 1204 4116 
Q 875 4013 500 3803 
L 500 4441 
Q 881 4594 1212 4672 
Q 1544 4750 1819 4750 
Q 2544 4750 2975 4387 
Q 3406 4025 3406 3419 
Q 3406 3131 3298 2873 
Q 3191 2616 2906 2266 
Q 2828 2175 2409 1742 
Q 1991 1309 1228 531 
z
" transform="scale(0.015625)"/>
      </defs>
      <use xlink:href="#DejaVuSans-Oblique-45" transform="translate(0 0.684375)"/>
      <use xlink:href="#DejaVuSans-5b" transform="translate(63.183594 0.684375)"/>
      <use xlink:href="#DejaVuSans-Oblique-78" transform="translate(102.197266 0.684375)"/>
      <use xlink:href="#DejaVuSans-Oblique-73" transform="translate(161.376953 -15.721875) scale(0.7)"/>
      <use xlink:href="#DejaVuSans-Oblique-74" transform="translate(197.84668 -15.721875) scale(0.7)"/>
      <use xlink:href="#DejaVuSans-Oblique-65" transform="translate(225.292969 -15.721875) scale(0.7)"/>
      <use xlink:href="#DejaVuSans-Oblique-70" transform="translate(268.359375 -15.721875) scale(0.7)"/>
      <use xlink:href="#DejaVuSans-5d" transform="translate(315.527344 0.684375)"/>
      <use xlink:href="#ArialMT-20" transform="translate(354.541016 0.684375)"/>
      <use xlink:href="#ArialMT-66" transform="translate(382.324219 0.684375)"/>
      <use xlink:href="#ArialMT-6f" transform="translate(410.107422 0.684375)"/>
      <use xlink:href="#ArialMT-72" transform="translate(465.722656 0.684375)"/>
      <use xlink:href="#ArialMT-20" transform="translate(499.023438 0.684375)"/>
      <use xlink:href="#DejaVuSans-Oblique-50" transform="translate(526.806641 0.684375)"/>
      <use xlink:href="#DejaVuSans-35" transform="translate(594.126146 38.965625) scale(0.7)"/>
      <use xlink:href="#DejaVuSans-32" transform="translate(587.109375 -26.659375) scale(0.7)"/>
     </g>
    </g>
    <g id="line2d_38">
     <path d="M 442.8 262.009375 
L 452.8 262.009375 
L 462.8 262.009375 
" style="fill: none; stroke-dasharray: 5.55,2.4; stroke-dashoffset: 0; stroke: #ffa500; stroke-width: 1.5"/>
    </g>
    <g id="text_33">
     <!-- $E[x_{step} | x_{step} \ne 0]$ for $P_2^5$ -->
     <g style="fill: #262626" transform="translate(470.8 265.509375) scale(0.1 -0.1)">
      <use xlink:href="#DejaVuSans-Oblique-45" transform="translate(0 0.684375)"/>
      <use xlink:href="#DejaVuSans-5b" transform="translate(63.183594 0.684375)"/>
      <use xlink:href="#DejaVuSans-Oblique-78" transform="translate(102.197266 0.684375)"/>
      <use xlink:href="#DejaVuSans-Oblique-73" transform="translate(161.376953 -15.721875) scale(0.7)"/>
      <use xlink:href="#DejaVuSans-Oblique-74" transform="translate(197.84668 -15.721875) scale(0.7)"/>
      <use xlink:href="#DejaVuSans-Oblique-65" transform="translate(225.292969 -15.721875) scale(0.7)"/>
      <use xlink:href="#DejaVuSans-Oblique-70" transform="translate(268.359375 -15.721875) scale(0.7)"/>
      <use xlink:href="#DejaVuSans-7c" transform="translate(315.527344 0.684375)"/>
      <use xlink:href="#DejaVuSans-Oblique-78" transform="translate(349.21875 0.684375)"/>
      <use xlink:href="#DejaVuSans-Oblique-73" transform="translate(408.398438 -15.721875) scale(0.7)"/>
      <use xlink:href="#DejaVuSans-Oblique-74" transform="translate(444.868164 -15.721875) scale(0.7)"/>
      <use xlink:href="#DejaVuSans-Oblique-65" transform="translate(472.314453 -15.721875) scale(0.7)"/>
      <use xlink:href="#DejaVuSans-Oblique-70" transform="translate(515.380859 -15.721875) scale(0.7)"/>
      <use xlink:href="#DejaVuSans-2260" transform="translate(582.03125 0.684375)"/>
      <use xlink:href="#DejaVuSans-30" transform="translate(685.302734 0.684375)"/>
      <use xlink:href="#DejaVuSans-5d" transform="translate(748.925781 0.684375)"/>
      <use xlink:href="#ArialMT-20" transform="translate(787.939453 0.684375)"/>
      <use xlink:href="#ArialMT-66" transform="translate(815.722656 0.684375)"/>
      <use xlink:href="#ArialMT-6f" transform="translate(843.505859 0.684375)"/>
      <use xlink:href="#ArialMT-72" transform="translate(899.121094 0.684375)"/>
      <use xlink:href="#ArialMT-20" transform="translate(932.421875 0.684375)"/>
      <use xlink:href="#DejaVuSans-Oblique-50" transform="translate(960.205078 0.684375)"/>
      <use xlink:href="#DejaVuSans-35" transform="translate(1027.524583 38.965625) scale(0.7)"/>
      <use xlink:href="#DejaVuSans-32" transform="translate(1020.507812 -26.659375) scale(0.7)"/>
     </g>
    </g>
    <g id="patch_15">
     <path d="M 442.8 280.767187 
L 462.8 280.767187 
L 462.8 273.767187 
L 442.8 273.767187 
z
" style="fill: #ffa500; fill-opacity: 0.3; stroke: #ffa500; stroke-opacity: 0.3; stroke-linejoin: miter"/>
    </g>
    <g id="text_34">
     <!-- 90% CI -->
     <g style="fill: #262626" transform="translate(470.8 280.767187) scale(0.1 -0.1)">
      <use xlink:href="#ArialMT-39"/>
      <use xlink:href="#ArialMT-30" x="55.615234"/>
      <use xlink:href="#ArialMT-25" x="111.230469"/>
      <use xlink:href="#ArialMT-20" x="200.146484"/>
      <use xlink:href="#ArialMT-43" x="227.929688"/>
      <use xlink:href="#ArialMT-49" x="300.146484"/>
     </g>
    </g>
    <g id="line2d_39">
     <path d="M 442.8 291.4125 
L 462.8 291.4125 
" style="fill: none; stroke-dasharray: 5.55,2.4; stroke-dashoffset: 0; stroke: #808080; stroke-width: 1.5"/>
    </g>
    <g id="text_35">
     <!-- $x_{next} = x$ -->
     <g style="fill: #262626" transform="translate(470.8 294.9125) scale(0.1 -0.1)">
      <use xlink:href="#DejaVuSans-Oblique-78" transform="translate(0 0.3125)"/>
      <use xlink:href="#DejaVuSans-Oblique-6e" transform="translate(59.179688 -16.09375) scale(0.7)"/>
      <use xlink:href="#DejaVuSans-Oblique-65" transform="translate(103.544922 -16.09375) scale(0.7)"/>
      <use xlink:href="#DejaVuSans-Oblique-78" transform="translate(146.611328 -16.09375) scale(0.7)"/>
      <use xlink:href="#DejaVuSans-Oblique-74" transform="translate(188.037109 -16.09375) scale(0.7)"/>
      <use xlink:href="#DejaVuSans-3d" transform="translate(237.700195 0.3125)"/>
      <use xlink:href="#DejaVuSans-Oblique-78" transform="translate(340.97168 0.3125)"/>
     </g>
    </g>
    <g id="line2d_40">
     <path d="M 442.8 305.7 
L 462.8 305.7 
" style="fill: none; stroke-dasharray: 5.55,2.4; stroke-dashoffset: 0; stroke: #008000; stroke-width: 1.5"/>
    </g>
    <g id="text_36">
     <!-- mode of target $\pi$ -->
     <g style="fill: #262626" transform="translate(470.8 309.2) scale(0.1 -0.1)">
      <use xlink:href="#ArialMT-6d" transform="translate(0 0.203125)"/>
      <use xlink:href="#ArialMT-6f" transform="translate(83.300781 0.203125)"/>
      <use xlink:href="#ArialMT-64" transform="translate(138.916016 0.203125)"/>
      <use xlink:href="#ArialMT-65" transform="translate(194.53125 0.203125)"/>
      <use xlink:href="#ArialMT-20" transform="translate(250.146484 0.203125)"/>
      <use xlink:href="#ArialMT-6f" transform="translate(277.929688 0.203125)"/>
      <use xlink:href="#ArialMT-66" transform="translate(333.544922 0.203125)"/>
      <use xlink:href="#ArialMT-20" transform="translate(361.328125 0.203125)"/>
      <use xlink:href="#ArialMT-74" transform="translate(389.111328 0.203125)"/>
      <use xlink:href="#ArialMT-61" transform="translate(416.894531 0.203125)"/>
      <use xlink:href="#ArialMT-72" transform="translate(472.509766 0.203125)"/>
      <use xlink:href="#ArialMT-67" transform="translate(505.810547 0.203125)"/>
      <use xlink:href="#ArialMT-65" transform="translate(561.425781 0.203125)"/>
      <use xlink:href="#ArialMT-74" transform="translate(617.041016 0.203125)"/>
      <use xlink:href="#ArialMT-20" transform="translate(644.824219 0.203125)"/>
      <use xlink:href="#DejaVuSans-Oblique-3c0" transform="translate(672.607422 0.203125)"/>
     </g>
    </g>
   </g>
  </g>
 </g>
 <defs>
  <clipPath id="pec06c8264a">
   <rect x="99" y="43.2" width="279" height="277.2"/>
  </clipPath>
  <clipPath id="pde98e0e3b3">
   <rect x="433.8" y="43.2" width="279" height="277.2"/>
  </clipPath>
 </defs>
</svg>
