<?xml version="1.0" encoding="utf-8" standalone="no"?>
<!DOCTYPE svg PUBLIC "-//W3C//DTD SVG 1.1//EN"
  "http://www.w3.org/Graphics/SVG/1.1/DTD/svg11.dtd">
<svg xmlns:xlink="http://www.w3.org/1999/xlink" width="460.8pt" height="345.6pt" viewBox="0 0 460.8 345.6" xmlns="http://www.w3.org/2000/svg" version="1.1">
 <metadata>
  <rdf:RDF xmlns:dc="http://purl.org/dc/elements/1.1/" xmlns:cc="http://creativecommons.org/ns#" xmlns:rdf="http://www.w3.org/1999/02/22-rdf-syntax-ns#">
   <cc:Work>
    <dc:type rdf:resource="http://purl.org/dc/dcmitype/StillImage"/>
    <dc:date>2025-03-22T13:31:12.734456</dc:date>
    <dc:format>image/svg+xml</dc:format>
    <dc:creator>
     <cc:Agent>
      <dc:title>Matplotlib v3.9.4, https://matplotlib.org/</dc:title>
     </cc:Agent>
    </dc:creator>
   </cc:Work>
  </rdf:RDF>
 </metadata>
 <defs>
  <style type="text/css">*{stroke-linejoin: round; stroke-linecap: butt}</style>
 </defs>
 <g id="figure_1">
  <g id="patch_1">
   <path d="M 0 345.6 
L 460.8 345.6 
L 460.8 0 
L 0 0 
z
" style="fill: #ffffff"/>
  </g>
  <g id="axes_1">
   <g id="patch_2">
    <path d="M 57.6 307.584 
L 414.72 307.584 
L 414.72 41.472 
L 57.6 41.472 
z
" style="fill: #eaeaf2"/>
   </g>
   <g id="matplotlib.axis_1">
    <g id="xtick_1">
     <g id="line2d_1">
      <path d="M 72.184735 307.584 
L 72.184735 41.472 
" clip-path="url(#p08ea4e53aa)" style="fill: none; stroke: #ffffff; stroke-width: 0.8; stroke-linecap: round"/>
     </g>
     <g id="text_1">
      <!-- −10.0 -->
      <g style="fill: #262626" transform="translate(59.533953 321.741812) scale(0.1 -0.1)">
       <defs>
        <path id="ArialMT-2212" d="M 3381 1997 
L 356 1997 
L 356 2522 
L 3381 2522 
L 3381 1997 
z
" transform="scale(0.015625)"/>
        <path id="ArialMT-31" d="M 2384 0 
L 1822 0 
L 1822 3584 
Q 1619 3391 1289 3197 
Q 959 3003 697 2906 
L 697 3450 
Q 1169 3672 1522 3987 
Q 1875 4303 2022 4600 
L 2384 4600 
L 2384 0 
z
" transform="scale(0.015625)"/>
        <path id="ArialMT-30" d="M 266 2259 
Q 266 3072 433 3567 
Q 600 4063 929 4331 
Q 1259 4600 1759 4600 
Q 2128 4600 2406 4451 
Q 2684 4303 2865 4023 
Q 3047 3744 3150 3342 
Q 3253 2941 3253 2259 
Q 3253 1453 3087 958 
Q 2922 463 2592 192 
Q 2263 -78 1759 -78 
Q 1097 -78 719 397 
Q 266 969 266 2259 
z
M 844 2259 
Q 844 1131 1108 757 
Q 1372 384 1759 384 
Q 2147 384 2411 759 
Q 2675 1134 2675 2259 
Q 2675 3391 2411 3762 
Q 2147 4134 1753 4134 
Q 1366 4134 1134 3806 
Q 844 3388 844 2259 
z
" transform="scale(0.015625)"/>
        <path id="ArialMT-2e" d="M 581 0 
L 581 641 
L 1222 641 
L 1222 0 
L 581 0 
z
" transform="scale(0.015625)"/>
       </defs>
       <use xlink:href="#ArialMT-2212"/>
       <use xlink:href="#ArialMT-31" x="58.398438"/>
       <use xlink:href="#ArialMT-30" x="114.013672"/>
       <use xlink:href="#ArialMT-2e" x="169.628906"/>
       <use xlink:href="#ArialMT-30" x="197.412109"/>
      </g>
     </g>
    </g>
    <g id="xtick_2">
     <g id="line2d_2">
      <path d="M 113.384393 307.584 
L 113.384393 41.472 
" clip-path="url(#p08ea4e53aa)" style="fill: none; stroke: #ffffff; stroke-width: 0.8; stroke-linecap: round"/>
     </g>
     <g id="text_2">
      <!-- −7.5 -->
      <g style="fill: #262626" transform="translate(103.51408 321.741812) scale(0.1 -0.1)">
       <defs>
        <path id="ArialMT-37" d="M 303 3981 
L 303 4522 
L 3269 4522 
L 3269 4084 
Q 2831 3619 2401 2847 
Q 1972 2075 1738 1259 
Q 1569 684 1522 0 
L 944 0 
Q 953 541 1156 1306 
Q 1359 2072 1739 2783 
Q 2119 3494 2547 3981 
L 303 3981 
z
" transform="scale(0.015625)"/>
        <path id="ArialMT-35" d="M 266 1200 
L 856 1250 
Q 922 819 1161 601 
Q 1400 384 1738 384 
Q 2144 384 2425 690 
Q 2706 997 2706 1503 
Q 2706 1984 2436 2262 
Q 2166 2541 1728 2541 
Q 1456 2541 1237 2417 
Q 1019 2294 894 2097 
L 366 2166 
L 809 4519 
L 3088 4519 
L 3088 3981 
L 1259 3981 
L 1013 2750 
Q 1425 3038 1878 3038 
Q 2478 3038 2890 2622 
Q 3303 2206 3303 1553 
Q 3303 931 2941 478 
Q 2500 -78 1738 -78 
Q 1113 -78 717 272 
Q 322 622 266 1200 
z
" transform="scale(0.015625)"/>
       </defs>
       <use xlink:href="#ArialMT-2212"/>
       <use xlink:href="#ArialMT-37" x="58.398438"/>
       <use xlink:href="#ArialMT-2e" x="114.013672"/>
       <use xlink:href="#ArialMT-35" x="141.796875"/>
      </g>
     </g>
    </g>
    <g id="xtick_3">
     <g id="line2d_3">
      <path d="M 154.584051 307.584 
L 154.584051 41.472 
" clip-path="url(#p08ea4e53aa)" style="fill: none; stroke: #ffffff; stroke-width: 0.8; stroke-linecap: round"/>
     </g>
     <g id="text_3">
      <!-- −5.0 -->
      <g style="fill: #262626" transform="translate(144.713739 321.741812) scale(0.1 -0.1)">
       <use xlink:href="#ArialMT-2212"/>
       <use xlink:href="#ArialMT-35" x="58.398438"/>
       <use xlink:href="#ArialMT-2e" x="114.013672"/>
       <use xlink:href="#ArialMT-30" x="141.796875"/>
      </g>
     </g>
    </g>
    <g id="xtick_4">
     <g id="line2d_4">
      <path d="M 195.783709 307.584 
L 195.783709 41.472 
" clip-path="url(#p08ea4e53aa)" style="fill: none; stroke: #ffffff; stroke-width: 0.8; stroke-linecap: round"/>
     </g>
     <g id="text_4">
      <!-- −2.5 -->
      <g style="fill: #262626" transform="translate(185.913397 321.741812) scale(0.1 -0.1)">
       <defs>
        <path id="ArialMT-32" d="M 3222 541 
L 3222 0 
L 194 0 
Q 188 203 259 391 
Q 375 700 629 1000 
Q 884 1300 1366 1694 
Q 2113 2306 2375 2664 
Q 2638 3022 2638 3341 
Q 2638 3675 2398 3904 
Q 2159 4134 1775 4134 
Q 1369 4134 1125 3890 
Q 881 3647 878 3216 
L 300 3275 
Q 359 3922 746 4261 
Q 1134 4600 1788 4600 
Q 2447 4600 2831 4234 
Q 3216 3869 3216 3328 
Q 3216 3053 3103 2787 
Q 2991 2522 2730 2228 
Q 2469 1934 1863 1422 
Q 1356 997 1212 845 
Q 1069 694 975 541 
L 3222 541 
z
" transform="scale(0.015625)"/>
       </defs>
       <use xlink:href="#ArialMT-2212"/>
       <use xlink:href="#ArialMT-32" x="58.398438"/>
       <use xlink:href="#ArialMT-2e" x="114.013672"/>
       <use xlink:href="#ArialMT-35" x="141.796875"/>
      </g>
     </g>
    </g>
    <g id="xtick_5">
     <g id="line2d_5">
      <path d="M 236.983368 307.584 
L 236.983368 41.472 
" clip-path="url(#p08ea4e53aa)" style="fill: none; stroke: #ffffff; stroke-width: 0.8; stroke-linecap: round"/>
     </g>
     <g id="text_5">
      <!-- 0.0 -->
      <g style="fill: #262626" transform="translate(230.033368 321.741812) scale(0.1 -0.1)">
       <use xlink:href="#ArialMT-30"/>
       <use xlink:href="#ArialMT-2e" x="55.615234"/>
       <use xlink:href="#ArialMT-30" x="83.398438"/>
      </g>
     </g>
    </g>
    <g id="xtick_6">
     <g id="line2d_6">
      <path d="M 278.183026 307.584 
L 278.183026 41.472 
" clip-path="url(#p08ea4e53aa)" style="fill: none; stroke: #ffffff; stroke-width: 0.8; stroke-linecap: round"/>
     </g>
     <g id="text_6">
      <!-- 2.5 -->
      <g style="fill: #262626" transform="translate(271.233026 321.741812) scale(0.1 -0.1)">
       <use xlink:href="#ArialMT-32"/>
       <use xlink:href="#ArialMT-2e" x="55.615234"/>
       <use xlink:href="#ArialMT-35" x="83.398438"/>
      </g>
     </g>
    </g>
    <g id="xtick_7">
     <g id="line2d_7">
      <path d="M 319.382684 307.584 
L 319.382684 41.472 
" clip-path="url(#p08ea4e53aa)" style="fill: none; stroke: #ffffff; stroke-width: 0.8; stroke-linecap: round"/>
     </g>
     <g id="text_7">
      <!-- 5.0 -->
      <g style="fill: #262626" transform="translate(312.432684 321.741812) scale(0.1 -0.1)">
       <use xlink:href="#ArialMT-35"/>
       <use xlink:href="#ArialMT-2e" x="55.615234"/>
       <use xlink:href="#ArialMT-30" x="83.398438"/>
      </g>
     </g>
    </g>
    <g id="xtick_8">
     <g id="line2d_8">
      <path d="M 360.582342 307.584 
L 360.582342 41.472 
" clip-path="url(#p08ea4e53aa)" style="fill: none; stroke: #ffffff; stroke-width: 0.8; stroke-linecap: round"/>
     </g>
     <g id="text_8">
      <!-- 7.5 -->
      <g style="fill: #262626" transform="translate(353.632342 321.741812) scale(0.1 -0.1)">
       <use xlink:href="#ArialMT-37"/>
       <use xlink:href="#ArialMT-2e" x="55.615234"/>
       <use xlink:href="#ArialMT-35" x="83.398438"/>
      </g>
     </g>
    </g>
    <g id="xtick_9">
     <g id="line2d_9">
      <path d="M 401.782001 307.584 
L 401.782001 41.472 
" clip-path="url(#p08ea4e53aa)" style="fill: none; stroke: #ffffff; stroke-width: 0.8; stroke-linecap: round"/>
     </g>
     <g id="text_9">
      <!-- 10.0 -->
      <g style="fill: #262626" transform="translate(392.051532 321.741812) scale(0.1 -0.1)">
       <use xlink:href="#ArialMT-31"/>
       <use xlink:href="#ArialMT-30" x="55.615234"/>
       <use xlink:href="#ArialMT-2e" x="111.230469"/>
       <use xlink:href="#ArialMT-30" x="139.013672"/>
      </g>
     </g>
    </g>
    <g id="text_10">
     <!-- $x$ -->
     <g style="fill: #262626" transform="translate(233.16 334.887125) scale(0.1 -0.1)">
      <defs>
       <path id="DejaVuSans-Oblique-78" d="M 3841 3500 
L 2234 1784 
L 3219 0 
L 2559 0 
L 1819 1388 
L 531 0 
L -166 0 
L 1556 1844 
L 641 3500 
L 1300 3500 
L 1972 2234 
L 3144 3500 
L 3841 3500 
z
" transform="scale(0.015625)"/>
      </defs>
      <use xlink:href="#DejaVuSans-Oblique-78" transform="translate(0 0.3125)"/>
     </g>
    </g>
   </g>
   <g id="matplotlib.axis_2">
    <g id="ytick_1">
     <g id="line2d_10">
      <path d="M 57.6 298.367762 
L 414.72 298.367762 
" clip-path="url(#p08ea4e53aa)" style="fill: none; stroke: #ffffff; stroke-width: 0.8; stroke-linecap: round"/>
     </g>
     <g id="text_11">
      <!-- 0.0 -->
      <g style="fill: #262626" transform="translate(36.7 301.946668) scale(0.1 -0.1)">
       <use xlink:href="#ArialMT-30"/>
       <use xlink:href="#ArialMT-2e" x="55.615234"/>
       <use xlink:href="#ArialMT-30" x="83.398438"/>
      </g>
     </g>
    </g>
    <g id="ytick_2">
     <g id="line2d_11">
      <path d="M 57.6 249.376389 
L 414.72 249.376389 
" clip-path="url(#p08ea4e53aa)" style="fill: none; stroke: #ffffff; stroke-width: 0.8; stroke-linecap: round"/>
     </g>
     <g id="text_12">
      <!-- 0.2 -->
      <g style="fill: #262626" transform="translate(36.7 252.955295) scale(0.1 -0.1)">
       <use xlink:href="#ArialMT-30"/>
       <use xlink:href="#ArialMT-2e" x="55.615234"/>
       <use xlink:href="#ArialMT-32" x="83.398438"/>
      </g>
     </g>
    </g>
    <g id="ytick_3">
     <g id="line2d_12">
      <path d="M 57.6 200.385016 
L 414.72 200.385016 
" clip-path="url(#p08ea4e53aa)" style="fill: none; stroke: #ffffff; stroke-width: 0.8; stroke-linecap: round"/>
     </g>
     <g id="text_13">
      <!-- 0.4 -->
      <g style="fill: #262626" transform="translate(36.7 203.963923) scale(0.1 -0.1)">
       <defs>
        <path id="ArialMT-34" d="M 2069 0 
L 2069 1097 
L 81 1097 
L 81 1613 
L 2172 4581 
L 2631 4581 
L 2631 1613 
L 3250 1613 
L 3250 1097 
L 2631 1097 
L 2631 0 
L 2069 0 
z
M 2069 1613 
L 2069 3678 
L 634 1613 
L 2069 1613 
z
" transform="scale(0.015625)"/>
       </defs>
       <use xlink:href="#ArialMT-30"/>
       <use xlink:href="#ArialMT-2e" x="55.615234"/>
       <use xlink:href="#ArialMT-34" x="83.398438"/>
      </g>
     </g>
    </g>
    <g id="ytick_4">
     <g id="line2d_13">
      <path d="M 57.6 151.393644 
L 414.72 151.393644 
" clip-path="url(#p08ea4e53aa)" style="fill: none; stroke: #ffffff; stroke-width: 0.8; stroke-linecap: round"/>
     </g>
     <g id="text_14">
      <!-- 0.6 -->
      <g style="fill: #262626" transform="translate(36.7 154.97255) scale(0.1 -0.1)">
       <defs>
        <path id="ArialMT-36" d="M 3184 3459 
L 2625 3416 
Q 2550 3747 2413 3897 
Q 2184 4138 1850 4138 
Q 1581 4138 1378 3988 
Q 1113 3794 959 3422 
Q 806 3050 800 2363 
Q 1003 2672 1297 2822 
Q 1591 2972 1913 2972 
Q 2475 2972 2870 2558 
Q 3266 2144 3266 1488 
Q 3266 1056 3080 686 
Q 2894 316 2569 119 
Q 2244 -78 1831 -78 
Q 1128 -78 684 439 
Q 241 956 241 2144 
Q 241 3472 731 4075 
Q 1159 4600 1884 4600 
Q 2425 4600 2770 4297 
Q 3116 3994 3184 3459 
z
M 888 1484 
Q 888 1194 1011 928 
Q 1134 663 1356 523 
Q 1578 384 1822 384 
Q 2178 384 2434 671 
Q 2691 959 2691 1453 
Q 2691 1928 2437 2201 
Q 2184 2475 1800 2475 
Q 1419 2475 1153 2201 
Q 888 1928 888 1484 
z
" transform="scale(0.015625)"/>
       </defs>
       <use xlink:href="#ArialMT-30"/>
       <use xlink:href="#ArialMT-2e" x="55.615234"/>
       <use xlink:href="#ArialMT-36" x="83.398438"/>
      </g>
     </g>
    </g>
    <g id="ytick_5">
     <g id="line2d_14">
      <path d="M 57.6 102.402271 
L 414.72 102.402271 
" clip-path="url(#p08ea4e53aa)" style="fill: none; stroke: #ffffff; stroke-width: 0.8; stroke-linecap: round"/>
     </g>
     <g id="text_15">
      <!-- 0.8 -->
      <g style="fill: #262626" transform="translate(36.7 105.981177) scale(0.1 -0.1)">
       <defs>
        <path id="ArialMT-38" d="M 1131 2484 
Q 781 2613 612 2850 
Q 444 3088 444 3419 
Q 444 3919 803 4259 
Q 1163 4600 1759 4600 
Q 2359 4600 2725 4251 
Q 3091 3903 3091 3403 
Q 3091 3084 2923 2848 
Q 2756 2613 2416 2484 
Q 2838 2347 3058 2040 
Q 3278 1734 3278 1309 
Q 3278 722 2862 322 
Q 2447 -78 1769 -78 
Q 1091 -78 675 323 
Q 259 725 259 1325 
Q 259 1772 486 2073 
Q 713 2375 1131 2484 
z
M 1019 3438 
Q 1019 3113 1228 2906 
Q 1438 2700 1772 2700 
Q 2097 2700 2305 2904 
Q 2513 3109 2513 3406 
Q 2513 3716 2298 3927 
Q 2084 4138 1766 4138 
Q 1444 4138 1231 3931 
Q 1019 3725 1019 3438 
z
M 838 1322 
Q 838 1081 952 856 
Q 1066 631 1291 507 
Q 1516 384 1775 384 
Q 2178 384 2440 643 
Q 2703 903 2703 1303 
Q 2703 1709 2433 1975 
Q 2163 2241 1756 2241 
Q 1359 2241 1098 1978 
Q 838 1716 838 1322 
z
" transform="scale(0.015625)"/>
       </defs>
       <use xlink:href="#ArialMT-30"/>
       <use xlink:href="#ArialMT-2e" x="55.615234"/>
       <use xlink:href="#ArialMT-38" x="83.398438"/>
      </g>
     </g>
    </g>
    <g id="ytick_6">
     <g id="line2d_15">
      <path d="M 57.6 53.410898 
L 414.72 53.410898 
" clip-path="url(#p08ea4e53aa)" style="fill: none; stroke: #ffffff; stroke-width: 0.8; stroke-linecap: round"/>
     </g>
     <g id="text_16">
      <!-- 1.0 -->
      <g style="fill: #262626" transform="translate(36.7 56.989804) scale(0.1 -0.1)">
       <use xlink:href="#ArialMT-31"/>
       <use xlink:href="#ArialMT-2e" x="55.615234"/>
       <use xlink:href="#ArialMT-30" x="83.398438"/>
      </g>
     </g>
    </g>
    <g id="text_17">
     <!-- contraction estimate $\tau_x(P^n)$ -->
     <g style="fill: #262626" transform="translate(30.7125 235.528) rotate(-90) scale(0.1 -0.1)">
      <defs>
       <path id="ArialMT-63" d="M 2588 1216 
L 3141 1144 
Q 3050 572 2676 248 
Q 2303 -75 1759 -75 
Q 1078 -75 664 370 
Q 250 816 250 1647 
Q 250 2184 428 2587 
Q 606 2991 970 3192 
Q 1334 3394 1763 3394 
Q 2303 3394 2647 3120 
Q 2991 2847 3088 2344 
L 2541 2259 
Q 2463 2594 2264 2762 
Q 2066 2931 1784 2931 
Q 1359 2931 1093 2626 
Q 828 2322 828 1663 
Q 828 994 1084 691 
Q 1341 388 1753 388 
Q 2084 388 2306 591 
Q 2528 794 2588 1216 
z
" transform="scale(0.015625)"/>
       <path id="ArialMT-6f" d="M 213 1659 
Q 213 2581 725 3025 
Q 1153 3394 1769 3394 
Q 2453 3394 2887 2945 
Q 3322 2497 3322 1706 
Q 3322 1066 3130 698 
Q 2938 331 2570 128 
Q 2203 -75 1769 -75 
Q 1072 -75 642 372 
Q 213 819 213 1659 
z
M 791 1659 
Q 791 1022 1069 705 
Q 1347 388 1769 388 
Q 2188 388 2466 706 
Q 2744 1025 2744 1678 
Q 2744 2294 2464 2611 
Q 2184 2928 1769 2928 
Q 1347 2928 1069 2612 
Q 791 2297 791 1659 
z
" transform="scale(0.015625)"/>
       <path id="ArialMT-6e" d="M 422 0 
L 422 3319 
L 928 3319 
L 928 2847 
Q 1294 3394 1984 3394 
Q 2284 3394 2536 3286 
Q 2788 3178 2913 3003 
Q 3038 2828 3088 2588 
Q 3119 2431 3119 2041 
L 3119 0 
L 2556 0 
L 2556 2019 
Q 2556 2363 2490 2533 
Q 2425 2703 2258 2804 
Q 2091 2906 1866 2906 
Q 1506 2906 1245 2678 
Q 984 2450 984 1813 
L 984 0 
L 422 0 
z
" transform="scale(0.015625)"/>
       <path id="ArialMT-74" d="M 1650 503 
L 1731 6 
Q 1494 -44 1306 -44 
Q 1000 -44 831 53 
Q 663 150 594 308 
Q 525 466 525 972 
L 525 2881 
L 113 2881 
L 113 3319 
L 525 3319 
L 525 4141 
L 1084 4478 
L 1084 3319 
L 1650 3319 
L 1650 2881 
L 1084 2881 
L 1084 941 
Q 1084 700 1114 631 
Q 1144 563 1211 522 
Q 1278 481 1403 481 
Q 1497 481 1650 503 
z
" transform="scale(0.015625)"/>
       <path id="ArialMT-72" d="M 416 0 
L 416 3319 
L 922 3319 
L 922 2816 
Q 1116 3169 1280 3281 
Q 1444 3394 1641 3394 
Q 1925 3394 2219 3213 
L 2025 2691 
Q 1819 2813 1613 2813 
Q 1428 2813 1281 2702 
Q 1134 2591 1072 2394 
Q 978 2094 978 1738 
L 978 0 
L 416 0 
z
" transform="scale(0.015625)"/>
       <path id="ArialMT-61" d="M 2588 409 
Q 2275 144 1986 34 
Q 1697 -75 1366 -75 
Q 819 -75 525 192 
Q 231 459 231 875 
Q 231 1119 342 1320 
Q 453 1522 633 1644 
Q 813 1766 1038 1828 
Q 1203 1872 1538 1913 
Q 2219 1994 2541 2106 
Q 2544 2222 2544 2253 
Q 2544 2597 2384 2738 
Q 2169 2928 1744 2928 
Q 1347 2928 1158 2789 
Q 969 2650 878 2297 
L 328 2372 
Q 403 2725 575 2942 
Q 747 3159 1072 3276 
Q 1397 3394 1825 3394 
Q 2250 3394 2515 3294 
Q 2781 3194 2906 3042 
Q 3031 2891 3081 2659 
Q 3109 2516 3109 2141 
L 3109 1391 
Q 3109 606 3145 398 
Q 3181 191 3288 0 
L 2700 0 
Q 2613 175 2588 409 
z
M 2541 1666 
Q 2234 1541 1622 1453 
Q 1275 1403 1131 1340 
Q 988 1278 909 1158 
Q 831 1038 831 891 
Q 831 666 1001 516 
Q 1172 366 1500 366 
Q 1825 366 2078 508 
Q 2331 650 2450 897 
Q 2541 1088 2541 1459 
L 2541 1666 
z
" transform="scale(0.015625)"/>
       <path id="ArialMT-69" d="M 425 3934 
L 425 4581 
L 988 4581 
L 988 3934 
L 425 3934 
z
M 425 0 
L 425 3319 
L 988 3319 
L 988 0 
L 425 0 
z
" transform="scale(0.015625)"/>
       <path id="ArialMT-20" transform="scale(0.015625)"/>
       <path id="ArialMT-65" d="M 2694 1069 
L 3275 997 
Q 3138 488 2766 206 
Q 2394 -75 1816 -75 
Q 1088 -75 661 373 
Q 234 822 234 1631 
Q 234 2469 665 2931 
Q 1097 3394 1784 3394 
Q 2450 3394 2872 2941 
Q 3294 2488 3294 1666 
Q 3294 1616 3291 1516 
L 816 1516 
Q 847 969 1125 678 
Q 1403 388 1819 388 
Q 2128 388 2347 550 
Q 2566 713 2694 1069 
z
M 847 1978 
L 2700 1978 
Q 2663 2397 2488 2606 
Q 2219 2931 1791 2931 
Q 1403 2931 1139 2672 
Q 875 2413 847 1978 
z
" transform="scale(0.015625)"/>
       <path id="ArialMT-73" d="M 197 991 
L 753 1078 
Q 800 744 1014 566 
Q 1228 388 1613 388 
Q 2000 388 2187 545 
Q 2375 703 2375 916 
Q 2375 1106 2209 1216 
Q 2094 1291 1634 1406 
Q 1016 1563 777 1677 
Q 538 1791 414 1992 
Q 291 2194 291 2438 
Q 291 2659 392 2848 
Q 494 3038 669 3163 
Q 800 3259 1026 3326 
Q 1253 3394 1513 3394 
Q 1903 3394 2198 3281 
Q 2494 3169 2634 2976 
Q 2775 2784 2828 2463 
L 2278 2388 
Q 2241 2644 2061 2787 
Q 1881 2931 1553 2931 
Q 1166 2931 1000 2803 
Q 834 2675 834 2503 
Q 834 2394 903 2306 
Q 972 2216 1119 2156 
Q 1203 2125 1616 2013 
Q 2213 1853 2448 1751 
Q 2684 1650 2818 1456 
Q 2953 1263 2953 975 
Q 2953 694 2789 445 
Q 2625 197 2315 61 
Q 2006 -75 1616 -75 
Q 969 -75 630 194 
Q 291 463 197 991 
z
" transform="scale(0.015625)"/>
       <path id="ArialMT-6d" d="M 422 0 
L 422 3319 
L 925 3319 
L 925 2853 
Q 1081 3097 1340 3245 
Q 1600 3394 1931 3394 
Q 2300 3394 2536 3241 
Q 2772 3088 2869 2813 
Q 3263 3394 3894 3394 
Q 4388 3394 4653 3120 
Q 4919 2847 4919 2278 
L 4919 0 
L 4359 0 
L 4359 2091 
Q 4359 2428 4304 2576 
Q 4250 2725 4106 2815 
Q 3963 2906 3769 2906 
Q 3419 2906 3187 2673 
Q 2956 2441 2956 1928 
L 2956 0 
L 2394 0 
L 2394 2156 
Q 2394 2531 2256 2718 
Q 2119 2906 1806 2906 
Q 1569 2906 1367 2781 
Q 1166 2656 1075 2415 
Q 984 2175 984 1722 
L 984 0 
L 422 0 
z
" transform="scale(0.015625)"/>
       <path id="DejaVuSans-Oblique-3c4" d="M 2103 638 
Q 2188 488 2525 488 
L 2800 488 
L 2706 0 
L 2363 0 
Q 1800 0 1600 300 
Q 1403 606 1534 1269 
L 1856 2925 
L 541 2925 
L 653 3500 
L 3881 3500 
L 3769 2925 
L 2444 2925 
L 2113 1234 
Q 2025 781 2103 638 
z
" transform="scale(0.015625)"/>
       <path id="DejaVuSans-28" d="M 1984 4856 
Q 1566 4138 1362 3434 
Q 1159 2731 1159 2009 
Q 1159 1288 1364 580 
Q 1569 -128 1984 -844 
L 1484 -844 
Q 1016 -109 783 600 
Q 550 1309 550 2009 
Q 550 2706 781 3412 
Q 1013 4119 1484 4856 
L 1984 4856 
z
" transform="scale(0.015625)"/>
       <path id="DejaVuSans-Oblique-50" d="M 1081 4666 
L 2541 4666 
Q 3178 4666 3512 4369 
Q 3847 4072 3847 3500 
Q 3847 2731 3353 2303 
Q 2859 1875 1966 1875 
L 1172 1875 
L 806 0 
L 172 0 
L 1081 4666 
z
M 1613 4147 
L 1275 2394 
L 2069 2394 
Q 2606 2394 2893 2669 
Q 3181 2944 3181 3456 
Q 3181 3784 2986 3965 
Q 2791 4147 2438 4147 
L 1613 4147 
z
" transform="scale(0.015625)"/>
       <path id="DejaVuSans-Oblique-6e" d="M 3566 2113 
L 3156 0 
L 2578 0 
L 2988 2091 
Q 3016 2238 3031 2350 
Q 3047 2463 3047 2528 
Q 3047 2791 2881 2937 
Q 2716 3084 2419 3084 
Q 1956 3084 1622 2776 
Q 1288 2469 1184 1941 
L 800 0 
L 225 0 
L 903 3500 
L 1478 3500 
L 1363 2950 
Q 1603 3253 1940 3418 
Q 2278 3584 2650 3584 
Q 3113 3584 3367 3334 
Q 3622 3084 3622 2631 
Q 3622 2519 3608 2391 
Q 3594 2263 3566 2113 
z
" transform="scale(0.015625)"/>
       <path id="DejaVuSans-29" d="M 513 4856 
L 1013 4856 
Q 1481 4119 1714 3412 
Q 1947 2706 1947 2009 
Q 1947 1309 1714 600 
Q 1481 -109 1013 -844 
L 513 -844 
Q 928 -128 1133 580 
Q 1338 1288 1338 2009 
Q 1338 2731 1133 3434 
Q 928 4138 513 4856 
z
" transform="scale(0.015625)"/>
      </defs>
      <use xlink:href="#ArialMT-63" transform="translate(0 0.51875)"/>
      <use xlink:href="#ArialMT-6f" transform="translate(50 0.51875)"/>
      <use xlink:href="#ArialMT-6e" transform="translate(105.615234 0.51875)"/>
      <use xlink:href="#ArialMT-74" transform="translate(161.230469 0.51875)"/>
      <use xlink:href="#ArialMT-72" transform="translate(189.013672 0.51875)"/>
      <use xlink:href="#ArialMT-61" transform="translate(222.314453 0.51875)"/>
      <use xlink:href="#ArialMT-63" transform="translate(277.929688 0.51875)"/>
      <use xlink:href="#ArialMT-74" transform="translate(327.929688 0.51875)"/>
      <use xlink:href="#ArialMT-69" transform="translate(355.712891 0.51875)"/>
      <use xlink:href="#ArialMT-6f" transform="translate(377.929688 0.51875)"/>
      <use xlink:href="#ArialMT-6e" transform="translate(433.544922 0.51875)"/>
      <use xlink:href="#ArialMT-20" transform="translate(489.160156 0.51875)"/>
      <use xlink:href="#ArialMT-65" transform="translate(516.943359 0.51875)"/>
      <use xlink:href="#ArialMT-73" transform="translate(572.558594 0.51875)"/>
      <use xlink:href="#ArialMT-74" transform="translate(622.558594 0.51875)"/>
      <use xlink:href="#ArialMT-69" transform="translate(650.341797 0.51875)"/>
      <use xlink:href="#ArialMT-6d" transform="translate(672.558594 0.51875)"/>
      <use xlink:href="#ArialMT-61" transform="translate(755.859375 0.51875)"/>
      <use xlink:href="#ArialMT-74" transform="translate(811.474609 0.51875)"/>
      <use xlink:href="#ArialMT-65" transform="translate(839.257812 0.51875)"/>
      <use xlink:href="#ArialMT-20" transform="translate(894.873047 0.51875)"/>
      <use xlink:href="#DejaVuSans-Oblique-3c4" transform="translate(922.65625 0.51875)"/>
      <use xlink:href="#DejaVuSans-Oblique-78" transform="translate(982.861328 -15.8875) scale(0.7)"/>
      <use xlink:href="#DejaVuSans-28" transform="translate(1027.021484 0.51875)"/>
      <use xlink:href="#DejaVuSans-Oblique-50" transform="translate(1066.035156 0.51875)"/>
      <use xlink:href="#DejaVuSans-Oblique-6e" transform="translate(1133.354661 38.8) scale(0.7)"/>
      <use xlink:href="#DejaVuSans-29" transform="translate(1180.454271 0.51875)"/>
     </g>
    </g>
   </g>
   <g id="line2d_16">
    <path d="M 73.832727 53.568 
L 87.016668 53.693725 
L 95.256631 53.633834 
L 103.496594 53.750244 
L 106.79258 53.754245 
L 128.216484 53.931861 
L 134.808454 54.136269 
L 141.400425 54.191868 
L 143.048417 54.263352 
L 146.344402 54.235669 
L 151.28838 54.377163 
L 161.176336 54.694463 
L 162.824329 54.786885 
L 166.120314 55.093978 
L 167.768306 55.019223 
L 169.416299 55.136568 
L 171.064292 55.413059 
L 172.712284 55.467694 
L 176.008269 55.385347 
L 184.248233 56.395984 
L 185.896225 56.382361 
L 187.544218 56.513591 
L 190.840203 57.342699 
L 192.488196 57.363943 
L 194.136188 57.251154 
L 197.432174 58.33161 
L 199.080166 58.587733 
L 200.728159 58.609795 
L 202.376151 58.940191 
L 204.024144 59.703304 
L 207.320129 61.942141 
L 208.968122 62.631857 
L 210.616114 64.416747 
L 212.264107 65.733514 
L 213.9121 67.785331 
L 215.560092 71.18354 
L 217.208085 75.758204 
L 218.856078 81.874776 
L 220.50407 88.503375 
L 222.152063 96.257619 
L 223.800055 105.008454 
L 225.448048 114.565066 
L 227.096041 122.604839 
L 230.392026 136.923863 
L 232.040018 140.198814 
L 235.336004 141.438548 
L 236.983996 140.349404 
L 238.631989 139.592087 
L 240.279982 140.957094 
L 241.927974 140.709089 
L 243.575967 136.032075 
L 245.223959 129.550971 
L 246.871952 122.187686 
L 248.519945 113.11647 
L 255.111915 81.028717 
L 256.759908 75.939704 
L 258.4079 71.39081 
L 260.055893 68.218661 
L 261.703886 65.664015 
L 263.351878 63.513541 
L 264.999871 62.424558 
L 269.943849 59.899915 
L 271.591841 59.465695 
L 273.239834 59.405336 
L 274.887826 59.046498 
L 276.535819 58.224982 
L 278.183812 57.957149 
L 279.831804 58.114179 
L 283.12779 57.319659 
L 284.775782 56.859143 
L 289.71976 56.332515 
L 291.367753 55.995665 
L 296.311731 55.779416 
L 299.607716 55.383537 
L 301.255708 55.366366 
L 304.551694 55.056455 
L 306.199686 55.167215 
L 311.143664 54.985788 
L 316.087642 54.524717 
L 324.327605 54.486536 
L 327.62359 54.21498 
L 330.919575 54.073209 
L 332.567568 53.99914 
L 335.863553 54.093212 
L 337.511546 54.018281 
L 340.807531 54.03478 
L 345.751509 53.973823 
L 350.695487 53.85255 
L 353.991472 53.879211 
L 358.93545 53.710122 
L 367.175413 53.73176 
L 368.823406 53.635163 
L 383.655339 53.702413 
L 396.83928 53.587273 
L 398.487273 53.617131 
L 398.487273 53.617131 
" clip-path="url(#p08ea4e53aa)" style="fill: none; stroke: #0000ff; stroke-width: 1.5; stroke-linecap: round"/>
   </g>
   <g id="line2d_17">
    <path d="M 73.832727 54.55529 
L 78.776705 54.653742 
L 82.07269 54.860165 
L 91.960646 55.150351 
L 93.608639 55.137955 
L 95.256631 55.29862 
L 96.904624 55.605246 
L 98.552617 55.672701 
L 100.200609 55.62852 
L 105.144587 55.836986 
L 106.79258 55.733746 
L 108.440572 55.827131 
L 111.736557 56.618175 
L 113.38455 56.535843 
L 115.032543 56.585835 
L 116.680535 56.90788 
L 118.328528 56.952119 
L 123.272506 57.553123 
L 124.920498 57.9396 
L 126.568491 58.075253 
L 128.216484 58.077064 
L 129.864476 58.413359 
L 131.512469 59.009763 
L 133.160461 59.32896 
L 134.808454 59.422638 
L 136.456447 59.924897 
L 138.104439 60.759305 
L 139.752432 61.103645 
L 141.400425 61.263112 
L 143.048417 61.631966 
L 146.344402 62.709065 
L 147.992395 63.046265 
L 152.936373 65.336451 
L 154.584365 66.685149 
L 156.232358 68.323201 
L 157.880351 69.482253 
L 159.528343 69.522185 
L 161.176336 70.049353 
L 162.824329 71.922168 
L 164.472321 74.050916 
L 167.768306 76.588495 
L 169.416299 78.41615 
L 171.064292 80.487197 
L 172.712284 82.340812 
L 174.360277 84.398002 
L 176.008269 88.017045 
L 177.656262 90.893444 
L 180.952247 95.509442 
L 182.60024 98.918281 
L 184.248233 103.240428 
L 185.896225 105.746133 
L 187.544218 109.358781 
L 190.840203 117.061777 
L 192.488196 121.998127 
L 194.136188 126.448715 
L 197.432174 136.508068 
L 199.080166 143.256464 
L 200.728159 149.11957 
L 202.376151 151.443134 
L 204.024144 156.263993 
L 205.672137 163.341092 
L 210.616114 181.759619 
L 212.264107 186.754502 
L 215.560092 200.722821 
L 217.208085 205.61796 
L 218.856078 211.706229 
L 222.152063 225.632476 
L 223.800055 232.034634 
L 225.448048 239.062785 
L 227.096041 244.964776 
L 228.744033 248.022511 
L 230.392026 248.507136 
L 232.040018 252.810121 
L 233.688011 253.558615 
L 235.336004 251.952574 
L 236.983996 253.04604 
L 238.631989 252.787581 
L 240.279982 253.046343 
L 241.927974 253.486174 
L 243.575967 251.401396 
L 245.223959 247.56767 
L 246.871952 244.294373 
L 250.167937 229.410416 
L 251.81593 225.06347 
L 253.463922 220.347611 
L 256.759908 203.210663 
L 258.4079 197.941902 
L 263.351878 180.539756 
L 266.647863 169.368761 
L 268.295856 164.61121 
L 269.943849 158.035713 
L 271.591841 150.426482 
L 274.887826 142.7321 
L 278.183812 131.5192 
L 279.831804 127.49416 
L 281.479797 122.911801 
L 283.12779 116.986847 
L 284.775782 113.40673 
L 286.423775 110.097686 
L 288.071767 106.04857 
L 289.71976 103.101153 
L 291.367753 100.830911 
L 294.663738 94.181097 
L 302.903701 80.093813 
L 304.551694 78.480684 
L 306.199686 77.371684 
L 307.847679 75.038966 
L 309.495671 73.20547 
L 311.143664 72.511797 
L 312.791657 71.361667 
L 314.439649 70.009713 
L 316.087642 69.120816 
L 317.735635 68.614468 
L 319.383627 67.083949 
L 321.03162 65.102054 
L 322.679612 64.11377 
L 324.327605 63.669942 
L 325.975598 63.051433 
L 327.62359 62.571367 
L 332.567568 60.725738 
L 334.215561 60.140095 
L 337.511546 59.850405 
L 339.159539 59.291802 
L 345.751509 57.867809 
L 347.399502 57.704311 
L 349.047494 57.757983 
L 352.343479 57.090007 
L 353.991472 56.964924 
L 357.287457 56.548852 
L 358.93545 56.397283 
L 362.231435 56.32374 
L 363.879428 56.026429 
L 367.175413 55.853529 
L 370.471398 55.698909 
L 373.767383 55.775737 
L 378.711361 55.286458 
L 382.007347 55.29075 
L 385.303332 55.094226 
L 390.24731 55.026757 
L 391.895302 54.949973 
L 393.543295 54.7313 
L 398.487273 54.695894 
L 398.487273 54.695894 
" clip-path="url(#p08ea4e53aa)" style="fill: none; stroke: #0000cd; stroke-width: 1.5; stroke-linecap: round"/>
   </g>
   <g id="line2d_18">
    <path d="M 73.832727 58.255366 
L 77.128713 58.443655 
L 78.776705 58.745463 
L 80.424698 59.222916 
L 82.07269 59.889491 
L 85.368676 60.391122 
L 90.312653 61.459971 
L 91.960646 61.673768 
L 93.608639 62.139745 
L 96.904624 63.675023 
L 98.552617 63.860903 
L 100.200609 64.352942 
L 101.848602 65.176531 
L 105.144587 67.121633 
L 108.440572 67.681244 
L 110.088565 68.80775 
L 111.736557 70.860795 
L 113.38455 72.346519 
L 115.032543 72.499796 
L 116.680535 73.625178 
L 118.328528 75.477888 
L 119.976521 76.331773 
L 121.624513 76.869132 
L 123.272506 79.340614 
L 124.920498 81.436029 
L 126.568491 81.96308 
L 128.216484 82.913081 
L 129.864476 85.94648 
L 131.512469 88.058627 
L 133.160461 89.200479 
L 134.808454 91.673377 
L 136.456447 93.613719 
L 138.104439 95.93356 
L 139.752432 99.027624 
L 143.048417 103.105197 
L 144.69641 106.270235 
L 147.992395 114.515686 
L 149.640388 116.343648 
L 151.28838 118.345663 
L 152.936373 121.422762 
L 154.584365 124.762423 
L 156.232358 129.150331 
L 157.880351 133.979819 
L 159.528343 136.23768 
L 161.176336 139.913373 
L 162.824329 144.715119 
L 164.472321 147.61066 
L 166.120314 151.307173 
L 167.768306 155.985297 
L 169.416299 161.796877 
L 171.064292 165.775444 
L 172.712284 169.113601 
L 174.360277 174.764561 
L 176.008269 178.315105 
L 177.656262 181.386275 
L 179.304255 186.393489 
L 180.952247 190.173911 
L 182.60024 194.485196 
L 185.896225 205.217021 
L 187.544218 208.304173 
L 189.19221 212.110314 
L 190.840203 218.41351 
L 192.488196 221.834649 
L 194.136188 224.526052 
L 199.080166 237.580839 
L 200.728159 241.427803 
L 202.376151 244.25897 
L 204.024144 248.459476 
L 205.672137 251.29633 
L 207.320129 253.163086 
L 208.968122 255.617835 
L 210.616114 260.887183 
L 212.264107 265.069468 
L 213.9121 265.958584 
L 215.560092 268.999751 
L 217.208085 270.794518 
L 218.856078 271.139765 
L 220.50407 274.211725 
L 222.152063 277.783558 
L 223.800055 278.735029 
L 225.448048 282.973423 
L 227.096041 284.79073 
L 228.744033 281.704757 
L 230.392026 282.172592 
L 232.040018 284.735904 
L 233.688011 285.531984 
L 235.336004 284.690816 
L 236.983996 285.808335 
L 238.631989 285.769352 
L 240.279982 283.745847 
L 241.927974 283.357071 
L 243.575967 284.762428 
L 245.223959 284.655538 
L 246.871952 285.046281 
L 248.519945 280.814462 
L 250.167937 275.033935 
L 251.81593 276.401468 
L 253.463922 276.470199 
L 255.111915 273.432313 
L 256.759908 268.426745 
L 258.4079 265.606192 
L 260.055893 264.964457 
L 261.703886 263.136992 
L 263.351878 257.41353 
L 264.999871 255.347611 
L 266.647863 255.788789 
L 268.295856 252.112571 
L 269.943849 248.801918 
L 271.591841 246.80133 
L 273.239834 242.170494 
L 274.887826 236.158382 
L 276.535819 232.966611 
L 278.183812 228.187984 
L 279.831804 225.174704 
L 281.479797 222.67873 
L 283.12779 216.856579 
L 284.775782 213.224644 
L 288.071767 202.431766 
L 289.71976 199.103311 
L 291.367753 194.657322 
L 293.015745 191.442102 
L 294.663738 189.197133 
L 296.311731 184.915035 
L 297.959723 176.271332 
L 299.607716 172.610627 
L 301.255708 171.254438 
L 302.903701 165.27317 
L 304.551694 160.112848 
L 306.199686 156.729897 
L 307.847679 152.856264 
L 309.495671 149.281169 
L 311.143664 144.221284 
L 316.087642 132.359638 
L 317.735635 130.167976 
L 319.383627 126.064545 
L 321.03162 121.577543 
L 322.679612 118.098447 
L 324.327605 115.65748 
L 325.975598 113.569628 
L 329.271583 105.905747 
L 330.919575 103.072989 
L 334.215561 98.02439 
L 335.863553 96.074718 
L 337.511546 94.731845 
L 339.159539 92.330534 
L 340.807531 89.692153 
L 342.455524 88.091595 
L 344.103516 86.827186 
L 345.751509 84.306296 
L 347.399502 82.331321 
L 349.047494 80.708395 
L 350.695487 78.6934 
L 352.343479 77.240833 
L 353.991472 75.992091 
L 358.93545 71.598503 
L 362.231435 70.399402 
L 365.52742 68.179006 
L 368.823406 66.086497 
L 370.471398 65.601524 
L 372.119391 65.834549 
L 373.767383 64.956793 
L 375.415376 63.50097 
L 378.711361 63.059989 
L 383.655339 61.337969 
L 386.951324 60.626075 
L 388.599317 60.211565 
L 390.24731 60.119377 
L 391.895302 59.668263 
L 393.543295 58.855844 
L 396.83928 58.739681 
L 398.487273 58.298394 
L 398.487273 58.298394 
" clip-path="url(#p08ea4e53aa)" style="fill: none; stroke: #00008b; stroke-width: 1.5; stroke-linecap: round"/>
   </g>
   <g id="line2d_19">
    <path d="M 73.832727 171.989592 
L 75.48072 174.895761 
L 77.128713 177.388363 
L 78.776705 178.58001 
L 80.424698 184.456147 
L 82.07269 187.136147 
L 83.720683 187.904764 
L 85.368676 194.04953 
L 87.016668 194.076117 
L 88.664661 195.94361 
L 90.312653 201.704979 
L 93.608639 205.816616 
L 95.256631 209.397667 
L 96.904624 213.473635 
L 98.552617 215.655667 
L 101.848602 222.875429 
L 103.496594 223.507298 
L 105.144587 227.237027 
L 106.79258 230.367191 
L 108.440572 232.884212 
L 110.088565 233.261221 
L 111.736557 234.627389 
L 113.38455 239.124633 
L 115.032543 241.278534 
L 118.328528 246.288737 
L 119.976521 247.423964 
L 121.624513 251.139261 
L 123.272506 251.010009 
L 124.920498 254.173916 
L 126.568491 258.50317 
L 128.216484 258.412555 
L 129.864476 263.58796 
L 131.512469 265.785276 
L 133.160461 264.67418 
L 134.808454 265.045516 
L 136.456447 265.234141 
L 138.104439 268.632399 
L 139.752432 271.02399 
L 141.400425 268.938317 
L 143.048417 271.813596 
L 144.69641 273.993835 
L 146.344402 272.597269 
L 147.992395 276.862499 
L 149.640388 282.368298 
L 151.28838 279.838181 
L 152.936373 279.604842 
L 154.584365 284.021897 
L 156.232358 283.623475 
L 157.880351 282.718352 
L 159.528343 283.489485 
L 161.176336 286.406896 
L 162.824329 285.689392 
L 164.472321 285.36376 
L 166.120314 291.219382 
L 169.416299 288.237314 
L 171.064292 290.911974 
L 172.712284 290.045322 
L 174.360277 288.530447 
L 177.656262 292.382871 
L 179.304255 292.659056 
L 180.952247 291.116086 
L 182.60024 290.539891 
L 184.248233 293.146073 
L 185.896225 293.621045 
L 187.544218 293.662169 
L 189.19221 292.528961 
L 190.840203 293.50958 
L 192.488196 294.715181 
L 194.136188 294.419402 
L 195.784181 293.568001 
L 197.432174 294.559203 
L 199.080166 294.060949 
L 200.728159 294.097973 
L 202.376151 294.751507 
L 204.024144 294.544223 
L 205.672137 294.769119 
L 207.320129 294.825317 
L 208.968122 293.344732 
L 210.616114 294.180899 
L 212.264107 293.643185 
L 213.9121 294.892125 
L 215.560092 294.459966 
L 217.208085 294.20649 
L 218.856078 294.177277 
L 220.50407 294.938478 
L 222.152063 294.255541 
L 223.800055 294.769367 
L 225.448048 294.625516 
L 227.096041 293.517171 
L 228.744033 291.20844 
L 230.392026 294.038999 
L 232.040018 293.709041 
L 233.688011 294.598129 
L 236.983996 293.562888 
L 238.631989 292.329647 
L 240.279982 294.967923 
L 241.927974 293.813015 
L 243.575967 294.216717 
L 245.223959 295.148989 
L 246.871952 293.504128 
L 248.519945 293.607667 
L 250.167937 295.031517 
L 251.81593 294.504775 
L 253.463922 294.346969 
L 255.111915 294.397887 
L 256.759908 294.949042 
L 258.4079 294.334451 
L 260.055893 294.703786 
L 261.703886 294.544498 
L 263.351878 295.185176 
L 264.999871 295.05279 
L 266.647863 294.441654 
L 268.295856 294.816805 
L 269.943849 294.725327 
L 271.591841 293.174355 
L 274.887826 295.488 
L 276.535819 292.228325 
L 278.183812 293.826859 
L 279.831804 294.630696 
L 281.479797 294.568468 
L 283.12779 293.575448 
L 284.775782 291.339006 
L 286.423775 292.348076 
L 288.071767 293.675546 
L 289.71976 293.753225 
L 291.367753 293.214443 
L 293.015745 290.935113 
L 296.311731 290.845653 
L 297.959723 288.730742 
L 299.607716 291.015865 
L 301.255708 292.571515 
L 302.903701 288.903432 
L 304.551694 289.431019 
L 306.199686 290.206695 
L 309.495671 284.44258 
L 311.143664 284.970094 
L 312.791657 285.812674 
L 314.439649 285.741269 
L 316.087642 287.822675 
L 317.735635 284.419337 
L 319.383627 279.9416 
L 321.03162 279.518693 
L 322.679612 278.019541 
L 324.327605 275.342757 
L 325.975598 278.105002 
L 327.62359 277.690176 
L 329.271583 274.631343 
L 330.919575 275.588312 
L 332.567568 273.376859 
L 334.215561 268.523833 
L 335.863553 268.294279 
L 337.511546 268.998797 
L 339.159539 266.229275 
L 340.807531 262.758856 
L 342.455524 260.086809 
L 344.103516 262.864859 
L 345.751509 261.693605 
L 347.399502 255.532626 
L 349.047494 252.044354 
L 350.695487 249.276568 
L 352.343479 251.833934 
L 353.991472 250.413865 
L 355.639465 245.622021 
L 358.93545 237.499758 
L 360.583443 238.29024 
L 362.231435 237.760123 
L 363.879428 233.667452 
L 365.52742 230.855938 
L 367.175413 229.406737 
L 368.823406 225.197919 
L 370.471398 219.964725 
L 372.119391 217.813201 
L 373.767383 218.793782 
L 377.063369 212.860725 
L 378.711361 210.211306 
L 380.359354 206.323153 
L 382.007347 204.214473 
L 383.655339 203.053254 
L 385.303332 198.444089 
L 386.951324 194.683683 
L 388.599317 193.549957 
L 390.24731 189.587859 
L 391.895302 187.245527 
L 393.543295 183.439947 
L 395.191287 179.01726 
L 396.83928 176.206053 
L 398.487273 172.818115 
L 398.487273 172.818115 
" clip-path="url(#p08ea4e53aa)" style="fill: none; stroke: #191970; stroke-width: 1.5; stroke-linecap: round"/>
   </g>
   <g id="patch_3">
    <path d="M 57.6 307.584 
L 57.6 41.472 
" style="fill: none; stroke: #ffffff; stroke-width: 0.8; stroke-linejoin: miter; stroke-linecap: square"/>
   </g>
   <g id="patch_4">
    <path d="M 414.72 307.584 
L 414.72 41.472 
" style="fill: none; stroke: #ffffff; stroke-width: 0.8; stroke-linejoin: miter; stroke-linecap: square"/>
   </g>
   <g id="patch_5">
    <path d="M 57.6 307.584 
L 414.72 307.584 
" style="fill: none; stroke: #ffffff; stroke-width: 0.8; stroke-linejoin: miter; stroke-linecap: square"/>
   </g>
   <g id="patch_6">
    <path d="M 57.6 41.472 
L 414.72 41.472 
" style="fill: none; stroke: #ffffff; stroke-width: 0.8; stroke-linejoin: miter; stroke-linecap: square"/>
   </g>
   <g id="text_18">
    <!-- $\sigma^2 = 1$ -->
    <g style="fill: #262626" transform="translate(218.04 35.472) scale(0.12 -0.12)">
     <defs>
      <path id="DejaVuSans-Oblique-3c3" d="M 2219 3044 
Q 1744 3044 1422 2700 
Q 1081 2341 969 1747 
Q 844 1119 1044 756 
Q 1241 397 1706 397 
Q 2166 397 2503 759 
Q 2844 1122 2966 1747 
Q 3075 2319 2881 2700 
Q 2700 3044 2219 3044 
z
M 2309 3503 
L 4219 3500 
L 4106 2925 
L 3463 2925 
Q 3706 2438 3575 1747 
Q 3406 888 2884 400 
Q 2359 -91 1609 -91 
Q 856 -91 525 400 
Q 194 888 363 1747 
Q 528 2609 1050 3097 
Q 1484 3503 2309 3503 
z
" transform="scale(0.015625)"/>
      <path id="DejaVuSans-32" d="M 1228 531 
L 3431 531 
L 3431 0 
L 469 0 
L 469 531 
Q 828 903 1448 1529 
Q 2069 2156 2228 2338 
Q 2531 2678 2651 2914 
Q 2772 3150 2772 3378 
Q 2772 3750 2511 3984 
Q 2250 4219 1831 4219 
Q 1534 4219 1204 4116 
Q 875 4013 500 3803 
L 500 4441 
Q 881 4594 1212 4672 
Q 1544 4750 1819 4750 
Q 2544 4750 2975 4387 
Q 3406 4025 3406 3419 
Q 3406 3131 3298 2873 
Q 3191 2616 2906 2266 
Q 2828 2175 2409 1742 
Q 1991 1309 1228 531 
z
" transform="scale(0.015625)"/>
      <path id="DejaVuSans-3d" d="M 678 2906 
L 4684 2906 
L 4684 2381 
L 678 2381 
L 678 2906 
z
M 678 1631 
L 4684 1631 
L 4684 1100 
L 678 1100 
L 678 1631 
z
" transform="scale(0.015625)"/>
      <path id="DejaVuSans-31" d="M 794 531 
L 1825 531 
L 1825 4091 
L 703 3866 
L 703 4441 
L 1819 4666 
L 2450 4666 
L 2450 531 
L 3481 531 
L 3481 0 
L 794 0 
L 794 531 
z
" transform="scale(0.015625)"/>
     </defs>
     <use xlink:href="#DejaVuSans-Oblique-3c3" transform="translate(0 0.765625)"/>
     <use xlink:href="#DejaVuSans-32" transform="translate(67.851615 39.046875) scale(0.7)"/>
     <use xlink:href="#DejaVuSans-3d" transform="translate(134.604544 0.765625)"/>
     <use xlink:href="#DejaVuSans-31" transform="translate(237.876029 0.765625)"/>
    </g>
   </g>
   <g id="legend_1">
    <g id="patch_7">
     <path d="M 64.6 302.584 
L 125.5 302.584 
Q 127.5 302.584 127.5 300.584 
L 127.5 245.00275 
Q 127.5 243.00275 125.5 243.00275 
L 64.6 243.00275 
Q 62.6 243.00275 62.6 245.00275 
L 62.6 300.584 
Q 62.6 302.584 64.6 302.584 
z
" style="fill: #eaeaf2; opacity: 0.8; stroke: #cccccc; stroke-linejoin: miter"/>
    </g>
    <g id="line2d_20">
     <path d="M 66.6 250.660562 
L 76.6 250.660562 
L 86.6 250.660562 
" style="fill: none; stroke: #0000ff; stroke-width: 1.5; stroke-linecap: round"/>
    </g>
    <g id="text_19">
     <!-- $n$ = 1 -->
     <g style="fill: #262626" transform="translate(94.6 254.160562) scale(0.1 -0.1)">
      <defs>
       <path id="ArialMT-3d" d="M 3381 2694 
L 356 2694 
L 356 3219 
L 3381 3219 
L 3381 2694 
z
M 3381 1303 
L 356 1303 
L 356 1828 
L 3381 1828 
L 3381 1303 
z
" transform="scale(0.015625)"/>
      </defs>
      <use xlink:href="#DejaVuSans-Oblique-6e" transform="translate(0 0.125)"/>
      <use xlink:href="#ArialMT-20" transform="translate(63.378906 0.125)"/>
      <use xlink:href="#ArialMT-3d" transform="translate(91.162109 0.125)"/>
      <use xlink:href="#ArialMT-20" transform="translate(149.560547 0.125)"/>
      <use xlink:href="#ArialMT-31" transform="translate(177.34375 0.125)"/>
     </g>
    </g>
    <g id="line2d_21">
     <path d="M 66.6 264.805875 
L 76.6 264.805875 
L 86.6 264.805875 
" style="fill: none; stroke: #0000cd; stroke-width: 1.5; stroke-linecap: round"/>
    </g>
    <g id="text_20">
     <!-- $n$ = 5 -->
     <g style="fill: #262626" transform="translate(94.6 268.305875) scale(0.1 -0.1)">
      <use xlink:href="#DejaVuSans-Oblique-6e" transform="translate(0 0.390625)"/>
      <use xlink:href="#ArialMT-20" transform="translate(63.378906 0.390625)"/>
      <use xlink:href="#ArialMT-3d" transform="translate(91.162109 0.390625)"/>
      <use xlink:href="#ArialMT-20" transform="translate(149.560547 0.390625)"/>
      <use xlink:href="#ArialMT-35" transform="translate(177.34375 0.390625)"/>
     </g>
    </g>
    <g id="line2d_22">
     <path d="M 66.6 278.951187 
L 76.6 278.951187 
L 86.6 278.951187 
" style="fill: none; stroke: #00008b; stroke-width: 1.5; stroke-linecap: round"/>
    </g>
    <g id="text_21">
     <!-- $n$ = 10 -->
     <g style="fill: #262626" transform="translate(94.6 282.451187) scale(0.1 -0.1)">
      <use xlink:href="#DejaVuSans-Oblique-6e" transform="translate(0 0.125)"/>
      <use xlink:href="#ArialMT-20" transform="translate(63.378906 0.125)"/>
      <use xlink:href="#ArialMT-3d" transform="translate(91.162109 0.125)"/>
      <use xlink:href="#ArialMT-20" transform="translate(149.560547 0.125)"/>
      <use xlink:href="#ArialMT-31" transform="translate(177.34375 0.125)"/>
      <use xlink:href="#ArialMT-30" transform="translate(232.958984 0.125)"/>
     </g>
    </g>
    <g id="line2d_23">
     <path d="M 66.6 293.0965 
L 76.6 293.0965 
L 86.6 293.0965 
" style="fill: none; stroke: #191970; stroke-width: 1.5; stroke-linecap: round"/>
    </g>
    <g id="text_22">
     <!-- $n$ = 25 -->
     <g style="fill: #262626" transform="translate(94.6 296.5965) scale(0.1 -0.1)">
      <use xlink:href="#DejaVuSans-Oblique-6e" transform="translate(0 0.125)"/>
      <use xlink:href="#ArialMT-20" transform="translate(63.378906 0.125)"/>
      <use xlink:href="#ArialMT-3d" transform="translate(91.162109 0.125)"/>
      <use xlink:href="#ArialMT-20" transform="translate(149.560547 0.125)"/>
      <use xlink:href="#ArialMT-32" transform="translate(177.34375 0.125)"/>
      <use xlink:href="#ArialMT-35" transform="translate(232.958984 0.125)"/>
     </g>
    </g>
   </g>
  </g>
 </g>
 <defs>
  <clipPath id="p08ea4e53aa">
   <rect x="57.6" y="41.472" width="357.12" height="266.112"/>
  </clipPath>
 </defs>
</svg>
