<?xml version="1.0" encoding="utf-8" standalone="no"?>
<!DOCTYPE svg PUBLIC "-//W3C//DTD SVG 1.1//EN"
  "http://www.w3.org/Graphics/SVG/1.1/DTD/svg11.dtd">
<svg xmlns:xlink="http://www.w3.org/1999/xlink" width="792pt" height="360pt" viewBox="0 0 792 360" xmlns="http://www.w3.org/2000/svg" version="1.1">
 <metadata>
  <rdf:RDF xmlns:dc="http://purl.org/dc/elements/1.1/" xmlns:cc="http://creativecommons.org/ns#" xmlns:rdf="http://www.w3.org/1999/02/22-rdf-syntax-ns#">
   <cc:Work>
    <dc:type rdf:resource="http://purl.org/dc/dcmitype/StillImage"/>
    <dc:date>2025-03-10T10:43:01.609397</dc:date>
    <dc:format>image/svg+xml</dc:format>
    <dc:creator>
     <cc:Agent>
      <dc:title>Matplotlib v3.9.4, https://matplotlib.org/</dc:title>
     </cc:Agent>
    </dc:creator>
   </cc:Work>
  </rdf:RDF>
 </metadata>
 <defs>
  <style type="text/css">*{stroke-linejoin: round; stroke-linecap: butt}</style>
 </defs>
 <g id="figure_1">
  <g id="patch_1">
   <path d="M 0 360 
L 792 360 
L 792 0 
L 0 0 
z
" style="fill: #ffffff"/>
  </g>
  <g id="axes_1">
   <g id="patch_2">
    <path d="M 99 320.4 
L 378 320.4 
L 378 43.2 
L 99 43.2 
z
" style="fill: #eaeaf2"/>
   </g>
   <g id="matplotlib.axis_1">
    <g id="xtick_1">
     <g id="line2d_1">
      <path d="M 111.681818 320.4 
L 111.681818 43.2 
" clip-path="url(#p2145463a53)" style="fill: none; stroke: #ffffff; stroke-width: 0.8; stroke-linecap: round"/>
     </g>
     <g id="text_1">
      <!-- −10.0 -->
      <g style="fill: #262626" transform="translate(99.031037 334.557813) scale(0.1 -0.1)">
       <defs>
        <path id="ArialMT-2212" d="M 3381 1997 
L 356 1997 
L 356 2522 
L 3381 2522 
L 3381 1997 
z
" transform="scale(0.015625)"/>
        <path id="ArialMT-31" d="M 2384 0 
L 1822 0 
L 1822 3584 
Q 1619 3391 1289 3197 
Q 959 3003 697 2906 
L 697 3450 
Q 1169 3672 1522 3987 
Q 1875 4303 2022 4600 
L 2384 4600 
L 2384 0 
z
" transform="scale(0.015625)"/>
        <path id="ArialMT-30" d="M 266 2259 
Q 266 3072 433 3567 
Q 600 4063 929 4331 
Q 1259 4600 1759 4600 
Q 2128 4600 2406 4451 
Q 2684 4303 2865 4023 
Q 3047 3744 3150 3342 
Q 3253 2941 3253 2259 
Q 3253 1453 3087 958 
Q 2922 463 2592 192 
Q 2263 -78 1759 -78 
Q 1097 -78 719 397 
Q 266 969 266 2259 
z
M 844 2259 
Q 844 1131 1108 757 
Q 1372 384 1759 384 
Q 2147 384 2411 759 
Q 2675 1134 2675 2259 
Q 2675 3391 2411 3762 
Q 2147 4134 1753 4134 
Q 1366 4134 1134 3806 
Q 844 3388 844 2259 
z
" transform="scale(0.015625)"/>
        <path id="ArialMT-2e" d="M 581 0 
L 581 641 
L 1222 641 
L 1222 0 
L 581 0 
z
" transform="scale(0.015625)"/>
       </defs>
       <use xlink:href="#ArialMT-2212"/>
       <use xlink:href="#ArialMT-31" x="58.398438"/>
       <use xlink:href="#ArialMT-30" x="114.013672"/>
       <use xlink:href="#ArialMT-2e" x="169.628906"/>
       <use xlink:href="#ArialMT-30" x="197.412109"/>
      </g>
     </g>
    </g>
    <g id="xtick_2">
     <g id="line2d_2">
      <path d="M 143.545561 320.4 
L 143.545561 43.2 
" clip-path="url(#p2145463a53)" style="fill: none; stroke: #ffffff; stroke-width: 0.8; stroke-linecap: round"/>
     </g>
     <g id="text_2">
      <!-- −7.5 -->
      <g style="fill: #262626" transform="translate(133.675249 334.557813) scale(0.1 -0.1)">
       <defs>
        <path id="ArialMT-37" d="M 303 3981 
L 303 4522 
L 3269 4522 
L 3269 4084 
Q 2831 3619 2401 2847 
Q 1972 2075 1738 1259 
Q 1569 684 1522 0 
L 944 0 
Q 953 541 1156 1306 
Q 1359 2072 1739 2783 
Q 2119 3494 2547 3981 
L 303 3981 
z
" transform="scale(0.015625)"/>
        <path id="ArialMT-35" d="M 266 1200 
L 856 1250 
Q 922 819 1161 601 
Q 1400 384 1738 384 
Q 2144 384 2425 690 
Q 2706 997 2706 1503 
Q 2706 1984 2436 2262 
Q 2166 2541 1728 2541 
Q 1456 2541 1237 2417 
Q 1019 2294 894 2097 
L 366 2166 
L 809 4519 
L 3088 4519 
L 3088 3981 
L 1259 3981 
L 1013 2750 
Q 1425 3038 1878 3038 
Q 2478 3038 2890 2622 
Q 3303 2206 3303 1553 
Q 3303 931 2941 478 
Q 2500 -78 1738 -78 
Q 1113 -78 717 272 
Q 322 622 266 1200 
z
" transform="scale(0.015625)"/>
       </defs>
       <use xlink:href="#ArialMT-2212"/>
       <use xlink:href="#ArialMT-37" x="58.398438"/>
       <use xlink:href="#ArialMT-2e" x="114.013672"/>
       <use xlink:href="#ArialMT-35" x="141.796875"/>
      </g>
     </g>
    </g>
    <g id="xtick_3">
     <g id="line2d_3">
      <path d="M 175.409305 320.4 
L 175.409305 43.2 
" clip-path="url(#p2145463a53)" style="fill: none; stroke: #ffffff; stroke-width: 0.8; stroke-linecap: round"/>
     </g>
     <g id="text_3">
      <!-- −5.0 -->
      <g style="fill: #262626" transform="translate(165.538992 334.557813) scale(0.1 -0.1)">
       <use xlink:href="#ArialMT-2212"/>
       <use xlink:href="#ArialMT-35" x="58.398438"/>
       <use xlink:href="#ArialMT-2e" x="114.013672"/>
       <use xlink:href="#ArialMT-30" x="141.796875"/>
      </g>
     </g>
    </g>
    <g id="xtick_4">
     <g id="line2d_4">
      <path d="M 207.273048 320.4 
L 207.273048 43.2 
" clip-path="url(#p2145463a53)" style="fill: none; stroke: #ffffff; stroke-width: 0.8; stroke-linecap: round"/>
     </g>
     <g id="text_4">
      <!-- −2.5 -->
      <g style="fill: #262626" transform="translate(197.402735 334.557813) scale(0.1 -0.1)">
       <defs>
        <path id="ArialMT-32" d="M 3222 541 
L 3222 0 
L 194 0 
Q 188 203 259 391 
Q 375 700 629 1000 
Q 884 1300 1366 1694 
Q 2113 2306 2375 2664 
Q 2638 3022 2638 3341 
Q 2638 3675 2398 3904 
Q 2159 4134 1775 4134 
Q 1369 4134 1125 3890 
Q 881 3647 878 3216 
L 300 3275 
Q 359 3922 746 4261 
Q 1134 4600 1788 4600 
Q 2447 4600 2831 4234 
Q 3216 3869 3216 3328 
Q 3216 3053 3103 2787 
Q 2991 2522 2730 2228 
Q 2469 1934 1863 1422 
Q 1356 997 1212 845 
Q 1069 694 975 541 
L 3222 541 
z
" transform="scale(0.015625)"/>
       </defs>
       <use xlink:href="#ArialMT-2212"/>
       <use xlink:href="#ArialMT-32" x="58.398438"/>
       <use xlink:href="#ArialMT-2e" x="114.013672"/>
       <use xlink:href="#ArialMT-35" x="141.796875"/>
      </g>
     </g>
    </g>
    <g id="xtick_5">
     <g id="line2d_5">
      <path d="M 239.136791 320.4 
L 239.136791 43.2 
" clip-path="url(#p2145463a53)" style="fill: none; stroke: #ffffff; stroke-width: 0.8; stroke-linecap: round"/>
     </g>
     <g id="text_5">
      <!-- 0.0 -->
      <g style="fill: #262626" transform="translate(232.186791 334.557813) scale(0.1 -0.1)">
       <use xlink:href="#ArialMT-30"/>
       <use xlink:href="#ArialMT-2e" x="55.615234"/>
       <use xlink:href="#ArialMT-30" x="83.398438"/>
      </g>
     </g>
    </g>
    <g id="xtick_6">
     <g id="line2d_6">
      <path d="M 271.000534 320.4 
L 271.000534 43.2 
" clip-path="url(#p2145463a53)" style="fill: none; stroke: #ffffff; stroke-width: 0.8; stroke-linecap: round"/>
     </g>
     <g id="text_6">
      <!-- 2.5 -->
      <g style="fill: #262626" transform="translate(264.050534 334.557813) scale(0.1 -0.1)">
       <use xlink:href="#ArialMT-32"/>
       <use xlink:href="#ArialMT-2e" x="55.615234"/>
       <use xlink:href="#ArialMT-35" x="83.398438"/>
      </g>
     </g>
    </g>
    <g id="xtick_7">
     <g id="line2d_7">
      <path d="M 302.864278 320.4 
L 302.864278 43.2 
" clip-path="url(#p2145463a53)" style="fill: none; stroke: #ffffff; stroke-width: 0.8; stroke-linecap: round"/>
     </g>
     <g id="text_7">
      <!-- 5.0 -->
      <g style="fill: #262626" transform="translate(295.914278 334.557813) scale(0.1 -0.1)">
       <use xlink:href="#ArialMT-35"/>
       <use xlink:href="#ArialMT-2e" x="55.615234"/>
       <use xlink:href="#ArialMT-30" x="83.398438"/>
      </g>
     </g>
    </g>
    <g id="xtick_8">
     <g id="line2d_8">
      <path d="M 334.728021 320.4 
L 334.728021 43.2 
" clip-path="url(#p2145463a53)" style="fill: none; stroke: #ffffff; stroke-width: 0.8; stroke-linecap: round"/>
     </g>
     <g id="text_8">
      <!-- 7.5 -->
      <g style="fill: #262626" transform="translate(327.778021 334.557813) scale(0.1 -0.1)">
       <use xlink:href="#ArialMT-37"/>
       <use xlink:href="#ArialMT-2e" x="55.615234"/>
       <use xlink:href="#ArialMT-35" x="83.398438"/>
      </g>
     </g>
    </g>
    <g id="xtick_9">
     <g id="line2d_9">
      <path d="M 366.591764 320.4 
L 366.591764 43.2 
" clip-path="url(#p2145463a53)" style="fill: none; stroke: #ffffff; stroke-width: 0.8; stroke-linecap: round"/>
     </g>
     <g id="text_9">
      <!-- 10.0 -->
      <g style="fill: #262626" transform="translate(356.861295 334.557813) scale(0.1 -0.1)">
       <use xlink:href="#ArialMT-31"/>
       <use xlink:href="#ArialMT-30" x="55.615234"/>
       <use xlink:href="#ArialMT-2e" x="111.230469"/>
       <use xlink:href="#ArialMT-30" x="139.013672"/>
      </g>
     </g>
    </g>
    <g id="text_10">
     <!-- $x$ -->
     <g style="fill: #262626" transform="translate(235.5 347.703125) scale(0.1 -0.1)">
      <defs>
       <path id="DejaVuSans-Oblique-78" d="M 3841 3500 
L 2234 1784 
L 3219 0 
L 2559 0 
L 1819 1388 
L 531 0 
L -166 0 
L 1556 1844 
L 641 3500 
L 1300 3500 
L 1972 2234 
L 3144 3500 
L 3841 3500 
z
" transform="scale(0.015625)"/>
      </defs>
      <use xlink:href="#DejaVuSans-Oblique-78" transform="translate(0 0.3125)"/>
     </g>
    </g>
   </g>
   <g id="matplotlib.axis_2">
    <g id="ytick_1">
     <g id="line2d_10">
      <path d="M 99 282.6 
L 378 282.6 
" clip-path="url(#p2145463a53)" style="fill: none; stroke: #ffffff; stroke-width: 0.8; stroke-linecap: round"/>
     </g>
     <g id="text_11">
      <!-- −4 -->
      <g style="fill: #262626" transform="translate(80.598438 286.178906) scale(0.1 -0.1)">
       <defs>
        <path id="ArialMT-34" d="M 2069 0 
L 2069 1097 
L 81 1097 
L 81 1613 
L 2172 4581 
L 2631 4581 
L 2631 1613 
L 3250 1613 
L 3250 1097 
L 2631 1097 
L 2631 0 
L 2069 0 
z
M 2069 1613 
L 2069 3678 
L 634 1613 
L 2069 1613 
z
" transform="scale(0.015625)"/>
       </defs>
       <use xlink:href="#ArialMT-2212"/>
       <use xlink:href="#ArialMT-34" x="58.398438"/>
      </g>
     </g>
    </g>
    <g id="ytick_2">
     <g id="line2d_11">
      <path d="M 99 232.2 
L 378 232.2 
" clip-path="url(#p2145463a53)" style="fill: none; stroke: #ffffff; stroke-width: 0.8; stroke-linecap: round"/>
     </g>
     <g id="text_12">
      <!-- −2 -->
      <g style="fill: #262626" transform="translate(80.598438 235.778906) scale(0.1 -0.1)">
       <use xlink:href="#ArialMT-2212"/>
       <use xlink:href="#ArialMT-32" x="58.398438"/>
      </g>
     </g>
    </g>
    <g id="ytick_3">
     <g id="line2d_12">
      <path d="M 99 181.8 
L 378 181.8 
" clip-path="url(#p2145463a53)" style="fill: none; stroke: #ffffff; stroke-width: 0.8; stroke-linecap: round"/>
     </g>
     <g id="text_13">
      <!-- 0 -->
      <g style="fill: #262626" transform="translate(86.439063 185.378906) scale(0.1 -0.1)">
       <use xlink:href="#ArialMT-30"/>
      </g>
     </g>
    </g>
    <g id="ytick_4">
     <g id="line2d_13">
      <path d="M 99 131.4 
L 378 131.4 
" clip-path="url(#p2145463a53)" style="fill: none; stroke: #ffffff; stroke-width: 0.8; stroke-linecap: round"/>
     </g>
     <g id="text_14">
      <!-- 2 -->
      <g style="fill: #262626" transform="translate(86.439063 134.978906) scale(0.1 -0.1)">
       <use xlink:href="#ArialMT-32"/>
      </g>
     </g>
    </g>
    <g id="ytick_5">
     <g id="line2d_14">
      <path d="M 99 81 
L 378 81 
" clip-path="url(#p2145463a53)" style="fill: none; stroke: #ffffff; stroke-width: 0.8; stroke-linecap: round"/>
     </g>
     <g id="text_15">
      <!-- 4 -->
      <g style="fill: #262626" transform="translate(86.439063 84.578906) scale(0.1 -0.1)">
       <use xlink:href="#ArialMT-34"/>
      </g>
     </g>
    </g>
    <g id="text_16">
     <!-- $x_{step}$ -->
     <g style="fill: #262626" transform="translate(73.498438 192.5) rotate(-90) scale(0.1 -0.1)">
      <defs>
       <path id="DejaVuSans-Oblique-73" d="M 3200 3397 
L 3091 2853 
Q 2863 2978 2609 3040 
Q 2356 3103 2088 3103 
Q 1634 3103 1373 2948 
Q 1113 2794 1113 2528 
Q 1113 2219 1719 2053 
Q 1766 2041 1788 2034 
L 1972 1978 
Q 2547 1819 2739 1644 
Q 2931 1469 2931 1166 
Q 2931 609 2489 259 
Q 2047 -91 1331 -91 
Q 1053 -91 747 -37 
Q 441 16 72 128 
L 184 722 
Q 500 559 806 475 
Q 1113 391 1394 391 
Q 1816 391 2080 572 
Q 2344 753 2344 1031 
Q 2344 1331 1650 1516 
L 1591 1531 
L 1394 1581 
Q 956 1697 753 1886 
Q 550 2075 550 2369 
Q 550 2928 970 3256 
Q 1391 3584 2113 3584 
Q 2397 3584 2667 3537 
Q 2938 3491 3200 3397 
z
" transform="scale(0.015625)"/>
       <path id="DejaVuSans-Oblique-74" d="M 2706 3500 
L 2619 3053 
L 1472 3053 
L 1100 1153 
Q 1081 1047 1072 975 
Q 1063 903 1063 863 
Q 1063 663 1183 572 
Q 1303 481 1569 481 
L 2150 481 
L 2053 0 
L 1503 0 
Q 991 0 739 200 
Q 488 400 488 806 
Q 488 878 497 964 
Q 506 1050 525 1153 
L 897 3053 
L 409 3053 
L 500 3500 
L 978 3500 
L 1172 4494 
L 1747 4494 
L 1556 3500 
L 2706 3500 
z
" transform="scale(0.015625)"/>
       <path id="DejaVuSans-Oblique-65" d="M 3078 2063 
Q 3088 2113 3092 2166 
Q 3097 2219 3097 2272 
Q 3097 2653 2873 2875 
Q 2650 3097 2266 3097 
Q 1838 3097 1509 2826 
Q 1181 2556 1013 2059 
L 3078 2063 
z
M 3578 1613 
L 903 1613 
Q 884 1494 878 1425 
Q 872 1356 872 1306 
Q 872 872 1139 634 
Q 1406 397 1894 397 
Q 2269 397 2603 481 
Q 2938 566 3225 728 
L 3116 159 
Q 2806 34 2476 -28 
Q 2147 -91 1806 -91 
Q 1078 -91 686 257 
Q 294 606 294 1247 
Q 294 1794 489 2264 
Q 684 2734 1063 3103 
Q 1306 3334 1642 3459 
Q 1978 3584 2356 3584 
Q 2950 3584 3301 3228 
Q 3653 2872 3653 2272 
Q 3653 2128 3634 1964 
Q 3616 1800 3578 1613 
z
" transform="scale(0.015625)"/>
       <path id="DejaVuSans-Oblique-70" d="M 3175 2156 
Q 3175 2616 2975 2859 
Q 2775 3103 2400 3103 
Q 2144 3103 1911 2972 
Q 1678 2841 1497 2591 
Q 1319 2344 1212 1994 
Q 1106 1644 1106 1300 
Q 1106 863 1306 627 
Q 1506 391 1875 391 
Q 2147 391 2380 519 
Q 2613 647 2778 891 
Q 2956 1147 3065 1494 
Q 3175 1841 3175 2156 
z
M 1394 2969 
Q 1625 3272 1939 3428 
Q 2253 3584 2638 3584 
Q 3175 3584 3472 3232 
Q 3769 2881 3769 2247 
Q 3769 1728 3584 1258 
Q 3400 788 3053 416 
Q 2822 169 2531 39 
Q 2241 -91 1919 -91 
Q 1547 -91 1294 64 
Q 1041 219 916 525 
L 556 -1331 
L -19 -1331 
L 922 3500 
L 1497 3500 
L 1394 2969 
z
" transform="scale(0.015625)"/>
      </defs>
      <use xlink:href="#DejaVuSans-Oblique-78" transform="translate(0 0.3125)"/>
      <use xlink:href="#DejaVuSans-Oblique-73" transform="translate(59.179688 -16.09375) scale(0.7)"/>
      <use xlink:href="#DejaVuSans-Oblique-74" transform="translate(95.649414 -16.09375) scale(0.7)"/>
      <use xlink:href="#DejaVuSans-Oblique-65" transform="translate(123.095703 -16.09375) scale(0.7)"/>
      <use xlink:href="#DejaVuSans-Oblique-70" transform="translate(166.162109 -16.09375) scale(0.7)"/>
     </g>
    </g>
   </g>
   <g id="PolyCollection_1">
    <defs>
     <path id="m8a6a3dad7c" d="M 111.681818 -219.620759 
L 111.681818 -178.2 
L 112.956373 -178.2 
L 114.230927 -178.2 
L 115.505482 -178.2 
L 116.780037 -178.2 
L 118.054591 -178.2 
L 119.329146 -178.2 
L 120.6037 -178.2 
L 121.878255 -178.2 
L 123.15281 -178.2 
L 124.427364 -178.2 
L 125.701919 -178.2 
L 126.976473 -178.2 
L 128.251028 -178.2 
L 129.525582 -178.2 
L 130.800137 -178.2 
L 132.074692 -178.2 
L 133.349246 -178.2 
L 134.623801 -178.2 
L 135.898355 -178.2 
L 137.17291 -178.2 
L 138.447465 -178.2 
L 139.722019 -178.2 
L 140.996574 -178.2 
L 142.271128 -178.182757 
L 143.545683 -178.140775 
L 144.820238 -178.103936 
L 146.094792 -178.067257 
L 147.369347 -178.005645 
L 148.643901 -177.9652 
L 149.918456 -177.919865 
L 151.193011 -177.87716 
L 152.467565 -177.818504 
L 153.74212 -177.776244 
L 155.016674 -177.726312 
L 156.291229 -177.674055 
L 157.565783 -177.60844 
L 158.840338 -177.54925 
L 160.114893 -177.462669 
L 161.389447 -177.382766 
L 162.664002 -177.303078 
L 163.938556 -177.231832 
L 165.213111 -177.148218 
L 166.487666 -177.051597 
L 167.76222 -176.970495 
L 169.036775 -176.905696 
L 170.311329 -176.805182 
L 171.585884 -176.72034 
L 172.860439 -176.621834 
L 174.134993 -176.513281 
L 175.409548 -176.388952 
L 176.684102 -176.29047 
L 177.958657 -176.176601 
L 179.233212 -176.043762 
L 180.507766 -175.944372 
L 181.782321 -175.804667 
L 183.056875 -175.661397 
L 184.33143 -175.49447 
L 185.605984 -175.331662 
L 186.880539 -175.163846 
L 188.155094 -174.986143 
L 189.429648 -174.720337 
L 190.704203 -174.521606 
L 191.978757 -174.355666 
L 193.253312 -174.163099 
L 194.527867 -173.925417 
L 195.802421 -173.672655 
L 197.076976 -173.455916 
L 198.35153 -173.209274 
L 199.626085 -172.87892 
L 200.90064 -172.581153 
L 202.175194 -172.260635 
L 203.449749 -171.892345 
L 204.724303 -171.561474 
L 205.998858 -171.230581 
L 207.273413 -170.935535 
L 208.547967 -170.551055 
L 209.822522 -170.13651 
L 211.097076 -169.684701 
L 212.371631 -169.296219 
L 213.646185 -168.850139 
L 214.92074 -168.381509 
L 216.195295 -167.824229 
L 217.469849 -167.282143 
L 218.744404 -166.71108 
L 220.018958 -166.109036 
L 221.293513 -165.439581 
L 222.568068 -164.737284 
L 223.842622 -164.069363 
L 225.117177 -163.211329 
L 226.391731 -162.364077 
L 227.666286 -161.598283 
L 228.940841 -160.672973 
L 230.215395 -159.701938 
L 231.48995 -158.7268 
L 232.764504 -157.703171 
L 234.039059 -156.620926 
L 235.313614 -155.462312 
L 236.588168 -154.374763 
L 237.862723 -153.193779 
L 239.137277 -152.021858 
L 240.411832 -150.660601 
L 241.686386 -149.299597 
L 242.960941 -147.894396 
L 244.235496 -146.440133 
L 245.51005 -145.085575 
L 246.784605 -143.617691 
L 248.059159 -142.066675 
L 249.333714 -140.590218 
L 250.608269 -139.362642 
L 251.882823 -138.370574 
L 253.157378 -137.751584 
L 254.431932 -137.312533 
L 255.706487 -137.080708 
L 256.981042 -136.900719 
L 258.255596 -136.811033 
L 259.530151 -136.769567 
L 260.804705 -136.748344 
L 262.07926 -136.737793 
L 263.353815 -136.734795 
L 264.628369 -136.734795 
L 265.902924 -136.734795 
L 267.177478 -136.734795 
L 268.452033 -136.734795 
L 269.726587 -136.734489 
L 271.001142 -136.734489 
L 272.275697 -136.734489 
L 273.550251 -136.734489 
L 274.824806 -136.734489 
L 276.09936 -136.734489 
L 277.373915 -136.734489 
L 278.64847 -136.734489 
L 279.923024 -136.734489 
L 281.197579 -136.734489 
L 282.472133 -136.734489 
L 283.746688 -136.734489 
L 285.021243 -136.734489 
L 286.295797 -136.734486 
L 287.570352 -136.734486 
L 288.844906 -136.734486 
L 290.119461 -136.734486 
L 291.394016 -136.734486 
L 292.66857 -136.734486 
L 293.943125 -136.734486 
L 295.217679 -136.734486 
L 296.492234 -136.734486 
L 297.766788 -136.734486 
L 299.041343 -136.734486 
L 300.315898 -136.734486 
L 301.590452 -136.734486 
L 302.865007 -136.734486 
L 304.139561 -136.734486 
L 305.414116 -136.734486 
L 306.688671 -136.734486 
L 307.963225 -136.734486 
L 309.23778 -136.734486 
L 310.512334 -136.734486 
L 311.786889 -136.734492 
L 313.061444 -136.734492 
L 314.335998 -136.734492 
L 315.610553 -136.734492 
L 316.885107 -136.734492 
L 318.159662 -136.734492 
L 319.434217 -136.734492 
L 320.708771 -136.734492 
L 321.983326 -136.734492 
L 323.25788 -136.734492 
L 324.532435 -136.734492 
L 325.806989 -136.734492 
L 327.081544 -136.734492 
L 328.356099 -136.734492 
L 329.630653 -136.734492 
L 330.905208 -136.734492 
L 332.179762 -136.734492 
L 333.454317 -136.734492 
L 334.728872 -136.734492 
L 336.003426 -136.734492 
L 337.277981 -136.734492 
L 338.552535 -136.734492 
L 339.82709 -136.734492 
L 341.101645 -136.734492 
L 342.376199 -136.734492 
L 343.650754 -136.734492 
L 344.925308 -136.734492 
L 346.199863 -136.734492 
L 347.474418 -136.734492 
L 348.748972 -136.734492 
L 350.023527 -136.734492 
L 351.298081 -136.734492 
L 352.572636 -136.734492 
L 353.84719 -136.734492 
L 355.121745 -136.734492 
L 356.3963 -136.734492 
L 357.670854 -136.734492 
L 358.945409 -136.734492 
L 360.219963 -136.734492 
L 361.494518 -136.734492 
L 362.769073 -136.73448 
L 364.043627 -136.73448 
L 365.318182 -136.73448 
L 365.318182 -178.2 
L 365.318182 -178.2 
L 364.043627 -178.2 
L 362.769073 -178.2 
L 361.494518 -178.2 
L 360.219963 -178.2 
L 358.945409 -178.2 
L 357.670854 -178.2 
L 356.3963 -178.2 
L 355.121745 -178.2 
L 353.84719 -178.2 
L 352.572636 -178.2 
L 351.298081 -178.2 
L 350.023527 -178.2 
L 348.748972 -178.2 
L 347.474418 -178.2 
L 346.199863 -178.2 
L 344.925308 -178.2 
L 343.650754 -178.2 
L 342.376199 -178.2 
L 341.101645 -178.225511 
L 339.82709 -178.262605 
L 338.552535 -178.305381 
L 337.277981 -178.336828 
L 336.003426 -178.386112 
L 334.728872 -178.418724 
L 333.454317 -178.45607 
L 332.179762 -178.49129 
L 330.905208 -178.526295 
L 329.630653 -178.571801 
L 328.356099 -178.625526 
L 327.081544 -178.674779 
L 325.806989 -178.724017 
L 324.532435 -178.763738 
L 323.25788 -178.820474 
L 321.983326 -178.886632 
L 320.708771 -178.951548 
L 319.434217 -179.014717 
L 318.159662 -179.067564 
L 316.885107 -179.136896 
L 315.610553 -179.200214 
L 314.335998 -179.289512 
L 313.061444 -179.354366 
L 311.786889 -179.435065 
L 310.512334 -179.521651 
L 309.23778 -179.608488 
L 307.963225 -179.698723 
L 306.688671 -179.809231 
L 305.414116 -179.922141 
L 304.139561 -180.057424 
L 302.865007 -180.16411 
L 301.590452 -180.271492 
L 300.315898 -180.375879 
L 299.041343 -180.47807 
L 297.766788 -180.599496 
L 296.492234 -180.74343 
L 295.217679 -180.919023 
L 293.943125 -181.084453 
L 292.66857 -181.228552 
L 291.394016 -181.390042 
L 290.119461 -181.540748 
L 288.844906 -181.743723 
L 287.570352 -181.907998 
L 286.295797 -182.083027 
L 285.021243 -182.295465 
L 283.746688 -182.533153 
L 282.472133 -182.764458 
L 281.197579 -182.99184 
L 279.923024 -183.295788 
L 278.64847 -183.563113 
L 277.373915 -183.87274 
L 276.09936 -184.147636 
L 274.824806 -184.438672 
L 273.550251 -184.804341 
L 272.275697 -185.169752 
L 271.001142 -185.590483 
L 269.726587 -185.942525 
L 268.452033 -186.339821 
L 267.177478 -186.782791 
L 265.902924 -187.269071 
L 264.628369 -187.732672 
L 263.353815 -188.248244 
L 262.07926 -188.742703 
L 260.804705 -189.317425 
L 259.530151 -189.886933 
L 258.255596 -190.420091 
L 256.981042 -191.111019 
L 255.706487 -191.731963 
L 254.431932 -192.451697 
L 253.157378 -193.194517 
L 251.882823 -193.944648 
L 250.608269 -194.865065 
L 249.333714 -195.885002 
L 248.059159 -196.698226 
L 246.784605 -197.610574 
L 245.51005 -198.519396 
L 244.235496 -199.634335 
L 242.960941 -200.729217 
L 241.686386 -201.878276 
L 240.411832 -203.083824 
L 239.137277 -204.470222 
L 237.862723 -205.741727 
L 236.588168 -207.04587 
L 235.313614 -208.402781 
L 234.039059 -209.886685 
L 232.764504 -211.367216 
L 231.48995 -212.693238 
L 230.215395 -214.307493 
L 228.940841 -215.813159 
L 227.666286 -216.921374 
L 226.391731 -217.871863 
L 225.117177 -218.523726 
L 223.842622 -219.02209 
L 222.568068 -219.203596 
L 221.293513 -219.360303 
L 220.018958 -219.449365 
L 218.744404 -219.567927 
L 217.469849 -219.588487 
L 216.195295 -219.606896 
L 214.92074 -219.6189 
L 213.646185 -219.6189 
L 212.371631 -219.620762 
L 211.097076 -219.620762 
L 209.822522 -219.620762 
L 208.547967 -219.620762 
L 207.273413 -219.620762 
L 205.998858 -219.620762 
L 204.724303 -219.620762 
L 203.449749 -219.620762 
L 202.175194 -219.620762 
L 200.90064 -219.620762 
L 199.626085 -219.620762 
L 198.35153 -219.620762 
L 197.076976 -219.620762 
L 195.802421 -219.620762 
L 194.527867 -219.620762 
L 193.253312 -219.620762 
L 191.978757 -219.620759 
L 190.704203 -219.620759 
L 189.429648 -219.620759 
L 188.155094 -219.620759 
L 186.880539 -219.620759 
L 185.605984 -219.620759 
L 184.33143 -219.620759 
L 183.056875 -219.620759 
L 181.782321 -219.620759 
L 180.507766 -219.620759 
L 179.233212 -219.620759 
L 177.958657 -219.620759 
L 176.684102 -219.620759 
L 175.409548 -219.620759 
L 174.134993 -219.620759 
L 172.860439 -219.620759 
L 171.585884 -219.620759 
L 170.311329 -219.620759 
L 169.036775 -219.620759 
L 167.76222 -219.620759 
L 166.487666 -219.620759 
L 165.213111 -219.620759 
L 163.938556 -219.620759 
L 162.664002 -219.620759 
L 161.389447 -219.620759 
L 160.114893 -219.620759 
L 158.840338 -219.620759 
L 157.565783 -219.620759 
L 156.291229 -219.620759 
L 155.016674 -219.620759 
L 153.74212 -219.620759 
L 152.467565 -219.620759 
L 151.193011 -219.620759 
L 149.918456 -219.620759 
L 148.643901 -219.620759 
L 147.369347 -219.620759 
L 146.094792 -219.620759 
L 144.820238 -219.620759 
L 143.545683 -219.620759 
L 142.271128 -219.620759 
L 140.996574 -219.620759 
L 139.722019 -219.620759 
L 138.447465 -219.620759 
L 137.17291 -219.620759 
L 135.898355 -219.620759 
L 134.623801 -219.620759 
L 133.349246 -219.620759 
L 132.074692 -219.620759 
L 130.800137 -219.620759 
L 129.525582 -219.620759 
L 128.251028 -219.620759 
L 126.976473 -219.620759 
L 125.701919 -219.620759 
L 124.427364 -219.620759 
L 123.15281 -219.620759 
L 121.878255 -219.620759 
L 120.6037 -219.620759 
L 119.329146 -219.620759 
L 118.054591 -219.620759 
L 116.780037 -219.620759 
L 115.505482 -219.620759 
L 114.230927 -219.620759 
L 112.956373 -219.620759 
L 111.681818 -219.620759 
z
" style="stroke: #0000ff; stroke-opacity: 0.3"/>
    </defs>
    <g clip-path="url(#p2145463a53)">
     <use xlink:href="#m8a6a3dad7c" x="0" y="360" style="fill: #0000ff; fill-opacity: 0.3; stroke: #0000ff; stroke-opacity: 0.3"/>
    </g>
   </g>
   <g id="line2d_15">
    <path d="M 111.681818 171.870714 
L 165.213111 172.038365 
L 191.978757 172.320475 
L 204.724303 172.623724 
L 214.92074 173.040415 
L 221.293513 173.570047 
L 223.842622 173.936028 
L 226.391731 174.521676 
L 228.940841 175.403529 
L 231.48995 176.661809 
L 234.039059 178.235644 
L 245.51005 186.21452 
L 248.059159 187.62968 
L 250.608269 188.691045 
L 253.157378 189.412386 
L 255.706487 189.875931 
L 259.530151 190.292735 
L 265.902924 190.690761 
L 276.09936 191.090645 
L 291.394016 191.395955 
L 313.061444 191.604626 
L 365.318182 191.762717 
L 365.318182 191.762717 
" clip-path="url(#p2145463a53)" style="fill: none; stroke: #0000ff; stroke-width: 1.5; stroke-linecap: round"/>
   </g>
   <g id="line2d_16">
    <path d="M 111.681818 163.382761 
L 133.349246 163.711558 
L 148.643901 164.035584 
L 169.036775 164.67685 
L 185.605984 165.485626 
L 195.802421 166.212289 
L 202.175194 166.792583 
L 211.097076 167.871133 
L 214.92074 168.419642 
L 220.018958 169.470483 
L 222.568068 170.127762 
L 225.117177 170.998734 
L 227.666286 172.173704 
L 230.215395 173.739718 
L 232.764504 175.717048 
L 235.313614 178.063516 
L 245.51005 187.91167 
L 248.059159 189.866417 
L 250.608269 191.419528 
L 253.157378 192.594342 
L 255.706487 193.460142 
L 259.530151 194.39788 
L 264.628369 195.330883 
L 273.550251 196.547682 
L 279.923024 197.200764 
L 290.119461 197.992001 
L 309.23778 198.989054 
L 325.806989 199.500322 
L 356.3963 200.088465 
L 365.318182 200.232069 
L 365.318182 200.232069 
" clip-path="url(#p2145463a53)" style="fill: none; stroke-dasharray: 5.55,2.4; stroke-dashoffset: 0; stroke: #0000ff; stroke-width: 1.5"/>
   </g>
   <g id="LineCollection_1">
    <path d="M 111.681818 181.8 
L 365.318182 181.8 
" clip-path="url(#p2145463a53)" style="fill: none; stroke-dasharray: 5.55,2.4; stroke-dashoffset: 0; stroke: #808080; stroke-width: 1.5"/>
   </g>
   <g id="LineCollection_2">
    <path d="M 239.136791 307.8 
L 239.136791 55.8 
" clip-path="url(#p2145463a53)" style="fill: none; stroke-dasharray: 5.55,2.4; stroke-dashoffset: 0; stroke: #008000; stroke-width: 1.5"/>
   </g>
   <g id="patch_3">
    <path d="M 99 320.4 
L 99 43.2 
" style="fill: none; stroke: #ffffff; stroke-width: 0.8; stroke-linejoin: miter; stroke-linecap: square"/>
   </g>
   <g id="patch_4">
    <path d="M 378 320.4 
L 378 43.2 
" style="fill: none; stroke: #ffffff; stroke-width: 0.8; stroke-linejoin: miter; stroke-linecap: square"/>
   </g>
   <g id="patch_5">
    <path d="M 99 320.4 
L 378 320.4 
" style="fill: none; stroke: #ffffff; stroke-width: 0.8; stroke-linejoin: miter; stroke-linecap: square"/>
   </g>
   <g id="patch_6">
    <path d="M 99 43.2 
L 378 43.2 
" style="fill: none; stroke: #ffffff; stroke-width: 0.8; stroke-linejoin: miter; stroke-linecap: square"/>
   </g>
   <g id="legend_1">
    <g id="patch_7">
     <path d="M 106 315.4 
L 244.8 315.4 
Q 246.8 315.4 246.8 313.4 
L 246.8 240.109375 
Q 246.8 238.109375 244.8 238.109375 
L 106 238.109375 
Q 104 238.109375 104 240.109375 
L 104 313.4 
Q 104 315.4 106 315.4 
z
" style="fill: #eaeaf2; opacity: 0.8; stroke: #cccccc; stroke-linejoin: miter"/>
    </g>
    <g id="line2d_17">
     <path d="M 108 246.209375 
L 118 246.209375 
L 128 246.209375 
" style="fill: none; stroke: #0000ff; stroke-width: 1.5; stroke-linecap: round"/>
    </g>
    <g id="text_17">
     <!-- $E[x_{step}]$ for $P_1$ -->
     <g style="fill: #262626" transform="translate(136 249.709375) scale(0.1 -0.1)">
      <defs>
       <path id="DejaVuSans-Oblique-45" d="M 1081 4666 
L 4031 4666 
L 3928 4134 
L 1606 4134 
L 1338 2753 
L 3566 2753 
L 3463 2222 
L 1234 2222 
L 909 531 
L 3284 531 
L 3181 0 
L 172 0 
L 1081 4666 
z
" transform="scale(0.015625)"/>
       <path id="DejaVuSans-5b" d="M 550 4863 
L 1875 4863 
L 1875 4416 
L 1125 4416 
L 1125 -397 
L 1875 -397 
L 1875 -844 
L 550 -844 
L 550 4863 
z
" transform="scale(0.015625)"/>
       <path id="DejaVuSans-5d" d="M 1947 4863 
L 1947 -844 
L 622 -844 
L 622 -397 
L 1369 -397 
L 1369 4416 
L 622 4416 
L 622 4863 
L 1947 4863 
z
" transform="scale(0.015625)"/>
       <path id="ArialMT-20" transform="scale(0.015625)"/>
       <path id="ArialMT-66" d="M 556 0 
L 556 2881 
L 59 2881 
L 59 3319 
L 556 3319 
L 556 3672 
Q 556 4006 616 4169 
Q 697 4388 901 4523 
Q 1106 4659 1475 4659 
Q 1713 4659 2000 4603 
L 1916 4113 
Q 1741 4144 1584 4144 
Q 1328 4144 1222 4034 
Q 1116 3925 1116 3625 
L 1116 3319 
L 1763 3319 
L 1763 2881 
L 1116 2881 
L 1116 0 
L 556 0 
z
" transform="scale(0.015625)"/>
       <path id="ArialMT-6f" d="M 213 1659 
Q 213 2581 725 3025 
Q 1153 3394 1769 3394 
Q 2453 3394 2887 2945 
Q 3322 2497 3322 1706 
Q 3322 1066 3130 698 
Q 2938 331 2570 128 
Q 2203 -75 1769 -75 
Q 1072 -75 642 372 
Q 213 819 213 1659 
z
M 791 1659 
Q 791 1022 1069 705 
Q 1347 388 1769 388 
Q 2188 388 2466 706 
Q 2744 1025 2744 1678 
Q 2744 2294 2464 2611 
Q 2184 2928 1769 2928 
Q 1347 2928 1069 2612 
Q 791 2297 791 1659 
z
" transform="scale(0.015625)"/>
       <path id="ArialMT-72" d="M 416 0 
L 416 3319 
L 922 3319 
L 922 2816 
Q 1116 3169 1280 3281 
Q 1444 3394 1641 3394 
Q 1925 3394 2219 3213 
L 2025 2691 
Q 1819 2813 1613 2813 
Q 1428 2813 1281 2702 
Q 1134 2591 1072 2394 
Q 978 2094 978 1738 
L 978 0 
L 416 0 
z
" transform="scale(0.015625)"/>
       <path id="DejaVuSans-Oblique-50" d="M 1081 4666 
L 2541 4666 
Q 3178 4666 3512 4369 
Q 3847 4072 3847 3500 
Q 3847 2731 3353 2303 
Q 2859 1875 1966 1875 
L 1172 1875 
L 806 0 
L 172 0 
L 1081 4666 
z
M 1613 4147 
L 1275 2394 
L 2069 2394 
Q 2606 2394 2893 2669 
Q 3181 2944 3181 3456 
Q 3181 3784 2986 3965 
Q 2791 4147 2438 4147 
L 1613 4147 
z
" transform="scale(0.015625)"/>
       <path id="DejaVuSans-31" d="M 794 531 
L 1825 531 
L 1825 4091 
L 703 3866 
L 703 4441 
L 1819 4666 
L 2450 4666 
L 2450 531 
L 3481 531 
L 3481 0 
L 794 0 
L 794 531 
z
" transform="scale(0.015625)"/>
      </defs>
      <use xlink:href="#DejaVuSans-Oblique-45" transform="translate(0 0.015625)"/>
      <use xlink:href="#DejaVuSans-5b" transform="translate(63.183594 0.015625)"/>
      <use xlink:href="#DejaVuSans-Oblique-78" transform="translate(102.197266 0.015625)"/>
      <use xlink:href="#DejaVuSans-Oblique-73" transform="translate(161.376953 -16.390625) scale(0.7)"/>
      <use xlink:href="#DejaVuSans-Oblique-74" transform="translate(197.84668 -16.390625) scale(0.7)"/>
      <use xlink:href="#DejaVuSans-Oblique-65" transform="translate(225.292969 -16.390625) scale(0.7)"/>
      <use xlink:href="#DejaVuSans-Oblique-70" transform="translate(268.359375 -16.390625) scale(0.7)"/>
      <use xlink:href="#DejaVuSans-5d" transform="translate(315.527344 0.015625)"/>
      <use xlink:href="#ArialMT-20" transform="translate(354.541016 0.015625)"/>
      <use xlink:href="#ArialMT-66" transform="translate(382.324219 0.015625)"/>
      <use xlink:href="#ArialMT-6f" transform="translate(410.107422 0.015625)"/>
      <use xlink:href="#ArialMT-72" transform="translate(465.722656 0.015625)"/>
      <use xlink:href="#ArialMT-20" transform="translate(499.023438 0.015625)"/>
      <use xlink:href="#DejaVuSans-Oblique-50" transform="translate(526.806641 0.015625)"/>
      <use xlink:href="#DejaVuSans-31" transform="translate(587.109375 -16.390625) scale(0.7)"/>
     </g>
    </g>
    <g id="line2d_18">
     <path d="M 108 262.009375 
L 118 262.009375 
L 128 262.009375 
" style="fill: none; stroke-dasharray: 5.55,2.4; stroke-dashoffset: 0; stroke: #0000ff; stroke-width: 1.5"/>
    </g>
    <g id="text_18">
     <!-- $E[x_{step} | x_{step} \ne 0]$ for $P_1$ -->
     <g style="fill: #262626" transform="translate(136 265.509375) scale(0.1 -0.1)">
      <defs>
       <path id="DejaVuSans-7c" d="M 1344 4891 
L 1344 -1509 
L 813 -1509 
L 813 4891 
L 1344 4891 
z
" transform="scale(0.015625)"/>
       <path id="DejaVuSans-2260" d="M 678 2906 
L 3091 2906 
L 3891 3891 
L 4281 3572 
L 3738 2906 
L 4684 2906 
L 4684 2381 
L 3309 2381 
L 2700 1631 
L 4684 1631 
L 4684 1100 
L 2266 1100 
L 1459 122 
L 1069 441 
L 1613 1100 
L 678 1100 
L 678 1631 
L 2047 1631 
L 2656 2381 
L 678 2381 
L 678 2906 
z
" transform="scale(0.015625)"/>
       <path id="DejaVuSans-30" d="M 2034 4250 
Q 1547 4250 1301 3770 
Q 1056 3291 1056 2328 
Q 1056 1369 1301 889 
Q 1547 409 2034 409 
Q 2525 409 2770 889 
Q 3016 1369 3016 2328 
Q 3016 3291 2770 3770 
Q 2525 4250 2034 4250 
z
M 2034 4750 
Q 2819 4750 3233 4129 
Q 3647 3509 3647 2328 
Q 3647 1150 3233 529 
Q 2819 -91 2034 -91 
Q 1250 -91 836 529 
Q 422 1150 422 2328 
Q 422 3509 836 4129 
Q 1250 4750 2034 4750 
z
" transform="scale(0.015625)"/>
      </defs>
      <use xlink:href="#DejaVuSans-Oblique-45" transform="translate(0 0.578125)"/>
      <use xlink:href="#DejaVuSans-5b" transform="translate(63.183594 0.578125)"/>
      <use xlink:href="#DejaVuSans-Oblique-78" transform="translate(102.197266 0.578125)"/>
      <use xlink:href="#DejaVuSans-Oblique-73" transform="translate(161.376953 -15.828125) scale(0.7)"/>
      <use xlink:href="#DejaVuSans-Oblique-74" transform="translate(197.84668 -15.828125) scale(0.7)"/>
      <use xlink:href="#DejaVuSans-Oblique-65" transform="translate(225.292969 -15.828125) scale(0.7)"/>
      <use xlink:href="#DejaVuSans-Oblique-70" transform="translate(268.359375 -15.828125) scale(0.7)"/>
      <use xlink:href="#DejaVuSans-7c" transform="translate(315.527344 0.578125)"/>
      <use xlink:href="#DejaVuSans-Oblique-78" transform="translate(349.21875 0.578125)"/>
      <use xlink:href="#DejaVuSans-Oblique-73" transform="translate(408.398438 -15.828125) scale(0.7)"/>
      <use xlink:href="#DejaVuSans-Oblique-74" transform="translate(444.868164 -15.828125) scale(0.7)"/>
      <use xlink:href="#DejaVuSans-Oblique-65" transform="translate(472.314453 -15.828125) scale(0.7)"/>
      <use xlink:href="#DejaVuSans-Oblique-70" transform="translate(515.380859 -15.828125) scale(0.7)"/>
      <use xlink:href="#DejaVuSans-2260" transform="translate(582.03125 0.578125)"/>
      <use xlink:href="#DejaVuSans-30" transform="translate(685.302734 0.578125)"/>
      <use xlink:href="#DejaVuSans-5d" transform="translate(748.925781 0.578125)"/>
      <use xlink:href="#ArialMT-20" transform="translate(787.939453 0.578125)"/>
      <use xlink:href="#ArialMT-66" transform="translate(815.722656 0.578125)"/>
      <use xlink:href="#ArialMT-6f" transform="translate(843.505859 0.578125)"/>
      <use xlink:href="#ArialMT-72" transform="translate(899.121094 0.578125)"/>
      <use xlink:href="#ArialMT-20" transform="translate(932.421875 0.578125)"/>
      <use xlink:href="#DejaVuSans-Oblique-50" transform="translate(960.205078 0.578125)"/>
      <use xlink:href="#DejaVuSans-31" transform="translate(1020.507812 -15.828125) scale(0.7)"/>
     </g>
    </g>
    <g id="patch_8">
     <path d="M 108 280.767187 
L 128 280.767187 
L 128 273.767187 
L 108 273.767187 
z
" style="fill: #0000ff; fill-opacity: 0.3; stroke: #0000ff; stroke-opacity: 0.3; stroke-linejoin: miter"/>
    </g>
    <g id="text_19">
     <!-- 90% CI -->
     <g style="fill: #262626" transform="translate(136 280.767187) scale(0.1 -0.1)">
      <defs>
       <path id="ArialMT-39" d="M 350 1059 
L 891 1109 
Q 959 728 1153 556 
Q 1347 384 1650 384 
Q 1909 384 2104 503 
Q 2300 622 2425 820 
Q 2550 1019 2634 1356 
Q 2719 1694 2719 2044 
Q 2719 2081 2716 2156 
Q 2547 1888 2255 1720 
Q 1963 1553 1622 1553 
Q 1053 1553 659 1965 
Q 266 2378 266 3053 
Q 266 3750 677 4175 
Q 1088 4600 1706 4600 
Q 2153 4600 2523 4359 
Q 2894 4119 3086 3673 
Q 3278 3228 3278 2384 
Q 3278 1506 3087 986 
Q 2897 466 2520 194 
Q 2144 -78 1638 -78 
Q 1100 -78 759 220 
Q 419 519 350 1059 
z
M 2653 3081 
Q 2653 3566 2395 3850 
Q 2138 4134 1775 4134 
Q 1400 4134 1122 3828 
Q 844 3522 844 3034 
Q 844 2597 1108 2323 
Q 1372 2050 1759 2050 
Q 2150 2050 2401 2323 
Q 2653 2597 2653 3081 
z
" transform="scale(0.015625)"/>
       <path id="ArialMT-25" d="M 372 3481 
Q 372 3972 619 4315 
Q 866 4659 1334 4659 
Q 1766 4659 2048 4351 
Q 2331 4044 2331 3447 
Q 2331 2866 2045 2552 
Q 1759 2238 1341 2238 
Q 925 2238 648 2547 
Q 372 2856 372 3481 
z
M 1350 4272 
Q 1141 4272 1002 4090 
Q 863 3909 863 3425 
Q 863 2984 1003 2804 
Q 1144 2625 1350 2625 
Q 1563 2625 1702 2806 
Q 1841 2988 1841 3469 
Q 1841 3913 1700 4092 
Q 1559 4272 1350 4272 
z
M 1353 -169 
L 3859 4659 
L 4316 4659 
L 1819 -169 
L 1353 -169 
z
M 3334 1075 
Q 3334 1569 3581 1911 
Q 3828 2253 4300 2253 
Q 4731 2253 5014 1945 
Q 5297 1638 5297 1041 
Q 5297 459 5011 145 
Q 4725 -169 4303 -169 
Q 3888 -169 3611 142 
Q 3334 453 3334 1075 
z
M 4316 1866 
Q 4103 1866 3964 1684 
Q 3825 1503 3825 1019 
Q 3825 581 3965 400 
Q 4106 219 4313 219 
Q 4528 219 4667 400 
Q 4806 581 4806 1063 
Q 4806 1506 4665 1686 
Q 4525 1866 4316 1866 
z
" transform="scale(0.015625)"/>
       <path id="ArialMT-43" d="M 3763 1606 
L 4369 1453 
Q 4178 706 3683 314 
Q 3188 -78 2472 -78 
Q 1731 -78 1267 223 
Q 803 525 561 1097 
Q 319 1669 319 2325 
Q 319 3041 592 3573 
Q 866 4106 1370 4382 
Q 1875 4659 2481 4659 
Q 3169 4659 3637 4309 
Q 4106 3959 4291 3325 
L 3694 3184 
Q 3534 3684 3231 3912 
Q 2928 4141 2469 4141 
Q 1941 4141 1586 3887 
Q 1231 3634 1087 3207 
Q 944 2781 944 2328 
Q 944 1744 1114 1308 
Q 1284 872 1643 656 
Q 2003 441 2422 441 
Q 2931 441 3284 734 
Q 3638 1028 3763 1606 
z
" transform="scale(0.015625)"/>
       <path id="ArialMT-49" d="M 597 0 
L 597 4581 
L 1203 4581 
L 1203 0 
L 597 0 
z
" transform="scale(0.015625)"/>
      </defs>
      <use xlink:href="#ArialMT-39"/>
      <use xlink:href="#ArialMT-30" x="55.615234"/>
      <use xlink:href="#ArialMT-25" x="111.230469"/>
      <use xlink:href="#ArialMT-20" x="200.146484"/>
      <use xlink:href="#ArialMT-43" x="227.929688"/>
      <use xlink:href="#ArialMT-49" x="300.146484"/>
     </g>
    </g>
    <g id="line2d_19">
     <path d="M 108 291.4125 
L 128 291.4125 
" style="fill: none; stroke-dasharray: 5.55,2.4; stroke-dashoffset: 0; stroke: #808080; stroke-width: 1.5"/>
    </g>
    <g id="text_20">
     <!-- $x_{next} = x$ -->
     <g style="fill: #262626" transform="translate(136 294.9125) scale(0.1 -0.1)">
      <defs>
       <path id="DejaVuSans-Oblique-6e" d="M 3566 2113 
L 3156 0 
L 2578 0 
L 2988 2091 
Q 3016 2238 3031 2350 
Q 3047 2463 3047 2528 
Q 3047 2791 2881 2937 
Q 2716 3084 2419 3084 
Q 1956 3084 1622 2776 
Q 1288 2469 1184 1941 
L 800 0 
L 225 0 
L 903 3500 
L 1478 3500 
L 1363 2950 
Q 1603 3253 1940 3418 
Q 2278 3584 2650 3584 
Q 3113 3584 3367 3334 
Q 3622 3084 3622 2631 
Q 3622 2519 3608 2391 
Q 3594 2263 3566 2113 
z
" transform="scale(0.015625)"/>
       <path id="DejaVuSans-3d" d="M 678 2906 
L 4684 2906 
L 4684 2381 
L 678 2381 
L 678 2906 
z
M 678 1631 
L 4684 1631 
L 4684 1100 
L 678 1100 
L 678 1631 
z
" transform="scale(0.015625)"/>
      </defs>
      <use xlink:href="#DejaVuSans-Oblique-78" transform="translate(0 0.3125)"/>
      <use xlink:href="#DejaVuSans-Oblique-6e" transform="translate(59.179688 -16.09375) scale(0.7)"/>
      <use xlink:href="#DejaVuSans-Oblique-65" transform="translate(103.544922 -16.09375) scale(0.7)"/>
      <use xlink:href="#DejaVuSans-Oblique-78" transform="translate(146.611328 -16.09375) scale(0.7)"/>
      <use xlink:href="#DejaVuSans-Oblique-74" transform="translate(188.037109 -16.09375) scale(0.7)"/>
      <use xlink:href="#DejaVuSans-3d" transform="translate(237.700195 0.3125)"/>
      <use xlink:href="#DejaVuSans-Oblique-78" transform="translate(340.97168 0.3125)"/>
     </g>
    </g>
    <g id="line2d_20">
     <path d="M 108 305.7 
L 128 305.7 
" style="fill: none; stroke-dasharray: 5.55,2.4; stroke-dashoffset: 0; stroke: #008000; stroke-width: 1.5"/>
    </g>
    <g id="text_21">
     <!-- mode of target $\pi$ -->
     <g style="fill: #262626" transform="translate(136 309.2) scale(0.1 -0.1)">
      <defs>
       <path id="ArialMT-6d" d="M 422 0 
L 422 3319 
L 925 3319 
L 925 2853 
Q 1081 3097 1340 3245 
Q 1600 3394 1931 3394 
Q 2300 3394 2536 3241 
Q 2772 3088 2869 2813 
Q 3263 3394 3894 3394 
Q 4388 3394 4653 3120 
Q 4919 2847 4919 2278 
L 4919 0 
L 4359 0 
L 4359 2091 
Q 4359 2428 4304 2576 
Q 4250 2725 4106 2815 
Q 3963 2906 3769 2906 
Q 3419 2906 3187 2673 
Q 2956 2441 2956 1928 
L 2956 0 
L 2394 0 
L 2394 2156 
Q 2394 2531 2256 2718 
Q 2119 2906 1806 2906 
Q 1569 2906 1367 2781 
Q 1166 2656 1075 2415 
Q 984 2175 984 1722 
L 984 0 
L 422 0 
z
" transform="scale(0.015625)"/>
       <path id="ArialMT-64" d="M 2575 0 
L 2575 419 
Q 2259 -75 1647 -75 
Q 1250 -75 917 144 
Q 584 363 401 755 
Q 219 1147 219 1656 
Q 219 2153 384 2558 
Q 550 2963 881 3178 
Q 1213 3394 1622 3394 
Q 1922 3394 2156 3267 
Q 2391 3141 2538 2938 
L 2538 4581 
L 3097 4581 
L 3097 0 
L 2575 0 
z
M 797 1656 
Q 797 1019 1065 703 
Q 1334 388 1700 388 
Q 2069 388 2326 689 
Q 2584 991 2584 1609 
Q 2584 2291 2321 2609 
Q 2059 2928 1675 2928 
Q 1300 2928 1048 2622 
Q 797 2316 797 1656 
z
" transform="scale(0.015625)"/>
       <path id="ArialMT-65" d="M 2694 1069 
L 3275 997 
Q 3138 488 2766 206 
Q 2394 -75 1816 -75 
Q 1088 -75 661 373 
Q 234 822 234 1631 
Q 234 2469 665 2931 
Q 1097 3394 1784 3394 
Q 2450 3394 2872 2941 
Q 3294 2488 3294 1666 
Q 3294 1616 3291 1516 
L 816 1516 
Q 847 969 1125 678 
Q 1403 388 1819 388 
Q 2128 388 2347 550 
Q 2566 713 2694 1069 
z
M 847 1978 
L 2700 1978 
Q 2663 2397 2488 2606 
Q 2219 2931 1791 2931 
Q 1403 2931 1139 2672 
Q 875 2413 847 1978 
z
" transform="scale(0.015625)"/>
       <path id="ArialMT-74" d="M 1650 503 
L 1731 6 
Q 1494 -44 1306 -44 
Q 1000 -44 831 53 
Q 663 150 594 308 
Q 525 466 525 972 
L 525 2881 
L 113 2881 
L 113 3319 
L 525 3319 
L 525 4141 
L 1084 4478 
L 1084 3319 
L 1650 3319 
L 1650 2881 
L 1084 2881 
L 1084 941 
Q 1084 700 1114 631 
Q 1144 563 1211 522 
Q 1278 481 1403 481 
Q 1497 481 1650 503 
z
" transform="scale(0.015625)"/>
       <path id="ArialMT-61" d="M 2588 409 
Q 2275 144 1986 34 
Q 1697 -75 1366 -75 
Q 819 -75 525 192 
Q 231 459 231 875 
Q 231 1119 342 1320 
Q 453 1522 633 1644 
Q 813 1766 1038 1828 
Q 1203 1872 1538 1913 
Q 2219 1994 2541 2106 
Q 2544 2222 2544 2253 
Q 2544 2597 2384 2738 
Q 2169 2928 1744 2928 
Q 1347 2928 1158 2789 
Q 969 2650 878 2297 
L 328 2372 
Q 403 2725 575 2942 
Q 747 3159 1072 3276 
Q 1397 3394 1825 3394 
Q 2250 3394 2515 3294 
Q 2781 3194 2906 3042 
Q 3031 2891 3081 2659 
Q 3109 2516 3109 2141 
L 3109 1391 
Q 3109 606 3145 398 
Q 3181 191 3288 0 
L 2700 0 
Q 2613 175 2588 409 
z
M 2541 1666 
Q 2234 1541 1622 1453 
Q 1275 1403 1131 1340 
Q 988 1278 909 1158 
Q 831 1038 831 891 
Q 831 666 1001 516 
Q 1172 366 1500 366 
Q 1825 366 2078 508 
Q 2331 650 2450 897 
Q 2541 1088 2541 1459 
L 2541 1666 
z
" transform="scale(0.015625)"/>
       <path id="ArialMT-67" d="M 319 -275 
L 866 -356 
Q 900 -609 1056 -725 
Q 1266 -881 1628 -881 
Q 2019 -881 2231 -725 
Q 2444 -569 2519 -288 
Q 2563 -116 2559 434 
Q 2191 0 1641 0 
Q 956 0 581 494 
Q 206 988 206 1678 
Q 206 2153 378 2554 
Q 550 2956 876 3175 
Q 1203 3394 1644 3394 
Q 2231 3394 2613 2919 
L 2613 3319 
L 3131 3319 
L 3131 450 
Q 3131 -325 2973 -648 
Q 2816 -972 2473 -1159 
Q 2131 -1347 1631 -1347 
Q 1038 -1347 672 -1080 
Q 306 -813 319 -275 
z
M 784 1719 
Q 784 1066 1043 766 
Q 1303 466 1694 466 
Q 2081 466 2343 764 
Q 2606 1063 2606 1700 
Q 2606 2309 2336 2618 
Q 2066 2928 1684 2928 
Q 1309 2928 1046 2623 
Q 784 2319 784 1719 
z
" transform="scale(0.015625)"/>
       <path id="DejaVuSans-Oblique-3c0" d="M 584 3500 
L 3938 3500 
L 3825 2925 
L 3384 2925 
L 2966 775 
Q 2922 550 2981 450 
Q 3038 353 3209 353 
Q 3256 353 3325 363 
Q 3397 369 3419 372 
L 3338 -44 
Q 3222 -84 3103 -103 
Q 2981 -122 2866 -122 
Q 2491 -122 2388 81 
Q 2284 288 2391 838 
L 2797 2925 
L 1506 2925 
L 938 0 
L 350 0 
L 919 2925 
L 472 2925 
L 584 3500 
z
" transform="scale(0.015625)"/>
      </defs>
      <use xlink:href="#ArialMT-6d" transform="translate(0 0.203125)"/>
      <use xlink:href="#ArialMT-6f" transform="translate(83.300781 0.203125)"/>
      <use xlink:href="#ArialMT-64" transform="translate(138.916016 0.203125)"/>
      <use xlink:href="#ArialMT-65" transform="translate(194.53125 0.203125)"/>
      <use xlink:href="#ArialMT-20" transform="translate(250.146484 0.203125)"/>
      <use xlink:href="#ArialMT-6f" transform="translate(277.929688 0.203125)"/>
      <use xlink:href="#ArialMT-66" transform="translate(333.544922 0.203125)"/>
      <use xlink:href="#ArialMT-20" transform="translate(361.328125 0.203125)"/>
      <use xlink:href="#ArialMT-74" transform="translate(389.111328 0.203125)"/>
      <use xlink:href="#ArialMT-61" transform="translate(416.894531 0.203125)"/>
      <use xlink:href="#ArialMT-72" transform="translate(472.509766 0.203125)"/>
      <use xlink:href="#ArialMT-67" transform="translate(505.810547 0.203125)"/>
      <use xlink:href="#ArialMT-65" transform="translate(561.425781 0.203125)"/>
      <use xlink:href="#ArialMT-74" transform="translate(617.041016 0.203125)"/>
      <use xlink:href="#ArialMT-20" transform="translate(644.824219 0.203125)"/>
      <use xlink:href="#DejaVuSans-Oblique-3c0" transform="translate(672.607422 0.203125)"/>
     </g>
    </g>
   </g>
  </g>
  <g id="axes_2">
   <g id="patch_9">
    <path d="M 433.8 320.4 
L 712.8 320.4 
L 712.8 43.2 
L 433.8 43.2 
z
" style="fill: #eaeaf2"/>
   </g>
   <g id="matplotlib.axis_3">
    <g id="xtick_10">
     <g id="line2d_21">
      <path d="M 446.481818 320.4 
L 446.481818 43.2 
" clip-path="url(#p3a1a2a17e7)" style="fill: none; stroke: #ffffff; stroke-width: 0.8; stroke-linecap: round"/>
     </g>
     <g id="text_22">
      <!-- −10.0 -->
      <g style="fill: #262626" transform="translate(433.831037 334.557813) scale(0.1 -0.1)">
       <use xlink:href="#ArialMT-2212"/>
       <use xlink:href="#ArialMT-31" x="58.398438"/>
       <use xlink:href="#ArialMT-30" x="114.013672"/>
       <use xlink:href="#ArialMT-2e" x="169.628906"/>
       <use xlink:href="#ArialMT-30" x="197.412109"/>
      </g>
     </g>
    </g>
    <g id="xtick_11">
     <g id="line2d_22">
      <path d="M 478.345561 320.4 
L 478.345561 43.2 
" clip-path="url(#p3a1a2a17e7)" style="fill: none; stroke: #ffffff; stroke-width: 0.8; stroke-linecap: round"/>
     </g>
     <g id="text_23">
      <!-- −7.5 -->
      <g style="fill: #262626" transform="translate(468.475249 334.557813) scale(0.1 -0.1)">
       <use xlink:href="#ArialMT-2212"/>
       <use xlink:href="#ArialMT-37" x="58.398438"/>
       <use xlink:href="#ArialMT-2e" x="114.013672"/>
       <use xlink:href="#ArialMT-35" x="141.796875"/>
      </g>
     </g>
    </g>
    <g id="xtick_12">
     <g id="line2d_23">
      <path d="M 510.209305 320.4 
L 510.209305 43.2 
" clip-path="url(#p3a1a2a17e7)" style="fill: none; stroke: #ffffff; stroke-width: 0.8; stroke-linecap: round"/>
     </g>
     <g id="text_24">
      <!-- −5.0 -->
      <g style="fill: #262626" transform="translate(500.338992 334.557813) scale(0.1 -0.1)">
       <use xlink:href="#ArialMT-2212"/>
       <use xlink:href="#ArialMT-35" x="58.398438"/>
       <use xlink:href="#ArialMT-2e" x="114.013672"/>
       <use xlink:href="#ArialMT-30" x="141.796875"/>
      </g>
     </g>
    </g>
    <g id="xtick_13">
     <g id="line2d_24">
      <path d="M 542.073048 320.4 
L 542.073048 43.2 
" clip-path="url(#p3a1a2a17e7)" style="fill: none; stroke: #ffffff; stroke-width: 0.8; stroke-linecap: round"/>
     </g>
     <g id="text_25">
      <!-- −2.5 -->
      <g style="fill: #262626" transform="translate(532.202735 334.557813) scale(0.1 -0.1)">
       <use xlink:href="#ArialMT-2212"/>
       <use xlink:href="#ArialMT-32" x="58.398438"/>
       <use xlink:href="#ArialMT-2e" x="114.013672"/>
       <use xlink:href="#ArialMT-35" x="141.796875"/>
      </g>
     </g>
    </g>
    <g id="xtick_14">
     <g id="line2d_25">
      <path d="M 573.936791 320.4 
L 573.936791 43.2 
" clip-path="url(#p3a1a2a17e7)" style="fill: none; stroke: #ffffff; stroke-width: 0.8; stroke-linecap: round"/>
     </g>
     <g id="text_26">
      <!-- 0.0 -->
      <g style="fill: #262626" transform="translate(566.986791 334.557813) scale(0.1 -0.1)">
       <use xlink:href="#ArialMT-30"/>
       <use xlink:href="#ArialMT-2e" x="55.615234"/>
       <use xlink:href="#ArialMT-30" x="83.398438"/>
      </g>
     </g>
    </g>
    <g id="xtick_15">
     <g id="line2d_26">
      <path d="M 605.800534 320.4 
L 605.800534 43.2 
" clip-path="url(#p3a1a2a17e7)" style="fill: none; stroke: #ffffff; stroke-width: 0.8; stroke-linecap: round"/>
     </g>
     <g id="text_27">
      <!-- 2.5 -->
      <g style="fill: #262626" transform="translate(598.850534 334.557813) scale(0.1 -0.1)">
       <use xlink:href="#ArialMT-32"/>
       <use xlink:href="#ArialMT-2e" x="55.615234"/>
       <use xlink:href="#ArialMT-35" x="83.398438"/>
      </g>
     </g>
    </g>
    <g id="xtick_16">
     <g id="line2d_27">
      <path d="M 637.664278 320.4 
L 637.664278 43.2 
" clip-path="url(#p3a1a2a17e7)" style="fill: none; stroke: #ffffff; stroke-width: 0.8; stroke-linecap: round"/>
     </g>
     <g id="text_28">
      <!-- 5.0 -->
      <g style="fill: #262626" transform="translate(630.714278 334.557813) scale(0.1 -0.1)">
       <use xlink:href="#ArialMT-35"/>
       <use xlink:href="#ArialMT-2e" x="55.615234"/>
       <use xlink:href="#ArialMT-30" x="83.398438"/>
      </g>
     </g>
    </g>
    <g id="xtick_17">
     <g id="line2d_28">
      <path d="M 669.528021 320.4 
L 669.528021 43.2 
" clip-path="url(#p3a1a2a17e7)" style="fill: none; stroke: #ffffff; stroke-width: 0.8; stroke-linecap: round"/>
     </g>
     <g id="text_29">
      <!-- 7.5 -->
      <g style="fill: #262626" transform="translate(662.578021 334.557813) scale(0.1 -0.1)">
       <use xlink:href="#ArialMT-37"/>
       <use xlink:href="#ArialMT-2e" x="55.615234"/>
       <use xlink:href="#ArialMT-35" x="83.398438"/>
      </g>
     </g>
    </g>
    <g id="xtick_18">
     <g id="line2d_29">
      <path d="M 701.391764 320.4 
L 701.391764 43.2 
" clip-path="url(#p3a1a2a17e7)" style="fill: none; stroke: #ffffff; stroke-width: 0.8; stroke-linecap: round"/>
     </g>
     <g id="text_30">
      <!-- 10.0 -->
      <g style="fill: #262626" transform="translate(691.661295 334.557813) scale(0.1 -0.1)">
       <use xlink:href="#ArialMT-31"/>
       <use xlink:href="#ArialMT-30" x="55.615234"/>
       <use xlink:href="#ArialMT-2e" x="111.230469"/>
       <use xlink:href="#ArialMT-30" x="139.013672"/>
      </g>
     </g>
    </g>
    <g id="text_31">
     <!-- $x$ -->
     <g style="fill: #262626" transform="translate(570.3 347.703125) scale(0.1 -0.1)">
      <use xlink:href="#DejaVuSans-Oblique-78" transform="translate(0 0.3125)"/>
     </g>
    </g>
   </g>
   <g id="matplotlib.axis_4">
    <g id="ytick_6">
     <g id="line2d_30">
      <path d="M 433.8 282.6 
L 712.8 282.6 
" clip-path="url(#p3a1a2a17e7)" style="fill: none; stroke: #ffffff; stroke-width: 0.8; stroke-linecap: round"/>
     </g>
    </g>
    <g id="ytick_7">
     <g id="line2d_31">
      <path d="M 433.8 232.2 
L 712.8 232.2 
" clip-path="url(#p3a1a2a17e7)" style="fill: none; stroke: #ffffff; stroke-width: 0.8; stroke-linecap: round"/>
     </g>
    </g>
    <g id="ytick_8">
     <g id="line2d_32">
      <path d="M 433.8 181.8 
L 712.8 181.8 
" clip-path="url(#p3a1a2a17e7)" style="fill: none; stroke: #ffffff; stroke-width: 0.8; stroke-linecap: round"/>
     </g>
    </g>
    <g id="ytick_9">
     <g id="line2d_33">
      <path d="M 433.8 131.4 
L 712.8 131.4 
" clip-path="url(#p3a1a2a17e7)" style="fill: none; stroke: #ffffff; stroke-width: 0.8; stroke-linecap: round"/>
     </g>
    </g>
    <g id="ytick_10">
     <g id="line2d_34">
      <path d="M 433.8 81 
L 712.8 81 
" clip-path="url(#p3a1a2a17e7)" style="fill: none; stroke: #ffffff; stroke-width: 0.8; stroke-linecap: round"/>
     </g>
    </g>
   </g>
   <g id="PolyCollection_2">
    <defs>
     <path id="m42bc348d0e" d="M 446.481818 -191.298462 
L 446.481818 -176.319535 
L 447.756373 -176.285415 
L 449.030927 -176.244294 
L 450.305482 -176.205914 
L 451.580037 -176.17549 
L 452.854591 -176.141252 
L 454.129146 -176.105122 
L 455.4037 -176.06946 
L 456.678255 -176.034535 
L 457.95281 -175.988697 
L 459.227364 -175.957854 
L 460.501919 -175.924624 
L 461.776473 -175.886522 
L 463.051028 -175.849508 
L 464.325582 -175.814688 
L 465.600137 -175.77037 
L 466.874692 -175.723024 
L 468.149246 -175.674932 
L 469.423801 -175.62739 
L 470.698355 -175.582898 
L 471.97291 -175.535287 
L 473.247465 -175.473367 
L 474.522019 -175.424831 
L 475.796574 -175.386687 
L 477.071128 -175.339506 
L 478.345683 -175.292873 
L 479.620238 -175.233069 
L 480.894792 -175.186112 
L 482.169347 -175.142474 
L 483.443901 -175.071298 
L 484.718456 -175.012822 
L 485.993011 -174.960779 
L 487.267565 -174.896491 
L 488.54212 -174.847311 
L 489.816674 -174.793136 
L 491.091229 -174.73384 
L 492.365783 -174.678803 
L 493.640338 -174.600961 
L 494.914893 -174.523129 
L 496.189447 -174.44805 
L 497.464002 -174.365518 
L 498.738556 -174.278846 
L 500.013111 -174.204868 
L 501.287666 -174.121734 
L 502.56222 -174.051031 
L 503.836775 -173.985348 
L 505.111329 -173.899894 
L 506.385884 -173.807033 
L 507.660439 -173.725345 
L 508.934993 -173.613688 
L 510.209548 -173.518177 
L 511.484102 -173.427149 
L 512.758657 -173.344251 
L 514.033212 -173.243519 
L 515.307766 -173.127003 
L 516.582321 -173.050993 
L 517.856875 -172.962297 
L 519.13143 -172.869585 
L 520.405984 -172.756472 
L 521.680539 -172.648627 
L 522.955094 -172.548475 
L 524.229648 -172.420079 
L 525.504203 -172.286689 
L 526.778757 -172.178894 
L 528.053312 -172.042008 
L 529.327867 -171.916972 
L 530.602421 -171.795589 
L 531.876976 -171.665532 
L 533.15153 -171.534744 
L 534.426085 -171.399515 
L 535.70064 -171.294823 
L 536.975194 -171.152118 
L 538.249749 -171.008442 
L 539.524303 -170.851651 
L 540.798858 -170.719286 
L 542.073413 -170.581593 
L 543.347967 -170.4517 
L 544.622522 -170.286724 
L 545.897076 -170.135833 
L 547.171631 -169.981495 
L 548.446185 -169.809234 
L 549.72074 -169.649792 
L 550.995295 -169.467804 
L 552.269849 -169.277093 
L 553.544404 -169.090388 
L 554.818958 -168.911154 
L 556.093513 -168.71778 
L 557.368068 -168.544139 
L 558.642622 -168.350627 
L 559.917177 -168.170881 
L 561.191731 -167.976436 
L 562.466286 -167.800274 
L 563.740841 -167.605463 
L 565.015395 -167.41416 
L 566.28995 -167.210892 
L 567.564504 -166.999298 
L 568.839059 -166.7969 
L 570.113614 -166.578015 
L 571.388168 -166.378015 
L 572.662723 -166.136 
L 573.937277 -165.893295 
L 575.211832 -165.643902 
L 576.486386 -165.393166 
L 577.760941 -165.177184 
L 579.035496 -165.101064 
L 580.31005 -165.087491 
L 581.584605 -165.087491 
L 582.859159 -165.087394 
L 584.133714 -165.087394 
L 585.408269 -165.087394 
L 586.682823 -165.087394 
L 587.957378 -165.087395 
L 589.231932 -165.087395 
L 590.506487 -165.087395 
L 591.781042 -165.087395 
L 593.055596 -165.087395 
L 594.330151 -165.087394 
L 595.604705 -165.087394 
L 596.87926 -165.087394 
L 598.153815 -165.087394 
L 599.428369 -165.087394 
L 600.702924 -165.087394 
L 601.977478 -165.087394 
L 603.252033 -165.087394 
L 604.526587 -165.087394 
L 605.801142 -165.087394 
L 607.075697 -165.087394 
L 608.350251 -165.087394 
L 609.624806 -165.087394 
L 610.89936 -165.087394 
L 612.173915 -165.087394 
L 613.44847 -165.087394 
L 614.723024 -165.087394 
L 615.997579 -165.087394 
L 617.272133 -165.087394 
L 618.546688 -165.087394 
L 619.821243 -165.087394 
L 621.095797 -165.087394 
L 622.370352 -165.087394 
L 623.644906 -165.087394 
L 624.919461 -165.087394 
L 626.194016 -165.087394 
L 627.46857 -165.087394 
L 628.743125 -165.087394 
L 630.017679 -165.087394 
L 631.292234 -165.087394 
L 632.566788 -165.0874 
L 633.841343 -165.0874 
L 635.115898 -165.0874 
L 636.390452 -165.0874 
L 637.665007 -165.0874 
L 638.939561 -165.0874 
L 640.214116 -165.0874 
L 641.488671 -165.0874 
L 642.763225 -165.0874 
L 644.03778 -165.0874 
L 645.312334 -165.0874 
L 646.586889 -165.0874 
L 647.861444 -165.0874 
L 649.135998 -165.0874 
L 650.410553 -165.0874 
L 651.685107 -165.0874 
L 652.959662 -165.0874 
L 654.234217 -165.0874 
L 655.508771 -165.0874 
L 656.783326 -165.0874 
L 658.05788 -165.0874 
L 659.332435 -165.0874 
L 660.606989 -165.0874 
L 661.881544 -165.0874 
L 663.156099 -165.0874 
L 664.430653 -165.0874 
L 665.705208 -165.0874 
L 666.979762 -165.0874 
L 668.254317 -165.0874 
L 669.528872 -165.0874 
L 670.803426 -165.0874 
L 672.077981 -165.0874 
L 673.352535 -165.0874 
L 674.62709 -165.0874 
L 675.901645 -165.0874 
L 677.176199 -165.0874 
L 678.450754 -165.0874 
L 679.725308 -165.0874 
L 680.999863 -165.0874 
L 682.274418 -165.0874 
L 683.548972 -165.087388 
L 684.823527 -165.087388 
L 686.098081 -165.087388 
L 687.372636 -165.087388 
L 688.64719 -165.087388 
L 689.921745 -165.087388 
L 691.1963 -165.087388 
L 692.470854 -165.087388 
L 693.745409 -165.087388 
L 695.019963 -165.087388 
L 696.294518 -165.087388 
L 697.569073 -165.087388 
L 698.843627 -165.087388 
L 700.118182 -165.087388 
L 700.118182 -180.125438 
L 700.118182 -180.125438 
L 698.843627 -180.160349 
L 697.569073 -180.189359 
L 696.294518 -180.227691 
L 695.019963 -180.26431 
L 693.745409 -180.296987 
L 692.470854 -180.333232 
L 691.1963 -180.365407 
L 689.921745 -180.408722 
L 688.64719 -180.451339 
L 687.372636 -180.501149 
L 686.098081 -180.547313 
L 684.823527 -180.593891 
L 683.548972 -180.641886 
L 682.274418 -180.675221 
L 680.999863 -180.708937 
L 679.725308 -180.758181 
L 678.450754 -180.806856 
L 677.176199 -180.848609 
L 675.901645 -180.898962 
L 674.62709 -180.954377 
L 673.352535 -181.008285 
L 672.077981 -181.06963 
L 670.803426 -181.12231 
L 669.528872 -181.162639 
L 668.254317 -181.212936 
L 666.979762 -181.269382 
L 665.705208 -181.321137 
L 664.430653 -181.37264 
L 663.156099 -181.439355 
L 661.881544 -181.496809 
L 660.606989 -181.551419 
L 659.332435 -181.617618 
L 658.05788 -181.673375 
L 656.783326 -181.747911 
L 655.508771 -181.819404 
L 654.234217 -181.887034 
L 652.959662 -181.941633 
L 651.685107 -181.995748 
L 650.410553 -182.058727 
L 649.135998 -182.133898 
L 647.861444 -182.229469 
L 646.586889 -182.299459 
L 645.312334 -182.378701 
L 644.03778 -182.471697 
L 642.763225 -182.542434 
L 641.488671 -182.611125 
L 640.214116 -182.683152 
L 638.939561 -182.766364 
L 637.665007 -182.864684 
L 636.390452 -182.945857 
L 635.115898 -183.03833 
L 633.841343 -183.123448 
L 632.566788 -183.223791 
L 631.292234 -183.320772 
L 630.017679 -183.435508 
L 628.743125 -183.550185 
L 627.46857 -183.676803 
L 626.194016 -183.796624 
L 624.919461 -183.905766 
L 623.644906 -183.999365 
L 622.370352 -184.103313 
L 621.095797 -184.205774 
L 619.821243 -184.30721 
L 618.546688 -184.417822 
L 617.272133 -184.527982 
L 615.997579 -184.649562 
L 614.723024 -184.77371 
L 613.44847 -184.916613 
L 612.173915 -185.055719 
L 610.89936 -185.190302 
L 609.624806 -185.329616 
L 608.350251 -185.479933 
L 607.075697 -185.629493 
L 605.801142 -185.792231 
L 604.526587 -185.928558 
L 603.252033 -186.112806 
L 601.977478 -186.285509 
L 600.702924 -186.463478 
L 599.428369 -186.625249 
L 598.153815 -186.797827 
L 596.87926 -186.956681 
L 595.604705 -187.142764 
L 594.330151 -187.322892 
L 593.055596 -187.514645 
L 591.781042 -187.66846 
L 590.506487 -187.85319 
L 589.231932 -188.027332 
L 587.957378 -188.231059 
L 586.682823 -188.415585 
L 585.408269 -188.609688 
L 584.133714 -188.799649 
L 582.859159 -188.978722 
L 581.584605 -189.168686 
L 580.31005 -189.403654 
L 579.035496 -189.630552 
L 577.760941 -189.830241 
L 576.486386 -190.05503 
L 575.211832 -190.249653 
L 573.937277 -190.474989 
L 572.662723 -190.705364 
L 571.388168 -190.94326 
L 570.113614 -191.177402 
L 568.839059 -191.27247 
L 567.564504 -191.297336 
L 566.28995 -191.298454 
L 565.015395 -191.298454 
L 563.740841 -191.298454 
L 562.466286 -191.298454 
L 561.191731 -191.298454 
L 559.917177 -191.298454 
L 558.642622 -191.298454 
L 557.368068 -191.298454 
L 556.093513 -191.298454 
L 554.818958 -191.298454 
L 553.544404 -191.298454 
L 552.269849 -191.298454 
L 550.995295 -191.298454 
L 549.72074 -191.298454 
L 548.446185 -191.298454 
L 547.171631 -191.298454 
L 545.897076 -191.298454 
L 544.622522 -191.298454 
L 543.347967 -191.298454 
L 542.073413 -191.298454 
L 540.798858 -191.298457 
L 539.524303 -191.298457 
L 538.249749 -191.298457 
L 536.975194 -191.298457 
L 535.70064 -191.298457 
L 534.426085 -191.298457 
L 533.15153 -191.298457 
L 531.876976 -191.298457 
L 530.602421 -191.298457 
L 529.327867 -191.298457 
L 528.053312 -191.298457 
L 526.778757 -191.298457 
L 525.504203 -191.298457 
L 524.229648 -191.298457 
L 522.955094 -191.298457 
L 521.680539 -191.298457 
L 520.405984 -191.298457 
L 519.13143 -191.298457 
L 517.856875 -191.298457 
L 516.582321 -191.298457 
L 515.307766 -191.298451 
L 514.033212 -191.298451 
L 512.758657 -191.298451 
L 511.484102 -191.298451 
L 510.209548 -191.298451 
L 508.934993 -191.298451 
L 507.660439 -191.298451 
L 506.385884 -191.298451 
L 505.111329 -191.298451 
L 503.836775 -191.298451 
L 502.56222 -191.298451 
L 501.287666 -191.298451 
L 500.013111 -191.298451 
L 498.738556 -191.298451 
L 497.464002 -191.298451 
L 496.189447 -191.298451 
L 494.914893 -191.298451 
L 493.640338 -191.298451 
L 492.365783 -191.298451 
L 491.091229 -191.298451 
L 489.816674 -191.298451 
L 488.54212 -191.298451 
L 487.267565 -191.298451 
L 485.993011 -191.298451 
L 484.718456 -191.298451 
L 483.443901 -191.298451 
L 482.169347 -191.298451 
L 480.894792 -191.298451 
L 479.620238 -191.298451 
L 478.345683 -191.298451 
L 477.071128 -191.298451 
L 475.796574 -191.298451 
L 474.522019 -191.298451 
L 473.247465 -191.298451 
L 471.97291 -191.298451 
L 470.698355 -191.298451 
L 469.423801 -191.298451 
L 468.149246 -191.298451 
L 466.874692 -191.298451 
L 465.600137 -191.298451 
L 464.325582 -191.298462 
L 463.051028 -191.298462 
L 461.776473 -191.298462 
L 460.501919 -191.298462 
L 459.227364 -191.298462 
L 457.95281 -191.298462 
L 456.678255 -191.298462 
L 455.4037 -191.298462 
L 454.129146 -191.298462 
L 452.854591 -191.298462 
L 451.580037 -191.298462 
L 450.305482 -191.298462 
L 449.030927 -191.298462 
L 447.756373 -191.298462 
L 446.481818 -191.298462 
z
" style="stroke: #ffa500; stroke-opacity: 0.3"/>
    </defs>
    <g clip-path="url(#p3a1a2a17e7)">
     <use xlink:href="#m42bc348d0e" x="0" y="360" style="fill: #ffa500; fill-opacity: 0.3; stroke: #ffa500; stroke-opacity: 0.3"/>
    </g>
   </g>
   <g id="line2d_35">
    <path d="M 446.481818 178.877241 
L 500.013111 179.16856 
L 526.778757 179.523533 
L 547.171631 180.04061 
L 559.917177 180.577915 
L 568.839059 181.123954 
L 571.388168 181.395668 
L 577.760941 182.373124 
L 582.859159 182.752037 
L 593.055596 183.268231 
L 607.075697 183.770496 
L 621.095797 184.089453 
L 646.586889 184.424846 
L 678.450754 184.640187 
L 700.118182 184.727042 
L 700.118182 184.727042 
" clip-path="url(#p3a1a2a17e7)" style="fill: none; stroke: #ffa500; stroke-width: 1.5; stroke-linecap: round"/>
   </g>
   <g id="line2d_36">
    <path d="M 446.481818 165.66741 
L 475.796574 166.435717 
L 500.013111 167.358216 
L 516.582321 168.211829 
L 526.778757 168.888985 
L 538.249749 169.839319 
L 549.72074 171.083994 
L 554.818958 171.887688 
L 558.642622 172.703339 
L 561.191731 173.530868 
L 563.740841 174.669199 
L 566.28995 176.179084 
L 568.839059 177.980461 
L 575.211832 182.758655 
L 581.584605 187.447378 
L 584.133714 188.931721 
L 586.682823 190.094421 
L 589.231932 190.899454 
L 591.781042 191.483916 
L 595.604705 192.129902 
L 601.977478 192.972116 
L 612.173915 194.033182 
L 621.095797 194.740118 
L 635.115898 195.63458 
L 650.410553 196.372715 
L 670.803426 197.119297 
L 700.118182 197.924294 
L 700.118182 197.924294 
" clip-path="url(#p3a1a2a17e7)" style="fill: none; stroke-dasharray: 5.55,2.4; stroke-dashoffset: 0; stroke: #ffa500; stroke-width: 1.5"/>
   </g>
   <g id="LineCollection_3">
    <path d="M 446.481818 181.8 
L 700.118182 181.8 
" clip-path="url(#p3a1a2a17e7)" style="fill: none; stroke-dasharray: 5.55,2.4; stroke-dashoffset: 0; stroke: #808080; stroke-width: 1.5"/>
   </g>
   <g id="LineCollection_4">
    <path d="M 573.936791 307.8 
L 573.936791 55.8 
" clip-path="url(#p3a1a2a17e7)" style="fill: none; stroke-dasharray: 5.55,2.4; stroke-dashoffset: 0; stroke: #008000; stroke-width: 1.5"/>
   </g>
   <g id="patch_10">
    <path d="M 433.8 320.4 
L 433.8 43.2 
" style="fill: none; stroke: #ffffff; stroke-width: 0.8; stroke-linejoin: miter; stroke-linecap: square"/>
   </g>
   <g id="patch_11">
    <path d="M 712.8 320.4 
L 712.8 43.2 
" style="fill: none; stroke: #ffffff; stroke-width: 0.8; stroke-linejoin: miter; stroke-linecap: square"/>
   </g>
   <g id="patch_12">
    <path d="M 433.8 320.4 
L 712.8 320.4 
" style="fill: none; stroke: #ffffff; stroke-width: 0.8; stroke-linejoin: miter; stroke-linecap: square"/>
   </g>
   <g id="patch_13">
    <path d="M 433.8 43.2 
L 712.8 43.2 
" style="fill: none; stroke: #ffffff; stroke-width: 0.8; stroke-linejoin: miter; stroke-linecap: square"/>
   </g>
   <g id="legend_2">
    <g id="patch_14">
     <path d="M 440.8 315.4 
L 579.6 315.4 
Q 581.6 315.4 581.6 313.4 
L 581.6 240.109375 
Q 581.6 238.109375 579.6 238.109375 
L 440.8 238.109375 
Q 438.8 238.109375 438.8 240.109375 
L 438.8 313.4 
Q 438.8 315.4 440.8 315.4 
z
" style="fill: #eaeaf2; opacity: 0.8; stroke: #cccccc; stroke-linejoin: miter"/>
    </g>
    <g id="line2d_37">
     <path d="M 442.8 246.209375 
L 452.8 246.209375 
L 462.8 246.209375 
" style="fill: none; stroke: #ffa500; stroke-width: 1.5; stroke-linecap: round"/>
    </g>
    <g id="text_32">
     <!-- $E[x_{step}]$ for $P_2$ -->
     <g style="fill: #262626" transform="translate(470.8 249.709375) scale(0.1 -0.1)">
      <defs>
       <path id="DejaVuSans-32" d="M 1228 531 
L 3431 531 
L 3431 0 
L 469 0 
L 469 531 
Q 828 903 1448 1529 
Q 2069 2156 2228 2338 
Q 2531 2678 2651 2914 
Q 2772 3150 2772 3378 
Q 2772 3750 2511 3984 
Q 2250 4219 1831 4219 
Q 1534 4219 1204 4116 
Q 875 4013 500 3803 
L 500 4441 
Q 881 4594 1212 4672 
Q 1544 4750 1819 4750 
Q 2544 4750 2975 4387 
Q 3406 4025 3406 3419 
Q 3406 3131 3298 2873 
Q 3191 2616 2906 2266 
Q 2828 2175 2409 1742 
Q 1991 1309 1228 531 
z
" transform="scale(0.015625)"/>
      </defs>
      <use xlink:href="#DejaVuSans-Oblique-45" transform="translate(0 0.015625)"/>
      <use xlink:href="#DejaVuSans-5b" transform="translate(63.183594 0.015625)"/>
      <use xlink:href="#DejaVuSans-Oblique-78" transform="translate(102.197266 0.015625)"/>
      <use xlink:href="#DejaVuSans-Oblique-73" transform="translate(161.376953 -16.390625) scale(0.7)"/>
      <use xlink:href="#DejaVuSans-Oblique-74" transform="translate(197.84668 -16.390625) scale(0.7)"/>
      <use xlink:href="#DejaVuSans-Oblique-65" transform="translate(225.292969 -16.390625) scale(0.7)"/>
      <use xlink:href="#DejaVuSans-Oblique-70" transform="translate(268.359375 -16.390625) scale(0.7)"/>
      <use xlink:href="#DejaVuSans-5d" transform="translate(315.527344 0.015625)"/>
      <use xlink:href="#ArialMT-20" transform="translate(354.541016 0.015625)"/>
      <use xlink:href="#ArialMT-66" transform="translate(382.324219 0.015625)"/>
      <use xlink:href="#ArialMT-6f" transform="translate(410.107422 0.015625)"/>
      <use xlink:href="#ArialMT-72" transform="translate(465.722656 0.015625)"/>
      <use xlink:href="#ArialMT-20" transform="translate(499.023438 0.015625)"/>
      <use xlink:href="#DejaVuSans-Oblique-50" transform="translate(526.806641 0.015625)"/>
      <use xlink:href="#DejaVuSans-32" transform="translate(587.109375 -16.390625) scale(0.7)"/>
     </g>
    </g>
    <g id="line2d_38">
     <path d="M 442.8 262.009375 
L 452.8 262.009375 
L 462.8 262.009375 
" style="fill: none; stroke-dasharray: 5.55,2.4; stroke-dashoffset: 0; stroke: #ffa500; stroke-width: 1.5"/>
    </g>
    <g id="text_33">
     <!-- $E[x_{step} | x_{step} \ne 0]$ for $P_2$ -->
     <g style="fill: #262626" transform="translate(470.8 265.509375) scale(0.1 -0.1)">
      <use xlink:href="#DejaVuSans-Oblique-45" transform="translate(0 0.578125)"/>
      <use xlink:href="#DejaVuSans-5b" transform="translate(63.183594 0.578125)"/>
      <use xlink:href="#DejaVuSans-Oblique-78" transform="translate(102.197266 0.578125)"/>
      <use xlink:href="#DejaVuSans-Oblique-73" transform="translate(161.376953 -15.828125) scale(0.7)"/>
      <use xlink:href="#DejaVuSans-Oblique-74" transform="translate(197.84668 -15.828125) scale(0.7)"/>
      <use xlink:href="#DejaVuSans-Oblique-65" transform="translate(225.292969 -15.828125) scale(0.7)"/>
      <use xlink:href="#DejaVuSans-Oblique-70" transform="translate(268.359375 -15.828125) scale(0.7)"/>
      <use xlink:href="#DejaVuSans-7c" transform="translate(315.527344 0.578125)"/>
      <use xlink:href="#DejaVuSans-Oblique-78" transform="translate(349.21875 0.578125)"/>
      <use xlink:href="#DejaVuSans-Oblique-73" transform="translate(408.398438 -15.828125) scale(0.7)"/>
      <use xlink:href="#DejaVuSans-Oblique-74" transform="translate(444.868164 -15.828125) scale(0.7)"/>
      <use xlink:href="#DejaVuSans-Oblique-65" transform="translate(472.314453 -15.828125) scale(0.7)"/>
      <use xlink:href="#DejaVuSans-Oblique-70" transform="translate(515.380859 -15.828125) scale(0.7)"/>
      <use xlink:href="#DejaVuSans-2260" transform="translate(582.03125 0.578125)"/>
      <use xlink:href="#DejaVuSans-30" transform="translate(685.302734 0.578125)"/>
      <use xlink:href="#DejaVuSans-5d" transform="translate(748.925781 0.578125)"/>
      <use xlink:href="#ArialMT-20" transform="translate(787.939453 0.578125)"/>
      <use xlink:href="#ArialMT-66" transform="translate(815.722656 0.578125)"/>
      <use xlink:href="#ArialMT-6f" transform="translate(843.505859 0.578125)"/>
      <use xlink:href="#ArialMT-72" transform="translate(899.121094 0.578125)"/>
      <use xlink:href="#ArialMT-20" transform="translate(932.421875 0.578125)"/>
      <use xlink:href="#DejaVuSans-Oblique-50" transform="translate(960.205078 0.578125)"/>
      <use xlink:href="#DejaVuSans-32" transform="translate(1020.507812 -15.828125) scale(0.7)"/>
     </g>
    </g>
    <g id="patch_15">
     <path d="M 442.8 280.767187 
L 462.8 280.767187 
L 462.8 273.767187 
L 442.8 273.767187 
z
" style="fill: #ffa500; fill-opacity: 0.3; stroke: #ffa500; stroke-opacity: 0.3; stroke-linejoin: miter"/>
    </g>
    <g id="text_34">
     <!-- 90% CI -->
     <g style="fill: #262626" transform="translate(470.8 280.767187) scale(0.1 -0.1)">
      <use xlink:href="#ArialMT-39"/>
      <use xlink:href="#ArialMT-30" x="55.615234"/>
      <use xlink:href="#ArialMT-25" x="111.230469"/>
      <use xlink:href="#ArialMT-20" x="200.146484"/>
      <use xlink:href="#ArialMT-43" x="227.929688"/>
      <use xlink:href="#ArialMT-49" x="300.146484"/>
     </g>
    </g>
    <g id="line2d_39">
     <path d="M 442.8 291.4125 
L 462.8 291.4125 
" style="fill: none; stroke-dasharray: 5.55,2.4; stroke-dashoffset: 0; stroke: #808080; stroke-width: 1.5"/>
    </g>
    <g id="text_35">
     <!-- $x_{next} = x$ -->
     <g style="fill: #262626" transform="translate(470.8 294.9125) scale(0.1 -0.1)">
      <use xlink:href="#DejaVuSans-Oblique-78" transform="translate(0 0.3125)"/>
      <use xlink:href="#DejaVuSans-Oblique-6e" transform="translate(59.179688 -16.09375) scale(0.7)"/>
      <use xlink:href="#DejaVuSans-Oblique-65" transform="translate(103.544922 -16.09375) scale(0.7)"/>
      <use xlink:href="#DejaVuSans-Oblique-78" transform="translate(146.611328 -16.09375) scale(0.7)"/>
      <use xlink:href="#DejaVuSans-Oblique-74" transform="translate(188.037109 -16.09375) scale(0.7)"/>
      <use xlink:href="#DejaVuSans-3d" transform="translate(237.700195 0.3125)"/>
      <use xlink:href="#DejaVuSans-Oblique-78" transform="translate(340.97168 0.3125)"/>
     </g>
    </g>
    <g id="line2d_40">
     <path d="M 442.8 305.7 
L 462.8 305.7 
" style="fill: none; stroke-dasharray: 5.55,2.4; stroke-dashoffset: 0; stroke: #008000; stroke-width: 1.5"/>
    </g>
    <g id="text_36">
     <!-- mode of target $\pi$ -->
     <g style="fill: #262626" transform="translate(470.8 309.2) scale(0.1 -0.1)">
      <use xlink:href="#ArialMT-6d" transform="translate(0 0.203125)"/>
      <use xlink:href="#ArialMT-6f" transform="translate(83.300781 0.203125)"/>
      <use xlink:href="#ArialMT-64" transform="translate(138.916016 0.203125)"/>
      <use xlink:href="#ArialMT-65" transform="translate(194.53125 0.203125)"/>
      <use xlink:href="#ArialMT-20" transform="translate(250.146484 0.203125)"/>
      <use xlink:href="#ArialMT-6f" transform="translate(277.929688 0.203125)"/>
      <use xlink:href="#ArialMT-66" transform="translate(333.544922 0.203125)"/>
      <use xlink:href="#ArialMT-20" transform="translate(361.328125 0.203125)"/>
      <use xlink:href="#ArialMT-74" transform="translate(389.111328 0.203125)"/>
      <use xlink:href="#ArialMT-61" transform="translate(416.894531 0.203125)"/>
      <use xlink:href="#ArialMT-72" transform="translate(472.509766 0.203125)"/>
      <use xlink:href="#ArialMT-67" transform="translate(505.810547 0.203125)"/>
      <use xlink:href="#ArialMT-65" transform="translate(561.425781 0.203125)"/>
      <use xlink:href="#ArialMT-74" transform="translate(617.041016 0.203125)"/>
      <use xlink:href="#ArialMT-20" transform="translate(644.824219 0.203125)"/>
      <use xlink:href="#DejaVuSans-Oblique-3c0" transform="translate(672.607422 0.203125)"/>
     </g>
    </g>
   </g>
  </g>
 </g>
 <defs>
  <clipPath id="p2145463a53">
   <rect x="99" y="43.2" width="279" height="277.2"/>
  </clipPath>
  <clipPath id="p3a1a2a17e7">
   <rect x="433.8" y="43.2" width="279" height="277.2"/>
  </clipPath>
 </defs>
</svg>
