<?xml version="1.0" encoding="utf-8" standalone="no"?>
<!DOCTYPE svg PUBLIC "-//W3C//DTD SVG 1.1//EN"
  "http://www.w3.org/Graphics/SVG/1.1/DTD/svg11.dtd">
<svg xmlns:xlink="http://www.w3.org/1999/xlink" width="460.8pt" height="345.6pt" viewBox="0 0 460.8 345.6" xmlns="http://www.w3.org/2000/svg" version="1.1">
 <metadata>
  <rdf:RDF xmlns:dc="http://purl.org/dc/elements/1.1/" xmlns:cc="http://creativecommons.org/ns#" xmlns:rdf="http://www.w3.org/1999/02/22-rdf-syntax-ns#">
   <cc:Work>
    <dc:type rdf:resource="http://purl.org/dc/dcmitype/StillImage"/>
    <dc:date>2025-03-10T11:00:45.897295</dc:date>
    <dc:format>image/svg+xml</dc:format>
    <dc:creator>
     <cc:Agent>
      <dc:title>Matplotlib v3.9.4, https://matplotlib.org/</dc:title>
     </cc:Agent>
    </dc:creator>
   </cc:Work>
  </rdf:RDF>
 </metadata>
 <defs>
  <style type="text/css">*{stroke-linejoin: round; stroke-linecap: butt}</style>
 </defs>
 <g id="figure_1">
  <g id="patch_1">
   <path d="M 0 345.6 
L 460.8 345.6 
L 460.8 0 
L 0 0 
z
" style="fill: #ffffff"/>
  </g>
  <g id="axes_1">
   <g id="patch_2">
    <path d="M 57.6 307.584 
L 414.72 307.584 
L 414.72 41.472 
L 57.6 41.472 
z
" style="fill: #eaeaf2"/>
   </g>
   <g id="matplotlib.axis_1">
    <g id="xtick_1">
     <g id="line2d_1">
      <path d="M 73.832727 307.584 
L 73.832727 41.472 
" clip-path="url(#p86bcb9be65)" style="fill: none; stroke: #ffffff; stroke-width: 0.8; stroke-linecap: round"/>
     </g>
     <g id="text_1">
      <!-- −10.0 -->
      <g style="fill: #262626" transform="translate(61.181946 321.741812) scale(0.1 -0.1)">
       <defs>
        <path id="ArialMT-2212" d="M 3381 1997 
L 356 1997 
L 356 2522 
L 3381 2522 
L 3381 1997 
z
" transform="scale(0.015625)"/>
        <path id="ArialMT-31" d="M 2384 0 
L 1822 0 
L 1822 3584 
Q 1619 3391 1289 3197 
Q 959 3003 697 2906 
L 697 3450 
Q 1169 3672 1522 3987 
Q 1875 4303 2022 4600 
L 2384 4600 
L 2384 0 
z
" transform="scale(0.015625)"/>
        <path id="ArialMT-30" d="M 266 2259 
Q 266 3072 433 3567 
Q 600 4063 929 4331 
Q 1259 4600 1759 4600 
Q 2128 4600 2406 4451 
Q 2684 4303 2865 4023 
Q 3047 3744 3150 3342 
Q 3253 2941 3253 2259 
Q 3253 1453 3087 958 
Q 2922 463 2592 192 
Q 2263 -78 1759 -78 
Q 1097 -78 719 397 
Q 266 969 266 2259 
z
M 844 2259 
Q 844 1131 1108 757 
Q 1372 384 1759 384 
Q 2147 384 2411 759 
Q 2675 1134 2675 2259 
Q 2675 3391 2411 3762 
Q 2147 4134 1753 4134 
Q 1366 4134 1134 3806 
Q 844 3388 844 2259 
z
" transform="scale(0.015625)"/>
        <path id="ArialMT-2e" d="M 581 0 
L 581 641 
L 1222 641 
L 1222 0 
L 581 0 
z
" transform="scale(0.015625)"/>
       </defs>
       <use xlink:href="#ArialMT-2212"/>
       <use xlink:href="#ArialMT-31" x="58.398438"/>
       <use xlink:href="#ArialMT-30" x="114.013672"/>
       <use xlink:href="#ArialMT-2e" x="169.628906"/>
       <use xlink:href="#ArialMT-30" x="197.412109"/>
      </g>
     </g>
    </g>
    <g id="xtick_2">
     <g id="line2d_2">
      <path d="M 114.618319 307.584 
L 114.618319 41.472 
" clip-path="url(#p86bcb9be65)" style="fill: none; stroke: #ffffff; stroke-width: 0.8; stroke-linecap: round"/>
     </g>
     <g id="text_2">
      <!-- −7.5 -->
      <g style="fill: #262626" transform="translate(104.748006 321.741812) scale(0.1 -0.1)">
       <defs>
        <path id="ArialMT-37" d="M 303 3981 
L 303 4522 
L 3269 4522 
L 3269 4084 
Q 2831 3619 2401 2847 
Q 1972 2075 1738 1259 
Q 1569 684 1522 0 
L 944 0 
Q 953 541 1156 1306 
Q 1359 2072 1739 2783 
Q 2119 3494 2547 3981 
L 303 3981 
z
" transform="scale(0.015625)"/>
        <path id="ArialMT-35" d="M 266 1200 
L 856 1250 
Q 922 819 1161 601 
Q 1400 384 1738 384 
Q 2144 384 2425 690 
Q 2706 997 2706 1503 
Q 2706 1984 2436 2262 
Q 2166 2541 1728 2541 
Q 1456 2541 1237 2417 
Q 1019 2294 894 2097 
L 366 2166 
L 809 4519 
L 3088 4519 
L 3088 3981 
L 1259 3981 
L 1013 2750 
Q 1425 3038 1878 3038 
Q 2478 3038 2890 2622 
Q 3303 2206 3303 1553 
Q 3303 931 2941 478 
Q 2500 -78 1738 -78 
Q 1113 -78 717 272 
Q 322 622 266 1200 
z
" transform="scale(0.015625)"/>
       </defs>
       <use xlink:href="#ArialMT-2212"/>
       <use xlink:href="#ArialMT-37" x="58.398438"/>
       <use xlink:href="#ArialMT-2e" x="114.013672"/>
       <use xlink:href="#ArialMT-35" x="141.796875"/>
      </g>
     </g>
    </g>
    <g id="xtick_3">
     <g id="line2d_3">
      <path d="M 155.40391 307.584 
L 155.40391 41.472 
" clip-path="url(#p86bcb9be65)" style="fill: none; stroke: #ffffff; stroke-width: 0.8; stroke-linecap: round"/>
     </g>
     <g id="text_3">
      <!-- −5.0 -->
      <g style="fill: #262626" transform="translate(145.533597 321.741812) scale(0.1 -0.1)">
       <use xlink:href="#ArialMT-2212"/>
       <use xlink:href="#ArialMT-35" x="58.398438"/>
       <use xlink:href="#ArialMT-2e" x="114.013672"/>
       <use xlink:href="#ArialMT-30" x="141.796875"/>
      </g>
     </g>
    </g>
    <g id="xtick_4">
     <g id="line2d_4">
      <path d="M 196.189501 307.584 
L 196.189501 41.472 
" clip-path="url(#p86bcb9be65)" style="fill: none; stroke: #ffffff; stroke-width: 0.8; stroke-linecap: round"/>
     </g>
     <g id="text_4">
      <!-- −2.5 -->
      <g style="fill: #262626" transform="translate(186.319189 321.741812) scale(0.1 -0.1)">
       <defs>
        <path id="ArialMT-32" d="M 3222 541 
L 3222 0 
L 194 0 
Q 188 203 259 391 
Q 375 700 629 1000 
Q 884 1300 1366 1694 
Q 2113 2306 2375 2664 
Q 2638 3022 2638 3341 
Q 2638 3675 2398 3904 
Q 2159 4134 1775 4134 
Q 1369 4134 1125 3890 
Q 881 3647 878 3216 
L 300 3275 
Q 359 3922 746 4261 
Q 1134 4600 1788 4600 
Q 2447 4600 2831 4234 
Q 3216 3869 3216 3328 
Q 3216 3053 3103 2787 
Q 2991 2522 2730 2228 
Q 2469 1934 1863 1422 
Q 1356 997 1212 845 
Q 1069 694 975 541 
L 3222 541 
z
" transform="scale(0.015625)"/>
       </defs>
       <use xlink:href="#ArialMT-2212"/>
       <use xlink:href="#ArialMT-32" x="58.398438"/>
       <use xlink:href="#ArialMT-2e" x="114.013672"/>
       <use xlink:href="#ArialMT-35" x="141.796875"/>
      </g>
     </g>
    </g>
    <g id="xtick_5">
     <g id="line2d_5">
      <path d="M 236.975093 307.584 
L 236.975093 41.472 
" clip-path="url(#p86bcb9be65)" style="fill: none; stroke: #ffffff; stroke-width: 0.8; stroke-linecap: round"/>
     </g>
     <g id="text_5">
      <!-- 0.0 -->
      <g style="fill: #262626" transform="translate(230.025093 321.741812) scale(0.1 -0.1)">
       <use xlink:href="#ArialMT-30"/>
       <use xlink:href="#ArialMT-2e" x="55.615234"/>
       <use xlink:href="#ArialMT-30" x="83.398438"/>
      </g>
     </g>
    </g>
    <g id="xtick_6">
     <g id="line2d_6">
      <path d="M 277.760684 307.584 
L 277.760684 41.472 
" clip-path="url(#p86bcb9be65)" style="fill: none; stroke: #ffffff; stroke-width: 0.8; stroke-linecap: round"/>
     </g>
     <g id="text_6">
      <!-- 2.5 -->
      <g style="fill: #262626" transform="translate(270.810684 321.741812) scale(0.1 -0.1)">
       <use xlink:href="#ArialMT-32"/>
       <use xlink:href="#ArialMT-2e" x="55.615234"/>
       <use xlink:href="#ArialMT-35" x="83.398438"/>
      </g>
     </g>
    </g>
    <g id="xtick_7">
     <g id="line2d_7">
      <path d="M 318.546275 307.584 
L 318.546275 41.472 
" clip-path="url(#p86bcb9be65)" style="fill: none; stroke: #ffffff; stroke-width: 0.8; stroke-linecap: round"/>
     </g>
     <g id="text_7">
      <!-- 5.0 -->
      <g style="fill: #262626" transform="translate(311.596275 321.741812) scale(0.1 -0.1)">
       <use xlink:href="#ArialMT-35"/>
       <use xlink:href="#ArialMT-2e" x="55.615234"/>
       <use xlink:href="#ArialMT-30" x="83.398438"/>
      </g>
     </g>
    </g>
    <g id="xtick_8">
     <g id="line2d_8">
      <path d="M 359.331867 307.584 
L 359.331867 41.472 
" clip-path="url(#p86bcb9be65)" style="fill: none; stroke: #ffffff; stroke-width: 0.8; stroke-linecap: round"/>
     </g>
     <g id="text_8">
      <!-- 7.5 -->
      <g style="fill: #262626" transform="translate(352.381867 321.741812) scale(0.1 -0.1)">
       <use xlink:href="#ArialMT-37"/>
       <use xlink:href="#ArialMT-2e" x="55.615234"/>
       <use xlink:href="#ArialMT-35" x="83.398438"/>
      </g>
     </g>
    </g>
    <g id="xtick_9">
     <g id="line2d_9">
      <path d="M 400.117458 307.584 
L 400.117458 41.472 
" clip-path="url(#p86bcb9be65)" style="fill: none; stroke: #ffffff; stroke-width: 0.8; stroke-linecap: round"/>
     </g>
     <g id="text_9">
      <!-- 10.0 -->
      <g style="fill: #262626" transform="translate(390.386989 321.741812) scale(0.1 -0.1)">
       <use xlink:href="#ArialMT-31"/>
       <use xlink:href="#ArialMT-30" x="55.615234"/>
       <use xlink:href="#ArialMT-2e" x="111.230469"/>
       <use xlink:href="#ArialMT-30" x="139.013672"/>
      </g>
     </g>
    </g>
    <g id="text_10">
     <!-- $x$ -->
     <g style="fill: #262626" transform="translate(233.16 334.887125) scale(0.1 -0.1)">
      <defs>
       <path id="DejaVuSans-Oblique-78" d="M 3841 3500 
L 2234 1784 
L 3219 0 
L 2559 0 
L 1819 1388 
L 531 0 
L -166 0 
L 1556 1844 
L 641 3500 
L 1300 3500 
L 1972 2234 
L 3144 3500 
L 3841 3500 
z
" transform="scale(0.015625)"/>
      </defs>
      <use xlink:href="#DejaVuSans-Oblique-78" transform="translate(0 0.3125)"/>
     </g>
    </g>
   </g>
   <g id="matplotlib.axis_2">
    <g id="ytick_1">
     <g id="line2d_10">
      <path d="M 57.6 271.296 
L 414.72 271.296 
" clip-path="url(#p86bcb9be65)" style="fill: none; stroke: #ffffff; stroke-width: 0.8; stroke-linecap: round"/>
     </g>
     <g id="text_11">
      <!-- −4 -->
      <g style="fill: #262626" transform="translate(39.198437 274.874906) scale(0.1 -0.1)">
       <defs>
        <path id="ArialMT-34" d="M 2069 0 
L 2069 1097 
L 81 1097 
L 81 1613 
L 2172 4581 
L 2631 4581 
L 2631 1613 
L 3250 1613 
L 3250 1097 
L 2631 1097 
L 2631 0 
L 2069 0 
z
M 2069 1613 
L 2069 3678 
L 634 1613 
L 2069 1613 
z
" transform="scale(0.015625)"/>
       </defs>
       <use xlink:href="#ArialMT-2212"/>
       <use xlink:href="#ArialMT-34" x="58.398438"/>
      </g>
     </g>
    </g>
    <g id="ytick_2">
     <g id="line2d_11">
      <path d="M 57.6 222.912 
L 414.72 222.912 
" clip-path="url(#p86bcb9be65)" style="fill: none; stroke: #ffffff; stroke-width: 0.8; stroke-linecap: round"/>
     </g>
     <g id="text_12">
      <!-- −2 -->
      <g style="fill: #262626" transform="translate(39.198437 226.490906) scale(0.1 -0.1)">
       <use xlink:href="#ArialMT-2212"/>
       <use xlink:href="#ArialMT-32" x="58.398438"/>
      </g>
     </g>
    </g>
    <g id="ytick_3">
     <g id="line2d_12">
      <path d="M 57.6 174.528 
L 414.72 174.528 
" clip-path="url(#p86bcb9be65)" style="fill: none; stroke: #ffffff; stroke-width: 0.8; stroke-linecap: round"/>
     </g>
     <g id="text_13">
      <!-- 0 -->
      <g style="fill: #262626" transform="translate(45.039062 178.106906) scale(0.1 -0.1)">
       <use xlink:href="#ArialMT-30"/>
      </g>
     </g>
    </g>
    <g id="ytick_4">
     <g id="line2d_13">
      <path d="M 57.6 126.144 
L 414.72 126.144 
" clip-path="url(#p86bcb9be65)" style="fill: none; stroke: #ffffff; stroke-width: 0.8; stroke-linecap: round"/>
     </g>
     <g id="text_14">
      <!-- 2 -->
      <g style="fill: #262626" transform="translate(45.039062 129.722906) scale(0.1 -0.1)">
       <use xlink:href="#ArialMT-32"/>
      </g>
     </g>
    </g>
    <g id="ytick_5">
     <g id="line2d_14">
      <path d="M 57.6 77.76 
L 414.72 77.76 
" clip-path="url(#p86bcb9be65)" style="fill: none; stroke: #ffffff; stroke-width: 0.8; stroke-linecap: round"/>
     </g>
     <g id="text_15">
      <!-- 4 -->
      <g style="fill: #262626" transform="translate(45.039062 81.338906) scale(0.1 -0.1)">
       <use xlink:href="#ArialMT-34"/>
      </g>
     </g>
    </g>
    <g id="text_16">
     <!-- $x_{step}$ -->
     <g style="fill: #262626" transform="translate(32.098437 185.228) rotate(-90) scale(0.1 -0.1)">
      <defs>
       <path id="DejaVuSans-Oblique-73" d="M 3200 3397 
L 3091 2853 
Q 2863 2978 2609 3040 
Q 2356 3103 2088 3103 
Q 1634 3103 1373 2948 
Q 1113 2794 1113 2528 
Q 1113 2219 1719 2053 
Q 1766 2041 1788 2034 
L 1972 1978 
Q 2547 1819 2739 1644 
Q 2931 1469 2931 1166 
Q 2931 609 2489 259 
Q 2047 -91 1331 -91 
Q 1053 -91 747 -37 
Q 441 16 72 128 
L 184 722 
Q 500 559 806 475 
Q 1113 391 1394 391 
Q 1816 391 2080 572 
Q 2344 753 2344 1031 
Q 2344 1331 1650 1516 
L 1591 1531 
L 1394 1581 
Q 956 1697 753 1886 
Q 550 2075 550 2369 
Q 550 2928 970 3256 
Q 1391 3584 2113 3584 
Q 2397 3584 2667 3537 
Q 2938 3491 3200 3397 
z
" transform="scale(0.015625)"/>
       <path id="DejaVuSans-Oblique-74" d="M 2706 3500 
L 2619 3053 
L 1472 3053 
L 1100 1153 
Q 1081 1047 1072 975 
Q 1063 903 1063 863 
Q 1063 663 1183 572 
Q 1303 481 1569 481 
L 2150 481 
L 2053 0 
L 1503 0 
Q 991 0 739 200 
Q 488 400 488 806 
Q 488 878 497 964 
Q 506 1050 525 1153 
L 897 3053 
L 409 3053 
L 500 3500 
L 978 3500 
L 1172 4494 
L 1747 4494 
L 1556 3500 
L 2706 3500 
z
" transform="scale(0.015625)"/>
       <path id="DejaVuSans-Oblique-65" d="M 3078 2063 
Q 3088 2113 3092 2166 
Q 3097 2219 3097 2272 
Q 3097 2653 2873 2875 
Q 2650 3097 2266 3097 
Q 1838 3097 1509 2826 
Q 1181 2556 1013 2059 
L 3078 2063 
z
M 3578 1613 
L 903 1613 
Q 884 1494 878 1425 
Q 872 1356 872 1306 
Q 872 872 1139 634 
Q 1406 397 1894 397 
Q 2269 397 2603 481 
Q 2938 566 3225 728 
L 3116 159 
Q 2806 34 2476 -28 
Q 2147 -91 1806 -91 
Q 1078 -91 686 257 
Q 294 606 294 1247 
Q 294 1794 489 2264 
Q 684 2734 1063 3103 
Q 1306 3334 1642 3459 
Q 1978 3584 2356 3584 
Q 2950 3584 3301 3228 
Q 3653 2872 3653 2272 
Q 3653 2128 3634 1964 
Q 3616 1800 3578 1613 
z
" transform="scale(0.015625)"/>
       <path id="DejaVuSans-Oblique-70" d="M 3175 2156 
Q 3175 2616 2975 2859 
Q 2775 3103 2400 3103 
Q 2144 3103 1911 2972 
Q 1678 2841 1497 2591 
Q 1319 2344 1212 1994 
Q 1106 1644 1106 1300 
Q 1106 863 1306 627 
Q 1506 391 1875 391 
Q 2147 391 2380 519 
Q 2613 647 2778 891 
Q 2956 1147 3065 1494 
Q 3175 1841 3175 2156 
z
M 1394 2969 
Q 1625 3272 1939 3428 
Q 2253 3584 2638 3584 
Q 3175 3584 3472 3232 
Q 3769 2881 3769 2247 
Q 3769 1728 3584 1258 
Q 3400 788 3053 416 
Q 2822 169 2531 39 
Q 2241 -91 1919 -91 
Q 1547 -91 1294 64 
Q 1041 219 916 525 
L 556 -1331 
L -19 -1331 
L 922 3500 
L 1497 3500 
L 1394 2969 
z
" transform="scale(0.015625)"/>
      </defs>
      <use xlink:href="#DejaVuSans-Oblique-78" transform="translate(0 0.3125)"/>
      <use xlink:href="#DejaVuSans-Oblique-73" transform="translate(59.179688 -16.09375) scale(0.7)"/>
      <use xlink:href="#DejaVuSans-Oblique-74" transform="translate(95.649414 -16.09375) scale(0.7)"/>
      <use xlink:href="#DejaVuSans-Oblique-65" transform="translate(123.095703 -16.09375) scale(0.7)"/>
      <use xlink:href="#DejaVuSans-Oblique-70" transform="translate(166.162109 -16.09375) scale(0.7)"/>
     </g>
    </g>
   </g>
   <g id="PolyCollection_1">
    <defs>
     <path id="mc8b8a0622d" d="M 73.832727 -210.835929 
L 73.832727 -171.072 
L 75.464157 -171.072 
L 77.095587 -171.072 
L 78.727017 -171.072 
L 80.358447 -171.072 
L 81.989877 -171.072 
L 83.621307 -171.072 
L 85.252736 -171.072 
L 86.884166 -171.072 
L 88.515596 -171.072 
L 90.147026 -171.072 
L 91.778456 -171.072 
L 93.409886 -171.072 
L 95.041316 -171.072 
L 96.672746 -171.072 
L 98.304175 -171.072 
L 99.935605 -171.072 
L 101.567035 -171.072 
L 103.198465 -171.072 
L 104.829895 -171.072 
L 106.461325 -171.072 
L 108.092755 -171.072 
L 109.724185 -171.072 
L 111.355614 -171.072 
L 112.987044 -171.055447 
L 114.618474 -171.015144 
L 116.249904 -170.979779 
L 117.881334 -170.944567 
L 119.512764 -170.885419 
L 121.144194 -170.846592 
L 122.775624 -170.803071 
L 124.407053 -170.762073 
L 126.038483 -170.705764 
L 127.669913 -170.665194 
L 129.301343 -170.617259 
L 130.932773 -170.567092 
L 132.564203 -170.504102 
L 134.195633 -170.44728 
L 135.827063 -170.364162 
L 137.458492 -170.287455 
L 139.089922 -170.210955 
L 140.721352 -170.142558 
L 142.352782 -170.06229 
L 143.984212 -169.969533 
L 145.615642 -169.891675 
L 147.247072 -169.829468 
L 148.878502 -169.732975 
L 150.509931 -169.651527 
L 152.141361 -169.556961 
L 153.772791 -169.45275 
L 155.404221 -169.333394 
L 157.035651 -169.238851 
L 158.667081 -169.129537 
L 160.298511 -169.002012 
L 161.929941 -168.906597 
L 163.56137 -168.77248 
L 165.1928 -168.634941 
L 166.82423 -168.474691 
L 168.45566 -168.318395 
L 170.08709 -168.157292 
L 171.71852 -167.986697 
L 173.34995 -167.731524 
L 174.98138 -167.540742 
L 176.61281 -167.381439 
L 178.244239 -167.196575 
L 179.875669 -166.9684 
L 181.507099 -166.725749 
L 183.138529 -166.51768 
L 184.769959 -166.280903 
L 186.401389 -165.963763 
L 188.032819 -165.677907 
L 189.664249 -165.37021 
L 191.295678 -165.016651 
L 192.927108 -164.699015 
L 194.558538 -164.381358 
L 196.189968 -164.098114 
L 197.821398 -163.729013 
L 199.452828 -163.33105 
L 201.084258 -162.897313 
L 202.715688 -162.52437 
L 204.347117 -162.096134 
L 205.978547 -161.646249 
L 207.609977 -161.11126 
L 209.241407 -160.590857 
L 210.872837 -160.042637 
L 212.504267 -159.464674 
L 214.135697 -158.821998 
L 215.767127 -158.147793 
L 217.398556 -157.506588 
L 219.029986 -156.682875 
L 220.661416 -155.869514 
L 222.292846 -155.134352 
L 223.924276 -154.246054 
L 225.555706 -153.31386 
L 227.187136 -152.377728 
L 228.818566 -151.395044 
L 230.449995 -150.356089 
L 232.081425 -149.243819 
L 233.712855 -148.199773 
L 235.344285 -147.066028 
L 236.975715 -145.940984 
L 238.607145 -144.634177 
L 240.238575 -143.327613 
L 241.870005 -141.97862 
L 243.501434 -140.582527 
L 245.132864 -139.282152 
L 246.764294 -137.872983 
L 248.395724 -136.384008 
L 250.027154 -134.966609 
L 251.658584 -133.788136 
L 253.290014 -132.835751 
L 254.921444 -132.241521 
L 256.552873 -131.820031 
L 258.184303 -131.59748 
L 259.815733 -131.424691 
L 261.447163 -131.338591 
L 263.078593 -131.298785 
L 264.710023 -131.27841 
L 266.341453 -131.268282 
L 267.972883 -131.265403 
L 269.604312 -131.265403 
L 271.235742 -131.265403 
L 272.867172 -131.265403 
L 274.498602 -131.265403 
L 276.130032 -131.265109 
L 277.761462 -131.265109 
L 279.392892 -131.265109 
L 281.024322 -131.265109 
L 282.655751 -131.265109 
L 284.287181 -131.265109 
L 285.918611 -131.265109 
L 287.550041 -131.265109 
L 289.181471 -131.265109 
L 290.812901 -131.265109 
L 292.444331 -131.265109 
L 294.075761 -131.265109 
L 295.70719 -131.265109 
L 297.33862 -131.265106 
L 298.97005 -131.265106 
L 300.60148 -131.265106 
L 302.23291 -131.265106 
L 303.86434 -131.265106 
L 305.49577 -131.265106 
L 307.1272 -131.265106 
L 308.75863 -131.265106 
L 310.390059 -131.265106 
L 312.021489 -131.265106 
L 313.652919 -131.265106 
L 315.284349 -131.265106 
L 316.915779 -131.265106 
L 318.547209 -131.265106 
L 320.178639 -131.265106 
L 321.810069 -131.265106 
L 323.441498 -131.265106 
L 325.072928 -131.265106 
L 326.704358 -131.265106 
L 328.335788 -131.265106 
L 329.967218 -131.265112 
L 331.598648 -131.265112 
L 333.230078 -131.265112 
L 334.861508 -131.265112 
L 336.492937 -131.265112 
L 338.124367 -131.265112 
L 339.755797 -131.265112 
L 341.387227 -131.265112 
L 343.018657 -131.265112 
L 344.650087 -131.265112 
L 346.281517 -131.265112 
L 347.912947 -131.265112 
L 349.544376 -131.265112 
L 351.175806 -131.265112 
L 352.807236 -131.265112 
L 354.438666 -131.265112 
L 356.070096 -131.265112 
L 357.701526 -131.265112 
L 359.332956 -131.265112 
L 360.964386 -131.265112 
L 362.595815 -131.265112 
L 364.227245 -131.265112 
L 365.858675 -131.265112 
L 367.490105 -131.265112 
L 369.121535 -131.265112 
L 370.752965 -131.265112 
L 372.384395 -131.265112 
L 374.015825 -131.265112 
L 375.647254 -131.265112 
L 377.278684 -131.265112 
L 378.910114 -131.265112 
L 380.541544 -131.265112 
L 382.172974 -131.265112 
L 383.804404 -131.265112 
L 385.435834 -131.265112 
L 387.067264 -131.265112 
L 388.698693 -131.265112 
L 390.330123 -131.265112 
L 391.961553 -131.265112 
L 393.592983 -131.265112 
L 395.224413 -131.265101 
L 396.855843 -131.265101 
L 398.487273 -131.265101 
L 398.487273 -171.072 
L 398.487273 -171.072 
L 396.855843 -171.072 
L 395.224413 -171.072 
L 393.592983 -171.072 
L 391.961553 -171.072 
L 390.330123 -171.072 
L 388.698693 -171.072 
L 387.067264 -171.072 
L 385.435834 -171.072 
L 383.804404 -171.072 
L 382.172974 -171.072 
L 380.541544 -171.072 
L 378.910114 -171.072 
L 377.278684 -171.072 
L 375.647254 -171.072 
L 374.015825 -171.072 
L 372.384395 -171.072 
L 370.752965 -171.072 
L 369.121535 -171.072 
L 367.490105 -171.096491 
L 365.858675 -171.1321 
L 364.227245 -171.173166 
L 362.595815 -171.203354 
L 360.964386 -171.250667 
L 359.332956 -171.281975 
L 357.701526 -171.317827 
L 356.070096 -171.351638 
L 354.438666 -171.385244 
L 352.807236 -171.428929 
L 351.175806 -171.480505 
L 349.544376 -171.527788 
L 347.912947 -171.575056 
L 346.281517 -171.613189 
L 344.650087 -171.667655 
L 343.018657 -171.731166 
L 341.387227 -171.793486 
L 339.755797 -171.854128 
L 338.124367 -171.904862 
L 336.492937 -171.97142 
L 334.861508 -172.032206 
L 333.230078 -172.117931 
L 331.598648 -172.180191 
L 329.967218 -172.257662 
L 328.335788 -172.340785 
L 326.704358 -172.424148 
L 325.072928 -172.510774 
L 323.441498 -172.616862 
L 321.810069 -172.725255 
L 320.178639 -172.855127 
L 318.547209 -172.957545 
L 316.915779 -173.060632 
L 315.284349 -173.160844 
L 313.652919 -173.258947 
L 312.021489 -173.375517 
L 310.390059 -173.513693 
L 308.75863 -173.682262 
L 307.1272 -173.841075 
L 305.49577 -173.97941 
L 303.86434 -174.13444 
L 302.23291 -174.279118 
L 300.60148 -174.473974 
L 298.97005 -174.631678 
L 297.33862 -174.799706 
L 295.70719 -175.003647 
L 294.075761 -175.231827 
L 292.444331 -175.453879 
L 290.812901 -175.672166 
L 289.181471 -175.963956 
L 287.550041 -176.220589 
L 285.918611 -176.517831 
L 284.287181 -176.781731 
L 282.655751 -177.061125 
L 281.024322 -177.412168 
L 279.392892 -177.762962 
L 277.761462 -178.166863 
L 276.130032 -178.504824 
L 274.498602 -178.886228 
L 272.867172 -179.31148 
L 271.235742 -179.778309 
L 269.604312 -180.223365 
L 267.972883 -180.718314 
L 266.341453 -181.192995 
L 264.710023 -181.744728 
L 263.078593 -182.291455 
L 261.447163 -182.803288 
L 259.815733 -183.466579 
L 258.184303 -184.062684 
L 256.552873 -184.753629 
L 254.921444 -185.466737 
L 253.290014 -186.186862 
L 251.658584 -187.070462 
L 250.027154 -188.049602 
L 248.395724 -188.830297 
L 246.764294 -189.706151 
L 245.132864 -190.578621 
L 243.501434 -191.648961 
L 241.870005 -192.700049 
L 240.238575 -193.803145 
L 238.607145 -194.960471 
L 236.975715 -196.291414 
L 235.344285 -197.512058 
L 233.712855 -198.764036 
L 232.081425 -200.066669 
L 230.449995 -201.491218 
L 228.818566 -202.912527 
L 227.187136 -204.185509 
L 225.555706 -205.735193 
L 223.924276 -207.180632 
L 222.292846 -208.244519 
L 220.661416 -209.156988 
L 219.029986 -209.782777 
L 217.398556 -210.261206 
L 215.767127 -210.435452 
L 214.135697 -210.585891 
L 212.504267 -210.67139 
L 210.872837 -210.78521 
L 209.241407 -210.804947 
L 207.609977 -210.82262 
L 205.978547 -210.834144 
L 204.347117 -210.834144 
L 202.715688 -210.835932 
L 201.084258 -210.835932 
L 199.452828 -210.835932 
L 197.821398 -210.835932 
L 196.189968 -210.835932 
L 194.558538 -210.835932 
L 192.927108 -210.835932 
L 191.295678 -210.835932 
L 189.664249 -210.835932 
L 188.032819 -210.835932 
L 186.401389 -210.835932 
L 184.769959 -210.835932 
L 183.138529 -210.835932 
L 181.507099 -210.835932 
L 179.875669 -210.835932 
L 178.244239 -210.835932 
L 176.61281 -210.835929 
L 174.98138 -210.835929 
L 173.34995 -210.835929 
L 171.71852 -210.835929 
L 170.08709 -210.835929 
L 168.45566 -210.835929 
L 166.82423 -210.835929 
L 165.1928 -210.835929 
L 163.56137 -210.835929 
L 161.929941 -210.835929 
L 160.298511 -210.835929 
L 158.667081 -210.835929 
L 157.035651 -210.835929 
L 155.404221 -210.835929 
L 153.772791 -210.835929 
L 152.141361 -210.835929 
L 150.509931 -210.835929 
L 148.878502 -210.835929 
L 147.247072 -210.835929 
L 145.615642 -210.835929 
L 143.984212 -210.835929 
L 142.352782 -210.835929 
L 140.721352 -210.835929 
L 139.089922 -210.835929 
L 137.458492 -210.835929 
L 135.827063 -210.835929 
L 134.195633 -210.835929 
L 132.564203 -210.835929 
L 130.932773 -210.835929 
L 129.301343 -210.835929 
L 127.669913 -210.835929 
L 126.038483 -210.835929 
L 124.407053 -210.835929 
L 122.775624 -210.835929 
L 121.144194 -210.835929 
L 119.512764 -210.835929 
L 117.881334 -210.835929 
L 116.249904 -210.835929 
L 114.618474 -210.835929 
L 112.987044 -210.835929 
L 111.355614 -210.835929 
L 109.724185 -210.835929 
L 108.092755 -210.835929 
L 106.461325 -210.835929 
L 104.829895 -210.835929 
L 103.198465 -210.835929 
L 101.567035 -210.835929 
L 99.935605 -210.835929 
L 98.304175 -210.835929 
L 96.672746 -210.835929 
L 95.041316 -210.835929 
L 93.409886 -210.835929 
L 91.778456 -210.835929 
L 90.147026 -210.835929 
L 88.515596 -210.835929 
L 86.884166 -210.835929 
L 85.252736 -210.835929 
L 83.621307 -210.835929 
L 81.989877 -210.835929 
L 80.358447 -210.835929 
L 78.727017 -210.835929 
L 77.095587 -210.835929 
L 75.464157 -210.835929 
L 73.832727 -210.835929 
z
" style="stroke: #0000ff; stroke-opacity: 0.3"/>
    </defs>
    <g clip-path="url(#p86bcb9be65)">
     <use xlink:href="#mc8b8a0622d" x="0" y="345.6" style="fill: #0000ff; fill-opacity: 0.3; stroke: #0000ff; stroke-opacity: 0.3"/>
    </g>
   </g>
   <g id="line2d_15">
    <path d="M 73.832727 164.995886 
L 142.352782 165.15683 
L 178.244239 165.44714 
L 196.189968 165.794626 
L 209.241407 166.287531 
L 214.135697 166.627245 
L 217.398556 166.978587 
L 220.661416 167.540809 
L 223.924276 168.387388 
L 227.187136 169.595336 
L 230.449995 171.106219 
L 245.132864 178.765939 
L 248.395724 180.124493 
L 251.658584 181.143403 
L 254.921444 181.835891 
L 258.184303 182.280893 
L 263.078593 182.681025 
L 272.867172 183.12438 
L 285.918611 183.479401 
L 305.49577 183.757612 
L 333.230078 183.946172 
L 385.435834 184.074593 
L 398.487273 184.092209 
L 398.487273 184.092209 
" clip-path="url(#p86bcb9be65)" style="fill: none; stroke: #0000ff; stroke-width: 1.5; stroke-linecap: round"/>
   </g>
   <g id="line2d_16">
    <path d="M 73.832727 156.84745 
L 101.567035 157.163096 
L 122.775624 157.506492 
L 142.352782 157.957403 
L 165.1928 158.714761 
L 183.138529 159.660083 
L 196.189968 160.664621 
L 205.978547 161.682856 
L 212.504267 162.691664 
L 215.767127 163.322652 
L 219.029986 164.158785 
L 222.292846 165.286756 
L 225.555706 166.79013 
L 228.818566 168.688366 
L 232.081425 170.940976 
L 245.132864 180.395203 
L 248.395724 182.271761 
L 251.658584 183.762747 
L 253.290014 184.386267 
L 256.552873 185.331158 
L 259.815733 186.051503 
L 264.710023 186.862241 
L 271.235742 187.696043 
L 279.392892 188.534271 
L 287.550041 189.196997 
L 298.97005 189.901033 
L 315.284349 190.648833 
L 338.124367 191.298553 
L 360.964386 191.735407 
L 398.487273 192.222786 
L 398.487273 192.222786 
" clip-path="url(#p86bcb9be65)" style="fill: none; stroke-dasharray: 5.55,2.4; stroke-dashoffset: 0; stroke: #0000ff; stroke-width: 1.5"/>
   </g>
   <g id="LineCollection_1">
    <path d="M 73.832727 174.528 
L 398.487273 174.528 
" clip-path="url(#p86bcb9be65)" style="fill: none; stroke-dasharray: 5.55,2.4; stroke-dashoffset: 0; stroke: #808080; stroke-width: 1.5"/>
   </g>
   <g id="LineCollection_2">
    <path d="M 236.975093 295.488 
L 236.975093 53.568 
" clip-path="url(#p86bcb9be65)" style="fill: none; stroke-dasharray: 5.55,2.4; stroke-dashoffset: 0; stroke: #008000; stroke-width: 1.5"/>
   </g>
   <g id="patch_3">
    <path d="M 57.6 307.584 
L 57.6 41.472 
" style="fill: none; stroke: #ffffff; stroke-width: 0.8; stroke-linejoin: miter; stroke-linecap: square"/>
   </g>
   <g id="patch_4">
    <path d="M 414.72 307.584 
L 414.72 41.472 
" style="fill: none; stroke: #ffffff; stroke-width: 0.8; stroke-linejoin: miter; stroke-linecap: square"/>
   </g>
   <g id="patch_5">
    <path d="M 57.6 307.584 
L 414.72 307.584 
" style="fill: none; stroke: #ffffff; stroke-width: 0.8; stroke-linejoin: miter; stroke-linecap: square"/>
   </g>
   <g id="patch_6">
    <path d="M 57.6 41.472 
L 414.72 41.472 
" style="fill: none; stroke: #ffffff; stroke-width: 0.8; stroke-linejoin: miter; stroke-linecap: square"/>
   </g>
   <g id="text_17">
    <!-- $\sigma^2=1, n=1$ -->
    <g style="fill: #262626" transform="translate(199.98 35.472) scale(0.12 -0.12)">
     <defs>
      <path id="DejaVuSans-Oblique-3c3" d="M 2219 3044 
Q 1744 3044 1422 2700 
Q 1081 2341 969 1747 
Q 844 1119 1044 756 
Q 1241 397 1706 397 
Q 2166 397 2503 759 
Q 2844 1122 2966 1747 
Q 3075 2319 2881 2700 
Q 2700 3044 2219 3044 
z
M 2309 3503 
L 4219 3500 
L 4106 2925 
L 3463 2925 
Q 3706 2438 3575 1747 
Q 3406 888 2884 400 
Q 2359 -91 1609 -91 
Q 856 -91 525 400 
Q 194 888 363 1747 
Q 528 2609 1050 3097 
Q 1484 3503 2309 3503 
z
" transform="scale(0.015625)"/>
      <path id="DejaVuSans-32" d="M 1228 531 
L 3431 531 
L 3431 0 
L 469 0 
L 469 531 
Q 828 903 1448 1529 
Q 2069 2156 2228 2338 
Q 2531 2678 2651 2914 
Q 2772 3150 2772 3378 
Q 2772 3750 2511 3984 
Q 2250 4219 1831 4219 
Q 1534 4219 1204 4116 
Q 875 4013 500 3803 
L 500 4441 
Q 881 4594 1212 4672 
Q 1544 4750 1819 4750 
Q 2544 4750 2975 4387 
Q 3406 4025 3406 3419 
Q 3406 3131 3298 2873 
Q 3191 2616 2906 2266 
Q 2828 2175 2409 1742 
Q 1991 1309 1228 531 
z
" transform="scale(0.015625)"/>
      <path id="DejaVuSans-3d" d="M 678 2906 
L 4684 2906 
L 4684 2381 
L 678 2381 
L 678 2906 
z
M 678 1631 
L 4684 1631 
L 4684 1100 
L 678 1100 
L 678 1631 
z
" transform="scale(0.015625)"/>
      <path id="DejaVuSans-31" d="M 794 531 
L 1825 531 
L 1825 4091 
L 703 3866 
L 703 4441 
L 1819 4666 
L 2450 4666 
L 2450 531 
L 3481 531 
L 3481 0 
L 794 0 
L 794 531 
z
" transform="scale(0.015625)"/>
      <path id="DejaVuSans-2c" d="M 750 794 
L 1409 794 
L 1409 256 
L 897 -744 
L 494 -744 
L 750 256 
L 750 794 
z
" transform="scale(0.015625)"/>
      <path id="DejaVuSans-Oblique-6e" d="M 3566 2113 
L 3156 0 
L 2578 0 
L 2988 2091 
Q 3016 2238 3031 2350 
Q 3047 2463 3047 2528 
Q 3047 2791 2881 2937 
Q 2716 3084 2419 3084 
Q 1956 3084 1622 2776 
Q 1288 2469 1184 1941 
L 800 0 
L 225 0 
L 903 3500 
L 1478 3500 
L 1363 2950 
Q 1603 3253 1940 3418 
Q 2278 3584 2650 3584 
Q 3113 3584 3367 3334 
Q 3622 3084 3622 2631 
Q 3622 2519 3608 2391 
Q 3594 2263 3566 2113 
z
" transform="scale(0.015625)"/>
     </defs>
     <use xlink:href="#DejaVuSans-Oblique-3c3" transform="translate(0 0.765625)"/>
     <use xlink:href="#DejaVuSans-32" transform="translate(67.851615 39.046875) scale(0.7)"/>
     <use xlink:href="#DejaVuSans-3d" transform="translate(134.604544 0.765625)"/>
     <use xlink:href="#DejaVuSans-31" transform="translate(237.876029 0.765625)"/>
     <use xlink:href="#DejaVuSans-2c" transform="translate(301.499076 0.765625)"/>
     <use xlink:href="#DejaVuSans-Oblique-6e" transform="translate(352.768607 0.765625)"/>
     <use xlink:href="#DejaVuSans-3d" transform="translate(435.629935 0.765625)"/>
     <use xlink:href="#DejaVuSans-31" transform="translate(538.901419 0.765625)"/>
    </g>
   </g>
   <g id="legend_1">
    <g id="patch_7">
     <path d="M 64.6 302.584 
L 175.4 302.584 
Q 177.4 302.584 177.4 300.584 
L 177.4 227.293375 
Q 177.4 225.293375 175.4 225.293375 
L 64.6 225.293375 
Q 62.6 225.293375 62.6 227.293375 
L 62.6 300.584 
Q 62.6 302.584 64.6 302.584 
z
" style="fill: #eaeaf2; opacity: 0.8; stroke: #cccccc; stroke-linejoin: miter"/>
    </g>
    <g id="line2d_17">
     <path d="M 66.6 233.393375 
L 76.6 233.393375 
L 86.6 233.393375 
" style="fill: none; stroke: #0000ff; stroke-width: 1.5; stroke-linecap: round"/>
    </g>
    <g id="text_18">
     <!-- $E[x_{step}]$ -->
     <g style="fill: #262626" transform="translate(94.6 236.893375) scale(0.1 -0.1)">
      <defs>
       <path id="DejaVuSans-Oblique-45" d="M 1081 4666 
L 4031 4666 
L 3928 4134 
L 1606 4134 
L 1338 2753 
L 3566 2753 
L 3463 2222 
L 1234 2222 
L 909 531 
L 3284 531 
L 3181 0 
L 172 0 
L 1081 4666 
z
" transform="scale(0.015625)"/>
       <path id="DejaVuSans-5b" d="M 550 4863 
L 1875 4863 
L 1875 4416 
L 1125 4416 
L 1125 -397 
L 1875 -397 
L 1875 -844 
L 550 -844 
L 550 4863 
z
" transform="scale(0.015625)"/>
       <path id="DejaVuSans-5d" d="M 1947 4863 
L 1947 -844 
L 622 -844 
L 622 -397 
L 1369 -397 
L 1369 4416 
L 622 4416 
L 622 4863 
L 1947 4863 
z
" transform="scale(0.015625)"/>
      </defs>
      <use xlink:href="#DejaVuSans-Oblique-45" transform="translate(0 0.015625)"/>
      <use xlink:href="#DejaVuSans-5b" transform="translate(63.183594 0.015625)"/>
      <use xlink:href="#DejaVuSans-Oblique-78" transform="translate(102.197266 0.015625)"/>
      <use xlink:href="#DejaVuSans-Oblique-73" transform="translate(161.376953 -16.390625) scale(0.7)"/>
      <use xlink:href="#DejaVuSans-Oblique-74" transform="translate(197.84668 -16.390625) scale(0.7)"/>
      <use xlink:href="#DejaVuSans-Oblique-65" transform="translate(225.292969 -16.390625) scale(0.7)"/>
      <use xlink:href="#DejaVuSans-Oblique-70" transform="translate(268.359375 -16.390625) scale(0.7)"/>
      <use xlink:href="#DejaVuSans-5d" transform="translate(315.527344 0.015625)"/>
     </g>
    </g>
    <g id="line2d_18">
     <path d="M 66.6 249.193375 
L 76.6 249.193375 
L 86.6 249.193375 
" style="fill: none; stroke-dasharray: 5.55,2.4; stroke-dashoffset: 0; stroke: #0000ff; stroke-width: 1.5"/>
    </g>
    <g id="text_19">
     <!-- $E[x_{step} | x_{step} \ne 0]$ -->
     <g style="fill: #262626" transform="translate(94.6 252.693375) scale(0.1 -0.1)">
      <defs>
       <path id="DejaVuSans-7c" d="M 1344 4891 
L 1344 -1509 
L 813 -1509 
L 813 4891 
L 1344 4891 
z
" transform="scale(0.015625)"/>
       <path id="DejaVuSans-2260" d="M 678 2906 
L 3091 2906 
L 3891 3891 
L 4281 3572 
L 3738 2906 
L 4684 2906 
L 4684 2381 
L 3309 2381 
L 2700 1631 
L 4684 1631 
L 4684 1100 
L 2266 1100 
L 1459 122 
L 1069 441 
L 1613 1100 
L 678 1100 
L 678 1631 
L 2047 1631 
L 2656 2381 
L 678 2381 
L 678 2906 
z
" transform="scale(0.015625)"/>
       <path id="DejaVuSans-30" d="M 2034 4250 
Q 1547 4250 1301 3770 
Q 1056 3291 1056 2328 
Q 1056 1369 1301 889 
Q 1547 409 2034 409 
Q 2525 409 2770 889 
Q 3016 1369 3016 2328 
Q 3016 3291 2770 3770 
Q 2525 4250 2034 4250 
z
M 2034 4750 
Q 2819 4750 3233 4129 
Q 3647 3509 3647 2328 
Q 3647 1150 3233 529 
Q 2819 -91 2034 -91 
Q 1250 -91 836 529 
Q 422 1150 422 2328 
Q 422 3509 836 4129 
Q 1250 4750 2034 4750 
z
" transform="scale(0.015625)"/>
      </defs>
      <use xlink:href="#DejaVuSans-Oblique-45" transform="translate(0 0.578125)"/>
      <use xlink:href="#DejaVuSans-5b" transform="translate(63.183594 0.578125)"/>
      <use xlink:href="#DejaVuSans-Oblique-78" transform="translate(102.197266 0.578125)"/>
      <use xlink:href="#DejaVuSans-Oblique-73" transform="translate(161.376953 -15.828125) scale(0.7)"/>
      <use xlink:href="#DejaVuSans-Oblique-74" transform="translate(197.84668 -15.828125) scale(0.7)"/>
      <use xlink:href="#DejaVuSans-Oblique-65" transform="translate(225.292969 -15.828125) scale(0.7)"/>
      <use xlink:href="#DejaVuSans-Oblique-70" transform="translate(268.359375 -15.828125) scale(0.7)"/>
      <use xlink:href="#DejaVuSans-7c" transform="translate(315.527344 0.578125)"/>
      <use xlink:href="#DejaVuSans-Oblique-78" transform="translate(349.21875 0.578125)"/>
      <use xlink:href="#DejaVuSans-Oblique-73" transform="translate(408.398438 -15.828125) scale(0.7)"/>
      <use xlink:href="#DejaVuSans-Oblique-74" transform="translate(444.868164 -15.828125) scale(0.7)"/>
      <use xlink:href="#DejaVuSans-Oblique-65" transform="translate(472.314453 -15.828125) scale(0.7)"/>
      <use xlink:href="#DejaVuSans-Oblique-70" transform="translate(515.380859 -15.828125) scale(0.7)"/>
      <use xlink:href="#DejaVuSans-2260" transform="translate(582.03125 0.578125)"/>
      <use xlink:href="#DejaVuSans-30" transform="translate(685.302734 0.578125)"/>
      <use xlink:href="#DejaVuSans-5d" transform="translate(748.925781 0.578125)"/>
     </g>
    </g>
    <g id="patch_8">
     <path d="M 66.6 267.951187 
L 86.6 267.951187 
L 86.6 260.951187 
L 66.6 260.951187 
z
" style="fill: #0000ff; fill-opacity: 0.3; stroke: #0000ff; stroke-opacity: 0.3; stroke-linejoin: miter"/>
    </g>
    <g id="text_20">
     <!-- 90% CI -->
     <g style="fill: #262626" transform="translate(94.6 267.951187) scale(0.1 -0.1)">
      <defs>
       <path id="ArialMT-39" d="M 350 1059 
L 891 1109 
Q 959 728 1153 556 
Q 1347 384 1650 384 
Q 1909 384 2104 503 
Q 2300 622 2425 820 
Q 2550 1019 2634 1356 
Q 2719 1694 2719 2044 
Q 2719 2081 2716 2156 
Q 2547 1888 2255 1720 
Q 1963 1553 1622 1553 
Q 1053 1553 659 1965 
Q 266 2378 266 3053 
Q 266 3750 677 4175 
Q 1088 4600 1706 4600 
Q 2153 4600 2523 4359 
Q 2894 4119 3086 3673 
Q 3278 3228 3278 2384 
Q 3278 1506 3087 986 
Q 2897 466 2520 194 
Q 2144 -78 1638 -78 
Q 1100 -78 759 220 
Q 419 519 350 1059 
z
M 2653 3081 
Q 2653 3566 2395 3850 
Q 2138 4134 1775 4134 
Q 1400 4134 1122 3828 
Q 844 3522 844 3034 
Q 844 2597 1108 2323 
Q 1372 2050 1759 2050 
Q 2150 2050 2401 2323 
Q 2653 2597 2653 3081 
z
" transform="scale(0.015625)"/>
       <path id="ArialMT-25" d="M 372 3481 
Q 372 3972 619 4315 
Q 866 4659 1334 4659 
Q 1766 4659 2048 4351 
Q 2331 4044 2331 3447 
Q 2331 2866 2045 2552 
Q 1759 2238 1341 2238 
Q 925 2238 648 2547 
Q 372 2856 372 3481 
z
M 1350 4272 
Q 1141 4272 1002 4090 
Q 863 3909 863 3425 
Q 863 2984 1003 2804 
Q 1144 2625 1350 2625 
Q 1563 2625 1702 2806 
Q 1841 2988 1841 3469 
Q 1841 3913 1700 4092 
Q 1559 4272 1350 4272 
z
M 1353 -169 
L 3859 4659 
L 4316 4659 
L 1819 -169 
L 1353 -169 
z
M 3334 1075 
Q 3334 1569 3581 1911 
Q 3828 2253 4300 2253 
Q 4731 2253 5014 1945 
Q 5297 1638 5297 1041 
Q 5297 459 5011 145 
Q 4725 -169 4303 -169 
Q 3888 -169 3611 142 
Q 3334 453 3334 1075 
z
M 4316 1866 
Q 4103 1866 3964 1684 
Q 3825 1503 3825 1019 
Q 3825 581 3965 400 
Q 4106 219 4313 219 
Q 4528 219 4667 400 
Q 4806 581 4806 1063 
Q 4806 1506 4665 1686 
Q 4525 1866 4316 1866 
z
" transform="scale(0.015625)"/>
       <path id="ArialMT-20" transform="scale(0.015625)"/>
       <path id="ArialMT-43" d="M 3763 1606 
L 4369 1453 
Q 4178 706 3683 314 
Q 3188 -78 2472 -78 
Q 1731 -78 1267 223 
Q 803 525 561 1097 
Q 319 1669 319 2325 
Q 319 3041 592 3573 
Q 866 4106 1370 4382 
Q 1875 4659 2481 4659 
Q 3169 4659 3637 4309 
Q 4106 3959 4291 3325 
L 3694 3184 
Q 3534 3684 3231 3912 
Q 2928 4141 2469 4141 
Q 1941 4141 1586 3887 
Q 1231 3634 1087 3207 
Q 944 2781 944 2328 
Q 944 1744 1114 1308 
Q 1284 872 1643 656 
Q 2003 441 2422 441 
Q 2931 441 3284 734 
Q 3638 1028 3763 1606 
z
" transform="scale(0.015625)"/>
       <path id="ArialMT-49" d="M 597 0 
L 597 4581 
L 1203 4581 
L 1203 0 
L 597 0 
z
" transform="scale(0.015625)"/>
      </defs>
      <use xlink:href="#ArialMT-39"/>
      <use xlink:href="#ArialMT-30" x="55.615234"/>
      <use xlink:href="#ArialMT-25" x="111.230469"/>
      <use xlink:href="#ArialMT-20" x="200.146484"/>
      <use xlink:href="#ArialMT-43" x="227.929688"/>
      <use xlink:href="#ArialMT-49" x="300.146484"/>
     </g>
    </g>
    <g id="line2d_19">
     <path d="M 66.6 278.5965 
L 86.6 278.5965 
" style="fill: none; stroke-dasharray: 5.55,2.4; stroke-dashoffset: 0; stroke: #808080; stroke-width: 1.5"/>
    </g>
    <g id="text_21">
     <!-- $x_{next} = x$ -->
     <g style="fill: #262626" transform="translate(94.6 282.0965) scale(0.1 -0.1)">
      <use xlink:href="#DejaVuSans-Oblique-78" transform="translate(0 0.3125)"/>
      <use xlink:href="#DejaVuSans-Oblique-6e" transform="translate(59.179688 -16.09375) scale(0.7)"/>
      <use xlink:href="#DejaVuSans-Oblique-65" transform="translate(103.544922 -16.09375) scale(0.7)"/>
      <use xlink:href="#DejaVuSans-Oblique-78" transform="translate(146.611328 -16.09375) scale(0.7)"/>
      <use xlink:href="#DejaVuSans-Oblique-74" transform="translate(188.037109 -16.09375) scale(0.7)"/>
      <use xlink:href="#DejaVuSans-3d" transform="translate(237.700195 0.3125)"/>
      <use xlink:href="#DejaVuSans-Oblique-78" transform="translate(340.97168 0.3125)"/>
     </g>
    </g>
    <g id="line2d_20">
     <path d="M 66.6 292.884 
L 86.6 292.884 
" style="fill: none; stroke-dasharray: 5.55,2.4; stroke-dashoffset: 0; stroke: #008000; stroke-width: 1.5"/>
    </g>
    <g id="text_22">
     <!-- mode of target $\pi$ -->
     <g style="fill: #262626" transform="translate(94.6 296.384) scale(0.1 -0.1)">
      <defs>
       <path id="ArialMT-6d" d="M 422 0 
L 422 3319 
L 925 3319 
L 925 2853 
Q 1081 3097 1340 3245 
Q 1600 3394 1931 3394 
Q 2300 3394 2536 3241 
Q 2772 3088 2869 2813 
Q 3263 3394 3894 3394 
Q 4388 3394 4653 3120 
Q 4919 2847 4919 2278 
L 4919 0 
L 4359 0 
L 4359 2091 
Q 4359 2428 4304 2576 
Q 4250 2725 4106 2815 
Q 3963 2906 3769 2906 
Q 3419 2906 3187 2673 
Q 2956 2441 2956 1928 
L 2956 0 
L 2394 0 
L 2394 2156 
Q 2394 2531 2256 2718 
Q 2119 2906 1806 2906 
Q 1569 2906 1367 2781 
Q 1166 2656 1075 2415 
Q 984 2175 984 1722 
L 984 0 
L 422 0 
z
" transform="scale(0.015625)"/>
       <path id="ArialMT-6f" d="M 213 1659 
Q 213 2581 725 3025 
Q 1153 3394 1769 3394 
Q 2453 3394 2887 2945 
Q 3322 2497 3322 1706 
Q 3322 1066 3130 698 
Q 2938 331 2570 128 
Q 2203 -75 1769 -75 
Q 1072 -75 642 372 
Q 213 819 213 1659 
z
M 791 1659 
Q 791 1022 1069 705 
Q 1347 388 1769 388 
Q 2188 388 2466 706 
Q 2744 1025 2744 1678 
Q 2744 2294 2464 2611 
Q 2184 2928 1769 2928 
Q 1347 2928 1069 2612 
Q 791 2297 791 1659 
z
" transform="scale(0.015625)"/>
       <path id="ArialMT-64" d="M 2575 0 
L 2575 419 
Q 2259 -75 1647 -75 
Q 1250 -75 917 144 
Q 584 363 401 755 
Q 219 1147 219 1656 
Q 219 2153 384 2558 
Q 550 2963 881 3178 
Q 1213 3394 1622 3394 
Q 1922 3394 2156 3267 
Q 2391 3141 2538 2938 
L 2538 4581 
L 3097 4581 
L 3097 0 
L 2575 0 
z
M 797 1656 
Q 797 1019 1065 703 
Q 1334 388 1700 388 
Q 2069 388 2326 689 
Q 2584 991 2584 1609 
Q 2584 2291 2321 2609 
Q 2059 2928 1675 2928 
Q 1300 2928 1048 2622 
Q 797 2316 797 1656 
z
" transform="scale(0.015625)"/>
       <path id="ArialMT-65" d="M 2694 1069 
L 3275 997 
Q 3138 488 2766 206 
Q 2394 -75 1816 -75 
Q 1088 -75 661 373 
Q 234 822 234 1631 
Q 234 2469 665 2931 
Q 1097 3394 1784 3394 
Q 2450 3394 2872 2941 
Q 3294 2488 3294 1666 
Q 3294 1616 3291 1516 
L 816 1516 
Q 847 969 1125 678 
Q 1403 388 1819 388 
Q 2128 388 2347 550 
Q 2566 713 2694 1069 
z
M 847 1978 
L 2700 1978 
Q 2663 2397 2488 2606 
Q 2219 2931 1791 2931 
Q 1403 2931 1139 2672 
Q 875 2413 847 1978 
z
" transform="scale(0.015625)"/>
       <path id="ArialMT-66" d="M 556 0 
L 556 2881 
L 59 2881 
L 59 3319 
L 556 3319 
L 556 3672 
Q 556 4006 616 4169 
Q 697 4388 901 4523 
Q 1106 4659 1475 4659 
Q 1713 4659 2000 4603 
L 1916 4113 
Q 1741 4144 1584 4144 
Q 1328 4144 1222 4034 
Q 1116 3925 1116 3625 
L 1116 3319 
L 1763 3319 
L 1763 2881 
L 1116 2881 
L 1116 0 
L 556 0 
z
" transform="scale(0.015625)"/>
       <path id="ArialMT-74" d="M 1650 503 
L 1731 6 
Q 1494 -44 1306 -44 
Q 1000 -44 831 53 
Q 663 150 594 308 
Q 525 466 525 972 
L 525 2881 
L 113 2881 
L 113 3319 
L 525 3319 
L 525 4141 
L 1084 4478 
L 1084 3319 
L 1650 3319 
L 1650 2881 
L 1084 2881 
L 1084 941 
Q 1084 700 1114 631 
Q 1144 563 1211 522 
Q 1278 481 1403 481 
Q 1497 481 1650 503 
z
" transform="scale(0.015625)"/>
       <path id="ArialMT-61" d="M 2588 409 
Q 2275 144 1986 34 
Q 1697 -75 1366 -75 
Q 819 -75 525 192 
Q 231 459 231 875 
Q 231 1119 342 1320 
Q 453 1522 633 1644 
Q 813 1766 1038 1828 
Q 1203 1872 1538 1913 
Q 2219 1994 2541 2106 
Q 2544 2222 2544 2253 
Q 2544 2597 2384 2738 
Q 2169 2928 1744 2928 
Q 1347 2928 1158 2789 
Q 969 2650 878 2297 
L 328 2372 
Q 403 2725 575 2942 
Q 747 3159 1072 3276 
Q 1397 3394 1825 3394 
Q 2250 3394 2515 3294 
Q 2781 3194 2906 3042 
Q 3031 2891 3081 2659 
Q 3109 2516 3109 2141 
L 3109 1391 
Q 3109 606 3145 398 
Q 3181 191 3288 0 
L 2700 0 
Q 2613 175 2588 409 
z
M 2541 1666 
Q 2234 1541 1622 1453 
Q 1275 1403 1131 1340 
Q 988 1278 909 1158 
Q 831 1038 831 891 
Q 831 666 1001 516 
Q 1172 366 1500 366 
Q 1825 366 2078 508 
Q 2331 650 2450 897 
Q 2541 1088 2541 1459 
L 2541 1666 
z
" transform="scale(0.015625)"/>
       <path id="ArialMT-72" d="M 416 0 
L 416 3319 
L 922 3319 
L 922 2816 
Q 1116 3169 1280 3281 
Q 1444 3394 1641 3394 
Q 1925 3394 2219 3213 
L 2025 2691 
Q 1819 2813 1613 2813 
Q 1428 2813 1281 2702 
Q 1134 2591 1072 2394 
Q 978 2094 978 1738 
L 978 0 
L 416 0 
z
" transform="scale(0.015625)"/>
       <path id="ArialMT-67" d="M 319 -275 
L 866 -356 
Q 900 -609 1056 -725 
Q 1266 -881 1628 -881 
Q 2019 -881 2231 -725 
Q 2444 -569 2519 -288 
Q 2563 -116 2559 434 
Q 2191 0 1641 0 
Q 956 0 581 494 
Q 206 988 206 1678 
Q 206 2153 378 2554 
Q 550 2956 876 3175 
Q 1203 3394 1644 3394 
Q 2231 3394 2613 2919 
L 2613 3319 
L 3131 3319 
L 3131 450 
Q 3131 -325 2973 -648 
Q 2816 -972 2473 -1159 
Q 2131 -1347 1631 -1347 
Q 1038 -1347 672 -1080 
Q 306 -813 319 -275 
z
M 784 1719 
Q 784 1066 1043 766 
Q 1303 466 1694 466 
Q 2081 466 2343 764 
Q 2606 1063 2606 1700 
Q 2606 2309 2336 2618 
Q 2066 2928 1684 2928 
Q 1309 2928 1046 2623 
Q 784 2319 784 1719 
z
" transform="scale(0.015625)"/>
       <path id="DejaVuSans-Oblique-3c0" d="M 584 3500 
L 3938 3500 
L 3825 2925 
L 3384 2925 
L 2966 775 
Q 2922 550 2981 450 
Q 3038 353 3209 353 
Q 3256 353 3325 363 
Q 3397 369 3419 372 
L 3338 -44 
Q 3222 -84 3103 -103 
Q 2981 -122 2866 -122 
Q 2491 -122 2388 81 
Q 2284 288 2391 838 
L 2797 2925 
L 1506 2925 
L 938 0 
L 350 0 
L 919 2925 
L 472 2925 
L 584 3500 
z
" transform="scale(0.015625)"/>
      </defs>
      <use xlink:href="#ArialMT-6d" transform="translate(0 0.203125)"/>
      <use xlink:href="#ArialMT-6f" transform="translate(83.300781 0.203125)"/>
      <use xlink:href="#ArialMT-64" transform="translate(138.916016 0.203125)"/>
      <use xlink:href="#ArialMT-65" transform="translate(194.53125 0.203125)"/>
      <use xlink:href="#ArialMT-20" transform="translate(250.146484 0.203125)"/>
      <use xlink:href="#ArialMT-6f" transform="translate(277.929688 0.203125)"/>
      <use xlink:href="#ArialMT-66" transform="translate(333.544922 0.203125)"/>
      <use xlink:href="#ArialMT-20" transform="translate(361.328125 0.203125)"/>
      <use xlink:href="#ArialMT-74" transform="translate(389.111328 0.203125)"/>
      <use xlink:href="#ArialMT-61" transform="translate(416.894531 0.203125)"/>
      <use xlink:href="#ArialMT-72" transform="translate(472.509766 0.203125)"/>
      <use xlink:href="#ArialMT-67" transform="translate(505.810547 0.203125)"/>
      <use xlink:href="#ArialMT-65" transform="translate(561.425781 0.203125)"/>
      <use xlink:href="#ArialMT-74" transform="translate(617.041016 0.203125)"/>
      <use xlink:href="#ArialMT-20" transform="translate(644.824219 0.203125)"/>
      <use xlink:href="#DejaVuSans-Oblique-3c0" transform="translate(672.607422 0.203125)"/>
     </g>
    </g>
   </g>
  </g>
 </g>
 <defs>
  <clipPath id="p86bcb9be65">
   <rect x="57.6" y="41.472" width="357.12" height="266.112"/>
  </clipPath>
 </defs>
</svg>
